<svg width="623" height="262" viewBox="0 0 623 262" fill="none" xmlns="http://www.w3.org/2000/svg">
<g clip-path="url(#clip0_1_10)">
<path d="M195.04 101.994C193.29 100.59 201.831 98.2218 202.291 97.9924C209.944 94.1787 217.511 86.6097 218.56 78.1359C220.118 65.5606 214.513 53.9664 199.386 55.5766C199.49 57.3806 201.458 57.9859 202.34 59.5314C206.188 66.2951 199.596 81.7974 195.537 88.0732C188.317 99.2444 180.465 100.002 175.319 86.8684C166.219 63.6449 199.261 39.7338 220.155 56.7636C232.707 66.9945 231.198 87.1683 217.324 95.7711C210.931 99.7377 202.675 101.93 195.033 101.988L195.04 101.994ZM194.842 56.8342C184.99 59.3963 176.61 75.6446 182.377 83.7301C184.493 86.6922 185.58 85.6816 187.486 83.3898C191.607 78.4238 198.137 63.8271 196.188 57.7274C196.021 57.2044 195.493 56.5991 194.842 56.8342Z" fill="black"/>
<path d="M118.24 47.459C120.435 44.8552 127.288 36.0971 130.876 36.3643C136.117 38.7008 153.176 49.1464 154.164 54.1325C155.257 59.6531 147.416 60.0654 146.955 64.601C147.335 76.0622 147.335 87.5769 147.772 99.03C147.975 104.314 150.195 113.843 148.607 118.669C148.283 119.654 142.564 122.105 141.163 122.517C137.226 123.663 125.117 125.144 122.298 122.289C120.67 120.639 121.901 117.18 119.066 116.936L64.0353 116.898C64.3269 126.221 42.3193 127.496 37.6942 123.388C36.1228 121.99 36.1714 120.753 36.0013 118.883C34.8511 106.689 39.4195 89.6992 38.5042 76.8869L36.7546 37.9831C37.6132 36.8988 40.4725 37.609 41.7442 37.8686C53.9508 40.3654 64.3836 49.1846 77.3435 47.4513L78.1539 30.6452L13.7426 31.4241C11.183 30.9583 10.4378 25.3384 9.30383 23.0172L78.1539 24.5443C78.3481 16.336 78.2101 8.17344 76.5338 0.110217C81.7254 -0.424279 109.079 0.980704 111.429 4.42438C115.632 10.594 107.427 11.663 106.649 13.6101L105.685 24.5443L136.716 23.7961C140.491 18.535 146.501 6.37909 154.415 7.387C156.618 7.6695 160.894 10.9223 162.766 12.3502C165.576 14.5035 175.313 23.0477 175.985 25.8576C176.398 27.5604 176.568 29.5686 174.94 30.6605H104.065L102.446 47.459H118.24ZM121.075 68.0752V54.7128L65.7606 54.4837C62.1966 55.4917 64.1244 65.2806 63.5655 68.0752H121.075ZM121.075 74.1532H63.5655V88.6917H121.075V74.1532ZM63.5331 94.8002V110.835H121.075V94.8002H63.5331Z" fill="black"/>
<path d="M182.026 136.77L68.016 136.885C72.0309 141.44 92.9147 148.801 89.4743 156.087C87.6691 159.909 81.6955 157.755 78.3286 158.602C75.9325 159.202 65.9276 166.156 62.2528 167.941C46.0396 175.803 21.7402 182.341 3.54383 182.98C-0.543859 183.126 -1.34521 181.434 2.45918 179.58C20.8173 170.618 36.132 162.102 50.2325 147.286C51.7138 145.732 57.7765 139.286 58.2946 138.024C58.6993 137.047 58.1408 136.609 57.1047 136.878L7.78533 138.286L3.26862 129.185C49.4231 131.5 95.7883 130.593 142.048 130.646C145.819 130.469 146.095 126.515 147.965 123.993C149.997 121.246 157.209 111.384 160.576 111.661C167.837 115.031 174.984 121.054 179.719 127.277C182.075 130.377 184.309 132.762 182.042 136.77H182.026Z" fill="black"/>
<path d="M102.894 142.531C105.064 141.887 116.639 142.22 119.737 142.379C133.199 143.046 159.495 147.143 168.118 157.541C179.539 171.309 164.665 190.666 147.517 177.64C143.798 174.816 141.039 170.506 137.877 167.757C130.699 161.502 121.898 155.155 113.38 150.619C111.678 149.71 96.4653 144.447 102.886 142.538L102.894 142.531Z" fill="black"/>
<path d="M288.956 40.6021C291.973 38.6795 293.418 38.7963 296.795 40.0878C298.911 40.9001 306.278 45.6277 306.712 47.6965C307.68 52.2838 304.744 52.0267 303.15 54.8317C300.841 58.8814 299.345 66.6362 297.279 71.5099C290.874 86.5693 279.287 99.683 263.92 107.303C261.909 108.302 252.091 112.451 250.576 112.258C249.689 112.142 249.695 111.563 250.247 110.792C251.048 109.664 257.391 106.04 259.228 104.639C276.673 91.3261 285.493 70.1015 289.353 49.7359C285.76 49.5197 282.21 49.9814 278.672 50.4839C272.063 51.4248 264.237 55.2875 258.328 52.652C257.484 60.1671 260.494 68.2899 259.514 75.6821C258.31 84.7632 247.902 79.3811 246.207 73.1227C245.047 68.8509 246.815 66.6303 247.182 62.902C247.709 57.5725 247.231 43.4421 238.822 44.4707C237.493 42.8519 240.839 40.7657 242.254 40.1521C248.528 37.423 255.138 40.5027 258.688 45.5459C264.273 44.9674 269.822 43.9564 275.395 43.3077C278.306 42.9688 285.679 43.2435 287.752 42.063C288.348 41.7241 288.584 40.8475 288.963 40.6079L288.956 40.6021Z" fill="black"/>
<path d="M437.642 102.177C435.677 103.976 432.573 104.028 430.238 102.894C426.887 101.266 422.859 88.7396 419.89 84.5548C419.218 83.6139 414.044 77.7063 413.533 77.7011C403.289 90.4152 389.134 100.272 372.762 104.622C372.238 104.763 370.988 105.845 370.729 104.429C370.538 103.388 371.887 103.07 372.503 102.606C389.134 90.1506 399.476 81.8979 409.634 63.3877C411.008 60.8895 414.666 53.9417 415.079 51.5317C415.233 50.6382 415.135 50.5089 414.216 50.7029C408.944 51.5434 401.269 57.2745 396.766 58.1563C391.413 59.2025 382.198 54.2885 382.464 48.6396C382.537 47.0408 383.695 43.4493 385.827 44.7602C388.924 46.6705 389.436 47.9402 393.797 47.7168C396.883 47.5581 410.638 45.0364 413.367 44.0254C415.264 43.32 417.062 40.6573 419.705 40.7161C422.181 40.7689 430.466 45.8593 431.735 47.9696C434.396 52.3957 429.832 53.4479 427.497 56.334C423.481 61.301 421.233 69.1188 416.311 73.8682C423.271 77.5129 431.279 80.2928 436.269 86.5528C439.743 90.9205 442.551 97.6745 437.648 102.171L437.642 102.177Z" fill="black"/>
<path d="M553.486 109.106C551.743 107.341 560.521 103.09 561.813 102.105C567.567 97.7368 574.849 89.1295 578.842 83.2061C585.271 73.672 590.605 62.2277 593.047 51.1619C592.93 50.0786 583.082 52.7519 582.063 53.0431C578.169 54.1555 566.813 59.6069 564.365 59.5545C557.856 59.4146 545.902 50.2533 553.789 44.4875C555.211 45.7746 557.028 47.2714 559 47.7024C562.975 48.5702 586.637 45.3378 590.865 43.8643C593.343 43.0024 593.882 40.4805 596.434 40.3291C600.366 40.0962 610.25 46.2639 610.862 50.131C611.177 52.1345 606.943 55.6931 605.682 57.8188C602.554 63.0897 600.484 70.0028 597.25 75.5007C587.88 91.4356 572.352 104.312 553.486 109.1V109.106Z" fill="black"/>
<path d="M465.108 61.3405C474.64 61.9204 493.648 64.5913 492.467 76.8622C492.031 81.4136 487.729 85.0976 482.966 82.8777C479.863 81.4308 476.878 75.4745 474.447 72.7506C473.664 71.872 465.152 64.0173 464.493 64.8549C464.642 70.2143 464.274 75.6267 464.461 80.9863C464.685 87.5874 467.39 102.997 464.412 108.415C462.397 112.076 458.088 111.749 455.495 108.761C449.178 101.475 453.493 89.5965 453.947 80.9863C454.475 70.8353 454.948 54.5109 453.916 44.6531C453.357 39.3112 452.623 39.979 448.487 38.0343C446.411 37.0561 449.974 34.9475 451.105 34.3793C454.612 32.6222 459.213 34.1334 462.435 36.037C470.088 40.5646 465.754 43.382 465.12 49.3331C464.71 53.1403 465.4 57.4572 465.12 61.3288L465.108 61.3405Z" fill="black"/>
<path d="M338.385 103.439C336.092 105.324 334.945 104.853 332.267 104.069C326.484 102.366 317.067 94.6165 322.454 88.5942C324.872 85.8953 325.597 89.9969 327.599 90.8275C332.05 92.6718 337.114 88.6887 340.66 86.4493C354.595 77.6276 365.412 65.2461 375.796 52.9709C375.796 57.426 373.551 62.2995 371.574 66.3362C363.968 81.8229 351.613 92.5661 338.392 103.444L338.385 103.439Z" fill="black"/>
<path d="M505.056 109.102C503.529 107.554 510.128 104.888 511.191 104.12C518.896 98.5494 525.946 89.8057 529.622 81.3191C530.525 79.2297 533.441 71.5341 533.459 69.7354C533.459 68.9554 533.416 68.6702 532.915 68.0299C532.13 67.0346 529.227 66.8366 529.776 65.7481C530.327 64.6596 533.083 63.6992 534.392 63.6467C538.26 63.4838 544.791 67.9601 543.877 72.0114C543.561 73.4027 542.14 74.0895 541.658 75.1956C540.75 77.2677 540.324 79.7417 539.335 81.7382C532.637 95.3182 521.355 106.541 505.056 109.102Z" fill="black"/>
<path d="M318.941 51.1336C327.335 48.2912 345.083 51.8738 343.248 63.119C342.98 64.7533 342.056 66.7904 340.51 67.578C333.149 71.3145 330.037 61.1175 326.302 57.3158C325.103 56.0959 318.103 52.2824 318.941 51.1277V51.1336Z" fill="black"/>
<path d="M598.672 92.3532C607.437 90.7046 624.149 97.4174 620.154 107.586C618.737 111.192 615.49 112.69 611.97 110.35C609.163 108.485 607.418 101.825 604.752 98.5442C603.045 96.4473 601.363 95.6751 599.612 94.0783C599.006 93.5265 598.444 93.3173 598.678 92.3479L598.672 92.3532Z" fill="black"/>
<path d="M612.489 26.2021C624.913 24.4619 626.245 43.557 615.37 44.9598C602.443 46.629 600.635 27.8595 612.489 26.2021ZM619.06 35.5957C619.06 32.7427 616.645 30.4343 613.66 30.4343C610.675 30.4343 608.259 32.7427 608.259 35.5957C608.259 38.4488 610.675 40.7573 613.66 40.7573C616.645 40.7573 619.06 38.4488 619.06 35.5957Z" fill="black"/>
<path d="M513.743 64.0889C515.512 63.6624 520.527 66.0162 522.065 67.0967C526.613 70.2914 528.745 75.8343 525.16 80.3723C517.11 83.5847 517.922 74.3448 515.833 69.6023C515.276 68.3349 511.727 64.5736 513.743 64.0889Z" fill="black"/>
<path d="M500.875 69.5749C508.313 69.4459 517.101 75.0532 515.252 82.6431C514.494 85.7694 510.182 86.8422 507.782 84.5548C506.109 82.9655 506.242 79.9037 505.428 77.9507C504.083 74.7246 501.046 72.6894 500.875 69.5749Z" fill="black"/>
<path d="M554.064 173.569C555.283 174.786 556.706 173.995 558.03 173.972C559.931 173.945 565.903 174.404 567.084 173.414C568.266 172.425 569.804 168.554 571.738 168.742C572.48 168.814 578.408 172.734 579.403 173.48C585.654 178.18 580.128 177.384 579.375 179.971C579.111 180.872 579.293 183.736 579.309 184.892C579.331 186.456 580.155 187.479 578.776 189.022C577.627 190.298 574.941 190.531 574.106 191.222C573.051 192.095 574.98 193.29 575.661 193.798C577.145 194.91 582.397 197.657 582.847 199.288C583.297 200.919 580.748 201.953 580.479 203.141C580.331 203.805 580.281 207.509 580.677 207.791C580.908 207.952 581.369 207.974 581.655 207.924C582.902 207.709 584.974 201.008 586.6 201.008C586.902 201.008 590.517 204.612 590.995 205.148C591.885 206.149 595.286 209.688 594.083 210.876C593.077 211.872 582.853 210.699 580.737 211.258C579.941 211.75 581.227 223.023 580.27 225.549C579.314 228.076 572.523 229.054 570.133 228.595C569.705 228.513 568.453 227.551 568.271 227.158C567.749 226.041 568.618 223.796 567.327 223.416L554.684 223.565C553.531 224.101 554.569 226.705 554.629 227.899C554.843 232.09 554.657 237.568 551.986 240.991C548.602 245.331 542.734 245.27 537.767 246.232C536.982 246.006 536.779 242.555 536.509 241.693C535.29 237.812 531.933 235.324 528.636 233.328C527.977 232.925 527.087 232.919 526.472 232.466C525.856 232.012 525.34 230.868 526.247 230.564C526.934 230.332 532.505 231.31 533.878 231.365C536.466 231.47 541.047 231.985 541.646 228.667C541.806 227.794 541.922 224.073 541.328 223.603L513.577 223.631C512.308 223.398 512.89 221.486 512.072 220.734C512.258 220.463 512.428 220.375 512.753 220.319C513.973 220.109 516.604 220.269 517.984 220.308C521.505 220.402 525.153 220.811 528.664 220.883C532.762 220.966 536.878 220.844 540.971 220.816C541.218 220.745 541.465 220.552 541.575 220.319C541.905 219.639 541.8 211.507 541.399 211.252C539.63 211.136 537.845 211.263 536.075 211.225C526.818 211.031 515.615 210.528 506.44 211.213C505.731 211.269 505.215 211.606 504.55 211.733C501.193 206.259 504.023 208.278 507.534 208.466C515.945 208.925 524.719 208.399 533.076 208.461C534.466 208.471 540.74 208.941 541.377 208.389C542.251 205.834 541.41 202.959 541.448 200.317L540.998 199.67L524.851 199.642C522.115 199.725 519.341 199.487 516.609 199.637C515.561 199.692 513.313 200.72 512.769 199.625C512.616 199.321 512.066 197.121 512.066 196.74C512.066 196.258 512.006 196.303 512.494 196.308C514.341 196.336 516.807 197.049 518.796 197.16C524.768 197.492 533.482 197.585 539.405 197.16C540.081 197.11 540.74 196.944 541.394 196.817C541.872 196.474 541.927 189.281 541.481 188.712C541.306 188.486 541.042 188.369 540.762 188.33H528.971C527.85 188.552 528.081 189.906 527.29 190.78C525.906 192.295 519.736 193.345 517.84 192.604C515.231 191.587 516.747 187.965 516.747 185.981C516.747 182.758 516.714 179.015 516.467 175.78C516.33 174.016 515.544 172.143 515.764 170.379C516.604 169.224 522.999 172.137 524.373 172.524C529.609 173.995 534.768 173.636 540.152 173.911C540.839 173.746 541.613 173.531 541.724 172.723L541.328 166.232C540.976 165.724 537.751 166.034 536.905 165.983C529.664 165.558 522.23 165.536 514.945 165.685C512.511 165.734 509.594 166.277 507.281 166.265C506.841 166.265 506.319 166.144 506.022 165.779C505.726 165.414 504.693 163.109 505.204 162.793C509.907 162.721 514.626 163.12 519.362 163.208C520.84 163.236 522.274 163.198 523.73 163.208C529.389 163.258 535.048 163.242 540.707 163.164C541.031 163.07 541.295 162.799 541.394 162.473C541.663 161.555 541.042 156.956 540.867 155.668C540.691 154.379 539.235 151.051 541.026 151.067C544.987 151.885 548.959 152.66 552.92 153.484C554.338 153.776 557.107 153.6 557.365 155.656C557.712 158.409 554.47 158.139 554.13 159.272C554.163 160.079 553.701 162.91 554.525 163.18C556.887 163.324 559.272 163.131 561.634 163.208C565.013 163.319 569.123 164.076 572.48 163.374C572.952 163.275 573.623 163.009 573.963 162.655C575.062 161.511 576.414 158.741 577.688 157.298C578.122 156.806 579.507 155.252 580.029 155.208C581.435 155.081 589.533 162.623 591.275 163.773C591.693 164.375 591.154 165.303 590.578 165.558C590.253 165.702 587.742 165.945 587.149 165.973C585.375 166.067 583.797 165.696 582.221 165.691C574.683 165.641 567.205 166.139 559.689 165.989C557.948 165.956 555.541 164.989 554.074 166.393V173.564L554.064 173.569ZM531.224 176.267C530.582 176.333 528.505 176.582 528.301 177.19C528.12 177.732 528.147 183.736 528.246 184.615C528.378 185.754 529.027 185.765 530.032 185.853C532.383 186.063 538.241 186.152 540.487 185.853C540.872 185.804 541.196 185.787 541.46 185.455C541.823 184.991 541.823 178.982 541.724 177.964C541.58 176.544 541.042 176.344 539.647 176.19C537.521 175.952 533.383 176.041 531.219 176.272L531.224 176.267ZM555.371 176.256C554.75 176.372 554.195 176.472 554.064 177.152C553.866 178.197 553.904 183.46 554.052 184.615C554.173 185.527 554.388 185.737 555.289 185.859C557.25 186.119 564.062 186.125 566.018 185.859C567.749 185.627 567.486 184.002 567.53 182.658C567.557 181.79 567.327 177.229 566.975 176.87C566.695 176.588 566.129 176.505 565.739 176.46C563.568 176.218 557.332 175.891 555.371 176.256ZM554.064 188.74V196.463C554.591 197.032 555.382 197.104 556.113 197.165C558.014 197.325 565.886 197.392 567.304 196.806C568.315 196.386 570.013 193.311 570.82 192.328C570.837 191.432 568.694 191.658 567.914 190.824C567.079 189.934 567.809 188.424 566.162 188.17C562.612 188.756 558.491 187.905 555.014 188.314C554.612 188.363 554.31 188.347 554.069 188.74H554.064ZM554.064 200.604C553.624 202.633 554.388 206.122 554.064 208.328L554.475 208.742H566.827C568.502 208.742 567.601 203.346 567.54 202.229C567.497 201.439 568.222 200.543 567.228 199.791C566.123 198.951 561.975 199.614 560.53 199.648C558.81 199.692 557.035 199.719 555.338 199.437C554.849 199.487 554.163 200.161 554.069 200.599L554.064 200.604ZM554.064 211.639V220.192C554.481 220.684 554.948 220.816 555.569 220.888C557.772 221.149 564.409 221.182 566.568 220.9C567.7 220.75 567.974 220.181 568.079 219.109C568.227 217.599 568.233 214.232 568.068 212.739C568.019 212.314 567.898 211.589 567.519 211.363C566.887 210.987 559.244 211.263 557.761 211.241C556.519 211.225 555.234 210.456 554.069 211.645L554.064 211.639Z" fill="#FC6D26"/>
<path d="M305.799 224.079C295.009 238.531 276.883 241.732 261.862 231.632C258.231 229.188 255.989 226.335 253.467 222.896C244.99 211.33 243.529 196.729 248.254 182.941C255.314 162.347 279.235 153.252 297.657 165.592C315.629 177.628 318.369 207.239 305.799 224.085V224.079ZM290.448 168.555C285.905 162.855 276.878 161.539 271.197 166.266C268.257 168.715 265.208 174.166 264 177.793C259.918 190.067 259.835 215.499 267.214 226.246C275.257 237.962 288.037 235.745 293.761 223.427C299.931 210.136 299.827 180.326 290.448 168.555Z" fill="#FC6D26"/>
<path d="M466.415 159.284C465.733 160.136 463.822 160.783 463.536 162.043C463.2 163.525 464.063 168.678 464.37 170.464C466.536 182.975 471.398 196.785 478.469 207.329C483.381 214.648 494.682 225.518 502.538 229.487C504.182 230.317 506.67 229.974 505.428 232.71C501.627 232.036 496.622 236.359 494.99 239.461C493.627 242.054 494.369 244.757 490.556 242.629C485.452 239.782 476.661 228.392 473.683 223.168C468.722 214.46 466.162 206.526 464.365 196.669C463.289 190.77 462.437 184.826 462.371 178.811C462.371 178.569 461.821 178.629 461.695 178.684C460.701 179.099 460.854 183.688 460.695 184.854C460.179 188.614 459.091 193.236 458.135 196.907C452.943 216.892 442.339 231.842 423.445 240.942C421.709 241.777 417.363 243.85 415.698 244.21C415.352 244.282 415.099 244.265 414.791 244.083L414.572 243.088L422.153 237.442C434.499 224.904 442.867 209.225 446.043 191.931C448.103 180.702 449.158 167.594 447.465 156.266C447.301 155.16 446.674 154.054 446.987 152.744C447.218 152.517 452.581 153.502 453.36 153.656C456.586 154.298 461.926 155.182 464.832 156.199C466.25 156.692 467.662 157.714 466.398 159.29L466.415 159.284Z" fill="#FC6D26"/>
<path d="M335.797 184.783C336.604 185.899 335.538 191.898 336.527 192.191C337.638 192.263 337.912 190.991 338.566 190.388C342.285 186.961 346.977 184.683 352.175 185.009C354.488 185.158 359.108 187.132 360.653 188.902C367.542 196.786 362.817 216.545 364.778 226.966C365.19 229.145 366.772 231.323 369.053 231.798C369.849 231.964 370.228 231.627 370.773 231.693C372.316 231.886 371.734 234.054 371.756 235.187C371.3 235.425 370.806 235.481 370.294 235.514C365.998 235.828 358.312 235.9 354.075 235.514C352.197 235.342 352.175 234.673 352.021 232.887C351.18 223.024 352.675 211.956 352.043 201.971C351.708 196.719 350.499 192.08 344.191 192.727C341.483 193.004 336.236 197.272 336.126 200.069C336.088 200.976 336.126 202.037 336.099 203.071C335.923 208.329 336.215 213.659 336.385 218.812C336.5 222.356 335.406 229.343 339.313 231.041C340.423 231.522 343.093 231.472 343.554 232.025L343.488 235.182L317.842 235.237L317.457 232.196C319.836 231.793 322.627 231.444 323.622 228.868C324.38 226.905 324.138 220.747 324.16 218.253C324.22 211.613 324.555 203.198 324.05 196.725C323.88 194.535 323.231 192.655 320.82 192.246C320.007 192.108 318.693 192.39 318.111 191.931L317.764 189.592L335.808 184.772L335.797 184.783Z" fill="#FC6D26"/>
<path d="M416.501 209.251C415.16 209.522 413.88 208.985 412.556 208.991C405.271 209.041 397.936 209.478 390.59 209.301C387.404 209.224 386.442 207.775 386.612 212.198C387.019 222.896 393.788 233.03 405.529 230.359C409.49 229.458 413.023 224.626 415.583 221.713C417.242 223.521 418.215 223.349 416.765 225.655C414.27 229.619 407.43 235.739 402.886 236.811C393.716 238.979 383.47 235.855 377.882 228.142C369.312 216.305 372.382 195.236 385.612 188.004C397.876 181.298 410.116 187.164 415.028 199.643C416.171 202.545 417.451 206.193 416.501 209.257V209.251ZM404.144 205.669C404.644 204.723 404.282 203.618 404.111 202.611C403.595 199.571 402.194 192.66 400.177 190.565C397.683 187.983 394.711 188.137 391.98 190.265C388.557 192.936 386.744 200.057 386.635 204.231C386.624 204.574 386.645 204.762 386.871 205.043C387.415 205.718 402.09 205.525 404.15 205.669H404.144Z" fill="#FC6D26"/>
</g>
<defs>
<clipPath id="clip0_1_10">
<rect width="623" height="261.645" fill="white"/>
</clipPath>
</defs>
</svg>
