<svg width="93" height="77" viewBox="0 0 93 77" fill="none" xmlns="http://www.w3.org/2000/svg">
<path fill-rule="evenodd" clip-rule="evenodd" d="M20.9077 2.48356L91.2125 35.6125L93 38.113L73.8999 76.755L1.79755 41.1256L0 38.6251L20.8976 2.48356H20.9077Z" fill="#95C2E8"/>
<path d="M19.1237 -6.03455e-05L0.0247314 38.6268L72.0845 74.2566L91.1834 35.6297L19.1237 -6.03455e-05Z" fill="#8ABBE5"/>
<path d="M20.0301 1.64374L11.247 19.4149L29.0182 28.198L37.8012 10.4268L20.0301 1.64374Z" fill="#D2E5F6"/>
<path fill-rule="evenodd" clip-rule="evenodd" d="M25.4568 17.1552L25.9589 15.8799C26.1798 15.8196 26.3907 15.7393 26.5915 15.6389C27.0836 15.3276 27.3447 15.2573 27.3648 15.5485C27.4049 15.6288 27.3547 15.7895 27.2242 15.9602C26.9932 16.2615 26.5313 16.6531 26.3304 16.9142C26.1597 17.1251 25.4568 17.7778 25.4668 17.1653" fill="white"/>
<path fill-rule="evenodd" clip-rule="evenodd" d="M16.2883 19.6352L18.116 20.4386L24.4726 23.0295L26.5614 24.0437C24.5329 23.2504 23.6793 20.6897 23.7496 20.047C23.85 19.4143 24.091 18.8118 24.4626 18.2896L22.6751 17.5565L21.0483 16.5322C20.4156 18.5808 18.4172 19.8762 16.2883 19.6352Z" fill="#95C2E8"/>
<path fill-rule="evenodd" clip-rule="evenodd" d="M23.9504 20.5593C23.8199 20.4187 23.7496 20.238 23.7395 20.0371C23.85 19.3844 24.1111 18.7718 24.4927 18.2296L22.6651 17.5467L21.0382 16.5224C21.0382 16.5224 20.9278 16.8036 20.8976 16.8839C20.8675 16.9643 20.8273 17.0346 20.8173 17.0647C20.8374 17.1651 20.8675 17.2655 20.9177 17.3659C20.978 17.4965 21.0282 17.627 21.0583 17.7576C21.0884 18.0086 21.1286 18.2497 21.1889 18.4907C21.4198 18.9325 21.7512 19.3041 22.1529 19.5953C22.6751 20.0371 23.2877 20.3685 23.9504 20.5593Z" fill="#498AC9"/>
<path fill-rule="evenodd" clip-rule="evenodd" d="M22.1328 18.5811C22.1328 18.5811 22.1529 18.5911 22.163 18.6012C22.404 18.7518 22.6751 18.8522 22.9663 18.8824C23.2073 18.8924 23.3881 18.7518 23.7797 18.6213C24.1613 18.5008 24.5329 18.32 24.8643 18.089C25.1555 17.8279 25.4066 17.5267 25.6174 17.1953C25.9187 16.8639 26.2099 16.5225 26.471 16.171C26.712 15.7392 26.8627 15.2772 27.1137 14.7852C27.3447 14.3935 27.5355 13.9818 27.6861 13.55C27.8066 13.1885 27.7966 12.7968 27.646 12.4454C27.5556 12.2345 27.4351 12.0236 27.3045 11.8428C27.3045 11.8428 27.2844 11.8127 27.2744 11.8027V11.7826C27.2744 11.7826 27.2443 11.7625 27.2342 11.7525C27.2342 11.7525 27.2242 11.7324 27.2141 11.7223C27.2141 11.7223 27.194 11.7023 27.194 11.6922C27.194 11.6922 27.184 11.6721 27.174 11.6721C27.174 11.6621 27.1539 11.642 27.1438 11.632L27.1238 11.6119C27.1238 11.6119 27.0936 11.5817 27.0735 11.5617C26.6417 11.1198 26.1095 10.7884 25.517 10.6077C24.9547 10.4169 24.3521 10.3867 23.7697 10.5273C23.3981 10.6277 23.0868 10.8587 22.8659 11.17C22.6148 11.5516 22.404 11.9533 22.2332 12.3751C22.0023 12.8772 21.7111 13.2789 21.5203 13.7207C21.3998 14.1525 21.2993 14.5843 21.219 15.0262C21.1085 15.4379 21.0483 15.8597 21.0583 16.2815C21.0382 16.643 21.0784 16.9944 21.1889 17.3459C21.3295 17.7376 21.3295 17.9786 21.4801 18.1593C21.6608 18.3602 21.8918 18.5108 22.1429 18.6112" fill="white"/>
<path fill-rule="evenodd" clip-rule="evenodd" d="M24.091 19.3443C24.0207 19.8163 23.9806 20.2381 23.9404 20.7101C24.6735 21.4833 25.3764 22.5478 25.9488 22.9997C27.887 24.5361 28.0878 25.6106 27.425 27.4082L12.8137 20.1879C13.5769 18.9427 14.4406 18.6012 15.8967 18.9427C16.7904 18.9828 17.7745 19.1234 18.9695 19.0832L19.9436 18.1292C19.8332 19.033 19.9436 19.9368 20.275 20.7804C22.424 20.4891 23.6191 20.0473 24.081 19.3443" fill="#87B7E2"/>
<path fill-rule="evenodd" clip-rule="evenodd" d="M24.071 19.3845C24.0408 19.9368 24.071 20.4891 24.1915 21.0415C24.081 21.3929 23.0266 22.1863 21.3998 22.7888C22.6249 22.0356 23.7496 21.5436 23.9002 21.0013C23.9203 20.7402 23.8802 20.0473 23.85 19.6155L24.071 19.3946V19.3845Z" fill="#5D9CD4"/>
<path fill-rule="evenodd" clip-rule="evenodd" d="M21.4098 22.8286C21.2893 22.1257 21.0884 21.4327 20.8173 20.77L20.1846 20.529C19.5219 20.6193 19.2106 20.6896 18.2666 21.7039L19.2206 21.4026L20.1846 21.3524L20.5462 21.5934L20.8374 22.0051C21.0483 22.2662 21.2391 22.5474 21.4098 22.8386" fill="#5D9CD4"/>
<path fill-rule="evenodd" clip-rule="evenodd" d="M20.8073 20.8006C20.9479 21.1018 21.0483 21.4131 21.1085 21.7345C20.8274 21.9152 20.5261 22.0659 20.2148 22.1964L20.034 22.5479C19.8734 22.8592 19.7127 23.1805 19.5621 23.5119L18.5076 22.9897L19.2708 21.8349C19.321 21.5236 19.311 21.2123 19.2508 20.901C19.552 20.7001 19.9035 20.5696 20.255 20.5093C20.4558 20.5897 20.6366 20.6801 20.8173 20.8006" fill="#498AC9"/>
<path fill-rule="evenodd" clip-rule="evenodd" d="M24.4525 11.9032C25.276 12.2246 27.7363 12.8873 26.7321 13.9819L27.0334 13.8815C26.9631 14.2932 26.8124 14.6849 26.6116 15.0464L26.943 14.9861C26.5112 15.8096 26.3204 15.9602 25.8986 16.7234C26.5714 16.2816 26.7723 15.4481 27.2944 15.3677C27.8468 14.4338 27.9572 14.5342 28.2384 13.4497L28.4292 13.5903C28.4192 13.3995 28.389 13.2087 28.3489 13.0279C28.4895 13.2288 28.5899 13.4597 28.6501 13.7007C28.8209 12.5359 28.4192 11.3609 27.5656 10.5375C26.5212 9.43284 25.3362 8.84036 24.2115 9.17175C24.0207 9.34247 23.9705 9.32238 23.9605 9.50314C23.7697 9.4228 23.7697 9.24204 23.5989 9.13158C23.6592 9.20187 23.6492 9.47301 23.7094 9.5433C23.0567 9.76423 23.0165 9.9249 22.5546 10.6178C22.7253 10.3969 22.9261 10.2161 23.1671 10.0856C22.896 10.3467 22.645 10.6178 22.4039 10.899C22.2332 11.2103 22.1127 11.5417 22.0424 11.8831C21.6006 12.7668 21.3495 13.7309 21.2993 14.715C21.46 14.3233 21.6407 13.9417 21.8516 13.5702C22.0726 13.1083 22.3136 12.6564 22.5947 12.2246C23.6893 10.5676 23.5287 11.7827 24.4827 11.8932" fill="#95C2E8"/>
<path fill-rule="evenodd" clip-rule="evenodd" d="M25.2559 17.0447L25.9689 15.8698C25.8785 15.6589 25.8183 15.448 25.7781 15.2271C25.7279 14.6447 25.6275 14.3936 25.3865 14.5543C25.2961 14.5744 25.1957 14.7149 25.1454 14.9258C25.045 15.2974 25.0149 15.8899 24.9346 16.2213C24.8743 16.4824 24.7839 17.4364 25.2659 17.0548" fill="white"/>
<path fill-rule="evenodd" clip-rule="evenodd" d="M21.3295 14.9359C22.2433 13.2689 21.3294 14.6547 21.9521 13.1585C22.0023 12.6162 21.9521 12.4053 21.7613 12.5861C21.6508 12.6865 21.5705 12.817 21.5403 12.9576C21.4198 13.3091 21.3094 13.8815 21.209 14.1928C21.1286 14.4438 20.9278 15.3476 21.3295 14.9259" fill="white"/>
<path fill-rule="evenodd" clip-rule="evenodd" d="M34.4946 26.6748L47.3284 33.0214C47.6398 33.172 47.7703 33.5536 47.6096 33.8649L47.4489 34.1863C47.2983 34.4976 46.9167 34.6281 46.5954 34.4775L33.7616 28.1409C33.4503 27.9903 33.3197 27.6087 33.4804 27.2873L33.641 26.966C33.8017 26.6547 34.1733 26.5241 34.4946 26.6748ZM8.83704 35.562L21.5805 41.8685C21.8918 42.0292 22.0223 42.4007 21.8717 42.7221L21.711 43.0434C21.5604 43.3547 21.1788 43.4853 20.8675 43.3346L8.12406 37.0282C7.81275 36.8775 7.6822 36.4959 7.83283 36.1746L7.9935 35.8533C8.15418 35.5419 8.52574 35.4114 8.84709 35.562M57.8024 59.7635L71.078 66.321C71.3894 66.4817 71.5199 66.8533 71.3693 67.1746L71.2086 67.4959C71.058 67.8072 70.6764 67.9378 70.355 67.7872L57.0793 61.2297C56.768 61.069 56.6375 60.6974 56.7881 60.3761L56.9488 60.0547C57.0994 59.7434 57.481 59.6129 57.7923 59.7635M9.17847 30.2799C8.86716 30.1292 8.48557 30.2498 8.3249 30.5711L8.16422 30.8924C8.01359 31.2038 8.13409 31.5854 8.4454 31.746L72.504 63.4088C72.8153 63.5594 73.1969 63.4389 73.3576 63.1176L73.5183 62.7962C73.6689 62.4849 73.5383 62.1033 73.227 61.9427L9.16843 30.2799H9.17847ZM11.8698 24.8371C11.5585 24.6864 11.1768 24.817 11.0162 25.1283L10.8555 25.4496C10.7049 25.7609 10.8354 26.1425 11.1467 26.2932L75.2053 57.9559C75.5166 58.1166 75.8982 57.9861 76.0489 57.6748L76.2096 57.3434C76.3602 57.0321 76.2397 56.6505 75.9184 56.4898L11.8597 24.827L11.8698 24.8371ZM52.6809 35.6625L80.2063 49.2595C80.5176 49.4202 80.6482 49.7917 80.4976 50.113L80.3369 50.4344C80.1862 50.7457 79.8046 50.8762 79.4933 50.7256L51.9679 37.1186C51.6566 36.9679 51.5261 36.5863 51.6767 36.275L51.8374 35.9436C51.988 35.6323 52.3696 35.5018 52.6809 35.6524M55.3923 30.1694L82.9177 43.7765C83.229 43.9271 83.3595 44.3087 83.2089 44.62L83.0482 44.9414C82.8976 45.2527 82.516 45.3832 82.2047 45.2326L54.6793 31.6356C54.368 31.4749 54.2374 31.1033 54.3881 30.782L54.5487 30.4606C54.6994 30.1493 55.081 30.0188 55.4023 30.1795M58.1137 24.6965L85.6391 38.3035C85.9504 38.4642 86.081 38.8358 85.9203 39.1571L85.7596 39.4785C85.609 39.7898 85.2274 39.9203 84.906 39.7697L57.3806 26.1626C57.0693 26.012 56.9387 25.6304 57.0894 25.309L57.2501 24.9877C57.4107 24.6764 57.7823 24.5458 58.1036 24.6965M39.9174 15.7088L52.7512 22.0454C53.0625 22.196 53.193 22.5776 53.0424 22.8989L52.8817 23.2203C52.7311 23.5316 52.3495 23.6621 52.0382 23.5115L39.2044 17.1749C38.8931 17.0143 38.7625 16.6427 38.9132 16.3213L39.0738 16C39.2245 15.6887 39.6061 15.5582 39.9174 15.7088ZM37.206 21.1918C36.8947 21.0411 36.5131 21.1717 36.3524 21.483L36.1918 21.8043C36.0411 22.1156 36.1717 22.4972 36.483 22.6479L49.3168 28.9945C49.6281 29.1451 50.0097 29.0246 50.1603 28.7033L50.321 28.3819C50.4716 28.0706 50.3511 27.689 50.0298 27.5283L37.206 21.1918Z" fill="white"/>
</svg>
