<svg width="74" height="47" viewBox="0 0 74 47" fill="none" xmlns="http://www.w3.org/2000/svg">
<path fill-rule="evenodd" clip-rule="evenodd" d="M7.39465 0.281317L73.9264 10.5494L68.3 47.0002L0 36.4508L5.62637 0L7.39465 0.27126V0.281317ZM69.8372 13.5434L8.61035 4.08914L4.07911 33.4668L65.306 42.9211L69.8372 13.5434Z" fill="#8ABBE5"/>
<path fill-rule="evenodd" clip-rule="evenodd" d="M17.7632 29.1869L14.1764 28.6343L17.1704 11.9059L20.7572 12.4585L17.7632 29.1869Z" fill="#A5CDED"/>
<path fill-rule="evenodd" clip-rule="evenodd" d="M22.6461 29.9404L19.0593 29.3878L21.3802 16.4271L24.967 16.9797L22.6461 29.9404Z" fill="#A5CDED"/>
<path fill-rule="evenodd" clip-rule="evenodd" d="M27.529 30.6936L23.9422 30.141L26.3535 16.6277L29.9403 17.1803L27.529 30.6936Z" fill="#A5CDED"/>
<path fill-rule="evenodd" clip-rule="evenodd" d="M32.4119 31.4474L28.8251 30.8948L30.6637 20.6166L34.2505 21.1692L32.4119 31.4474Z" fill="#A5CDED"/>
<path fill-rule="evenodd" clip-rule="evenodd" d="M37.2947 32.2006L33.7079 31.6481L35.6772 20.6264L39.264 21.179L37.2947 32.2006Z" fill="#A5CDED"/>
<path fill-rule="evenodd" clip-rule="evenodd" d="M42.1676 32.9541L38.5808 32.4016L40.1079 23.8515L43.6947 24.4041L42.1676 32.9541Z" fill="#A5CDED"/>
<path fill-rule="evenodd" clip-rule="evenodd" d="M50.3358 19.5816L44.6291 18.6974L44.7697 17.9238L50.4765 18.808L50.3358 19.5816Z" fill="#5D9CD4"/>
<path fill-rule="evenodd" clip-rule="evenodd" d="M57.3487 20.6669L51.0391 19.6923L51.1798 18.9187L57.4893 19.8933L57.3487 20.6669Z" fill="#5D9CD4"/>
<path fill-rule="evenodd" clip-rule="evenodd" d="M49.733 22.9075L44.0263 22.0233L44.1669 21.2397L49.8737 22.1238L49.733 22.9075Z" fill="#5D9CD4"/>
<path fill-rule="evenodd" clip-rule="evenodd" d="M56.7459 23.9923L50.4363 23.0177L50.577 22.2341L56.8865 23.2086L56.7459 23.9923Z" fill="#5D9CD4"/>
<path fill-rule="evenodd" clip-rule="evenodd" d="M53.7217 18.2355L44.9607 16.8791L45.1013 16.0954L53.8624 17.4518L53.7217 18.2355Z" fill="#5D9CD4"/>
<path fill-rule="evenodd" clip-rule="evenodd" d="M59.5992 19.1497L54.5556 18.3661L54.6963 17.5824L59.7499 18.3661L59.6093 19.1497H59.5992Z" fill="#5D9CD4"/>
<path fill-rule="evenodd" clip-rule="evenodd" d="M53.0787 21.7721L44.3176 20.4157L44.4583 19.632L53.2193 20.9884L53.0787 21.7721Z" fill="#5D9CD4"/>
<path fill-rule="evenodd" clip-rule="evenodd" d="M58.9663 22.6863L53.9126 21.9026L54.0533 21.119L59.1069 21.9026L58.9663 22.6863Z" fill="#5D9CD4"/>
<path fill-rule="evenodd" clip-rule="evenodd" d="M9.54472 2.45143L71.0831 11.956L66.0093 44.7998L2.83328 35.0441L7.90704 2.20025L9.54472 2.45143ZM67.3154 14.6385L10.68 5.89757L6.60094 32.3616L63.2262 41.1025L67.3154 14.6385Z" fill="#EAF5FC"/>
</svg>
