<svg width="42" height="42" viewBox="0 0 42 42" fill="none" xmlns="http://www.w3.org/2000/svg">
<path fill-rule="evenodd" clip-rule="evenodd" d="M29.298 5.96118L29.3385 5.15144C29.3385 4.95913 29.47 4.79717 29.6117 4.79717H29.6219L31.0389 4.86803C31.1907 4.86803 31.3021 5.04009 31.2919 5.25265L31.2514 6.06238C31.6361 6.14336 32.0106 6.26482 32.3648 6.41665L32.8102 5.72837C32.8709 5.61703 32.9924 5.54617 33.1138 5.53605C33.1543 5.53605 33.1948 5.54617 33.2353 5.56642L34.4297 6.33567C34.5612 6.45713 34.5714 6.65956 34.46 6.79114L34.0147 7.47943C34.2981 7.74259 34.5612 8.0361 34.794 8.34988L35.5228 7.97538C35.5835 7.94501 35.6544 7.92477 35.7252 7.92477C35.8265 7.92477 35.9175 7.96526 35.9681 8.04624L36.6159 9.32156C36.6666 9.48351 36.5856 9.66569 36.4135 9.72642L35.6847 10.1009C35.8062 10.4754 35.8872 10.8601 35.9277 11.2447L36.7374 11.2852C36.9398 11.2953 37.0917 11.4269 37.0917 11.5686L37.0208 12.9957C36.9803 13.1577 36.8285 13.269 36.6665 13.2488H36.6463L35.8366 13.2083C35.7556 13.5929 35.6342 13.9573 35.4823 14.3217L36.1706 14.767C36.3325 14.8379 36.4034 15.0302 36.3325 15.1921L35.5633 16.3865C35.5127 16.4573 35.4317 16.4978 35.3507 16.4877C35.2698 16.4877 35.1787 16.4573 35.1078 16.4169L34.4195 15.9715C34.1564 16.265 33.873 16.5181 33.5592 16.7509L33.9337 17.4695C34.0349 17.6112 33.9944 17.8137 33.8629 17.9149L32.5976 18.5627C32.5976 18.5627 32.5369 18.5829 32.5066 18.5829C32.3649 18.5728 32.2535 18.4817 32.1928 18.3602L31.8183 17.6315C31.4438 17.7529 31.0592 17.8339 30.6745 17.8744L30.634 18.6841C30.634 18.8764 30.5024 19.0282 30.3607 19.0282L28.9336 18.9574C28.7615 18.9169 28.6502 18.755 28.6805 18.5829L28.721 17.7732C28.3364 17.6922 27.972 17.5707 27.6076 17.4189L27.1623 18.1072C27.1016 18.2185 26.9801 18.2894 26.8586 18.2995C26.8182 18.2995 26.7777 18.2995 26.7372 18.2691L25.5428 17.4898C25.4113 17.3683 25.4011 17.176 25.5125 17.0444L25.9578 16.3561C25.6744 16.093 25.4113 15.7994 25.1785 15.4857L24.4497 15.8602C24.389 15.8905 24.3181 15.9108 24.2473 15.9108C24.146 15.9108 24.0549 15.8703 24.0043 15.7893L23.3566 14.514C23.3059 14.352 23.397 14.1698 23.559 14.1091L24.2776 13.7346C24.1562 13.3601 24.0752 12.9755 24.0347 12.5909L23.225 12.5504C23.0225 12.5403 22.8707 12.4087 22.8707 12.2568L22.9416 10.8398C22.9416 10.6981 23.1035 10.5868 23.2958 10.5868H23.3262L24.1359 10.6273C24.2169 10.2426 24.3383 9.86814 24.4902 9.51388L23.812 9.06852C23.6501 8.99767 23.5792 8.80536 23.6501 8.64341L24.4193 7.44905C24.4699 7.3782 24.5509 7.33772 24.6319 7.34784C24.7128 7.34784 24.8039 7.37821 24.8748 7.42882L25.553 7.87417C25.8161 7.58064 26.1096 7.3276 26.4234 7.0948L26.0489 6.36604C25.9477 6.22433 25.9781 6.0219 26.1198 5.92068L27.3951 5.27289C27.3951 5.27289 27.4558 5.25265 27.4862 5.25265C27.6178 5.26277 27.7392 5.35386 27.7898 5.47532L28.1643 6.19397C28.5388 6.07251 28.9235 5.99153 29.3081 5.95104M4.29744 33.7148L5.80557 32.2067L11.8887 26.1235L15.8665 30.1014L10.1073 35.8606L8.00198 37.9659L7.95136 38.0165L7.33394 37.2979L4.02415 33.9881L4.29744 33.7148ZM29.9862 23.9676C36.5957 23.9676 41.9602 18.6031 41.9501 11.9836C41.9501 6.42677 38.1241 1.60884 32.7191 0.333513C31.5652 0.0298623 30.3607 -0.0713531 29.1664 0.0501069C26.2817 0.242419 23.559 1.47727 21.5144 3.53196C21.4739 3.57245 21.4334 3.61293 21.3929 3.65342C21.0893 3.96719 20.7958 4.30121 20.5225 4.65547C19.6621 5.75873 19.0042 7.0037 18.5791 8.33976C18.4779 8.65353 18.3969 8.95719 18.316 9.28108C18.0022 10.6273 17.9313 12.0139 18.0832 13.3905C18.1338 13.8257 18.2046 14.2711 18.3058 14.6962C18.7107 16.4776 19.5204 18.1274 20.6743 19.5445L17.6985 22.5202C17.3949 22.2469 17.0001 22.1052 16.5953 22.1052C16.1499 22.1052 15.7349 22.2773 15.4212 22.5911L14.5406 23.4717C14.3483 23.2895 14.0446 23.2895 13.8523 23.4717L13.2652 24.0587C13.0729 24.251 13.0729 24.5547 13.2652 24.747L13.164 24.8482C13.0729 24.7571 12.9515 24.7065 12.8199 24.7065C12.6883 24.7065 12.5668 24.7571 12.4758 24.8482L11.8887 25.4353C11.6964 25.6276 11.6964 25.9312 11.8887 26.1235L15.8665 30.1014C15.9576 30.1925 16.0791 30.2431 16.2107 30.2431C16.3422 30.2431 16.4637 30.1925 16.5548 30.1014L17.1418 29.5143C17.3342 29.322 17.3342 29.0183 17.1418 28.826L17.2431 28.7248C17.4354 28.9171 17.739 28.9171 17.9313 28.7248L18.5184 28.1378C18.7107 27.9455 18.7107 27.6418 18.5184 27.4495L19.399 26.5689C20.0164 25.9413 20.0468 24.9494 19.4698 24.2915L22.4456 21.3158C24.5711 23.0466 27.2331 23.9879 29.9862 23.9879M6.72663 39.2513L2.74882 35.2735L2.6476 35.3748L6.62543 39.3526L6.72663 39.2513ZM5.35009 40.6279L1.37228 36.6501L0.491696 37.5307C-0.135848 38.1481 -0.16622 39.1501 0.420837 39.8081C0.44108 39.8384 0.471452 39.8586 0.491696 39.889L2.11115 41.5085C2.11115 41.5085 2.16176 41.5591 2.19213 41.5793C2.85004 42.1664 3.85208 42.136 4.46951 41.5085L5.35009 40.6178V40.6279ZM20.5933 10.769C20.5427 11.184 20.5124 11.5989 20.5124 12.0139C20.5427 17.176 24.7432 21.3461 29.9154 21.3158C35.0775 21.2854 39.2476 17.0849 39.2172 11.9127C39.1868 6.75066 34.9864 2.58052 29.8142 2.61089C25.7453 2.63113 22.1622 5.27289 20.9476 9.15961C20.7856 9.68594 20.6642 10.2224 20.5933 10.7588M29.9862 7.96526C27.8 7.96526 26.0388 9.74667 26.0388 11.933C26.0388 14.0281 27.6886 15.7589 29.7838 15.8703C29.8547 15.8703 29.9255 15.8703 29.9964 15.8703C32.1826 15.8703 33.9438 14.099 33.9438 11.9127C33.9438 9.8074 32.294 8.0766 30.1887 7.96526C30.1178 7.96526 30.0571 7.96526 29.9862 7.96526Z" fill="#94C9ED"/>
</svg>
