<svg width="107" height="58" viewBox="0 0 107 58" fill="none" xmlns="http://www.w3.org/2000/svg">
<path d="M91.942 24.4016C91.3004 24.4016 89.7866 24.3815 88.8041 24.3314V21.4942C89.947 21.5945 90.8593 21.6647 91.7415 21.6647C92.5034 21.6647 92.9646 21.6146 92.9646 20.8827V20.0005L84.1122 20.0807V17.8651L92.9646 17.9152V16.6721L82.5984 16.7723V14.3262L92.9646 14.4264V13.1833L84.1724 13.2434V11.0679L92.9646 11.1381V9.95511L84.2626 10.0153V5.0728L92.9646 5.13295V3.90986L82.7287 4.02015V1.30331H92.9646C92.9646 1.30331 92.9145 0.320809 92.8443 0H96.4734C96.4133 0.330835 96.3531 1.30331 96.3531 1.30331H106.729V4.02015L96.3631 3.90986V5.13295L105.215 5.0728V10.0053L96.3631 9.94511V11.1481L105.185 11.098L105.135 14.2259L107 14.2059V16.8726L105.145 16.9127L105.246 19.9804H96.3732V21.2135C96.3732 23.9705 95.7917 24.3916 91.9119 24.3916M96.3932 17.9252H101.737V16.6721H96.3932V17.9252ZM96.3932 14.4164H101.737V13.1632H96.3932V14.4164ZM96.3932 8.16061H101.145V6.91745H96.3932V8.16061ZM88.3429 8.16061H92.9646V6.91745H88.3429V8.16061Z" fill="#FC6D26"/>
<path d="M79.5507 24.4118C77.2048 23.0684 75.1095 21.324 73.3651 19.2588C71.7811 17.384 70.5781 15.2086 69.8362 12.8727L69.6157 12.2411L69.4051 12.8827C68.2723 16.2612 67.1494 18.1961 65.1143 20.2613C63.5203 21.9054 61.6957 23.299 59.6906 24.4018L57.2645 20.9731C61.0039 19.0984 63.2095 17.1735 64.8135 14.3865C66.5078 11.4792 67.36 7.55928 67.36 2.74714C67.36 2.14562 67.3399 1.54409 67.2597 0.952599H71.5405C71.4603 1.57417 71.4202 2.20576 71.4302 2.82732C71.4002 5.44393 71.7711 8.04049 72.533 10.5468C73.5456 13.384 75.29 15.9103 77.5757 17.8753C78.8991 19.0483 80.3828 20.0107 81.9869 20.7425L79.5608 24.4318L79.5507 24.4118Z" fill="#FC6D26"/>
<path d="M48.9936 22.4364C46.7179 22.4364 44.9735 21.8349 43.8005 20.6419C42.6275 19.4489 42.026 17.6644 42.026 15.3485C42.026 13.0327 42.6576 11.0978 43.8807 9.78448C45.1038 8.47117 46.8582 7.79947 49.0437 7.79947C51.1089 7.79947 52.7431 8.401 53.886 9.60404C55.0288 10.8071 55.6203 12.5214 55.6203 14.7069V15.8999H46.0462L46.0763 16.3009C46.0763 17.1731 46.3469 18.0353 46.8582 18.7471C47.3896 19.3185 48.1515 19.6193 48.9335 19.5692C50.5175 19.5692 51.2092 18.7972 51.4999 18.0554H55.4299C55.1893 19.3085 54.4975 20.4213 53.4849 21.2033C52.1516 22.0755 50.5776 22.4966 48.9936 22.4164M49.0538 10.5765C47.3194 10.5765 46.2868 11.5489 46.0763 13.3936L46.0261 13.554H51.7907L51.7706 13.4136C51.7907 12.6417 51.54 11.8798 51.0488 11.2883C50.5175 10.787 49.7956 10.5264 49.0638 10.5765" fill="#FC6D26"/>
<path d="M35.2489 22.2159V13.6743C35.2489 12.2507 34.096 11.0978 32.6724 11.0978C31.2488 11.0978 30.0959 12.2507 30.0959 13.6743V22.2159H26.0457V7.79947H30.1059V9.50379L30.3766 9.21304C32.2814 7.10773 35.5296 6.94733 37.635 8.84211C38.6074 9.71431 39.1989 10.9274 39.3092 12.2307L39.3292 12.6918V22.2259H35.2489V22.2159Z" fill="#FC6D26"/>
<path d="M11.1882 24.4116C5.01265 24.4116 0 19.399 0 13.2234V11.1882C0 5.01265 5.01265 0 11.1882 0H11.5892C17.7648 0 22.7775 5.01265 22.7775 11.1882V13.2234C22.7775 19.399 17.7648 24.4116 11.5892 24.4216H11.1882V24.4116ZM11.1882 4.7119C7.6092 4.7119 4.72191 7.6092 4.71189 11.1882V13.2234C4.71189 16.8024 7.6092 19.6897 11.1882 19.6997H11.5892C15.1683 19.6897 18.0556 16.7823 18.0556 13.2133V11.1882C18.0556 7.6092 15.1583 4.72193 11.5792 4.7119H11.1882Z" fill="#FC6D26"/>
<path d="M102.037 33.2039H4.98257C2.40242 33.2039 0.310782 35.2955 0.310782 37.8757V52.9537C0.310782 55.5339 2.40242 57.6255 4.98257 57.6255H102.037C104.618 57.6255 106.709 55.5339 106.709 52.9537V37.8757C106.709 35.2955 104.618 33.2039 102.037 33.2039Z" fill="#FC6D26"/>
<path d="M8.29092 40.3318L10.1356 40.6927C10.1356 40.6927 9.98519 41.0035 9.69446 41.585L12.4615 41.5549C12.682 41.575 12.8925 41.5248 13.093 41.4246L14.0053 42.3269C13.885 42.4472 13.8048 42.6076 13.7647 42.768C13.3537 44.1916 12.7021 45.535 11.8499 46.738C11.1582 47.6503 10.316 48.4423 9.3536 49.0639C8.79219 49.4248 8.20069 49.7456 7.57912 50.0062C7.26834 49.4248 6.8573 48.9035 6.37609 48.4623C7.6894 48.0513 8.89243 47.3295 9.86489 46.3571C9.2734 45.8658 8.63179 45.4347 7.95007 45.0838L9.0328 43.7905C9.69447 44.1314 10.3261 44.5224 10.9276 44.9635C11.3085 44.3821 11.6093 43.7505 11.8098 43.0788L8.96262 43.0988C8.34105 44.1515 7.54905 45.0939 6.6167 45.8859C6.19564 45.4046 5.69436 45.0137 5.13295 44.7229C6.19563 43.941 7.06783 42.9284 7.6894 41.7755C7.94003 41.3243 8.14054 40.8331 8.29092 40.3318ZM16.1909 40.8331H18.236C18.1859 41.2642 18.1658 41.6852 18.1658 42.1063L18.1057 47.5601C20.0907 47.1791 21.7749 45.8758 22.6672 44.0613C23.0381 44.6327 23.5093 45.1339 24.0507 45.545C22.5569 47.8508 20.6521 49.0438 17.6245 49.5651C17.4039 49.5852 17.1934 49.6453 17.0029 49.7456L16.0906 48.6729C16.2009 48.4022 16.241 48.1115 16.2109 47.8307L16.251 42.1163V41.9559C16.251 41.585 16.241 41.204 16.1909 40.8331ZM24.7324 42.5575L25.9154 41.1038C26.938 41.6652 27.8803 42.3369 28.7425 43.1189L27.5295 44.7229C26.7174 43.8507 25.775 43.1189 24.7324 42.5575ZM25.374 49.4749L24.8427 47.4999C25.9054 47.4197 26.948 47.1691 27.9405 46.7581C29.1937 46.2668 30.2563 45.3746 30.9581 44.2217C31.3692 43.5901 31.71 42.9184 31.9707 42.2066C32.4018 42.7379 32.9131 43.2091 33.4845 43.58C32.5521 45.6051 31.5697 46.8182 30.126 47.7506C28.9029 48.5225 27.5495 49.0438 26.1259 49.2945C25.7249 49.3847 25.6648 49.3947 25.3841 49.4749H25.374ZM38.036 49.6854H36.051C36.1011 49.1641 36.1211 48.6328 36.1111 48.1115V42.1264C36.1211 41.6251 36.1111 41.1339 36.0409 40.6326H38.026C37.9758 41.1339 37.9658 41.6351 37.9758 42.1364V43.55C39.61 44.0713 41.1839 44.7931 42.6576 45.6853L41.6852 47.4297C40.6626 46.728 39.5799 46.1265 38.447 45.6352C38.2866 45.5851 38.1262 45.5149 37.9858 45.4247V48.1014C37.9858 48.6228 37.9959 49.1541 38.046 49.6754L38.036 49.6854ZM50.5175 43.0286L45.8056 43.0487C45.2542 43.0387 44.6928 43.0487 44.1414 43.0988V41.2842C44.7028 41.3444 45.2742 41.3745 45.8357 41.3644H51.4699C51.7105 41.3644 51.9511 41.3243 52.1817 41.2541L53.1641 42.367C52.9737 42.5575 52.8133 42.778 52.693 43.0286C51.8609 44.5324 50.7581 45.8658 49.4347 46.9686C49.8758 47.4899 50.1666 47.8608 50.6578 48.5325L49.1139 49.7356C48.5425 48.7832 47.8708 47.8809 47.1289 47.0488C46.5074 46.3069 45.8156 45.6152 45.0637 45.0036L46.4773 44.0211C47.1089 44.5224 47.7104 45.0638 48.2618 45.6553C48.8533 45.1741 49.3846 44.6227 49.8658 44.0312C50.1165 43.7204 50.337 43.3795 50.5275 43.0286H50.5175ZM59.1092 49.8659H57.1743C57.2344 49.3847 57.2545 48.9035 57.2444 48.4122V46.5575C56.3121 47.0789 55.3196 47.4799 54.287 47.7506C54.0865 47.1791 53.8058 46.6478 53.4449 46.1666C54.5075 45.946 55.5401 45.6252 56.5326 45.1941C57.4951 44.7831 58.3773 44.2016 59.1292 43.4798L55.9813 43.4998C55.49 43.4898 54.9888 43.4998 54.4975 43.55V41.8857C54.9988 41.9459 55.5 41.976 56.0013 41.966H57.2244V41.4046C57.2244 41.0837 57.2144 40.7629 57.1743 40.4521H59.0891C59.049 40.7629 59.029 41.0737 59.029 41.3845V41.9559H60.6631C60.8836 41.966 61.1142 41.9259 61.3247 41.8457L62.1268 42.778C62.0198 42.8515 61.8628 43.0086 61.6556 43.2492C61.0741 43.9008 60.4425 44.4923 59.7608 45.0337C60.9338 45.4347 62.0566 45.9761 63.0892 46.6478L62.0666 48.1616C61.1343 47.4698 60.1217 46.8884 59.049 46.4473V48.4323C59.029 48.9135 59.049 49.3947 59.1092 49.8759V49.8659ZM64.3825 42.2066L65.2948 40.7429C66.3173 41.1038 67.3098 41.5549 68.2422 42.0963L67.3299 43.6703C66.4176 43.0587 65.4251 42.5574 64.3825 42.1965V42.2066ZM69.5956 40.9935L70.6182 40.6527C70.9891 41.1539 71.2899 41.7053 71.5205 42.2868L70.4979 42.6577C70.2673 42.0662 69.9666 41.5048 69.5956 40.9935ZM63.5804 44.743L64.5228 43.2692C65.5354 43.6502 66.4978 44.1414 67.39 44.7329L66.5178 46.347C65.6156 45.6853 64.6231 45.144 63.5804 44.743ZM71.0793 40.5123L72.0418 40.1815C72.4127 40.6627 72.7235 41.204 72.9541 41.7654L71.9616 42.1264C71.731 41.5549 71.4303 41.0136 71.0693 40.5123H71.0793ZM64.3925 49.7155L63.8812 47.7606C64.9639 47.7205 66.0366 47.4999 67.0492 47.0989C69.0141 46.3069 70.4879 44.6427 71.0593 42.6076C71.4904 43.1088 72.0017 43.5399 72.5731 43.8908C71.2698 47.119 68.9339 48.8934 65.1243 49.5351C64.8737 49.5852 64.6331 49.6453 64.3925 49.7155ZM78.9091 40.6326L80.844 41.2842C80.6836 41.595 80.5332 41.9158 80.4129 42.2366C80.0319 43.179 79.5808 44.0913 79.0495 44.9535C79.8415 45.6252 80.5934 46.347 81.2951 47.119L79.8916 48.5826C79.3101 47.8207 78.6585 47.119 77.9467 46.4774C76.8639 47.8308 75.5105 48.9536 73.9666 49.7456C73.6358 49.1441 73.1947 48.6228 72.6734 48.1917C74.1772 47.53 75.5105 46.5275 76.5632 45.2643C75.7211 44.5926 74.8288 43.971 73.8864 43.4297L75.1496 42.1865C75.9917 42.6778 76.8038 43.2091 77.5757 43.8006C78.1773 42.8281 78.6284 41.7554 78.9091 40.6426V40.6326ZM82.8591 42.5675L84.0421 41.1138C85.0647 41.6752 86.007 42.3469 86.8692 43.1289L85.6561 44.7329C84.8441 43.8607 83.9017 43.1289 82.8591 42.5675ZM83.5007 49.4849L82.9694 47.51C84.032 47.4298 85.0747 47.1791 86.0672 46.7681C87.3203 46.2768 88.383 45.3846 89.0848 44.2317C89.4958 43.6001 89.8367 42.9284 90.0973 42.2166C90.5284 42.7479 91.0397 43.2191 91.6112 43.5901C90.6788 45.6152 89.6963 46.8282 88.2527 47.7606C87.0296 48.5325 85.6762 49.0538 84.2526 49.3045C83.8516 49.3947 83.7914 49.4047 83.5107 49.4949L83.5007 49.4849ZM96.1627 49.6955H94.1776C94.2278 49.1741 94.2478 48.6428 94.2378 48.1215V42.1364C94.2478 41.6351 94.2378 41.1439 94.1676 40.6426H96.1526C96.1025 41.1439 96.0925 41.6452 96.1025 42.1464V43.56C97.7366 44.0813 99.3106 44.8031 100.784 45.6954L99.8118 47.4398C98.7893 46.738 97.7066 46.1365 96.5737 45.6452C96.4133 45.5951 96.2529 45.5249 96.1125 45.4347V48.1115C96.1125 48.6328 96.1225 49.1641 96.1727 49.6854L96.1627 49.6955Z" fill="white"/>
</svg>
