<svg width="27" height="9" viewBox="0 0 27 9" fill="none" xmlns="http://www.w3.org/2000/svg">
<path d="M3.80426 0.544691C4.48286 0.544691 4.6885 0.52413 4.73991 0.52413C4.82216 0.52413 4.86329 0.544695 4.86329 0.637231C4.84273 0.97653 4.86329 1.23358 4.9147 1.67569C5.20259 4.2153 6.36443 6.14827 8.57502 7.4849C8.41051 7.64941 8.19459 7.87561 8.0198 8.19435C7.94783 8.34857 7.9067 8.41026 7.85529 8.41026C7.80388 8.41026 7.74219 8.35886 7.63937 8.28689C5.9326 7.03251 4.88385 5.50052 4.42117 3.62923C3.91737 5.55192 2.66299 7.2587 0.966491 8.30745C0.853391 8.36914 0.801983 8.42055 0.750574 8.42055C0.688884 8.42055 0.647754 8.34857 0.555218 8.19435C0.400991 7.9373 0.185072 7.7111 0 7.57744C2.33397 6.42588 3.66032 4.18445 3.77342 1.5009H2.61158C1.93298 1.5009 1.72734 1.52147 1.67593 1.52147C1.57312 1.52147 1.56283 1.52147 1.56283 1.41865V0.626947C1.56283 0.534411 1.56283 0.52413 1.67593 0.52413C1.72734 0.52413 1.94326 0.544691 2.61158 0.544691H3.81455H3.80426Z" fill="#FD6C26"/>
<path d="M11.4128 6.54954C11.6081 6.92997 11.8035 7.16645 12.1942 7.33096C12.5232 7.46463 13.1196 7.52631 13.9318 7.52631C15.1451 7.52631 16.5743 7.46462 17.9726 7.32068C17.8389 7.51603 17.7567 7.7628 17.7155 8.03013C17.6813 8.22891 17.5647 8.33515 17.3659 8.34886C16.1733 8.41055 15.0525 8.44139 14.0758 8.44139C13.099 8.44139 12.3279 8.35914 11.8755 8.17407C11.4436 7.99928 11.1866 7.73195 10.9501 7.34124C10.6622 7.61885 10.3332 7.90674 9.98362 8.16379C9.89108 8.23576 9.81911 8.29745 9.79855 8.34886C9.75742 8.41055 9.71629 8.44139 9.6546 8.44139C9.61348 8.44139 9.56207 8.38999 9.52094 8.31801C9.38728 8.07125 9.2639 7.77308 9.13024 7.43378C9.377 7.32068 9.51066 7.25899 9.68545 7.14589C9.96306 6.98138 10.2407 6.76546 10.4874 6.54954V4.46234H10.0247C9.52094 4.46234 9.38728 4.4829 9.33587 4.4829C9.23305 4.4829 9.22277 4.4829 9.22277 4.3698V3.66036C9.22277 3.56783 9.22277 3.55754 9.33587 3.55754C9.38728 3.55754 9.51066 3.57811 10.0247 3.57811H10.6108C11.1043 3.57811 11.2586 3.55754 11.3203 3.55754C11.4128 3.55754 11.4231 3.55755 11.4231 3.66036C11.4231 3.71177 11.4025 3.97909 11.4025 4.55487V6.5701L11.4128 6.54954ZM10.0453 0.349624C10.0967 0.308497 10.1276 0.298212 10.1584 0.298212C10.1893 0.298212 10.2098 0.298215 10.2509 0.349624C10.6725 0.750614 11.0735 1.21329 11.4231 1.73766C11.4848 1.81992 11.4745 1.81992 11.3614 1.91245L10.837 2.31344C10.7856 2.36485 10.7445 2.37514 10.7136 2.37514C10.6828 2.37514 10.6519 2.35457 10.6314 2.31344C10.2921 1.74794 9.89109 1.25442 9.47981 0.843146C9.41812 0.781455 9.42841 0.750614 9.53123 0.678641L10.0453 0.329056V0.349624ZM16.8519 2.8995C16.8519 3.48557 16.8724 3.77346 16.8724 3.84543C17.0678 3.99965 17.2529 4.15389 17.4174 4.30811C17.4688 4.35952 17.4893 4.40065 17.4893 4.45206C17.4893 4.50347 17.4379 4.53431 17.3762 4.56516C17.2734 4.60629 17.2117 4.65769 17.0781 4.77079C16.8005 5.00727 16.4406 5.26432 16.0396 5.52137C16.4714 5.86066 17.0472 6.11771 17.7978 6.33363C17.6744 6.47757 17.5202 6.6832 17.3865 6.92997C17.3043 7.09447 17.2734 7.16645 17.2014 7.16645C17.15 7.16645 17.0883 7.14589 16.9855 7.10476C16.0293 6.72434 15.3302 6.19997 14.8366 5.53165C14.8161 5.66531 14.8058 5.81954 14.8161 6.02517C14.8161 6.28222 14.8161 6.30278 14.5796 6.37476C13.8701 6.61124 13.2121 6.7963 12.5232 6.97109C12.3793 7.01222 12.297 7.04307 12.2559 7.08419C12.2045 7.1356 12.1736 7.15617 12.112 7.15617C12.0503 7.15617 12.0297 7.11504 11.9989 7.04307C11.9063 6.76546 11.8343 6.47757 11.7727 6.1794C11.9783 6.15884 12.1634 6.12799 12.3896 6.09714V1.85077C12.3896 0.987095 12.369 0.544976 12.369 0.483285C12.369 0.390749 12.369 0.380468 12.4718 0.380468C12.5335 0.380468 12.9551 0.401029 13.7468 0.401029H15.5975C16.348 0.401029 16.7079 0.380468 16.7593 0.380468C16.8416 0.380468 16.8519 0.380467 16.8519 0.483285C16.8519 0.544976 16.8313 0.832868 16.8313 1.44978V2.88923L16.8519 2.8995ZM13.3149 1.19273V1.81992H15.9368V1.19273H13.3149ZM15.9368 2.5602H13.3149V3.20796H15.9368V2.5602ZM13.3149 5.91207C13.8085 5.78869 14.3123 5.63446 14.7749 5.46995C14.4562 5.02784 14.2197 4.52403 14.0449 3.94825H13.3252V5.91207H13.3149ZM14.9189 3.94825C15.0628 4.33896 15.2376 4.66798 15.4638 4.96615C15.8751 4.68854 16.2041 4.42121 16.4612 4.15388L16.6257 3.96881C16.4611 3.96881 16.1321 3.94825 15.5975 3.94825H14.9086H14.9189Z" fill="#FD6C26"/>
<path d="M19.8541 5.17174C19.5663 5.44935 19.2681 5.71668 18.9596 5.95316C18.8671 6.02513 18.8054 6.07654 18.7643 6.07654C18.7129 6.07654 18.6717 6.00457 18.61 5.86063C18.5175 5.5933 18.4044 5.35682 18.281 5.19231C19.3812 4.49315 20.2654 3.48553 20.7384 2.40594H19.6794C18.9699 2.40594 18.7437 2.4265 18.682 2.4265C18.5895 2.4265 18.5792 2.42651 18.5792 2.32369V1.62453C18.5792 1.53199 18.5792 1.52171 18.682 1.52171C18.7334 1.52171 18.9596 1.54227 19.6794 1.54227H19.8541V1.15156C19.8541 0.658038 19.8541 0.349581 19.7822 0C20.142 0 20.4196 0.0308507 20.7589 0.0616961C20.8515 0.0616961 20.9132 0.123383 20.9132 0.154228C20.9132 0.236483 20.8823 0.287894 20.8618 0.349585C20.8001 0.462685 20.8001 0.627189 20.8001 1.10015V1.52171H21.1908C21.273 1.52171 21.3244 1.52171 21.3656 1.48058C21.4067 1.46002 21.4375 1.43945 21.4684 1.43945C21.5301 1.43945 21.6226 1.49086 21.818 1.68621C21.9928 1.861 22.075 1.95354 22.075 2.02551C22.075 2.07692 22.0545 2.11805 21.9825 2.17974C21.9002 2.262 21.8385 2.3134 21.7666 2.45735C21.5404 2.94059 21.273 3.39299 20.9646 3.82483C21.3347 4.24638 21.7768 4.58568 22.3423 4.92498C22.1984 5.07921 22.0647 5.30541 21.9619 5.53161C21.9002 5.67555 21.8488 5.73724 21.7871 5.73724C21.7357 5.73724 21.6843 5.69612 21.6021 5.62414C21.3039 5.34653 21.0263 5.04836 20.7898 4.75019V7.39261C20.7898 8.09177 20.8104 8.45164 20.8104 8.50305C20.8104 8.59558 20.8104 8.60586 20.6973 8.60586H19.9467C19.8439 8.60586 19.8336 8.60587 19.8336 8.50305C19.8336 8.44136 19.8541 8.09177 19.8541 7.39261V5.15118V5.17174ZM22.9901 8.27685C22.0956 8.27685 21.7871 8.29741 21.7254 8.29741C21.6329 8.29741 21.6226 8.29741 21.6226 8.19459V7.4543C21.6226 7.36176 21.6226 7.35148 21.7254 7.35148C21.7871 7.35148 22.0956 7.37204 22.9901 7.37204H23.7818V3.85567H23.3602C22.5274 3.85567 22.2292 3.85567 22.1778 3.85567C22.0956 3.85567 22.0853 3.85568 22.0853 3.76314V3.02285C22.0853 2.93031 22.0853 2.93031 22.1778 2.93031C22.2292 2.93031 22.5274 2.93031 23.3602 2.93031H23.7818V1.43945C23.7818 0.771136 23.7818 0.452403 23.7098 0.020568C24.0697 0.020568 24.4193 0.0514108 24.7483 0.0822562C24.8305 0.0822562 24.9025 0.133661 24.9025 0.174789C24.9025 0.246761 24.9025 0.298173 24.8511 0.370145C24.7997 0.483245 24.7791 0.719728 24.7791 1.40861V2.93031H25.3755C26.2083 2.93031 26.5065 2.93031 26.5579 2.93031C26.6504 2.93031 26.6607 2.93031 26.6607 3.02285V3.76314C26.6607 3.85568 26.6607 3.85567 26.5579 3.85567C26.5065 3.85567 26.2083 3.85567 25.3755 3.85567H24.7791V7.37204H25.6325C26.527 7.37204 26.8252 7.35148 26.8869 7.35148C26.9897 7.35148 27 7.35148 27 7.4543V8.19459C27 8.28713 27 8.29741 26.8869 8.29741C26.8355 8.29741 26.527 8.27685 25.6325 8.27685H22.9901Z" fill="#FD6C26"/>
</svg>
