<svg width="107" height="58" viewBox="0 0 107 58" fill="none" xmlns="http://www.w3.org/2000/svg">
<path d="M91.942 24.4214C91.3004 24.4214 89.7866 24.4014 88.8041 24.3512V21.5141C89.947 21.6143 90.8593 21.6845 91.7415 21.6845C92.5034 21.6845 92.9646 21.6344 92.9646 20.9025V20.0103L84.1123 20.0905V17.8749L92.9646 17.925V16.6819L82.5984 16.7821V14.336L92.9646 14.4362V13.1931L84.1724 13.2532V11.0677L92.9646 11.1379V9.95489L84.2627 10.015V5.08259L92.9646 5.14275V3.91966L82.7288 4.02994V1.31308H92.9646C92.9646 1.31308 92.9145 0.3306 92.8443 0.00979033H96.4735C96.4133 0.340625 96.3532 1.31308 96.3532 1.31308H106.729V4.02994L96.3632 3.91966V5.14275L105.216 5.08259V10.015L96.3632 9.95489V11.1479L105.185 11.0978L105.135 14.2257L107 14.2056V16.8824L105.145 16.9225L105.246 19.9902H96.3732V21.2233C96.3732 23.9803 95.7918 24.4013 91.912 24.4013M96.3933 17.935H101.737V16.6919H96.3933V17.935ZM96.3933 14.4262H101.737V13.183H96.3933V14.4262ZM96.3933 8.17039H101.145V6.92725H96.3933V8.17039ZM88.343 8.17039H92.9646V6.92725H88.343V8.17039Z" fill="#FC6D26"/>
<path d="M79.5508 24.4216C77.2049 23.0782 75.1096 21.3338 73.3652 19.2686C71.7812 17.3939 70.5781 15.2184 69.8363 12.8825L69.6157 12.2509L69.4052 12.8925C68.2723 16.271 67.1495 18.2059 65.1143 20.2711C63.5203 21.9153 61.6957 23.3088 59.6907 24.4116L57.2646 20.9829C61.004 19.1082 63.2096 17.1833 64.8136 14.3963C66.5079 11.489 67.36 7.56907 67.36 2.75692C67.36 2.1554 67.34 1.55388 67.2598 0.96239H71.5406C71.4604 1.58396 71.4203 2.21555 71.4303 2.83712C71.4002 5.45372 71.7711 8.05028 72.5331 10.5566C73.5456 13.3938 75.29 15.9201 77.5758 17.8851C78.8991 19.0581 80.3829 20.0205 81.9869 20.7523L79.5608 24.4416L79.5508 24.4216Z" fill="#FC6D26"/>
<path d="M48.9937 22.4467C46.7179 22.4467 44.9735 21.8452 43.8005 20.6522C42.6276 19.4591 42.0261 17.6746 42.0261 15.3588C42.0261 13.043 42.6577 11.1081 43.8808 9.79476C45.1039 8.48144 46.8583 7.80975 49.0438 7.80975C51.109 7.80975 52.7431 8.41127 53.886 9.6143C55.0289 10.8173 55.6204 12.5317 55.6204 14.7172V15.9102H46.0462L46.0763 16.3112C46.0763 17.1934 46.347 18.0456 46.8583 18.7574C47.3896 19.3288 48.1516 19.6296 48.9335 19.5795C50.5175 19.5795 51.2093 18.8075 51.5 18.0656H55.4299C55.1893 19.3188 54.4975 20.4316 53.485 21.2036C52.1516 22.0758 50.5777 22.4968 48.9937 22.4166M49.0538 10.5767C47.3194 10.5767 46.2868 11.5492 46.0763 13.3938L46.0262 13.5542H51.7907L51.7707 13.4139C51.7907 12.6419 51.5401 11.88 51.0489 11.2885C50.5175 10.7873 49.7957 10.5266 49.0638 10.5767" fill="#FC6D26"/>
<path d="M35.249 22.2261V13.6846C35.249 12.261 34.0961 11.1081 32.6725 11.1081C31.2489 11.1081 30.096 12.261 30.096 13.6846V22.2261H26.0457V7.80977H30.106V9.51406L30.3767 9.22333C32.2815 7.11802 35.5297 6.95761 37.635 8.85239C38.6074 9.7246 39.199 10.9377 39.3092 12.2409L39.3293 12.7021V22.2362H35.249V22.2261Z" fill="#FC6D26"/>
<path d="M11.1882 24.4216C5.01265 24.4216 0 19.409 0 13.2334V11.1983C0 5.02267 5.01265 0.0100253 11.1882 0H11.5893C17.7649 0 22.7775 5.01265 22.7775 11.1983V13.2334C22.7775 19.409 17.7649 24.4216 11.5893 24.4317H11.1882V24.4216ZM11.1882 4.72192C7.60921 4.72192 4.72193 7.61923 4.7119 11.1983V13.2334C4.7119 16.8124 7.60921 19.6997 11.1882 19.7097H11.5893C15.1683 19.6997 18.0556 16.7924 18.0556 13.2234V11.1983C18.0556 7.61923 15.1583 4.73194 11.5792 4.72192H11.1882Z" fill="#FC6D26"/>
<path d="M72.9441 33.2137H34.066C31.4859 33.2137 29.3942 35.3053 29.3942 37.8855V52.9636C29.3942 55.5437 31.4859 57.6353 34.066 57.6353H72.9441C75.5243 57.6353 77.6159 55.5437 77.6159 52.9636V37.8855C77.6159 35.3053 75.5243 33.2137 72.9441 33.2137Z" fill="#FC6D26"/>
<path d="M50.1466 42.437H48.7029C48.6528 44.6626 48.342 46.8682 47.7505 49.0136C47.149 51.1089 46.0763 53.0438 44.6126 54.6679C44.2617 54.0263 43.7905 53.4649 43.209 53.0237C41.1338 53.4147 38.9182 53.7355 35.9407 54.0463C35.4494 54.1065 35.3091 54.1265 34.9382 54.1867L34.5873 52.0513C34.7477 52.0613 34.9181 52.0713 35.0785 52.0713C35.7502 52.0713 36.7728 51.9911 38.6776 51.8107V50.6277H37.0034C36.4319 50.6177 35.8705 50.6477 35.3091 50.728V48.8332C35.8805 48.9134 36.452 48.9535 37.0234 48.9334H38.6876V48.0412H36.6725C36.081 48.0311 35.4996 48.0612 34.9181 48.1414V46.2466C35.5096 46.3369 36.1011 46.3669 36.6926 46.3469H38.6876V45.4747H36.5923C35.8805 45.4747 35.7201 45.4747 35.0685 45.5148C35.1086 45.1138 35.1286 44.7128 35.1286 44.3118V42.2766C35.1387 41.8756 35.1286 41.4846 35.0685 41.0936C35.5698 41.1337 36.081 41.1438 36.5923 41.1337H42.6978C43.209 41.1438 43.7303 41.1337 44.2416 41.0936C44.1815 41.5448 44.1614 42.0059 44.1815 42.4571V44.2316C44.2015 44.9233 44.2015 45.3544 44.2216 45.5148C43.7203 45.4747 43.2191 45.4647 42.7178 45.4747H40.5824V46.3469H42.397C43.0085 46.3569 43.6201 46.3369 44.2316 46.2667V48.1214C43.6201 48.0612 43.0085 48.0311 42.397 48.0412H40.5824V48.9334H42.0662C42.6577 48.9434 43.2491 48.9234 43.8406 48.8532V50.7079C43.2491 50.6478 42.6577 50.6177 42.0662 50.6277H40.5824V51.6202C42.006 51.4598 43.1389 51.3228 43.981 51.2092L44.001 51.941C45.6251 49.7655 46.4272 46.8883 46.6678 42.437H46.2567C45.7053 42.417 45.164 42.437 44.6126 42.5172V40.4019C45.164 40.4821 45.7154 40.5222 46.2768 40.5021H46.7079C46.7279 39.4796 46.7279 39.2791 46.7279 38.0359C46.7279 37.5246 46.6978 37.0133 46.6076 36.5121H48.9235C48.8433 36.9599 48.7965 38.2899 48.7831 40.5021H50.3871C51.0288 40.5122 51.6704 40.4921 52.302 40.4219C52.2619 40.7361 52.2084 42.2432 52.1416 44.9434C52.1316 47.4998 51.8909 50.0462 51.4498 52.5726C51.0989 53.916 50.4573 54.3471 48.8232 54.3471C48.6762 54.3471 48.1482 54.327 47.2392 54.2869C47.1991 53.5451 47.0287 52.8232 46.748 52.1315C47.3294 52.2618 47.931 52.332 48.5225 52.3521C49.3145 52.3521 49.4749 52.1315 49.6854 50.7079C50.0263 47.961 50.1866 45.194 50.1566 42.427L50.1466 42.437ZM38.6676 42.7177H36.9332V43.9208H38.6676V42.7177ZM40.5624 42.7177V43.9208H42.4171V42.7177H40.5624ZM36.7327 37.8755V37.655C36.7327 37.274 36.7126 36.893 36.6725 36.5121H38.8079C38.7378 36.883 38.7177 37.264 38.7277 37.6349V37.8755H40.5022V37.655C40.5122 37.274 40.4922 36.9031 40.422 36.5321H42.5373C42.4772 36.893 42.4571 37.2539 42.4772 37.6149V37.8755H43.0687C43.6201 37.8755 44.1614 37.8454 44.7128 37.7753V39.7101C44.1715 39.64 43.6201 39.6199 43.0687 39.6299H42.4772V39.7904C42.4772 40.1112 42.4872 40.4219 42.5373 40.7428H40.4421C40.4922 40.4219 40.5122 40.1011 40.5022 39.7703V39.6299H38.7177V39.7703C38.7177 40.0911 38.7277 40.4219 38.7779 40.7428H36.6625C36.7126 40.4219 36.7327 40.1011 36.7227 39.7703V39.6299H36.0309C35.5096 39.6099 34.9883 39.6299 34.467 39.7101V37.7753C34.9983 37.8555 35.5497 37.8956 36.0911 37.8755H36.7227H36.7327Z" fill="white"/>
<path d="M55.1893 41.6653L54.8585 39.4697C55.5703 39.5499 56.673 39.59 57.8059 39.59H58.0866C59.019 38.5875 59.7909 37.4346 60.3824 36.1914L62.8887 36.6827C62.7417 36.8832 62.5512 37.1472 62.3173 37.4747C61.7659 38.2466 61.1543 38.9985 60.6531 39.57C63.3265 39.5031 65.3416 39.4229 66.6983 39.3294C66.0868 38.8181 65.4452 38.3569 64.7835 37.9258L66.558 36.8431C68.4628 38.1063 70.2272 39.58 71.8112 41.2241L70.0568 42.6477C69.3049 41.8156 69.0643 41.565 68.5129 40.9835C65.0342 41.2843 60.633 41.4948 56.8535 41.555C56.3021 41.555 55.7407 41.5851 55.1893 41.6552V41.6653ZM55.9813 54.0666L54.1868 52.643C54.7482 52.1116 55.2294 51.5101 55.6304 50.8484C56.0916 50.0765 56.4525 49.2444 56.6931 48.3822L58.5678 49.1742C58.2771 50.1567 57.8861 51.1091 57.3849 52.0013C57.0039 52.7432 56.5327 53.445 55.9813 54.0766V54.0666ZM59.0791 48.5125H61.3348C61.2546 48.8935 61.2245 49.2745 61.2346 49.6554V51.871C61.2346 52.3222 61.4952 52.3823 63.1895 52.3823C65.5354 52.3823 65.9565 52.3222 66.177 52.0314C66.3775 51.7507 66.4176 51.3998 66.4577 50.2369C67.0893 50.5577 67.7811 50.7582 68.4929 50.8284C68.3525 52.3322 68.2723 52.7432 68.0418 53.2345C67.5906 54.1468 66.8988 54.2971 63.4802 54.2971C59.7709 54.2971 59.1894 54.0766 59.1894 52.7131V49.886C59.1994 49.4248 59.1693 48.9637 59.0891 48.5025L59.0791 48.5125ZM56.7833 46.2167V44.0413C56.7833 43.5099 56.7633 42.9685 56.7031 42.4372C57.3347 42.5074 57.9663 42.5274 58.5979 42.5174H67.8011C68.4427 42.5274 69.0844 42.5074 69.716 42.4372C69.6458 42.9685 69.6257 43.4999 69.6358 44.0413V46.2167C69.6257 46.7681 69.6458 47.3095 69.716 47.8609C69.1245 47.8007 68.533 47.7707 67.9415 47.7807H58.4576C57.8661 47.7707 57.2846 47.8007 56.7031 47.8609C56.7733 47.3195 56.7934 46.7681 56.7833 46.2167ZM67.4903 44.2618H58.8786V46.0363H67.4903V44.2618ZM66.0066 50.0264L64.3625 51.3296C63.6707 50.4374 62.8186 49.6755 61.8561 49.074L63.4802 47.9511C64.4126 48.5326 65.2547 49.2243 66.0066 50.0264ZM72.5231 52.6329L70.5882 53.8961C69.7661 52.1617 68.7134 50.5477 67.4703 49.094L69.2849 48.1817C70.4879 49.5652 71.5707 51.0489 72.5231 52.6229V52.6329Z" fill="white"/>
</svg>
