<svg width="35" height="9" viewBox="0 0 35 9" fill="none" xmlns="http://www.w3.org/2000/svg">
<path d="M5.93084 2.239C5.93084 1.71451 5.93084 1.43208 5.8804 1.06897C6.22334 1.06897 6.51586 1.09923 6.83863 1.12949C6.92941 1.12949 6.98992 1.17992 6.98992 1.23036C6.98992 1.29087 6.95966 1.36148 6.93948 1.41191C6.88905 1.53295 6.87897 1.70441 6.87897 2.31969V3.62084C6.87897 4.1756 6.89914 4.43785 6.89914 4.49836C6.89914 4.59923 6.89913 4.60932 6.80835 4.60932H6.04179C5.94093 4.60932 5.93084 4.60932 5.93084 4.49836V4.15542H4.04468V6.98972H6.23344V6.29375C6.23344 5.75917 6.23343 5.48684 6.183 5.12373C6.53603 5.12373 6.83863 5.15398 7.15131 5.18424C7.232 5.18424 7.29252 5.24476 7.29252 5.28511C7.29252 5.34562 7.26225 5.41623 7.24208 5.46666C7.19165 5.5877 7.18156 5.75917 7.18156 6.37444V7.49404C7.18156 8.00845 7.20174 8.25052 7.20174 8.30095C7.20174 8.38164 7.20174 8.39174 7.10087 8.39174H6.34439C6.25361 8.39174 6.24352 8.39173 6.24352 8.30095V7.87732H0.998564V8.35139C0.998564 8.43208 0.998574 8.44216 0.897709 8.44216H0.141225C0.0403606 8.44216 0.0302735 8.44217 0.0302735 8.35139C0.0302735 8.29087 0.0504353 8.05888 0.0504353 7.54447V6.32401C0.0504353 5.79951 0.0504323 5.51709 0 5.16407C0.353026 5.16407 0.655626 5.19433 0.968306 5.22459C1.05908 5.22459 1.12969 5.27502 1.12969 5.32545C1.12969 5.38597 1.08935 5.45658 1.06918 5.50701C1.01874 5.61796 1.00865 5.79952 1.00865 6.30384V6.98972H3.08647V4.15542H1.31124V4.52862C1.31124 4.6194 1.31125 4.62949 1.21039 4.62949H0.443806C0.353028 4.62949 0.342951 4.62949 0.342951 4.52862C0.342951 4.4681 0.363113 4.20585 0.363113 3.6511V2.26926C0.363113 1.73468 0.363125 1.46234 0.312693 1.08915C0.665719 1.08915 0.968304 1.1194 1.28098 1.14966C1.37176 1.14966 1.42219 1.21018 1.42219 1.26061C1.42219 1.32113 1.39193 1.37157 1.37176 1.44217C1.32133 1.55312 1.31124 1.73467 1.31124 2.24908V3.25773H3.08647V1.24044C3.08647 0.695768 3.06628 0.413348 3.02594 0.0502353C3.37896 0.0502353 3.72191 0.0905808 4.04468 0.12084C4.12537 0.12084 4.18589 0.16119 4.18589 0.211622C4.18589 0.272141 4.15563 0.322573 4.12537 0.393179C4.08502 0.514216 4.07494 0.645336 4.07494 1.24044V3.24765H5.9611V2.21882L5.93084 2.239Z" fill="#FD6C26"/>
<path d="M8.51297 0.917748C8.51297 0.82697 8.51297 0.816885 8.61384 0.816885C8.66427 0.816885 8.92652 0.837062 9.62248 0.837062C9.62248 0.564728 9.62249 0.362996 9.56197 0.141094C9.85447 0.141094 10.1571 0.171349 10.4092 0.191522C10.4899 0.191522 10.5303 0.23187 10.5303 0.272215C10.5303 0.332734 10.5101 0.352906 10.4798 0.413425C10.4496 0.473944 10.4294 0.574814 10.4294 0.837062H11.2565C11.2565 0.564728 11.2363 0.35291 11.206 0.141094C11.4885 0.141094 11.7911 0.171349 12.0533 0.191522C12.1239 0.191522 12.1643 0.221783 12.1643 0.272215C12.1643 0.322648 12.1441 0.352912 12.1239 0.403344C12.0836 0.463863 12.0735 0.584901 12.0735 0.837062C12.7089 0.837062 12.9611 0.816885 13.0115 0.816885C13.1023 0.816885 13.1124 0.816883 13.1124 0.917748V1.46242C13.1124 1.56328 13.1124 1.57337 13.0115 1.57337C12.9611 1.57337 12.7089 1.57337 12.0735 1.5532C12.0735 1.84571 12.0937 1.96674 12.0937 2.01717C12.0937 2.09787 12.0937 2.10795 11.9928 2.10795H11.3271C11.2363 2.10795 11.2262 2.10795 11.2262 2.01717C11.2262 1.96674 11.2262 1.85579 11.2464 1.5532H10.4193C10.4193 1.84571 10.4395 1.97682 10.4395 2.02726C10.4395 2.11803 10.4395 2.12813 10.3386 2.12813H9.683C9.59222 2.12813 9.58213 2.12812 9.58213 2.02726C9.58213 1.97682 9.58213 1.85579 9.60231 1.5532C8.90634 1.5532 8.64409 1.57337 8.59366 1.57337C8.50288 1.57337 8.49281 1.57337 8.49281 1.46242V0.917748H8.51297ZM14.8977 2.97538C14.8674 3.94368 14.7968 4.85146 14.6355 5.52726C14.3732 6.60651 14.0202 7.46386 13.3847 8.31112C13.3141 8.4019 13.2637 8.45233 13.2233 8.45233C13.1729 8.45233 13.1225 8.4019 13.0418 8.29095C12.8501 8.04887 12.6383 7.84714 12.4568 7.74628L12.6383 7.55463L12.477 7.58489C11.4582 7.78662 10.3487 7.96818 9.30981 8.11947C9.14842 8.14973 9.06773 8.16991 8.99713 8.19008C8.93661 8.22034 8.88616 8.24051 8.82565 8.24051C8.77521 8.24051 8.72479 8.19008 8.69453 8.08922C8.6441 7.84714 8.59366 7.58489 8.54323 7.32264C8.90634 7.32264 9.10807 7.30247 9.4611 7.27222C9.73343 7.24196 10.0562 7.22178 10.4193 7.17135V6.56616H10.1268C9.3905 6.56616 9.14842 6.58634 9.09798 6.58634C8.99712 6.58634 8.98703 6.58634 8.98703 6.47538V5.99123C8.98703 5.89037 8.98703 5.88029 9.09798 5.88029C9.14842 5.88029 9.3905 5.90046 10.1268 5.90046H10.4193V5.43648H10.0461C9.26946 5.43648 9.02739 5.45665 8.96687 5.45665C8.86601 5.45665 8.85592 5.45665 8.85592 5.35579V4.81112C8.85592 4.73043 8.85592 4.72034 8.96687 4.72034C9.0173 4.72034 9.26946 4.74051 10.0461 4.74051H10.4193V4.25637H10.0259C9.23919 4.25637 8.97694 4.27654 8.90634 4.27654C8.81556 4.27654 8.80548 4.27654 8.80548 4.16559C8.80548 4.11515 8.82565 3.95377 8.82565 3.58057V2.99556C8.82565 2.61228 8.80548 2.45089 8.80548 2.40046C8.80548 2.30968 8.80547 2.29959 8.90634 2.29959C8.96686 2.29959 9.23919 2.31976 10.0259 2.31976H11.67C12.4568 2.31976 12.719 2.29959 12.7795 2.29959C12.8804 2.29959 12.8905 2.29959 12.8905 2.40046C12.8905 2.45089 12.8703 2.61228 12.8703 2.99556V3.58057C12.8703 3.95377 12.8905 4.10507 12.8905 4.16559C12.8905 4.26645 12.8905 4.27654 12.7795 4.27654C12.7291 4.27654 12.4568 4.25637 11.67 4.25637H11.2666V4.74051H11.6398C12.4164 4.74051 12.6585 4.72034 12.719 4.72034C12.8098 4.72034 12.8199 4.72034 12.8199 4.81112V5.35579C12.8199 5.44657 12.8199 5.45665 12.719 5.45665C12.6686 5.45665 12.4164 5.43648 11.6398 5.43648H11.2666V5.90046H11.5591C12.2954 5.90046 12.5476 5.88029 12.598 5.88029C12.6888 5.88029 12.6989 5.88028 12.6989 5.99123V6.47538C12.6989 6.57625 12.6988 6.58634 12.598 6.58634C12.5375 6.58634 12.2954 6.56616 11.5591 6.56616H11.2666V7.05031C11.7911 6.97971 12.3458 6.88893 12.8602 6.77798C12.83 6.93936 12.7997 7.08057 12.7896 7.24196C12.7896 7.30248 12.7896 7.36299 12.7896 7.40334C13.2738 6.80824 13.5764 6.07193 13.768 5.28518C13.9092 4.69008 13.9798 3.88317 14.0101 2.97538C13.4755 2.97538 13.2839 2.99556 13.2334 2.99556C13.1427 2.99556 13.1326 2.99556 13.1326 2.90478V2.2189C13.1326 2.12812 13.1326 2.11804 13.2334 2.11804C13.2839 2.11804 13.4856 2.13821 14.0303 2.13821V1.42207C14.0303 0.857229 14.0303 0.57481 13.9697 0.131006C14.3026 0.131006 14.5749 0.161263 14.8977 0.191522C14.9784 0.191522 15.0389 0.241958 15.0389 0.282304C15.0389 0.352909 14.9986 0.433596 14.9784 0.514288C14.9481 0.615153 14.938 0.887493 14.938 1.44225C14.938 1.67424 14.938 1.90622 14.938 2.13821H15.5937C16.3098 2.13821 16.5519 2.11804 16.6124 2.11804C16.7032 2.11804 16.7233 2.13821 16.7233 2.22899C16.7233 2.55176 16.7032 2.83418 16.7032 3.13677C16.7032 4.70017 16.6426 6.24339 16.4712 7.33273C16.3602 8.04887 16.0173 8.35147 15.3213 8.35147C15.1297 8.35147 14.9784 8.35146 14.8271 8.33129C14.6859 8.31784 14.5985 8.21362 14.5648 8.01861C14.5245 7.79671 14.464 7.57481 14.3732 7.39326C14.6153 7.4336 14.8977 7.46386 15.1398 7.46386C15.4222 7.46386 15.5331 7.34282 15.6138 6.87884C15.755 5.98115 15.8156 4.56905 15.8256 2.98547H14.928L14.8977 2.97538ZM10.4294 3.64109V2.94513H9.64266V3.64109H10.4294ZM12.0836 2.94513H11.2767V3.64109H12.0836V2.94513Z" fill="#FD6C26"/>
<path d="M24.147 2.56196C25.0144 2.56196 25.3271 2.54178 25.3876 2.54178C25.4784 2.54178 25.4885 2.54178 25.4885 2.64265C25.4885 2.69308 25.4683 2.83429 25.4683 3.03602V3.35879C25.4683 4.05476 25.4885 4.18588 25.4885 4.2464C25.4885 4.33717 25.4885 4.34726 25.3876 4.34726H24.6614C24.5706 4.34726 24.5605 4.34726 24.5605 4.2464V3.28818H18.8213V4.2464C18.8213 4.33717 18.8213 4.34726 18.7104 4.34726H17.9942C17.9034 4.34726 17.8934 4.34726 17.8934 4.2464C17.8934 4.18588 17.9135 4.06484 17.9135 3.35879V3.08645C17.9135 2.8242 17.8934 2.69308 17.8934 2.63256C17.8934 2.54179 17.8934 2.53169 17.9942 2.53169C18.0547 2.53169 18.3674 2.55187 19.2349 2.55187H21.1513C21.1513 2.32997 21.1311 2.14841 21.0908 1.9366C21.3934 1.9366 21.6959 1.95677 21.938 1.97694L21.8674 1.91643C21.706 1.79539 21.5144 1.70461 21.3732 1.64409L21.5346 1.46253C21.464 1.46253 21.2118 1.44236 20.4755 1.44236C20.5663 1.60375 20.657 1.79539 20.7478 2.0072C20.7882 2.09798 20.7882 2.11815 20.657 2.14841L20.0519 2.26945C19.9207 2.29971 19.9006 2.29971 19.8804 2.19885C19.8098 1.95677 19.7089 1.69452 19.598 1.45244H19.013C18.8213 1.72478 18.5994 1.98703 18.3372 2.21902C18.2363 2.30979 18.1758 2.37031 18.1253 2.37031C18.0749 2.37031 18.0346 2.30979 17.9337 2.20893C17.7723 2.01729 17.5908 1.90634 17.4596 1.82565C17.9438 1.43227 18.3271 0.988473 18.5994 0.433718C18.67 0.292507 18.7204 0.17147 18.7608 0C19.0533 0.0403458 19.4063 0.0907775 19.608 0.14121C19.6988 0.14121 19.7493 0.181556 19.7493 0.252161C19.7493 0.31268 19.719 0.342937 19.6787 0.383282C19.6181 0.433715 19.5879 0.484148 19.5173 0.605186L19.4568 0.736307H20.4452C21.2219 0.736307 21.464 0.716137 21.5245 0.716137C21.6253 0.716137 21.6354 0.716136 21.6354 0.817V1.38184C21.8775 1.08933 22.0591 0.796829 22.2104 0.463976C22.2608 0.342938 22.3314 0.17147 22.3717 0C22.6441 0.0403458 22.9668 0.0907775 23.1686 0.14121C23.2694 0.161383 23.3199 0.191643 23.3199 0.252161C23.3199 0.31268 23.2896 0.342937 23.2493 0.383282C23.1887 0.433715 23.1282 0.564842 23.0778 0.685879L23.0475 0.736307H24.389C25.3271 0.736307 25.6498 0.716137 25.7104 0.716137C25.8011 0.716137 25.8112 0.716136 25.8112 0.817V1.39193C25.8112 1.48271 25.8112 1.49279 25.7104 1.49279C25.6498 1.49279 25.3271 1.47262 24.389 1.47262H24.2276C24.3386 1.64409 24.4193 1.83573 24.5 2.03746C24.5403 2.12824 24.5403 2.14841 24.4092 2.17867L23.8141 2.28962C23.683 2.31988 23.6628 2.30979 23.6426 2.21902C23.5619 1.98703 23.4611 1.72478 23.34 1.48271H22.6542C22.5634 1.64409 22.4524 1.79538 22.3213 1.95677C22.2608 2.02737 22.2204 2.06772 22.1801 2.0879C22.1801 2.10807 22.1801 2.11815 22.1801 2.13832C22.1801 2.17867 22.1599 2.20893 22.1196 2.28962C22.0792 2.35014 22.0792 2.47118 22.0792 2.60231H24.157L24.147 2.56196ZM22.7349 3.71181C23.5418 3.71181 23.9251 3.69164 23.9755 3.69164C24.0663 3.69164 24.0764 3.69164 24.0764 3.7925C24.0764 3.84293 24.0562 4.02449 24.0562 4.42795V4.89193C24.0562 5.29539 24.0764 5.47694 24.0764 5.53746C24.0764 5.61815 24.0763 5.62824 23.9755 5.62824C23.9251 5.62824 23.5418 5.60806 22.7349 5.60806H20.183V6.11239H23.2392C24.0764 6.11239 24.5 6.09222 24.5706 6.09222C24.6614 6.09222 24.6715 6.09222 24.6715 6.20317C24.6715 6.2536 24.6513 6.44524 24.6513 6.89913V7.6657C24.6513 8.12968 24.6715 8.30115 24.6715 8.35158C24.6715 8.44236 24.6714 8.45244 24.5706 8.45244H23.8242C23.7334 8.45244 23.7233 8.45245 23.7233 8.35158V8.09942H20.183V8.37175C20.183 8.46253 20.183 8.47262 20.0821 8.47262H19.3559C19.2651 8.47262 19.255 8.47262 19.255 8.37175C19.255 8.32132 19.2752 8.01873 19.2752 7.31268V4.87176C19.2752 4.16571 19.255 3.85302 19.255 3.7925C19.255 3.70172 19.255 3.69164 19.3559 3.69164C19.4063 3.69164 19.84 3.71181 20.6671 3.71181H22.7449H22.7349ZM23.1383 4.39769H20.183V4.93227H23.1383V4.39769ZM20.183 6.81844V7.40345H23.7233V6.81844H20.183Z" fill="#FD6C26"/>
<path d="M28.5548 5.58813C28.8775 5.43684 29.1902 5.29563 29.513 5.11407C29.513 5.27545 29.513 5.50744 29.513 5.70917C29.513 5.9109 29.4357 6.05883 29.281 6.15297C28.6758 6.47574 27.9899 6.76824 27.294 7.04058C27.1427 7.1011 27.0519 7.14144 27.0115 7.18179C26.9611 7.23222 26.9208 7.24231 26.8602 7.24231C26.8098 7.24231 26.7796 7.21205 26.7392 7.12127C26.6585 6.8792 26.5778 6.58669 26.5072 6.25384C26.7796 6.2034 27.0519 6.1328 27.3747 6.03193L27.647 5.94116V3.94404C27.062 3.94404 26.8905 3.96421 26.8401 3.96421C26.7493 3.96421 26.7392 3.96422 26.7392 3.86335V3.19764C26.7392 3.09678 26.7392 3.08669 26.8401 3.08669C26.9006 3.08669 27.0721 3.10687 27.647 3.10687V1.48295H27.5865C26.9712 1.48295 26.7796 1.50312 26.719 1.50312C26.6383 1.50312 26.6283 1.50312 26.6283 1.40225V0.726464C26.6283 0.6256 26.6283 0.615513 26.719 0.615513C26.7695 0.615513 26.9712 0.635682 27.5865 0.635682H28.5447C29.17 0.635682 29.3617 0.615513 29.4121 0.615513C29.5029 0.615513 29.513 0.615513 29.513 0.726464V1.40225C29.513 1.49303 29.513 1.50312 29.4121 1.50312C29.3617 1.50312 29.17 1.48295 28.5548 1.48295V3.10687C29.0591 3.10687 29.2406 3.08669 29.2911 3.08669C29.3819 3.08669 29.3819 3.08669 29.3819 3.19764V3.86335C29.3819 3.95413 29.3819 3.96421 29.2911 3.96421C29.2406 3.96421 29.0591 3.94404 28.5548 3.94404V5.58813ZM30.2392 8.05931C29.3314 8.05931 29.0087 8.07948 28.9582 8.07948C28.8674 8.07948 28.8574 8.07948 28.8574 7.97862V7.323C28.8574 7.23222 28.8574 7.22213 28.9582 7.22213C29.0187 7.22213 29.3314 7.24231 30.2392 7.24231H31.6412V6.33453H31.0663C30.219 6.33453 29.9366 6.3547 29.8761 6.3547C29.7853 6.3547 29.7752 6.3547 29.7752 6.25384V5.61839C29.7752 5.52761 29.7752 5.51753 29.8761 5.51753C29.9366 5.51753 30.219 5.5377 31.0663 5.5377H31.6412V4.74087H31.0461C30.209 4.74087 29.9064 4.76105 29.8458 4.76105C29.745 4.76105 29.7349 4.76104 29.7349 4.67026C29.7349 4.61983 29.755 4.31724 29.755 3.65153V1.60398C29.755 0.948361 29.7349 0.665941 29.7349 0.595336C29.7349 0.504557 29.7349 0.494473 29.8458 0.494473C29.9064 0.494473 30.209 0.514642 31.0461 0.514642H33.245C34.0922 0.514642 34.3847 0.494473 34.4553 0.494473C34.5461 0.494473 34.5562 0.494471 34.5562 0.595336C34.5562 0.645768 34.536 0.948361 34.536 1.60398V3.65153C34.536 4.32732 34.5562 4.61983 34.5562 4.67026C34.5562 4.75095 34.5562 4.76105 34.4553 4.76105C34.3948 4.76105 34.0922 4.74087 33.245 4.74087H32.5692V5.5377H33.2651C34.1023 5.5377 34.3948 5.51753 34.4553 5.51753C34.5461 5.51753 34.5562 5.51753 34.5562 5.61839V6.25384C34.5562 6.34461 34.5562 6.3547 34.4553 6.3547C34.3948 6.3547 34.1023 6.33453 33.2651 6.33453H32.5692V7.24231H33.6283C34.536 7.24231 34.8588 7.22213 34.8991 7.22213C34.9899 7.22213 35 7.22213 35 7.323V7.97862C35 8.0694 35 8.07948 34.8991 8.07948C34.8487 8.07948 34.526 8.05931 33.6283 8.05931H30.2493H30.2392ZM31.6412 2.21925V1.2913H30.6225V2.21925H31.6412ZM31.6412 3.96421V2.97574H30.6225V3.96421H31.6412ZM32.5591 1.2913V2.21925H33.6484V1.2913H32.5591ZM33.6484 2.97574H32.5591V3.96421H33.6484V2.97574Z" fill="#FD6C26"/>
</svg>
