<svg width="35" height="9" viewBox="0 0 35 9" fill="none" xmlns="http://www.w3.org/2000/svg">
<path d="M1.90524 1.11879C1.00806 1.11879 0.705638 1.13896 0.655235 1.13896C0.554429 1.13896 0.544348 1.13895 0.544348 1.03815V0.443391C0.544348 0.352665 0.544348 0.342584 0.655235 0.342584C0.705638 0.342584 1.01814 0.362746 1.90524 0.362746H6.02822C6.93547 0.362746 7.23789 0.342584 7.2883 0.342584C7.37902 0.342584 7.38911 0.342584 7.38911 0.443391V1.03815C7.38911 1.12887 7.3891 1.13896 7.2883 1.13896C7.23789 1.13896 6.92539 1.11879 6.02822 1.11879H4.36492V1.49178H6.62297C7.46974 1.49178 7.76208 1.47162 7.83264 1.47162C7.92337 1.47162 7.93346 1.47162 7.93346 1.57242C7.93346 1.62283 7.91329 1.7942 7.91329 2.03613V2.52C7.91329 3.25589 7.93346 3.4071 7.93346 3.4575C7.93346 3.54823 7.93345 3.55831 7.83264 3.55831H7.11693C7.0262 3.55831 7.01611 3.55831 7.01611 3.4575V2.19742H4.37499V2.98371C4.37499 3.58855 4.39516 3.85064 4.39516 3.90105C4.39516 3.98169 4.39515 3.99177 4.29435 3.99177H3.5383C3.44757 3.99177 3.43749 3.99177 3.43749 3.90105C3.43749 3.84056 3.45765 3.56839 3.45765 2.98371V2.19742H0.907251V3.4575C0.907251 3.54823 0.90726 3.55831 0.806454 3.55831H0.090722C0.0100769 3.55831 0 3.55831 0 3.4575C0 3.39702 0 3.25589 0 2.52V2.11678C0 1.80428 0 1.63291 0 1.5825C0 1.49178 -3.69524e-06 1.4817 0.090722 1.4817C0.151206 1.4817 0.453622 1.50186 1.3004 1.50186H3.46774V1.12887H1.92539L1.90524 1.11879ZM5.49394 4.18331C6.42136 4.18331 6.87499 4.16315 6.94556 4.16315C7.03628 4.16315 7.04635 4.16315 7.04635 4.27403C7.04635 4.32444 7.0262 4.51597 7.0262 5.11072V6.15911C7.0262 6.69338 7.04635 6.9454 7.04635 6.99581C7.04635 7.08653 7.04636 7.09661 6.94556 7.09661C6.88507 7.09661 6.43144 7.07645 5.49394 7.07645H4.32459V7.21758C4.32459 7.46959 4.37499 7.49984 4.49596 7.54016C4.73789 7.59056 5.12096 7.59056 5.72579 7.59056C6.53224 7.59056 6.89514 7.54016 7.0766 7.39903C7.2278 7.27806 7.27822 7.17726 7.30846 6.47161C7.46975 6.56234 7.72176 6.67322 7.9637 6.73371C8.20563 6.79419 8.20563 6.80427 8.18547 7.05629C8.11491 7.65105 7.94353 7.94339 7.66127 8.12484C7.36894 8.30629 6.85483 8.40709 5.74596 8.40709C4.84878 8.40709 4.22378 8.36677 3.9012 8.25589C3.61894 8.15508 3.42741 7.96355 3.42741 7.40911V7.06637H1.73387V7.44943C1.73387 7.54016 1.73386 7.55024 1.63306 7.55024H0.907251C0.826606 7.55024 0.816529 7.55024 0.816529 7.44943C0.816529 7.38895 0.836695 7.16717 0.836695 6.60266V5.12081C0.836695 4.56637 0.816529 4.31435 0.816529 4.26395C0.816529 4.16314 0.816525 4.15306 0.907251 4.15306C0.967735 4.15306 1.41128 4.17323 2.28829 4.17323H5.49394V4.18331ZM2.37903 2.50992C2.75201 2.50992 2.84273 2.50992 2.89314 2.50992C2.98386 2.50992 2.99395 2.50992 2.99395 2.59057V2.96355C2.99395 3.02404 2.99394 3.02403 2.89314 3.02403C2.84273 3.02403 2.74193 3.02403 2.37903 3.02403H1.93548C1.5625 3.02403 1.47176 3.02403 1.42136 3.02403C1.33063 3.02403 1.32056 3.02403 1.32056 2.95347V2.58049C1.32056 2.52 1.32055 2.50992 1.42136 2.50992C1.48184 2.50992 1.57258 2.50992 1.93548 2.50992H2.37903ZM2.37903 3.31637C2.75201 3.31637 2.84273 3.31637 2.89314 3.31637C2.98386 3.31637 2.99395 3.31637 2.99395 3.39702V3.74984C2.99395 3.8204 2.99394 3.83048 2.89314 3.83048C2.84273 3.83048 2.74193 3.83048 2.37903 3.83048H1.93548C1.5625 3.83048 1.47176 3.83048 1.42136 3.83048C1.33063 3.83048 1.32056 3.83049 1.32056 3.74984V3.38694C1.32056 3.32645 1.32055 3.31637 1.42136 3.31637C1.48184 3.31637 1.57258 3.31637 1.93548 3.31637H2.37903ZM3.42741 5.30226V4.83855H1.73387V5.30226H3.42741ZM3.42741 6.42121V5.93734H1.73387V6.42121H3.42741ZM4.32459 4.84863V5.31234H6.10886V4.84863H4.32459ZM6.10886 5.94742H4.32459V6.43129H6.10886V5.94742ZM5.90725 2.48976C6.3004 2.48976 6.39112 2.48976 6.4516 2.48976C6.54233 2.48976 6.55241 2.48976 6.55241 2.5704V2.93331C6.55241 3.00387 6.55241 3.01395 6.4516 3.01395C6.4012 3.01395 6.3004 2.99379 5.90725 2.99379H5.45361C5.06047 2.99379 4.96975 3.01395 4.90926 3.01395C4.81854 3.01395 4.80845 3.01395 4.80845 2.92323V2.56032C4.80845 2.49984 4.80846 2.48976 4.90926 2.48976C4.95967 2.48976 5.06047 2.48976 5.45361 2.48976H5.90725ZM5.90725 3.29621C6.3004 3.29621 6.39112 3.29621 6.4516 3.29621C6.54233 3.29621 6.55241 3.29621 6.55241 3.37686V3.73976C6.55241 3.80024 6.55241 3.81032 6.4516 3.81032C6.4012 3.81032 6.3004 3.81032 5.90725 3.81032H5.45361C5.06047 3.81032 4.96975 3.81032 4.90926 3.81032C4.81854 3.81032 4.80845 3.81032 4.80845 3.73976V3.36677C4.80845 3.30629 4.80846 3.29621 4.90926 3.29621C4.95967 3.29621 5.06047 3.29621 5.45361 3.29621H5.90725Z" fill="#FD6C26"/>
<path d="M10.1814 4.68769C9.36489 4.68769 9.07255 4.70786 9.02215 4.70786C8.93142 4.70786 8.92134 4.70785 8.92134 4.60705V3.851C8.92134 3.76027 8.92134 3.75019 9.02215 3.75019C9.07255 3.75019 9.36489 3.77036 10.1814 3.77036H12.5504C12.5504 3.34697 12.5302 3.02439 12.4798 2.62116C12.6512 2.64133 12.8528 2.6514 13.0342 2.67157C13.6189 2.2885 14.1633 1.84495 14.5867 1.41149H11.2399C10.3326 1.41149 10.0201 1.43165 9.96973 1.43165C9.87901 1.43165 9.86892 1.43165 9.86892 1.33084V0.605035C9.86892 0.514309 9.86893 0.504228 9.96973 0.504228C10.0201 0.504228 10.3427 0.52439 11.2399 0.52439H15.1512C15.2117 0.52439 15.2822 0.494149 15.3125 0.484068C15.3427 0.473987 15.3629 0.453826 15.4334 0.453826C15.4838 0.453826 15.5645 0.484066 15.8367 0.746163C16.1189 1.02842 16.1794 1.11915 16.1794 1.23003C16.1794 1.31068 16.129 1.38124 16.0181 1.43165C15.9072 1.48205 15.7963 1.57278 15.625 1.75423C15.1109 2.27842 14.4052 2.87318 13.5685 3.37721V3.77036H15.8669C16.6834 3.77036 16.9758 3.75019 17.0262 3.75019C17.1169 3.75019 17.127 3.75019 17.127 3.851V4.60705C17.127 4.69777 17.127 4.70786 17.0262 4.70786C16.9758 4.70786 16.6834 4.68769 15.8669 4.68769H13.5685V5.73608C13.5685 6.41148 13.5887 6.86511 13.5887 7.18769C13.5887 7.72196 13.4576 7.9639 13.2056 8.15543C12.9334 8.35704 12.5302 8.39737 11.5423 8.39737C11.2601 8.39737 11.26 8.39737 11.1895 8.11511C11.1088 7.83285 10.9778 7.55059 10.8467 7.3389C11.2096 7.37922 11.5222 7.39938 12.127 7.39938C12.4193 7.39938 12.5604 7.26833 12.5604 6.94575V4.67761H10.1915L10.1814 4.68769Z" fill="#FD6C26"/>
<path d="M19.4355 6.17929C18.5786 6.17929 18.2863 6.19945 18.2258 6.19945C18.1351 6.19945 18.125 6.19945 18.125 6.09865V5.45349C18.125 5.36276 18.125 5.35268 18.2258 5.35268C18.2863 5.35268 18.5786 5.37284 19.4355 5.37284H21.4113C21.4617 5.14099 21.4617 4.85873 21.4415 4.58655C21.7641 4.60671 22.0766 4.63695 22.3488 4.6672C22.4496 4.68736 22.5202 4.72768 22.5202 4.77808C22.5202 4.83857 22.4798 4.87889 22.4597 4.95954C22.4193 5.0301 22.3992 5.14099 22.3689 5.36276H24.6472C25.4939 5.36276 25.7863 5.3426 25.8468 5.3426C25.9476 5.3426 25.9577 5.3426 25.9577 5.44341V6.08857C25.9577 6.17929 25.9577 6.18937 25.8468 6.18937C25.7964 6.18937 25.4939 6.16921 24.6472 6.16921H22.7923C23.5484 7.03614 24.6673 7.43937 26.2802 7.57042C26.1593 7.73171 26.0383 7.96356 25.9577 8.2055C25.8871 8.40711 25.8669 8.4676 25.756 8.4676C25.7157 8.4676 25.6653 8.4676 25.5645 8.44744C24.1129 8.22566 22.8024 7.65106 22.006 6.53211C21.3508 7.66114 19.9798 8.19542 18.5585 8.43735C18.4677 8.45751 18.3972 8.4676 18.3568 8.4676C18.2762 8.4676 18.2359 8.40711 18.1552 8.21558C18.0544 7.98373 17.9133 7.76195 17.7823 7.6309C19.4254 7.42929 20.5544 7.02607 21.1089 6.17929H19.4456H19.4355ZM20.4839 1.72365L20.504 2.29825H20.5443C21.2197 2.29825 21.4314 2.27809 21.4818 2.27809C21.5625 2.27809 21.5726 2.27809 21.5726 2.37889V2.93333C21.5726 3.01397 21.5726 3.02405 21.4818 3.02405C21.4314 3.02405 21.2097 3.00389 20.5443 3.00389H20.5242L20.5443 3.60873C20.9677 3.53817 21.4012 3.44744 21.8347 3.33655C21.7843 3.45752 21.7641 3.62889 21.7439 3.84059C22.6512 3.34663 23.0544 2.68131 23.1351 1.39099C22.5202 1.39099 22.2984 1.41115 22.248 1.41115C22.1572 1.41115 22.1472 1.41115 22.1472 1.30026V0.685345C22.1472 0.594619 22.1472 0.584538 22.248 0.584538C22.2984 0.584538 22.5403 0.6047 23.2964 0.6047H24.7681C25.5141 0.6047 25.756 0.584538 25.8064 0.584538C25.8972 0.584538 25.9476 0.614781 25.9375 0.715588C25.9173 0.876878 25.9072 1.04825 25.9072 1.21962C25.9072 2.28817 25.8064 3.37688 25.6452 3.86075C25.504 4.36478 25.1512 4.62687 24.6068 4.62687C24.4657 4.62687 24.2943 4.62687 24.1129 4.60671C23.9516 4.59327 23.8575 4.48911 23.8306 4.29421C23.7903 4.07244 23.7197 3.85066 23.6492 3.70954C23.9214 3.75994 24.1734 3.7801 24.3649 3.7801C24.6169 3.7801 24.7379 3.69946 24.7984 3.51801C24.9395 3.08454 25.0101 2.27809 25.0201 1.38091H24.0222C23.9314 2.83252 23.5282 3.77002 22.5 4.42526C22.3992 4.48574 22.3387 4.53615 22.2883 4.53615C22.2278 4.53615 22.1774 4.47566 22.0766 4.32446C21.9758 4.20349 21.8548 4.07244 21.7137 3.97163C21.6935 4.10268 21.6532 4.12284 21.4415 4.16317C20.5746 4.36478 19.5968 4.55631 18.7399 4.69744C18.5786 4.72768 18.498 4.75792 18.4173 4.79825C18.3669 4.82849 18.3266 4.84865 18.2762 4.84865C18.2258 4.84865 18.1956 4.79825 18.1653 4.72768C18.1048 4.53615 18.0343 4.15308 18.004 3.91115C18.3367 3.91115 18.6391 3.88091 18.9415 3.85066L19.6472 3.75994L19.627 3.00389H19.4052C18.7399 3.00389 18.5181 3.02405 18.4677 3.02405C18.377 3.02405 18.3669 3.02405 18.3669 2.93333V2.37889C18.3669 2.28817 18.3669 2.27809 18.4677 2.27809C18.5282 2.27809 18.7399 2.29825 19.4052 2.29825H19.5968L19.5766 1.72365H19.2742C18.5383 1.72365 18.2964 1.74381 18.246 1.74381C18.1552 1.74381 18.1452 1.74381 18.1452 1.64301V1.06841C18.1452 0.967604 18.1452 0.957523 18.246 0.957523C18.2964 0.957523 18.5383 0.977684 19.2742 0.977684H19.5564C19.5564 0.675265 19.5161 0.382926 19.4657 0.110749C19.7883 0.110749 20.0605 0.140991 20.373 0.171232C20.4637 0.171232 20.5242 0.211555 20.5242 0.272039C20.5242 0.332523 20.504 0.382926 20.4738 0.433329C20.4335 0.493813 20.4234 0.655104 20.4335 0.967604H20.6653C21.4012 0.967604 21.6331 0.947442 21.6835 0.947442C21.7742 0.947442 21.7843 0.947442 21.7843 1.05833V1.63293C21.7843 1.72365 21.7843 1.73373 21.6835 1.73373C21.6331 1.73373 21.4012 1.71357 20.6653 1.71357H20.4637L20.4839 1.72365Z" fill="#FD6C26"/>
<path d="M29.9597 3.02419C30.0706 2.98387 30.0907 2.99395 30.131 3.08468C30.4234 3.62903 30.6552 4.20362 30.8165 4.74798C30.8468 4.84878 30.8165 4.89919 30.7056 4.92943L30.2218 5.09072C30.121 5.12096 30.0806 5.11088 30.0605 5.03024L29.9496 4.61693C29.7379 4.64718 29.5262 4.66733 29.3145 4.67741V7.20766C29.3145 8.05443 29.3347 8.36693 29.3347 8.41733C29.3347 8.50806 29.3347 8.51814 29.2339 8.51814H28.5383C28.4476 8.51814 28.4375 8.51814 28.4375 8.41733C28.4375 8.36693 28.4576 8.05443 28.4576 7.20766V4.74798L27.5907 4.79838C27.4294 4.79838 27.3085 4.84879 27.248 4.86895C27.1976 4.89919 27.1673 4.91935 27.1068 4.91935C27.0464 4.91935 27.0161 4.85887 26.996 4.75806C26.9456 4.53629 26.9153 4.32459 26.8649 3.98185C27.1371 4.00201 27.3891 4.01209 27.631 4.00201L28.1451 3.30645C27.7621 2.83266 27.3488 2.38911 26.9052 1.96572C26.8649 1.9254 26.8548 1.90524 26.8548 1.88508C26.8548 1.86492 26.8851 1.8246 26.9153 1.76411L27.258 1.31048C27.2984 1.25 27.3185 1.22984 27.3488 1.22984C27.379 1.22984 27.3992 1.25 27.4294 1.29032L27.6613 1.53226C27.8427 1.22984 28.004 0.94758 28.1552 0.604839C28.2762 0.352823 28.3165 0.211694 28.3669 0.0302426C28.6189 0.120968 28.9415 0.252017 29.1633 0.372984C29.2439 0.423388 29.2843 0.46371 29.2843 0.524194C29.2843 0.574597 29.2439 0.604839 29.2036 0.645162C29.1331 0.695565 29.0927 0.745968 29.0322 0.866935C28.7399 1.37097 28.5081 1.74395 28.2258 2.1371C28.3669 2.29839 28.498 2.43952 28.629 2.60081C28.8407 2.26815 29.0423 1.9254 29.2439 1.58266C29.3548 1.38105 29.4556 1.14919 29.5262 0.94758C29.7984 1.07863 30.0907 1.20968 30.3024 1.34072C30.383 1.39113 30.4133 1.42137 30.4133 1.48185C30.4133 1.54234 30.383 1.58266 30.3125 1.62298C30.2218 1.67339 30.1512 1.78427 30.0101 1.99597C29.5363 2.74193 29.0322 3.44758 28.6088 3.99193C28.9718 3.97177 29.3447 3.95161 29.7077 3.93145C29.627 3.72984 29.5464 3.5383 29.4455 3.34677C29.3951 3.25605 29.4153 3.23588 29.5363 3.18548L29.9597 3.03427V3.02419ZM27.2782 5.79637C27.2984 5.62499 27.3085 5.48387 27.2984 5.28225C27.5706 5.32258 27.8226 5.34274 28.004 5.38306C28.1149 5.40322 28.1653 5.44354 28.1653 5.49395C28.1653 5.54435 28.1351 5.57459 28.1149 5.63508C28.0847 5.6754 28.0746 5.78629 28.0544 5.92742C28.004 6.46169 27.8629 7.16733 27.7016 7.69153C27.6613 7.83266 27.631 7.89314 27.5705 7.89314C27.5201 7.89314 27.4597 7.85282 27.3589 7.78225C27.2278 7.69153 26.9959 7.6008 26.875 7.56048C27.0968 6.95564 27.2278 6.38104 27.2782 5.79637ZM30.2016 5.25201C30.3125 5.21169 30.3326 5.23185 30.3629 5.33266C30.5242 5.82661 30.7359 6.52217 30.8367 7.07661C30.8568 7.17741 30.8367 7.20765 30.7258 7.2379L30.2419 7.39919C30.1008 7.44959 30.0907 7.41935 30.0806 7.32862C29.9899 6.76411 29.8084 5.9879 29.6673 5.56451C29.627 5.46371 29.6371 5.44354 29.748 5.40322L30.2117 5.24193L30.2016 5.25201ZM31.8044 2.41935C31.6129 2.77218 31.381 3.11492 31.0887 3.44758C30.9879 3.55847 30.9375 3.60887 30.8871 3.60887C30.8367 3.60887 30.7863 3.55847 30.6955 3.44758C30.5343 3.24597 30.3629 3.10484 30.2016 3.01411C30.9173 2.2379 31.2802 1.54234 31.5222 0.78629C31.5927 0.544355 31.6633 0.292338 31.6935 0C32.0464 0.0604838 32.3992 0.15121 32.5907 0.191533C32.7117 0.231855 32.7822 0.272177 32.7822 0.342742C32.7822 0.413306 32.7822 0.443548 32.6915 0.524194C32.6209 0.584677 32.5302 0.735886 32.4294 0.997983C32.3689 1.17943 32.2984 1.37097 32.2177 1.5625H33.9617C34.627 1.5625 34.8387 1.54234 34.8891 1.54234C34.9798 1.54234 35 1.5625 35 1.65323C34.9798 1.91532 34.9798 2.15726 34.9798 2.41935C34.9798 4.53629 34.9093 5.81653 34.7076 7.03628C34.5564 7.97378 34.1734 8.41733 33.3064 8.43749C33.1149 8.43749 32.8528 8.43749 32.6109 8.43749C32.4294 8.42405 32.3152 8.31989 32.2681 8.12499C32.2076 7.87298 32.1068 7.6008 32.006 7.42943C32.5 7.48991 32.8125 7.52016 33.1754 7.51007C33.5181 7.51007 33.6693 7.20765 33.7601 6.7137C33.9314 5.71572 33.9919 4.34475 33.9919 2.42943H31.7943L31.8044 2.41935ZM31.8044 3.65927C31.9052 3.59879 31.9355 3.61895 31.9859 3.68951C32.3891 4.20363 32.7621 4.8387 33.0342 5.45362C33.0847 5.54435 33.0645 5.57459 32.9536 5.625L32.3689 5.97782C32.2681 6.0383 32.2278 6.02822 32.1976 5.92742C31.9254 5.27217 31.6028 4.69758 31.2298 4.15322C31.1693 4.0625 31.1693 4.03226 31.2802 3.97177L31.7943 3.67943L31.8044 3.65927Z" fill="#FD6C26"/>
</svg>
