<svg width="36" height="9" viewBox="0 0 36 9" fill="none" xmlns="http://www.w3.org/2000/svg">
<path d="M1.252 5.36718C0.431016 5.36718 0.143668 5.38771 0.0923566 5.38771C0.0102585 5.38771 0 5.38771 0 5.28508V4.77197C0 4.68987 -3.76182e-06 4.67961 0.0923566 4.67961C0.143668 4.67961 0.431016 4.70014 1.252 4.70014H3.68415V4.32043H2.28848C1.36488 4.32043 1.05701 4.34096 0.995441 4.34096C0.913343 4.34096 0.903068 4.34096 0.903068 4.23833V3.83811C0.903068 3.74574 0.90308 3.73548 0.995441 3.73548C1.05701 3.73548 1.37514 3.75601 2.28848 3.75601H3.68415V3.3763H2.38084C1.47776 3.3763 1.16989 3.39683 1.11858 3.39683C1.01596 3.39683 1.0057 3.39683 1.0057 3.29421V2.85293C1.0057 2.76057 1.0057 2.75031 1.11858 2.75031C1.16989 2.75031 1.48802 2.77083 2.38084 2.77083H3.68415V2.3706H1.4675C0.574679 2.3706 0.256553 2.39113 0.205242 2.39113C0.112882 2.39113 0.102613 2.39113 0.102613 2.2885V1.79592C0.102613 1.70355 0.102619 1.69329 0.205242 1.69329C0.266816 1.69329 0.584941 1.71382 1.4675 1.71382H3.68415V1.32385H2.43215C1.50855 1.32385 1.19041 1.34438 1.12884 1.34438C1.03648 1.34438 1.02623 1.34438 1.02623 1.24175V0.759427C1.02623 0.656804 1.02622 0.646543 1.12884 0.646543C1.19041 0.646543 1.50855 0.667066 2.43215 0.667066H3.68415C3.68415 0.359198 3.65336 0.195003 3.62258 0.0205446C3.97149 0.0205446 4.27935 0.0513308 4.60775 0.0821176C4.67958 0.0821176 4.74116 0.133429 4.74116 0.184741C4.74116 0.236052 4.72063 0.277101 4.68985 0.348937C4.66932 0.400248 4.63853 0.482347 4.63853 0.656806H5.72633C6.72177 0.656806 7.21437 0.636281 7.27594 0.636281C7.3683 0.636281 7.37855 0.636279 7.37855 0.749164C7.37855 0.800476 7.35804 1.04677 7.35804 1.55988V1.65224C7.85063 1.65224 8.14823 1.63172 8.19954 1.63172C8.30216 1.63172 8.31242 1.63172 8.31242 1.7446V2.31929C8.31242 2.41165 8.31242 2.42191 8.19954 2.42191C8.14823 2.42191 7.85063 2.40139 7.35804 2.40139V2.4527C7.35804 2.94529 7.37855 3.23263 7.37855 3.28394C7.37855 3.3763 7.37856 3.38657 7.27594 3.38657C7.22463 3.38657 6.72177 3.36604 5.72633 3.36604H4.63853V3.74574H6.13683C7.05017 3.74574 7.3683 3.72522 7.41961 3.72522C7.50171 3.72522 7.51197 3.72522 7.51197 3.82784V4.22807C7.51197 4.32043 7.51197 4.3307 7.41961 4.3307C7.35804 4.3307 7.03991 4.31017 6.13683 4.31017H4.63853V4.68987H7.14253C7.96351 4.68987 8.25085 4.66935 8.30217 4.66935C8.39453 4.66935 8.40478 4.66935 8.40478 4.76171V5.27482C8.40478 5.36718 8.40479 5.37744 8.30217 5.37744C8.25085 5.37744 7.96351 5.35692 7.14253 5.35692H1.252V5.36718ZM1.31357 8.62032C1.22121 8.62032 1.21094 8.62032 1.21094 8.5177C1.21094 8.46639 1.23147 8.2714 1.23147 7.20413V6.60892C1.23147 6.0958 1.21094 5.8803 1.21094 5.81872C1.21094 5.7161 1.21095 5.70584 1.31357 5.70584C1.37514 5.70584 1.70352 5.72636 2.61686 5.72636H5.78791C6.70126 5.72636 7.02964 5.70584 7.09121 5.70584C7.18357 5.70584 7.19384 5.70584 7.19384 5.81872C7.19384 5.8803 7.17331 6.0958 7.17331 6.49603V7.19387C7.17331 8.24062 7.19384 8.44586 7.19384 8.49717C7.19384 8.57927 7.19383 8.58953 7.09121 8.58953H6.34207C6.24971 8.58953 6.23944 8.58953 6.23944 8.49717V8.28166H2.16534V8.52796C2.16534 8.62032 2.16533 8.63058 2.06271 8.63058H1.31357V8.62032ZM2.16534 6.7218H6.23944V6.33184H2.16534V6.7218ZM6.23944 7.66593V7.2657H2.16534V7.66593H6.23944ZM4.63853 1.2828V1.67277H6.43443V1.2828H4.63853ZM6.43443 2.33982H4.63853V2.74004H6.43443V2.33982Z" fill="#FD6C26"/>
<path d="M11.9863 2.61672C12.3558 3.06826 12.8278 3.41717 13.3512 3.68399C13.2486 3.80714 13.1357 3.97134 13.0536 4.16632C12.992 4.32025 12.951 4.39209 12.8894 4.39209C12.8381 4.39209 12.7868 4.34078 12.6842 4.25868C12.2737 3.8995 11.9453 3.57111 11.6579 3.10931C11.6785 3.85845 11.699 4.04317 11.699 4.14579C11.699 4.24842 11.699 4.24842 11.5964 4.24842H10.9704C10.878 4.24842 10.8677 4.24842 10.8677 4.14579C10.8677 4.0637 10.8985 3.87898 10.9088 3.21193C10.5599 3.71478 10.1699 4.07396 9.67732 4.4434C9.5747 4.51523 9.51313 4.55628 9.46182 4.55628C9.40025 4.55628 9.3592 4.50497 9.29762 4.38183C9.20526 4.16632 9.07185 3.9816 8.95897 3.86871C9.63627 3.53006 10.1597 3.12983 10.5804 2.62698H10.3957C9.60548 2.62698 9.33867 2.6475 9.27709 2.6475C9.195 2.6475 9.18474 2.6475 9.18474 2.54488V2.02151C9.18474 1.92915 9.18473 1.91888 9.27709 1.91888C9.3284 1.91888 9.60548 1.93941 10.3957 1.93941H10.8575V1.23131C10.8575 0.790034 10.8575 0.54374 10.7959 0.0922C11.1346 0.0922 11.3603 0.122986 11.6785 0.153773C11.7811 0.153773 11.8324 0.205084 11.8324 0.246134C11.8324 0.328232 11.7811 0.400069 11.7708 0.471905C11.74 0.595052 11.7298 0.76951 11.7298 1.22105V1.92915H12.1197C12.9202 1.92915 13.1768 1.90862 13.2383 1.90862C13.3307 1.90862 13.341 1.90862 13.341 2.01124V2.53462C13.341 2.62698 13.3409 2.63724 13.2383 2.63724C13.1768 2.63724 12.9202 2.61672 12.1197 2.61672H11.9966H11.9863ZM10.3546 6.00326C9.55418 6.00326 9.29762 6.02379 9.23605 6.02379C9.14369 6.02379 9.13342 6.02379 9.13342 5.92116V5.32595C9.13342 5.23359 9.13343 5.22333 9.23605 5.22333C9.29762 5.22333 9.55418 5.24386 10.3546 5.24386H10.7856C10.8062 4.95651 10.8164 4.71022 10.7856 4.43314C11.1654 4.46392 11.4116 4.48445 11.6169 4.50497C11.7195 4.5255 11.7811 4.55628 11.7811 4.61786C11.7811 4.67943 11.7503 4.72048 11.7298 4.77179C11.6887 4.83336 11.6682 4.93599 11.6477 5.24386H12.0787C12.8997 5.24386 13.146 5.22333 13.2075 5.22333C13.3102 5.22333 13.3204 5.22333 13.3204 5.32595V5.92116C13.3204 6.01353 13.3204 6.02379 13.2075 6.02379C13.146 6.02379 12.8997 6.00326 12.0787 6.00326H11.8427C12.1813 6.57795 12.6431 6.92687 13.2383 7.20395C13.0228 7.37841 12.8894 7.5426 12.7971 7.68627C12.7047 7.82994 12.6534 7.89152 12.5918 7.89152C12.5405 7.89152 12.4789 7.84021 12.3763 7.76837C11.9145 7.42972 11.6066 7.06028 11.3501 6.619C11.0627 7.3271 10.5599 7.88126 9.87231 8.29175C9.77995 8.35332 9.71837 8.37384 9.67732 8.37384C9.61575 8.37384 9.55418 8.32253 9.46182 8.1686C9.32841 7.97362 9.195 7.82994 9.01028 7.67601C9.89283 7.31683 10.4265 6.76267 10.6625 6.00326H10.3546ZM9.86205 0.430855C9.95441 0.379543 9.98519 0.389806 10.0468 0.471905C10.2315 0.718199 10.4265 1.04659 10.5599 1.3442C10.6112 1.44682 10.5907 1.4776 10.4675 1.52892L10.0262 1.73416C9.91335 1.78547 9.88256 1.79574 9.85178 1.70337C9.71837 1.37498 9.54391 1.06712 9.36945 0.810559C9.30788 0.718199 9.29762 0.687412 9.42076 0.625838L9.85178 0.430855H9.86205ZM12.2531 0.748984C12.3147 0.605312 12.366 0.471903 12.3866 0.338494C12.6226 0.400068 12.8997 0.50269 13.0844 0.595051C13.1562 0.625837 13.187 0.666887 13.187 0.707936C13.187 0.748985 13.1665 0.779771 13.1049 0.841345C13.0536 0.882394 13.0126 0.95423 12.9715 1.0158C12.8997 1.18 12.7765 1.39551 12.6534 1.60075C12.5815 1.7239 12.5405 1.76495 12.4892 1.76495C12.4379 1.76495 12.3968 1.73416 12.3147 1.69311C12.1403 1.60075 11.9761 1.53918 11.8632 1.50839C12.0274 1.24157 12.1608 1.00554 12.2634 0.759247L12.2531 0.748984ZM15.0342 7.245C15.1266 7.30657 15.1369 7.34762 15.1369 7.39893C15.1369 7.45024 15.0855 7.48103 15.024 7.51181C14.9419 7.55286 14.87 7.60417 14.7777 7.67601C14.3774 8.02493 14.0696 8.23017 13.5257 8.51752C13.4128 8.56883 13.3409 8.60988 13.2794 8.60988C13.1973 8.60988 13.146 8.5483 13.0536 8.38411C12.9407 8.19939 12.7868 8.01467 12.6636 7.91204C13.3615 7.63496 13.7001 7.4605 14.0696 7.1629C14.1825 7.0808 14.2851 6.96792 14.3877 6.83451C14.6443 6.97818 14.829 7.10133 15.024 7.23474L15.0342 7.245ZM14.6545 1.2621C13.8233 1.2621 13.5359 1.28262 13.4846 1.28262C13.3923 1.28262 13.382 1.28262 13.382 1.18V0.492428C13.382 0.400067 13.382 0.389807 13.4846 0.389807C13.5359 0.389807 13.8233 0.41033 14.6545 0.41033H16.3991C17.2406 0.41033 17.5279 0.389807 17.5793 0.389807C17.6614 0.389807 17.6716 0.389805 17.6716 0.492428V1.18C17.6716 1.27236 17.6716 1.28262 17.5793 1.28262C17.5279 1.28262 17.2406 1.2621 16.3991 1.2621H15.927C15.8347 1.52892 15.7423 1.75469 15.6397 1.97019H16.081C16.8301 1.97019 17.0969 1.94967 17.1585 1.94967C17.2509 1.94967 17.2611 1.94967 17.2611 2.04203C17.2611 2.1036 17.2406 2.432 17.2406 3.14009V5.63382C17.2406 6.34192 17.2611 6.67031 17.2611 6.71136C17.2611 6.81398 17.2611 6.82424 17.1585 6.82424C17.0969 6.82424 16.8301 6.80372 16.081 6.80372H14.829C14.0696 6.80372 13.813 6.82424 13.7617 6.82424C13.6591 6.82424 13.6488 6.82424 13.6488 6.71136C13.6488 6.66005 13.6693 6.34192 13.6693 5.63382V3.17088C13.6693 2.42173 13.6488 2.1036 13.6488 2.03177C13.6488 1.94967 13.6488 1.93941 13.7617 1.93941C13.813 1.93941 14.049 1.95993 14.6956 1.95993C14.8085 1.7239 14.8803 1.50839 14.9624 1.25184H14.6443L14.6545 1.2621ZM14.5519 3.33507H16.3478V2.73986H14.5519V3.33507ZM16.3478 4.65891V4.04317H14.5519V4.65891H16.3478ZM16.3478 5.367H14.5519V6.03405H16.3478V5.367ZM16.0912 6.92687C16.0912 6.92687 16.1733 6.86529 16.2144 6.86529C16.2452 6.86529 16.2657 6.88582 16.3067 6.9166C16.7993 7.34762 17.3124 7.63496 17.8563 7.84021C17.7229 7.96336 17.5793 8.15834 17.4664 8.36358C17.3843 8.52778 17.333 8.57909 17.2611 8.57909C17.2098 8.57909 17.1483 8.5483 17.0456 8.49699C16.4607 8.17886 16.0912 7.88126 15.6808 7.47077C15.6397 7.42972 15.6294 7.40919 15.6294 7.37841C15.6294 7.34762 15.65 7.31683 15.7013 7.26552L16.081 6.92687H16.0912Z" fill="#FD6C26"/>
<path d="M19.6728 1.1905C18.862 1.1905 18.5849 1.21103 18.5234 1.21103C18.4413 1.21103 18.431 1.21103 18.431 1.1084V0.441358C18.431 0.348997 18.431 0.338735 18.5234 0.338735C18.5849 0.338735 18.8518 0.35926 19.6728 0.35926H21.5507C22.3615 0.35926 22.6385 0.338735 22.7001 0.338735C22.7925 0.338735 22.8027 0.338735 22.8027 0.441358V1.1084C22.8027 1.20076 22.8027 1.21103 22.7001 1.21103C22.6385 1.21103 22.3615 1.1905 21.5507 1.1905H21.4789V2.09358C22.1357 2.09358 22.3717 2.07306 22.4333 2.07306C22.5257 2.07306 22.5359 2.07306 22.5359 2.16542C22.5359 2.21673 22.5154 2.65801 22.5154 3.94079V5.68537C22.5154 7.83019 22.5359 8.25094 22.5359 8.31251C22.5359 8.40487 22.5359 8.41514 22.4333 8.41514H21.8586C21.756 8.41514 21.7457 8.41514 21.7457 8.31251V8.00465H19.5086V8.48697C19.5086 8.57933 19.5086 8.58959 19.4162 8.58959H18.821C18.7286 8.58959 18.7184 8.58959 18.7184 8.48697C18.7184 8.4254 18.7389 7.99438 18.7389 5.79826V4.20761C18.7389 2.67853 18.7184 2.23725 18.7184 2.18594C18.7184 2.10384 18.7184 2.09358 18.821 2.09358C18.8723 2.09358 19.1186 2.11411 19.7754 2.11411V1.21103H19.6625L19.6728 1.1905ZM20.4527 2.83246C20.4527 3.18138 20.4527 3.57135 20.4116 3.87922C20.3603 4.38207 20.2372 4.88492 20.0217 5.30567C19.9909 5.35698 19.9601 5.38777 19.9293 5.38777C19.8883 5.38777 19.8575 5.34672 19.8164 5.26462C19.7549 5.10043 19.6317 4.94649 19.5188 4.85413V5.73668H21.756V4.94649H21.4071C21.1403 4.94649 21.0274 4.9157 20.9453 4.84387C20.8324 4.75151 20.8016 4.62836 20.8016 4.31023V2.83246H20.4527ZM19.5188 4.75151C19.7241 4.44364 19.7959 4.20761 19.8575 3.63292C19.878 3.40715 19.878 3.10955 19.878 2.8222H19.5188V4.74125V4.75151ZM21.756 7.19393V6.51662H19.5188V7.19393H21.756ZM20.8119 2.09358V1.1905H20.4629V2.09358H20.8119ZM21.4071 2.83246V3.80738C21.4071 4.02289 21.4071 4.0742 21.4379 4.12551C21.4687 4.17682 21.52 4.18708 21.6123 4.18708H21.756V2.8222H21.4071V2.83246ZM23.1619 0.45162C23.1619 0.35926 23.1619 0.348997 23.2645 0.348997C23.3159 0.348997 23.5416 0.369522 24.2395 0.369522H25.4401C26.138 0.369522 26.374 0.348997 26.4253 0.348997C26.5279 0.348997 26.5382 0.348998 26.5382 0.45162C26.5382 0.513194 26.5177 0.790275 26.5177 1.45732V3.57135C26.5177 4.23839 26.5382 4.51548 26.5382 4.57705C26.5382 4.66941 26.5382 4.67967 26.4253 4.67967H25.6762C25.5838 4.67967 25.5736 4.67967 25.5736 4.57705V4.25892H24.106V6.97842C24.106 7.19393 24.106 7.32734 24.1881 7.39917C24.2805 7.49153 24.4652 7.52232 24.8962 7.52232C25.3478 7.52232 25.6249 7.48127 25.7685 7.3376C25.9122 7.1734 25.943 6.86553 25.984 6.10613C26.1585 6.21901 26.3843 6.31137 26.6203 6.37295C26.8119 6.42768 26.9042 6.55424 26.8974 6.75265C26.8461 7.60442 26.6614 7.90202 26.4356 8.10727C26.1893 8.32277 25.7378 8.44592 24.8552 8.44592C23.9726 8.44592 23.5929 8.38435 23.3877 8.19963C23.2235 8.03543 23.1517 7.86097 23.1517 7.45048V4.536C23.1517 3.85869 23.1311 3.52004 23.1311 3.46873C23.1311 3.3661 23.1311 3.35584 23.244 3.35584C23.2953 3.35584 23.5724 3.37637 24.1368 3.37637H25.5633V1.30339H24.2292C23.5314 1.30339 23.3056 1.32391 23.2543 1.32391C23.1619 1.32391 23.1517 1.32391 23.1517 1.23155V0.482408L23.1619 0.45162Z" fill="#FD6C26"/>
<path d="M28.8883 2.28848C28.0673 2.28848 27.7799 2.30901 27.7286 2.30901C27.6363 2.30901 27.626 2.30901 27.626 2.19613V1.4675C27.626 1.36488 27.626 1.35462 27.7286 1.35462C27.7799 1.35462 28.0673 1.37514 28.8883 1.37514H30.52L30.6636 0.923603C30.7765 0.513113 30.8278 0.297606 30.8278 0C31.1665 0.0307868 31.4641 0.0615742 31.7309 0.112886C31.8438 0.13341 31.9259 0.174458 31.9259 0.236032C31.9259 0.307867 31.8848 0.359179 31.8438 0.420753C31.7822 0.502851 31.7309 0.67731 31.6488 0.974916C31.6078 1.10833 31.577 1.24173 31.5257 1.36488H34.7377C35.5587 1.36488 35.8563 1.34436 35.8974 1.34436C35.9897 1.34436 36 1.34436 36 1.45724V2.18586C36 2.28849 36 2.29875 35.8974 2.29875C35.8461 2.29875 35.5587 2.27822 34.7377 2.27822H31.1562C30.8791 2.85291 30.561 3.37628 30.171 3.86887H31.6591C31.6591 3.38655 31.6385 3.08894 31.5975 2.66819C31.9567 2.66819 32.2646 2.69897 32.5827 2.72976C32.675 2.72976 32.7366 2.78107 32.7366 2.83238C32.7366 2.89396 32.7161 2.94527 32.6853 3.00684C32.634 3.12999 32.6237 3.35576 32.6237 3.85861H33.7013C34.5941 3.85861 35.0354 3.83809 35.0969 3.83809C35.1893 3.83809 35.1995 3.83809 35.1995 3.94071C35.1995 3.99202 35.179 4.32041 35.179 4.9772V6.065C35.179 6.41391 35.1995 6.691 35.1995 6.93729C35.1995 7.24516 35.1277 7.4504 34.9635 7.57355C34.7583 7.74801 34.4812 7.83011 33.732 7.83011C33.5405 7.83011 33.4208 7.73432 33.3729 7.54276C33.3216 7.30673 33.2497 7.11175 33.1471 6.9065C33.455 6.93729 33.6705 6.94755 33.9475 6.94755C34.122 6.94755 34.2144 6.87572 34.2144 6.67047V4.76169H32.6237V7.20411C32.6237 8.05588 32.6443 8.47663 32.6443 8.52794C32.6443 8.6203 32.6442 8.63056 32.5416 8.63056H31.7514C31.6591 8.63056 31.6488 8.63056 31.6488 8.52794C31.6488 8.47663 31.6693 8.05588 31.6693 7.20411V4.76169H30.1916V6.75257C30.1916 7.50171 30.2121 7.73775 30.2121 7.78906C30.2121 7.89168 30.2121 7.90194 30.0992 7.90194H29.3193C29.2269 7.90194 29.2167 7.90194 29.2167 7.78906C29.2167 7.73775 29.2372 7.50171 29.2372 6.75257V4.93615C28.8985 5.25428 28.5393 5.56215 28.1699 5.85975C28.0673 5.93159 28.0057 5.97264 27.9647 5.97264C27.9134 5.97264 27.8826 5.91106 27.821 5.76739C27.7184 5.49031 27.5747 5.25428 27.4413 5.10035C28.7241 4.31015 29.5861 3.3455 30.1403 2.28848H28.8985H28.8883Z" fill="#FD6C26"/>
</svg>
