<svg width="36" height="9" viewBox="0 0 36 9" fill="none" xmlns="http://www.w3.org/2000/svg">
<path d="M1.26531 6.47958C0.448979 6.47958 0.153061 6.49999 0.10204 6.49999C0.0102035 6.49999 0 6.49999 0 6.39795V5.66327C0 5.58163 -5.85403e-07 5.57142 0.10204 5.57142C0.153061 5.57142 0.448979 5.59183 1.26531 5.59183H1.4898V4.28571C1.4898 3.7551 1.46939 3.49999 1.46939 3.44897C1.46939 3.35713 1.46939 3.34694 1.58163 3.34694C1.63265 3.34694 1.95918 3.36735 2.85714 3.36735H4.05102V2.12245H2.14286C1.83673 2.59184 1.46939 3.04081 1.05102 3.45918C0.959183 3.56122 0.897959 3.61224 0.857143 3.61224C0.816326 3.61224 0.765306 3.56122 0.673469 3.43877C0.5 3.19387 0.32653 3.05101 0.153061 2.93876C0.928571 2.26529 1.5 1.48979 1.87755 0.683671C1.9898 0.448978 2.07143 0.22449 2.12245 0C2.45918 0.0612245 2.76531 0.13265 3.02041 0.204078C3.13265 0.244895 3.18367 0.285715 3.18367 0.367347C3.18367 0.44898 3.13265 0.47959 3.07143 0.540815C3 0.602039 2.92857 0.683674 2.83673 0.877551L2.65306 1.27551H6.5C7.40816 1.27551 7.72449 1.2551 7.77551 1.2551C7.86734 1.2551 7.87755 1.2551 7.87755 1.35714V2.05101C7.87755 2.14285 7.87755 2.15306 7.77551 2.15306C7.72449 2.15306 7.39796 2.13265 6.5 2.13265H5.06122V3.37755H6.06122C6.97959 3.37755 7.28571 3.35713 7.33673 3.35713C7.41836 3.35713 7.42857 3.35714 7.42857 3.45918V4.16327C7.42857 4.2551 7.42857 4.2653 7.33673 4.2653C7.28571 4.2653 6.96938 4.2449 6.06122 4.2449H5.06122V5.60203H7.04081C7.85714 5.60203 8.15306 5.58163 8.20408 5.58163C8.29592 5.58163 8.30612 5.58163 8.30612 5.67346V6.40816C8.30612 6.5 8.30612 6.51019 8.20408 6.51019C8.15306 6.51019 7.85714 6.48979 7.04081 6.48979H5.06122V6.94897C5.06122 7.92857 5.08163 8.41837 5.08163 8.46939C5.08163 8.56122 5.08163 8.57142 4.97959 8.57142H4.15306C4.05102 8.57142 4.04081 8.57143 4.04081 8.46939C4.04081 8.41837 4.06122 7.92857 4.06122 6.94897V6.48979H1.27551L1.26531 6.47958ZM4.05102 5.58163V4.22449H2.47959V5.58163H4.05102Z" fill="#FD6C26"/>
<path d="M11.3367 4.60182C10.4286 4.60182 10.1122 4.62223 10.0714 4.62223C9.96939 4.62223 9.95919 4.62222 9.95919 4.52018V3.8059C9.95919 3.71406 9.95919 3.70385 10.0714 3.70385C10.1225 3.70385 10.4388 3.72426 11.3367 3.72426H12.7551V2.36712H10.6429C9.79592 2.36712 9.5 2.38753 9.43878 2.38753C9.34694 2.38753 9.33674 2.38753 9.33674 2.28549V1.561C9.33674 1.46917 9.33674 1.45896 9.43878 1.45896C9.4898 1.45896 9.79592 1.47937 10.6429 1.47937H12.7551V1.14263C12.7551 0.601818 12.7551 0.407944 12.6939 0.030393C13.0306 0.030393 13.398 0.0610027 13.7245 0.091615C13.8163 0.091615 13.8673 0.142642 13.8673 0.193662C13.8673 0.285499 13.8163 0.356917 13.8061 0.43855C13.7755 0.571203 13.7551 0.74467 13.7551 1.12222V1.47937H16.051C16.898 1.47937 17.1939 1.45896 17.2551 1.45896C17.3469 1.45896 17.3571 1.45896 17.3571 1.561V2.28549C17.3571 2.37732 17.3571 2.38753 17.2551 2.38753C17.1939 2.38753 16.898 2.36712 16.051 2.36712H13.7551V3.72426H15.3265C16.2449 3.72426 16.5612 3.70385 16.602 3.70385C16.6939 3.70385 16.7041 3.70386 16.7041 3.8059V4.52018C16.7041 4.61202 16.7041 4.62223 16.602 4.62223C16.551 4.62223 16.2347 4.60182 15.3265 4.60182H14.1735C14.9592 5.58141 16.2347 6.5508 17.7347 7.14264C17.551 7.32631 17.3775 7.56101 17.2551 7.81611C17.1837 7.97937 17.1429 8.04058 17.0816 8.04058C17.0306 8.04058 16.9694 7.99977 16.8673 7.94875C15.5306 7.25487 14.4592 6.33652 13.7449 5.26509C13.7449 6.73448 13.7959 8.19366 13.7959 8.46917C13.7959 8.56101 13.7959 8.5712 13.6939 8.5712H12.8571C12.7653 8.5712 12.7551 8.57121 12.7551 8.46917C12.7551 8.20386 12.7959 6.69366 12.8061 5.26509C12.102 6.32631 11.0204 7.26508 9.83674 7.91814C9.72449 7.96916 9.67347 8.00997 9.62245 8.00997C9.56123 8.00997 9.53061 7.95896 9.45919 7.7957C9.32653 7.54059 9.18368 7.3263 9 7.15283C10.3674 6.561 11.5306 5.67324 12.3061 4.60182H11.3776H11.3367Z" fill="#FD6C26"/>
<path d="M20.2041 1.6531C20.9184 1.6531 21.1428 1.63269 21.2041 1.63269C21.2959 1.63269 21.3061 1.6327 21.3061 1.73474V2.398C21.3061 2.50004 21.3061 2.51024 21.2041 2.51024C21.153 2.51024 20.9286 2.48984 20.2041 2.48984H19.3367C18.6326 2.48984 18.3979 2.51024 18.3367 2.51024C18.2449 2.51024 18.2347 2.51024 18.2347 2.398V1.73474C18.2347 1.6429 18.2347 1.63269 18.3367 1.63269C18.3877 1.63269 18.6224 1.6531 19.3367 1.6531H20.2041ZM22.5306 3.05106C22.5306 5.63269 22.3877 7.10209 21.8367 8.27555C21.7857 8.40821 21.7347 8.46943 21.6735 8.46943C21.6224 8.46943 21.5714 8.41841 21.4898 8.32658C21.3469 8.16331 21.1939 8.03065 21.0408 7.93882C21.0408 8.12249 21.0612 8.18372 21.0612 8.21433C21.0612 8.30617 21.0612 8.31636 20.9694 8.31636H20.3367C20.2449 8.31636 20.2347 8.31637 20.2347 8.21433V7.95923H19.4082V8.41841C19.4082 8.51025 19.4081 8.52044 19.3061 8.52044H18.6837C18.5816 8.52044 18.5714 8.52045 18.5714 8.41841C18.5714 8.35719 18.5918 8.21433 18.5918 7.06127V6.46943C18.5918 5.87759 18.5714 5.6531 18.5714 5.59188C18.5714 5.50004 18.5714 5.48983 18.6837 5.48983C18.7449 5.48983 18.9388 5.51024 19.5306 5.51024H20.1122C20.7143 5.51024 20.9184 5.48983 20.9796 5.48983C21.0612 5.48983 21.0714 5.48984 21.0714 5.59188C21.0714 5.6531 21.051 5.86738 21.051 6.30616V7.69391C21.5714 6.68371 21.6428 5.1531 21.6428 2.9082V1.72454C21.6428 0.898008 21.6224 0.469434 21.6224 0.398005C21.6224 0.306168 21.6224 0.295958 21.7245 0.295958C21.7857 0.295958 22.0816 0.316371 22.9388 0.316371H25.1632C26.0204 0.316371 26.3163 0.295958 26.3775 0.295958C26.4694 0.295958 26.4796 0.295964 26.4796 0.398005C26.4796 0.449025 26.4592 0.887804 26.4592 1.72454V5.91841C26.4592 6.61229 26.4898 7.08167 26.4898 7.46942C26.4898 7.82657 26.4286 8.04086 26.2143 8.21433C26.0306 8.3776 25.8367 8.43881 25.0816 8.43881C24.8877 8.43881 24.8469 8.41841 24.8163 8.24494C24.7653 7.96943 24.6735 7.6735 24.5612 7.50003C24.8367 7.53065 25.0408 7.55106 25.3061 7.54086C25.5204 7.54086 25.5612 7.45923 25.5612 7.22454V1.16331H22.5306V3.06127V3.05106ZM20.1122 0.377593C20.7143 0.377593 20.9082 0.35718 20.9592 0.35718C21.051 0.35718 21.0612 0.357186 21.0612 0.459227V1.08168C21.0612 1.17351 21.0612 1.17351 20.9592 1.17351C20.8979 1.17351 20.7143 1.17351 20.1122 1.17351H19.5204C18.9184 1.17351 18.7245 1.17351 18.6735 1.17351C18.5816 1.17351 18.5714 1.17351 18.5714 1.08168V0.459227C18.5714 0.36739 18.5714 0.35718 18.6735 0.35718C18.7347 0.35718 18.9184 0.377593 19.5204 0.377593H20.1122ZM20.0612 2.98983C20.6326 2.98983 20.7959 2.96944 20.8571 2.96944C20.9592 2.96944 20.9694 2.96943 20.9694 3.06127V3.66331C20.9694 3.75514 20.9694 3.76535 20.8571 3.76535C20.7959 3.76535 20.6326 3.74494 20.0612 3.74494H19.5612C18.9898 3.74494 18.8265 3.76535 18.7653 3.76535C18.6735 3.76535 18.6633 3.76535 18.6633 3.66331V3.06127C18.6633 2.97964 18.6633 2.96944 18.7653 2.96944C18.8163 2.96944 18.9898 2.98983 19.5612 2.98983H20.0612ZM20.0612 4.23473C20.6326 4.23473 20.7959 4.21432 20.8571 4.21432C20.9592 4.21432 20.9694 4.21433 20.9694 4.31637V4.90821C20.9694 5.00004 20.9694 5.01025 20.8571 5.01025C20.7959 5.01025 20.6326 4.98984 20.0612 4.98984H19.5612C18.9898 4.98984 18.8265 5.01025 18.7653 5.01025C18.6735 5.01025 18.6633 5.01025 18.6633 4.90821V4.31637C18.6633 4.22453 18.6633 4.21432 18.7653 4.21432C18.8163 4.21432 18.9898 4.23473 19.5612 4.23473H20.0612ZM19.3979 6.27555V7.19392H20.2245V6.27555H19.3979ZM24.4388 2.15311C24.9081 2.15311 25.1224 2.1327 25.1735 2.1327C25.2653 2.1327 25.2755 2.1327 25.2755 2.23474V2.72453C25.2755 2.81637 25.2755 2.82656 25.1735 2.82656C25.1224 2.82656 24.9081 2.80617 24.4388 2.80617H24.3979V3.51025H24.5102C24.9898 3.51025 25.2143 3.48984 25.2755 3.48984C25.3673 3.48984 25.3775 3.48983 25.3775 3.59187V4.10207C25.3775 4.19391 25.3775 4.20412 25.2755 4.20412C25.2245 4.20412 24.9898 4.18371 24.5102 4.18371H23.4592C23.0918 4.18371 22.8673 4.20412 22.8163 4.20412C22.7143 4.20412 22.7041 4.20412 22.7041 4.10207V3.59187C22.7041 3.50003 22.7041 3.48984 22.8163 3.48984C22.8673 3.48984 23.0918 3.51025 23.4592 3.51025H23.602V2.80617H23.551C23.2041 2.80617 22.9898 2.82656 22.9286 2.82656C22.8367 2.82656 22.8367 2.82657 22.8367 2.72453V2.23474C22.8367 2.14291 22.8367 2.1327 22.9286 2.1327C22.9898 2.1327 23.2041 2.15311 23.551 2.15311H23.602V2.1327C23.602 1.77555 23.602 1.59187 23.5408 1.29595C23.7959 1.31636 24.1224 1.33678 24.3571 1.35719C24.449 1.3776 24.5102 1.4082 24.5102 1.45922C24.5102 1.53065 24.4796 1.58167 24.449 1.63269C24.4081 1.70412 24.3979 1.80617 24.3979 2.1225V2.15311H24.4388ZM25.051 6.03066C25.051 6.84699 25.0714 7.05106 25.0714 7.10208C25.0714 7.19391 25.0714 7.20412 24.9694 7.20412H24.4388C24.3469 7.20412 24.3367 7.20412 24.3367 7.10208V6.9082H23.6224V7.30617C23.6224 7.39801 23.6224 7.4082 23.5204 7.4082H22.9898C22.8877 7.4082 22.8775 7.40821 22.8775 7.30617C22.8775 7.24495 22.8979 7.05106 22.8979 6.10208V5.60208C22.8979 5.09187 22.8775 4.8878 22.8775 4.82657C22.8775 4.73473 22.8775 4.72452 22.9898 4.72452C23.051 4.72452 23.1939 4.74494 23.6837 4.74494H24.2857C24.7755 4.74494 24.9081 4.72452 24.9796 4.72452C25.0714 4.72452 25.0816 4.72453 25.0816 4.82657C25.0816 4.87759 25.0612 5.09188 25.0612 5.46943V6.03066H25.051ZM23.6122 5.40821V6.25514H24.3265V5.40821H23.6122Z" fill="#FD6C26"/>
<path d="M28.7755 1.29591C27.949 1.29591 27.6633 1.31632 27.6122 1.31632C27.5204 1.31632 27.5102 1.31632 27.5102 1.20407V0.69387C27.5102 0.602033 27.5102 0.591838 27.6122 0.591838C27.6633 0.591838 27.949 0.612235 28.7755 0.612235H29.3571C29.3571 0.367337 29.3367 0.204076 29.3061 0.0101985C29.6326 0.0101985 29.8265 0.0408138 30.1224 0.061222C30.2041 0.061222 30.2449 0.10204 30.2449 0.142856C30.2449 0.204081 30.2041 0.265309 30.1939 0.306125C30.1735 0.357146 30.1531 0.418358 30.1531 0.612235H30.7245C31.5408 0.612235 31.8265 0.591838 31.8877 0.591838C31.9796 0.591838 31.9898 0.591829 31.9898 0.69387V1.20407C31.9898 1.30611 31.9898 1.31632 31.8877 1.31632C31.8265 1.31632 31.5408 1.29591 30.7245 1.29591H30.1531V1.66325H30.5306C31.2755 1.66325 31.5408 1.64286 31.5918 1.64286C31.6837 1.64286 31.6939 1.64286 31.6939 1.7551C31.6939 1.80612 31.6735 1.91836 31.6735 2.2755V2.36734C32.2653 1.72448 32.5714 1.11224 32.7347 0.581624C32.7857 0.397951 32.8265 0.204082 32.8469 0C33.102 0.0408163 33.3673 0.0918305 33.6122 0.153055C33.6837 0.173463 33.7551 0.204076 33.7551 0.2653C33.7551 0.326525 33.7245 0.367341 33.7041 0.408157C33.6531 0.448973 33.6122 0.530609 33.5408 0.714282C33.5 0.816323 33.4592 0.938768 33.3979 1.06122H34.5102C35.3469 1.06122 35.6428 1.0408 35.6939 1.0408C35.7857 1.0408 35.7857 1.04081 35.7857 1.15305V1.73469C35.7857 1.80272 35.7551 1.83674 35.6939 1.83674C35.6939 1.83674 35.4796 1.83674 35.102 1.83674C34.9388 2.43878 34.6837 2.97959 34.3163 3.42857C34.7959 3.7449 35.3571 3.97959 36 4.13265C35.8775 4.27551 35.7653 4.49999 35.6735 4.72448C35.602 4.89795 35.5714 4.96938 35.4898 4.96938C35.4388 4.96938 35.3775 4.94898 35.2755 4.90816C34.6837 4.71428 34.1633 4.41837 33.7143 4.05102C33.3367 4.36735 32.8775 4.64285 32.3163 4.87755C32.2143 4.92857 32.1531 4.95918 32.1122 4.95918C32.051 4.95918 32.0102 4.89796 31.9184 4.73469C31.8061 4.55102 31.6837 4.39796 31.5306 4.2551C32.1633 4.07143 32.6939 3.78571 33.1122 3.43877C32.898 3.17346 32.7041 2.88774 32.5306 2.57142C32.449 2.68366 32.3571 2.78571 32.2653 2.87754C32.1837 2.96938 32.1224 3.03061 32.0918 3.03061C32.0408 3.03061 31.9898 2.96938 31.9082 2.84693C31.8367 2.75509 31.7551 2.67347 31.6735 2.58163V2.70407C31.6735 3.05101 31.6939 3.17347 31.6939 3.22449C31.6939 3.32653 31.6939 3.33672 31.5918 3.33672C31.5408 3.33672 31.2755 3.31633 30.5306 3.31633H30.5C30.8469 3.62245 31.2245 3.83672 31.6735 4.04081C31.5612 4.16325 31.449 4.28571 31.3775 4.41837C31.2959 4.56122 31.2551 4.61223 31.2041 4.61223C31.1531 4.61223 31.0918 4.57142 31 4.5204C30.6633 4.30611 30.3469 3.98979 30.1428 3.71428C30.1428 4.27551 30.1735 4.62244 30.1735 4.74489C30.1735 4.83673 30.1735 4.84694 30.0714 4.84694H29.4388C29.3469 4.84694 29.3367 4.84693 29.3367 4.74489C29.3367 4.61224 29.3367 4.27551 29.3673 3.71428C28.9898 4.19388 28.5612 4.5408 28 4.83672C27.898 4.88774 27.8367 4.91836 27.7857 4.91836C27.7143 4.91836 27.6735 4.85714 27.5918 4.68367C27.5102 4.53061 27.398 4.36734 27.2857 4.2653C27.9286 4.0204 28.4184 3.77551 28.8877 3.31633C28.2143 3.31633 27.9694 3.33672 27.9184 3.33672C27.8265 3.33672 27.8163 3.33674 27.8163 3.22449C27.8163 3.16327 27.8367 3.05101 27.8367 2.70407V2.2755C27.8367 1.91836 27.8163 1.80612 27.8163 1.7551C27.8163 1.65306 27.8163 1.64286 27.9184 1.64286C27.9694 1.64286 28.2347 1.66325 28.9796 1.66325H29.3571V1.29591H28.7755ZM29.3775 5.84693C28.4796 5.84693 28.1837 5.86734 28.1326 5.86734C28.0408 5.86734 28.0306 5.86734 28.0306 5.7653V5.19387C28.0306 5.09183 28.0306 5.08163 28.1326 5.08163C28.1837 5.08163 28.4898 5.10204 29.3775 5.10204H33.9184C34.8163 5.10204 35.1122 5.08163 35.1735 5.08163C35.2653 5.08163 35.2755 5.08163 35.2755 5.19387V5.7653C35.2755 5.85713 35.2755 5.86734 35.1735 5.86734C35.1122 5.86734 34.8163 5.84693 33.9184 5.84693H32.1326V6.31633H33.3367C34.2755 6.31633 34.6122 6.29591 34.6735 6.29591C34.7653 6.29591 34.7755 6.29591 34.7755 6.40816V6.94897C34.7755 7.04081 34.7755 7.05102 34.6735 7.05102C34.6122 7.05102 34.2857 7.03061 33.3367 7.03061H32.1326V7.49999H34.5612C35.3877 7.49999 35.6633 7.47959 35.7245 7.47959C35.8061 7.47959 35.8163 7.47958 35.8163 7.58162V8.18366C35.8163 8.2755 35.8163 8.28571 35.7245 8.28571C35.6633 8.28571 35.3877 8.26529 34.5612 8.26529H28.7245C27.9082 8.26529 27.6224 8.28571 27.5714 8.28571C27.4898 8.28571 27.4796 8.2857 27.4796 8.18366V7.58162C27.4796 7.48979 27.4796 7.47959 27.5714 7.47959C27.6224 7.47959 27.9082 7.49999 28.7245 7.49999H29.051V6.87754C29.051 6.63264 29.051 6.43878 29.0102 6.17347C29.3367 6.17347 29.6735 6.20407 29.9694 6.22448C30.051 6.22448 30.0918 6.26531 30.0918 6.31633C30.0918 6.36735 30.0612 6.39795 30.0408 6.44897C30.0102 6.5204 30 6.61224 30 6.85714V7.48979H31.1735V5.83673H29.3673L29.3775 5.84693ZM29.3469 2.77551V2.21428H28.5918V2.77551H29.3469ZM30.9184 2.21428H30.1633V2.77551H30.9184V2.21428ZM33.0306 1.82652L33 1.87755C33.1633 2.2551 33.398 2.58162 33.6837 2.87754C33.949 2.56122 34.1224 2.19387 34.2347 1.82652H33.0306Z" fill="#FD6C26"/>
</svg>
