<svg width="101" height="54" viewBox="0 0 101 54" fill="none" xmlns="http://www.w3.org/2000/svg">
<path d="M86.1453 22.8765C85.544 22.8765 84.1211 22.8565 83.2093 22.8164V20.151C84.2815 20.2512 85.1332 20.3113 85.9649 20.3113C86.6763 20.3113 87.1072 20.2612 87.1072 19.5798V18.7481L78.8204 18.8283V16.7541L87.1072 16.8042V15.6318L77.3975 15.722V13.4273L87.1072 13.5175V12.3551L78.8604 12.4153V10.3711L87.1072 10.4412V9.32898L78.9606 9.37908V4.75968L87.1172 4.8198V3.66747L77.5277 3.76766V1.22249H87.1172C87.1172 1.22249 87.0671 0.310632 87.007 0H90.4139C90.3538 0.300612 90.3037 1.22249 90.3037 1.22249H100.023V3.76766L90.3037 3.66747V4.8198L98.6006 4.7697V9.3891L90.3037 9.33901V10.4613L98.5705 10.4112L98.5204 13.3472L100.264 13.3271V15.8322L98.5204 15.8723L98.6106 18.7481H90.2937V19.9005C90.2937 22.4857 89.7526 22.8765 86.1152 22.8765M90.3137 16.8142H95.3239V15.6418H90.3137V16.8142ZM90.3137 13.5275H95.3239V12.3551H90.3137V13.5275ZM90.3137 7.66559H94.7728V6.50324H90.3137V7.66559ZM82.7784 7.66559H87.1172V6.50324H82.7784V7.66559Z" fill="#FC6D26"/>
<path d="M74.5417 22.8764C72.3372 21.6239 70.3732 19.9905 68.7499 18.0466C67.2669 16.283 66.1446 14.2589 65.4432 12.0644L65.2327 11.4732L65.0323 12.0744C63.9702 15.2409 62.918 17.0546 61.0141 18.9885C59.5211 20.5316 57.8076 21.8343 55.9338 22.8664L53.6592 19.6499C57.1663 17.8963 59.2205 16.0926 60.7336 13.4773C62.3168 10.7517 63.1184 7.07427 63.1184 2.56509C63.1184 2.00395 63.0984 1.44282 63.0282 0.881677H67.0364C66.9562 1.46286 66.9262 2.05406 66.9362 2.63524C66.9061 5.08022 67.2468 7.52519 67.9683 9.86996C68.9202 12.5254 70.5435 14.8902 72.6879 16.7339C73.9304 17.8261 75.3233 18.738 76.8263 19.4194L74.5517 22.8864L74.5417 22.8764Z" fill="#FC6D26"/>
<path d="M45.9034 21.033C43.769 21.033 42.1357 20.4718 41.0335 19.3495C39.9312 18.2272 39.3801 16.5639 39.3801 14.3894C39.3801 12.215 39.9713 10.4113 41.1237 9.17884C42.3962 7.89623 44.1598 7.22486 45.9635 7.31505C47.6469 7.21484 49.2903 7.82609 50.5027 9.00849C51.5749 10.1308 52.126 11.7441 52.126 13.7982V14.9205H43.1578L43.1878 15.3013C43.1878 16.123 43.4384 16.9246 43.9193 17.596C44.4204 18.127 45.1318 18.4176 45.8633 18.3675C47.3563 18.3675 47.9876 17.6461 48.2682 16.9446H51.9457C51.7152 18.117 51.0739 19.1692 50.122 19.8906C48.8794 20.7123 47.3964 21.1031 45.9134 21.0229M45.9635 9.93037C44.3402 9.93037 43.3682 10.8422 43.1778 12.5657L43.1378 12.716H48.5387V12.5858C48.5387 11.8643 48.3083 11.1529 47.8473 10.5917C47.3463 10.1208 46.675 9.88027 45.9835 9.93037" fill="#FC6D26"/>
<path d="M33.0272 20.8225V12.8262C33.0272 11.4935 31.945 10.4113 30.6123 10.4113C29.2796 10.4113 28.1974 11.4935 28.1974 12.8262V20.8225H24.3996V7.31498H28.2074V8.91823L28.4579 8.64769C30.2415 6.67368 33.2877 6.52337 35.2517 8.307C36.1536 9.12867 36.7147 10.261 36.8249 11.4835L36.845 11.9143V20.8425H33.0272V20.8225Z" fill="#FC6D26"/>
<path d="M10.4813 22.8863C4.68954 22.8863 0 18.1868 0 12.405V10.4911C0 4.69933 4.69956 0.00978553 10.4813 0.00978553H10.8621C16.6539 0.00978553 21.3434 4.70935 21.3434 10.4911V12.395C21.3434 18.1868 16.6439 22.8763 10.8621 22.8863H10.4813ZM10.4813 4.42878C7.13451 4.42878 4.41899 7.14431 4.41899 10.4911V12.395C4.41899 15.7418 7.13451 18.4573 10.4813 18.4674H10.8621C14.2089 18.4573 16.9144 15.7418 16.9144 12.395V10.5011C16.9144 7.15432 14.1989 4.4388 10.8521 4.42878H10.4913H10.4813Z" fill="#FC6D26"/>
<path d="M68.0585 31.1234H32.2155C29.6366 31.1234 27.546 33.214 27.546 35.7929V49.3304C27.546 51.9093 29.6366 53.9999 32.2155 53.9999H68.0585C70.6373 53.9999 72.728 51.9093 72.728 49.3304V35.7929C72.728 33.214 70.6373 31.1234 68.0585 31.1234Z" fill="#FC6D26"/>
<path d="M40.8531 42.7169H44.9414C45.5927 42.7169 46.3643 42.6768 46.8253 42.6468C46.7651 43.0075 46.7351 43.3682 46.7351 43.739C46.7351 45.6028 46.5247 47.4566 46.1238 49.2703C45.7932 50.4727 44.9715 50.9036 43.0376 50.9036C42.6868 50.9036 42.4664 50.8835 41.2239 50.8334C41.1738 50.112 41.0134 49.4105 40.7429 48.7392C41.4644 48.8494 42.1858 48.9095 42.9073 48.9195C43.8893 48.9195 44.0396 48.8294 44.22 48.1079C44.4805 46.9455 44.6107 45.7531 44.6107 44.5507H40.5525C40.1818 46.204 39.2799 47.687 37.9973 48.7893C36.7548 49.8214 35.3219 50.5929 33.7787 51.0839C33.4881 50.3725 33.0673 49.7312 32.5362 49.1801C34.0092 48.8494 35.392 48.1881 36.5744 47.2361C37.4462 46.5447 38.0775 45.6128 38.3881 44.5507H35.883C35.1515 44.5507 34.42 44.5807 33.6986 44.6609V42.6267C34.42 42.6969 35.1415 42.7269 35.863 42.7169H38.7488C38.7989 42.1858 38.829 41.6548 38.819 41.1237C38.819 40.9032 38.7989 40.6928 38.7588 40.4724H41.0134C40.9433 40.8331 40.9132 41.1938 40.9032 41.5646C40.8832 42.0656 40.8631 42.2961 40.8331 42.7169H40.8531ZM34.2998 38.1075H35.5623C35.1415 36.9953 34.5302 35.9532 33.7687 35.0313L35.6425 34.3299C36.4041 35.2618 37.0253 36.2939 37.4963 37.4061L35.7728 38.1075H43.0275C43.8592 36.8951 44.5406 35.5824 45.0416 34.1996L47.0758 34.9411C46.9622 35.1281 46.6783 35.6225 46.224 36.4241C45.8733 37.0153 45.5026 37.6266 45.1819 38.1075H46.4345C47.0658 38.1075 47.697 38.0875 48.3183 38.0374C48.2582 38.5384 48.2381 39.0495 48.2482 39.5505V40.9032C48.2482 41.3642 48.2682 41.8351 48.3383 42.286H46.2641V39.9012H34.4801V42.286H32.4059C32.4761 41.8251 32.5061 41.3642 32.4961 40.9032V39.5705C32.4961 39.0595 32.4761 38.5484 32.426 38.0374C33.0472 38.0975 33.6685 38.1176 34.2998 38.1075ZM41.9052 37.1055L40.0014 37.827C39.6106 36.7047 39.0595 35.6325 38.3681 34.6605L40.2419 34.0894C40.8832 35.0413 41.4443 36.0534 41.9052 37.1055Z" fill="white"/>
<path d="M60.4129 45.8632H58.99C58.499 45.8531 58.008 45.8732 57.5271 45.9333V44.1597C57.3467 44.6206 57.2665 44.7509 57.026 45.2519C56.6453 44.8311 56.1843 44.4904 55.6733 44.2298C56.1242 43.4983 56.4849 42.7067 56.7254 41.8751H55.5631L55.6031 49.3703C55.6532 49.8212 55.5129 50.2721 55.2123 50.6128C54.6913 50.9234 54.0901 51.0537 53.4888 50.9836C53.078 50.9836 52.5068 50.9635 51.9557 50.9235C51.9357 50.3022 51.8054 49.6909 51.5649 49.1098C52.106 49.21 52.6571 49.2701 53.2183 49.2901C53.7193 49.2901 53.8295 49.22 53.8095 48.8492L53.7894 44.4302C53.1782 45.9233 52.2563 47.256 51.0639 48.3582C50.8535 47.6468 50.5428 46.9654 50.142 46.3441C51.5749 45.1717 52.6572 43.6286 53.2684 41.8851H51.9858C51.4647 41.865 50.9437 41.9051 50.4326 41.9752V40.0113C50.9837 40.0914 51.5449 40.1215 52.096 40.1014H53.9498C53.1882 39.3399 52.3665 38.6385 51.4848 38.0072L52.6371 36.8949C53.6792 37.6765 53.7694 37.7266 54.2303 38.1374C54.8115 37.6765 55.3226 37.1254 55.7334 36.5041H52.5169C51.9858 36.5041 51.4547 36.5242 50.9236 36.5743V34.6704C51.5048 34.7305 52.086 34.7505 52.6672 34.7405H55.8336C56.3547 34.7505 56.8857 34.7405 57.4068 34.6804L58.4088 35.7526C58.3387 35.8428 58.1884 36.0332 57.998 36.2937C57.2365 37.3558 56.3747 38.3278 55.4027 39.1996C55.5731 39.38 55.6432 39.4401 55.8136 39.6405L55.4027 40.0814H56.515C56.9659 40.0814 57.4168 40.0714 57.8677 40.0213L58.6594 41.0033C58.5692 41.1836 58.489 41.384 58.4389 41.5744C59.5011 41.3339 60.5231 40.9431 61.4751 40.4221C60.8839 39.8609 60.3728 39.2196 59.962 38.5182C59.5211 39.0894 59.0502 39.6405 58.5391 40.1515C58.1383 39.6605 57.6673 39.2297 57.1362 38.889C58.3287 37.937 59.2806 36.7145 59.8919 35.3117C60.1123 34.8708 60.2726 34.3998 60.3528 33.9088L62.2767 34.2796C62.1665 34.49 62.0763 34.7105 61.9961 34.9309C61.906 35.1714 61.8258 35.3418 61.6855 35.6524H65.5133C66.1646 35.6524 66.826 35.6323 67.4773 35.5622V37.446C67.0364 37.3859 66.5855 37.3659 66.1446 37.3759C65.7438 38.4681 65.1225 39.4501 64.3108 40.2818C65.4331 40.8029 66.6356 41.1536 67.8681 41.3239C67.4873 41.9151 67.1967 42.5665 67.0163 43.2478C65.5434 42.9071 64.1405 42.326 62.8479 41.5243C62.3068 41.8951 61.7256 42.2057 61.1244 42.4663L63.0082 42.4863C62.9982 42.5664 62.9882 42.6466 62.9882 42.7268C62.9681 42.817 62.9481 42.9272 62.928 43.0574C62.928 43.1476 62.908 43.1877 62.888 43.3581C62.8679 43.6186 62.8278 43.7489 62.7978 44.0795H65.4231C65.9141 44.0996 66.4051 44.0795 66.8861 44.0094C66.846 44.2799 66.8159 44.5505 66.8159 44.821C66.7658 46.3842 66.5454 47.9474 66.1646 49.4705C65.7939 50.6028 65.3129 50.8934 63.8699 50.8934C63.2186 50.8934 62.5573 50.8433 61.906 50.7631C61.8659 50.1018 61.7256 49.4505 61.4751 48.8392C62.1765 48.9895 62.888 49.0797 63.5994 49.0997C64.1906 49.0997 64.381 48.8793 64.5814 47.9374C64.7117 47.246 64.8019 46.5445 64.8219 45.8431H62.397C61.6053 48.3783 60.1424 49.9014 57.2164 51.174C56.9058 50.5727 56.525 50.0216 56.0641 49.5206C58.4289 48.6288 59.6514 47.5967 60.3929 45.8331L60.4129 45.8632ZM59.1003 44.1096H60.8739C60.934 43.6487 60.964 43.1877 60.964 42.7168C60.964 42.6667 60.964 42.6165 60.944 42.5664C60.2426 42.8671 59.8518 42.9973 58.8297 43.328C58.6593 42.9372 58.4589 42.5665 58.2185 42.2157C57.978 42.9973 57.8277 43.3781 57.5671 44.0495C58.0682 44.0996 58.5792 44.1196 59.0802 44.1096H59.1003ZM64.1505 37.406H61.2446C61.6354 38.1675 62.1765 38.8489 62.8379 39.4C63.4291 38.8489 63.88 38.1575 64.1505 37.406Z" fill="white"/>
</svg>
