<svg width="107" height="58" viewBox="0 0 107 58" fill="none" xmlns="http://www.w3.org/2000/svg">
<path d="M91.942 24.4114C91.3004 24.4114 89.7865 24.3913 88.8041 24.3412V21.504C89.947 21.6043 90.8592 21.6744 91.7415 21.6744C92.5034 21.6744 92.9646 21.6243 92.9646 20.8925V20.0002L84.1122 20.0804V17.8648L92.9646 17.925V16.6819L82.5984 16.7821V14.3359L92.9646 14.4362V13.193L84.1724 13.2532V11.0777L92.9646 11.1479V9.9649L84.2626 10.0251V5.08259L92.9646 5.14274V3.91965L82.7287 4.02993V1.31308H92.9646C92.9646 1.31308 92.9144 0.3306 92.8443 0.00979033H96.4734C96.4133 0.340625 96.3531 1.31308 96.3531 1.31308H106.729V4.02993L96.3631 3.91965V5.14274L105.215 5.08259V10.015L96.3631 9.95488V11.1479L105.185 11.0978L105.135 14.2256L107 14.2056V16.8824L105.145 16.9225L105.236 19.9902H96.3631V21.2233C96.3631 23.9803 95.7817 24.4013 91.9019 24.4013M96.3832 17.935H101.727V16.6819H96.3832V17.935ZM96.3832 14.4262H101.727V13.173H96.3832V14.4262ZM96.3832 8.17038H101.135V6.91722H96.3832V8.17038ZM88.3329 8.17038H92.9545V6.91722H88.3329V8.17038Z" fill="#FC6D26"/>
<path d="M79.5507 24.4118C77.1948 23.0684 75.1095 21.324 73.3651 19.2588C71.7811 17.3841 70.5781 15.2086 69.8362 12.8727L69.6156 12.2411L69.4051 12.8827C68.2723 16.2612 67.1494 18.1961 65.1143 20.2613C63.5203 21.9055 61.6957 23.299 59.6906 24.4017L57.2645 20.9731C61.0039 19.1084 63.2095 17.1735 64.8135 14.3865C66.5078 11.4792 67.36 7.55926 67.36 2.74712C67.36 2.1456 67.3399 1.54409 67.2597 0.952599H71.5405C71.4603 1.57417 71.4202 2.20576 71.4302 2.82732C71.4001 5.44392 71.7711 8.04047 72.533 10.5468C73.5456 13.384 75.29 15.9103 77.5757 17.8753C78.8991 19.0483 80.3828 20.0107 81.9868 20.7425L79.5607 24.4318L79.5507 24.4118Z" fill="#FC6D26"/>
<path d="M48.9936 22.4364C46.7178 22.4364 44.9734 21.8349 43.8005 20.6418C42.6275 19.4488 42.026 17.6644 42.026 15.3485C42.026 13.0327 42.6576 11.0978 43.8807 9.78447C45.1038 8.47115 46.8582 7.79946 49.0437 7.79946C51.1089 7.79946 52.743 8.40098 53.8859 9.60402C55.0288 10.8071 55.6203 12.5214 55.6203 14.7069V15.8999H46.0461L46.0762 16.3009C46.0762 17.1831 46.3469 18.0353 46.8582 18.7471C47.3896 19.3185 48.1515 19.6193 48.9334 19.5692C50.5174 19.5692 51.2092 18.7972 51.4999 18.0553H55.4298C55.1892 19.3085 54.4975 20.4213 53.4849 21.2033C52.1516 22.0755 50.5776 22.4965 48.9936 22.4163M49.0537 10.5765C47.3193 10.5765 46.2868 11.5489 46.0762 13.3936L46.0261 13.554H51.7906L51.7706 13.4136C51.7907 12.6417 51.54 11.8798 51.0488 11.2883C50.5174 10.787 49.7956 10.5263 49.0638 10.5765" fill="#FC6D26"/>
<path d="M35.249 22.2158V13.6743C35.249 12.2507 34.0961 11.0978 32.6725 11.0978C31.2489 11.0978 30.096 12.2507 30.096 13.6743V22.2158H26.0458V7.79949H30.106V9.50378L30.3767 9.21304C32.2815 7.10773 35.5297 6.94733 37.635 8.84211C38.6074 9.71431 39.199 10.9274 39.3092 12.2307L39.3293 12.6918V22.2259H35.249V22.2158Z" fill="#FC6D26"/>
<path d="M11.1882 24.4116C5.01265 24.4116 0 19.3989 0 13.2233V11.1882C0 5.01264 5.01265 0 11.1882 0H11.5892C17.7648 0 22.7775 5.01264 22.7775 11.1882V13.2233C22.7775 19.3989 17.7648 24.4116 11.5892 24.4216H11.1882V24.4116ZM11.1882 4.71188C7.6092 4.71188 4.72193 7.60919 4.7119 11.1882V13.2233C4.7119 16.8024 7.6092 19.6897 11.1882 19.6997H11.5892C15.1683 19.6897 18.0556 16.7823 18.0556 13.2133V11.1882C18.0556 7.60919 15.1583 4.72191 11.5792 4.71188H11.1882Z" fill="#FC6D26"/>
<path d="M72.944 33.2039H34.066C31.4858 33.2039 29.3942 35.2955 29.3942 37.8757V52.9537C29.3942 55.5339 31.4858 57.6255 34.066 57.6255H72.944C75.5242 57.6255 77.6158 55.5339 77.6158 52.9537V37.8757C77.6158 35.2955 75.5242 33.2039 72.944 33.2039Z" fill="#FC6D26"/>
<path d="M34.7176 46.6979L34.5171 44.7229C34.9281 44.763 35.3693 44.7831 35.7402 44.7831C35.8505 44.7831 35.9507 44.7831 36.061 44.7631C36.452 44.2718 36.5924 44.0512 37.0335 43.4597C36.9666 43.3662 36.8731 43.2425 36.7528 43.0888C36.071 42.1164 35.2991 41.2241 34.4369 40.402L35.5397 38.778C35.7536 39.0052 35.9641 39.2357 36.1713 39.4697C36.462 38.9784 36.7327 38.4671 36.9633 37.9458C37.234 37.3744 37.4545 36.7929 37.635 36.1914L39.5298 36.8832C39.3994 37.0736 39.2892 37.2842 39.1889 37.4947C38.6375 38.6576 38.026 39.7905 37.3342 40.8732C37.7252 41.3645 37.8255 41.4848 38.0861 41.8657C38.8781 40.7329 39.5398 39.5198 40.0611 38.2466L41.8757 39.179C41.7353 39.3795 41.595 39.59 41.3243 40.0712C40.3719 41.6652 39.3293 43.2091 38.2064 44.6929C39.3493 44.6327 39.6902 44.6127 40.3619 44.5525C40.1413 44.0011 40.021 43.7404 39.6501 42.9484L41.0937 42.377C41.7454 43.6402 42.3068 44.9435 42.7679 46.2869L41.1138 46.9786C40.9935 46.5876 40.9935 46.5676 40.8932 46.1666C40.432 46.2201 39.9642 46.2668 39.4897 46.3069V52.5727C39.4696 53.2645 39.5097 53.9663 39.61 54.648H37.4645C37.5548 53.9562 37.5949 53.2545 37.5849 52.5527V46.4673C37.1103 46.4941 36.4587 46.5342 35.6299 46.5876C35.3292 46.6077 35.0184 46.6478 34.7176 46.7079V46.6979ZM43.6301 44.1515V42.7078C43.2492 43.0487 42.8381 43.3595 42.407 43.6402C42.1765 42.9685 41.7854 42.357 41.2842 41.8657C42.2165 41.3143 43.0486 40.6326 43.7705 39.8306C44.6828 38.8581 45.4247 37.7353 45.946 36.5122H48.1014C48.753 37.8757 49.6754 39.0887 50.8283 40.0712C51.5702 40.7329 52.3722 41.3043 53.2343 41.7855C52.7832 42.3871 52.4423 43.0587 52.2218 43.7806C51.7406 43.4698 51.2794 43.1389 50.8383 42.768V44.1515C50.2468 44.0913 49.6553 44.0613 49.0638 44.0713H45.4046C44.8131 44.0713 44.2116 44.0913 43.6301 44.1515ZM45.2542 42.2166H49.2443C49.6954 42.2166 49.916 42.2166 50.1566 42.1965C48.9435 41.174 47.9009 39.9609 47.0788 38.5975C46.3269 39.9409 45.3645 41.1439 44.2316 42.1965C44.5825 42.2166 44.783 42.2166 45.2542 42.2166ZM35.2389 47.4298L36.9934 47.7305C36.9332 49.7256 36.6726 51.7005 36.2014 53.6354L34.4269 52.9437C34.9281 51.1491 35.1988 49.2945 35.2389 47.4298ZM39.9408 47.7506L41.4847 47.3596C41.8456 48.9336 42.1263 50.5176 42.3168 52.1216L40.6927 52.4925C40.5724 50.8985 40.3117 49.3045 39.9408 47.7506ZM44.9735 53.4049V54.5076H42.8381C42.8983 53.8359 42.9384 53.2043 42.9384 52.4725V47.6303C42.9584 47.0288 42.9283 46.4272 42.8582 45.8357C43.3494 45.8758 43.7905 45.8959 44.5524 45.8959H50.1466C50.6879 45.8959 51.2293 45.8859 51.7707 45.8357C51.7005 46.4272 51.6804 47.0187 51.6904 47.6102V52.2519C51.6904 53.0038 51.7105 53.7557 51.7907 54.5076H49.5751V53.4049H44.9735ZM44.9735 47.7305V51.5H49.5952V47.7305H44.9735Z" fill="white"/>
<path d="M66.7785 44.7628H59.1693C59.049 45.1037 59.0089 45.1939 58.8485 45.635L56.5326 45.3543C57.2244 43.7603 57.7758 42.1061 58.1868 40.4118C58.6179 39.0383 58.8886 37.6147 58.9989 36.1811L61.4651 36.4618C61.2445 37.1536 61.0641 37.8454 60.9137 38.5571H68.162C68.974 38.5772 69.7861 38.5371 70.5881 38.4368V40.7126C69.9565 40.6524 69.2848 40.6123 68.2522 40.6123H60.3824C60.2019 41.264 60.0816 41.7151 59.7909 42.7477H67.2397C67.9113 42.7678 68.5831 42.7377 69.2547 42.6475C69.1144 43.4395 69.0743 43.8304 68.8637 46.3067C68.8437 46.5272 68.8237 46.6776 68.7836 46.9784H70.1671C70.9691 46.9784 71.761 46.9383 72.553 46.8581V49.1138C71.761 49.0336 70.959 48.9935 70.1671 48.9935H68.4928C68.152 50.9885 67.781 52.2316 67.2296 53.0236C66.6181 53.9159 65.8461 54.1866 64.0115 54.1866C63.1393 54.1866 62.4676 54.1465 60.8134 54.0262C60.7032 53.2442 60.4926 52.4722 60.1618 51.7504C61.425 51.9609 62.7082 52.0812 63.9915 52.1013C64.7634 52.1013 65.1544 51.9409 65.415 51.5299C65.796 50.7178 66.0567 49.8657 66.207 48.9834H56.7632C55.871 48.9834 55.0489 49.0235 54.2569 49.1037V46.8481C55.099 46.9383 55.9412 46.9784 56.7833 46.9684H66.5178C66.6381 46.036 66.6782 45.7453 66.7584 44.7528L66.7785 44.7628Z" fill="white"/>
</svg>
