<svg width="19" height="8" viewBox="0 0 19 8" fill="none" xmlns="http://www.w3.org/2000/svg">
<path d="M6.85937 7.59568H5.26025L4.6185 4.12392C4.43965 3.12448 4.33445 2.29335 4.2082 1.32547H4.07145C3.93468 2.30387 3.82946 3.13499 3.66113 4.08183L3.05096 7.59568H1.45184L0 0.136643H1.31506L1.85162 3.54528C1.98839 4.46056 2.11463 5.36533 2.23036 6.31218H2.36711C2.50388 5.37585 2.59857 4.4711 2.7669 3.56634L3.37709 0.136643H5.03933L5.66004 3.68205C5.80732 4.52369 5.92304 5.31273 6.02825 6.31218H6.16502C6.3123 5.31273 6.39647 4.55526 6.54376 3.62946L7.12239 0.136643H8.3638L6.86989 7.59568H6.85937Z" fill="#FD6C26"/>
<path d="M9.742 5.21823C9.742 6.21767 10.1944 6.88048 11.0676 6.88048C11.6146 6.88048 12.0039 6.57538 12.1827 5.88102L13.2769 6.19666C12.9508 7.20663 12.2248 7.72211 11.0571 7.72211C9.47899 7.72211 8.55318 6.71216 8.55318 4.97628C8.55318 3.24039 9.52106 2.18835 10.9519 2.18835C12.2985 2.18835 13.3085 3.16673 13.3085 4.95521V5.20773H9.742V5.21823ZM12.1301 4.41869C12.0775 3.53497 11.6988 3.02998 10.9729 3.02998C10.247 3.02998 9.81563 3.56653 9.76303 4.41869H12.1301Z" fill="#FD6C26"/>
<path d="M15.5493 3.072C15.8859 2.52494 16.433 2.20931 17.0011 2.20931C18.1479 2.20931 19 3.12459 19 4.93412C19 6.74365 18.0532 7.73258 16.938 7.73258C16.2542 7.73258 15.7597 7.40644 15.4546 6.77521L15.2126 7.59581H14.35V0H15.5493V3.072ZM15.5493 5.91252C15.7913 6.47011 16.17 6.79624 16.6119 6.79624C17.2431 6.79624 17.7586 6.22813 17.7586 4.95515C17.7586 3.68217 17.2852 3.15615 16.6855 3.15615C16.2331 3.15615 15.8228 3.45074 15.5493 4.06093V5.91252Z" fill="#FD6C26"/>
</svg>
