<svg width="25" height="9" viewBox="0 0 25 9" fill="none" xmlns="http://www.w3.org/2000/svg">
<path d="M1.2961 5.85824C0.456228 5.85824 0.155531 5.87898 0.103687 5.87898C0.0103672 5.87898 0 5.87898 0 5.77529V5.01836C0 4.92504 -1.5837e-06 4.91468 0.103687 4.91468C0.155531 4.91468 0.456228 4.93542 1.2961 4.93542H3.70167V3.79485H2.12561C1.19241 3.79485 0.881349 3.81558 0.829505 3.81558C0.736185 3.81558 0.725818 3.81558 0.725818 3.70153V2.9446C0.725818 2.86165 0.725817 2.85128 0.829505 2.85128C0.891718 2.85128 1.20278 2.87202 2.12561 2.87202H3.70167V1.74182C2.90327 1.83514 2.10487 1.90772 1.27536 1.95956C1.0749 1.95956 0.94702 1.86625 0.891719 1.67961C0.819137 1.43076 0.715449 1.20264 0.611761 1.03674C1.82491 0.995264 2.7581 0.933054 3.78462 0.78789C4.6867 0.663464 5.33995 0.528667 5.84802 0.404241C6.17982 0.32129 6.44941 0.217603 6.68789 0.113915C6.94711 0.342029 7.18559 0.60125 7.36186 0.818995C7.42408 0.881208 7.44481 0.922682 7.44481 0.995263C7.44481 1.04711 7.39297 1.08859 7.27891 1.08859C7.15449 1.08859 7.04043 1.10932 6.83305 1.16117C6.16945 1.33744 5.47474 1.4826 4.71781 1.59666V2.86165H6.32498C7.24781 2.86165 7.55887 2.84091 7.61071 2.84091C7.70403 2.84091 7.7144 2.84092 7.7144 2.93424V3.69115C7.7144 3.79484 7.7144 3.80521 7.61071 3.80521C7.5485 3.80521 7.23744 3.78448 6.32498 3.78448H4.71781V4.92505H7.0819C7.92178 4.92505 8.22247 4.90431 8.27432 4.90431C8.36764 4.90431 8.378 4.90431 8.378 5.008V5.76492C8.378 5.85824 8.37801 5.86861 8.27432 5.86861C8.22247 5.86861 7.92178 5.84787 7.0819 5.84787H4.71781V6.15894C4.71781 6.6048 4.74892 7.04029 4.74892 7.44467C4.74892 7.84905 4.68671 8.07717 4.44822 8.27418C4.23048 8.44008 3.79499 8.51266 2.83069 8.51266C2.55073 8.51266 2.52999 8.51266 2.46778 8.22233C2.40557 7.94237 2.32262 7.66241 2.20856 7.47578C2.64405 7.52762 2.99659 7.52762 3.29728 7.52762C3.61872 7.52762 3.6913 7.41356 3.6913 7.17508V5.8375H1.28573L1.2961 5.85824Z" fill="#FD6C26"/>
<path d="M9.84002 4.93556C9.67412 4.93556 9.56007 4.97704 9.47712 5.00814C9.42527 5.03925 9.39416 5.04962 9.33195 5.04962C9.26973 5.04962 9.23863 4.99777 9.2179 4.89408C9.16605 4.64523 9.13494 4.39638 9.10384 4.08532C9.36306 4.11642 9.56006 4.12679 9.78818 4.12679C9.97481 3.87794 10.1615 3.62908 10.3274 3.3906C9.96445 2.8929 9.5497 2.4263 9.10384 2.00118C9.06236 1.95971 9.05199 1.93897 9.05199 1.91823C9.05199 1.87675 9.08309 1.85602 9.1142 1.79381L9.46675 1.32721C9.53933 1.23389 9.57043 1.22352 9.63264 1.2961L9.87113 1.54495C10.0681 1.22352 10.2651 0.850247 10.431 0.497707C10.514 0.311068 10.5555 0.186639 10.5969 0C10.8665 0.103688 11.1569 0.217747 11.385 0.342173C11.4679 0.394017 11.5094 0.435494 11.5094 0.497707C11.5094 0.55992 11.4679 0.591021 11.4265 0.622128C11.3539 0.673972 11.3124 0.725817 11.2502 0.850243C10.9806 1.34795 10.7525 1.72123 10.431 2.15672L10.8251 2.62331C11.0324 2.28114 11.2294 1.93897 11.4265 1.58643C11.5301 1.38942 11.6131 1.20278 11.696 0.985035C11.9553 1.08872 12.256 1.20278 12.4841 1.33758C12.567 1.38942 12.5981 1.41016 12.5981 1.47237C12.5981 1.53458 12.567 1.57606 12.4944 1.6279C12.4011 1.69012 12.3389 1.78344 12.2041 2.00118C11.7064 2.78921 11.1983 3.51503 10.7525 4.10605C11.0635 4.10605 11.385 4.07495 11.7168 4.05421C11.6546 3.8572 11.5716 3.67056 11.4887 3.47355C11.4472 3.3906 11.4679 3.3595 11.582 3.30766L12.0175 3.13138C12.0797 3.10027 12.1212 3.10028 12.1626 3.1936C12.4219 3.76388 12.6085 4.3238 12.764 4.90446V4.33417C12.764 4.07495 12.7433 3.94015 12.7433 3.89868C12.7433 3.80536 12.7433 3.74314 12.8573 3.74314C12.9092 3.74314 13.2203 3.76388 14.0809 3.76388H16.2791C17.15 3.76388 17.4507 3.74314 17.5233 3.74314C17.6166 3.74314 17.627 3.74314 17.627 3.84683C17.627 3.89868 17.6063 4.0231 17.6063 4.23048V4.56228C17.6063 5.25699 17.627 5.37105 17.627 5.4229C17.627 5.51622 17.627 5.52658 17.5233 5.52658H16.8286C16.7249 5.52658 16.7249 5.52658 16.7249 5.4229V4.56228H13.6454V5.4229C13.6454 5.51622 13.6454 5.52658 13.5417 5.52658H12.8573C12.7537 5.52658 12.7433 5.52658 12.7433 5.4229C12.7433 5.37105 12.7433 5.29847 12.764 5.00814C12.7433 5.03925 12.7122 5.05998 12.65 5.07035L12.1834 5.23626C12.0486 5.2881 12.0278 5.2881 12.0175 5.17404L11.9242 4.75928C11.7582 4.78002 11.6131 4.80076 11.4576 4.81113V7.41371C11.4576 8.28469 11.4783 8.60612 11.4783 8.65796C11.4783 8.75128 11.4783 8.76165 11.3746 8.76165H10.6592C10.5658 8.76165 10.5555 8.76165 10.5555 8.65796C10.5555 8.60612 10.5762 8.28469 10.5762 7.41371V4.89408L9.82965 4.94592L9.84002 4.93556ZM9.48748 6.06576C9.50822 5.85838 9.51859 5.68211 9.50822 5.46436C9.78818 5.51621 10.0474 5.55769 10.234 5.6199C10.3481 5.66137 10.3999 5.69248 10.3999 5.73396C10.3999 5.7858 10.3999 5.81691 10.3481 5.87912C10.317 5.93096 10.2962 6.06576 10.2755 6.23166C10.2133 6.7501 10.12 7.39297 9.96444 7.94252C9.9126 8.09805 9.90224 8.17063 9.84002 8.17063C9.78818 8.17063 9.72597 8.11878 9.62228 8.05657C9.49785 7.98399 9.22826 7.8492 9.10384 7.80772C9.31121 7.31002 9.446 6.72937 9.48748 6.0865V6.06576ZM12.2145 5.44363C12.3285 5.41252 12.3493 5.41252 12.3804 5.50584C12.4944 5.85838 12.65 6.48051 12.7122 6.92637C12.7122 7.01969 12.7329 7.05079 12.5981 7.09227L12.1212 7.25817C11.9864 7.31002 11.9656 7.29965 11.9553 7.19596C11.8827 6.60494 11.7894 6.0865 11.6753 5.71322C11.6442 5.6199 11.6546 5.58879 11.7686 5.55769L12.2041 5.43326L12.2145 5.44363ZM13.9253 5.73396C13.9253 5.4851 13.9461 5.23625 13.9253 4.94592C14.2157 4.9874 14.4956 5.00814 14.7445 5.04962C14.8585 5.07036 14.9104 5.10146 14.9104 5.16368C14.9104 5.23626 14.8896 5.29846 14.8585 5.36068C14.8378 5.42289 14.8067 5.59916 14.7963 5.85838C14.703 7.11301 14.309 8.00473 12.961 8.60612C12.8573 8.65797 12.7951 8.6787 12.7433 8.6787C12.6707 8.6787 12.6292 8.61649 12.5359 8.47132C12.4011 8.26395 12.256 8.08768 12.0693 7.95288C13.5313 7.49665 13.8839 6.76047 13.9253 5.73396ZM14.2364 3.18323C13.4069 3.18323 13.1269 3.20396 13.0751 3.20396C12.9921 3.20396 12.9818 3.20396 12.9818 3.10027V2.51962C12.9818 2.4263 12.9818 2.41594 13.0751 2.41594C13.1269 2.41594 13.4069 2.43667 14.2364 2.43667H14.5889V1.82491H14.029C13.1477 1.82491 12.8573 1.84565 12.7951 1.84565C12.7018 1.84565 12.6914 1.84565 12.6914 1.74196V1.14057C12.6914 1.05762 12.6914 1.04725 12.7951 1.04725C12.847 1.04725 13.1477 1.06799 14.029 1.06799H14.5889V1.00578C14.5889 0.549549 14.5682 0.207375 14.5267 0.0311052C14.8793 0.0311052 15.1489 0.0622091 15.4807 0.0933156C15.574 0.0933156 15.6362 0.155533 15.6362 0.186639C15.6362 0.259221 15.6051 0.321434 15.574 0.373278C15.5325 0.456229 15.5221 0.559919 15.5221 0.90209V1.06799H16.3724C17.2434 1.06799 17.5441 1.04725 17.6063 1.04725C17.6996 1.04725 17.71 1.04725 17.71 1.14057V1.74196C17.71 1.83528 17.71 1.84565 17.6063 1.84565C17.5544 1.84565 17.2434 1.82491 16.3724 1.82491H15.5221V2.43667H16.1132C16.9323 2.43667 17.2226 2.41594 17.2745 2.41594C17.3678 2.41594 17.3782 2.41594 17.3782 2.51962V3.10027C17.3782 3.19359 17.3782 3.20396 17.2745 3.20396C17.2226 3.20396 16.9323 3.18323 16.1132 3.18323H14.2468H14.2364ZM16.2168 7.45518C16.2168 7.60035 16.2168 7.66256 16.2791 7.70403C16.3413 7.74551 16.4242 7.75588 16.5798 7.75588C16.7664 7.75588 16.8908 7.70403 16.953 7.62108C17.0256 7.51739 17.0567 7.31002 17.0671 6.6153C17.2226 6.70862 17.4404 6.80195 17.6166 6.86416C17.8759 6.93674 17.8655 6.94711 17.8551 7.19596C17.8136 7.90104 17.7203 8.14989 17.5337 8.33653C17.3367 8.50243 17.0775 8.59575 16.4035 8.59575C16.0095 8.59575 15.7917 8.57502 15.5947 8.46096C15.4288 8.35727 15.3251 8.181 15.3251 7.78699V5.9206C15.3251 5.49547 15.3251 5.22589 15.2733 4.96667C15.5843 4.96667 15.8539 4.99777 16.1546 5.02888C16.2583 5.02888 16.3205 5.08072 16.3205 5.13256C16.3205 5.21551 16.2894 5.257 16.2583 5.35031C16.2168 5.454 16.2065 5.52658 16.2065 6.06576V7.45518H16.2168Z" fill="#FD6C26"/>
<path d="M21.1109 1.07822C21.028 0.870839 20.945 0.684199 20.7791 0.476822C21.1627 0.414609 21.5464 0.373136 21.93 0.373136C22.0648 0.373136 22.1374 0.445713 22.1374 0.539033C22.1374 0.590877 22.1167 0.663465 22.1167 0.715309C22.1167 0.798259 22.1374 0.891575 22.1582 0.995263C22.2204 1.24412 22.2515 1.32707 22.3137 1.49297C23.0499 1.34781 23.5787 1.21301 24.2423 0.995263C24.3252 0.953788 24.3771 0.96416 24.4082 1.04711C24.46 1.22338 24.5326 1.49297 24.5741 1.67961C24.5948 1.77293 24.5222 1.83514 24.46 1.84551C23.8275 2.04251 23.2469 2.18768 22.604 2.33284C22.687 2.57132 22.8114 2.86165 22.9358 3.13124C23.7031 2.96534 24.2008 2.80981 24.657 2.63354C24.7504 2.58169 24.8022 2.60243 24.8229 2.68538C24.9059 2.90312 24.9474 3.0794 24.9888 3.30751C25.0096 3.39046 25.0096 3.4423 24.9163 3.47341C24.4393 3.64968 23.8483 3.82596 23.3195 3.94001C23.7238 4.62435 24.0971 5.15316 24.5637 5.57828C24.657 5.66123 24.657 5.70271 24.6156 5.8064C24.5119 6.02414 24.3771 6.21078 24.2215 6.39742C24.1697 6.45963 24.1282 6.49074 24.066 6.49074C24.0245 6.49074 23.9934 6.47 23.9312 6.43889C23.7757 6.31447 23.589 6.23152 23.3713 6.1382C22.884 5.93082 22.2618 5.8375 21.5879 5.8375C20.6961 5.8375 20.1777 6.11746 20.1777 6.55295C20.1777 7.16471 20.9865 7.37209 22.4381 7.37209C22.7907 7.37209 23.1432 7.33061 23.4854 7.32024C23.5787 7.32024 23.6098 7.37209 23.5994 7.44467C23.5579 7.68315 23.4957 8.04606 23.4128 8.30528C23.3817 8.3986 23.3506 8.44008 23.2158 8.45045C22.998 8.47118 22.7699 8.48155 22.5314 8.48155C20.354 8.48155 19.1927 7.86979 19.1927 6.69811C19.1927 5.68197 20.0637 5.04948 21.5464 5.04948C22.2411 5.04948 22.801 5.12205 23.1743 5.28795C22.9566 5.02873 22.6455 4.5725 22.3863 4.16812C21.4116 4.32365 20.4784 4.43771 19.7941 4.44808C19.6904 4.44808 19.6489 4.40661 19.6282 4.31329C19.5763 4.12665 19.483 3.80522 19.4623 3.53563C20.4058 3.51489 21.1731 3.44231 22.013 3.29714C21.9197 3.10013 21.7745 2.7787 21.6501 2.50911C20.7791 2.6439 20.074 2.72686 19.3482 2.73723C19.2341 2.73723 19.1823 2.69575 19.1616 2.60243C19.1305 2.49875 19.0682 2.1462 19.006 1.84551C19.9392 1.84551 20.6961 1.78329 21.3701 1.68997C21.2975 1.47223 21.2353 1.30633 21.142 1.07822H21.1109Z" fill="#FD6C26"/>
</svg>
