<svg width="35" height="9" viewBox="0 0 35 9" fill="none" xmlns="http://www.w3.org/2000/svg">
<path d="M0.410943 5.75314C0.430989 5.58275 0.441012 5.44242 0.410943 5.24196C0.64147 5.27203 0.982245 5.33217 1.11254 5.37226C1.2228 5.40233 1.27291 5.43242 1.27291 5.48253C1.27291 5.53265 1.25286 5.56272 1.2228 5.61283C1.19273 5.65292 1.18271 5.77319 1.16266 5.91351C1.11255 6.45475 0.982244 7.12628 0.821878 7.63745C0.771763 7.77777 0.761745 7.83792 0.701608 7.83792C0.651493 7.83792 0.591355 7.79782 0.481103 7.73768C0.350805 7.6575 0.120275 7.54723 0 7.49711C0.220504 6.91579 0.330761 6.36454 0.380875 5.75314H0.410943ZM3.0169 3.01687C3.13717 2.96676 3.14719 2.9768 3.18728 3.06701C3.4579 3.61827 3.6283 4.16952 3.77864 4.72078C3.80871 4.82101 3.77864 4.85109 3.65836 4.89118L3.22738 5.06156C3.11712 5.11167 3.08706 5.09162 3.06701 4.99139L2.96678 4.58048L2.36541 4.64061V7.14634C2.36541 7.98826 2.38546 8.29895 2.38546 8.34907C2.38546 8.43927 2.38545 8.4493 2.28522 8.4493H1.59365C1.50344 8.4493 1.49342 8.4493 1.49342 8.34907C1.49342 8.29895 1.51346 7.98826 1.51346 7.14634V4.72078L0.751718 4.77088C0.591351 4.77088 0.481103 4.81098 0.410943 4.84105C0.360828 4.8611 0.33076 4.89118 0.270623 4.89118C0.210485 4.89118 0.190433 4.83104 0.170388 4.73081C0.120273 4.51031 0.0801842 4.24969 0.0400925 3.95903C0.280642 3.97908 0.511169 3.9891 0.72165 3.9891C0.902063 3.74855 1.0925 3.50802 1.26289 3.25744C0.902064 2.80641 0.501147 2.37542 0.0801851 1.96448C1.83704e-06 1.90434 0.0200476 1.87427 0.0801851 1.77404L0.380875 1.29293C0.420967 1.24282 0.441009 1.21276 0.471078 1.21276C0.491124 1.21276 0.521194 1.2328 0.551263 1.26287L0.79181 1.50344C0.982246 1.20275 1.14261 0.912092 1.28293 0.571313C1.40321 0.32074 1.4433 0.180412 1.49342 0C1.74399 0.0902062 2.06472 0.2205 2.28522 0.340775C2.37543 0.39089 2.4055 0.430975 2.4055 0.491113C2.4055 0.541227 2.36541 0.571291 2.32531 0.611383C2.25515 0.67152 2.21506 0.711613 2.15493 0.831888C1.87428 1.33303 1.63373 1.7039 1.35309 2.10482L1.73397 2.53579C1.94445 2.20504 2.1449 1.86425 2.33534 1.52347C2.44559 1.32301 2.53579 1.10251 2.60595 0.902055C2.8866 1.03235 3.16724 1.16264 3.37772 1.29293C3.45791 1.34305 3.48797 1.37313 3.48797 1.43327C3.48797 1.49341 3.45791 1.53351 3.38775 1.5736C3.29754 1.62372 3.22738 1.73394 3.08706 1.95445C2.60596 2.69614 2.11483 3.40777 1.67382 3.95903C2.02463 3.93898 2.37543 3.91894 2.73626 3.89889C2.67612 3.70846 2.59593 3.52806 2.51575 3.34765C2.47566 3.25744 2.48568 3.23738 2.61598 3.17724L2.99685 3.01687H3.0169ZM3.14719 5.21189C3.25744 5.1718 3.26747 5.19186 3.30756 5.29209C3.46793 5.77319 3.62829 6.43469 3.69845 6.9659C3.69845 7.06613 3.69845 7.09621 3.57818 7.1363L3.11712 7.31671C2.9768 7.36682 2.95676 7.35681 2.95676 7.26661C2.89662 6.68528 2.76632 5.98366 2.61598 5.50257C2.58591 5.40234 2.61598 5.39232 2.72623 5.35223L3.14719 5.20189V5.21189ZM5.44245 3.74856C4.85109 3.74856 4.67067 3.76859 4.62056 3.76859C4.53035 3.76859 4.52033 3.76861 4.52033 3.65835V2.9768C4.35997 3.13717 4.1996 3.27747 4.03923 3.42782C3.94902 3.508 3.88889 3.55812 3.8488 3.55812C3.80871 3.55812 3.75859 3.498 3.68843 3.35768C3.56815 3.13718 3.45791 2.99684 3.31759 2.87657C4.18958 2.24513 4.80097 1.3631 5.19187 0.611383C5.28207 0.420947 5.35223 0.25056 5.37228 0.0501023C5.67297 0.080171 6.00372 0.110236 6.29438 0.140305C6.37457 0.160351 6.41467 0.200458 6.41467 0.250573C6.41467 0.300687 6.39462 0.340763 6.33448 0.390877L6.26432 0.451012C6.83562 1.40319 7.64748 2.12485 8.59965 2.65606C8.46936 2.80641 8.33906 3.00686 8.22881 3.27748C8.1787 3.42782 8.1386 3.48795 8.07846 3.48795C8.02834 3.48795 7.96821 3.44787 7.878 3.37771C7.67755 3.22737 7.48712 3.08704 7.30671 2.92667V3.64832C7.30671 3.74855 7.3067 3.75859 7.20647 3.75859C7.14633 3.75859 6.95589 3.73852 6.38459 3.73852H5.44245V3.74856ZM4.12944 8.3992C4.03923 8.3992 4.02921 8.39919 4.02921 8.29896C4.02921 8.24885 4.04925 7.98825 4.04925 6.63516V5.82331C4.04925 5.01145 4.02921 4.73079 4.02921 4.68068C4.02921 4.6005 4.02921 4.59048 4.12944 4.59048C4.18958 4.59048 4.45017 4.61054 5.20189 4.61054H6.68528C7.43699 4.61054 7.69759 4.59048 7.7477 4.59048C7.83791 4.59048 7.84794 4.59047 7.84794 4.68068C7.84794 4.73079 7.82789 5.01146 7.82789 5.67297V6.59506C7.82789 7.9281 7.84794 8.18869 7.84794 8.24883C7.84794 8.32901 7.84793 8.33906 7.7477 8.33906H7.0461C6.9559 8.33906 6.94588 8.33904 6.94588 8.24883V7.85795H4.93127V8.319C4.93127 8.40921 4.93127 8.41923 4.83104 8.41923H4.13946L4.12944 8.3992ZM7.24656 2.87657C6.6552 2.3654 6.18413 1.8442 5.82331 1.24283C5.49255 1.82416 5.09163 2.37542 4.61054 2.87657C4.66065 2.87657 4.84106 2.8966 5.43241 2.8966H6.37457C6.9559 2.8966 7.13632 2.87657 7.19645 2.87657H7.23654H7.24656ZM4.93127 7.03607H6.94588V5.40233H4.93127V7.03607Z" fill="#FD6C26"/>
<path d="M10.4038 6.01359C9.59194 6.01359 9.3113 6.03363 9.26119 6.03363C9.17098 6.03363 9.17098 6.03362 9.17098 5.93339V5.23181C9.17098 5.13158 9.17098 5.12154 9.26119 5.12154C9.3113 5.12154 9.59194 5.1416 10.4038 5.1416H14.6335C14.6736 4.84092 14.6936 4.50012 14.7237 4.11925H11.4261C11.376 4.26959 11.3259 4.40991 11.2658 4.56026C11.2257 4.65046 11.2156 4.65048 11.0853 4.64046L10.3637 4.53019C10.2234 4.51014 10.2033 4.47005 10.2434 4.36982C10.7546 3.137 11.1054 1.92423 11.3059 0.89187C11.366 0.510999 11.3961 0.300531 11.4061 0.0900495C11.787 0.130141 12.0977 0.180259 12.4084 0.25042C12.5287 0.280488 12.5687 0.320585 12.5687 0.380722C12.5687 0.44086 12.5286 0.50099 12.4785 0.561127C12.4184 0.641311 12.3583 0.821717 12.2681 1.21261L12.238 1.32288H15.3351C16.187 1.32288 16.4677 1.30281 16.5278 1.30281C16.618 1.30281 16.628 1.30282 16.628 1.40305V2.11467C16.628 2.20487 16.628 2.2149 16.5278 2.2149C16.4777 2.2149 16.187 2.19487 15.3351 2.19487H12.0175C11.9273 2.54567 11.827 2.88643 11.7168 3.24726H14.5232C15.3451 3.24726 15.6157 3.22722 15.6658 3.22722C15.756 3.22722 15.7861 3.25729 15.7861 3.34749L15.7059 4.31972L15.6458 5.13157H16.1168C16.9187 5.13157 17.1993 5.11154 17.2494 5.11154C17.3396 5.11154 17.3396 5.11152 17.3396 5.22177V5.92339C17.3396 6.01359 17.3396 6.02359 17.2494 6.02359C17.1993 6.02359 16.9187 6.00356 16.1168 6.00356H15.5455C15.4754 6.5047 15.3852 6.90563 15.2749 7.26645C15.0244 8.00815 14.5533 8.28878 13.7615 8.28878C13.5209 8.28878 13.2303 8.28878 12.9095 8.25871C12.6289 8.25871 12.6189 8.25872 12.5587 7.95804C12.5086 7.69744 12.4184 7.43682 12.3081 7.24639C12.8694 7.31655 13.1801 7.33662 13.6111 7.33662C13.9519 7.33662 14.1924 7.30653 14.3127 6.93568C14.3829 6.70515 14.4631 6.40447 14.5232 6.00356H10.4138L10.4038 6.01359Z" fill="#FD6C26"/>
<path d="M18.5424 6.68541C18.4522 6.68541 18.4422 6.68542 18.4422 6.59521C18.4422 6.53507 18.4622 6.15422 18.4622 4.10955V2.65622C18.4622 1.21292 18.4422 0.801985 18.4422 0.751871C18.4422 0.661665 18.4422 0.651636 18.5424 0.651636C18.6025 0.651636 18.813 0.67167 19.4645 0.67167H20.5269C21.1784 0.67167 21.3889 0.651636 21.449 0.651636C21.5392 0.651636 21.5493 0.651642 21.5493 0.751871C21.5493 0.801985 21.5292 1.19286 21.5292 2.39561V3.96922C21.5292 5.91366 21.5493 6.2745 21.5493 6.33464C21.5493 6.42484 21.5493 6.43484 21.449 6.43484H20.7575C20.6572 6.43484 20.6472 6.43487 20.6472 6.33464V5.88359H19.3442V6.59521C19.3442 6.68542 19.3442 6.68541 19.234 6.68541H18.5324H18.5424ZM19.3542 1.49356V2.82662H20.6572V1.49356H19.3542ZM20.6572 5.05168V3.65851H19.3542V5.05168H20.6572ZM25.9594 6.09407C25.9594 6.52505 25.9794 6.99614 25.9794 7.35696C25.9794 7.71779 25.9193 7.93829 25.7088 8.10868C25.4983 8.28909 25.1274 8.34922 24.4759 8.34922C24.2889 8.34922 24.1719 8.25567 24.1252 8.06858C24.075 7.81801 23.9748 7.56743 23.8646 7.377C24.1753 7.40707 24.476 7.4171 24.6564 7.4171C24.937 7.4171 25.0172 7.33691 25.0172 7.09636V5.34235H23.1429C22.9124 6.77562 22.4012 7.5574 21.5092 8.27905C21.3989 8.36926 21.3488 8.41939 21.2887 8.41939C21.2386 8.41939 21.1884 8.35924 21.0882 8.24898C20.9178 8.06857 20.7474 7.91824 20.5269 7.78794C21.9201 6.78565 22.3511 5.97379 22.3511 2.89676V1.7742C22.3511 0.972364 22.331 0.551403 22.331 0.491266C22.331 0.401059 22.331 0.39103 22.4413 0.39103C22.4914 0.39103 22.732 0.411096 23.4636 0.411096H24.8268C25.5484 0.411096 25.799 0.39103 25.8491 0.39103C25.9493 0.39103 25.9594 0.391036 25.9594 0.491266C25.9594 0.54138 25.9393 0.962341 25.9393 1.7742V6.09407H25.9594ZM25.0272 4.4904V3.28766H23.3033C23.3033 3.72867 23.2732 4.12957 23.2431 4.4904H25.0172H25.0272ZM23.3033 1.26302V2.44574H25.0272V1.26302H23.3033Z" fill="#FD6C26"/>
<path d="M27.3425 5.75314C27.3625 5.58275 27.3726 5.44242 27.3425 5.24196C27.573 5.27203 27.9038 5.33217 28.0441 5.37226C28.1543 5.40233 28.2045 5.43242 28.2045 5.48253C28.2045 5.53265 28.1844 5.56272 28.1543 5.61283C28.1243 5.65292 28.1143 5.77319 28.1042 5.91351C28.0441 6.45475 27.9338 7.10625 27.7835 7.61741C27.7334 7.75773 27.7234 7.81785 27.6632 7.81785C27.6131 7.81785 27.553 7.77776 27.4427 7.71762C27.3124 7.63744 27.102 7.55726 26.9616 7.50715C27.1621 6.91579 27.2924 6.35451 27.3425 5.75314ZM29.9585 3.03694C30.0787 2.9768 30.0787 2.99684 30.1188 3.08704C30.3895 3.6383 30.5598 4.18958 30.7102 4.73081C30.7403 4.83104 30.7102 4.84105 30.5899 4.90118L30.169 5.08162C30.0587 5.13174 30.0286 5.11168 30.0086 5.01145L29.8983 4.58048L29.317 4.64061V7.15634C29.317 7.99826 29.3371 8.30898 29.3371 8.3591C29.3371 8.44931 29.337 8.45933 29.2368 8.45933H28.5452C28.455 8.45933 28.445 8.45933 28.445 8.3591C28.445 8.30898 28.4651 7.99826 28.4651 7.15634V4.71075L27.6833 4.77088C27.5229 4.77088 27.4127 4.81098 27.3425 4.84105C27.2924 4.8611 27.2623 4.89118 27.2022 4.89118C27.142 4.89118 27.112 4.83104 27.0919 4.73081C27.0418 4.52033 27.0017 4.24969 26.9616 3.95903C27.2222 3.97908 27.4427 3.9891 27.6532 3.9891C27.8336 3.74855 28.0241 3.50802 28.1944 3.25744C27.8236 2.80641 27.4327 2.37542 27.0017 1.96448C26.9215 1.90434 26.9516 1.87427 27.0017 1.77404L27.3124 1.29293C27.3525 1.24282 27.3726 1.21276 27.4026 1.21276C27.4227 1.21276 27.4527 1.2328 27.4828 1.26287C27.553 1.34305 27.6432 1.43328 27.7234 1.50344C27.9038 1.20275 28.0642 0.912092 28.2145 0.571313C28.3348 0.32074 28.3749 0.180412 28.425 0C28.6655 0.0902062 28.9963 0.2205 29.2268 0.340775C29.317 0.39089 29.3471 0.430975 29.3471 0.491113C29.3471 0.541227 29.307 0.571291 29.2669 0.611383C29.1967 0.67152 29.1566 0.711613 29.0965 0.831888C28.8058 1.33303 28.5753 1.7039 28.2947 2.10482C28.425 2.25516 28.5553 2.38545 28.6655 2.53579C28.876 2.20504 29.0765 1.87428 29.2769 1.5335C29.3872 1.33305 29.4774 1.10251 29.5475 0.902055C29.8181 1.03235 30.1088 1.16264 30.3193 1.29293C30.3995 1.34305 30.4295 1.37313 30.4295 1.43327C30.4295 1.49341 30.3995 1.53351 30.3293 1.5736C30.2391 1.62372 30.169 1.73394 30.0286 1.95445C29.5475 2.69614 29.0564 3.40777 28.6254 3.95903C28.9662 3.93898 29.317 3.91894 29.6578 3.89889C29.5976 3.71848 29.5175 3.53807 29.4473 3.36768C29.4072 3.27748 29.4172 3.26745 29.5475 3.20731L29.9184 3.04694L29.9585 3.03694ZM30.0687 5.24196C30.179 5.20187 30.199 5.22193 30.2291 5.32216C30.3794 5.78321 30.5198 6.36455 30.5999 6.89576C30.5999 6.99599 30.5999 7.01602 30.4897 7.06614L30.0587 7.22651C29.9184 7.27662 29.8983 7.26661 29.8983 7.1764C29.8382 6.58505 29.6979 6.00371 29.5676 5.53263C29.5375 5.4324 29.5676 5.42239 29.6678 5.3823L30.0787 5.24196H30.0687ZM30.8305 8.21876C30.7403 8.21876 30.7302 8.21879 30.7302 8.11856C30.7302 8.05842 30.7503 7.61739 30.7503 4.62054V2.9768C30.7503 1.34307 30.7302 0.892025 30.7302 0.831888C30.7302 0.741682 30.7302 0.731653 30.8305 0.731653C30.8906 0.731653 31.1612 0.751718 31.943 0.751718H33.7772C34.569 0.751718 34.8296 0.731653 34.8998 0.731653C34.99 0.731653 35 0.731659 35 0.831888C35 0.892025 34.98 1.31299 34.98 2.68613V4.47021C34.98 7.59735 35 8.01831 35 8.06843C35 8.15863 35 8.16866 34.8998 8.16866H34.2082C34.128 8.16866 34.118 8.16866 34.118 8.06843V7.65748H31.6323V8.11856C31.6323 8.20877 31.6323 8.21876 31.5321 8.21876H30.8405H30.8305ZM31.6223 3.78866H32.4141V1.56357H31.6223V3.78866ZM32.4141 6.83563V4.61054H31.6223V6.83563H32.4141ZM33.276 1.56357V3.78866H34.108V1.56357H33.276ZM34.108 6.83563V4.61054H33.276V6.83563H34.108Z" fill="#FD6C26"/>
</svg>
