<svg width="17" height="9" viewBox="0 0 17 9" fill="none" xmlns="http://www.w3.org/2000/svg">
<path d="M2.76463 1.64877C3.4583 1.64877 3.68957 1.62866 3.74989 1.62866C3.83031 1.62866 3.84033 1.62867 3.84033 1.7292V2.38265C3.84033 2.48318 3.84037 2.49324 3.74989 2.49324C3.69962 2.49324 3.46835 2.47313 2.76463 2.47313H1.0757C0.371976 2.47313 0.150835 2.49324 0.100569 2.49324C0.01009 2.49324 0 2.49324 0 2.38265V1.7292C0 1.63872 3.68144e-05 1.62866 0.100569 1.62866C0.140782 1.62866 0.371976 1.64877 1.0757 1.64877H2.76463ZM3.4583 6.8865C3.4583 7.95214 3.47843 8.15319 3.47843 8.21351C3.47843 8.30399 3.47845 8.31405 3.37792 8.31405H2.65406C2.56358 8.31405 2.55355 8.31404 2.55355 8.21351V7.92197H1.38735V8.38441C1.38735 8.47489 1.38737 8.48495 1.28684 8.48495H0.57304C0.472508 8.48495 0.462469 8.48495 0.462469 8.38441C0.462469 8.32409 0.482595 8.11298 0.482595 7.00713V6.40393C0.482595 5.82085 0.462469 5.60973 0.462469 5.53936C0.462469 5.44888 0.462455 5.43883 0.57304 5.43883C0.623306 5.43883 0.824387 5.45893 1.40747 5.45893H2.53343C3.11651 5.45893 3.3176 5.43883 3.37792 5.43883C3.4684 5.43883 3.47843 5.43882 3.47843 5.53936C3.47843 5.58962 3.4583 5.81079 3.4583 6.24308V6.89654V6.8865ZM2.57362 0.412231C3.1567 0.412231 3.34772 0.39212 3.39799 0.39212C3.49852 0.39212 3.50856 0.392126 3.50856 0.492658V1.09584C3.50856 1.18632 3.50857 1.19638 3.39799 1.19638C3.34772 1.19638 3.1567 1.17627 2.57362 1.17627H1.4276C0.83446 1.17627 0.643432 1.19638 0.593166 1.19638C0.502687 1.19638 0.492597 1.19637 0.492597 1.09584V0.492658C0.492597 0.40218 0.492634 0.39212 0.593166 0.39212C0.643432 0.39212 0.83446 0.412231 1.4276 0.412231H2.57362ZM2.47311 2.95569C3.02604 2.95569 3.18691 2.93558 3.24723 2.93558C3.34776 2.93558 3.3578 2.93559 3.3578 3.03612V3.62925C3.3578 3.71973 3.35781 3.72978 3.24723 3.72978C3.19696 3.72978 3.02604 3.70968 2.47311 3.70968H1.45773C0.894747 3.70968 0.733928 3.72978 0.673609 3.72978C0.58313 3.72978 0.57304 3.72978 0.57304 3.62925V3.03612C0.57304 2.94564 0.573077 2.93558 0.673609 2.93558C0.723875 2.93558 0.894747 2.95569 1.45773 2.95569H2.47311ZM2.47311 4.19223C3.02604 4.19223 3.18691 4.17212 3.24723 4.17212C3.34776 4.17212 3.3578 4.17213 3.3578 4.27266V4.85574C3.3578 4.94622 3.35781 4.95627 3.24723 4.95627C3.19696 4.95627 3.02604 4.93617 2.47311 4.93617H1.45773C0.894747 4.93617 0.733928 4.95627 0.673609 4.95627C0.58313 4.95627 0.57304 4.95628 0.57304 4.85574V4.27266C0.57304 4.18218 0.573077 4.17212 0.673609 4.17212C0.723875 4.17212 0.894747 4.19223 1.45773 4.19223H2.47311ZM1.37728 6.22298V7.13783H2.54349V6.22298H1.37728ZM5.55945 1.4276C5.55945 0.774141 5.55944 0.502699 5.48907 0.0402521C5.84093 0.0402521 6.19279 0.0704246 6.49439 0.100584C6.58487 0.100584 6.64521 0.150841 6.64521 0.201107C6.64521 0.261426 6.615 0.3117 6.5949 0.382073C6.54463 0.492658 6.53458 0.723876 6.53458 1.39744V3.04617H7.11768C7.9521 3.04617 8.24362 3.02605 8.28383 3.02605C8.38436 3.02605 8.39446 3.02606 8.39446 3.13664V3.88058C8.39446 3.97106 8.39441 3.98111 8.28383 3.98111C8.23356 3.98111 7.9521 3.96101 7.11768 3.96101H6.53458V6.73569C6.53458 7.77117 6.55471 8.29394 6.55471 8.34421C6.55471 8.44474 6.55468 8.45479 6.4642 8.45479H5.63989C5.55947 8.45479 5.54939 8.45479 5.54939 8.34421C5.54939 8.29394 5.56951 7.77116 5.56951 6.74574V3.96101H5.05679C4.22237 3.96101 3.93085 3.98111 3.88058 3.98111C3.78005 3.98111 3.76995 3.98111 3.76995 3.88058V3.13664C3.76995 3.03611 3.77 3.02605 3.88058 3.02605C3.93085 3.02605 4.22237 3.04617 5.05679 3.04617H5.56951V1.41755L5.55945 1.4276Z" fill="#FD6C26"/>
<path d="M13.7528 1.4376C13.612 1.66882 13.4613 1.87994 13.2803 2.081C13.1798 2.19159 13.1295 2.24186 13.0792 2.24186C13.029 2.24186 12.9787 2.1916 12.8681 2.09107C12.7072 1.96038 12.5464 1.8699 12.3755 1.80958C12.5062 1.68894 12.6168 1.56829 12.7173 1.4376C12.6972 1.4376 12.6771 1.4376 12.6469 1.4376C12.5967 1.4376 12.3655 1.41751 11.7019 1.41751C11.7924 1.5683 11.8729 1.7191 11.9633 1.89001C12.0136 1.97043 12.0035 1.99053 11.8728 2.02069L11.2898 2.16143C11.139 2.20165 11.1289 2.19159 11.1088 2.10112C11.0284 1.86989 10.9379 1.63867 10.8273 1.42755H10.3347C10.0934 1.79952 9.80192 2.13127 9.47016 2.44292C9.36963 2.5334 9.3093 2.58367 9.26908 2.58367C9.21882 2.58367 9.17861 2.52336 9.08813 2.39267C8.95744 2.21171 8.80661 2.05085 8.67592 1.96037C9.21879 1.48787 9.631 1.01537 9.90244 0.452391C9.96276 0.331753 10.0231 0.180958 10.0733 0C10.3347 0.0301596 10.6966 0.0804305 10.8876 0.130697C10.9882 0.150803 11.0284 0.180953 11.0284 0.231219C11.0284 0.281485 10.9882 0.331761 10.9379 0.382027C10.8977 0.422239 10.8574 0.462449 10.7971 0.583088C10.777 0.633354 10.7569 0.673566 10.7368 0.723832H11.6215C12.3855 0.723832 12.6269 0.703721 12.6771 0.703721C12.7676 0.703721 12.7776 0.703727 12.7776 0.804259V1.34713C12.7776 1.34713 12.7776 1.40745 12.7776 1.41751C13.0189 1.13602 13.1898 0.834416 13.3306 0.50266C13.4009 0.351862 13.4612 0.191005 13.5014 0.0100477C13.7628 0.0402073 14.1147 0.0804305 14.3057 0.130697C14.4063 0.150803 14.4364 0.180959 14.4364 0.221172C14.4364 0.271438 14.4163 0.321707 14.356 0.382027C14.2957 0.442346 14.2756 0.472497 14.2354 0.593135L14.1751 0.733879H15.6528C16.5174 0.733879 16.809 0.713769 16.8693 0.713769C16.9598 0.713769 16.9698 0.713775 16.9698 0.814307V1.35719C16.9698 1.44767 16.9698 1.45771 16.8693 1.45771C16.819 1.45771 16.5174 1.4376 15.6528 1.4376H15.2708C15.3512 1.57835 15.4317 1.70904 15.5121 1.87994C15.5523 1.97042 15.5423 1.99053 15.4116 2.02069L14.8285 2.16143C14.6978 2.19159 14.6777 2.18155 14.6576 2.09107C14.5772 1.89 14.4867 1.65878 14.3661 1.44766H13.8131L13.7528 1.4376ZM10.0331 7.04729C9.22888 7.04729 8.93732 7.0674 8.88706 7.0674C8.79658 7.0674 8.78649 7.06739 8.78649 6.96686V6.38379C8.78649 6.28326 8.78653 6.2732 8.88706 6.2732C8.93732 6.2732 9.22888 6.2933 10.0331 6.2933H11.1591C11.1893 6.1425 11.1993 5.99171 11.2093 5.81075C10.4654 5.81075 10.1738 5.83086 10.1236 5.83086C10.0231 5.83086 10.013 5.83085 10.013 5.73032C10.013 5.67 10.0331 5.42873 10.0331 4.82554V3.27734C10.0331 2.69425 10.013 2.43288 10.013 2.37256C10.013 2.28208 10.013 2.27202 10.1236 2.27202C10.1738 2.27202 10.5056 2.29213 11.3802 2.29213H14.3661C15.2608 2.29213 15.5724 2.27202 15.6327 2.27202C15.7232 2.27202 15.7333 2.27202 15.7333 2.37256C15.7333 2.43288 15.7132 2.69425 15.7132 3.27734V4.82554C15.7132 5.41868 15.7333 5.67 15.7333 5.73032C15.7333 5.8208 15.7332 5.83086 15.6327 5.83086C15.5724 5.83086 15.2909 5.83086 14.5771 5.81075V6.2933H15.7634C16.5677 6.2933 16.8592 6.2732 16.9095 6.2732C16.9899 6.2732 17 6.2732 17 6.38379V6.96686C17 7.05734 17 7.0674 16.9095 7.0674C16.8592 7.0674 16.5677 7.04729 15.7634 7.04729H14.5771V7.51979C14.5771 8.06266 14.5973 8.32404 14.5973 8.36426C14.5973 8.45474 14.5973 8.46479 14.4867 8.46479H13.793C13.7025 8.46479 13.6925 8.46479 13.6925 8.36426C13.6925 8.31399 13.7126 8.06266 13.7126 7.51979V7.04729H11.8528C11.5813 7.69069 11.0585 8.13305 10.0431 8.42459C9.94261 8.45475 9.87225 8.47484 9.81194 8.47484C9.73151 8.47484 9.69129 8.42459 9.62092 8.28384C9.50028 8.06267 9.37967 7.92193 9.20877 7.78118C10.0633 7.61028 10.5659 7.39915 10.8675 7.04729H10.0431H10.0331ZM10.9278 2.93553V3.31756H14.8285V2.93553H10.9278ZM14.8285 4.26256V3.88054H10.9278V4.26256H14.8285ZM14.8285 4.83559H10.9278V5.21761H14.8285V4.83559ZM13.7025 6.30336V5.8208H12.0739C12.0739 5.9917 12.0538 6.15256 12.0337 6.30336H13.6925H13.7025Z" fill="#FD6C26"/>
</svg>
