<svg width="26" height="9" viewBox="0 0 26 9" fill="none" xmlns="http://www.w3.org/2000/svg">
<path d="M1.63683 5.09104C1.57658 6.31615 1.37573 7.25005 0.933888 8.12369C0.873637 8.2442 0.833496 8.30446 0.773245 8.30446C0.723036 8.30446 0.672834 8.25424 0.592498 8.15382C0.411744 7.94294 0.190796 7.77223 0 7.67181C0.662765 6.71783 0.753142 5.44251 0.753142 3.77555C0.753142 2.77136 0.7331 2.2994 0.7331 2.23915C0.7331 2.14877 0.733075 2.13874 0.833494 2.13874C0.893745 2.13874 1.09457 2.15881 1.75733 2.15881H2.90212C3.55484 2.15881 3.77574 2.13874 3.81591 2.13874C3.90628 2.13874 3.91636 2.13873 3.91636 2.23915C3.91636 2.28936 3.89626 2.54041 3.89626 3.09271V4.49857C3.89626 5.06092 3.91636 5.28184 3.91636 5.33205C3.91636 5.43247 3.91632 5.44251 3.81591 5.44251H3.11302C3.02265 5.44251 3.01257 5.44251 3.01257 5.33205V5.081H1.63683V5.09104ZM3.01257 0.481815C3.77575 0.481815 4.0268 0.461734 4.077 0.461734C4.16738 0.461734 4.17746 0.461733 4.17746 0.562152V1.23496C4.17746 1.33538 4.17742 1.34542 4.077 1.34542C4.0268 1.34542 3.77575 1.32533 3.01257 1.32533H1.46614C0.712996 1.32533 0.45191 1.34542 0.4017 1.34542C0.311323 1.34542 0.301244 1.34542 0.301244 1.23496V0.562152C0.301244 0.471775 0.301281 0.461734 0.4017 0.461734C0.45191 0.461734 0.712996 0.481815 1.46614 0.481815H3.01257ZM1.66699 2.98225V4.27765H3.01257V2.98225H1.66699ZM5.49295 3.8358C5.47286 4.88016 5.39252 5.5831 5.1716 6.26595C4.94063 6.97893 4.56909 7.59147 4.04691 8.13373C3.95653 8.23415 3.90632 8.28437 3.85611 8.28437C3.8059 8.28437 3.76574 8.23415 3.67537 8.12369C3.50465 7.9329 3.3038 7.75214 3.09292 7.63164C3.67535 7.14962 4.10712 6.52704 4.318 5.80402C4.47867 5.28184 4.5791 4.67933 4.5791 3.4241V2.29939C4.5791 1.74709 4.55902 1.29521 4.51885 0.803155C4.84019 0.853365 5.11132 0.923659 5.39249 1.02408C5.95484 0.893533 6.65779 0.652526 7.16992 0.371353C7.3808 0.270935 7.50129 0.180558 7.65192 0.0500133C7.86279 0.220725 8.08375 0.461732 8.25447 0.702738C8.30468 0.762989 8.32477 0.813199 8.32477 0.883492C8.32477 0.943743 8.26449 0.973868 8.17411 0.983909C8.07369 0.983909 7.98334 1.03412 7.82267 1.09437C7.0394 1.41571 6.25612 1.67679 5.48289 1.85755V2.98225H7.15987C8.06364 2.98225 8.3649 2.96216 8.41511 2.96216C8.50549 2.96216 8.51556 2.96217 8.51556 3.06259V3.74543C8.51556 3.83581 8.51553 3.84585 8.41511 3.84585C8.3649 3.84585 8.10383 3.84585 7.43102 3.82577V7.15968C7.43102 7.89274 7.45113 8.25425 7.45113 8.30446C7.45113 8.38479 7.4511 8.39483 7.36072 8.39483H6.60758C6.52725 8.39483 6.51718 8.39483 6.51718 8.30446C6.51718 8.2442 6.51718 7.89274 6.51718 7.15968V3.82577H5.47284L5.49295 3.8358Z" fill="#FD6C26"/>
<path d="M9.83105 5.79396C9.83105 5.51279 9.83101 5.12114 9.85109 4.77972C9.68038 4.94039 9.51971 5.10106 9.349 5.25169C9.24858 5.32198 9.17832 5.37219 9.13816 5.37219C9.08795 5.37219 9.05783 5.32199 9.01766 5.19144C8.94737 4.93035 8.80677 4.64918 8.69631 4.51864C9.41933 3.94625 10.0219 3.25336 10.4637 2.54038C10.5541 2.3998 10.6344 2.22909 10.7047 2.05838C10.9457 2.18892 11.1767 2.33955 11.3875 2.50022C11.4679 2.56047 11.508 2.61068 11.508 2.68097C11.508 2.74122 11.4779 2.77134 11.4076 2.82155C11.3273 2.87176 11.247 2.98223 11.1465 3.1429C11.026 3.3337 10.8955 3.53452 10.7649 3.72532V7.17973C10.7649 7.92283 10.785 8.2743 10.785 8.31447C10.785 8.40485 10.785 8.41489 10.6846 8.41489H9.92139C9.83102 8.41489 9.821 8.41489 9.821 8.31447C9.821 8.26426 9.84104 7.92283 9.84104 7.17973V5.804L9.83105 5.79396ZM11.3373 0.461711C11.4177 0.521963 11.4679 0.562129 11.4679 0.632422C11.4679 0.682631 11.4277 0.722802 11.3775 0.752927C11.2871 0.793095 11.2067 0.863388 11.1063 1.00397C10.6946 1.52615 10.1424 2.07846 9.51975 2.56047C9.41933 2.63076 9.35907 2.67093 9.3189 2.67093C9.26869 2.67093 9.22849 2.61067 9.1582 2.46005C9.04774 2.24917 8.89714 2.04833 8.74651 1.91779C9.35906 1.5362 9.94147 1.00397 10.3532 0.461711C10.4837 0.301041 10.5741 0.160454 10.6344 0.0299099C10.8955 0.160454 11.1164 0.290999 11.3473 0.461711H11.3373ZM12.5624 5.92449C11.6586 5.92449 11.3574 5.94458 11.3072 5.94458C11.2168 5.94458 11.2068 5.94458 11.2068 5.83412V5.22157C11.2068 5.13119 11.2068 5.12114 11.3072 5.12114C11.3674 5.12114 11.6687 5.14123 12.5624 5.14123H14.9925V4.58892H12.6629C11.7691 4.58892 11.4678 4.60901 11.4176 4.60901C11.3172 4.60901 11.3072 4.60902 11.3072 4.5086V3.90608C11.3072 3.8157 11.3072 3.80566 11.4176 3.80566C11.4678 3.80566 11.7792 3.82574 12.6629 3.82574H15.7256C16.6194 3.82574 16.9307 3.80566 16.9809 3.80566C17.0612 3.80566 17.0712 3.80566 17.0712 3.90608V4.5086C17.0712 4.59898 17.0712 4.60901 16.9809 4.60901C16.9307 4.60901 16.6394 4.609 15.9164 4.58892V5.14123C16.6595 5.14123 16.9407 5.12114 16.9909 5.12114C17.0813 5.12114 17.0913 5.12115 17.0913 5.22157V5.83412C17.0913 5.93454 17.0913 5.94458 16.9909 5.94458C16.9508 5.94458 16.6595 5.94458 15.9164 5.92449V6.34625C15.9164 6.79814 15.9164 7.08935 15.9164 7.4609C15.9164 7.83245 15.806 8.02325 15.6051 8.1538C15.3842 8.29438 15.0528 8.32451 14.3298 8.32451C14.149 8.32451 14.0352 8.23078 13.9883 8.04333C13.9381 7.78224 13.8378 7.58141 13.7273 7.40065C14.0587 7.44082 14.4704 7.45087 14.7214 7.44083C14.8721 7.44083 14.9825 7.37053 14.9825 7.16969V5.94458H12.5524L12.5624 5.92449ZM15.0628 0.35125C15.8662 0.35125 16.1273 0.33117 16.1875 0.33117C16.2779 0.33117 16.288 0.331168 16.288 0.431587C16.288 0.491838 16.2679 0.722807 16.2679 1.24499V2.42992C16.2679 2.96214 16.288 3.1931 16.288 3.24331C16.288 3.33369 16.2879 3.34374 16.1875 3.34374C16.1273 3.34374 15.8561 3.32365 15.0628 3.32365H13.2855C12.4821 3.32365 12.211 3.34374 12.1608 3.34374C12.0704 3.34374 12.0603 3.34373 12.0603 3.24331C12.0603 3.1931 12.0804 2.96214 12.0804 2.42992V1.24499C12.0804 0.722807 12.0603 0.491838 12.0603 0.431587C12.0603 0.34121 12.0604 0.33117 12.1608 0.33117C12.211 0.33117 12.4922 0.35125 13.2855 0.35125H15.0628ZM12.7231 6.07513C12.8135 6.02492 12.8436 6.02492 12.9139 6.07513C13.2453 6.36635 13.5566 6.72784 13.8076 7.09939C13.8578 7.17973 13.8578 7.19983 13.7574 7.27012L13.175 7.63161C13.1247 7.67178 13.0846 7.68183 13.0645 7.68183C13.0344 7.68183 13.0143 7.66174 12.9942 7.62158C12.7532 7.23998 12.452 6.82827 12.1608 6.55714C12.0804 6.48684 12.1005 6.46676 12.2009 6.39646L12.7331 6.06508L12.7231 6.07513ZM12.944 1.50607H15.3842V1.05418H12.944V1.50607ZM15.3842 2.17887H12.944V2.64081H15.3842V2.17887Z" fill="#FD6C26"/>
<path d="M18.3967 1.60669C18.2093 1.64686 18.0754 1.57323 17.9951 1.38579C17.9148 1.19499 17.8243 1.03431 17.6938 0.893728C18.5976 0.753141 19.3507 0.532216 19.8829 0.301252C20.0536 0.241001 20.144 0.170708 20.2645 0.0903733C20.4754 0.271127 20.6462 0.461926 20.8169 0.64268C20.8671 0.702932 20.8871 0.733053 20.8871 0.803347C20.8871 0.87364 20.8269 0.923852 20.7265 0.923852C20.6461 0.923852 20.5457 0.974058 20.4252 1.01423C20.2445 1.08452 20.0436 1.15481 19.8428 1.21506V2.55063C20.4553 2.55063 20.6662 2.53056 20.7265 2.53056C20.8169 2.53056 20.8269 2.53055 20.8269 2.63097V3.26361C20.8269 3.36403 20.8269 3.37408 20.7265 3.37408C20.6662 3.37408 20.4855 3.37407 19.9834 3.35399C20.2746 3.9565 20.5859 4.40839 20.9976 4.78999C20.8872 4.95066 20.7566 5.21174 20.6763 5.46279C20.6462 5.56321 20.616 5.61341 20.5758 5.61341C20.5357 5.61341 20.4955 5.56321 20.4252 5.46279C20.1742 5.09124 19.9834 4.7699 19.8127 4.29793C19.8127 6.5674 19.8629 8.16405 19.8629 8.32472C19.8629 8.40506 19.8629 8.41511 19.7624 8.41511H19.0394C18.939 8.41511 18.929 8.4151 18.929 8.32472C18.929 8.16405 18.9893 6.66781 18.9993 4.68956C18.7583 5.39249 18.4269 6.00505 18.0654 6.52723C18.0051 6.61761 17.9549 6.66781 17.9047 6.66781C17.8645 6.66781 17.8344 6.61761 17.7943 6.51719C17.6938 6.26614 17.5533 6.01509 17.4227 5.86446C17.9549 5.26195 18.5072 4.4586 18.8486 3.35399H18.6277C17.9549 3.35399 17.7441 3.37408 17.6838 3.37408C17.6035 3.37408 17.5934 3.37407 17.5934 3.26361V2.63097C17.5934 2.54059 17.5934 2.53056 17.6838 2.53056C17.7441 2.53056 17.9549 2.55063 18.6277 2.55063H18.949V1.4862L18.3667 1.62678L18.3967 1.60669ZM23.5081 1.77742C23.6989 1.35566 23.8495 0.974063 23.98 0.572387C24.0202 0.421759 24.0604 0.241005 24.0805 0C24.4018 0.0602513 24.7734 0.150624 24.9943 0.230959C25.0646 0.261085 25.1148 0.301257 25.1148 0.361509C25.1148 0.42176 25.0846 0.461924 25.0344 0.522175C24.9641 0.582426 24.9139 0.682844 24.8738 0.803347C24.7432 1.07448 24.6127 1.38579 24.4118 1.77742C25.0646 1.77742 25.3156 1.75733 25.3759 1.75733C25.4663 1.75733 25.4763 1.75733 25.4763 1.86779C25.4763 1.918 25.4562 2.13892 25.4562 2.66109V3.77575C25.4562 4.28788 25.4763 4.51885 25.4763 4.56906C25.4763 4.65944 25.4763 4.66947 25.3759 4.66947C25.3156 4.66947 25.0445 4.6494 24.3215 4.6494V7.04941C24.3215 7.21008 24.3415 7.30045 24.4118 7.35066C24.462 7.39082 24.5725 7.41092 24.7231 7.41092C24.944 7.41092 25.0344 7.37075 25.1047 7.30046C25.175 7.21008 25.2052 6.98915 25.2152 6.25609C25.3759 6.36655 25.6169 6.48706 25.7776 6.52723C25.9382 6.57409 26.0119 6.67785 25.9985 6.83852C25.9583 7.60171 25.8278 7.92305 25.647 8.06364C25.4361 8.22431 25.0646 8.28456 24.6328 8.28456C24.1508 8.28456 23.8595 8.23434 23.7189 8.13392C23.5583 8.01342 23.4579 7.84271 23.4579 7.40087V4.63935H22.8955C22.8453 6.63768 22.3131 7.63184 21.1683 8.30465C21.0478 8.3649 20.9876 8.40506 20.9374 8.40506C20.8872 8.40506 20.847 8.35485 20.7466 8.21426C20.596 8.02346 20.4152 7.84271 20.2645 7.73225C21.4796 7.21007 22.0118 6.40673 22.0319 4.6494C21.5198 4.6494 21.3189 4.66947 21.2788 4.66947C21.1783 4.66947 21.1683 4.66948 21.1683 4.56906C21.1683 4.50881 21.1884 4.28788 21.1884 3.77575V2.66109C21.1884 2.13892 21.1683 1.92804 21.1683 1.86779C21.1683 1.76737 21.1683 1.75733 21.2788 1.75733C21.3189 1.75733 21.6101 1.77742 22.4035 1.77742H23.5281H23.5081ZM22.052 0.080337C22.1725 0.0301275 22.1825 0.0301263 22.2328 0.110461C22.4738 0.441844 22.7148 0.893731 22.8855 1.30545C22.9156 1.39583 22.9056 1.4159 22.7851 1.46611L22.2227 1.72721C22.1122 1.77742 22.0922 1.77741 22.052 1.67699C21.9014 1.26528 21.7006 0.85356 21.4495 0.461926C21.3993 0.381591 21.4093 0.361503 21.5298 0.301252L22.042 0.0702929L22.052 0.080337ZM24.5625 2.60085H22.052V3.81592H24.5625V2.60085Z" fill="#FD6C26"/>
</svg>
