<svg width="36" height="9" viewBox="0 0 36 9" fill="none" xmlns="http://www.w3.org/2000/svg">
<path d="M2.82292 7.30881C3.03849 7.45252 3.17195 7.55517 3.34646 7.69889C3.44911 7.79127 3.44909 7.85286 3.44909 7.90419C3.44909 7.95552 3.39779 7.99658 3.28487 8.01711C3.17195 8.03764 3.07956 8.06843 2.89479 8.13002C2.361 8.36612 1.64244 8.54063 0.810958 8.66381C0.728837 8.66381 0.646713 8.68434 0.615917 8.68434C0.503 8.68434 0.472193 8.62275 0.379807 8.43798C0.28742 8.24294 0.143713 8.03764 0 7.90419C0.87254 7.83233 1.66296 7.71942 2.21728 7.52438C2.34047 7.48332 2.55601 7.39093 2.70999 7.29854H2.58681C1.68348 7.29854 1.35499 7.31908 1.30367 7.31908C1.21128 7.31908 1.20104 7.31907 1.20104 7.21642C1.20104 7.15483 1.22156 6.91873 1.22156 6.36441V5.0402C1.22156 4.48588 1.20104 4.23952 1.20104 4.1882C1.20104 4.09581 1.20101 4.08554 1.30367 4.08554C1.35499 4.08554 1.6835 4.10607 2.54578 4.10607H5.74851C6.66211 4.10607 6.99057 4.08554 7.0419 4.08554C7.14455 4.08554 7.15483 4.08554 7.15483 4.1882C7.15483 4.24979 7.13431 4.48588 7.13431 5.0402V6.36441C7.13431 6.91873 7.15483 7.1651 7.15483 7.21642C7.15483 7.30881 7.15482 7.31908 7.0419 7.31908C6.99057 7.31908 6.66211 7.29854 5.74851 7.29854H2.8332L2.82292 7.30881ZM2.01197 0.174508C2.13515 0.153978 2.16596 0.153977 2.21728 0.225833C2.42259 0.492728 2.65867 0.831479 2.81265 1.15996H3.62361V0.903335C3.62361 0.472198 3.62361 0.246364 3.56202 0C3.91104 0 4.20874 0.0410604 4.53722 0.071856C4.61935 0.071856 4.68092 0.123182 4.68092 0.174508C4.68092 0.246364 4.6604 0.297691 4.62961 0.359282C4.58855 0.451668 4.57826 0.615911 4.57826 0.964928V1.13944H5.47133C5.56371 0.985458 5.62532 0.841744 5.70744 0.656971C5.75876 0.523524 5.81008 0.379812 5.86141 0.164243C6.16937 0.215569 6.47732 0.287426 6.75448 0.369547C6.82633 0.400343 6.87768 0.441402 6.87768 0.492728C6.87768 0.564585 6.8366 0.605645 6.78527 0.656971C6.71341 0.708297 6.66211 0.790419 6.61078 0.862275C6.55945 0.964927 6.49786 1.05731 6.44653 1.13944H6.77503C7.64757 1.13944 7.95552 1.1189 8.02738 1.1189C8.11977 1.1189 8.13004 1.11891 8.13004 1.22156C8.13004 1.27288 8.10949 1.43713 8.10949 1.66296V2.03251C8.10949 2.82292 8.13004 2.95637 8.13004 2.99743C8.13004 3.10008 8.13003 3.11035 8.02738 3.11035H7.29853C7.20614 3.11035 7.1959 3.11035 7.1959 2.99743V1.84773H1.17021V2.99743C1.17021 3.08982 1.17024 3.10009 1.06759 3.10009H0.349012C0.246361 3.10009 0.23611 3.10008 0.23611 2.99743C0.23611 2.94611 0.25663 2.81266 0.25663 2.03251V1.74508C0.25663 1.44739 0.23611 1.29341 0.23611 1.23182C0.23611 1.13944 0.236095 1.12917 0.349012 1.12917C0.400338 1.12917 0.728815 1.1497 1.59109 1.1497H1.84772C1.71427 0.913602 1.55005 0.646707 1.38581 0.441403C1.32421 0.359282 1.33448 0.307956 1.44739 0.287426L2.03252 0.174508H2.01197ZM5.15311 2.21728C5.98459 2.21728 6.2823 2.19675 6.33363 2.19675C6.43628 2.19675 6.44653 2.19675 6.44653 2.2994C6.44653 2.35073 6.42601 2.46364 6.42601 2.79213V3.18221C6.42601 3.51069 6.44653 3.61335 6.44653 3.67494C6.44653 3.77759 6.44655 3.78785 6.33363 3.78785C6.2823 3.78785 5.98459 3.76732 5.15311 3.76732H3.19246C2.37124 3.76732 2.07356 3.78785 2.01197 3.78785C1.91958 3.78785 1.90931 3.78785 1.90931 3.67494C1.90931 3.62361 1.92986 3.51069 1.92986 3.18221V2.79213C1.92986 2.46364 1.90931 2.37126 1.90931 2.2994C1.90931 2.20701 1.90932 2.19675 2.01197 2.19675C2.07356 2.19675 2.37124 2.21728 3.19246 2.21728H5.15311ZM2.16594 5.02994H6.15911V4.69119H2.16594V5.02994ZM6.15911 5.86142V5.52267H2.16594V5.86142H6.15911ZM6.15911 6.35415H2.16594V6.70316H6.15911V6.35415ZM2.76134 3.18221H5.56374V2.78186H2.76134V3.18221ZM5.35843 7.38066C5.45081 7.28828 5.48161 7.28828 5.55347 7.32934C6.31309 7.65783 7.23694 7.83233 8.29425 7.92472C8.17107 8.0479 8.03765 8.26347 7.935 8.45851C7.84261 8.64329 7.80154 8.69461 7.69889 8.69461C7.64756 8.69461 7.60649 8.69461 7.49357 8.67408C6.53891 8.54063 5.65611 8.3148 4.96834 7.92472C4.88622 7.8734 4.89648 7.8426 4.98886 7.75021L5.35843 7.39093V7.38066Z" fill="#FD6C26"/>
<path d="M10.4807 6.15895C9.64923 6.15895 9.36182 6.17948 9.3105 6.17948C9.21811 6.17948 9.21811 6.17948 9.21811 6.07683V5.35827C9.21811 5.25561 9.21811 5.24535 9.3105 5.24535C9.36182 5.24535 9.64923 5.26588 10.4807 5.26588H14.8126C14.8537 4.95792 14.8742 4.60891 14.905 4.21883H11.5278C11.4765 4.37281 11.4251 4.51652 11.3635 4.6705C11.3225 4.76288 11.3122 4.76289 11.1787 4.75262L10.4397 4.6397C10.296 4.61917 10.2754 4.57811 10.3165 4.47546C10.84 3.21284 11.1993 1.97075 11.4046 0.91344C11.4662 0.523363 11.497 0.307795 11.5072 0.0922262C11.8973 0.133287 12.2053 0.184613 12.5337 0.256469C12.6569 0.287265 12.698 0.328324 12.698 0.389915C12.698 0.451507 12.6569 0.513098 12.6056 0.574689C12.544 0.656811 12.4824 0.851849 12.3901 1.24193L12.3593 1.35484H15.5312C16.4037 1.35484 16.6911 1.33431 16.7527 1.33431C16.8451 1.33431 16.8554 1.33431 16.8554 1.43696V2.16579C16.8554 2.25818 16.8554 2.26844 16.7527 2.26844C16.7014 2.26844 16.4037 2.24791 15.5312 2.24791H12.1334C12.041 2.6072 11.9384 2.95621 11.8254 3.32576H14.6997C15.5414 3.32576 15.8186 3.30523 15.8699 3.30523C15.9623 3.30523 15.9931 3.33602 15.9931 3.42841L15.911 4.42413L15.8494 5.25561H16.3319C17.1531 5.25561 17.4405 5.23508 17.4918 5.23508C17.5842 5.23508 17.5842 5.23508 17.5842 5.348V6.06656C17.5842 6.15895 17.5842 6.16921 17.4918 6.16921C17.4405 6.16921 17.1531 6.14869 16.3319 6.14869H15.7468C15.6749 6.66194 15.5825 7.07255 15.4696 7.4421C15.2129 8.20172 14.7305 8.48915 13.9196 8.48915C13.6732 8.48915 13.3755 8.48915 13.047 8.45835C12.7596 8.45835 12.7493 8.45835 12.6877 8.15039C12.6364 7.8835 12.544 7.6166 12.4311 7.42157C13.0059 7.49342 13.3242 7.51395 13.7656 7.51395C14.1146 7.51395 14.361 7.48315 14.4842 7.10334C14.556 6.86724 14.6381 6.55929 14.6997 6.14869H10.491L10.4807 6.15895Z" fill="#FD6C26"/>
<path d="M21.1668 1.69355C21.8751 1.69355 22.1112 1.67302 22.1728 1.67302C22.2549 1.67302 22.2651 1.67302 22.2651 1.77568V2.44291C22.2651 2.54556 22.2652 2.55583 22.1728 2.55583C22.1214 2.55583 21.8854 2.5353 21.1668 2.5353H19.4422C18.7236 2.5353 18.4978 2.55583 18.4465 2.55583C18.3541 2.55583 18.3439 2.55583 18.3439 2.44291V1.77568C18.3439 1.68329 18.3438 1.67302 18.4465 1.67302C18.4876 1.67302 18.7236 1.69355 19.4422 1.69355H21.1668ZM21.8751 7.04172C21.8751 8.12982 21.8956 8.33513 21.8956 8.39672C21.8956 8.48911 21.8956 8.49937 21.793 8.49937H21.0538C20.9614 8.49937 20.9512 8.49937 20.9512 8.39672V8.09903H19.7604V8.57123C19.7604 8.66361 19.7604 8.67388 19.6578 8.67388H18.9289C18.8263 8.67388 18.816 8.67388 18.816 8.57123C18.816 8.50963 18.8366 8.29407 18.8366 7.1649V6.54899C18.8366 5.95361 18.816 5.73804 18.816 5.66618C18.816 5.57379 18.816 5.56353 18.9289 5.56353C18.9803 5.56353 19.1856 5.58406 19.781 5.58406H20.9307C21.526 5.58406 21.7314 5.56353 21.793 5.56353C21.8853 5.56353 21.8956 5.56353 21.8956 5.66618C21.8956 5.71751 21.8751 5.94334 21.8751 6.38474V7.05198V7.04172ZM20.9718 0.430938C21.5671 0.430938 21.7621 0.410407 21.8134 0.410407C21.9161 0.410407 21.9264 0.410408 21.9264 0.513059V1.12897C21.9264 1.22136 21.9264 1.23162 21.8134 1.23162C21.7621 1.23162 21.5671 1.21109 20.9718 1.21109H19.8015C19.1959 1.21109 19.0008 1.23162 18.9495 1.23162C18.8571 1.23162 18.8469 1.23162 18.8469 1.12897V0.513059C18.8469 0.420673 18.8468 0.410407 18.9495 0.410407C19.0008 0.410407 19.1959 0.430938 19.8015 0.430938H20.9718ZM20.8691 3.02803C21.4337 3.02803 21.5979 3.0075 21.6595 3.0075C21.7622 3.0075 21.7724 3.0075 21.7724 3.11015V3.71579C21.7724 3.80818 21.7724 3.81845 21.6595 3.81845C21.6082 3.81845 21.4337 3.79792 20.8691 3.79792H19.8323C19.2574 3.79792 19.0932 3.81845 19.0316 3.81845C18.9392 3.81845 18.9289 3.81845 18.9289 3.71579V3.11015C18.9289 3.01776 18.929 3.0075 19.0316 3.0075C19.083 3.0075 19.2574 3.02803 19.8323 3.02803H20.8691ZM20.8691 4.29065C21.4337 4.29065 21.5979 4.27012 21.6595 4.27012C21.7622 4.27012 21.7724 4.27011 21.7724 4.37277V4.96815C21.7724 5.06054 21.7724 5.0708 21.6595 5.0708C21.6082 5.0708 21.4337 5.05027 20.8691 5.05027H19.8323C19.2574 5.05027 19.0932 5.0708 19.0316 5.0708C18.9392 5.0708 18.9289 5.0708 18.9289 4.96815V4.37277C18.9289 4.28038 18.929 4.27012 19.0316 4.27012C19.083 4.27012 19.2574 4.29065 19.8323 4.29065H20.8691ZM19.7502 6.36421V7.29835H20.9409V6.36421H19.7502ZM24.0205 1.46772C24.0205 0.800485 24.0205 0.523324 23.9486 0.0511254C24.3079 0.0511254 24.6672 0.0819224 24.9751 0.112718C25.0675 0.112718 25.1291 0.164042 25.1291 0.215368C25.1291 0.276959 25.0984 0.328285 25.0778 0.400142C25.0265 0.513059 25.0162 0.749158 25.0162 1.43693V3.12042H25.6116C26.4636 3.12042 26.7613 3.09989 26.8024 3.09989C26.905 3.09989 26.9153 3.09988 26.9153 3.2128V3.97242C26.9153 4.06481 26.9153 4.07508 26.8024 4.07508C26.751 4.07508 26.4636 4.05455 25.6116 4.05455H25.0162V6.88774C25.0162 7.94505 25.0367 8.47884 25.0367 8.53017C25.0367 8.63282 25.0368 8.64308 24.9444 8.64308H24.1026C24.0205 8.64308 24.0102 8.64308 24.0102 8.53017C24.0102 8.47884 24.0308 7.94505 24.0308 6.898V4.05455H23.5072C22.6552 4.05455 22.3575 4.07508 22.3062 4.07508C22.2036 4.07508 22.1933 4.07508 22.1933 3.97242V3.2128C22.1933 3.11015 22.1933 3.09989 22.3062 3.09989C22.3575 3.09989 22.6552 3.12042 23.5072 3.12042H24.0308V1.45746L24.0205 1.46772Z" fill="#FD6C26"/>
<path d="M32.6844 1.47795C32.5407 1.71405 32.3867 1.92961 32.2019 2.13492C32.0993 2.24783 32.0479 2.29916 31.9966 2.29916C31.9453 2.29916 31.8939 2.24783 31.781 2.14518C31.6168 2.01173 31.4525 1.91935 31.278 1.85776C31.4115 1.73457 31.5244 1.61139 31.6271 1.47795C31.6066 1.47795 31.586 1.47795 31.5552 1.47795C31.5039 1.47795 31.2678 1.45742 30.5903 1.45742C30.6827 1.61139 30.7648 1.76537 30.8572 1.93988C30.9085 2.022 30.8982 2.04253 30.7648 2.07333L30.1694 2.21704C30.0154 2.2581 30.0051 2.24783 29.9846 2.15545C29.9025 1.91935 29.8101 1.68325 29.6972 1.46768H29.1942C28.9478 1.84749 28.6501 2.18624 28.3114 2.50446C28.2087 2.59685 28.1471 2.64818 28.1061 2.64818C28.0547 2.64818 28.0137 2.58658 27.9213 2.45314C27.7879 2.26836 27.6339 2.10412 27.5005 2.01173C28.0548 1.52927 28.4756 1.04681 28.7528 0.471957C28.8144 0.348774 28.876 0.194798 28.9273 0.0100246C29.1942 0.0408201 29.5638 0.0921452 29.7588 0.143471C29.8615 0.164001 29.9025 0.194797 29.9025 0.246123C29.9025 0.297449 29.8615 0.348775 29.8101 0.400101C29.7691 0.441161 29.728 0.482223 29.6664 0.605405C29.6459 0.656731 29.6253 0.697791 29.6048 0.749117H30.5082C31.2883 0.749117 31.5347 0.728586 31.586 0.728586C31.6784 0.728586 31.6887 0.728587 31.6887 0.831238V1.38556C31.6887 1.38556 31.6887 1.44715 31.6887 1.45742C31.935 1.16999 32.1095 0.862035 32.2532 0.523284C32.3251 0.369306 32.3867 0.205063 32.4277 0.02029C32.6946 0.0510856 33.0539 0.0921452 33.2489 0.143471C33.3516 0.164001 33.3824 0.194797 33.3824 0.235858C33.3824 0.287184 33.3618 0.33851 33.3003 0.400101C33.2387 0.461692 33.2181 0.492488 33.1771 0.61567L33.1155 0.759382H34.6245C35.5073 0.759382 35.805 0.738852 35.8665 0.738852C35.9589 0.738852 35.9692 0.738852 35.9692 0.841504V1.39582C35.9692 1.48821 35.9692 1.49847 35.8665 1.49847C35.8152 1.49847 35.5073 1.47795 34.6245 1.47795H34.2344C34.3165 1.62166 34.3987 1.7551 34.4808 1.92961C34.5218 2.022 34.5116 2.04253 34.3781 2.07333L33.7827 2.21704C33.6493 2.24783 33.6288 2.23757 33.6083 2.14518C33.5261 1.93988 33.4337 1.70378 33.3105 1.48821H32.746L32.6844 1.47795ZM28.8862 7.20592C28.065 7.20592 27.7673 7.22645 27.716 7.22645C27.6236 7.22645 27.6134 7.22645 27.6134 7.12379V6.52842C27.6134 6.42576 27.6133 6.4155 27.716 6.4155C27.7673 6.4155 28.065 6.43603 28.8862 6.43603H30.0359C30.0667 6.28205 30.077 6.12807 30.0873 5.9433C29.3277 5.9433 29.03 5.96383 28.9787 5.96383C28.876 5.96383 28.8657 5.96383 28.8657 5.86118C28.8657 5.79959 28.8862 5.55322 28.8862 4.93731V3.35647C28.8862 2.76109 28.8657 2.4942 28.8657 2.43261C28.8657 2.34022 28.8657 2.32996 28.9787 2.32996C29.03 2.32996 29.3687 2.35049 30.2618 2.35049H33.3105C34.2241 2.35049 34.5424 2.32996 34.604 2.32996C34.6963 2.32996 34.7066 2.32996 34.7066 2.43261C34.7066 2.4942 34.6861 2.76109 34.6861 3.35647V4.93731C34.6861 5.54296 34.7066 5.79959 34.7066 5.86118C34.7066 5.95356 34.7066 5.96383 34.604 5.96383C34.5424 5.96383 34.2549 5.96383 33.5261 5.9433V6.43603H34.7374C35.5586 6.43603 35.8563 6.4155 35.9076 6.4155C35.9898 6.4155 36 6.4155 36 6.52842V7.12379C36 7.21618 36 7.22645 35.9076 7.22645C35.8563 7.22645 35.5586 7.20592 34.7374 7.20592H33.5261V7.68838C33.5261 8.2427 33.5467 8.5096 33.5467 8.55066C33.5467 8.64304 33.5466 8.65331 33.4337 8.65331H32.7254C32.633 8.65331 32.6228 8.65331 32.6228 8.55066C32.6228 8.49933 32.6433 8.2427 32.6433 7.68838V7.20592H30.7442C30.4671 7.86289 29.9333 8.31456 28.8965 8.61225C28.7939 8.64304 28.722 8.66357 28.6604 8.66357C28.5783 8.66357 28.5372 8.61225 28.4654 8.46853C28.3422 8.2427 28.219 8.09899 28.0445 7.95528C28.917 7.78077 29.4303 7.5652 29.7383 7.20592H28.8965H28.8862ZM29.7999 3.00746V3.39754H33.7827V3.00746H29.7999ZM33.7827 4.36246V3.97238H29.7999V4.36246H33.7827ZM33.7827 4.94758H29.7999V5.33765H33.7827V4.94758ZM32.6331 6.44629V5.95356H30.9701C30.9701 6.12807 30.9495 6.29231 30.929 6.44629H32.6228H32.6331Z" fill="#FD6C26"/>
</svg>
