<svg width="85" height="66" viewBox="0 0 85 66" fill="none" xmlns="http://www.w3.org/2000/svg">
<path d="M44.7534 33.0194C44.7534 44.2003 42.9223 52.4813 39.2601 57.8475C35.5979 63.2212 29.9552 65.9043 22.3318 65.9043C14.7085 65.9043 9.37967 63.1315 5.6278 57.5859C1.87593 52.0404 0 43.849 0 33.0194C0 22.1898 1.82362 13.3931 5.47085 8.03438C9.12556 2.67564 14.7459 0 22.3318 0C29.9178 0 35.299 2.80269 39.0807 8.40807C42.8625 14.0135 44.7534 22.2197 44.7534 33.0194ZM13.4454 33.0194C13.4454 40.8744 14.1256 46.5022 15.4783 49.9028C16.8386 53.3034 19.1181 55.0075 22.3318 55.0075C25.5456 55.0075 27.7653 53.2885 29.1629 49.843C30.568 46.3976 31.2631 40.7922 31.2631 33.0269C31.2631 25.2616 30.5531 19.5291 29.1405 16.0987C27.7205 12.6682 25.4559 10.9567 22.3318 10.9567C19.2078 10.9567 16.8685 12.6682 15.5007 16.0987C14.1256 19.5291 13.4454 25.1719 13.4454 33.0269V33.0194Z" fill="#333333"/>
<path d="M85 65.0297H71.4649V27.9819L71.5994 21.8982L71.8161 15.239C69.5665 17.4886 68.0045 18.961 67.1301 19.6635L59.7758 25.5753L53.2511 17.4288L73.8789 1.00879H85V65.0297Z" fill="#333333"/>
</svg>
