<svg width="36" height="9" viewBox="0 0 36 9" fill="none" xmlns="http://www.w3.org/2000/svg">
<path d="M7.98978 8.1737C7.91835 8.33696 7.88774 8.39819 7.82651 8.39819C7.77549 8.39819 7.72448 8.35737 7.61224 8.28594C5.82652 7.14309 4.74488 5.54105 4.31631 3.82676C3.82651 5.79615 2.64284 7.32677 0.938758 8.29616C0.836717 8.35738 0.775502 8.38799 0.724481 8.38799C0.663257 8.38799 0.622448 8.32676 0.540815 8.1635C0.37755 7.89819 0.193878 7.70431 0 7.54105C2.44898 6.39819 3.64285 4.07165 3.63265 1.45941C3.63265 1.05125 3.61224 0.6533 3.57143 0.245137C3.93878 0.265545 4.37755 0.306362 4.71428 0.357383C4.83673 0.377791 4.88773 0.428805 4.88773 0.510438C4.88773 0.612478 4.83672 0.673699 4.7959 0.745127C4.73468 0.836964 4.72449 1.06146 4.72449 1.35738C4.72449 1.46962 4.72449 1.58187 4.72449 1.69411C5.12245 4.42881 6.2959 6.23493 8.5306 7.44922C8.31631 7.6533 8.14283 7.90839 8.01018 8.1737H7.98978Z" fill="#FD6C26"/>
<path d="M10.449 5.91837C9.63264 5.91837 9.35714 5.93877 9.30612 5.93877C9.22449 5.93877 9.21428 5.93878 9.21428 5.83674V5.27551C9.21428 5.18367 9.21428 5.17346 9.30612 5.17346C9.36734 5.17346 9.64285 5.19387 10.449 5.19387H12.949V4.75511H11.4082C10.5 4.75511 10.1939 4.7755 10.1429 4.7755C10.051 4.7755 10.0408 4.77551 10.0408 4.68367V4.17347C10.0408 4.08163 10.0408 4.07143 10.1429 4.07143C10.1939 4.07143 10.5102 4.09183 11.4082 4.09183H12.949V3.68367H11.7449C10.8265 3.68367 10.5 3.70409 10.449 3.70409C10.3469 3.70409 10.3367 3.70409 10.3367 3.59184C10.3367 3.53062 10.3571 3.41836 10.3571 3.10203V2.60204C10.3571 2.29592 10.3367 2.17346 10.3367 2.11224C10.3367 2.0102 10.3367 2.00001 10.449 2.00001C10.5 2.00001 10.8265 2.0204 11.7449 2.0204H12.949V1.61225H10.602C9.76529 1.61225 9.46937 1.63266 9.41835 1.63266C9.32651 1.63266 9.31633 1.63265 9.31633 1.53061V0.938774C9.31633 0.846937 9.31631 0.836727 9.41835 0.836727C9.46937 0.836727 9.76529 0.857139 10.602 0.857139H12.949C12.949 0.479588 12.9286 0.265306 12.8878 0C13.2347 0 13.5306 0.0204113 13.8571 0.0510235C13.9388 0.0510235 14.0102 0.102035 14.0102 0.153055C14.0102 0.224484 13.9796 0.275502 13.949 0.326523C13.9081 0.428563 13.898 0.540818 13.898 0.846941H16.2653C17.102 0.846941 17.3979 0.826528 17.449 0.826528C17.5408 0.826528 17.551 0.826534 17.551 0.928575V1.52041C17.551 1.61225 17.551 1.62245 17.449 1.62245C17.3979 1.62245 17.102 1.60203 16.2653 1.60203H13.898V2.01021H15.1429C16.0612 2.01021 16.3878 1.98979 16.449 1.98979C16.5408 1.98979 16.551 1.98979 16.551 2.10204C16.551 2.15306 16.5306 2.2755 16.5306 2.59183V3.09184C16.5306 3.39796 16.551 3.5204 16.551 3.58163C16.551 3.68367 16.551 3.69387 16.449 3.69387C16.3878 3.69387 16.0612 3.67348 15.1429 3.67348H13.898V4.08163H15.4081C16.3265 4.08163 16.653 4.06122 16.6939 4.06122C16.7857 4.06122 16.7959 4.06123 16.7959 4.16327C16.7959 4.21429 16.7755 4.43877 16.7755 4.96938V5.18368C17.3265 5.18368 17.5408 5.16326 17.5918 5.16326C17.6735 5.16326 17.6837 5.16327 17.6837 5.26531V5.82654C17.6837 5.91837 17.6837 5.92857 17.5918 5.92857C17.5408 5.92857 17.3265 5.92856 16.7755 5.90816V6.38775C16.7755 6.94897 16.7959 7.19388 16.7959 7.2449C16.7959 7.33674 16.7959 7.34694 16.6939 7.34694H15.9796C15.8878 7.34694 15.8775 7.34695 15.8775 7.2449V7.04081H13.9082C13.9082 7.20408 13.9082 7.36735 13.9082 7.5102C13.9082 7.93878 13.8265 8.19388 13.5714 8.33673C13.3367 8.46939 12.9286 8.53061 12.2551 8.54081C11.9796 8.54081 11.9796 8.54082 11.8775 8.26531C11.7959 8.03062 11.6735 7.77551 11.5102 7.56123C11.8571 7.60204 12.102 7.61224 12.449 7.60204C12.8469 7.60204 12.9388 7.53061 12.9388 7.2551V7.04081H11.4082C10.4898 7.04081 10.1837 7.06122 10.1326 7.06122C10.0408 7.06122 10.0306 7.06122 10.0306 6.94898V6.44897C10.0306 6.34693 10.0306 6.33674 10.1326 6.33674C10.1837 6.33674 10.5 6.35714 11.4082 6.35714H12.9388V5.91837H10.4388H10.449ZM12.949 3.07142V2.60204H11.2653V3.07142H12.949ZM15.6122 2.60204H13.8877V3.07142H15.6122V2.60204ZM13.8877 4.74489V5.18368H15.8673V4.74489H13.8877ZM15.8673 6.34694V5.90816H13.8877V6.34694H15.8673Z" fill="#FD6C26"/>
<path d="M20.5204 1.65318C21.2347 1.65318 21.4592 1.63278 21.5204 1.63278C21.6122 1.63278 21.6225 1.63277 21.6225 1.73482V2.39809C21.6225 2.50013 21.6224 2.51034 21.5204 2.51034C21.4694 2.51034 21.2449 2.48992 20.5204 2.48992H19.449C18.7449 2.48992 18.5102 2.51034 18.4592 2.51034C18.3673 2.51034 18.3571 2.51033 18.3571 2.39809V1.73482C18.3571 1.64298 18.3571 1.63278 18.4592 1.63278C18.5102 1.63278 18.7347 1.65318 19.449 1.65318H20.5204ZM21.3877 6.85727C21.3877 7.9389 21.4081 8.14298 21.4081 8.2042C21.4081 8.29604 21.4082 8.30625 21.3061 8.30625H20.6428C20.551 8.30625 20.5408 8.30624 20.5408 8.2042V7.95931H19.602V8.37768C19.602 8.46952 19.602 8.47971 19.5 8.47971H18.8367C18.7347 8.47971 18.7245 8.47972 18.7245 8.37768C18.7245 8.31646 18.7449 8.10217 18.7449 6.96951V6.40829C18.7449 5.82665 18.7245 5.59196 18.7245 5.53074C18.7245 5.4389 18.7245 5.42869 18.8367 5.42869C18.8877 5.42869 19.0918 5.4491 19.6837 5.4491H20.449C21.051 5.4491 21.2449 5.42869 21.3061 5.42869C21.398 5.42869 21.4081 5.42869 21.4081 5.53074C21.4081 5.59196 21.3877 5.81645 21.3877 6.24502V6.84707V6.85727ZM20.4796 0.398083C21.0816 0.398083 21.2653 0.377671 21.3163 0.377671C21.4184 0.377671 21.4286 0.377677 21.4286 0.479718V1.10217C21.4286 1.194 21.4286 1.2042 21.3163 1.2042C21.2551 1.2042 21.0816 1.1838 20.4796 1.1838H19.6939C19.0918 1.1838 18.898 1.2042 18.8469 1.2042C18.7551 1.2042 18.7449 1.20421 18.7449 1.10217V0.479718C18.7449 0.387881 18.7449 0.377671 18.8469 0.377671C18.9082 0.377671 19.0918 0.398083 19.6939 0.398083H20.4796ZM20.3979 2.96952C20.9694 2.96952 21.1326 2.9491 21.1939 2.9491C21.2857 2.9491 21.2959 2.94911 21.2959 3.05115V3.64297C21.2959 3.73481 21.2959 3.74502 21.1939 3.74502C21.1326 3.74502 20.9694 3.72461 20.3979 3.72461H19.7347C19.1633 3.72461 19 3.74502 18.9388 3.74502C18.8469 3.74502 18.8367 3.74501 18.8367 3.64297V3.05115C18.8367 2.95931 18.8367 2.9491 18.9388 2.9491C19 2.9491 19.1633 2.96952 19.7347 2.96952H20.3979ZM20.3979 4.2042C20.9694 4.2042 21.1326 4.1838 21.1939 4.1838C21.2857 4.1838 21.2959 4.1838 21.2959 4.28584V4.88787C21.2959 4.96951 21.2959 4.97972 21.1939 4.97972C21.1326 4.97972 20.9694 4.95931 20.3979 4.95931H19.7347C19.1633 4.95931 19 4.97972 18.9388 4.97972C18.8469 4.97972 18.8367 4.97971 18.8367 4.88787V4.28584C18.8367 4.194 18.8367 4.1838 18.9388 4.1838C19 4.1838 19.1633 4.2042 19.7347 4.2042H20.3979ZM19.5918 6.22462V7.18379H20.5306V6.22462H19.5918ZM23.0204 5.48993C22.1327 5.48993 21.8367 5.51032 21.7755 5.51032C21.6837 5.51032 21.6735 5.51032 21.6735 5.39808V4.6736C21.6735 4.58176 21.6735 4.57155 21.7755 4.57155C21.8265 4.57155 22.1327 4.59196 23.0204 4.59196H23.7347V1.31644H23.2041C22.3571 1.31644 22.0612 1.33686 22.0102 1.33686C21.9183 1.33686 21.9082 1.33686 21.9082 1.24502V0.530741C21.9082 0.438904 21.9081 0.428694 22.0102 0.428694C22.0612 0.428694 22.3571 0.449107 23.2041 0.449107H25.3673C26.2245 0.449107 26.5102 0.428694 26.5714 0.428694C26.6632 0.428694 26.6735 0.4287 26.6735 0.530741V1.24502C26.6735 1.32666 26.6734 1.33686 26.5714 1.33686C26.5204 1.33686 26.2245 1.31644 25.3673 1.31644H24.6837V4.59196H25.5408C26.4184 4.59196 26.7245 4.57155 26.7755 4.57155C26.8673 4.57155 26.8775 4.57156 26.8775 4.6736V5.39808C26.8775 5.50012 26.8775 5.51032 26.7755 5.51032C26.7245 5.51032 26.4184 5.48993 25.5408 5.48993H24.6837V7.51033C24.6837 8.12257 24.7041 8.4185 24.7041 8.46952C24.7041 8.56135 24.7041 8.57155 24.5918 8.57155H23.8163C23.7245 8.57155 23.7143 8.57156 23.7143 8.46952C23.7143 8.40829 23.7347 8.12257 23.7347 7.51033V5.48993H23.0204ZM22.5306 1.80625C22.6428 1.76544 22.6734 1.75522 22.7143 1.85726C22.9898 2.42869 23.1939 3.01033 23.3367 3.65319C23.3571 3.74502 23.3571 3.77564 23.2245 3.81646L22.6735 4.01032C22.5408 4.06134 22.5204 4.06135 22.5 3.95931C22.3367 3.29605 22.1428 2.71442 21.898 2.14299C21.8571 2.05115 21.8775 2.03074 22 1.97972L22.5306 1.78584V1.80625ZM25.5918 2.194C25.6428 2.05114 25.6531 1.92869 25.6633 1.76543C25.9388 1.83686 26.3571 1.96951 26.5306 2.05114C26.602 2.09196 26.6326 2.12257 26.6326 2.16338C26.6326 2.2042 26.6122 2.23481 26.5816 2.27563C26.5306 2.32665 26.4898 2.38788 26.449 2.50012C26.2857 2.95931 26.1122 3.41849 25.8571 3.9389C25.8061 4.08176 25.7755 4.14298 25.7041 4.14298C25.6531 4.14298 25.5918 4.10217 25.4796 4.05115C25.3163 3.97972 25.0714 3.89808 24.9184 3.86746C25.2245 3.27563 25.4592 2.67359 25.5918 2.194Z" fill="#FD6C26"/>
<path d="M28.2551 5.10204C28.2551 4.76531 28.2551 4.34693 28.2551 3.94897C28.1122 4.15306 27.9592 4.34695 27.7857 4.55103C27.7143 4.63266 27.653 4.68367 27.6224 4.68367C27.5612 4.68367 27.5408 4.63265 27.5204 4.5204C27.4592 4.20407 27.3571 3.86735 27.2449 3.67348C27.9592 2.83674 28.4694 1.80613 28.8367 0.673473C28.8979 0.448983 28.9592 0.234694 28.9898 0C29.2959 0.0918367 29.5816 0.183671 29.8469 0.316324C29.9388 0.35714 30 0.39796 30 0.479593C30 0.540818 29.949 0.591842 29.8979 0.642862C29.8367 0.693883 29.7959 0.785714 29.7143 1.02041C29.551 1.5 29.3775 1.93877 29.1836 2.35714V7.07142C29.1836 7.97958 29.2041 8.42857 29.2041 8.47959C29.2041 8.57143 29.2041 8.58164 29.102 8.58164H28.3469C28.2551 8.58164 28.2449 8.58163 28.2449 8.47959C28.2449 8.42857 28.2653 7.97958 28.2653 7.07142V5.09184L28.2551 5.10204ZM31.3163 1.58164C30.398 1.58164 30.0918 1.60203 30.0408 1.60203C29.949 1.60203 29.9388 1.60204 29.9388 1.5V0.806116C29.9388 0.704075 29.9388 0.69387 30.0408 0.69387C30.0918 0.69387 30.4082 0.714283 31.3163 0.714283H34.6224C35.5408 0.714283 35.8469 0.69387 35.898 0.69387C35.9898 0.69387 36 0.693871 36 0.806116V1.5C36 1.59184 36 1.60203 35.898 1.60203C35.8469 1.60203 35.5306 1.58164 34.6224 1.58164H34.0306V3.02042H34.3163C35.2245 3.02042 35.551 3 35.6122 3C35.7041 3 35.7143 2.99999 35.7143 3.10203C35.7143 3.15305 35.6939 3.5204 35.6939 4.63265V6.25511C35.6939 7.89796 35.7143 8.2449 35.7143 8.29592C35.7143 8.38776 35.7143 8.39796 35.6122 8.39796H34.8878C34.7959 8.39796 34.7857 8.39796 34.7857 8.29592V7.90816H30.8775V8.33673C30.8775 8.42857 30.8776 8.43878 30.7755 8.43878H30.0612C29.9694 8.43878 29.9592 8.43877 29.9592 8.33673C29.9592 8.28571 29.9796 7.93878 29.9796 6.28572V4.81633C29.9796 3.53061 29.9592 3.17347 29.9592 3.11225C29.9592 3.02041 29.9592 3.0102 30.0612 3.0102C30.1122 3.0102 30.4388 3.03061 31.3367 3.03061H31.5816V1.59183H31.3265L31.3163 1.58164ZM31.5714 7.07142V3.83673H30.8673V7.07142H31.5714ZM33.1531 3.0102V1.57142H32.4388V3.0102H33.1531ZM33.1531 7.07142V3.83673H32.4388V7.07142H33.1531ZM34.0204 3.83673V7.07142H34.7755V3.83673H34.0204Z" fill="#FD6C26"/>
</svg>
