<svg width="35" height="9" viewBox="0 0 35 9" fill="none" xmlns="http://www.w3.org/2000/svg">
<path d="M0.102675 8.54233C0.0102732 8.54233 0 8.54232 0 8.43966C0 8.37805 0.0205539 7.7723 0.0205539 4.96943V3.13165C0.0205539 1.2836 0 0.677863 0 0.605995C0 0.513593 6.2649e-06 0.503319 0.102675 0.503319C0.164277 0.503319 0.492838 0.523873 1.40659 0.523873H4.87678C5.79054 0.523873 6.1191 0.503319 6.1807 0.503319C6.2731 0.503319 6.28338 0.503326 6.28338 0.605995C6.28338 0.657329 6.26282 1.27335 6.26282 2.82365V4.94891C6.26282 7.75178 6.28338 8.34724 6.28338 8.39858C6.28338 8.49098 6.28337 8.50125 6.1807 8.50125H5.34908C5.25668 8.50125 5.24641 8.50125 5.24641 8.39858V7.89551H1.04725V8.43966C1.04725 8.53206 1.04723 8.54233 0.934293 8.54233H0.112952H0.102675ZM1.03697 2.65938H5.23613V1.42737H1.03697V2.65938ZM5.23613 4.79491V3.55259H1.03697V4.79491H5.23613ZM5.23613 6.98174V5.68813H1.03697V6.98174H5.23613Z" fill="#FD6C26"/>
<path d="M8.92195 2.73107C8.3162 2.73107 8.13142 2.75159 8.08009 2.75159C7.98769 2.75159 7.97741 2.75158 7.97741 2.64891V1.99185C7.97741 1.89944 7.97742 1.88917 8.08009 1.88917C8.13142 1.88917 8.3162 1.90972 8.92195 1.90972H9.0657V1.31423C9.0657 0.749546 9.06571 0.431271 9.0041 0.0616616C9.35318 0.0616616 9.6201 0.0924599 9.91784 0.123261C9.99998 0.143794 10.0719 0.174601 10.0719 0.225936C10.0719 0.297804 10.041 0.349131 10.0102 0.410733C9.96917 0.533936 9.94864 0.677668 9.94864 1.30395V1.89945C10.4415 1.89945 10.5955 1.87889 10.6571 1.87889C10.7597 1.87889 10.77 1.8789 10.77 1.98157V2.63867C10.77 2.73107 10.77 2.74134 10.6571 2.74134C10.6057 2.74134 10.4517 2.74132 10.0205 2.72079C10.2156 3.3368 10.5852 3.9323 10.9651 4.40458C10.8419 4.56885 10.7392 4.76391 10.6571 4.96925C10.6057 5.08218 10.5852 5.1438 10.5339 5.1438C10.5031 5.1438 10.4723 5.10272 10.4209 5.01032C10.2361 4.66125 10.0513 4.29164 9.92812 3.86043C9.92812 6.34503 9.98972 8.38813 9.98972 8.53187C9.98972 8.62427 9.98972 8.63454 9.89732 8.63454H9.14782C9.05542 8.63454 9.04518 8.63454 9.04518 8.53187C9.04518 8.38813 9.09651 6.56062 9.10678 4.3943C8.93224 5.11298 8.68582 5.74954 8.35728 6.32449C8.30595 6.42715 8.26488 6.48876 8.22381 6.48876C8.18274 6.48876 8.15193 6.4477 8.12113 6.33476C8.039 6.05756 7.90555 5.79059 7.79262 5.63659C8.3573 4.81524 8.74743 3.88095 9.0041 2.72079H8.9425L8.92195 2.73107ZM11.4887 6.80703C11.5811 6.6941 11.653 6.57088 11.7351 6.40661C11.9815 6.48874 12.2279 6.59142 12.4435 6.70436C12.5154 6.74542 12.5462 6.76597 12.5462 6.81731C12.5462 6.86864 12.5154 6.90968 12.464 6.95075C12.3922 7.00209 12.3409 7.05343 12.2793 7.1561C11.9712 7.57705 11.694 7.88506 11.2526 8.25467C11.1499 8.33681 11.0883 8.38815 11.0369 8.38815C10.9856 8.38815 10.9343 8.3368 10.8213 8.21359C10.6673 8.04932 10.4825 7.91585 10.3388 7.82345C10.8624 7.50517 11.2423 7.1561 11.5092 6.79675L11.4887 6.80703ZM12.0534 6.23209C11.1396 6.23209 10.8316 6.25261 10.7803 6.25261C10.6776 6.25261 10.6673 6.2526 10.6673 6.14993V5.56474C10.6673 5.46207 10.6673 5.45179 10.7803 5.45179C10.8316 5.45179 11.1499 5.47231 12.0534 5.47231H15.154C16.078 5.47231 16.3963 5.45179 16.4373 5.45179C16.5297 5.45179 16.54 5.45181 16.54 5.56474V6.14993C16.54 6.24234 16.54 6.25261 16.4373 6.25261C16.386 6.25261 16.0677 6.23209 15.154 6.23209H14.0144V6.56064C14.0144 6.93024 14.0349 7.29984 14.0349 7.63865C14.0349 8.02879 13.9733 8.22387 13.7577 8.38815C13.5832 8.53188 13.3367 8.57294 12.731 8.57294C12.5462 8.57294 12.4298 8.48052 12.3819 8.29572C12.3306 8.09038 12.2587 7.89531 12.1663 7.72077C12.4435 7.76184 12.6591 7.77212 12.8234 7.77212C13.0287 7.77212 13.1314 7.63865 13.1314 7.44358V6.22181H12.0534V6.23209ZM12.1047 1.20131C11.1909 1.20131 10.8829 1.22183 10.8316 1.22183C10.7392 1.22183 10.7289 1.22181 10.7289 1.10888V0.513408C10.7289 0.421006 10.7289 0.410733 10.8316 0.410733C10.8932 0.410733 11.2012 0.431287 12.1047 0.431287H15.1027C16.0164 0.431287 16.3347 0.410733 16.386 0.410733C16.4682 0.410733 16.4784 0.410739 16.4784 0.513408V1.10888C16.4784 1.21154 16.4784 1.22183 16.386 1.22183C16.3244 1.22183 16.0061 1.20131 15.1027 1.20131H14.6201V1.79677H14.7741C15.6571 1.79677 15.9651 1.77625 16.0267 1.77625C16.1191 1.77625 16.1293 1.77622 16.1293 1.87889C16.1293 1.93023 16.1088 2.08424 16.1088 2.49492V3.09041C16.1088 3.50109 16.1293 3.6551 16.1293 3.70643C16.1293 3.8091 16.1293 3.81936 16.0267 3.81936C15.9651 3.81936 15.6468 3.79883 14.7741 3.79883H12.3922C11.5092 3.79883 11.2012 3.81936 11.1499 3.81936C11.0575 3.81936 11.0472 3.81937 11.0472 3.70643C11.0472 3.6551 11.0677 3.50109 11.0677 3.09041V2.49492C11.0677 2.08424 11.0472 1.9405 11.0472 1.87889C11.0472 1.78649 11.0472 1.77625 11.1499 1.77625C11.2012 1.77625 11.499 1.79677 12.3819 1.79677H12.5154V1.20131H12.115H12.1047ZM12.5872 5.01032C11.7659 5.01032 11.4682 5.03084 11.4168 5.03084C11.3244 5.03084 11.3142 5.03084 11.3142 4.92817V4.35322C11.3142 4.26082 11.3142 4.25058 11.4168 4.25058C11.4682 4.25058 11.7659 4.2711 12.5872 4.2711H14.5893C15.4312 4.2711 15.7187 4.25058 15.77 4.25058C15.8624 4.25058 15.8727 4.25056 15.8727 4.35322V4.92817C15.8727 5.02057 15.8727 5.03084 15.77 5.03084C15.7187 5.03084 15.4312 5.01032 14.5893 5.01032H12.5872ZM12.5154 3.16226V2.45387H11.848V3.16226H12.5154ZM13.8809 1.20131H13.2854V1.79677H13.8809V1.20131ZM13.2854 3.16226H13.8809V2.45387H13.2854V3.16226ZM15.1027 6.47848C15.2053 6.41688 15.2258 6.41688 15.2772 6.47848C15.6365 6.91996 16.0985 7.31011 16.6735 7.63865C16.5195 7.78239 16.3963 7.93639 16.2731 8.1212C16.1909 8.2752 16.1396 8.33679 16.0985 8.33679C16.0575 8.33679 15.9856 8.28545 15.8829 8.20332C15.4004 7.81317 14.9589 7.38197 14.6098 6.89943C14.5482 6.80703 14.5482 6.7865 14.6612 6.71463L15.1027 6.45796V6.47848ZM15.308 2.45387H14.6406V3.16226H15.308V2.45387Z" fill="#FD6C26"/>
<path d="M23.963 2.6078C24.846 2.6078 25.1642 2.58725 25.2258 2.58725C25.3182 2.58725 25.3285 2.58726 25.3285 2.68993C25.3285 2.74126 25.308 2.88501 25.308 3.09035V3.41887C25.308 4.12729 25.3285 4.26076 25.3285 4.32236C25.3285 4.41476 25.3285 4.42504 25.2258 4.42504H24.4866C24.3942 4.42504 24.3839 4.42503 24.3839 4.32236V3.34702H18.5421V4.32236C18.5421 4.41476 18.5421 4.42504 18.4291 4.42504H17.7002C17.6078 4.42504 17.5975 4.42503 17.5975 4.32236C17.5975 4.26076 17.618 4.13755 17.618 3.41887V3.15195C17.618 2.88501 17.5975 2.75153 17.5975 2.68993C17.5975 2.59752 17.5975 2.58725 17.7002 2.58725C17.7618 2.58725 18.0903 2.6078 18.963 2.6078H20.9137C20.9137 2.38193 20.8932 2.19711 20.8521 1.98151C21.1601 1.98151 21.4681 2.00205 21.7145 2.02258L21.6427 1.96098C21.4784 1.83778 21.2833 1.74539 21.1396 1.68379L21.3141 1.49896C21.2423 1.49896 20.9856 1.47844 20.2361 1.47844C20.3285 1.65298 20.4209 1.83778 20.503 2.05338C20.5441 2.14578 20.5441 2.16633 20.4106 2.19713L19.7946 2.32033C19.6611 2.35113 19.6406 2.35113 19.6201 2.24846C19.5482 2.00205 19.4456 1.73512 19.3326 1.48872H18.7371C18.542 1.76592 18.3162 2.03284 18.0493 2.26898C17.9466 2.36138 17.885 2.42301 17.8337 2.42301C17.7823 2.42301 17.7413 2.37166 17.6386 2.24846C17.4743 2.05339 17.2895 1.94044 17.156 1.85831C17.6386 1.4579 18.039 1.00615 18.3162 0.44147C18.3881 0.297733 18.4394 0.174538 18.4907 0C18.7885 0.0410677 19.1478 0.0924173 19.3531 0.143752C19.4455 0.143752 19.4969 0.184804 19.4969 0.256673C19.4969 0.308007 19.4661 0.34908 19.425 0.390148C19.3737 0.441482 19.3326 0.492818 19.2607 0.616021L19.1991 0.749496H20.2053C20.9959 0.749496 21.2422 0.728942 21.3038 0.728942C21.4065 0.728942 21.4168 0.728948 21.4168 0.831618V1.40656C21.6632 1.10882 21.848 0.811077 22.002 0.472269C22.0534 0.349066 22.1252 0.174538 22.1663 0C22.4435 0.0410677 22.772 0.0924173 22.9774 0.143752C23.08 0.164286 23.1314 0.195071 23.1314 0.256673C23.1314 0.318274 23.1006 0.34908 23.0595 0.390148C22.9979 0.451749 22.9363 0.57494 22.885 0.698143L22.8542 0.749496H24.2197C25.1745 0.749496 25.503 0.728942 25.5646 0.728942C25.657 0.728942 25.6673 0.728948 25.6673 0.831618V1.41684C25.6673 1.50924 25.6673 1.51951 25.5646 1.51951C25.5133 1.51951 25.1848 1.49896 24.2197 1.49896H24.0554C24.1683 1.6735 24.2505 1.86857 24.3326 2.07391C24.3737 2.16631 24.3737 2.18686 24.2402 2.21766L23.6345 2.33058C23.501 2.36138 23.4804 2.35114 23.4599 2.25873C23.3778 2.02259 23.2751 1.75564 23.1519 1.50924H22.4538C22.3614 1.67351 22.2484 1.82751 22.1149 1.99178C22.0533 2.06365 22.0123 2.10472 21.9712 2.12526C21.9712 2.14579 21.9712 2.15605 21.9712 2.17658C21.9712 2.21765 21.9507 2.24844 21.9199 2.33058C21.8788 2.39218 21.8788 2.51538 21.8788 2.64885H23.9938L23.963 2.6078ZM22.5256 3.77822C23.347 3.77822 23.7371 3.75769 23.7885 3.75769C23.8809 3.75769 23.8911 3.7577 23.8911 3.86037C23.8911 3.9117 23.8706 4.09651 23.8706 4.50719V4.97946C23.8706 5.39014 23.8911 5.57492 23.8911 5.63653C23.8911 5.71866 23.8911 5.72892 23.7885 5.72892C23.7371 5.72892 23.347 5.7084 22.5256 5.7084H19.9281V6.22175H23.039C23.8911 6.22175 24.3223 6.20122 24.3942 6.20122C24.4866 6.20122 24.4969 6.20121 24.4969 6.31415C24.4969 6.36548 24.4764 6.56055 24.4764 7.02257V7.80286C24.4764 8.27514 24.4969 8.44967 24.4969 8.501C24.4969 8.59341 24.4969 8.60368 24.3942 8.60368H23.6345C23.5421 8.60368 23.5318 8.60367 23.5318 8.501V8.24433H19.9281V8.51128C19.9281 8.60368 19.9281 8.61396 19.8254 8.61396H19.0862C18.9938 8.61396 18.9835 8.61395 18.9835 8.51128C18.9835 8.45995 19.0041 8.15192 19.0041 7.43324V4.94866C19.0041 4.22998 18.9835 3.91169 18.9835 3.85009C18.9835 3.75769 18.9836 3.74742 19.0862 3.74742C19.1376 3.74742 19.5688 3.76797 20.4209 3.76797H22.5359L22.5256 3.77822ZM22.9363 4.47639H19.9281V5.02054H22.9363V4.47639ZM19.9281 6.94044V7.53591H23.5318V6.94044H19.9281Z" fill="#FD6C26"/>
<path d="M28.4497 5.68813C28.7782 5.53413 29.0965 5.39039 29.425 5.20558C29.425 5.36985 29.425 5.60599 29.425 5.81133C29.425 6.01667 29.3463 6.16725 29.1889 6.26307C28.5729 6.59162 27.8747 6.88936 27.1663 7.16657C27.0123 7.22817 26.9199 7.26922 26.8788 7.31029C26.8275 7.36162 26.7864 7.37189 26.7248 7.37189C26.6735 7.37189 26.6427 7.34109 26.6016 7.24869C26.5195 7.00228 26.4374 6.70456 26.3655 6.36575C26.6427 6.31442 26.9199 6.24255 27.2484 6.13988L27.5154 6.04748V4.01462C26.9199 4.01462 26.7453 4.03514 26.694 4.03514C26.6016 4.03514 26.5914 4.03513 26.5914 3.93246V3.25488C26.5914 3.15221 26.5913 3.14192 26.694 3.14192C26.7453 3.14192 26.9302 3.16245 27.5154 3.16245V1.50949H27.464C26.8377 1.50949 26.6427 1.53001 26.5811 1.53001C26.499 1.53001 26.4887 1.53004 26.4887 1.42737V0.73947C26.4887 0.636801 26.4887 0.626549 26.5811 0.626549C26.6427 0.626549 26.8377 0.647071 27.464 0.647071H28.4394C29.0759 0.647071 29.271 0.626549 29.3224 0.626549C29.4148 0.626549 29.425 0.626534 29.425 0.73947V1.42737C29.425 1.51977 29.425 1.53001 29.3224 1.53001C29.271 1.53001 29.076 1.50949 28.4497 1.50949V3.16245C28.963 3.16245 29.1478 3.14192 29.1991 3.14192C29.2915 3.14192 29.2915 3.14194 29.2915 3.25488V3.93246C29.2915 4.02487 29.2915 4.03514 29.1991 4.03514C29.1375 4.03514 28.963 4.01462 28.4497 4.01462V5.68813ZM30.1642 8.2035C29.2299 8.2035 28.9117 8.22406 28.8603 8.22406C28.7679 8.22406 28.7577 8.22405 28.7577 8.12138V7.45404C28.7577 7.36164 28.7577 7.35136 28.8603 7.35136C28.9117 7.35136 29.2402 7.37189 30.1642 7.37189H31.5913V6.44787H31.0061C30.1437 6.44787 29.8562 6.46839 29.7946 6.46839C29.7022 6.46839 29.692 6.46842 29.692 6.36575V5.71893C29.692 5.62653 29.692 5.61625 29.7946 5.61625C29.846 5.61625 30.1437 5.63678 31.0061 5.63678H31.5913V4.82571H30.9856C30.1334 4.82571 29.8254 4.84624 29.7638 4.84624C29.6612 4.84624 29.6509 4.84624 29.6509 4.75384C29.6509 4.69224 29.6714 4.39448 29.6714 3.71687V1.63269C29.6714 0.965337 29.6509 0.677863 29.6509 0.605995C29.6509 0.513593 29.6509 0.503319 29.7638 0.503319C29.8152 0.503319 30.1334 0.523873 30.9856 0.523873H33.2135C34.0759 0.523873 34.3737 0.503319 34.4455 0.503319C34.5379 0.503319 34.5482 0.503326 34.5482 0.605995C34.5482 0.657329 34.5277 0.965337 34.5277 1.63269V3.71687C34.5277 4.40475 34.5482 4.7025 34.5482 4.75384C34.5482 4.83597 34.5482 4.84624 34.4455 4.84624C34.3839 4.84624 34.0759 4.82571 33.2135 4.82571H32.5256V5.63678H33.2443C34.0965 5.63678 34.3942 5.61625 34.4558 5.61625C34.5482 5.61625 34.5585 5.61626 34.5585 5.71893V6.36575C34.5585 6.45815 34.5585 6.46839 34.4558 6.46839C34.4045 6.46839 34.0965 6.44787 33.2443 6.44787H32.5256V7.37189H33.6037C34.5277 7.37189 34.846 7.35136 34.8973 7.35136C34.9897 7.35136 35 7.35137 35 7.45404V8.12138C35 8.21379 35 8.22406 34.8973 8.22406C34.846 8.22406 34.5174 8.2035 33.6037 8.2035H30.1642ZM31.5913 2.25898V1.31441H30.5544V2.25898H31.5913ZM31.5913 4.03514V3.029H30.5544V4.03514H31.5913ZM32.5256 1.31441V2.25898H33.6345V1.31441H32.5256ZM33.6345 3.029H32.5256V4.03514H33.6345V3.029Z" fill="#FD6C26"/>
</svg>
