<svg width="18" height="9" viewBox="0 0 18 9" fill="none" xmlns="http://www.w3.org/2000/svg">
<path d="M0.416452 5.97572C0.437273 5.79873 0.447684 5.65299 0.416452 5.44477C0.655897 5.47601 1.00984 5.53847 1.14518 5.58011C1.2597 5.61134 1.31175 5.64258 1.31175 5.69463C1.31175 5.74668 1.29094 5.77791 1.25971 5.82997C1.22848 5.88202 1.21805 5.99654 1.20764 6.14229C1.14518 6.70446 1.02025 7.40198 0.853681 7.93292C0.812039 8.07867 0.791223 8.14113 0.728759 8.14113C0.676705 8.14113 0.61424 8.09949 0.499723 8.03703C0.364384 7.95374 0.124928 7.83923 0 7.78717C0.229034 7.18335 0.343557 6.61077 0.39561 5.97572H0.416452ZM3.13362 3.13361C3.25855 3.08155 3.26897 3.09197 3.31061 3.18566C3.58129 3.75825 3.76868 4.33083 3.92484 4.90342C3.95607 5.00753 3.92484 5.03876 3.79991 5.0804L3.35223 5.25738C3.23772 5.30944 3.20648 5.28861 3.18566 5.18451L3.08158 4.75767L2.45693 4.80972V7.41239C2.45693 8.28688 2.47774 8.60961 2.47774 8.66166C2.47774 8.75536 2.47773 8.76577 2.37363 8.76577H1.65529C1.56159 8.76577 1.55121 8.76577 1.55121 8.66166C1.55121 8.60961 1.57202 8.28688 1.57202 7.41239V4.89301L0.780799 4.94506C0.614229 4.94506 0.510126 4.9867 0.426841 5.01794C0.374787 5.03876 0.343572 5.06999 0.281108 5.06999C0.218644 5.06999 0.197816 5.00753 0.176995 4.90342C0.135353 4.67439 0.0832941 4.40371 0.0416515 4.1018C0.291507 4.12262 0.530945 4.13303 0.749568 4.13303C0.93696 3.88318 1.13477 3.63332 1.31175 3.37305C0.936969 2.90457 0.520551 2.45692 0.083303 2.03008C1.77935e-05 1.96761 0.0312498 1.93638 0.083303 1.83228L0.39561 1.33256C0.437253 1.2701 0.45807 1.24928 0.489302 1.24928C0.510123 1.24928 0.541373 1.2701 0.572605 1.31174L0.822451 1.5616C1.02025 1.24928 1.18681 0.947369 1.33256 0.593407C1.45749 0.333141 1.49916 0.187392 1.55121 0C1.81148 0.0936959 2.14459 0.229035 2.37363 0.353962C2.46732 0.406016 2.49858 0.447658 2.49858 0.510122C2.49858 0.562175 2.45692 0.593408 2.41528 0.635051C2.34241 0.687104 2.30078 0.739156 2.23832 0.864084C1.94682 1.38462 1.69694 1.76981 1.40544 2.18624L1.80105 2.6339C2.01968 2.29034 2.2279 1.93638 2.4257 1.58242C2.54022 1.37421 2.6339 1.14517 2.70678 0.936959C2.99828 1.0723 3.28979 1.21805 3.50842 1.34298C3.5917 1.39503 3.62292 1.42626 3.62292 1.48872C3.62292 1.55119 3.59168 1.59283 3.51881 1.63447C3.42511 1.69694 3.35225 1.80104 3.2065 2.03008C2.7172 2.80047 2.19666 3.53962 1.73859 4.11221C2.10297 4.09139 2.46734 4.07057 2.84212 4.04975C2.77966 3.85194 2.69637 3.66455 2.61308 3.47716C2.57144 3.38346 2.58186 3.36264 2.7172 3.31059L3.11281 3.14402L3.13362 3.13361ZM3.26896 5.41354C3.38348 5.3719 3.39389 5.39272 3.43554 5.49683C3.60211 5.99654 3.76866 6.68364 3.84153 7.23541C3.84153 7.33951 3.84154 7.37074 3.71661 7.41239L3.23773 7.59978C3.09198 7.66224 3.07115 7.64142 3.06074 7.54773C3.00868 6.94391 2.86294 6.21516 2.70678 5.71545C2.67554 5.61134 2.70679 5.60093 2.82131 5.55929L3.25854 5.40313L3.26896 5.41354ZM5.65301 3.89358C5.03878 3.89358 4.85138 3.91441 4.79933 3.91441C4.70563 3.91441 4.69522 3.91441 4.69522 3.79989V3.09197C4.52865 3.25854 4.36206 3.40428 4.19549 3.56044C4.1018 3.64373 4.03933 3.69578 3.99769 3.69578C3.95605 3.69578 3.90401 3.63332 3.82072 3.48757C3.6958 3.25854 3.58128 3.11279 3.43554 2.98786C4.34126 2.33199 4.97631 1.41585 5.38232 0.635051C5.47602 0.437248 5.54889 0.260268 5.56971 0.0520545C5.88203 0.0832864 6.22556 0.104108 6.52747 0.145751C6.61075 0.166572 6.65239 0.208213 6.65239 0.260266C6.65239 0.31232 6.63162 0.353964 6.56915 0.406017L6.49627 0.46848C7.08968 1.45749 7.93296 2.20706 8.92197 2.75882C8.78663 2.91498 8.65124 3.1232 8.53672 3.40428C8.48466 3.56044 8.44306 3.62291 8.3806 3.62291C8.32854 3.62291 8.26607 3.58127 8.17237 3.50839C7.96416 3.35223 7.76635 3.20648 7.57896 3.03991V3.78948C7.57896 3.89359 7.57898 3.904 7.47487 3.904C7.41241 3.904 7.2146 3.88318 6.62119 3.88318H5.64259L5.65301 3.89358ZM4.28922 8.72413C4.19552 8.72413 4.1851 8.72413 4.1851 8.62002C4.1851 8.55756 4.20591 8.29729 4.20591 6.89185V6.04859C4.20591 5.20533 4.1851 4.91383 4.1851 4.86178C4.1851 4.77849 4.18511 4.76808 4.28922 4.76808C4.35168 4.76808 4.62237 4.7889 5.40316 4.7889H6.94392C7.72472 4.7889 7.98498 4.76808 8.04745 4.76808C8.14114 4.76808 8.15153 4.76808 8.15153 4.86178C8.15153 4.91383 8.13075 5.20533 8.13075 5.89243V6.85021C8.13075 8.23483 8.15153 8.50551 8.15153 8.56797C8.15153 8.65126 8.15155 8.66166 8.04745 8.66166H7.31869C7.22499 8.66166 7.21461 8.66167 7.21461 8.56797V8.16195H5.12206V8.64085C5.12206 8.73454 5.12208 8.74495 5.01798 8.74495H4.28922V8.72413ZM7.52692 2.98786C6.91269 2.45692 6.4234 1.91556 6.04862 1.29092C5.70507 1.89474 5.28862 2.46733 4.78891 2.98786C4.85137 2.98786 5.02836 3.00868 5.64259 3.00868H6.62119C7.22501 3.00868 7.41241 2.98786 7.47487 2.98786H7.51649H7.52692ZM5.12206 7.30828H7.21461V5.61134H5.12206V7.30828Z" fill="#FD6C26"/>
<path d="M10.7958 6.24623C9.95258 6.24623 9.66107 6.26705 9.60901 6.26705C9.51532 6.26705 9.51529 6.26705 9.51529 6.16295V5.4342C9.51529 5.33009 9.51532 5.31968 9.60901 5.31968C9.66107 5.31968 9.95258 5.3405 10.7958 5.3405H15.1891C15.2308 5.02818 15.2516 4.67422 15.2828 4.27862H11.8577C11.8056 4.43478 11.7536 4.58053 11.6911 4.73669C11.6495 4.83038 11.6391 4.83038 11.5038 4.81997L10.7542 4.70545C10.6084 4.68463 10.5876 4.64299 10.6292 4.53888C11.1602 3.25837 11.5246 1.99868 11.7328 0.926387C11.7952 0.530782 11.8265 0.312157 11.8369 0.0935332C12.2325 0.135176 12.5448 0.187229 12.878 0.260104C13.0029 0.291336 13.0445 0.332979 13.0445 0.395443C13.0445 0.457907 13.0029 0.520371 12.9509 0.582835C12.8884 0.666121 12.8259 0.863923 12.7322 1.25953L12.7009 1.37404H15.9179C16.8028 1.37404 17.0943 1.35322 17.1567 1.35322C17.2504 1.35322 17.2608 1.35322 17.2608 1.45733V2.19649C17.2608 2.29018 17.2608 2.30059 17.1567 2.30059C17.1047 2.30059 16.8028 2.27977 15.9179 2.27977H12.4719C12.3782 2.64414 12.2742 2.99811 12.1596 3.37289H15.0746C15.9283 3.37289 16.2094 3.35207 16.2614 3.35207C16.3551 3.35207 16.3864 3.3833 16.3864 3.477L16.3031 4.48683L16.2406 5.33009H16.7299C17.5628 5.33009 17.8542 5.30927 17.9063 5.30927C18 5.30927 18 5.30927 18 5.42379V6.15253C18 6.24623 18 6.25664 17.9063 6.25664C17.8542 6.25664 17.5628 6.23582 16.7299 6.23582H16.1365C16.0636 6.75635 15.9699 7.17278 15.8554 7.54756C15.5951 8.31795 15.1058 8.60945 14.2834 8.60945C14.0335 8.60945 13.7316 8.60945 13.3985 8.57822C13.107 8.57822 13.0966 8.57822 13.0341 8.2659C12.982 7.99522 12.8883 7.72454 12.7738 7.52674C13.3568 7.59962 13.6796 7.62044 14.1273 7.62044C14.4812 7.62044 14.731 7.5892 14.856 7.20401C14.9288 6.96457 15.0121 6.65225 15.0746 6.23582H10.8063L10.7958 6.24623Z" fill="#FD6C26"/>
</svg>
