<svg width="46" height="9" viewBox="0 0 46 9" fill="none" xmlns="http://www.w3.org/2000/svg">
<path d="M0.111243 2.15447C0.374216 1.15315 1.17326 0.627208 2.24538 0.627208C3.52991 0.627208 4.35928 1.37567 4.35928 2.39722C4.35928 3.22659 3.86366 3.84356 3.01405 3.98516V4.04584C3.9648 4.24813 4.50086 4.88533 4.50086 5.81585C4.50086 7.05992 3.59059 7.90953 2.24538 7.90953C1.08224 7.90953 0.313545 7.43415 0 6.35191L1.1328 6.01814C1.29463 6.72614 1.6284 7.01946 2.23526 7.01946C2.90281 7.01946 3.3175 6.57444 3.3175 5.82598C3.3175 5.02695 2.94327 4.55156 1.95206 4.55156H1.416V3.61093H1.9015C2.82191 3.61093 3.19614 3.21647 3.19614 2.49835C3.19614 1.85103 2.81177 1.50715 2.22514 1.50715C1.73965 1.50715 1.33507 1.81057 1.24404 2.47812L0.111243 2.13423V2.15447Z" fill="#FD6C26"/>
<path d="M8.40498 2.20504C8.29373 1.68921 8.0004 1.50715 7.66663 1.50715C6.82714 1.50715 6.43267 2.3871 6.39221 4.00539C6.71587 3.4491 7.24184 3.17601 7.83858 3.17601C8.93093 3.17601 9.67937 4.03574 9.67937 5.46186C9.67937 6.98913 8.78933 7.93987 7.52504 7.93987C6.16972 7.93987 5.25941 6.93855 5.25941 4.55156C5.25941 1.76 6.20004 0.627208 7.69697 0.627208C8.62749 0.627208 9.22424 1.03178 9.53778 1.78024L8.40498 2.19492V2.20504ZM7.50479 7.0498C8.15211 7.0498 8.50613 6.52387 8.50613 5.4922C8.50613 4.55157 8.17236 4.05597 7.55538 4.05597C7.09012 4.05597 6.68553 4.36951 6.40233 4.95614C6.40233 6.44295 6.84737 7.0498 7.51492 7.0498H7.50479Z" fill="#FD6C26"/>
<path d="M14.4534 4.70318C15.0704 4.70318 15.2626 4.68294 15.3233 4.68294C15.4244 4.68294 15.4547 4.70318 15.4446 4.78409C15.4244 4.97627 15.4244 5.18866 15.4143 5.38084C15.3637 6.68559 15.2828 7.30256 15.1412 7.73748C14.9996 8.16228 14.7164 8.36456 14.2815 8.36456C14.15 8.36456 14.0488 8.36456 13.9173 8.34433C13.7757 8.3241 13.7555 8.30388 13.7252 8.02068C13.6948 7.80828 13.6443 7.60599 13.5532 7.43405C13.796 7.4745 13.9174 7.49473 14.0994 7.49473C14.2613 7.49473 14.3624 7.44415 14.413 7.28232C14.504 6.99912 14.5748 6.48329 14.595 5.51231H14.0387C13.9073 6.74626 13.5532 7.58576 12.9362 8.28365C12.8452 8.38479 12.7744 8.44548 12.734 8.44548C12.6935 8.44548 12.6429 8.3949 12.5721 8.31399C12.4305 8.14205 12.2687 8.00045 12.0866 7.88919C12.0866 8.20273 12.1069 8.37468 12.1069 8.39491C12.1069 8.48593 12.1069 8.49606 12.0057 8.49606H11.2573C11.1764 8.49606 11.1662 8.49605 11.1662 8.39491C11.1662 8.34433 11.1865 7.81838 11.1865 6.7766V3.35797H11.1662C10.5897 3.35797 10.4279 3.37819 10.3672 3.37819C10.2863 3.37819 10.2762 3.3782 10.2762 3.26694V2.57916C10.2762 2.48813 10.2762 2.47801 10.3672 2.47801C10.4178 2.47801 10.5897 2.49824 11.1662 2.49824H11.1865V1.42613C11.1865 0.768694 11.1865 0.485487 11.1157 0.0303418C11.4697 0.0303418 11.7428 0.0606823 12.0563 0.0910254C12.1473 0.0910254 12.1979 0.141609 12.1979 0.182066C12.1979 0.242752 12.1676 0.303431 12.1473 0.364117C12.1069 0.485489 12.0968 0.718129 12.0968 1.38568V2.48813C12.5216 2.48813 12.6733 2.4679 12.7239 2.4679C12.8149 2.4679 12.825 2.46791 12.825 2.56905V3.25682C12.825 3.35796 12.825 3.36808 12.7239 3.36808C12.6632 3.36808 12.5216 3.36807 12.0968 3.34784V7.86896C12.7542 7.23175 13.0981 6.63501 13.2296 5.5022C12.825 5.5022 12.6733 5.52244 12.6328 5.52244C12.5418 5.52244 12.5317 5.52243 12.5317 5.42129V4.75374C12.5317 4.67282 12.5317 4.66271 12.6328 4.66271C12.6733 4.66271 12.8452 4.68294 13.2903 4.68294C13.2903 4.34917 13.2903 4.11653 13.2599 3.85356C13.3206 3.85356 13.3813 3.85356 13.442 3.85356C13.4116 3.82322 13.3914 3.78277 13.3611 3.73219C13.2195 3.52991 13.0779 3.37819 12.9059 3.25682C13.8162 2.94327 14.4028 2.48813 14.7265 1.85093H14.4534C13.5937 1.85093 13.3004 1.87116 13.2397 1.87116C13.1386 1.87116 13.1284 1.87115 13.1284 1.77001V1.10246C13.1284 1.02154 13.1284 1.01143 13.2397 1.01143C13.3004 1.01143 13.5937 1.03167 14.4534 1.03167H14.9996L15.0299 0.839492C15.0704 0.525948 15.0805 0.262973 15.0502 0C15.3435 0 15.6874 0.0404648 15.9301 0.0708078C16.0414 0.0910365 16.1122 0.12138 16.1122 0.182066C16.1122 0.232638 16.0818 0.283198 16.0515 0.343884C16.0009 0.434913 15.9706 0.536059 15.9301 0.788917L15.8897 1.03167H16.7999C17.6698 1.03167 17.9732 1.01143 18.0339 1.01143C18.1249 1.01143 18.1452 1.03167 18.1452 1.11258L18.0946 1.78013C18.0339 2.58928 17.9428 3.0242 17.7709 3.32763C17.599 3.62094 17.2349 3.75243 16.8202 3.75243C16.6179 3.75243 16.4055 3.75242 16.2234 3.73219C15.9503 3.73219 15.9402 3.7322 15.8897 3.43888C15.8492 3.22648 15.7683 3.02419 15.657 2.81179C16.0211 2.86236 16.365 2.87247 16.6381 2.87247C16.891 2.87247 17.0123 2.8219 17.0528 2.61961C17.0933 2.45778 17.1337 2.1847 17.1641 1.85093H15.7076C15.3839 2.77133 14.8074 3.36808 13.7656 3.87379L14.0792 3.90414C14.1803 3.90414 14.2309 3.96482 14.2309 4.01539C14.2309 4.06597 14.2107 4.09632 14.1803 4.16712C14.15 4.23792 14.1298 4.41998 14.1196 4.67284H14.4939L14.4534 4.70318ZM17.1034 5.52244C16.9719 6.79684 16.6179 7.6161 15.9908 8.29376C15.8998 8.3949 15.829 8.45559 15.7885 8.45559C15.7379 8.45559 15.6975 8.40502 15.6267 8.33422C15.475 8.15216 15.3334 8.02068 15.1412 7.88919C15.8087 7.29244 16.1526 6.72604 16.2841 5.52244C15.9402 5.52244 15.8188 5.54267 15.7885 5.54267C15.6975 5.54267 15.6874 5.54266 15.6874 5.44152V4.77397C15.6874 4.69306 15.6874 4.68294 15.7885 4.68294C15.829 4.68294 15.9503 4.70318 16.3448 4.70318C16.3448 4.38963 16.3448 4.13677 16.3043 3.87379C16.5977 3.87379 16.8202 3.90413 17.1034 3.93448C17.2146 3.93448 17.2652 3.99516 17.2652 4.04574C17.2652 4.09631 17.245 4.13677 17.2248 4.19746C17.1843 4.27838 17.1641 4.4402 17.1539 4.70318H17.6192C18.2463 4.70318 18.4385 4.68294 18.4991 4.68294C18.5902 4.68294 18.6205 4.70318 18.6104 4.78409C18.5902 4.97627 18.5902 5.18866 18.5801 5.38084C18.5396 6.74627 18.4789 7.30255 18.3171 7.78804C18.1856 8.17238 17.8721 8.37467 17.4473 8.37467C17.3158 8.37467 17.1843 8.37468 17.073 8.35445C16.9213 8.33423 16.9112 8.3241 16.8707 8.0409C16.8303 7.80827 16.7797 7.60599 16.6988 7.45428C16.9314 7.49474 17.0629 7.51496 17.2551 7.51496C17.4473 7.51496 17.5181 7.45428 17.5686 7.29245C17.6495 6.99913 17.7102 6.49341 17.7305 5.53255H17.1034V5.52244Z" fill="#FD6C26"/>
<path d="M22.3224 3.63108C21.4222 3.63108 21.1289 3.65131 21.0783 3.65131C20.9772 3.65131 20.967 3.65132 20.967 3.55017V2.8725C20.967 2.78147 20.9671 2.77137 21.0783 2.77137C21.1289 2.77137 21.4323 2.7916 22.3224 2.7916H24.9319C25.8219 2.7916 26.1254 2.77137 26.1759 2.77137C26.267 2.77137 26.2771 2.77136 26.2771 2.8725V3.55017C26.2771 3.6412 26.2771 3.65131 26.1759 3.65131C26.1254 3.65131 25.8118 3.63108 24.9319 3.63108H24.143V4.86503H25.2758C26.0343 4.86503 26.2872 4.84481 26.3378 4.84481C26.4389 4.84481 26.449 4.8448 26.449 4.94594V5.6236C26.449 5.70452 26.449 5.71464 26.3378 5.71464C26.2872 5.71464 26.0343 5.69441 25.2758 5.69441H24.143V7.27224C24.6183 7.32282 25.1949 7.35316 25.9231 7.35316C26.449 7.35316 27.1065 7.3127 27.7133 7.27224C27.6223 7.49476 27.5616 7.71728 27.5414 7.93979C27.5009 8.223 27.4908 8.22299 27.2076 8.25334C26.8536 8.27357 26.4895 8.28368 26.1152 8.28368C22.8078 8.28368 22.1606 7.77796 21.4323 6.6755C21.1592 7.27225 20.785 7.78808 20.2995 8.25334C20.2085 8.35448 20.1478 8.41517 20.0972 8.41517C20.0466 8.41517 20.0062 8.3646 19.9152 8.24323C19.7533 8.04094 19.5713 7.8791 19.3791 7.75773C20.2591 7.06995 20.8659 6.08886 21.0378 4.83468C21.0682 4.62228 21.0985 4.45034 21.0985 4.24805C21.402 4.29862 21.7054 4.35932 21.9785 4.42001C22.11 4.45035 22.1504 4.48068 22.1504 4.55148C22.1504 4.62228 22.0998 4.68297 22.0695 4.72343C22.029 4.78411 21.9886 4.87514 21.9481 5.00663C21.8976 5.2696 21.847 5.50223 21.7762 5.73486C22.11 6.38218 22.4437 6.80699 23.1619 7.05985V3.63108H22.3123H22.3224ZM26.186 1.00136C27.0458 1.00136 27.3492 0.981123 27.4099 0.981123C27.5009 0.981123 27.511 0.981119 27.511 1.07215C27.511 1.13283 27.4908 1.29468 27.4908 1.55765V1.95211C27.4908 2.77137 27.511 2.91296 27.511 2.97365C27.511 3.06468 27.511 3.0748 27.4099 3.0748H26.6513C26.5603 3.0748 26.5502 3.07479 26.5502 2.97365V1.85096H20.694V2.97365C20.694 3.06468 20.6939 3.0748 20.5827 3.0748H19.8342C19.7432 3.0748 19.7331 3.07479 19.7331 2.97365C19.7331 2.91296 19.7533 2.78148 19.7533 1.95211V1.63856C19.7533 1.29468 19.7331 1.14295 19.7331 1.07215C19.7331 0.991234 19.7331 0.981123 19.8342 0.981123C19.8949 0.981123 20.1984 1.00136 21.0682 1.00136H23.0506V0.92044C23.0506 0.515866 23.0506 0.273127 22.9899 0.0404969C23.3338 0.0404969 23.6676 0.0607132 23.9811 0.0910562C24.062 0.0910562 24.1227 0.131525 24.1227 0.182097C24.1227 0.242783 24.0924 0.293353 24.0721 0.354039C24.0317 0.434954 24.0317 0.556329 24.0317 0.910331V1.00136H26.2063H26.186Z" fill="#FD6C26"/>
<path d="M35.1372 2.57941C36.007 2.57941 36.3206 2.55917 36.3813 2.55917C36.4723 2.55917 36.4824 2.55918 36.4824 2.66032C36.4824 2.7109 36.4622 2.8525 36.4622 3.05478V3.37843C36.4622 4.07632 36.4824 4.20781 36.4824 4.2685C36.4824 4.35953 36.4824 4.36965 36.3813 4.36965H35.653C35.562 4.36965 35.5519 4.36964 35.5519 4.2685V3.30764H29.7968V4.2685C29.7968 4.35953 29.7968 4.36965 29.6856 4.36965H28.9675C28.8764 4.36965 28.8663 4.36964 28.8663 4.2685C28.8663 4.20781 28.8866 4.08644 28.8866 3.37843V3.10536C28.8866 2.84238 28.8663 2.7109 28.8663 2.65021C28.8663 2.55919 28.8663 2.54907 28.9675 2.54907C29.0281 2.54907 29.3518 2.5693 30.2115 2.5693H32.1332C32.1332 2.34678 32.113 2.16472 32.0726 1.95232C32.376 1.95232 32.6794 1.97254 32.9222 1.99277L32.8514 1.93209C32.6895 1.81072 32.4974 1.71968 32.3558 1.659L32.5277 1.47695C32.4569 1.47695 32.204 1.45671 31.4657 1.45671C31.5567 1.61854 31.6478 1.81071 31.7287 2.02311C31.7691 2.11414 31.7691 2.13437 31.6377 2.16472L31.0308 2.2861C30.8993 2.31644 30.8791 2.31643 30.8588 2.21529C30.788 1.97255 30.6869 1.70957 30.5756 1.46682H29.989C29.7968 1.73991 29.5743 2.00289 29.3113 2.23552C29.2102 2.32655 29.1495 2.38723 29.0989 2.38723C29.0484 2.38723 29.0079 2.32654 28.9068 2.2254C28.7449 2.03323 28.5629 1.92198 28.4314 1.84106C28.9068 1.44661 29.3012 1.00157 29.5743 0.44528C29.6451 0.30368 29.6957 0.182315 29.7463 0.0103711C30.0396 0.0508285 30.3936 0.1014 30.5959 0.151971C30.6869 0.151971 30.7375 0.192429 30.7375 0.26323C30.7375 0.323916 30.7071 0.354248 30.6667 0.394706C30.6161 0.445277 30.5757 0.49585 30.5049 0.617222L30.4441 0.748714H31.4354C32.2142 0.748714 32.4569 0.728481 32.5176 0.728481C32.6187 0.728481 32.6288 0.728487 32.6288 0.82963V1.39603C32.8716 1.10272 33.0537 0.809395 33.2054 0.475622C33.2559 0.35425 33.3267 0.182315 33.3672 0.0103711C33.6403 0.0508285 33.964 0.1014 34.1662 0.151971C34.2674 0.1722 34.3179 0.202544 34.3179 0.26323C34.3179 0.323916 34.2876 0.354248 34.2471 0.394706C34.1865 0.445277 34.1258 0.576767 34.0752 0.698139L34.0449 0.748714H35.3901C36.3307 0.748714 36.6544 0.728481 36.715 0.728481C36.8061 0.728481 36.8162 0.728487 36.8162 0.82963V1.40614C36.8162 1.49717 36.8162 1.50729 36.715 1.50729C36.6645 1.50729 36.3408 1.48706 35.3901 1.48706H35.2282C35.3395 1.659 35.4204 1.85117 35.5013 2.05346C35.5418 2.14449 35.5418 2.16471 35.4103 2.19506L34.8135 2.30632C34.6821 2.33666 34.6618 2.32655 34.6416 2.23552C34.5607 2.00289 34.4595 1.73992 34.3382 1.49718H33.6504C33.5594 1.65901 33.4481 1.81071 33.3166 1.97254C33.256 2.04334 33.2155 2.0838 33.175 2.10403C33.175 2.12426 33.175 2.13438 33.175 2.15461C33.175 2.19506 33.1548 2.2254 33.1245 2.30632C33.084 2.367 33.084 2.48837 33.084 2.61986H35.1676L35.1372 2.57941ZM33.7212 3.73244C34.5304 3.73244 34.9147 3.71221 34.9653 3.71221C35.0563 3.71221 35.0664 3.71221 35.0664 3.81336C35.0664 3.86393 35.0462 4.04599 35.0462 4.45057V4.91582C35.0462 5.32039 35.0664 5.50245 35.0664 5.56313C35.0664 5.64405 35.0664 5.65416 34.9653 5.65416C34.9147 5.65416 34.5304 5.63394 33.7212 5.63394H31.1623V6.13966H34.2269C35.0664 6.13966 35.4912 6.11943 35.562 6.11943C35.6531 6.11943 35.6631 6.11943 35.6631 6.23068C35.6631 6.28126 35.6429 6.47343 35.6429 6.92858V7.69726C35.6429 8.16252 35.6631 8.33447 35.6631 8.38504C35.6631 8.47607 35.6632 8.48618 35.562 8.48618H34.8135C34.7225 8.48618 34.7124 8.48619 34.7124 8.38504V8.13219H31.1623V8.40526C31.1623 8.49629 31.1623 8.50641 31.0611 8.50641H30.3329C30.2419 8.50641 30.2317 8.50641 30.2317 8.40526C30.2317 8.35469 30.252 8.05127 30.252 7.34327V4.89558C30.252 4.18758 30.2317 3.87404 30.2317 3.81336C30.2317 3.72233 30.2318 3.71221 30.3329 3.71221C30.3835 3.71221 30.8083 3.73244 31.6477 3.73244H33.7313H33.7212ZM34.1258 4.42022H31.1623V4.95628H34.1258V4.42022ZM31.1623 6.84766V7.43429H34.7124V6.84766H31.1623Z" fill="#FD6C26"/>
<path d="M39.547 5.61346C39.8707 5.46175 40.1842 5.32014 40.5079 5.13809C40.5079 5.29992 40.5079 5.53254 40.5079 5.73483C40.5079 5.93712 40.4303 6.08546 40.2752 6.17986C39.6684 6.50352 38.9806 6.79684 38.2827 7.06993C38.131 7.13062 38.04 7.17107 37.9995 7.21153C37.949 7.2621 37.9085 7.27221 37.8478 7.27221C37.7972 7.27221 37.7669 7.24188 37.7264 7.15085C37.6455 6.9081 37.5646 6.61479 37.4938 6.28101C37.7669 6.23044 38.04 6.15964 38.3637 6.0585L38.6266 5.96747V3.96482C38.04 3.96482 37.868 3.98505 37.8175 3.98505C37.7264 3.98505 37.7163 3.98505 37.7163 3.8839V3.21637C37.7163 3.11522 37.7163 3.10511 37.8175 3.10511C37.868 3.10511 38.0501 3.12533 38.6266 3.12533V1.49693H38.576C37.9591 1.49693 37.7669 1.51715 37.7062 1.51715C37.6253 1.51715 37.6152 1.51716 37.6152 1.41602V0.738358C37.6152 0.637215 37.6152 0.6271 37.7062 0.6271C37.7669 0.6271 37.9591 0.647317 38.576 0.647317H39.5369C40.164 0.647317 40.3562 0.6271 40.4067 0.6271C40.4978 0.6271 40.5079 0.6271 40.5079 0.738358V1.41602C40.5079 1.50705 40.5079 1.51715 40.4067 1.51715C40.3562 1.51715 40.164 1.49693 39.547 1.49693V3.12533C40.0527 3.12533 40.2348 3.10511 40.2854 3.10511C40.3764 3.10511 40.3764 3.10511 40.3764 3.21637V3.8839C40.3764 3.97493 40.3764 3.98505 40.2854 3.98505C40.2247 3.98505 40.0527 3.96482 39.547 3.96482V5.61346ZM41.2361 8.09147C40.3157 8.09147 40.0022 8.11171 39.9516 8.11171C39.8606 8.11171 39.8505 8.1117 39.8505 8.01056V7.35313C39.8505 7.2621 39.8505 7.25198 39.9516 7.25198C40.0022 7.25198 40.3258 7.27221 41.2361 7.27221H42.642V6.36193H42.0655C41.2159 6.36193 40.9327 6.38215 40.872 6.38215C40.781 6.38215 40.7709 6.38216 40.7709 6.28101V5.6438C40.7709 5.55277 40.7709 5.54267 40.872 5.54267C40.9226 5.54267 41.2159 5.56289 42.0655 5.56289H42.642V4.76386H42.0453C41.2058 4.76386 40.9024 4.78409 40.8417 4.78409C40.7405 4.78409 40.7304 4.78408 40.7304 4.69305C40.7304 4.64248 40.7506 4.33906 40.7506 3.67151V1.6183C40.7506 0.960869 40.7304 0.677667 40.7304 0.606867C40.7304 0.515838 40.7304 0.505717 40.8417 0.505717C40.8923 0.505717 41.2058 0.52595 42.0453 0.52595H44.2401C45.0897 0.52595 45.383 0.505717 45.4538 0.505717C45.5448 0.505717 45.5549 0.505723 45.5549 0.606867C45.5549 0.657438 45.5347 0.960869 45.5347 1.6183V3.67151C45.5347 4.34917 45.5549 4.64248 45.5549 4.69305C45.5549 4.77397 45.555 4.78409 45.4538 4.78409C45.3931 4.78409 45.0897 4.76386 44.2401 4.76386H43.5624V5.56289H44.2704C45.1099 5.56289 45.4032 5.54267 45.4639 5.54267C45.5549 5.54267 45.5651 5.54266 45.5651 5.6438V6.28101C45.5651 6.37204 45.5651 6.38215 45.4639 6.38215C45.4133 6.38215 45.1099 6.36193 44.2704 6.36193H43.5624V7.27221H44.6244C45.5347 7.27221 45.8483 7.25198 45.8989 7.25198C45.9899 7.25198 46 7.25199 46 7.35313V8.01056C46 8.10158 46 8.11171 45.8989 8.11171C45.8483 8.11171 45.5246 8.09147 44.6244 8.09147H41.2361ZM42.642 2.23528V1.30476H41.6205V2.23528H42.642ZM42.642 3.98505V2.99385H41.6205V3.98505H42.642ZM43.5624 1.30476V2.23528H44.6548V1.30476H43.5624ZM44.6548 2.99385H43.5624V3.98505H44.6548V2.99385Z" fill="#FD6C26"/>
</svg>
