<svg width="6" height="6" viewBox="0 0 6 6" fill="none" xmlns="http://www.w3.org/2000/svg">
<path d="M3.44575 0.731231C3.27547 1.9733 2.97493 3.1152 2.5342 3.88649C2.22368 4.43741 1.84305 4.72789 1.29213 4.72789C0.651064 4.72789 0 4.03675 0 2.84476C0 2.14359 0.300518 1.47246 0.831404 0.941573C1.44242 0.330554 2.22373 0 3.21539 0C4.96831 0 6 1.08181 6 2.54425C6 3.90653 5.22871 4.75795 3.74624 5.2087C3.59599 5.24877 3.52587 5.21871 3.43572 5.07848C3.35559 4.95828 3.20533 4.78799 2.92486 4.6177C4.16693 4.32722 5.13858 3.81638 5.13858 2.42406C5.13858 1.5526 4.47746 0.721204 3.49582 0.721204H3.4658L3.44575 0.731231ZM1.34221 1.44241C0.99162 1.83306 0.771306 2.32389 0.771306 2.79467C0.771306 3.46579 1.04176 3.84643 1.27214 3.84643C1.46246 3.84643 1.62271 3.74626 1.82305 3.39568C2.14358 2.80469 2.47409 1.75293 2.59429 0.771291C2.08344 0.871458 1.67276 1.08181 1.34221 1.44241Z" fill="#FD6C26"/>
</svg>
