<svg width="26" height="9" viewBox="0 0 26 9" fill="none" xmlns="http://www.w3.org/2000/svg">
<path d="M1.0729 4.90299C1.0729 4.56207 1.07292 4.14094 1.09297 3.74989C0.932538 3.98051 0.752042 4.2011 0.581583 4.4217C0.521421 4.49189 0.471262 4.54201 0.431154 4.54201C0.391046 4.54201 0.360979 4.48185 0.320871 4.38158C0.240655 4.06072 0.110297 3.77997 0 3.58945C0.782106 2.72713 1.30354 1.77456 1.66452 0.681614C1.73471 0.471047 1.7848 0.260487 1.81488 0.0298656C2.12572 0.110082 2.43657 0.190302 2.7073 0.300599C2.79754 0.340707 2.85773 0.36076 2.85773 0.440976C2.85773 0.501138 2.82761 0.54125 2.75742 0.601412C2.69726 0.651547 2.64713 0.741785 2.56691 0.972406C2.39645 1.41359 2.21597 1.84475 2.0054 2.25586V6.96855C2.0054 7.86095 2.02547 8.30214 2.02547 8.35228C2.02547 8.44252 2.02544 8.45254 1.92517 8.45254H1.15313C1.07291 8.45254 1.06286 8.45255 1.06286 8.35228C1.06286 8.29212 1.08293 7.86095 1.08293 6.96855V4.90299H1.0729ZM3.82028 5.10352C2.91785 5.10352 2.59703 5.12358 2.5469 5.12358C2.45665 5.12358 2.44659 5.12358 2.44659 5.02331V4.34148C2.44659 4.25123 2.44663 4.2412 2.5469 4.2412C2.59703 4.2412 2.91785 4.26126 3.82028 4.26126H4.96338V3.42902H4.44195C3.61974 3.42902 3.32897 3.44908 3.26881 3.44908C3.17857 3.44908 3.16857 3.44907 3.16857 3.3488C3.16857 3.28864 3.18858 3.06804 3.18858 2.54664V1.38352C3.18858 0.862113 3.16857 0.641516 3.16857 0.581354C3.16857 0.491111 3.16854 0.481077 3.26881 0.481077C3.32897 0.481077 3.61974 0.501136 4.44195 0.501136H6.47746C7.29968 0.501136 7.58041 0.481077 7.64057 0.481077C7.73081 0.481077 7.74087 0.481084 7.74087 0.581354C7.74087 0.641516 7.7208 0.862113 7.7208 1.38352V2.54664C7.7208 3.06804 7.74087 3.29866 7.74087 3.3488C7.74087 3.43904 7.74084 3.44908 7.64057 3.44908C7.58041 3.44908 7.29968 3.42902 6.47746 3.42902H5.88584V4.26126H7.11921C8.02164 4.26126 8.33242 4.2412 8.38256 4.2412C8.46277 4.2412 8.47283 4.24121 8.47283 4.34148V5.02331C8.47283 5.11355 8.4728 5.12358 8.38256 5.12358C8.33242 5.12358 8.01161 5.10352 7.11921 5.10352H6.35714C6.91866 5.90568 7.57038 6.4672 8.64327 6.96855C8.48284 7.17911 8.37254 7.40974 8.27227 7.66041C8.22214 7.80079 8.19204 7.86095 8.13188 7.86095C8.08175 7.86095 8.02162 7.82085 7.92135 7.76069C7.02895 7.19918 6.34711 6.47722 5.84576 5.55474C5.84576 6.69781 5.89588 8.00132 5.89588 8.31216C5.89588 8.4024 5.8959 8.41244 5.79563 8.41244H5.04361C4.95337 8.41244 4.9433 8.41243 4.9433 8.31216C4.9433 8.01135 4.99344 6.76801 5.00346 5.59485C4.55225 6.45717 3.88045 7.18914 2.94794 7.78073C2.83764 7.84089 2.78754 7.89103 2.72738 7.89103C2.66721 7.89103 2.63709 7.83088 2.55687 7.68047C2.42652 7.43982 2.28615 7.26936 2.12572 7.0989C3.19861 6.56747 3.9005 5.94579 4.44195 5.08347H3.82028V5.10352ZM6.77826 1.32334H4.11111V2.63689H6.77826V1.32334Z" fill="#FD6C26"/>
<path d="M11.1902 0.370994C11.2804 0.370994 11.3406 0.370995 11.3706 0.340914C11.4108 0.32086 11.4308 0.310835 11.491 0.310835C11.5511 0.310835 11.6313 0.350947 11.8419 0.581568C12.0324 0.802162 12.0625 0.8924 12.0625 0.952562C12.0625 1.01272 12.0324 1.06286 11.9823 1.113C11.9221 1.18319 11.882 1.27342 11.8118 1.48399C11.7116 1.77477 11.6313 2.05553 11.531 2.31623C12.5037 1.83494 13.1955 1.24335 13.727 0.551488C13.8473 0.381029 13.9376 0.190513 13.9977 0C14.3085 0.050135 14.5893 0.100268 14.8399 0.170457C14.9101 0.190511 14.9603 0.220587 14.9603 0.290776C14.9603 0.340911 14.9403 0.370997 14.8801 0.421132C14.85 0.441186 14.8199 0.461238 14.7898 0.481292C15.4516 1.19321 16.3741 1.80486 17.3969 2.14578C17.2665 2.31624 17.1462 2.5268 17.076 2.72734C17.0158 2.88778 16.9857 2.96798 16.9055 2.96798C16.8654 2.96798 16.7952 2.92789 16.6849 2.88778C16.4142 2.76746 16.1435 2.61704 15.8928 2.46663V2.88778C15.8928 2.968 15.8928 2.97802 15.7925 2.97802C15.7324 2.97802 15.5419 2.95796 14.8901 2.95796H14.83V3.55959H15.4115C16.2337 3.55959 16.5346 3.53953 16.5847 3.53953C16.685 3.53953 16.695 3.53954 16.695 3.63981C16.695 3.69997 16.6749 3.88044 16.6749 4.33166V5.13382C16.6749 5.58503 16.695 5.7555 16.695 5.81566C16.695 5.90591 16.695 5.91592 16.5847 5.91592C16.5346 5.91592 16.2337 5.89588 15.4115 5.89588H14.9302C15.4115 6.69804 16.2839 7.37987 17.3066 7.61049C17.1763 7.74084 17.0058 7.98149 16.8855 8.22214C16.8153 8.38257 16.7752 8.44273 16.715 8.44273C16.6649 8.44273 16.6047 8.41266 16.5045 8.37255C15.6722 7.99152 14.9202 7.35982 14.4289 6.56769L14.3787 6.67798C13.9476 7.44004 13.2958 8.01157 11.9823 8.41265C11.882 8.45276 11.8118 8.47281 11.7717 8.47281C11.6915 8.47281 11.6514 8.41266 11.5912 8.26225C11.4909 8.03163 11.3505 7.85114 11.2001 7.69071C12.6139 7.3899 13.2056 6.9086 13.5666 6.35711C13.6568 6.20671 13.727 6.06634 13.7871 5.89588H13.4262C12.5939 5.89588 12.2931 5.91592 12.233 5.91592C12.1427 5.91592 12.1327 5.91593 12.1327 5.81566C12.1327 5.76553 12.1527 5.58503 12.1527 5.13382V4.33166C12.1527 3.88044 12.1327 3.70999 12.1327 3.63981C12.1327 3.54956 12.1327 3.53953 12.233 3.53953C12.2931 3.53953 12.5939 3.55959 13.4262 3.55959H13.9476V2.95796C13.2958 2.95796 13.0953 2.97802 13.0351 2.97802C12.9449 2.97802 12.9349 2.97802 12.9349 2.88778V2.50675C12.6742 2.68724 12.4134 2.85769 12.1427 3.0081C12.0424 3.05823 11.9823 3.09834 11.9322 3.09834C11.882 3.09834 11.8419 3.03818 11.7616 2.87774C11.6915 2.71731 11.5912 2.55688 11.4809 2.42653C11.3807 2.70729 11.2603 2.99807 11.12 3.29888C11.7216 4.19128 11.8519 4.68261 11.8519 5.34439C11.8519 6.15658 11.5311 6.54763 10.6888 6.62785C10.5016 6.64122 10.398 6.55097 10.378 6.35711C10.3479 6.12649 10.2978 5.946 10.1875 5.80563C10.769 5.83571 10.9796 5.71539 10.9796 5.20401C10.9796 4.74277 10.8492 4.20132 10.2175 3.35905C10.5785 2.57694 10.779 1.98535 10.9796 1.2233H10.0972V6.38719C10.0972 7.64057 10.1173 8.30236 10.1173 8.35249C10.1173 8.44273 10.1172 8.45275 10.0069 8.45275H9.28501C9.20479 8.45275 9.19474 8.45276 9.19474 8.35249C9.19474 8.30236 9.21481 7.67066 9.21481 6.39723V2.44659C9.21481 1.15311 9.19474 0.521395 9.19474 0.461233C9.19474 0.37099 9.19477 0.360973 9.28501 0.360973C9.34517 0.360973 9.56575 0.381031 10.017 0.381031H11.1801L11.1902 0.370994ZM12.9749 4.2715V5.17393H13.9074C13.9275 4.91323 13.9376 4.61241 13.9376 4.2715H12.9749ZM15.5018 2.19592C15.0706 1.88508 14.6795 1.51407 14.3587 1.12302C14.0779 1.49402 13.717 1.86502 13.3159 2.19592H15.5018ZM15.8426 4.2715H14.8399C14.8399 4.61241 14.8199 4.90321 14.7898 5.17393H15.8426V4.2715Z" fill="#FD6C26"/>
<path d="M19.2217 1.33364C19.2217 0.752073 19.2017 0.451254 19.1516 0.0401472C19.4925 0.0401472 19.7632 0.070241 20.0741 0.100322C20.1643 0.100322 20.2244 0.150453 20.2244 0.190561C20.2244 0.270777 20.1944 0.320915 20.1743 0.381077C20.1242 0.491374 20.1142 0.681885 20.1142 1.30356V3.0282H20.1844C20.8862 3.0282 21.1169 3.00815 21.177 3.00815C21.2673 3.00815 21.2773 3.00815 21.2773 3.10842V3.76017C21.2773 3.84039 21.2773 3.85041 21.177 3.85041C21.1269 3.85041 20.9063 3.83035 20.2445 3.83035C20.6255 4.46205 20.9865 4.91327 21.4778 5.41462C21.3374 5.57505 21.2171 5.79565 21.1068 6.01625C21.0567 6.12654 21.0166 6.17668 20.9765 6.17668C20.9364 6.17668 20.8963 6.12655 20.8261 6.0363C20.5654 5.65528 20.3047 5.23413 20.0841 4.72275C20.0841 6.53764 20.1443 8.18207 20.1443 8.31242C20.1443 8.40266 20.1442 8.4127 20.0339 8.4127H19.2819C19.1917 8.4127 19.1817 8.41269 19.1817 8.31242C19.1817 8.17204 19.2318 6.65798 19.2418 4.95339C18.9711 5.69538 18.6001 6.39728 18.1288 7.039C18.0586 7.12925 18.0085 7.1894 17.9584 7.1894C17.9183 7.1894 17.8882 7.13926 17.848 7.02897C17.7678 6.76826 17.6275 6.48751 17.5172 6.35716C18.179 5.59511 18.6502 4.7729 18.9911 3.81031H18.8207C18.1088 3.81031 17.8782 3.83035 17.818 3.83035C17.7278 3.83035 17.7177 3.83035 17.7177 3.74011V3.08836C17.7177 2.99812 17.7177 2.98809 17.818 2.98809C17.8681 2.98809 18.0988 3.00815 18.8207 3.00815H19.2017V1.30356L19.2217 1.33364ZM18.3394 0.711954C18.4497 0.661819 18.4597 0.671849 18.4998 0.762092C18.7405 1.30355 18.8808 1.77483 18.9911 2.30626C19.0112 2.3965 18.9911 2.42657 18.8708 2.46668L18.4798 2.61709C18.3394 2.66723 18.3294 2.66723 18.3193 2.55693C18.2191 2.00545 18.0586 1.51413 17.848 1.0228C17.8079 0.922534 17.828 0.902476 17.9484 0.862368L18.3294 0.701933L18.3394 0.711954ZM20.6957 1.01277C20.7158 0.922524 20.7459 0.752066 20.7459 0.621715C20.9965 0.701931 21.2773 0.792184 21.4478 0.882427C21.518 0.922535 21.548 0.942589 21.548 0.992724C21.548 1.04286 21.528 1.06291 21.4979 1.08296C21.4478 1.12307 21.4177 1.18323 21.3876 1.2835C21.2773 1.6545 21.1369 2.0255 20.9665 2.44664C20.9063 2.58701 20.8863 2.63715 20.8261 2.63715C20.786 2.63715 20.7359 2.60707 20.6456 2.55693C20.5052 2.48674 20.3649 2.42658 20.2746 2.3965C20.4651 1.9152 20.6155 1.40382 20.6957 1.01277ZM24.0247 5.16394V1.49407C24.0247 0.842319 24.0247 0.561564 23.9545 0.100322C24.3055 0.100322 24.6062 0.130401 24.9271 0.160482C25.0073 0.160482 25.0675 0.210607 25.0675 0.260742C25.0675 0.320904 25.0374 0.371047 25.0174 0.441236C24.9672 0.551533 24.9673 0.782149 24.9673 1.45396V4.96341C25.4987 4.85311 25.7093 4.79295 25.7895 4.77289C25.8697 4.75284 25.8697 4.7729 25.8897 4.86315L26 5.57505C26 5.65527 26 5.6653 25.9098 5.68535C25.8496 5.70541 25.599 5.7355 24.9673 5.86585V6.71813C24.9673 7.73086 24.9873 8.26229 24.9873 8.3024C24.9873 8.39264 24.9873 8.40268 24.887 8.40268H24.125C24.0347 8.40268 24.0247 8.40267 24.0247 8.3024C24.0247 8.25226 24.0447 7.74088 24.0447 6.72815V6.04632L22.7913 6.297C21.9992 6.45743 21.6984 6.5176 21.6082 6.53765C21.5179 6.55771 21.4979 6.53765 21.4879 6.46746L21.3675 5.74551C21.3475 5.64524 21.3675 5.64525 21.4478 5.62519C21.538 5.60514 21.8388 5.57506 22.641 5.42466L24.0447 5.15392L24.0247 5.16394ZM22.0093 2.82765C22.0093 2.82765 22.0695 2.76749 22.0895 2.76749C22.1196 2.76749 22.1396 2.78755 22.1797 2.81763C22.6009 3.10841 23.0822 3.53957 23.4431 3.99079C23.5033 4.071 23.5033 4.09106 23.4131 4.1813L22.9619 4.63251C22.8616 4.72276 22.8415 4.72276 22.7814 4.65257C22.4003 4.17128 21.9892 3.75014 21.5681 3.40922C21.528 3.36911 21.5079 3.35909 21.5079 3.33904C21.5079 3.30896 21.538 3.27887 21.5781 3.23876L21.9992 2.83769L22.0093 2.82765ZM22.2599 0.742049C22.3402 0.67186 22.3502 0.651798 22.4304 0.701933C22.8916 1.0228 23.3529 1.41385 23.7239 1.86507C23.774 1.92523 23.774 1.96534 23.6938 2.03553L23.2526 2.46668C23.1523 2.56695 23.1323 2.57699 23.0822 2.49677C22.7011 2.01548 22.2399 1.59433 21.8388 1.29352C21.7787 1.24339 21.7686 1.20328 21.8588 1.12306L22.2599 0.742049Z" fill="#FD6C26"/>
</svg>
