<svg width="51" height="20" viewBox="0 0 51 20" fill="none" xmlns="http://www.w3.org/2000/svg">
<path d="M50.8979 9.67065L40.8642 0.0977895C40.7206 -0.0382101 40.5015 -0.0306513 40.3655 0.112904C40.2824 0.20357 40.2446 0.332012 40.2824 0.4529L41.9673 6.29332C41.4384 6.04399 40.8566 5.91555 40.2673 5.90799H9.14605L10.7252 0.4529C10.778 0.264012 10.6723 0.0675669 10.4834 0.0146782C10.3625 -0.0230995 10.2341 0.0146787 10.1434 0.0977895L0.109642 9.67065C-0.0339135 9.80665 -0.0339282 10.0258 0.0945158 10.1693C0.0945158 10.1693 0.102086 10.1769 0.109642 10.1844L10.1434 19.7573C10.2869 19.8933 10.506 19.8857 10.642 19.7422C10.7251 19.6515 10.7629 19.5231 10.7252 19.4022L9.14605 13.9395H40.2673C40.8566 13.9395 41.4384 13.8111 41.9673 13.5617L40.2824 19.4022C40.2295 19.5911 40.3353 19.7875 40.5242 19.8404C40.6451 19.8782 40.7735 19.8404 40.8642 19.7573L50.8904 10.1769C51.0339 10.0409 51.0339 9.82176 50.9055 9.6782C50.9055 9.6782 50.8979 9.67065 50.8904 9.66309" fill="#636972"/>
</svg>
