<svg width="620" height="304" viewBox="0 0 620 304" fill="none" xmlns="http://www.w3.org/2000/svg">
<mask id="mask0_1_1388" style="mask-type:luminance" maskUnits="userSpaceOnUse" x="285" y="48" width="51" height="21">
<path d="M335.374 48.4956H285.006V68.1103H335.374V48.4956Z" fill="white"/>
</mask>
<g mask="url(#mask0_1_1388)">
<path d="M335.263 58.0529L325.355 48.6C325.213 48.4657 324.996 48.4732 324.862 48.6149C324.78 48.7044 324.743 48.8313 324.78 48.9506L326.444 54.7179C325.922 54.4717 325.347 54.3449 324.765 54.3374H294.034L295.593 48.9506C295.645 48.7641 295.541 48.5701 295.354 48.5179C295.235 48.4806 295.108 48.5179 295.019 48.6L285.11 58.0529C284.969 58.1872 284.969 58.4036 285.096 58.5454C285.096 58.5454 285.103 58.5528 285.11 58.5603L295.019 68.0132C295.16 68.1475 295.377 68.1401 295.511 67.9983C295.593 67.9088 295.63 67.7819 295.593 67.6626L294.034 62.2683H324.765C325.347 62.2683 325.922 62.1415 326.444 61.8953L324.78 67.6626C324.728 67.8491 324.832 68.0431 325.019 68.0953C325.138 68.1326 325.265 68.0953 325.355 68.0132L335.255 58.5528C335.397 58.4185 335.397 58.2021 335.27 58.0604C335.27 58.0604 335.263 58.0529 335.255 58.0455" fill="#636972"/>
</g>
<mask id="mask1_1_1388" style="mask-type:luminance" maskUnits="userSpaceOnUse" x="285" y="234" width="51" height="20">
<path d="M335.374 234.272H285.006V253.887H335.374V234.272Z" fill="white"/>
</mask>
<g mask="url(#mask1_1_1388)">
<path d="M335.263 243.829L325.355 234.376C325.213 234.242 324.996 234.25 324.862 234.391C324.78 234.481 324.743 234.608 324.78 234.727L326.444 240.494C325.922 240.248 325.347 240.121 324.765 240.114H294.034L295.593 234.727C295.645 234.54 295.541 234.347 295.354 234.294C295.235 234.257 295.108 234.294 295.019 234.376L285.11 243.829C284.969 243.964 284.969 244.18 285.096 244.322C285.096 244.322 285.103 244.329 285.11 244.337L295.019 253.79C295.16 253.924 295.377 253.916 295.511 253.775C295.593 253.685 295.63 253.558 295.593 253.439L294.034 248.045H324.765C325.347 248.045 325.922 247.918 326.444 247.672L324.78 253.439C324.728 253.625 324.832 253.819 325.019 253.872C325.138 253.909 325.265 253.872 325.355 253.79L335.255 244.329C335.397 244.195 335.397 243.979 335.27 243.837C335.27 243.837 335.263 243.829 335.255 243.822" fill="#636972"/>
</g>
<mask id="mask2_1_1388" style="mask-type:luminance" maskUnits="userSpaceOnUse" x="118" y="127" width="21" height="51">
<path d="M138.243 127.395H118.628V177.763H138.243V127.395Z" fill="white"/>
</mask>
<g mask="url(#mask2_1_1388)">
<path d="M128.685 177.651L138.138 167.743C138.273 167.601 138.265 167.385 138.123 167.251C138.034 167.168 137.907 167.131 137.788 167.168L132.02 168.832C132.267 168.31 132.394 167.735 132.401 167.154V136.422L137.788 137.981C137.974 138.034 138.168 137.929 138.22 137.743C138.258 137.623 138.22 137.496 138.138 137.407L128.685 127.499C128.551 127.357 128.335 127.357 128.193 127.484C128.193 127.484 128.186 127.491 128.178 127.499L118.725 137.407C118.591 137.549 118.598 137.765 118.74 137.899C118.83 137.981 118.956 138.019 119.076 137.981L124.47 136.422V167.154C124.47 167.735 124.597 168.31 124.843 168.832L119.076 167.168C118.889 167.116 118.695 167.221 118.643 167.407C118.606 167.527 118.643 167.653 118.725 167.743L128.186 177.644C128.32 177.785 128.536 177.785 128.678 177.658C128.678 177.658 128.685 177.651 128.693 177.644" fill="#636972"/>
</g>
<mask id="mask3_1_1388" style="mask-type:luminance" maskUnits="userSpaceOnUse" x="481" y="127" width="20" height="51">
<path d="M500.842 127.395H481.227V177.763H500.842V127.395Z" fill="white"/>
</mask>
<g mask="url(#mask3_1_1388)">
<path d="M491.285 177.651L500.738 167.743C500.872 167.601 500.864 167.385 500.723 167.251C500.633 167.168 500.506 167.131 500.387 167.168L494.62 168.832C494.866 168.31 494.993 167.735 495 167.154V136.422L500.387 137.981C500.573 138.034 500.767 137.929 500.82 137.743C500.857 137.623 500.82 137.496 500.738 137.407L491.285 127.499C491.15 127.357 490.934 127.357 490.792 127.484C490.792 127.484 490.785 127.491 490.777 127.499L481.324 137.407C481.19 137.549 481.198 137.765 481.339 137.899C481.429 137.981 481.556 138.019 481.675 137.981L487.069 136.422V167.154C487.069 167.735 487.196 168.31 487.442 168.832L481.675 167.168C481.489 167.116 481.295 167.221 481.242 167.407C481.205 167.527 481.242 167.653 481.324 167.743L490.785 177.644C490.919 177.785 491.135 177.785 491.277 177.658C491.277 177.658 491.285 177.651 491.292 177.644" fill="#636972"/>
</g>
<path d="M242.479 0H14.9218C6.68071 0 0 6.68071 0 14.9218V101.468C0 109.709 6.68071 116.39 14.9218 116.39H242.479C250.72 116.39 257.401 109.709 257.401 101.468V14.9218C257.401 6.68071 250.72 0 242.479 0Z" fill="#F5F6F9"/>
<path d="M242.479 187.269H14.9218C6.68071 187.269 0 193.949 0 202.19V288.737C0 296.978 6.68071 303.658 14.9218 303.658H242.479C250.72 303.658 257.401 296.978 257.401 288.737V202.19C257.401 193.949 250.72 187.269 242.479 187.269Z" fill="#FFF7F0"/>
<path d="M605.078 0H377.521C369.28 0 362.599 6.68071 362.599 14.9218V101.468C362.599 109.709 369.28 116.39 377.521 116.39H605.078C613.319 116.39 620 109.709 620 101.468V14.9218C620 6.68071 613.319 0 605.078 0Z" fill="#F5F6F9"/>
<path d="M605.078 185.776H377.521C369.28 185.776 362.599 192.457 362.599 200.698V287.244C362.599 295.486 369.28 302.166 377.521 302.166H605.078C613.319 302.166 620 295.486 620 287.244V200.698C620 192.457 613.319 185.776 605.078 185.776Z" fill="#F5F6F9"/>
<path d="M123.478 47.7497C123.321 46.9887 123.052 46.1158 122.806 45.4443L121.71 42.6688H114.077L113.003 45.4443C112.645 46.362 112.465 46.9439 112.309 47.7497H109.6C110.003 47.0335 110.25 46.4963 110.787 45.1533L115.778 32.619C116.203 31.5447 116.382 31.0299 116.494 30.4927H119.225C119.337 30.9403 119.449 31.2761 119.986 32.619L125 45.1533C125.559 46.5187 125.85 47.1678 126.186 47.7497H123.478ZM118.352 33.671C118.307 33.5367 118.151 33.0741 117.882 32.2833C117.77 32.5966 117.681 32.8652 117.636 33.0219C117.524 33.3353 117.457 33.5591 117.412 33.671L114.704 40.8335H121.083L118.352 33.671Z" fill="#333333"/>
<path d="M132.856 47.2799C132.856 48.2647 132.901 48.8914 132.968 49.4958H131.021C131.11 48.8467 131.155 48.22 131.155 47.2575V40.677C130.103 41.7066 129.521 42.1766 128.223 43.1167C127.977 42.49 127.708 42.0423 127.305 41.5499C128.894 40.5875 130.081 39.625 131.334 38.2821C132.453 37.0734 133.147 36.0438 133.975 34.3651H129.946C129.23 34.3651 128.738 34.3875 128.111 34.4546V32.6864C128.76 32.7535 129.185 32.7759 129.879 32.7759H131.155V30.7391C131.155 30.1348 131.11 29.4857 131.021 29.0156H132.99C132.901 29.4857 132.856 30.0676 132.856 30.7839V32.7759H134.065C134.714 32.7759 135.072 32.7535 135.341 32.7088L136.146 33.6041C135.99 33.8503 135.833 34.1189 135.632 34.5441C134.915 36.0438 134.289 37.0286 133.214 38.3492C134.378 39.6698 135.273 40.4308 136.818 41.3485C136.415 41.8633 136.191 42.2438 135.922 42.8705C134.624 41.9752 133.751 41.1918 132.856 40.1174V47.2799ZM142.123 46.7203H145.435C146.599 46.7203 147.293 46.6756 147.897 46.586V48.5781C147.181 48.4662 146.375 48.4214 145.435 48.4214H137.489C136.504 48.4214 135.766 48.4662 135.05 48.5781V46.586C135.699 46.6756 136.348 46.7203 137.512 46.7203H140.377V37.4091H138.317C137.512 37.4091 136.795 37.4539 136.124 37.521V35.6409C136.728 35.7304 137.355 35.7752 138.317 35.7752H140.377V31.1867C140.377 30.4034 140.332 29.9109 140.22 29.0828H142.279C142.145 29.9333 142.123 30.3586 142.123 31.1867V35.7752H144.92C145.905 35.7752 146.487 35.7528 147.114 35.6409V37.521C146.442 37.4539 145.748 37.4091 144.92 37.4091H142.123V46.7203Z" fill="#333333"/>
<path d="M98.9687 72.3034C100.2 70.5128 100.759 69.5056 101.632 67.4912L103.333 68.185C102.058 70.4457 101.61 71.1619 100.804 72.3034H102.572C103.647 72.3034 104.229 72.281 104.967 72.2139C104.9 72.7287 104.878 73.1763 104.878 73.9597V75.6161C104.878 76.198 104.9 76.6009 104.99 77.1605H103.177V73.8478H88.0012V77.1605H86.1882C86.2777 76.489 86.3001 76.1532 86.3001 75.6161V73.9821C86.3001 73.2211 86.2777 72.7511 86.2106 72.2139C86.9492 72.281 87.5312 72.3034 88.6055 72.3034H98.9687ZM100.871 77.6305C102.08 77.5857 102.796 77.5634 102.998 77.541C102.953 77.8319 102.953 77.9439 102.908 78.7273C102.751 82.0623 102.505 84.0543 102.125 85.3749C101.722 86.6955 100.938 87.1208 98.8568 87.1208C98.3196 87.1208 97.6481 87.0984 96.5066 87.0088C96.4619 86.2926 96.3499 85.7778 96.1261 85.1958C97.0662 85.3525 98.1405 85.4421 98.9016 85.4421C100.088 85.4421 100.334 85.2406 100.603 84.1662C100.849 83.0919 101.028 81.4803 101.117 79.1749H95.477C94.8727 81.637 93.8878 83.3381 92.2091 84.7706C91.0005 85.8002 89.8142 86.4493 87.5312 87.3446C87.173 86.606 86.9268 86.2255 86.4344 85.7554C88.6279 85.0616 90.3066 84.1886 91.5153 83.0695C92.6344 82.0399 93.3283 80.8312 93.7312 79.1749H90.2171C89.277 79.1749 88.3593 79.2197 87.7998 79.3092V77.5186C88.2698 77.5857 89.1651 77.6305 90.2171 77.6305H93.9774C94.0669 76.8471 94.1117 76.198 94.1117 75.5489C94.1117 75.1684 94.0893 74.9893 94.0669 74.6984H96.0142C95.9471 75.0117 95.9247 75.2132 95.8799 75.9966C95.8351 76.668 95.8128 77.0709 95.7232 77.6305H100.871ZM90.1947 71.9677C89.3889 70.2442 89.0532 69.6847 87.9564 68.3193L89.5232 67.6702C90.62 69.0803 90.8886 69.5056 91.8063 71.2514L90.1947 71.9677ZM95.4546 71.5424C94.9398 70.2442 94.425 69.3265 93.4178 67.894L94.9622 67.3345C95.7904 68.476 96.4842 69.6623 97.0662 70.8486L95.4546 71.5424Z" fill="#333333"/>
<path d="M128.021 70.8263C127.484 70.7592 127.171 70.7592 126.164 70.7368C125.358 72.5498 124.821 73.4003 123.657 74.5866C125.022 75.4148 126.41 75.9296 128.514 76.422C128.111 77.0039 128.021 77.2501 127.753 78.0335C125.492 77.3397 123.925 76.6234 122.515 75.6162C121.239 76.5787 119.807 77.2949 117.457 78.1454C117.255 77.653 117.009 77.2725 116.651 76.8472C116.226 78.0111 115.957 78.5931 115.442 79.4884C114.972 79.0855 114.816 78.996 114.234 78.705C114.86 77.7202 115.219 76.9368 115.577 75.7953H113.585L113.674 85.666C113.697 86.8747 113.182 87.2776 111.66 87.2776C110.966 87.2776 110.473 87.2552 109.533 87.1657C109.533 86.6509 109.421 86.1584 109.198 85.5989C110.182 85.7556 110.832 85.8227 111.503 85.8227C111.951 85.8227 112.13 85.6884 112.13 85.3303L112.107 78.2797C111.055 80.7194 109.891 82.4653 108.325 83.9873C108.034 83.2711 107.855 82.9577 107.385 82.4205C109.377 80.6747 110.72 78.6826 111.772 75.7953H109.712C108.795 75.7953 108.28 75.8176 107.787 75.9296V74.1837C108.325 74.2732 108.862 74.2956 109.802 74.2956H112.645C111.593 73.0646 110.809 72.3483 109.399 71.2963L110.429 70.3563C111.481 71.162 111.861 71.4978 112.51 72.0797C113.562 71.162 113.965 70.6696 114.771 69.5281H110.294C109.421 69.5281 108.862 69.5505 108.325 69.64V67.9389C108.862 68.0285 109.421 68.0509 110.429 68.0509H114.368C115.577 68.0509 115.733 68.0509 116.203 67.9837L117.099 68.9462C116.92 69.1252 116.763 69.3043 116.405 69.7967C115.375 71.2068 114.525 72.1469 113.495 73.0646C113.719 73.3108 113.808 73.4003 114.077 73.7361L113.54 74.2956H115.017C115.778 74.2956 116.226 74.2732 116.629 74.2285L117.323 75.1014C117.211 75.3028 117.143 75.5043 117.009 75.84C116.875 76.2205 116.83 76.3772 116.696 76.7353C118.733 76.131 120.008 75.549 121.307 74.6761C120.299 73.7584 119.65 72.9527 119.001 71.8559C118.442 72.6169 118.084 73.0198 117.099 74.027C116.718 73.5346 116.517 73.3779 115.912 72.9527C117.658 71.3859 118.643 70.0653 119.359 68.2747C119.583 67.7375 119.65 67.5137 119.785 66.9541L121.419 67.3346C121.359 67.454 121.247 67.7077 121.083 68.0956C120.859 68.6104 120.769 68.8342 120.546 69.2819H125.761C126.768 69.2819 127.462 69.2371 128.021 69.17V70.8263ZM125.425 79.3989C126.343 79.3989 126.835 79.3765 127.238 79.3093C127.193 79.5929 127.126 80.3016 127.037 81.4357C126.79 84.1216 126.432 85.7555 125.962 86.4046C125.582 86.9194 125.045 87.1209 124.037 87.1209C123.321 87.1209 122.851 87.0761 121.508 86.8971C121.441 86.1808 121.396 85.9346 121.15 85.196C122.381 85.4646 123.142 85.5765 123.836 85.5765C124.574 85.5765 124.798 85.3303 125.045 84.2335C125.201 83.4725 125.291 82.8234 125.447 80.8985H121.71C120.792 84.0097 118.979 85.9122 115.487 87.4342C115.196 86.8747 114.928 86.4718 114.458 86.0241C116.293 85.3079 117.3 84.7259 118.285 83.7859C119.091 83.0249 119.628 82.1743 120.053 80.8985H117.86C116.897 80.8985 116.382 80.9209 115.89 80.988V79.3093C116.405 79.3765 116.852 79.3989 117.927 79.3989H120.411C120.546 78.6826 120.613 78.0559 120.613 77.4963C120.613 77.3173 120.59 77.2501 120.568 77.0487L122.403 77.0935C122.336 77.474 122.336 77.5411 122.202 78.5036C122.157 78.7945 122.112 79.0184 122.045 79.3989H125.425ZM120.008 70.7368C120.59 71.8783 121.351 72.8184 122.471 73.7361C123.433 72.8184 123.881 72.1469 124.485 70.7368H120.008Z" fill="#333333"/>
<path d="M133.595 70.1549C132.901 71.0502 132.341 71.6098 131.491 72.3484C131.021 71.7889 130.954 71.7217 130.215 71.2293C131.916 70.0206 133.058 68.5881 133.751 66.8423L135.452 67.2899C135.094 67.939 134.938 68.2076 134.602 68.7448H138.161C139.123 68.7448 139.571 68.7224 140.086 68.6329V70.2221C139.571 70.1773 139.28 70.1549 138.429 70.1549H136.773C137.176 70.8712 137.377 71.2517 137.668 71.9455L136.191 72.5275C135.878 71.5426 135.676 71.0502 135.184 70.1549H133.595ZM147.45 72.908C148.569 72.908 149.039 72.8856 149.777 72.8185C149.71 73.2661 149.71 73.5571 149.71 74.2286V75.5044C149.71 76.1759 149.733 76.5564 149.8 76.9816H148.076V74.2957H132.744V76.9816H131.021C131.065 76.534 131.11 76.1535 131.11 75.5268V74.251C131.11 73.6466 131.088 73.2661 131.021 72.8185C131.692 72.8856 132.14 72.908 133.281 72.908H139.258V72.5722C139.258 72.0574 139.235 71.7889 139.168 71.3636H140.981C140.959 71.4307 140.959 71.4979 140.959 71.5203C140.891 71.8336 140.891 72.0127 140.891 72.5722V72.908H147.45ZM133.863 87.5015C133.953 86.7629 133.998 86.1138 133.998 85.1737V77.1159C133.998 76.3773 133.975 75.9968 133.908 75.5044C134.58 75.5939 135.161 75.6163 136.057 75.6163H144.338C145.256 75.6163 145.838 75.5939 146.487 75.5044C146.442 75.9297 146.42 76.3997 146.42 77.1159V78.526C146.42 79.3318 146.42 79.7347 146.487 80.2495C145.86 80.1824 145.278 80.16 144.383 80.16H135.632V81.6149H145.346C146.263 81.6149 146.823 81.5925 147.338 81.5253C147.271 82.0625 147.248 82.6892 147.248 83.495V85.4199C147.248 86.2257 147.271 86.83 147.36 87.5015H145.614V86.4271H135.632V87.5015H133.863ZM135.632 78.817H144.831V76.9816H135.632V78.817ZM135.632 85.0618H145.614V83.0026H135.632V85.0618ZM142.324 70.1773C141.899 70.7593 141.63 71.0726 141.182 71.5203C140.891 71.1845 140.466 70.8935 139.907 70.6026C141.026 69.6849 141.854 68.4091 142.302 66.9094L143.935 67.2452C143.689 67.8271 143.577 68.0286 143.197 68.7672H148.3C149.307 68.7672 149.733 68.7448 150.337 68.6553V70.2892C149.755 70.1997 149.285 70.1773 148.345 70.1773H145.659C146.107 70.8935 146.353 71.2964 146.666 71.9455L145.122 72.5275C144.741 71.5426 144.495 71.0278 143.98 70.1773H142.324Z" fill="#333333"/>
<path d="M154.254 69.8642C153.381 69.8642 153.135 69.8866 152.486 69.9761V68.2079C153.023 68.2974 153.538 68.3422 154.433 68.3422H157.768C158.619 68.3422 159.089 68.3198 159.648 68.2079V69.9537C159.066 69.8866 158.641 69.8642 157.947 69.8642H156.962V74.8779H157.746C158.372 74.8779 158.73 74.8555 159.223 74.766V76.4223C158.753 76.3552 158.305 76.3328 157.746 76.3328H156.962V81.6599C157.88 81.2793 158.283 81.0779 159.469 80.496L159.559 82.1747C157.544 83.1595 156.761 83.4952 153.717 84.7039C153.18 84.9053 153.09 84.9501 152.821 85.0844L152.329 83.249C153.112 83.0923 153.806 82.8685 155.328 82.309V76.3328H154.276C153.672 76.3328 153.269 76.3552 152.754 76.4447V74.766C153.269 74.8555 153.627 74.8779 154.299 74.8779H155.328V69.8642H154.254ZM165.221 82.1747H162.401C161.282 82.1747 160.79 82.197 160.208 82.2866V80.5631C160.745 80.6526 161.26 80.675 162.379 80.675H165.221V78.3248H162.983C161.573 78.3248 160.857 78.3472 160.23 78.4144C160.275 78.0712 160.305 77.1908 160.32 75.7732V70.9162C160.32 69.4613 160.297 68.7451 160.208 68.0288C160.924 68.1183 161.64 68.1407 163.14 68.1407H169.116C170.728 68.1407 171.377 68.1183 171.981 68.0288C171.914 68.6779 171.891 69.5956 171.891 70.9162V75.5046C171.891 76.9819 171.914 77.7877 171.981 78.4144C171.175 78.3472 170.638 78.3248 169.362 78.3248H166.811V80.675H170.011C171.108 80.675 171.6 80.6526 172.227 80.5631V82.2866C171.6 82.197 171.086 82.1747 170.011 82.1747H166.811V85.1739H170.817C171.914 85.1739 172.473 85.1516 173.055 85.062V86.8079C172.361 86.7183 171.869 86.696 170.75 86.696H160.902C159.782 86.696 159.29 86.7183 158.574 86.8079V85.062C159.156 85.1516 159.648 85.1739 160.745 85.1739H165.221V82.1747ZM161.886 69.618V72.5277H165.221V69.618H161.886ZM161.886 73.9826V76.8476H165.221V73.9826H161.886ZM166.811 72.5277H170.302V69.618H166.811V72.5277ZM166.811 76.8476H170.302V73.9826H166.811V76.8476Z" fill="#333333"/>
<path d="M481.586 30.493C484.876 30.493 486.734 31.9926 486.734 34.7009C486.734 35.9991 486.331 36.984 485.525 37.7226C485.055 38.1479 484.674 38.3493 483.779 38.6403C484.853 38.8417 485.368 39.0656 485.973 39.6028C486.868 40.4085 487.338 41.55 487.338 42.9825C487.338 46.0266 485.346 47.75 481.832 47.75H476.661C475.542 47.75 474.916 47.75 474.087 47.7948C474.244 46.8771 474.289 46.3176 474.289 44.9746V32.9327C474.289 31.9479 474.244 31.2764 474.11 30.4482C474.759 30.4706 475.341 30.493 476.661 30.493H481.586ZM481.474 37.7898C483.466 37.7898 484.607 36.7602 484.607 34.9248C484.607 33.2013 483.533 32.306 481.451 32.306H476.37V37.7898H481.474ZM476.37 45.937H481.608C483.913 45.937 485.167 44.8403 485.167 42.7811C485.167 40.7219 483.936 39.5804 481.541 39.5804H476.37V45.937Z" fill="#333333"/>
<path d="M494.948 47.2799C494.948 48.2647 494.993 48.8914 495.06 49.4958H493.113C493.202 48.8467 493.247 48.22 493.247 47.2575V40.677C492.195 41.7066 491.613 42.1766 490.315 43.1167C490.069 42.49 489.8 42.0423 489.397 41.5499C490.986 40.5875 492.173 39.625 493.426 38.2821C494.545 37.0734 495.239 36.0438 496.067 34.3651H492.038C491.322 34.3651 490.83 34.3875 490.203 34.4546V32.6864C490.852 32.7535 491.277 32.7759 491.971 32.7759H493.247V30.7391C493.247 30.1348 493.202 29.4857 493.113 29.0156H495.082C494.993 29.4857 494.948 30.0676 494.948 30.7839V32.7759H496.157C496.806 32.7759 497.164 32.7535 497.432 32.7088L498.238 33.6041C498.082 33.8503 497.925 34.1189 497.723 34.5441C497.007 36.0438 496.38 37.0286 495.306 38.3492C496.47 39.6698 497.365 40.4308 498.91 41.3485C498.507 41.8633 498.283 42.2438 498.014 42.8705C496.716 41.9752 495.843 41.1918 494.948 40.1174V47.2799ZM504.214 46.7203H507.527C508.691 46.7203 509.385 46.6756 509.989 46.586V48.5781C509.273 48.4662 508.467 48.4214 507.527 48.4214H499.581C498.596 48.4214 497.858 48.4662 497.142 48.5781V46.586C497.791 46.6756 498.44 46.7203 499.604 46.7203H502.469V37.4091H500.409C499.604 37.4091 498.887 37.4539 498.216 37.521V35.6409C498.82 35.7304 499.447 35.7752 500.409 35.7752H502.469V31.1867C502.469 30.4034 502.424 29.9109 502.312 29.0828H504.371C504.237 29.9333 504.214 30.3586 504.214 31.1867V35.7752H507.012C507.997 35.7752 508.579 35.7528 509.206 35.6409V37.521C508.534 37.4539 507.84 37.4091 507.012 37.4091H504.214V46.7203Z" fill="#333333"/>
<path d="M451.138 68.6778C451.138 68.0735 451.115 67.7154 451.048 67.3125H452.772C452.704 67.6706 452.682 67.8944 452.682 68.6555V69.1031H455.234V68.6778C455.234 67.984 455.211 67.7154 455.144 67.3349H456.868C456.8 67.6706 456.778 67.9616 456.778 68.6331V69.1031H457.741C458.412 69.1031 458.904 69.0807 459.643 68.9912V70.5804C459.128 70.5132 458.703 70.4908 457.741 70.4908H456.778V70.7594C456.778 71.2966 456.8 71.6547 456.868 71.9681H455.167C455.211 71.6995 455.234 71.4085 455.234 70.7594V70.4908H452.682V70.7594C452.682 71.4085 452.704 71.6324 452.749 71.9457H451.048C451.115 71.61 451.138 71.2518 451.138 70.737V70.4908H449.996C449.078 70.4908 448.586 70.5132 448.228 70.5804V68.9912C448.698 69.0583 449.235 69.1031 450.063 69.1031H451.138V68.6778ZM450.645 77.1161C449.795 77.1161 449.548 77.1161 449.011 77.1609C449.034 76.8251 449.056 76.4222 449.056 76.0641V73.5349C449.056 73.1096 449.034 72.8634 449.011 72.4381C449.593 72.4829 449.638 72.4829 450.645 72.4829H457.293C458.3 72.4829 458.345 72.4829 458.927 72.4381C458.882 72.841 458.882 73.0872 458.882 73.6468V75.997C458.882 76.467 458.904 76.8028 458.927 77.1609C458.412 77.1161 458.211 77.1161 457.315 77.1161H454.629V78.5262H456.957C457.852 78.5262 458.3 78.5038 458.972 78.4367V79.9811C458.3 79.9139 457.852 79.8916 456.957 79.8916H454.629V81.3241H456.465C457.382 81.3241 457.83 81.3017 458.434 81.2345V82.7789C457.741 82.7118 457.338 82.6894 456.465 82.6894H454.629V84.4129C455.838 84.2786 456.599 84.1443 458.502 83.7414L458.591 85.0843C455.346 85.8006 454.137 86.002 449.75 86.5616C449.347 86.6287 449.078 86.6735 448.631 86.7407L448.295 84.9724C448.407 84.9724 448.496 84.9724 448.541 84.9948H448.72C449.392 84.9948 450.354 84.9053 453.107 84.5919V82.6894H451.115C450.332 82.6894 449.817 82.7118 449.235 82.8013V81.2121C449.66 81.3017 450.22 81.3241 451.138 81.3241H453.107V79.8916H450.6C449.817 79.8916 449.235 79.9363 448.698 80.0035V78.4143C449.19 78.5038 449.683 78.5262 450.645 78.5262H453.107V77.1161H450.645ZM450.556 73.8035V75.8179H453.107V73.8035H450.556ZM454.629 75.8179H457.45V73.8035H454.629V75.8179ZM465.933 72.1024C466.962 72.1024 467.455 72.08 467.947 72.0129C467.917 72.3262 467.872 73.3931 467.813 75.2136C467.634 80.4064 467.343 83.8533 466.94 85.2858C466.671 86.2035 466.403 86.6287 465.888 86.8526C465.463 87.054 464.903 87.1435 464.164 87.1435C463.829 87.1435 463.717 87.1435 462.284 87.0093C462.239 86.293 462.172 85.9125 461.926 85.2186C462.777 85.4425 463.538 85.5544 464.209 85.5544C465.149 85.5544 465.328 85.2858 465.574 83.6519C465.955 81.2345 466.089 78.8396 466.179 73.6244H463.627C463.448 77.228 463.135 79.1977 462.396 81.4583C461.635 83.8309 460.561 85.6887 458.927 87.4793C458.412 86.875 458.166 86.6511 457.539 86.2706C459.285 84.5695 460.292 82.8685 461.008 80.384C461.568 78.5038 461.837 76.6908 461.971 73.6244H461.546C460.382 73.6244 459.956 73.6468 459.531 73.7363V71.9905C460.091 72.08 460.606 72.1024 461.546 72.1024H462.016C462.038 71.2742 462.038 70.6699 462.038 69.7746C462.038 68.163 462.016 67.9168 461.904 67.3125H463.851C463.761 67.8944 463.717 68.2302 463.717 68.9912C463.694 70.849 463.694 71.3638 463.672 72.1024H465.933Z" fill="#333333"/>
<path d="M470.588 85.5542C472.177 83.9874 472.849 82.8683 473.543 80.6971L475.065 81.3462C474.237 83.7412 473.52 84.9946 472.043 86.6957L470.588 85.5542ZM474.595 71.095C474.841 71.0726 474.863 71.0726 475.087 71.0726C476.587 69.3491 477.504 67.9838 477.863 66.9766L479.855 67.4466C479.765 67.566 479.631 67.76 479.452 68.0286C478.601 69.2596 477.952 70.1101 477.124 71.0502C479.653 71.0278 482.272 70.9159 485.137 70.7145C484.264 70.0206 483.749 69.6401 482.496 68.8567L483.861 68.0062C485.92 69.3267 487.33 70.4235 489.86 72.7065L488.494 73.8257C487.532 72.8408 487.219 72.5275 486.637 71.9903C482.652 72.3484 477.706 72.5946 473.117 72.6618C472.401 72.6841 472.088 72.7065 471.595 72.7513L471.282 70.9607C472.043 71.0502 473.006 71.095 474.326 71.095H474.595ZM473.587 75.661C473.587 75.0343 473.565 74.6091 473.498 74.0047C474.035 74.0719 474.55 74.0943 475.468 74.0943H485.54C486.458 74.0943 486.972 74.0719 487.509 74.0047C487.442 74.5195 487.42 74.9 487.42 75.661V78.056C487.42 78.8394 487.442 79.1527 487.509 79.7123C486.928 79.6452 486.458 79.6228 485.607 79.6228H475.4C474.55 79.6228 474.08 79.6452 473.498 79.7123C473.565 79.1975 473.587 78.7722 473.587 78.056V75.661ZM475.244 75.5267V78.2127H485.741V75.5267H475.244ZM477.93 80.8091C477.84 81.3015 477.818 81.6596 477.818 82.2863V84.9051C477.818 85.4199 478.131 85.487 480.549 85.487C483.346 85.487 484.04 85.3975 484.309 85.017C484.533 84.726 484.6 84.2112 484.645 82.7563C485.182 83.0473 485.629 83.204 486.301 83.3159C485.987 86.9419 485.876 87.0314 480.772 87.0314C476.766 87.0314 476.162 86.83 476.162 85.4647V82.443C476.162 81.7491 476.139 81.4134 476.05 80.8091H477.93ZM482.25 83.8755C481.153 82.6444 480.392 81.9953 478.982 81.1224L480.28 80.2047C481.645 81.0776 482.406 81.682 483.525 82.8011L482.25 83.8755ZM489.255 86.4943C488.047 84.1888 487.174 82.9578 485.629 81.2791L487.062 80.5181C488.629 82.2415 489.546 83.4726 490.755 85.4647L489.255 86.4943Z" fill="#333333"/>
<path d="M496.194 70.1549C495.5 71.0502 494.941 71.6098 494.09 72.3484C493.62 71.7889 493.553 71.7217 492.814 71.2293C494.515 70.0206 495.657 68.5881 496.351 66.8423L498.052 67.2899C497.694 67.939 497.537 68.2076 497.201 68.7448H500.76C501.722 68.7448 502.17 68.7224 502.685 68.6329V70.2221C502.17 70.1773 501.879 70.1549 501.029 70.1549H499.372C499.775 70.8712 499.977 71.2517 500.268 71.9455L498.79 72.5275C498.477 71.5426 498.276 71.0502 497.783 70.1549H496.194ZM510.049 72.908C511.168 72.908 511.638 72.8856 512.377 72.8185C512.309 73.2661 512.309 73.5571 512.309 74.2286V75.5044C512.309 76.1759 512.332 76.5564 512.399 76.9816H510.676V74.2957H495.343V76.9816H493.62C493.665 76.534 493.709 76.1535 493.709 75.5268V74.251C493.709 73.6466 493.687 73.2661 493.62 72.8185C494.291 72.8856 494.739 72.908 495.881 72.908H501.857V72.5722C501.857 72.0574 501.834 71.7889 501.767 71.3636H503.58C503.558 71.4307 503.558 71.4979 503.558 71.5203C503.491 71.8336 503.491 72.0127 503.491 72.5722V72.908H510.049ZM496.463 87.5015C496.552 86.7629 496.597 86.1138 496.597 85.1737V77.1159C496.597 76.3773 496.574 75.9968 496.507 75.5044C497.179 75.5939 497.761 75.6163 498.656 75.6163H506.938C507.855 75.6163 508.437 75.5939 509.086 75.5044C509.042 75.9297 509.019 76.3997 509.019 77.1159V78.526C509.019 79.3318 509.019 79.7347 509.086 80.2495C508.46 80.1824 507.878 80.16 506.982 80.16H498.231V81.6149H507.945C508.863 81.6149 509.422 81.5925 509.937 81.5253C509.87 82.0625 509.847 82.6892 509.847 83.495V85.4199C509.847 86.2257 509.87 86.83 509.959 87.5015H508.213V86.4271H498.231V87.5015H496.463ZM498.231 78.817H507.43V76.9816H498.231V78.817ZM498.231 85.0618H508.213V83.0026H498.231V85.0618ZM504.923 70.1773C504.498 70.7593 504.229 71.0726 503.782 71.5203C503.491 71.1845 503.065 70.8935 502.506 70.6026C503.625 69.6849 504.453 68.4091 504.901 66.9094L506.535 67.2452C506.289 67.8271 506.177 68.0286 505.796 68.7672H510.899C511.907 68.7672 512.332 68.7448 512.936 68.6553V70.2892C512.354 70.1997 511.884 70.1773 510.944 70.1773H508.258C508.706 70.8935 508.952 71.2964 509.265 71.9455L507.721 72.5275C507.341 71.5426 507.094 71.0278 506.58 70.1773H504.923Z" fill="#333333"/>
<path d="M516.853 69.8642C515.98 69.8642 515.734 69.8866 515.085 69.9761V68.2079C515.622 68.2974 516.137 68.3422 517.032 68.3422H520.367C521.218 68.3422 521.688 68.3198 522.247 68.2079V69.9537C521.665 69.8866 521.24 69.8642 520.546 69.8642H519.561V74.8779H520.345C520.972 74.8779 521.33 74.8555 521.822 74.766V76.4223C521.352 76.3552 520.904 76.3328 520.345 76.3328H519.561V81.6599C520.479 81.2793 520.882 81.0779 522.068 80.496L522.158 82.1747C520.143 83.1595 519.36 83.4952 516.316 84.7039C515.779 84.9053 515.689 84.9501 515.421 85.0844L514.928 83.249C515.712 83.0923 516.405 82.8685 517.928 82.309V76.3328H516.876C516.271 76.3328 515.868 76.3552 515.353 76.4447V74.766C515.868 74.8555 516.226 74.8779 516.898 74.8779H517.928V69.8642H516.853ZM527.821 82.1747H525C523.881 82.1747 523.389 82.197 522.807 82.2866V80.5631C523.344 80.6526 523.859 80.675 524.978 80.675H527.821V78.3248H525.582C524.172 78.3248 523.456 78.3472 522.829 78.4144C522.874 78.0712 522.904 77.1908 522.919 75.7732V70.9162C522.919 69.4613 522.896 68.7451 522.807 68.0288C523.523 68.1183 524.239 68.1407 525.739 68.1407H531.715C533.327 68.1407 533.976 68.1183 534.58 68.0288C534.513 68.6779 534.491 69.5956 534.491 70.9162V75.5046C534.491 76.9819 534.513 77.7877 534.58 78.4144C533.774 78.3472 533.237 78.3248 531.961 78.3248H529.41V80.675H532.611C533.707 80.675 534.2 80.6526 534.826 80.5631V82.2866C534.2 82.197 533.685 82.1747 532.611 82.1747H529.41V85.1739H533.416C534.513 85.1739 535.073 85.1516 535.655 85.062V86.8079C534.961 86.7183 534.468 86.696 533.349 86.696H523.501C522.382 86.696 521.889 86.7183 521.173 86.8079V85.062C521.755 85.1516 522.247 85.1739 523.344 85.1739H527.821V82.1747ZM524.486 69.618V72.5277H527.821V69.618H524.486ZM524.486 73.9826V76.8476H527.821V73.9826H524.486ZM529.41 72.5277H532.902V69.618H529.41V72.5277ZM529.41 76.8476H532.902V73.9826H529.41V76.8476Z" fill="#333333"/>
<path d="M485.629 221.327C485.316 220.365 485.07 219.917 484.6 219.358C483.749 218.35 482.451 217.813 480.907 217.813C477.393 217.813 475.221 220.522 475.221 224.864C475.221 229.206 477.437 231.959 480.907 231.959C482.63 231.959 484.063 231.31 484.913 230.146C485.383 229.497 485.585 228.96 485.786 227.953L488.024 228.423C487.621 229.81 487.308 230.527 486.726 231.288C485.473 232.922 483.369 233.839 480.839 233.839C478.624 233.839 476.766 233.145 475.468 231.802C473.901 230.213 473.028 227.751 473.028 224.931C473.028 222.111 473.968 219.514 475.669 217.858C476.99 216.582 478.713 215.933 480.862 215.933C483.011 215.933 484.712 216.537 485.988 217.768C486.838 218.597 487.263 219.313 487.801 220.745L485.629 221.327Z" fill="#333333"/>
<path d="M495.455 233.056C495.455 234.041 495.5 234.667 495.567 235.272H493.62C493.71 234.623 493.754 233.996 493.754 233.033V226.453C492.702 227.482 492.12 227.953 490.822 228.893C490.576 228.266 490.307 227.818 489.904 227.326C491.494 226.363 492.68 225.401 493.933 224.058C495.053 222.849 495.746 221.82 496.575 220.141H492.546C491.829 220.141 491.337 220.163 490.71 220.23V218.462C491.359 218.529 491.785 218.552 492.478 218.552H493.754V216.515C493.754 215.911 493.71 215.262 493.62 214.792H495.59C495.5 215.262 495.455 215.843 495.455 216.56V218.552H496.664C497.313 218.552 497.671 218.529 497.94 218.485L498.746 219.38C498.589 219.626 498.432 219.895 498.231 220.32C497.515 221.82 496.888 222.804 495.813 224.125C496.977 225.446 497.873 226.207 499.417 227.124C499.014 227.639 498.79 228.02 498.522 228.646C497.224 227.751 496.351 226.968 495.455 225.893V233.056ZM504.722 232.496H508.034C509.198 232.496 509.892 232.451 510.497 232.362V234.354C509.78 234.242 508.975 234.197 508.034 234.197H500.089C499.104 234.197 498.365 234.242 497.649 234.354V232.362C498.298 232.451 498.947 232.496 500.111 232.496H502.976V223.185H500.917C500.111 223.185 499.395 223.23 498.723 223.297V221.417C499.328 221.506 499.954 221.551 500.917 221.551H502.976V216.963C502.976 216.179 502.931 215.687 502.819 214.859H504.878C504.744 215.709 504.722 216.134 504.722 216.963V221.551H507.52C508.504 221.551 509.086 221.529 509.713 221.417V223.297C509.042 223.23 508.348 223.185 507.52 223.185H504.722V232.496Z" fill="#333333"/>
<path d="M472.871 265.667C472.535 269.092 472.356 270.099 471.707 272.114L470.252 271.487C470.902 269.763 471.215 268.018 471.372 265.399L472.871 265.667ZM470.297 262.579C470.7 262.623 470.969 262.646 471.439 262.646C471.73 262.646 471.797 262.646 472.133 262.623C472.67 261.922 473.088 261.348 473.386 260.9C472.133 259.199 471.506 258.46 470.275 257.252L471.237 255.998C471.663 256.468 471.819 256.625 472.088 256.938C473.117 255.215 473.856 253.648 474.035 252.797L475.624 253.424C475.505 253.603 475.236 254.118 474.819 254.968C474.348 255.909 473.789 256.849 473.028 258.057C473.61 258.751 474.013 259.266 474.237 259.602C475.624 257.453 476.43 255.976 476.676 255.148L478.243 255.953C478.086 256.155 477.93 256.401 477.661 256.871C476.699 258.505 475.177 260.81 473.878 262.534C475.311 262.444 476.027 262.4 477.079 262.265C476.743 261.482 476.587 261.168 476.117 260.34L477.325 259.826C478.176 261.325 478.735 262.534 479.295 264.011L477.952 264.683C477.773 264.123 477.706 263.922 477.594 263.563C477.415 263.578 477.161 263.608 476.833 263.653C476.475 263.698 476.206 263.72 475.512 263.787V271.129C475.512 272.158 475.535 272.718 475.647 273.389H473.811C473.901 272.628 473.946 272.046 473.946 271.106V263.944C473.468 263.974 472.655 264.026 471.506 264.101C471.103 264.123 470.857 264.168 470.499 264.235L470.297 262.579ZM477.594 265.22C478.109 266.764 478.422 268.107 478.825 270.368L477.437 270.748C477.169 268.689 476.811 267.122 476.296 265.623L477.594 265.22ZM485.07 253.133C485.898 254.834 486.793 255.998 488.248 257.296C489.166 258.124 490.039 258.729 491.292 259.445C490.889 259.915 490.576 260.475 490.352 261.012C487.532 259.132 485.696 257.274 484.197 254.812C482.697 257.453 481.242 259.109 478.78 260.878C478.467 260.251 478.265 259.96 477.751 259.49C480.258 257.945 481.981 255.931 483.257 253.133H485.07ZM481.399 273.233H479.631C479.72 272.517 479.765 271.8 479.765 270.994V265.667C479.765 264.75 479.743 264.392 479.676 263.81C480.146 263.854 480.638 263.877 481.354 263.877H487.778C488.472 263.877 488.942 263.854 489.412 263.81C489.345 264.347 489.322 264.772 489.322 265.645V270.86C489.322 271.823 489.367 272.74 489.434 273.21H487.621V271.89H481.399V273.233ZM480.414 259.691C480.951 259.781 481.354 259.803 482.361 259.803H486.525C487.554 259.803 487.912 259.781 488.472 259.691V261.415C487.89 261.348 487.398 261.325 486.435 261.325H482.473C481.533 261.325 480.996 261.348 480.414 261.415V259.691ZM481.399 270.39H487.644V265.376H481.399V270.39Z" fill="#333333"/>
<path d="M497.761 262.176C497.626 262.578 497.537 262.78 497.313 263.362L495.522 263.048C496.865 259.937 497.738 257.072 498.32 253.961C498.41 253.513 498.455 253.178 498.455 252.752L500.424 253.043C500.268 253.469 500.2 253.737 500.111 254.095C499.954 254.722 499.865 255.08 499.663 255.864H508.549C509.646 255.864 510.183 255.841 510.855 255.752V257.587C510.273 257.52 509.601 257.475 508.594 257.475H499.238C498.88 258.773 498.701 259.4 498.32 260.609H506.915C507.99 260.609 508.795 260.564 509.265 260.497C509.176 261.056 509.064 261.907 508.818 264.235C508.773 264.615 508.751 264.727 508.661 265.332H510.743C511.638 265.332 512.444 265.287 513.182 265.197V267.055C512.444 266.965 511.638 266.921 510.743 266.921H508.415C507.99 269.316 507.542 270.748 507.005 271.576C506.423 272.494 505.617 272.807 503.916 272.807C502.931 272.807 501.946 272.74 500.066 272.584C499.954 271.867 499.865 271.464 499.574 270.703C501.678 271.017 502.864 271.129 503.826 271.129C505.035 271.129 505.393 270.905 505.796 269.987C506.109 269.271 506.378 268.264 506.624 266.921H495.209C494.269 266.921 493.441 266.965 492.702 267.055V265.197C493.374 265.287 494.224 265.332 495.232 265.332H506.893C507.005 264.503 507.027 264.414 507.229 262.176H497.761Z" fill="#333333"/>
<path d="M232.034 199.206H25.367C19.1862 199.206 14.1757 204.216 14.1757 210.397V280.529C14.1757 286.71 19.1862 291.721 25.367 291.721H232.034C238.214 291.721 243.225 286.71 243.225 280.529V210.397C243.225 204.216 238.214 199.206 232.034 199.206Z" fill="white"/>
<path d="M178.591 239.733C177.771 239.733 175.801 239.711 174.54 239.644V235.973C176.025 236.107 177.204 236.197 178.345 236.197C179.33 236.197 179.919 236.13 179.919 235.19V234.041L168.474 234.153V231.288L179.919 231.362V229.751L166.512 229.878V226.714L179.919 226.841V225.229L168.549 225.311V222.491L179.919 222.588V221.051L168.668 221.126V214.739L179.919 214.821V213.24L166.684 213.382V209.867H179.927C179.927 209.867 179.86 208.599 179.778 208.174H184.478C184.396 208.599 184.321 209.867 184.321 209.867H197.743V213.382L184.329 213.24V214.821L195.781 214.747V221.126L184.329 221.051V222.596L195.736 222.536L195.669 226.587L198.079 226.557V230.012L195.677 230.064L195.804 234.033H184.329V235.63C184.329 239.196 183.575 239.733 178.561 239.733M184.351 231.347H191.26V229.736H184.351V231.347ZM184.351 226.811H191.26V225.2H184.351V226.811ZM184.351 218.731H190.499V217.127H184.351V218.731ZM173.943 218.731H179.919V217.127H173.943V218.731Z" fill="#FC6D26"/>
<path d="M162.565 239.733C159.529 238.002 156.82 235.742 154.567 233.063C152.523 230.638 150.971 227.833 150.001 224.804L149.71 223.983L149.434 224.804C147.972 229.176 146.517 231.675 143.883 234.346C141.824 236.473 139.459 238.278 136.87 239.703L133.736 235.272C138.571 232.854 141.421 230.362 143.503 226.744C145.689 222.976 146.793 217.91 146.793 211.688C146.808 210.912 146.763 210.136 146.666 209.36H152.195C152.09 210.166 152.038 210.971 152.053 211.785C152.008 215.164 152.486 218.529 153.471 221.767C154.784 225.438 157.029 228.706 159.991 231.243C161.7 232.757 163.625 234.003 165.699 234.943L162.558 239.726L162.565 239.733Z" fill="#FC6D26"/>
<path d="M123.045 237.182C120.105 237.182 117.837 236.406 116.33 234.861C114.823 233.317 114.04 231.012 114.04 228.02C114.04 225.028 114.853 222.529 116.442 220.82C118.031 219.111 120.292 218.253 123.12 218.253C125.798 218.253 127.902 219.037 129.387 220.581C130.871 222.126 131.625 224.356 131.625 227.184V228.736H119.247L119.285 229.258C119.285 230.392 119.628 231.496 120.292 232.422C120.986 233.16 121.971 233.548 122.978 233.489C125.037 233.489 125.917 232.489 126.29 231.526H131.364C131.051 233.145 130.155 234.593 128.85 235.593C127.126 236.719 125.089 237.271 123.038 237.159M123.112 221.85C120.866 221.85 119.538 223.11 119.262 225.49L119.203 225.699H126.664L126.641 225.52C126.671 224.521 126.343 223.543 125.709 222.767C125.015 222.118 124.09 221.782 123.142 221.85" fill="#FC6D26"/>
<path d="M105.273 236.891V225.849C105.303 224.013 103.833 222.499 101.998 222.469C100.162 222.439 98.6479 223.909 98.618 225.744C98.618 225.774 98.618 225.811 98.618 225.841V236.883H93.373V218.238H98.6255V220.447L98.9687 220.074C101.423 217.351 105.624 217.134 108.347 219.596C109.6 220.73 110.376 222.297 110.518 223.976L110.548 224.565V236.883H105.273V236.891Z" fill="#FC6D26"/>
<path d="M74.1612 239.741C66.1706 239.733 59.6946 233.257 59.6871 225.267V222.633C59.6946 214.642 66.1706 208.166 74.1612 208.159H74.6835C82.6741 208.166 89.1502 214.642 89.1576 222.633V225.267C89.1502 233.257 82.6741 239.733 74.6835 239.741H74.1612ZM74.1612 214.262C69.5355 214.262 65.7901 218.007 65.7827 222.633V225.267C65.7827 229.892 69.5355 233.638 74.1612 233.638H74.6835C79.3018 233.623 83.0397 229.87 83.0397 225.252V222.633C83.0397 218.007 79.2869 214.262 74.6611 214.254H74.1612V214.262Z" fill="#FC6D26"/>
<path d="M191.984 251.111H65.7901C62.642 251.111 60.09 253.663 60.09 256.811V276.993C60.09 280.141 62.642 282.693 65.7901 282.693H191.984C195.132 282.693 197.684 280.141 197.684 276.993V256.811C197.684 253.663 195.132 251.111 191.984 251.111Z" fill="#FC6D26"/>
<path d="M70.4159 260.333L72.7959 260.795C72.7959 260.795 72.5945 261.198 72.2214 261.952L75.8026 261.914C76.0862 261.937 76.3697 261.877 76.6159 261.743L77.8022 262.914C77.6529 263.071 77.541 263.272 77.4963 263.489C76.9665 265.324 76.1309 267.062 75.0193 268.622C74.1239 269.801 73.0272 270.823 71.7887 271.628C71.065 272.098 70.2965 272.509 69.4982 272.852C69.0953 272.106 68.573 271.427 67.9389 270.86C69.64 270.33 71.1918 269.398 72.4452 268.137C71.6768 267.503 70.8486 266.95 69.9682 266.488L71.3634 264.809C72.2214 265.242 73.0421 265.749 73.8106 266.324C74.303 265.57 74.691 264.75 74.9521 263.891L71.2664 263.921C70.4681 265.287 69.4385 266.503 68.2298 267.525C67.6927 266.906 67.0436 266.398 66.3124 266.025C67.6852 265.018 68.8193 263.712 69.625 262.205C69.9533 261.616 70.2144 260.989 70.3935 260.34L70.4159 260.333ZM80.6298 260.982L83.2785 260.997C83.2113 261.541 83.1815 262.086 83.1889 262.631L83.1069 269.681C85.6734 269.181 87.8594 267.51 89.001 265.16C89.4785 265.898 90.0903 266.548 90.799 267.077C88.8741 270.054 86.412 271.599 82.4876 272.278C82.2041 272.3 81.9355 272.382 81.6893 272.516L80.503 271.136C80.6448 270.793 80.7045 270.42 80.6597 270.047L80.7119 262.653V262.437C80.7119 261.952 80.6895 261.467 80.6298 260.989V260.982ZM91.672 263.22L93.2014 261.347C94.5146 262.071 95.7456 262.944 96.8573 263.951L95.2905 266.025C94.246 264.899 93.0224 263.951 91.672 263.213V263.22ZM92.5001 272.158L91.8063 269.607C93.1791 269.495 94.5369 269.174 95.8128 268.652C97.4318 268.01 98.8046 266.861 99.7073 265.369C100.245 264.556 100.677 263.675 101.006 262.757C101.558 263.451 102.222 264.048 102.96 264.541C101.752 267.159 100.483 268.734 98.6255 269.927C97.0438 270.92 95.2905 271.599 93.4477 271.919C92.9254 272.039 92.8508 272.054 92.4927 272.158H92.5001ZM108.877 272.427H106.31C106.37 271.748 106.4 271.069 106.392 270.39V262.646C106.407 262.004 106.377 261.355 106.303 260.713H108.869C108.81 261.355 108.787 262.004 108.802 262.653V264.473C110.921 265.152 112.95 266.085 114.853 267.241L113.592 269.502C112.271 268.599 110.869 267.823 109.399 267.189C109.19 267.122 108.989 267.033 108.802 266.921V270.382C108.795 271.061 108.817 271.74 108.877 272.419V272.427ZM125.007 263.817L118.912 263.839C118.195 263.824 117.472 263.847 116.755 263.906V261.564C117.487 261.646 118.218 261.683 118.949 261.668L126.238 261.653C126.552 261.668 126.865 261.623 127.156 261.519L128.432 262.959C128.178 263.205 127.977 263.496 127.82 263.809C126.746 265.757 125.313 267.48 123.605 268.905C124.179 269.584 124.552 270.062 125.186 270.927L123.194 272.486C122.456 271.248 121.59 270.084 120.628 269.017C119.822 268.055 118.927 267.167 117.957 266.368L119.777 265.093C120.598 265.742 121.366 266.443 122.075 267.204C122.836 266.577 123.53 265.869 124.149 265.1C124.47 264.697 124.754 264.265 125 263.809L125.007 263.817ZM136.116 272.665H133.617C133.692 272.046 133.722 271.42 133.707 270.793V268.398C132.498 269.069 131.215 269.592 129.872 269.942C129.618 269.204 129.245 268.517 128.782 267.891C130.155 267.607 131.491 267.189 132.774 266.63C134.02 266.1 135.154 265.346 136.124 264.406L132.05 264.436C131.409 264.421 130.774 264.436 130.133 264.503V262.347C130.774 262.429 131.424 262.466 132.073 262.452H133.654V261.72C133.662 261.31 133.639 260.892 133.587 260.482H136.064C136.005 260.885 135.982 261.288 135.982 261.691V262.437H138.094C138.385 262.452 138.676 262.399 138.944 262.287L139.981 263.496C139.842 263.596 139.638 263.799 139.369 264.108C138.623 264.943 137.803 265.712 136.922 266.413C138.437 266.928 139.884 267.629 141.235 268.502L139.922 270.457C138.72 269.562 137.407 268.816 136.027 268.234V270.8C136.005 271.42 136.027 272.039 136.109 272.658L136.116 272.665ZM142.943 262.757L144.129 260.87C145.45 261.34 146.733 261.929 147.949 262.623L146.763 264.66C145.577 263.862 144.294 263.22 142.943 262.75V262.757ZM149.688 261.191L151.001 260.75C151.478 261.4 151.874 262.116 152.172 262.869L150.859 263.347C150.561 262.578 150.173 261.855 149.688 261.183V261.191ZM141.906 266.033L143.13 264.13C144.435 264.623 145.674 265.257 146.838 266.018L145.711 268.107C144.54 267.241 143.264 266.54 141.906 266.025V266.033ZM151.605 260.564L152.859 260.139C153.344 260.765 153.739 261.452 154.045 262.19L152.769 262.653C152.471 261.907 152.083 261.206 151.605 260.556V260.564ZM142.958 272.472L142.294 269.942C143.697 269.89 145.084 269.599 146.39 269.092C148.927 268.062 150.844 265.913 151.575 263.28C152.135 263.929 152.799 264.496 153.53 264.943C151.844 269.122 148.822 271.405 143.898 272.248C143.577 272.307 143.264 272.375 142.951 272.464L142.958 272.472ZM161.722 260.713L164.222 261.549C164.005 261.952 163.819 262.362 163.662 262.787C163.17 264.003 162.58 265.182 161.894 266.301C162.923 267.167 163.893 268.099 164.796 269.092L162.983 270.979C162.23 269.995 161.387 269.084 160.469 268.256C159.066 270.009 157.313 271.457 155.321 272.486C154.896 271.718 154.329 271.032 153.642 270.479C155.589 269.629 157.313 268.331 158.671 266.689C157.581 265.816 156.425 265.026 155.209 264.324L156.843 262.713C157.932 263.347 158.977 264.041 159.984 264.802C160.767 263.541 161.349 262.161 161.715 260.721L161.722 260.713ZM166.833 263.22L168.362 261.347C169.676 262.071 170.907 262.944 172.018 263.951L170.452 266.025C169.407 264.899 168.183 263.951 166.833 263.22ZM167.654 272.158L166.96 269.607C168.333 269.495 169.69 269.174 170.966 268.652C172.585 268.01 173.958 266.861 174.861 265.369C175.398 264.556 175.838 263.683 176.167 262.765C176.719 263.459 177.383 264.056 178.121 264.548C176.913 267.167 175.644 268.741 173.787 269.935C172.205 270.927 170.451 271.606 168.616 271.927C168.101 272.046 168.019 272.054 167.661 272.166L167.654 272.158ZM184.03 272.419H181.464C181.523 271.74 181.553 271.061 181.546 270.382V262.638C181.561 261.996 181.531 261.347 181.456 260.706H184.023C183.963 261.347 183.941 261.996 183.956 262.646V264.466C186.075 265.145 188.104 266.078 190.007 267.234L188.746 269.495C187.425 268.592 186.022 267.816 184.553 267.182C184.344 267.115 184.142 267.025 183.956 266.913V270.375C183.948 271.054 183.971 271.733 184.038 272.412L184.03 272.419Z" fill="white"/>
<mask id="mask4_1_1388" style="mask-type:luminance" maskUnits="userSpaceOnUse" x="267" y="108" width="86" height="86">
<path d="M281.713 108.928L267.844 122.797L338.279 193.233L352.149 179.363L281.713 108.928Z" fill="white"/>
</mask>
<g mask="url(#mask4_1_1388)">
<path d="M345.312 186.045L344.992 172.354C344.992 172.16 344.827 172.011 344.633 172.011C344.507 172.011 344.395 172.085 344.335 172.19L341.433 177.442C341.239 176.898 340.925 176.398 340.515 175.987L283.969 119.441L288.878 116.733C289.05 116.644 289.109 116.427 289.012 116.263C288.953 116.151 288.841 116.084 288.714 116.084L275.023 115.763C274.829 115.763 274.673 115.912 274.665 116.106C274.665 116.106 274.665 116.114 274.665 116.121L274.986 129.812C274.986 130.006 275.15 130.155 275.344 130.155C275.471 130.155 275.583 130.081 275.643 129.976L278.351 125.067L334.904 181.62C335.315 182.031 335.807 182.344 336.359 182.546L331.107 185.448C330.935 185.537 330.876 185.754 330.973 185.918C331.032 186.03 331.144 186.097 331.271 186.097L344.962 186.418C345.156 186.418 345.312 186.269 345.32 186.075C345.32 186.075 345.32 186.067 345.32 186.06" fill="#636972"/>
</g>
<mask id="mask5_1_1388" style="mask-type:luminance" maskUnits="userSpaceOnUse" x="267" y="108" width="86" height="86">
<path d="M338.279 108.928L267.844 179.363L281.713 193.232L352.149 122.797L338.279 108.928Z" fill="white"/>
</mask>
<g mask="url(#mask5_1_1388)">
<path d="M274.68 186.045L275.001 172.354C275.001 172.16 275.165 172.011 275.359 172.011C275.486 172.011 275.598 172.085 275.658 172.19L278.56 177.442C278.754 176.898 279.067 176.398 279.477 175.987L336.024 119.441L331.114 116.733C330.943 116.644 330.883 116.427 330.98 116.263C331.04 116.151 331.152 116.084 331.278 116.084L344.969 115.763C345.163 115.763 345.32 115.912 345.327 116.106C345.327 116.106 345.327 116.114 345.327 116.121L345.007 129.812C345.007 130.006 344.842 130.155 344.648 130.155C344.522 130.155 344.41 130.081 344.35 129.976L341.642 125.067L285.088 181.62C284.678 182.031 284.185 182.344 283.633 182.546L288.886 185.44C289.057 185.53 289.117 185.746 289.02 185.91C288.96 186.022 288.848 186.09 288.722 186.09L275.031 186.41C274.837 186.41 274.68 186.261 274.673 186.067C274.673 186.067 274.673 186.06 274.673 186.052" fill="#636972"/>
</g>
</svg>
