<svg width="400" height="252" viewBox="0 0 400 252" fill="none" xmlns="http://www.w3.org/2000/svg">
<path fill-rule="evenodd" clip-rule="evenodd" d="M331.606 234.63C417.374 192.248 387.208 110.784 355.909 64.5787C312.08 -0.118383 208.526 -23.3712 165.694 28.2484C107.551 98.3069 48.7477 81.7352 28.6893 127.431C8.63077 173.127 45.4259 217.796 66.1293 234.72C101.575 233.227 149.055 232.32 199.992 232.32C250.93 232.32 296.431 233.19 331.599 234.63" fill="#E9EFF8"/>
<path fill-rule="evenodd" clip-rule="evenodd" d="M371.116 111.871C371.611 113.296 370.853 114.848 369.429 115.343C368.041 115.823 366.519 115.118 365.994 113.746C363.355 106.645 360.273 99.7089 356.749 92.9978C353.037 85.8892 348.928 78.9981 344.429 72.3544C340.642 66.783 336.383 61.5416 331.704 56.69C326.837 51.6435 321.581 46.9945 315.987 42.7728C301.905 32.1774 286.038 24.199 269.129 19.2275C267.681 18.8151 266.842 17.3079 267.254 15.8607C267.666 14.4135 269.174 13.5737 270.621 13.9861C270.636 13.9861 270.651 13.9936 270.666 14.0011C288.197 19.175 304.664 27.4459 319.279 38.4237C325.105 42.8178 330.571 47.6618 335.633 52.9183C340.522 57.9948 344.968 63.4762 348.935 69.31C353.554 76.1186 357.783 83.1897 361.6 90.4858C365.222 97.4069 368.409 104.553 371.123 111.879M249.198 9.47197C250.69 9.62194 251.785 10.9567 251.635 12.4489C251.485 13.9411 250.15 15.0359 248.658 14.8859C248.613 14.8859 248.56 14.8784 248.515 14.8709C241.992 14.0161 235.408 13.7161 228.832 13.9786C222.75 14.2185 216.699 15.0584 210.783 16.4831C209.321 16.843 207.843 15.9507 207.484 14.4885C207.124 13.0263 208.016 11.5491 209.478 11.1891C215.747 9.67443 222.151 8.78961 228.592 8.53466C235.475 8.25722 242.367 8.57215 249.198 9.46448M99.6701 88.8361C101.035 88.2062 102.654 88.8061 103.292 90.1708C103.929 91.5356 103.322 93.1552 101.957 93.7926C96.5957 96.2596 91.3842 98.4492 86.1653 100.639C81.3737 102.648 76.5822 104.665 72.0381 106.72C68.9187 108.13 65.8218 109.607 62.8974 111.197C59.9655 112.771 57.1536 114.556 54.4841 116.543C53.2918 117.465 51.5747 117.24 50.6599 116.048C49.7376 114.856 49.9625 113.139 51.1548 112.224C51.1698 112.216 51.1848 112.201 51.1998 112.194C54.0867 110.049 57.1236 108.115 60.2954 106.413C63.4598 104.688 66.6467 103.173 69.8035 101.741C74.6476 99.5515 79.3491 97.5719 84.0582 95.5923C89.3596 93.3652 94.6611 91.1381 99.6776 88.8286M42.8839 120.12C43.8137 118.935 45.5234 118.733 46.7082 119.662C47.8929 120.592 48.0954 122.302 47.1656 123.487C47.1506 123.509 47.1281 123.532 47.1056 123.554C45.9583 124.964 44.9085 126.456 43.9712 128.016C43.0039 129.62 42.1416 131.278 41.3917 132.995C40.8218 134.389 39.2322 135.057 37.8449 134.494C36.4502 133.925 35.7828 132.335 36.3452 130.948C36.3602 130.91 36.3827 130.865 36.3977 130.828C37.2451 128.893 38.2124 127.018 39.2921 125.211C40.3644 123.434 41.5642 121.732 42.8764 120.127" fill="white"/>
<path fill-rule="evenodd" clip-rule="evenodd" d="M200 232.32C310.46 232.32 400 236.504 400 241.663C400 246.822 310.46 251.007 200 251.007C89.5396 251.007 0 246.822 0 241.663C0 236.504 89.5396 232.32 200 232.32Z" fill="#D0D9EE"/>
<path fill-rule="evenodd" clip-rule="evenodd" d="M325.33 170.135C323.14 170.135 321.363 168.358 321.363 166.168C321.363 163.979 323.14 162.201 325.33 162.201C327.519 162.201 329.297 163.979 329.297 166.168C329.297 168.358 327.527 170.135 325.337 170.135M325.33 160.972C322.458 160.972 320.126 163.304 320.126 166.176C320.126 169.048 322.458 171.38 325.33 171.38C328.202 171.38 330.534 169.048 330.534 166.176C330.534 163.304 328.209 160.979 325.345 160.972H325.33Z" fill="#F2F2F3"/>
<path fill-rule="evenodd" clip-rule="evenodd" d="M317.367 158.205L317.314 158.272L317.374 158.205H317.367ZM317.434 158.137L317.749 157.837C317.629 157.957 317.494 158.085 317.374 158.205L317.434 158.137ZM325.18 177.423H325.33H325.48H325.18ZM333.196 158.1C333.091 157.995 332.978 157.89 332.873 157.8C332.993 157.92 333.128 158.047 333.248 158.167L333.196 158.1Z" fill="#BAC1C2"/>
<path fill-rule="evenodd" clip-rule="evenodd" d="M367.854 54.5981H333.218C331.254 54.5981 329.664 56.1878 329.664 58.1524V74.2892C329.664 76.2538 331.254 77.8435 333.218 77.8435H337.058C337.17 79.2832 337.11 81.8627 335.685 83.8723C335.685 83.8723 344.976 83.01 347.413 77.8435H367.846C369.811 77.8435 371.401 76.2538 371.401 74.2892V58.1524C371.401 56.1878 369.811 54.5981 367.846 54.5981" fill="#D0D9EE"/>
<path fill-rule="evenodd" clip-rule="evenodd" d="M338.745 65.7712C338.745 67.5858 340.214 69.0555 342.029 69.0555C343.844 69.0555 345.313 67.5858 345.313 65.7712C345.313 63.9565 343.844 62.4868 342.029 62.4868C340.214 62.4868 338.745 63.9565 338.745 65.7712ZM358.518 65.7712C358.518 67.5858 359.988 69.0555 361.803 69.0555C363.617 69.0555 365.087 67.5858 365.087 65.7712C365.087 63.9565 363.617 62.4868 361.803 62.4868C359.988 62.4868 358.518 63.9565 358.511 65.7712M348.635 65.7712C348.635 67.5858 350.105 69.0555 351.92 69.0555C353.734 69.0555 355.204 67.5858 355.204 65.7712C355.204 63.9565 353.734 62.4868 351.92 62.4868C350.105 62.4868 348.635 63.9565 348.635 65.7712Z" fill="white"/>
<path d="M223.905 164.796H173.47V224.005H223.905V164.796Z" fill="#BCC9E7"/>
<path d="M312.717 34.3296H84.6581V182.62H312.717V34.3296Z" fill="#BCC9E7"/>
<path d="M302.392 45.0151H94.9835V164.796H302.392V45.0151Z" fill="white"/>
<path d="M241.992 224.004H155.376V237.712H241.992V224.004Z" fill="#99A9D4"/>
<path fill-rule="evenodd" clip-rule="evenodd" d="M224.385 182.613L181.554 211.4V220.165L223.913 224.005H173.478V182.613H224.393H224.385Z" fill="#AAB9DE"/>
<path fill-rule="evenodd" clip-rule="evenodd" d="M94.9835 45.0151V48.9294H298.553L302.392 164.796V45.0151H94.9835Z" fill="#DEE7F5"/>
<path fill-rule="evenodd" clip-rule="evenodd" d="M149.918 79.6957C150 91.4909 140.499 101.126 128.704 101.209C116.909 101.291 107.274 91.7908 107.191 79.9957C107.109 68.2005 116.602 58.5724 128.397 58.4825C140.192 58.4 149.828 67.8931 149.91 79.6882" fill="#D0D9EE"/>
<path fill-rule="evenodd" clip-rule="evenodd" d="M134.568 69.7378C134.591 73.0971 131.884 75.8416 128.524 75.8641C125.165 75.8865 122.421 73.1796 122.398 69.8203C122.376 66.4609 125.075 63.7165 128.434 63.694C131.794 63.6715 134.538 66.3709 134.561 69.7303" fill="white"/>
<path fill-rule="evenodd" clip-rule="evenodd" d="M128.547 77.9483C122.316 77.9858 117.292 83.0773 117.337 89.3085C117.352 90.9432 118.686 92.2629 120.321 92.2479L136.975 92.128C138.61 92.113 139.93 90.7782 139.915 89.1436C139.87 82.9123 134.778 77.8958 128.547 77.9333" fill="white"/>
<path fill-rule="evenodd" clip-rule="evenodd" d="M199.183 79.6957C199.265 91.4909 189.765 101.126 177.969 101.209C166.174 101.291 156.539 91.7908 156.456 79.9957C156.374 68.2005 165.867 58.5724 177.662 58.4825C189.457 58.4 199.093 67.8931 199.175 79.6882" fill="#D0D9EE"/>
<path fill-rule="evenodd" clip-rule="evenodd" d="M183.841 69.7378C183.863 73.0971 181.164 75.8416 177.797 75.8641C174.438 75.8865 171.693 73.1871 171.671 69.8203C171.648 66.4534 174.348 63.7165 177.714 63.694C181.074 63.6715 183.818 66.3709 183.841 69.7378Z" fill="white"/>
<path fill-rule="evenodd" clip-rule="evenodd" d="M177.812 77.9486C171.581 77.9936 166.557 83.0776 166.602 89.3163C166.617 90.951 167.951 92.2708 169.586 92.2558L186.24 92.1358C187.875 92.1208 189.195 90.7861 189.18 89.1514C189.135 82.9201 184.043 77.9036 177.812 77.9411" fill="white"/>
<path fill-rule="evenodd" clip-rule="evenodd" d="M248.455 79.6957C248.538 91.4909 239.037 101.126 227.242 101.209C215.447 101.291 205.811 91.7908 205.729 79.9957C205.646 68.2005 215.139 58.5724 226.935 58.4825C238.73 58.4 248.365 67.8931 248.448 79.6882" fill="#AAB9DE"/>
<path fill-rule="evenodd" clip-rule="evenodd" d="M233.106 69.7378C233.128 73.0971 230.429 75.8416 227.062 75.8641C223.703 75.8865 220.958 73.1871 220.936 69.8203C220.913 66.4534 223.613 63.7165 226.98 63.694C230.339 63.6715 233.083 66.3709 233.106 69.7303" fill="#E9EFF8"/>
<path fill-rule="evenodd" clip-rule="evenodd" d="M227.077 77.9487C220.846 77.9937 215.822 83.0777 215.867 89.3164C215.882 90.9511 217.217 92.2709 218.851 92.2559L235.505 92.1359C237.14 92.1209 238.46 90.7861 238.445 89.1515C238.4 82.9202 233.308 77.8962 227.077 77.9412" fill="#E9EFF8"/>
<path fill-rule="evenodd" clip-rule="evenodd" d="M297.72 79.6957C297.803 91.4909 288.302 101.126 276.507 101.209C264.712 101.291 255.076 91.7908 254.994 79.9957C254.912 68.2005 264.405 58.5724 276.207 58.4825C288.002 58.4 297.638 67.8931 297.72 79.6882" fill="#D0D9EE"/>
<path fill-rule="evenodd" clip-rule="evenodd" d="M282.371 69.7378C282.394 73.0971 279.694 75.8416 276.327 75.8641C272.968 75.8865 270.223 73.1871 270.201 69.8203C270.178 66.4534 272.878 63.7165 276.245 63.694C279.604 63.6715 282.349 66.3709 282.371 69.7378Z" fill="white"/>
<path fill-rule="evenodd" clip-rule="evenodd" d="M276.342 77.9486C270.111 77.9936 265.094 83.0776 265.139 89.3089C265.147 90.9435 266.482 92.2633 268.116 92.2558C268.116 92.2558 268.116 92.2558 268.124 92.2558L284.778 92.1358C286.413 92.1208 287.732 90.7861 287.717 89.1514C287.672 82.9201 282.581 77.9036 276.35 77.9411" fill="white"/>
<path fill-rule="evenodd" clip-rule="evenodd" d="M149.918 129.898C150 141.693 140.507 151.329 128.704 151.411C116.909 151.494 107.274 142 107.191 130.198C107.109 118.403 116.602 108.767 128.397 108.685C140.192 108.602 149.828 118.095 149.91 129.89" fill="#D0D9EE"/>
<path fill-rule="evenodd" clip-rule="evenodd" d="M134.568 119.94C134.591 123.299 131.884 126.044 128.524 126.066C125.165 126.089 122.421 123.382 122.398 120.022C122.376 116.663 125.075 113.919 128.434 113.896C131.794 113.874 134.538 116.573 134.561 119.932" fill="white"/>
<path fill-rule="evenodd" clip-rule="evenodd" d="M128.547 128.151C122.316 128.196 117.292 133.28 117.337 139.511C117.344 141.146 118.679 142.466 120.313 142.458L136.968 142.338C138.602 142.331 139.922 140.996 139.907 139.361C139.862 133.13 134.771 128.106 128.539 128.151" fill="white"/>
<path fill-rule="evenodd" clip-rule="evenodd" d="M199.183 129.898C199.265 141.693 189.772 151.329 177.969 151.411C166.174 151.494 156.539 142 156.456 130.198C156.374 118.403 165.867 108.767 177.662 108.685C189.457 108.602 199.093 118.095 199.175 129.89" fill="#D0D9EE"/>
<path fill-rule="evenodd" clip-rule="evenodd" d="M183.841 119.94C183.863 123.299 181.164 126.044 177.797 126.066C174.438 126.089 171.693 123.389 171.671 120.022C171.648 116.656 174.348 113.919 177.714 113.896C181.074 113.874 183.818 116.581 183.841 119.94Z" fill="white"/>
<path fill-rule="evenodd" clip-rule="evenodd" d="M177.812 128.151C171.581 128.196 166.557 133.287 166.602 139.519C166.609 141.153 167.944 142.473 169.579 142.466L186.233 142.346C187.867 142.338 189.187 141.003 189.172 139.369C189.127 133.13 184.036 128.113 177.804 128.158" fill="white"/>
<path fill-rule="evenodd" clip-rule="evenodd" d="M248.455 129.898C248.538 141.693 239.045 151.329 227.242 151.411C215.439 151.494 205.811 142 205.729 130.198C205.646 118.403 215.139 108.767 226.935 108.685C238.73 108.602 248.365 118.095 248.448 129.89" fill="#D0D9EE"/>
<path fill-rule="evenodd" clip-rule="evenodd" d="M233.106 119.94C233.128 123.299 230.429 126.044 227.062 126.066C223.703 126.089 220.958 123.389 220.936 120.022C220.913 116.656 223.613 113.919 226.98 113.896C230.339 113.874 233.083 116.573 233.106 119.94Z" fill="white"/>
<path fill-rule="evenodd" clip-rule="evenodd" d="M227.077 128.151C220.846 128.196 215.822 133.287 215.867 139.519C215.874 141.153 217.209 142.473 218.851 142.458L235.505 142.338C237.14 142.331 238.46 140.996 238.445 139.354C238.4 133.115 233.308 128.098 227.077 128.143" fill="white"/>
<path fill-rule="evenodd" clip-rule="evenodd" d="M297.72 129.898C297.803 141.693 288.31 151.329 276.507 151.411C264.712 151.494 255.076 142 254.994 130.198C254.912 118.403 264.405 108.767 276.2 108.685C287.995 108.602 297.63 118.095 297.713 129.89" fill="#D0D9EE"/>
<path fill-rule="evenodd" clip-rule="evenodd" d="M282.371 119.94C282.394 123.299 279.694 126.044 276.327 126.066C272.96 126.089 270.223 123.389 270.201 120.022C270.178 116.656 272.878 113.919 276.245 113.896C279.604 113.874 282.349 116.581 282.371 119.94Z" fill="white"/>
<path fill-rule="evenodd" clip-rule="evenodd" d="M276.342 128.151C270.111 128.196 265.094 133.28 265.139 139.519C265.147 141.154 266.482 142.473 268.109 142.466C268.109 142.466 268.109 142.466 268.116 142.466L284.771 142.346C286.405 142.331 287.725 140.996 287.71 139.361C287.665 133.13 282.581 128.106 276.342 128.151Z" fill="white"/>
<path fill-rule="evenodd" clip-rule="evenodd" d="M61.8776 242.856C62.7699 240.426 63.0174 238.237 64.0972 238.244C66.2192 238.747 65.9793 240.546 67.0366 240.876C72.1805 242.466 68.9487 238.709 70.7333 238.477C76.2597 240.404 80.1215 239.241 80.129 242.143C78.9817 243.936 73.8002 245.045 64.5996 245.48C62.53 244.783 61.6227 243.913 61.8776 242.863" fill="#142D4D"/>
<path fill-rule="evenodd" clip-rule="evenodd" d="M81.2238 131.465L75.195 136.017L71.3707 135.927C71.3707 135.26 71.3707 134.555 71.3707 133.79C71.3032 133.01 71.3557 132.23 71.5282 131.465H81.2313H81.2238Z" fill="#8D9FCB"/>
<path fill-rule="evenodd" clip-rule="evenodd" d="M75.5474 122.662C77.2121 120.72 77.2346 117.953 75.5924 114.361C73.8902 115.224 73.3128 116.521 72.398 118.268C62.3725 115.051 64.907 104.936 69.0762 104.816C58.8857 102.874 52.7145 103.984 48.0654 109.397C46.4982 114.391 48.3653 126.134 49.5651 130.566C50.8323 135.68 52.5495 138.537 51.3872 146.208C56.8011 150.107 58.3308 154.156 72.7055 149.837C72.383 145.413 71.2957 144.333 71.3557 133.805C70.9883 130.333 73.7028 126.254 75.5399 122.67" fill="#6998D0"/>
<path fill-rule="evenodd" clip-rule="evenodd" d="M72.7055 149.829C62.8449 150.781 58.3683 148.412 51.3872 146.2C42.2016 159.824 50.12 166.858 46.1758 184.742C52.692 191.281 62.4325 192.443 75.3974 188.214C75.7049 177.648 74.5951 162.119 72.713 149.829" fill="#0F3970"/>
<path fill-rule="evenodd" clip-rule="evenodd" d="M51.4847 188.544C51.4397 190.321 51.2897 192.098 51.0273 193.86C47.8254 202.454 50.3974 210.874 51.1623 234.9C51.0498 235.2 50.9298 235.492 50.7948 235.77C52.3995 236.474 52.2045 238.027 53.1569 238.371C57.626 239.984 55.7738 237.134 56.5087 236.339C56.3062 235.844 56.1338 235.357 55.9763 234.885C56.0963 212.742 59.718 201.779 59.7255 194.888C59.7705 193.838 60.048 191.656 60.138 190.666H60.108C57.1161 190.554 54.1842 189.834 51.4772 188.551" fill="#F4AE7C"/>
<path fill-rule="evenodd" clip-rule="evenodd" d="M48.7403 240.104C49.7451 237.719 49.2652 235.545 50.3449 235.605C52.4445 236.205 52.1221 237.997 53.1569 238.372C58.2184 240.201 55.1665 236.295 56.9586 236.145C60.8653 237.757 62.8374 235.837 63.2948 238.792C62.9424 239.541 60.3404 242.323 51.3347 242.848C49.3026 242.053 48.4403 241.139 48.7403 240.104Z" fill="#142D4D"/>
<path fill-rule="evenodd" clip-rule="evenodd" d="M62.0576 190.696C62.305 193.163 62.62 195.06 62.8224 196.507C59.1707 203.938 62.9874 213.536 64.877 237.501C64.7795 237.809 64.6671 238.101 64.5546 238.386C66.1893 239.016 66.0693 240.576 67.0366 240.876C71.5732 242.278 69.5936 239.518 70.2909 238.686C70.066 238.199 69.871 237.726 69.6986 237.261C70.0135 214.443 70.5384 200.676 71.2807 195.952C71.3182 193.718 71.4907 191.491 71.7906 189.271C68.6188 190.133 65.3494 190.606 62.0651 190.696" fill="#F4AE7C"/>
<path fill-rule="evenodd" clip-rule="evenodd" d="M72.398 118.26C62.3725 115.044 64.907 104.928 69.0762 104.808C73.1329 104.298 74.0852 104.628 80.2564 103.923C82.4985 106.383 82.611 109.48 80.5789 113.229C74.4976 113.739 73.9052 115.396 72.398 118.253" fill="#406FB5"/>
<path fill-rule="evenodd" clip-rule="evenodd" d="M81.1338 105.101C84.0357 105.176 86.9376 105.041 89.817 104.696C92.3665 102.446 99.3026 97.8121 110.625 90.801C113.235 86.8268 115.889 84.2624 119.271 82.6802C120.096 83.0326 119.616 83.6025 116.917 86.1895C118.724 90.0362 117.247 92.3082 112.47 92.4132C101.815 102.326 95.021 108.16 92.0741 109.915C88.5648 111.152 84.8905 111.857 81.1713 111.992C82.311 109.345 82.2885 107.043 81.1188 105.093" fill="#F4AE7C"/>
<path fill-rule="evenodd" clip-rule="evenodd" d="M50.2775 133.175C46.4007 132.553 45.1785 130.828 45.5159 125.204C46.5132 125.579 47.5405 125.864 48.5903 126.059C48.9127 127.874 49.2577 129.448 49.5576 130.566C49.6851 131.083 50.1425 132.703 50.2775 133.183" fill="#F4AE7C"/>
<path fill-rule="evenodd" clip-rule="evenodd" d="M48.5978 126.051C47.638 125.894 46.6932 125.646 45.7859 125.309C45.5984 125.234 45.4259 125.159 45.2685 125.077C44.7211 117.128 45.6584 111.902 48.0654 109.39C46.8881 113.131 47.6455 120.652 48.5978 126.051Z" fill="#406FB5"/>
<path fill-rule="evenodd" clip-rule="evenodd" d="M59.9505 100.391C54.7166 100.684 52.1521 97.7893 52.2496 91.7006C52.0921 91.1232 51.9871 90.5383 51.9271 89.9459C51.6122 86.5416 53.3218 84.1271 57.0636 82.7024C65.8218 79.673 69.5861 80.9852 68.3563 85.4693C67.5915 87.2389 66.2793 88.7086 64.6071 89.6535C65.0945 90.5458 65.2595 91.5806 65.0795 92.5779C65.0645 92.9978 64.9745 93.4177 64.802 93.8001C64.5321 91.6181 63.8122 90.2308 62.6275 89.6535C61.8551 90.9957 62.0951 92.7578 63.3398 94.9474C63.8797 98.0968 62.7475 99.9114 59.943 100.399" fill="#0F3970"/>
<path fill-rule="evenodd" clip-rule="evenodd" d="M49.2876 99.2815C48.1779 99.0791 47.9904 100.856 47.683 101.531C46.8431 98.3817 47.5855 94.9174 49.0027 93.7552C48.4553 93.8676 47.9454 94.1226 47.5405 94.505C47.3455 90.9432 51.5672 89.9159 52.677 89.8035C53.2393 89.7435 53.6518 90.0659 53.9067 90.7558C55.5039 95.3898 54.6566 99.4165 51.3797 102.836C52.0096 101.899 52.2645 100.759 52.0921 99.6415C50.9673 103.211 48.9502 104.066 46.0483 102.206C48.4478 102.933 48.8752 101.801 49.2951 99.2815" fill="#0F3970"/>
<path fill-rule="evenodd" clip-rule="evenodd" d="M52.7595 89.8035C53.1269 89.1661 53.8467 88.8212 54.5741 88.9337C55.8863 89.3461 56.0738 91.0857 55.114 91.6331C54.859 91.8056 54.5591 91.9031 54.2592 91.9181C54.1542 91.5356 54.0417 91.1457 53.9067 90.7483C53.6668 90.0959 53.2844 89.781 52.767 89.8035" fill="#6998D0"/>
<path fill-rule="evenodd" clip-rule="evenodd" d="M56.4337 104.358C56.8611 102.889 56.7861 101.322 56.2162 99.9043C57.4085 100.332 58.6833 100.504 59.9505 100.392C62.7549 99.9118 63.8872 98.0972 63.3473 94.9403C62.1026 92.7582 61.8701 90.9961 62.635 89.6464C63.8122 90.2237 64.5396 91.611 64.8095 93.793C64.982 93.4031 65.072 92.9907 65.087 92.5708C65.2669 91.5735 65.102 90.5387 64.6146 89.6464C65.6194 89.0765 66.5042 88.3191 67.209 87.4043C68.2663 88.3341 68.7013 89.7813 68.3488 91.1461C69.7585 93.2006 70.1635 95.0153 69.5711 96.5975C69.6686 98.2621 69.5411 99.4094 69.1737 100.039C68.6038 101.044 65.6569 100.572 64.6296 100.504C64.1947 101.651 64.1122 102.904 64.3896 104.103C61.7426 103.774 59.0507 103.856 56.4337 104.351" fill="#F4AE7C"/>
<path fill-rule="evenodd" clip-rule="evenodd" d="M85.8203 129.868L85.8428 131.968L82.9934 134.24C83.0609 133.61 82.9184 132.973 82.581 132.433L85.8203 129.868ZM78.9142 137.502L74.3101 141.176L71.5732 141.221C71.5207 140.531 71.4682 139.766 71.4382 138.896L74.3851 138.926L78.7642 135.455C78.7717 135.597 78.7942 135.747 78.8317 135.889C79.0117 136.407 79.0342 136.969 78.9067 137.502" fill="#8D9FCB"/>
<path fill-rule="evenodd" clip-rule="evenodd" d="M85.8203 129.868L82.581 132.433C82.5285 132.35 82.4685 132.268 82.401 132.185C81.9136 131.675 81.1563 132.305 79.6341 133.4C79.0192 133.895 78.6968 134.667 78.7642 135.455L74.3851 138.926L71.4382 138.896C71.4007 138.012 71.3707 137.029 71.3632 135.927L75.1875 136.017L81.2162 131.465H71.5132C71.6332 130.925 71.7831 130.386 71.9706 129.868H85.8203Z" fill="#BCC9E7"/>
<path fill-rule="evenodd" clip-rule="evenodd" d="M85.8203 129.868H71.9706C72.1506 129.358 72.3605 128.856 72.5855 128.338L84.5531 128.286L85.6554 115.494H76.0573C75.9223 115.126 75.7649 114.744 75.5849 114.354C75.6524 114.324 75.7199 114.286 75.7873 114.256L87.2151 114.174L85.8128 129.868H85.8203Z" fill="#D0D9EE"/>
<path fill-rule="evenodd" clip-rule="evenodd" d="M84.5606 128.294L72.593 128.346C73.4553 126.419 74.6176 124.477 75.5474 122.662C77.0321 120.93 77.2046 118.546 76.0648 115.494H85.6629L84.5606 128.286V128.294Z" fill="white"/>
<path fill-rule="evenodd" clip-rule="evenodd" d="M78.9142 137.502C80.4664 138.357 81.7712 137.554 82.8434 135.087C83.1959 134.105 83.0309 133.018 82.4085 132.185C81.9211 131.675 81.1638 132.305 79.6416 133.4C78.9067 134 78.5918 134.975 78.8317 135.89C79.0117 136.407 79.0342 136.969 78.9067 137.502" fill="#F4AE7C"/>
<path fill-rule="evenodd" clip-rule="evenodd" d="M55.6839 98.0668C55.7739 95.9372 55.4814 93.8151 54.8365 91.7905C54.6491 91.858 54.4616 91.903 54.2592 91.9255C54.874 94.0701 54.829 96.3571 54.1317 98.4792C54.7016 99.1091 55.4139 99.5965 56.2163 99.9039C57.4085 100.331 58.6833 100.504 59.9505 100.391C61.7876 100.076 62.9049 99.1841 63.3098 97.7218C61.3827 100.196 58.8407 100.309 55.6914 98.0668" fill="#142D4D"/>
<path fill-rule="evenodd" clip-rule="evenodd" d="M328.344 237.831C328.344 237.831 327.917 244.707 326.582 244.805C326.41 244.82 319.841 244.82 319.841 244.82L311.45 244.767C311.585 243.455 312.635 242.42 313.955 242.323C316.407 241.896 320.508 240.178 322.001 236.932C323.56 233.527 328.344 237.831 328.344 237.831Z" fill="#142D4D"/>
<path fill-rule="evenodd" clip-rule="evenodd" d="M328.832 238.304C327.362 238.791 325.832 239.076 324.295 239.159C322.863 239.144 321.438 238.934 320.058 238.551C320.058 238.551 319.579 233.91 316.939 223.689C315.552 218.328 313.58 211.437 310.76 202.873C302.984 179.208 300.622 165.366 300.405 164.061C300.405 164.024 300.397 163.994 300.397 163.956L300.42 163.941L324.333 153.443C324.333 153.443 321.371 186.054 325.142 198.569C325.712 200.541 326.17 202.544 326.515 204.568C328.892 218.163 328.839 238.296 328.839 238.296" fill="#0F3D86"/>
<path fill-rule="evenodd" clip-rule="evenodd" d="M326.5 204.575L316.932 223.689C315.544 218.328 313.572 211.437 310.753 202.873C302.977 179.216 300.615 165.373 300.397 164.061C300.397 164.024 300.397 163.986 300.405 163.949L324.318 153.451C324.318 153.451 321.356 186.062 325.127 198.577C325.697 200.549 326.155 202.551 326.5 204.575Z" fill="#0F3970"/>
<path fill-rule="evenodd" clip-rule="evenodd" d="M315.432 104.103C315.432 104.103 327.549 116.468 328.149 121.342C328.749 126.216 322.196 133.842 322.196 133.842L315.432 104.103Z" fill="#406FB5"/>
<path fill-rule="evenodd" clip-rule="evenodd" d="M313.07 104.763L308.406 107.822L301.665 106.563C301.755 106.015 302.205 103.758 302.609 101.719C302.632 101.599 302.654 101.479 302.677 101.359C303.022 99.619 303.322 98.1268 303.322 98.1268L309.621 95.3449L311.968 94.3101C311.968 94.3101 311.788 96.2372 311.765 96.5146C311.465 99.3266 311.915 102.176 313.07 104.755" fill="#F4AE7C"/>
<path fill-rule="evenodd" clip-rule="evenodd" d="M303.382 103.218C303.509 103.166 311.015 100.421 311.885 100.706C312.755 100.991 314.42 103.323 314.42 103.323L300.675 106.008C300.675 106.008 301.702 103.916 303.374 103.211" fill="#406FB5"/>
<path fill-rule="evenodd" clip-rule="evenodd" d="M324.903 156.825C323.545 163.004 301.012 163.739 295.201 158.13C294.541 157.493 294.511 154.516 294.759 150.504C295.246 142.668 296.813 130.888 296.873 124.867C296.933 121.987 297.248 119.115 297.833 116.288C298.523 112.794 299.475 109.36 300.69 106.015C300.69 106.015 311.698 102.454 313.76 103.061C323.68 105.978 326.252 150.646 324.903 156.825Z" fill="#6998D0"/>
<path fill-rule="evenodd" clip-rule="evenodd" d="M294.751 150.504C295.238 142.668 296.806 130.888 296.866 124.867C296.926 121.987 297.241 119.115 297.825 116.288L304.454 115.119C304.454 115.119 310.925 141.566 294.759 150.512" fill="#406FB5"/>
<path fill-rule="evenodd" clip-rule="evenodd" d="M311.285 96.6123C309.906 98.9518 304.747 100.984 302.602 101.726C302.624 101.606 302.647 101.486 302.669 101.366C303.014 99.6267 303.314 98.1345 303.314 98.1345L309.613 95.3526C311.008 95.3376 311.855 95.645 311.285 96.6123Z" fill="#ED7D5B"/>
<path fill-rule="evenodd" clip-rule="evenodd" d="M300.945 97.7447C300.945 97.7447 311.09 100.909 312.965 94.5654C314.84 88.2216 317.412 84.3524 311.008 82.0579C304.604 79.7633 302.632 81.8179 301.485 83.7825C300.337 85.7471 298.35 96.7549 300.937 97.7447" fill="#F4AE7C"/>
<path fill-rule="evenodd" clip-rule="evenodd" d="M301.89 83.1823C301.89 83.1823 302.534 90.5683 304.064 90.2459C305.594 89.9235 306.974 89.691 306.756 91.9181C306.539 94.1451 306.756 97.2795 311.465 97.6769C316.174 98.0743 320.598 85.3644 319.309 83.0623C315.574 76.4262 296.498 75.0914 301.897 83.1823" fill="#0F3970"/>
<path fill-rule="evenodd" clip-rule="evenodd" d="M297.758 138.604C297.758 138.604 296.881 140.531 296.093 140.928C295.343 141.258 294.721 141.836 294.324 142.555C293.994 144.018 294.241 145.555 295.029 146.837C295.613 147.572 294.991 144.265 298.118 143.523C299.13 143.275 300.57 142.518 300.577 141.108C300.592 140.126 300.532 139.151 300.397 138.176L297.758 138.611V138.604Z" fill="#F4AE7C"/>
<path fill-rule="evenodd" clip-rule="evenodd" d="M300.375 141.978C300.375 141.978 298.815 145.562 298.388 145.42C297.316 145.075 298.5 143.815 298.41 142.803C298.35 142.128 300.367 141.971 300.367 141.971" fill="#F4AE7C"/>
<path fill-rule="evenodd" clip-rule="evenodd" d="M305.744 104.426C305.744 104.426 299.288 105.633 294.144 113.222C289 120.81 285.61 126.441 286.563 129.171C287.515 131.9 293.866 141.386 295.358 141.386C296.851 141.386 300.802 140.389 300.93 137.944C300.93 137.944 296.678 128.503 297.301 126.794C297.968 124.957 304.687 120.795 305.744 123.509C307.491 127.994 305.759 104.426 305.759 104.426" fill="#7595CC"/>
<path fill-rule="evenodd" clip-rule="evenodd" d="M52.602 19.9699H118.371C122.098 19.9699 125.12 22.9918 125.12 26.7186V57.3649C125.12 61.0917 122.098 64.1136 118.371 64.1136H69.2712C69.0612 66.8505 69.1662 71.747 71.8731 75.5563C71.8731 75.5563 59.6956 73.9141 55.0765 64.1136H52.6095C48.8827 64.1136 45.8608 61.0917 45.8608 57.3649V26.7111C45.8608 22.9843 48.8827 19.9624 52.6095 19.9624" fill="#D0D9EE"/>
<path fill-rule="evenodd" clip-rule="evenodd" d="M55.9388 54.6054H115.042C115.859 54.6054 116.519 53.9456 116.519 53.1282C116.519 52.3109 115.859 51.651 115.042 51.651H55.9313C55.114 51.651 54.4541 52.3109 54.4541 53.1282C54.4541 53.9381 55.114 54.5979 55.9313 54.6054M55.9388 47.3019H115.042C115.859 47.3169 116.534 46.672 116.549 45.8622C116.564 45.0448 115.919 44.37 115.109 44.355C115.087 44.355 115.064 44.355 115.042 44.355H55.9388C55.1215 44.37 54.4766 45.0523 54.4991 45.8622C54.5141 46.6495 55.1515 47.2869 55.9388 47.3019ZM55.9388 39.9909H115.042C115.859 39.9909 116.519 39.331 116.519 38.5137C116.519 37.6963 115.859 37.0364 115.042 37.0364H55.9313C55.114 37.0364 54.4541 37.6963 54.4541 38.5137C54.4541 39.3235 55.114 39.9834 55.9313 39.9909M55.9388 32.6873H115.042C115.859 32.6873 116.519 32.0274 116.519 31.2101C116.519 30.3928 115.859 29.7329 115.042 29.7329H55.9388C55.1215 29.7329 54.4616 30.3928 54.4616 31.2101C54.4616 32.0274 55.1215 32.6873 55.9388 32.6873Z" fill="white"/>
</svg>
