<svg width="87" height="21" viewBox="0 0 87 21" fill="none" xmlns="http://www.w3.org/2000/svg">
<path d="M12.8 5.4695C14.033 3.67614 14.5934 2.66738 15.4677 0.649858L17.1713 1.34478C15.8936 3.60889 15.4452 4.32623 14.6382 5.4695H16.4092C17.4852 5.4695 18.068 5.44708 18.8078 5.37983C18.7405 5.89541 18.7181 6.34375 18.7181 7.12834V8.78719C18.7181 9.37003 18.7405 9.77354 18.8302 10.334H17.0144V7.01626H1.81577V10.334H0C0.0896676 9.66145 0.112086 9.3252 0.112086 8.78719V7.15076C0.112086 6.38859 0.0896724 5.91783 0.0224217 5.37983C0.762179 5.44708 1.34502 5.4695 2.42103 5.4695H12.8ZM14.7055 10.8047C15.916 10.7599 16.6333 10.7375 16.8351 10.715C16.7903 11.0065 16.7903 11.1185 16.7454 11.9031C16.5885 15.2433 16.3419 17.2384 15.9608 18.561C15.5573 19.8836 14.7727 20.3095 12.688 20.3095C12.15 20.3095 11.4775 20.2871 10.3342 20.1974C10.2894 19.4801 10.1773 18.9645 9.9531 18.3816C10.8946 18.5385 11.9706 18.6282 12.7328 18.6282C13.9209 18.6282 14.1675 18.4265 14.4365 17.3504C14.6831 16.2744 14.8624 14.6604 14.9521 12.3515H9.30302C8.69776 14.8173 7.71141 16.521 6.03015 17.9557C4.81963 18.9869 3.63154 19.637 1.34502 20.5336C0.986346 19.7939 0.739759 19.4128 0.246587 18.9421C2.44344 18.2471 4.12471 17.3729 5.33523 16.252C6.45607 15.2208 7.15099 14.0103 7.5545 12.3515H4.03504C3.09353 12.3515 2.17444 12.3963 1.61402 12.486V10.6926C2.08477 10.7599 2.98145 10.8047 4.03504 10.8047H7.80108C7.89075 10.0201 7.93558 9.37003 7.93558 8.71994C7.93558 8.33886 7.91317 8.15952 7.89075 7.8681H9.84102C9.77377 8.18194 9.75135 8.38369 9.70652 9.16828C9.66168 9.84079 9.63927 10.2443 9.5496 10.8047H14.7055ZM4.01263 5.13324C3.20562 3.40714 2.86937 2.84671 1.77094 1.47928L3.34012 0.829191C4.43855 2.24146 4.70755 2.66738 5.62665 4.4159L4.01263 5.13324ZM9.2806 4.70732C8.76501 3.40714 8.24942 2.48804 7.24066 1.05336L8.78743 0.49294C9.61685 1.6362 10.3118 2.8243 10.8946 4.01239L9.2806 4.70732Z" fill="#333333"/>
<path d="M41.8972 3.99011C41.3592 3.92286 41.0454 3.92286 40.0366 3.90044C39.2296 5.71621 38.6916 6.56806 37.5259 7.75615C38.8933 8.58558 40.2832 9.10117 42.3904 9.59434C41.9869 10.1772 41.8972 10.4238 41.6282 11.2084C39.3641 10.5134 37.7949 9.79609 36.3826 8.78733C35.1049 9.75125 33.6702 10.4686 31.3164 11.3204C31.1147 10.8273 30.8681 10.4462 30.5094 10.0203C30.0835 11.1859 29.8145 11.7688 29.2989 12.6655C28.8281 12.2619 28.6712 12.1723 28.0884 11.8809C28.7161 10.8945 29.0747 10.1099 29.4334 8.96666H27.4383L27.528 18.8525C27.5504 20.063 27.0348 20.4665 25.5104 20.4665C24.8155 20.4665 24.3223 20.4441 23.3808 20.3545C23.3808 19.8389 23.2688 19.3457 23.0446 18.7853C24.0309 18.9422 24.681 19.0094 25.3535 19.0094C25.8019 19.0094 25.9812 18.8749 25.9812 18.5163L25.9588 11.4549C24.9052 13.8984 23.7395 15.6469 22.1703 17.1713C21.8789 16.4539 21.6996 16.1401 21.2288 15.6021C23.2239 13.8535 24.5689 11.8584 25.6225 8.96666H23.5602C22.6411 8.96666 22.1255 8.98908 21.6323 9.10116V7.35265C22.1703 7.44232 22.7083 7.46473 23.6498 7.46473H26.4968C25.4432 6.2318 24.6586 5.51446 23.2463 4.46087L24.2775 3.51936C25.3311 4.32637 25.7122 4.66262 26.3623 5.24546C27.4159 4.32637 27.8194 3.8332 28.6264 2.68993H24.143C23.2688 2.68993 22.7083 2.71235 22.1703 2.80201V1.09833C22.7083 1.188 23.2688 1.21042 24.2775 1.21042H28.2229C29.4334 1.21042 29.5903 1.21042 30.0611 1.14317L30.9577 2.1071C30.7784 2.28643 30.6215 2.46577 30.2628 2.95894C29.2317 4.3712 28.3798 5.31271 27.3486 6.2318C27.5728 6.47839 27.6625 6.56806 27.9315 6.90431L27.3935 7.46473H28.873C29.6352 7.46473 30.0835 7.44231 30.487 7.39748L31.1819 8.27174C31.0698 8.4735 31.0026 8.67525 30.8681 9.0115C30.7336 9.39259 30.6888 9.5495 30.5542 9.90817C32.5942 9.30292 33.8719 8.72008 35.1721 7.84582C34.1634 6.92672 33.5133 6.11972 32.8632 5.02129C32.3028 5.78346 31.9441 6.18697 30.9577 7.19573C30.5767 6.70256 30.3749 6.54564 29.7697 6.11972C31.5182 4.55053 32.5045 3.22794 33.2219 1.43459C33.446 0.896582 33.5133 0.67241 33.6478 0.111987L35.2842 0.493076C35.2244 0.612633 35.1123 0.866689 34.948 1.25525C34.7238 1.77084 34.6341 1.99501 34.41 2.44335H39.6331C40.6418 2.44335 41.3368 2.39851 41.8972 2.33126V3.99011ZM39.2968 12.5758C40.2159 12.5758 40.7091 12.5534 41.1126 12.4861C41.0678 12.7701 41.0005 13.4799 40.9109 14.6157C40.6643 17.3058 40.3056 18.9422 39.8348 19.5923C39.4538 20.1079 38.9158 20.3096 37.907 20.3096C37.1896 20.3096 36.7189 20.2648 35.3739 20.0854C35.3066 19.3681 35.2618 19.1215 35.0152 18.3818C36.2481 18.6508 37.0103 18.7628 37.7052 18.7628C38.445 18.7628 38.6692 18.5163 38.9158 17.4178C39.0727 16.6557 39.1623 16.0056 39.3193 14.0777H35.5756C34.6565 17.1937 32.8408 19.0991 29.3437 20.6235C29.0523 20.063 28.7833 19.6595 28.3126 19.2112C30.1507 18.4938 31.1595 17.911 32.1458 16.9695C32.9529 16.2073 33.4909 15.3555 33.9168 14.0777H31.7199C30.756 14.0777 30.2404 14.1001 29.7472 14.1674V12.4861C30.2628 12.5534 30.7112 12.5758 31.7872 12.5758H34.2755C34.41 11.8584 34.4772 11.2308 34.4772 10.6704C34.4772 10.491 34.4548 10.4238 34.4324 10.222L36.2706 10.2668C36.2033 10.6479 36.2033 10.7152 36.0688 11.6791C36.024 11.9705 35.9791 12.1947 35.9119 12.5758H39.2968ZM33.872 3.90044C34.4548 5.04371 35.217 5.98522 36.3378 6.90431C37.3017 5.98522 37.7501 5.31271 38.3553 3.90044H33.872Z" fill="#333333"/>
<path d="M47.479 3.3177C46.7841 4.21438 46.2237 4.7748 45.3718 5.51456C44.9011 4.95414 44.8338 4.88689 44.094 4.39372C45.7977 3.1832 46.941 1.74852 47.6359 0L49.3396 0.448343C48.9809 1.09843 48.824 1.36743 48.4878 1.90544H52.052C53.016 1.90544 53.4643 1.88302 53.9799 1.79335V3.38496C53.4643 3.34012 53.1729 3.3177 52.321 3.3177H50.6622C51.0657 4.03504 51.2675 4.41613 51.5589 5.11106L50.0794 5.6939C49.7655 4.70755 49.5638 4.21438 49.0706 3.3177H47.479ZM61.3551 6.07498C62.4759 6.07498 62.9467 6.05257 63.6864 5.98531C63.6192 6.43365 63.6192 6.72507 63.6192 7.39758V8.67534C63.6192 9.34785 63.6416 9.72894 63.7088 10.1549H61.9827V7.46483H46.6272V10.1549H44.9011C44.9459 9.70652 44.9907 9.32544 44.9907 8.69776V7.42C44.9907 6.81474 44.9683 6.43365 44.9011 5.98531C45.5736 6.05257 46.0219 6.07498 47.1652 6.07498H53.1505V5.73873C53.1505 5.22314 53.1281 4.95414 53.0608 4.52822H54.8766C54.8542 4.59547 54.8542 4.66272 54.8542 4.68514C54.7869 4.99897 54.7869 5.1783 54.7869 5.73873V6.07498H61.3551ZM47.748 20.6908C47.8377 19.951 47.8825 19.301 47.8825 18.3594V10.2894C47.8825 9.5496 47.8601 9.16851 47.7928 8.67534C48.4653 8.76501 49.0482 8.78743 49.9449 8.78743H58.2391C59.1582 8.78743 59.741 8.76501 60.3911 8.67534C60.3463 9.10126 60.3239 9.57202 60.3239 10.2894V11.7016C60.3239 12.5086 60.3239 12.9121 60.3911 13.4277C59.7635 13.3605 59.1806 13.3381 58.2839 13.3381H49.5189V14.7952H59.2479C60.167 14.7952 60.7274 14.7727 61.243 14.7055C61.1757 15.2435 61.1533 15.8712 61.1533 16.6782V18.606C61.1533 19.413 61.1757 20.0183 61.2654 20.6908H59.5169V19.6148H49.5189V20.6908H47.748ZM49.5189 11.993H58.7323V10.1549H49.5189V11.993ZM49.5189 18.2474H59.5169V16.185H49.5189V18.2474ZM56.2216 3.34012C55.7957 3.92296 55.5267 4.2368 55.0783 4.68514C54.7869 4.34888 54.361 4.05746 53.8006 3.76604C54.9214 2.84695 55.7508 1.56919 56.1992 0.0672537L57.8356 0.403505C57.589 0.986344 57.4769 1.1881 57.0958 1.92785H62.2069C63.2157 1.92785 63.6416 1.90544 64.2468 1.81577V3.45221C63.664 3.36254 63.1932 3.34012 62.2517 3.34012H59.5617C60.01 4.05746 60.2566 4.46097 60.5705 5.11106L59.0237 5.6939C58.6426 4.70755 58.396 4.19196 57.8804 3.34012H56.2216Z" fill="#333333"/>
<path d="M68.1698 3.02652C67.2956 3.02652 67.049 3.04894 66.3989 3.13861V1.36767C66.9369 1.45734 67.4525 1.50217 68.3491 1.50217H71.6893C72.5411 1.50217 73.0119 1.47976 73.5723 1.36767V3.11619C72.9894 3.04894 72.5635 3.02652 71.8686 3.02652H70.8823V8.04791H71.6668C72.2945 8.04791 72.6532 8.02549 73.1464 7.93582V9.59468C72.6756 9.52743 72.2273 9.50501 71.6668 9.50501H70.8823V14.8402C71.8014 14.4591 72.2049 14.2574 73.393 13.6746L73.4826 15.3558C71.4651 16.3422 70.6805 16.6784 67.6318 17.8889C67.0938 18.0907 67.0041 18.1355 66.7351 18.27L66.242 16.4318C67.0265 16.2749 67.7215 16.0507 69.2458 15.4903V9.50501H68.1922C67.587 9.50501 67.1835 9.52742 66.6679 9.61709V7.93582C67.1835 8.02549 67.5421 8.04791 68.2146 8.04791H69.2458V3.02652H68.1698ZM79.1541 15.3558H76.3296C75.2087 15.3558 74.7155 15.3782 74.1327 15.4679V13.7418C74.6707 13.8315 75.1863 13.8539 76.3071 13.8539H79.1541V11.5001H76.9124C75.5001 11.5001 74.7828 11.5225 74.1551 11.5898C74.2 11.2461 74.2298 10.3643 74.2448 8.94458V4.08012C74.2448 2.62302 74.2224 1.90568 74.1327 1.18834C74.85 1.27801 75.5674 1.30042 77.0693 1.30042H83.0546C84.6686 1.30042 85.3187 1.27801 85.924 1.18834C85.8567 1.83843 85.8343 2.75752 85.8343 4.08012V8.67558C85.8343 10.1551 85.8567 10.9621 85.924 11.5898C85.117 11.5225 84.579 11.5001 83.3012 11.5001H80.7457V13.8539H83.9513C85.0497 13.8539 85.5429 13.8315 86.1706 13.7418V15.4679C85.5429 15.3782 85.0273 15.3558 83.9513 15.3558H80.7457V18.3597H84.7583C85.8567 18.3597 86.4172 18.3373 87 18.2476V19.9961C86.3051 19.9064 85.8119 19.884 84.6911 19.884H74.8276C73.7068 19.884 73.2136 19.9064 72.4963 19.9961V18.2476C73.0791 18.3373 73.5723 18.3597 74.6707 18.3597H79.1541V15.3558ZM75.814 2.77994V5.69413H79.1541V2.77994H75.814ZM75.814 7.15124V10.0206H79.1541V7.15124H75.814ZM80.7457 5.69413H84.2427V2.77994H80.7457V5.69413ZM80.7457 10.0206H84.2427V7.15124H80.7457V10.0206Z" fill="#333333"/>
</svg>
