<svg width="88" height="21" viewBox="0 0 88 21" fill="none" xmlns="http://www.w3.org/2000/svg">
<path d="M2.9288 1.8476C2.9288 1.2393 2.90627 0.878828 2.83869 0.473298H4.57345C4.50586 0.833769 4.48334 1.05906 4.48334 1.82506V2.27566H7.05168V1.8476C7.05168 1.14918 7.02916 0.878827 6.96157 0.495827H8.69633C8.62875 0.833768 8.60622 1.12665 8.60622 1.80253V2.27566H9.57501C10.2509 2.27566 10.7465 2.25312 11.49 2.16301V3.7626C10.9718 3.69501 10.5438 3.67248 9.57501 3.67248H8.60622V3.94283C8.60622 4.48354 8.62875 4.84401 8.69633 5.15942H6.98412C7.02918 4.88907 7.05168 4.59618 7.05168 3.94283V3.67248H4.48334V3.94283C4.48334 4.59618 4.50589 4.82148 4.55095 5.13689H2.83869C2.90627 4.79895 2.9288 4.43848 2.9288 3.9203V3.67248H1.77982C0.856115 3.67248 0.360471 3.69501 0 3.7626V2.16301C0.473118 2.2306 1.0138 2.27566 1.84739 2.27566H2.9288V1.8476ZM2.43317 10.3412C1.57705 10.3412 1.32923 10.3412 0.788521 10.3863C0.811051 10.0483 0.833578 9.64278 0.833578 9.28231V6.73648C0.833578 6.30842 0.811051 6.0606 0.788521 5.63254C1.37429 5.6776 1.41935 5.6776 2.43317 5.6776H9.1244C10.1382 5.6776 10.1833 5.6776 10.769 5.63254C10.724 6.03807 10.724 6.28589 10.724 6.84913V9.21472C10.724 9.68784 10.7465 10.0258 10.769 10.3863C10.2509 10.3412 10.0481 10.3412 9.14695 10.3412H6.44339V11.7606H8.78645C9.68763 11.7606 10.1382 11.738 10.8141 11.6704V13.225C10.1382 13.1574 9.68763 13.1348 8.78645 13.1348H6.44339V14.5767H8.29082C9.21453 14.5767 9.66513 14.5542 10.2734 14.4866V16.0411C9.57501 15.9736 9.16947 15.951 8.29082 15.951H6.44339V17.6858C7.65998 17.5506 8.42598 17.4154 10.341 17.0099L10.4311 18.3617C7.16433 19.0826 5.94776 19.2854 1.53199 19.8486C1.12646 19.9162 0.856102 19.9613 0.405514 20.0289L0.0675627 18.249C0.18021 18.249 0.270341 18.249 0.315399 18.2716H0.495628C1.17151 18.2716 2.14028 18.1814 4.9114 17.866V15.951H2.9063C2.11776 15.951 1.59957 15.9736 1.01381 16.0637V14.4641C1.44187 14.5542 2.00509 14.5767 2.9288 14.5767H4.9114V13.1348H2.38812C1.59959 13.1348 1.01383 13.1799 0.473122 13.2475V11.6479C0.96877 11.738 1.46441 11.7606 2.43317 11.7606H4.9114V10.3412H2.43317ZM2.34306 7.00684V9.03449H4.9114V7.00684H2.34306ZM6.44339 9.03449H9.28212V7.00684H6.44339V9.03449ZM17.8208 5.2946C18.8571 5.2946 19.3528 5.27207 19.8484 5.20448C19.8184 5.51989 19.7733 6.59379 19.7133 8.42619C19.533 13.653 19.2401 17.1226 18.8346 18.5644C18.5642 19.4881 18.2939 19.9162 17.7757 20.1415C17.3477 20.3443 16.7844 20.4344 16.041 20.4344C15.703 20.4344 15.5904 20.4344 14.1485 20.2992C14.1034 19.5783 14.0358 19.1953 13.788 18.4969C14.6441 18.7221 15.4101 18.8348 16.086 18.8348C17.0322 18.8348 17.2125 18.5644 17.4603 16.9198C17.8433 14.4866 17.9785 12.076 18.0686 6.8266H15.5002C15.32 10.4538 15.0046 12.4364 14.2611 14.7119C13.4951 17.1 12.4137 18.97 10.769 20.7723C10.2509 20.164 10.0031 19.9387 9.37223 19.5557C11.1295 17.8435 12.1434 16.1313 12.8643 13.6305C13.4276 11.738 13.6979 9.91314 13.8331 6.8266H13.405C12.2335 6.8266 11.8054 6.84913 11.3773 6.93925V5.18195C11.9406 5.27207 12.4588 5.2946 13.405 5.2946H13.8781C13.9007 4.46101 13.9007 3.85271 13.9007 2.95153C13.9007 1.32941 13.8781 1.08159 13.7655 0.473298H15.7256C15.6354 1.05906 15.5904 1.39701 15.5904 2.16301C15.5679 4.03295 15.5678 4.55113 15.5453 5.2946H17.8208Z" fill="#333333"/>
<path d="M22.5069 18.8346C24.1065 17.2575 24.7824 16.1311 25.4808 13.9457L27.0128 14.5991C26.1792 17.0097 25.4583 18.2714 23.9713 19.9836L22.5069 18.8346ZM26.5397 4.28058C26.7875 4.25805 26.8101 4.25805 27.0354 4.25805C28.5448 2.52328 29.4685 1.14898 29.829 0.135158L31.8341 0.60828C31.744 0.728437 31.6088 0.923691 31.4286 1.19404C30.5725 2.43316 29.9191 3.28929 29.0855 4.23552C31.6314 4.21299 34.2673 4.10034 37.1511 3.89758C36.2724 3.19916 35.7542 2.81617 34.4926 2.02763L35.8669 1.17152C37.9396 2.50075 39.359 3.60469 41.9048 5.9027L40.5305 7.02917C39.5617 6.03787 39.2463 5.72246 38.6605 5.18176C34.6503 5.54223 29.6713 5.79005 25.0528 5.85764C24.3318 5.88017 24.0164 5.9027 23.5208 5.94776L23.2053 4.1454C23.9713 4.23552 24.9401 4.28058 26.2693 4.28058H26.5397ZM25.5259 8.87659C25.5259 8.24576 25.5034 7.8177 25.4358 7.20941C25.9765 7.277 26.4947 7.29952 27.4184 7.29952H37.5566C38.4803 7.29952 38.9985 7.277 39.5392 7.20941C39.4716 7.72759 39.4491 8.11059 39.4491 8.87659V11.2872C39.4491 12.0758 39.4716 12.3912 39.5392 12.9544C38.9534 12.8868 38.4803 12.8643 37.6242 12.8643H27.3508C26.4946 12.8643 26.0215 12.8868 25.4358 12.9544C25.5034 12.4362 25.5259 12.0082 25.5259 11.2872V8.87659ZM27.193 8.74141V11.4449H37.7594V8.74141H27.193ZM29.8966 14.0584C29.8065 14.554 29.7839 14.9145 29.7839 15.5453V18.1813C29.7839 18.6994 30.0994 18.767 32.5325 18.767C35.3487 18.767 36.0471 18.6769 36.3175 18.2939C36.5428 18.001 36.6104 17.4828 36.6554 16.0184C37.1961 16.3113 37.6467 16.469 38.3226 16.5817C38.0072 20.2314 37.8945 20.3215 32.7578 20.3215C28.7251 20.3215 28.1168 20.1188 28.1168 18.7445V15.703C28.1168 15.0046 28.0942 14.6667 28.0041 14.0584H29.8966ZM34.2448 17.1449C33.1408 15.9058 32.3748 15.2524 30.9555 14.3738L32.2622 13.4501C33.6365 14.3287 34.4025 14.937 35.529 16.0635L34.2448 17.1449ZM41.2965 19.7808C40.0799 17.4603 39.2013 16.2212 37.6467 14.5315L39.0886 13.7655C40.6657 15.5002 41.5894 16.7394 42.806 18.7445L41.2965 19.7808Z" fill="#333333"/>
<path d="M48.2806 3.33436C47.5822 4.23554 47.0189 4.79878 46.1628 5.54225C45.6897 4.97901 45.6222 4.91142 44.8787 4.41578C46.5909 3.19919 47.7399 1.7573 48.4383 0L50.1505 0.450594C49.7901 1.10395 49.6324 1.3743 49.2944 1.91501H52.8766C53.8454 1.91501 54.296 1.89247 54.8142 1.80236V3.40195C54.296 3.35689 54.0031 3.33436 53.1469 3.33436H51.4798C51.8853 4.0553 52.0881 4.4383 52.381 5.13672L50.894 5.72248C50.5786 4.73119 50.3758 4.23554 49.8802 3.33436H48.2806ZM62.2263 6.10548C63.3528 6.10548 63.8259 6.08295 64.5694 6.01536C64.5018 6.46595 64.5018 6.75884 64.5018 7.43472V8.7189C64.5018 9.39478 64.5244 9.77778 64.5919 10.2058H62.8571V7.50231H47.4245V10.2058H45.6897C45.7348 9.75525 45.7798 9.37226 45.7798 8.74143V7.45725C45.7798 6.84895 45.7573 6.46595 45.6897 6.01536C46.3656 6.08295 46.8162 6.10548 47.9652 6.10548H53.9806V5.76754C53.9806 5.24936 53.958 4.97901 53.8905 4.55095H55.7153C55.6928 4.61854 55.6928 4.68613 55.6928 4.70866C55.6252 5.02407 55.6252 5.2043 55.6252 5.76754V6.10548H62.2263ZM48.5509 20.7947C48.6411 20.0512 48.6861 19.3979 48.6861 18.4516V10.341C48.6861 9.59755 48.6636 9.21454 48.596 8.7189C49.2719 8.80902 49.8577 8.83155 50.7588 8.83155H59.0948C60.0185 8.83155 60.6042 8.80902 61.2576 8.7189C61.2125 9.14696 61.19 9.62008 61.19 10.341V11.7604C61.19 12.5714 61.19 12.977 61.2576 13.4951C60.6268 13.4276 60.041 13.405 59.1398 13.405H50.3308V14.8694H60.1086C61.0323 14.8694 61.5955 14.8469 62.1137 14.7793C62.0461 15.32 62.0236 15.9509 62.0236 16.7619V18.6994C62.0236 19.5105 62.0461 20.1188 62.1362 20.7947H60.3789V19.7133H50.3308V20.7947H48.5509ZM50.3308 12.0533H59.5904V10.2058H50.3308V12.0533ZM50.3308 18.339H60.3789V16.2663H50.3308V18.339ZM57.0671 3.35689C56.639 3.94265 56.3687 4.25807 55.9181 4.70866C55.6252 4.37072 55.1972 4.07783 54.6339 3.78495C55.7604 2.86124 56.594 1.57706 57.0445 0.0675913L58.6892 0.405531C58.4414 0.991296 58.3287 1.19406 57.9457 1.93753H63.0825C64.0963 1.93753 64.5243 1.915 65.1326 1.82489V3.46954C64.5469 3.37942 64.0738 3.35689 63.1275 3.35689H60.424C60.8745 4.07783 61.1224 4.48336 61.4378 5.13672L59.8833 5.72248C59.5003 4.73119 59.2524 4.21301 58.7343 3.35689H57.0671Z" fill="#333333"/>
<path d="M69.0753 3.04172C68.1966 3.04172 67.9488 3.06425 67.2954 3.15437V1.37454C67.8361 1.46466 68.3543 1.50971 69.2555 1.50971H72.6124C73.4685 1.50971 73.9416 1.48719 74.5048 1.37454V3.13184C73.9191 3.06425 73.491 3.04172 72.7926 3.04172H71.8013V8.08831H72.5898C73.2207 8.08831 73.5811 8.06578 74.0768 7.97567V9.64285C73.6037 9.57526 73.1531 9.55273 72.5898 9.55273H71.8013V14.9147C72.725 14.5317 73.1305 14.329 74.3246 13.7432L74.4147 15.4329C72.3871 16.4242 71.5986 16.7622 68.5346 17.9787C67.9939 18.1815 67.9037 18.2266 67.6334 18.3617L67.1377 16.5143C67.9262 16.3566 68.6247 16.1313 70.1567 15.5681V9.55273H69.0978C68.4895 9.55273 68.0839 9.57526 67.5658 9.66537V7.97567C68.0839 8.06578 68.4444 8.08831 69.1203 8.08831H70.1567V3.04172H69.0753ZM80.1147 15.4329H77.276C76.1495 15.4329 75.6538 15.4554 75.0681 15.5456V13.8108C75.6088 13.9009 76.127 13.9234 77.2535 13.9234H80.1147V11.5579H77.8617C76.4424 11.5579 75.7214 11.5804 75.0906 11.648C75.1357 11.3025 75.1657 10.4164 75.1807 8.98949V4.1006C75.1807 2.63619 75.1582 1.91525 75.0681 1.1943C75.789 1.28442 76.5099 1.30695 78.0194 1.30695H84.0348C85.6569 1.30695 86.3103 1.28442 86.9186 1.1943C86.851 1.84766 86.8285 2.77137 86.8285 4.1006V8.71914C86.8285 10.2061 86.851 11.0171 86.9186 11.648C86.1075 11.5804 85.5668 11.5579 84.2826 11.5579H81.7143V13.9234H84.936C86.0399 13.9234 86.5356 13.9009 87.1664 13.8108V15.5456C86.5356 15.4554 86.0174 15.4329 84.936 15.4329H81.7143V18.4519H85.7471C86.851 18.4519 87.4142 18.4293 88 18.3392V20.0965C87.3016 20.0064 86.8059 19.9839 85.6794 19.9839H75.7665C74.64 19.9839 74.1444 20.0064 73.4234 20.0965V18.3392C74.0092 18.4293 74.5049 18.4519 75.6088 18.4519H80.1147V15.4329ZM76.7578 2.79389V5.72272H80.1147V2.79389H76.7578ZM76.7578 7.18714V10.0709H80.1147V7.18714H76.7578ZM81.7143 5.72272H85.2289V2.79389H81.7143V5.72272ZM81.7143 10.0709H85.2289V7.18714H81.7143V10.0709Z" fill="#333333"/>
</svg>
