<svg width="71" height="71" viewBox="0 0 71 71" fill="none" xmlns="http://www.w3.org/2000/svg">
<path d="M70.9923 70.625L70.6699 56.8673C70.6699 56.6724 70.505 56.5225 70.3101 56.5225C70.1826 56.5225 70.0702 56.5974 70.0102 56.7024L67.0937 61.9805C66.8988 61.4332 66.5839 60.9309 66.1715 60.5186L9.34917 3.69619L14.2824 0.974657C14.4549 0.884689 14.5148 0.667262 14.4174 0.502321C14.3574 0.389861 14.2449 0.32238 14.1175 0.32238L0.359858 0C0.164927 0 0.00749734 0.14994 0 0.344871C0 0.344871 0 0.352372 0 0.359869L0.32238 14.1175C0.32238 14.3124 0.487307 14.4624 0.682238 14.4624C0.809693 14.4624 0.922171 14.3874 0.98215 14.2824L3.70367 9.34919L60.5335 66.179C60.9459 66.5914 61.4407 66.9063 61.9955 67.1087L56.7174 70.0252C56.545 70.1152 56.485 70.3326 56.5824 70.4975C56.6424 70.61 56.7549 70.6775 56.8823 70.6775L70.64 70.9998C70.8349 70.9998 70.9923 70.8499 70.9998 70.655C70.9998 70.655 70.9998 70.6475 70.9998 70.64" fill="#636972"/>
</svg>
