<svg width="139" height="75" viewBox="0 0 139 75" fill="none" xmlns="http://www.w3.org/2000/svg">
<path d="M119.427 31.7134C118.602 31.7134 116.624 31.6909 115.358 31.6235V27.9366C116.849 28.0715 118.033 28.1614 119.179 28.1614C120.168 28.1614 120.76 28.094 120.76 27.1498V25.9958L109.265 26.1082V23.2306L120.76 23.3055V21.6869L107.294 21.8143V18.637L120.76 18.7644V17.1457L109.34 17.2282V14.3956L120.76 14.493V12.9493L109.46 13.0242V6.60964L120.76 6.69206V5.10341L107.467 5.24579V1.71628H120.768C120.768 1.71628 120.7 0.442342 120.618 0.0152032H125.339C125.257 0.442342 125.182 1.71628 125.182 1.71628H138.663V5.24579L125.189 5.10341V6.69206L136.692 6.61712V13.0242L125.189 12.9493V14.5005L136.647 14.4405L136.58 18.5096L139 18.4796V21.9492L136.587 22.0016L136.714 25.9883H125.189V27.5919C125.189 31.1739 124.432 31.7134 119.397 31.7134M125.212 23.2905H132.151V21.6719H125.212V23.2905ZM125.212 18.7344H132.151V17.1158H125.212V18.7344ZM125.212 10.6188H131.386V9.0076H125.212V10.6188ZM114.758 10.6188H120.76V9.0076H114.758V10.6188Z" fill="#FC6D26"/>
<path d="M103.33 31.7132C100.28 29.9746 97.56 27.7041 95.2969 25.0138C93.2437 22.5784 91.685 19.7608 90.7108 16.7183L90.4186 15.894L90.1413 16.7183C88.6725 21.1096 87.2113 23.62 84.566 26.3028C82.4978 28.4384 80.1223 30.2519 77.522 31.6832L74.3746 27.232C79.2305 24.804 82.0931 22.3011 84.1838 18.6667C86.3795 14.8824 87.4885 9.79421 87.4885 3.54449C87.5035 2.76515 87.4586 1.98579 87.3612 1.20645H92.914C92.8091 2.01576 92.7566 2.82508 92.7716 3.64189C92.7266 7.03652 93.2062 10.4162 94.1954 13.6684C95.5143 17.3553 97.7699 20.6375 100.745 23.1854C102.461 24.7066 104.394 25.958 106.477 26.9022L103.323 31.7057L103.33 31.7132Z" fill="#FC6D26"/>
<path d="M63.6362 29.1505C60.6837 29.1505 58.4056 28.3712 56.8919 26.82C55.3782 25.2688 54.5914 22.9532 54.5914 19.9483C54.5914 16.9433 55.4082 14.4329 57.0043 12.7169C58.6005 11.0008 60.871 10.1391 63.7111 10.1391C66.4014 10.1391 68.5146 10.9259 70.0058 12.4771C71.4971 14.0283 72.2539 16.2689 72.2539 19.109V20.6677H59.8219L59.8594 21.1922C59.8594 22.3313 60.2041 23.4403 60.871 24.3695C61.568 25.1114 62.5571 25.5011 63.5688 25.4411C65.637 25.4411 66.5213 24.437 66.896 23.4703H71.9917C71.6769 25.0964 70.7777 26.5502 69.4663 27.5543C67.7352 28.6859 65.6895 29.2404 63.6287 29.128M63.7036 13.751C61.4481 13.751 60.1142 15.0175 59.8369 17.4079L59.777 17.6178H67.2706L67.2482 17.4379C67.2781 16.4337 66.9484 15.4521 66.3114 14.6727C65.6145 14.0208 64.6853 13.6836 63.7336 13.751" fill="#FC6D26"/>
<path d="M45.7863 28.8582V17.7675C45.8163 15.9241 44.34 14.4029 42.4966 14.3729C40.6532 14.3429 39.1319 15.8192 39.102 17.6626C39.102 17.6926 39.102 17.7301 39.102 17.76V28.8507H33.8339V10.124H39.1095V12.3421L39.4542 11.9674C41.9196 9.23225 46.1385 9.01492 48.8737 11.4878C50.1326 12.6269 50.912 14.2006 51.0544 15.8866L51.0843 16.4786V28.8507H45.7863V28.8582Z" fill="#FC6D26"/>
<path d="M14.5377 31.7207C6.512 31.7132 0.00749367 25.2087 0 17.183V14.5377C0.00749367 6.51199 6.512 0.00749367 14.5377 0H15.0623C23.088 0.00749367 29.5925 6.51199 29.6 14.5377V17.183C29.5925 25.2087 23.088 31.7132 15.0623 31.7207H14.5377ZM14.5377 6.12981C9.89164 6.12981 6.12982 9.89163 6.12232 14.5377V17.183C6.12232 21.829 9.89164 25.5909 14.5377 25.5909H15.0623C19.7008 25.5759 23.4552 21.8066 23.4552 17.168V14.5377C23.4552 9.89163 19.6859 6.12983 15.0398 6.12234H14.5377V6.12981Z" fill="#FC6D26"/>
<path d="M132.878 43.1408H6.12982C2.9679 43.1408 0.404663 45.7041 0.404663 48.866V69.1364C0.404663 72.2983 2.9679 74.8615 6.12982 74.8615H132.878C136.04 74.8615 138.603 72.2983 138.603 69.1364V48.866C138.603 45.7041 136.04 43.1408 132.878 43.1408Z" fill="#FC6D26"/>
<path d="M10.7759 52.4031L13.1664 52.8678C13.1664 52.8678 12.9641 53.2724 12.5894 54.0293L16.1863 53.9918C16.4711 54.0143 16.7558 53.9543 17.0031 53.8195L18.1946 54.996C18.0448 55.1533 17.9324 55.3557 17.8874 55.573C17.3553 57.4164 16.516 59.1624 15.3995 60.7286C14.5003 61.9126 13.3987 62.9393 12.1547 63.7486C11.4278 64.2207 10.656 64.6328 9.85418 64.9775C9.44952 64.2282 8.92496 63.5462 8.288 62.9767C9.99655 62.4447 11.5552 61.508 12.8142 60.2415C12.0423 59.6046 11.2105 59.05 10.3263 58.5854L11.7276 56.8993C12.5894 57.334 13.4137 57.8435 14.1855 58.4206C14.6801 57.6637 15.0698 56.8394 15.332 55.9776L11.6302 56.0076C10.8284 57.3789 9.79423 58.6004 8.58025 59.6271C8.04071 59.0051 7.38876 58.4955 6.65438 58.1208C8.03321 57.1092 9.17225 55.7978 9.98157 54.2841C10.3113 53.6921 10.5736 53.0626 10.7534 52.4106L10.7759 52.4031ZM21.0347 53.0551L23.695 53.0701C23.6275 53.6171 23.5976 54.1642 23.6051 54.7112L23.5226 61.7927C26.1004 61.2906 28.2961 59.6121 29.4426 57.2516C29.9222 57.9934 30.5367 58.6454 31.2486 59.1774C29.3152 62.1674 26.8423 63.7186 22.9006 64.4005C22.6159 64.423 22.3461 64.5054 22.0988 64.6403L20.9073 63.254C21.0497 62.9093 21.1097 62.5346 21.0647 62.1599L21.1172 54.7337V54.5164C21.1172 54.0293 21.0947 53.5422 21.0347 53.0626V53.0551ZM32.1254 55.3032L33.6616 53.4223C34.9804 54.1492 36.2169 55.0259 37.3335 56.0376L35.7598 58.1208C34.7107 56.9893 33.4817 56.0376 32.1254 55.2957V55.3032ZM32.9572 64.2806L32.2602 61.7178C33.6391 61.6054 35.0029 61.2831 36.2843 60.7586C37.9105 60.1141 39.2893 58.9601 40.196 57.4614C40.7356 56.6446 41.1702 55.7603 41.4999 54.8386C42.0545 55.5355 42.7214 56.135 43.4633 56.6296C42.2493 59.2599 40.9754 60.841 39.1095 62.04C37.5208 63.0367 35.7598 63.7186 33.9088 64.0408C33.3843 64.1607 33.3094 64.1757 32.9497 64.2806H32.9572ZM49.4057 64.5504H46.8279C46.8879 63.8685 46.9179 63.1865 46.9104 62.5046V54.7262C46.9253 54.0817 46.8954 53.4298 46.8204 52.7853H49.3983C49.3383 53.4298 49.3158 54.0817 49.3308 54.7337V56.5621C51.459 57.2441 53.4973 58.1808 55.4082 59.3423L54.1417 61.6129C52.8154 60.7061 51.4066 59.9268 49.9303 59.2898C49.7205 59.2224 49.5182 59.1325 49.3308 59.0201V62.4971C49.3233 63.179 49.3458 63.861 49.4057 64.5429V64.5504ZM65.6071 55.9027L59.4847 55.9252C58.7653 55.9102 58.0385 55.9327 57.3191 55.9926V53.6396C58.0534 53.722 58.7878 53.7595 59.5222 53.7445L66.8435 53.7295C67.1582 53.7445 67.473 53.6995 67.7652 53.5946L69.0466 55.0409C68.7919 55.2882 68.5895 55.5805 68.4322 55.8952C67.3531 57.851 65.9143 59.5821 64.1982 61.0134C64.7753 61.6953 65.1499 62.1749 65.7869 63.0442L63.7861 64.6103C63.0442 63.3664 62.1749 62.1974 61.2083 61.1258C60.3989 60.1591 59.4997 59.2673 58.5255 58.4655L60.354 57.1841C61.1783 57.8361 61.9501 58.5405 62.662 59.3048C63.4264 58.6754 64.1233 57.9635 64.7453 57.1916C65.0675 56.787 65.3523 56.3523 65.5996 55.8952L65.6071 55.9027ZM76.7651 64.7902H74.2547C74.3297 64.1682 74.3597 63.5388 74.3447 62.9093V60.5038C73.1307 61.1782 71.8418 61.7028 70.4929 62.055C70.2381 61.3131 69.8635 60.6237 69.3988 59.9942C70.7777 59.7095 72.1191 59.2898 73.408 58.7278C74.6594 58.1958 75.7984 57.4389 76.7726 56.4947L72.6811 56.5247C72.0366 56.5097 71.3997 56.5247 70.7552 56.5921V54.4264C71.3997 54.5089 72.0516 54.5463 72.7036 54.5313H74.2922V53.797C74.2997 53.3848 74.2772 52.9652 74.2248 52.553H76.7127C76.6527 52.9577 76.6302 53.3623 76.6302 53.767V54.5164H78.7509C79.0432 54.5314 79.3354 54.4789 79.6052 54.3665L80.6468 55.5805C80.507 55.6804 80.3021 55.8852 80.0324 56.1949C79.283 57.0342 78.4587 57.8061 77.5744 58.5105C79.0957 59.0275 80.5494 59.732 81.9058 60.6087L80.5869 62.5721C79.3804 61.6728 78.0615 60.9234 76.6752 60.3389V62.9168C76.6527 63.5387 76.6752 64.1607 76.7576 64.7827L76.7651 64.7902ZM83.6218 54.8386L84.8133 52.9427C86.1397 53.4148 87.4286 54.0068 88.6501 54.7037L87.4586 56.7495C86.2671 55.9477 84.9782 55.3032 83.6218 54.8311V54.8386ZM90.3961 53.2649L91.715 52.8228C92.1946 53.4747 92.5918 54.1941 92.8915 54.951L91.5726 55.4306C91.2729 54.6587 90.8832 53.9319 90.3961 53.2574V53.2649ZM82.5802 58.1283L83.8092 56.2174C85.1206 56.712 86.3645 57.349 87.5335 58.1133L86.402 60.2116C85.2255 59.3423 83.944 58.6379 82.5802 58.1208V58.1283ZM92.322 52.6354L93.5809 52.2083C94.068 52.8378 94.4652 53.5272 94.7724 54.2691L93.491 54.7337C93.1912 53.9843 92.8016 53.2799 92.322 52.628V52.6354ZM83.6368 64.5954L82.9699 62.055C84.3787 62.0025 85.7725 61.7103 87.0839 61.2007C89.6318 60.1666 91.5576 58.0084 92.292 55.3632C92.854 56.0151 93.521 56.5846 94.2553 57.0342C92.5618 61.2307 89.5268 63.5237 84.581 64.3705C84.2588 64.4305 83.9441 64.4979 83.6293 64.5879L83.6368 64.5954ZM102.483 52.7853L104.994 53.6246C104.776 54.0293 104.589 54.4414 104.432 54.8686C103.937 56.09 103.345 57.274 102.656 58.3981C103.69 59.2673 104.664 60.2041 105.571 61.2007L103.75 63.0966C102.993 62.1075 102.146 61.1932 101.224 60.3614C99.8156 62.1224 98.0546 63.5762 96.0538 64.6103C95.6267 63.8385 95.0572 63.1491 94.3677 62.5945C96.3236 61.7403 98.0546 60.4364 99.4185 58.7878C98.3244 57.911 97.1629 57.1167 95.9414 56.4123L97.5825 54.7936C98.6766 55.4306 99.7257 56.1275 100.737 56.8919C101.524 55.6254 102.109 54.2391 102.476 52.7928L102.483 52.7853ZM107.617 55.3032L109.153 53.4223C110.472 54.1492 111.708 55.0259 112.825 56.0376L111.251 58.1208C110.202 56.9893 108.973 56.0376 107.617 55.3032ZM108.441 64.2806L107.744 61.7178C109.123 61.6054 110.487 61.2831 111.768 60.7586C113.394 60.1141 114.773 58.9601 115.68 57.4614C116.219 56.6446 116.661 55.7678 116.991 54.8461C117.546 55.543 118.213 56.1425 118.954 56.6371C117.74 59.2673 116.467 60.8485 114.601 62.0475C113.012 63.0442 111.251 63.7261 109.408 64.0483C108.89 64.1682 108.808 64.1757 108.448 64.2881L108.441 64.2806ZM124.889 64.5429H122.312C122.372 63.861 122.402 63.179 122.394 62.4971V54.7187C122.409 54.0742 122.379 53.4223 122.304 52.7778H124.882C124.822 53.4223 124.8 54.0742 124.815 54.7262V56.5546C126.943 57.2366 128.981 58.1733 130.892 59.3348L129.625 61.6054C128.299 60.6986 126.89 59.9193 125.414 59.2823C125.204 59.2149 125.002 59.125 124.815 59.0126V62.4896C124.807 63.1716 124.83 63.8535 124.897 64.5354L124.889 64.5429Z" fill="white"/>
</svg>
