<svg width="320" height="300" viewBox="0 0 320 300" fill="none" xmlns="http://www.w3.org/2000/svg">
<path fill-rule="evenodd" clip-rule="evenodd" d="M156.015 0C194.99 0 190.546 68.8379 218.685 89.8223C255.927 117.595 320 103.847 320 151.506C320 235.182 236.891 265.494 146.322 265.494C55.753 265.494 -21.5235 219.082 5.45013 135.63C32.4237 52.1773 65.4462 0 156.015 0Z" fill="#E9EFF8"/>
<path fill-rule="evenodd" clip-rule="evenodd" d="M92.5318 138.288C92.5318 137.78 92.9425 137.362 93.4578 137.362C93.9731 137.362 94.3838 137.773 94.3838 138.288L94.3688 140.14C94.3688 140.648 93.9432 141.058 93.4354 141.051C92.9276 141.044 92.5168 140.625 92.5243 140.118V138.28L92.5318 138.288ZM25.9716 208.537C26.0238 209.045 25.6579 209.501 25.1501 209.553C24.6423 209.605 24.1868 209.239 24.1345 208.731L24.0225 207.544C23.9926 207.036 24.3809 206.596 24.8887 206.566C25.3741 206.536 25.7998 206.887 25.8595 207.372L25.9716 208.545V208.537ZM25.4563 201.891C25.4787 202.399 25.0829 202.832 24.5751 202.854C24.0673 202.877 23.6341 202.481 23.6117 201.973L23.5371 200.114C23.5221 199.606 23.9254 199.18 24.4332 199.165C24.941 199.15 25.3667 199.553 25.3816 200.061L25.4563 201.891ZM25.404 194.602C25.3816 195.11 24.9485 195.506 24.4332 195.476C23.9179 195.446 23.5296 195.021 23.5595 194.505L25.404 194.595V194.602ZM26.2329 187.426C26.1134 187.919 25.6056 188.225 25.1128 188.098C24.6348 187.978 24.3361 187.508 24.4257 187.03C24.5601 186.41 24.7095 185.79 24.8738 185.178C25.0157 184.685 25.5235 184.401 26.0164 184.543C26.5092 184.685 26.793 185.193 26.6511 185.686C26.4868 186.261 26.3524 186.843 26.2255 187.426M28.7272 180.877C28.4359 181.295 27.8609 181.399 27.4427 181.108C27.0394 180.832 26.9274 180.287 27.1813 179.868C27.5473 179.308 27.9505 178.778 28.3986 178.285C28.757 177.919 29.3395 177.912 29.7054 178.27C30.0564 178.614 30.0788 179.174 29.7577 179.54C29.3843 179.958 29.0408 180.414 28.7346 180.884M33.9471 176.874C33.4543 177.008 32.9464 176.717 32.812 176.232C32.6776 175.746 32.9614 175.238 33.4468 175.097C34.0815 174.91 34.7312 174.775 35.3809 174.678C35.8887 174.611 36.3517 174.97 36.4115 175.477C36.4787 175.985 36.1202 176.448 35.6124 176.508C35.0449 176.583 34.4923 176.71 33.9471 176.866M40.8623 176.657C40.3619 176.575 40.0184 176.097 40.108 175.597C40.1976 175.097 40.6681 174.753 41.1685 174.843C41.7883 174.94 42.423 175.059 43.0354 175.201C43.5283 175.328 43.827 175.836 43.6926 176.329C43.5731 176.799 43.1026 177.098 42.6247 177.001C42.0422 176.866 41.4522 176.754 40.8623 176.665M47.8521 178.502C47.3667 178.338 47.1128 177.815 47.2771 177.329C47.4414 176.844 47.9641 176.59 48.4495 176.754C49.0395 176.956 49.6294 177.165 50.2119 177.382C50.6824 177.576 50.9139 178.114 50.7197 178.584C50.5405 179.04 50.0327 179.271 49.5697 179.114C49.0021 178.898 48.4271 178.703 47.8521 178.502ZM54.7001 181.116C54.2296 180.921 53.9981 180.384 54.1922 179.913C54.3864 179.443 54.9241 179.211 55.3946 179.405L57.1047 180.1C57.5751 180.302 57.7842 180.847 57.5826 181.317C57.3885 181.765 56.8732 181.982 56.4102 181.81C55.8501 181.571 55.2676 181.34 54.7001 181.116ZM61.5779 183.864C61.0999 183.684 60.861 183.154 61.0402 182.676C61.2194 182.198 61.7496 181.959 62.2276 182.139L63.9451 182.773C64.4231 182.953 64.6695 183.483 64.4903 183.961C64.3185 184.431 63.7958 184.678 63.3253 184.513L61.5779 183.864ZM68.7395 186.149C68.2466 186.029 67.9329 185.536 68.0524 185.036C68.1644 184.551 68.6424 184.245 69.1278 184.342C69.7103 184.469 70.2853 184.581 70.8827 184.67C71.3905 184.745 71.734 185.215 71.6594 185.716C71.5847 186.224 71.1142 186.567 70.6139 186.492C69.9791 186.395 69.3668 186.276 68.7395 186.141M76.4537 186.283C75.9533 186.388 75.4679 186.067 75.3634 185.566C75.2663 185.081 75.5575 184.603 76.0355 184.484C76.5956 184.357 77.1556 184.192 77.6933 183.998C78.1712 183.826 78.7015 184.08 78.8732 184.558C79.045 185.029 78.7985 185.551 78.3355 185.731C77.7232 185.955 77.0884 186.134 76.4537 186.283ZM83.3613 182.729C82.973 183.065 82.3905 183.02 82.062 182.632C81.7408 182.258 81.7707 181.698 82.1292 181.355C82.5623 180.966 82.9805 180.555 83.3763 180.13C83.7198 179.749 84.3023 179.719 84.6831 180.063C85.064 180.406 85.0939 180.989 84.7504 181.369C84.3172 181.847 83.8542 182.303 83.3688 182.736M88.0212 176.65C87.7823 177.098 87.2222 177.27 86.7741 177.031C86.326 176.792 86.1543 176.232 86.3933 175.784C86.677 175.253 86.9384 174.723 87.1923 174.178C87.4089 173.715 87.954 173.513 88.417 173.73C88.88 173.946 89.0817 174.492 88.8651 174.955C88.5963 175.53 88.32 176.097 88.0138 176.65M90.8665 169.645C90.7171 170.13 90.1944 170.399 89.7089 170.25C89.231 170.101 88.9622 169.593 89.1041 169.107C89.2833 168.532 89.4476 167.95 89.6044 167.36C89.7463 166.867 90.2541 166.583 90.747 166.725C91.2249 166.86 91.5161 167.352 91.3892 167.838C91.2249 168.443 91.0606 169.048 90.8739 169.645M92.5915 162.357C92.5019 162.857 92.024 163.193 91.5236 163.103C91.0233 163.014 90.6872 162.536 90.7768 162.035L91.083 160.236C91.1577 159.735 91.6356 159.384 92.136 159.466C92.6363 159.549 92.9873 160.019 92.9052 160.519L92.5915 162.357ZM93.6146 154.971C93.5549 155.479 93.0919 155.837 92.584 155.777C92.0912 155.718 91.7327 155.285 91.7775 154.784L91.9493 152.962C92.009 152.454 92.4646 152.088 92.9724 152.148C93.4578 152.2 93.8237 152.633 93.7938 153.119L93.6221 154.971H93.6146ZM94.1597 147.563C94.1224 148.071 93.6743 148.452 93.1665 148.407C92.6811 148.369 92.3077 147.959 92.3152 147.473L92.3974 145.636C92.4272 145.128 92.8604 144.733 93.3682 144.762C93.8685 144.792 94.2568 145.203 94.2419 145.703L94.1597 147.555V147.563Z" fill="#8D9FCA"/>
<path fill-rule="evenodd" clip-rule="evenodd" d="M113.27 17.6468C112.762 17.5945 112.396 17.139 112.448 16.6312C112.501 16.1234 112.956 15.7574 113.464 15.8097L115.308 16.0114C115.816 16.0711 116.182 16.5266 116.122 17.027C116.063 17.5348 115.607 17.9007 115.107 17.841L113.277 17.6393L113.27 17.6468ZM176.372 91.0251C176.88 91.0251 177.298 91.4358 177.298 91.9511C177.298 92.4664 176.888 92.8771 176.372 92.8771H175.178C174.67 92.8696 174.259 92.4514 174.266 91.9362C174.266 91.4283 174.692 91.0176 175.2 91.0251H176.38H176.372ZM169.704 90.8533C170.211 90.8907 170.6 91.3238 170.562 91.8391C170.533 92.3394 170.099 92.7203 169.599 92.6979L167.74 92.5858C167.232 92.541 166.858 92.093 166.903 91.5852C166.948 91.0848 167.381 90.7114 167.882 90.7413L169.704 90.8533ZM162.445 90.1663C162.945 90.241 163.296 90.7114 163.222 91.2192C163.147 91.7196 162.677 92.0706 162.169 91.9959L162.445 90.1738V90.1663ZM155.388 88.613C155.873 88.7698 156.135 89.2926 155.978 89.778C155.821 90.2634 155.298 90.5247 154.813 90.3679C154.208 90.1738 153.611 89.9647 153.021 89.7332C152.543 89.5465 152.319 89.0088 152.505 88.5309C152.692 88.0529 153.23 87.8289 153.708 88.0156C154.26 88.2321 154.828 88.4338 155.395 88.613M149.13 85.4541C149.518 85.7827 149.563 86.3652 149.235 86.7535C148.913 87.1269 148.361 87.1866 147.972 86.8879C147.45 86.4697 146.964 86.0067 146.516 85.5139C146.188 85.1255 146.24 84.5431 146.628 84.2145C147.009 83.9008 147.562 83.9307 147.898 84.2966C148.279 84.7148 148.689 85.0957 149.13 85.4541ZM145.68 79.8608C145.755 80.3686 145.404 80.8316 144.896 80.9063C144.41 80.9735 143.955 80.6524 143.858 80.1744C143.738 79.5247 143.671 78.8676 143.641 78.2029C143.641 77.6951 144.059 77.2844 144.575 77.2844C145.06 77.2844 145.463 77.6727 145.486 78.1581C145.508 78.7257 145.568 79.2932 145.672 79.8533M146.173 72.9605C146.031 73.4534 145.523 73.7372 145.03 73.5953C144.545 73.4609 144.261 72.9606 144.388 72.4752C144.552 71.8703 144.731 71.243 144.933 70.653C145.112 70.1751 145.643 69.9361 146.12 70.1153C146.576 70.2871 146.822 70.78 146.681 71.243C146.486 71.803 146.322 72.3855 146.165 72.9605M148.719 66.1948C148.51 66.6578 147.958 66.8594 147.495 66.6503C147.032 66.4412 146.83 65.8886 147.039 65.4256C147.3 64.8655 147.562 64.2905 147.838 63.7379C148.077 63.2823 148.63 63.1106 149.085 63.3495C149.518 63.5736 149.705 64.1038 149.496 64.5518C149.227 65.097 148.966 65.6496 148.712 66.2022M152.013 59.6455C151.766 60.0936 151.206 60.2504 150.758 60.004C150.325 59.765 150.161 59.2199 150.385 58.7793L151.251 57.1438C151.49 56.6957 152.05 56.524 152.498 56.763C152.946 57.0019 153.118 57.562 152.879 58.0101C152.58 58.5403 152.296 59.1004 152.013 59.6381M155.448 53.0888C155.209 53.5369 154.649 53.7012 154.201 53.4622C153.775 53.2307 153.596 52.708 153.797 52.2674L154.604 50.6245C154.828 50.1689 155.388 49.9822 155.844 50.2063C156.292 50.4303 156.478 50.968 156.269 51.416L155.448 53.0814V53.0888ZM158.442 46.1961C158.285 46.6815 157.763 46.9428 157.277 46.786C156.792 46.6292 156.531 46.1065 156.687 45.6211C156.874 45.0535 157.046 44.4934 157.195 43.9109C157.322 43.4181 157.822 43.1194 158.315 43.2388C158.808 43.3658 159.107 43.8661 158.987 44.359C158.823 44.9788 158.651 45.5762 158.442 46.1886M159.368 38.5341C159.428 39.042 159.07 39.4975 158.569 39.5647C158.061 39.6244 157.606 39.266 157.539 38.7656C157.471 38.1906 157.367 37.6231 157.225 37.063C157.098 36.5701 157.397 36.0698 157.89 35.9428C158.383 35.8159 158.883 36.1146 159.01 36.6075C159.167 37.2422 159.286 37.8844 159.368 38.5341ZM156.531 31.3053C156.829 31.7161 156.74 32.2986 156.329 32.5973C155.918 32.896 155.336 32.8064 155.037 32.3956C154.693 31.9252 154.335 31.4696 153.947 31.029C153.603 30.6482 153.633 30.0657 154.014 29.7222C154.395 29.3787 154.977 29.4085 155.321 29.7894C155.754 30.2673 156.157 30.7751 156.538 31.3053M150.96 26.0406C151.378 26.3318 151.475 26.9143 151.184 27.325C150.9 27.7283 150.347 27.8403 149.929 27.5715C149.429 27.2354 148.928 26.9143 148.413 26.6156C147.972 26.3542 147.831 25.7867 148.092 25.3535C148.353 24.9129 148.921 24.771 149.354 25.0324C149.899 25.3535 150.429 25.6896 150.96 26.048M144.291 22.5008C144.761 22.7025 144.97 23.2476 144.769 23.7181C144.567 24.1736 144.037 24.3902 143.574 24.2035C143.014 23.9645 142.454 23.748 141.886 23.5314C141.408 23.3522 141.169 22.8145 141.356 22.344C141.535 21.8661 142.073 21.6271 142.543 21.8063C143.126 22.0304 143.708 22.2544 144.283 22.5008M137.211 20.0365C137.697 20.1933 137.966 20.716 137.809 21.2015C137.659 21.6645 137.182 21.9333 136.711 21.8138L134.949 21.3284C134.456 21.1865 134.18 20.6712 134.321 20.1858C134.456 19.7154 134.941 19.4316 135.419 19.5436L137.219 20.0439L137.211 20.0365ZM129.975 18.2741C130.476 18.3786 130.797 18.864 130.692 19.3644C130.588 19.8647 130.102 20.1858 129.602 20.0813L127.802 19.7228C127.302 19.6183 126.981 19.1329 127.085 18.6325C127.182 18.1397 127.66 17.826 128.153 17.9082L129.983 18.2741H129.975ZM122.657 16.9747C123.157 17.0568 123.501 17.5348 123.418 18.0351C123.336 18.528 122.881 18.864 122.388 18.7968L120.573 18.528C120.073 18.4458 119.729 17.9679 119.819 17.4676C119.901 16.9822 120.342 16.6461 120.835 16.7059L122.672 16.9747H122.657Z" fill="#8D9FCA"/>
<path fill-rule="evenodd" clip-rule="evenodd" d="M216.736 167.674C220.328 177.472 215.302 188.323 205.504 191.915C195.706 195.507 184.856 190.481 181.264 180.683C177.672 170.885 182.698 160.035 192.495 156.443C196.423 155.001 200.71 154.904 204.698 156.166C210.291 157.906 214.742 162.163 216.736 167.674ZM107.796 213.974C105.429 214.841 102.83 214.885 100.433 214.101C94.451 212.197 91.1353 205.805 93.0396 199.823C94.1075 196.455 96.6839 193.774 100.014 192.572C104.652 190.921 109.827 192.4 112.889 196.261C113.606 197.217 114.188 198.262 114.607 199.382C116.63 205.006 113.972 211.234 108.513 213.668L107.796 213.974ZM109.551 190.6L108.154 190.033C100.836 187.703 93.0172 191.743 90.6872 199.061C88.3573 206.38 92.3974 214.198 99.7158 216.528C102.636 217.462 105.78 217.395 108.662 216.357L109.603 215.953C116.234 212.959 119.446 205.371 116.981 198.524C116.466 197.157 115.757 195.872 114.875 194.707C113.994 193.587 112.949 192.609 111.769 191.81L121.88 170.46C123.045 170.923 124.24 171.303 125.457 171.602C135.74 174.111 146.576 170.96 153.909 163.328C155.941 161.2 157.643 158.773 158.95 156.136L179.374 165.762C174.752 176.621 179.815 189.166 190.666 193.781C201.516 198.397 214.07 193.341 218.685 182.49C223.3 171.64 218.244 159.086 207.394 154.471C206.781 154.21 206.161 153.978 205.527 153.777H205.512C195.923 150.678 185.468 154.733 180.48 163.492L159.981 153.844C166.089 138.662 158.741 121.404 143.559 115.288C137.772 112.958 131.387 112.517 125.33 114.026L118.004 93.9449C121.141 92.4737 124.023 90.5022 126.533 88.1051C139.81 75.5966 140.43 54.6868 127.922 41.4091C124.076 37.3317 119.259 34.2998 113.919 32.5897H113.905V32.5748C96.5121 27.0411 77.9248 36.6596 72.3912 54.0521C66.8576 71.4445 76.4761 90.0318 93.8685 95.5654C100.821 97.7758 108.304 97.6265 115.167 95.1397L115.689 94.9232L122.918 114.758L122.351 114.937C106.967 120.485 98.9989 137.452 104.555 152.836C107.184 160.132 112.575 166.098 119.558 169.459L109.543 190.6H109.551ZM157.987 133.532C163.117 147.601 155.873 163.156 141.804 168.287C136.756 170.124 131.282 170.422 126.07 169.145C125.45 169.003 124.837 168.809 124.225 168.623L123.941 168.54C121.171 167.622 118.572 166.263 116.242 164.508C104.256 155.509 101.829 138.498 110.82 126.512C111.455 125.668 112.142 124.861 112.867 124.092C115.742 121.053 119.289 118.73 123.224 117.319C137.294 112.196 152.849 119.44 157.972 133.509C157.972 133.517 157.972 133.532 157.979 133.539M113.173 35.0018C129.228 40.1321 138.085 57.308 132.955 73.3637C131.379 78.2924 128.579 82.7358 124.815 86.283C121.805 89.158 118.221 91.3685 114.308 92.7799C98.4612 98.56 80.9269 90.4052 75.1468 74.5586C69.3668 58.712 77.5216 41.1776 93.3682 35.3976C99.7307 33.0751 106.691 32.9332 113.15 35.0018H113.173Z" fill="white"/>
<path fill-rule="evenodd" clip-rule="evenodd" d="M174.334 188.255C175.857 188.554 177.358 188.793 178.897 188.987L179.165 186.732C177.702 186.568 176.231 186.314 174.782 186.03L174.334 188.248V188.255ZM116.526 154.404C117.429 155.203 118.385 156.099 119.319 156.846L120.797 155.128L118.027 152.709L116.526 154.404ZM124.546 161.229L128.101 164.075L129.497 162.29L125.98 159.474L124.546 161.229ZM133.545 168.204L137.256 170.855L138.548 168.996L134.881 166.375L133.545 168.204ZM142.954 174.649C144.216 175.441 145.635 176.225 146.845 177.031L147.995 175.075C146.718 174.38 145.396 173.499 144.156 172.73L142.947 174.649H142.954ZM152.849 180.354C154.201 181.056 155.567 181.728 156.956 182.371L157.912 180.317C156.553 179.682 155.216 179.025 153.887 178.338L152.849 180.354ZM163.296 185.044C164.738 185.589 166.179 186.067 167.643 186.545L168.307 184.379C166.896 183.946 165.469 183.453 164.088 182.923L163.289 185.044H163.296Z" fill="white"/>
<path fill-rule="evenodd" clip-rule="evenodd" d="M181.055 61.4895C180.457 60.0856 179.823 58.6966 179.165 57.3225L177.119 58.3008C177.761 59.645 178.389 61.0041 178.964 62.3857L181.047 61.497L181.055 61.4895ZM169.256 136.145C170.294 135.01 171.309 133.882 172.295 132.702L170.548 131.253C169.607 132.403 168.598 133.501 167.598 134.606L169.263 136.145H169.256ZM176.484 127.228C177.358 125.944 178.187 124.689 178.994 123.367L177.052 122.202C176.32 123.472 175.446 124.727 174.625 125.936L176.484 127.228ZM182.25 117.274C182.892 115.862 183.497 114.481 184.049 113.032L181.936 112.226C181.398 113.629 180.823 114.951 180.203 116.318L182.257 117.281L182.25 117.274ZM186.133 106.416C186.499 104.922 186.82 103.414 187.074 101.898L184.841 101.524C184.587 102.995 184.288 104.422 183.937 105.87L186.133 106.416ZM187.813 95.0123C187.873 93.474 187.918 91.9356 187.865 90.3973L185.595 90.457C185.647 91.9281 185.61 93.4292 185.55 94.9078L187.813 95.0123ZM187.32 83.5045C187.119 82.0035 186.887 80.4427 186.573 78.9641L184.355 79.4122C184.647 80.8684 184.886 82.3395 185.08 83.8107L187.32 83.5045ZM184.938 72.273C184.535 70.8168 184.034 69.3307 183.541 67.8969L181.406 68.6511C181.884 70.0401 182.369 71.4889 182.765 72.9077L184.938 72.2804V72.273Z" fill="white"/>
<path fill-rule="evenodd" clip-rule="evenodd" d="M238.377 225.175C239.901 225.481 241.402 225.713 242.94 225.907L243.209 223.652C241.745 223.488 240.274 223.241 238.825 222.95L238.377 225.168V225.175ZM180.569 191.324C181.473 192.123 182.429 193.019 183.362 193.766L184.841 192.048L182.07 189.629L180.569 191.324ZM188.59 198.149L192.144 200.995L193.541 199.21L190.023 196.395L188.59 198.149ZM197.588 205.124L201.3 207.775L202.599 205.916L198.933 203.295L197.588 205.124ZM206.998 211.569C208.26 212.353 209.679 213.145 210.888 213.951L212.038 212.002C210.769 211.308 209.44 210.426 208.2 209.657L206.99 211.577L206.998 211.569ZM216.885 217.274C218.237 217.976 219.611 218.648 220.992 219.291L221.948 217.237C220.589 216.602 219.252 215.945 217.923 215.258L216.885 217.274ZM227.34 221.964C228.781 222.509 230.222 222.987 231.686 223.465L232.351 221.3C230.932 220.866 229.513 220.374 228.132 219.851L227.332 221.972L227.34 221.964Z" fill="white"/>
<path fill-rule="evenodd" clip-rule="evenodd" d="M176.41 81.3167C176.843 81.3167 177.194 81.6677 177.194 82.1009V91.9807C177.194 92.4138 176.843 92.7648 176.41 92.7648C175.977 92.7648 175.626 92.4138 175.626 91.9807V82.1009C175.626 81.6677 175.977 81.3167 176.41 81.3167ZM147.3 132.658C147.502 133.039 147.98 133.188 148.361 132.986L157.098 128.379C157.486 128.177 157.636 127.707 157.434 127.326C157.233 126.937 156.762 126.788 156.381 126.99C156.381 126.99 156.374 126.99 156.366 126.99L147.629 131.605C147.248 131.806 147.099 132.277 147.3 132.665M141.953 116.214C141.983 116.647 142.357 116.968 142.79 116.945L152.647 116.296C153.08 116.266 153.409 115.893 153.379 115.459C153.349 115.026 152.976 114.698 152.543 114.728L142.685 115.377C142.252 115.407 141.931 115.78 141.953 116.206M145.165 99.5381C145.015 99.9414 145.224 100.397 145.628 100.546L154.895 103.974C155.298 104.123 155.754 103.914 155.903 103.511C156.053 103.108 155.843 102.652 155.44 102.503L146.173 99.0751C145.769 98.9257 145.314 99.1348 145.165 99.5381ZM157.285 86.2604C156.941 86.5218 156.867 87.0072 157.128 87.3582L163.027 95.2889C163.289 95.6325 163.774 95.7071 164.125 95.4532C164.469 95.1919 164.543 94.7065 164.282 94.3555L158.383 86.4322C158.121 86.0887 157.636 86.014 157.285 86.2753M205.527 132.665C205.325 133.046 204.854 133.195 204.466 132.994L195.729 128.386C195.348 128.184 195.199 127.714 195.4 127.326C195.602 126.945 196.072 126.795 196.461 126.997L205.198 131.605C205.579 131.806 205.728 132.277 205.527 132.665ZM210.866 116.221C210.836 116.654 210.463 116.975 210.037 116.953L200.18 116.303C199.747 116.273 199.418 115.9 199.448 115.467C199.478 115.034 199.851 114.705 200.284 114.735L210.142 115.385C210.575 115.415 210.896 115.788 210.873 116.214M207.662 99.5381C207.812 99.9414 207.603 100.389 207.199 100.546L197.932 103.974C197.529 104.123 197.081 103.914 196.931 103.511C196.782 103.108 196.991 102.66 197.394 102.503L206.662 99.0751C207.065 98.9257 207.52 99.1348 207.67 99.5381M195.55 86.2604C195.893 86.5218 195.968 87.0072 195.714 87.3582L189.814 95.2889C189.553 95.6399 189.068 95.7071 188.717 95.4532C188.366 95.1919 188.298 94.7065 188.552 94.3555L194.452 86.4322C194.713 86.0887 195.199 86.014 195.55 86.2753" fill="white"/>
<path fill-rule="evenodd" clip-rule="evenodd" d="M160.003 275.583C225.144 275.583 277.956 280.997 277.956 287.674C277.956 294.35 225.144 299.764 160.003 299.764C94.8617 299.764 42.0497 294.35 42.0497 287.674C42.0497 280.997 94.8617 275.583 160.003 275.583Z" fill="#D0D9EE"/>
<path fill-rule="evenodd" clip-rule="evenodd" d="M45.7985 62.946C43.476 77.8293 47.6729 92.9963 57.3213 104.564C57.4781 104.713 57.7245 104.713 57.8813 104.564C58.0158 104.429 58.0307 104.22 57.9187 104.064C48.4197 92.6678 44.29 77.7322 46.5751 63.073C46.6125 62.8564 46.4781 62.6548 46.2615 62.61C46.0449 62.5726 45.8433 62.7071 45.7985 62.9236C45.7985 62.9236 45.7985 62.9386 45.7985 62.946Z" fill="#E9EFF8"/>
<path fill-rule="evenodd" clip-rule="evenodd" d="M62.2799 106.961L31.998 95.0203C31.4081 94.7888 31.1169 94.1167 31.3484 93.5267L39.8765 71.8926C40.108 71.3026 40.7801 71.0114 41.3701 71.2429L53.677 76.0969C53.9608 76.209 54.1923 76.4255 54.3117 76.7093L55.5215 79.5023C55.641 79.7786 55.8725 80.0026 56.1563 80.1146L70.6139 85.8125C71.2038 86.044 71.4951 86.7161 71.2636 87.3061L63.7734 106.312C63.5419 106.901 62.8698 107.193 62.2799 106.961Z" fill="#BCC9E7"/>
<path fill-rule="evenodd" clip-rule="evenodd" d="M73.9072 69.4201L63.1685 96.655L37.457 86.5213L49.7937 55.2239L71.4428 63.7595L73.9072 69.4276V69.4201Z" fill="#DEE7F5"/>
<path fill-rule="evenodd" clip-rule="evenodd" d="M69.8522 67.8147L71.4503 63.7522L73.9146 69.4203L69.8522 67.8147Z" fill="#D0D9EE"/>
<path fill-rule="evenodd" clip-rule="evenodd" d="M74.9377 71.4738L64.1991 98.7088L38.4875 88.575L50.8243 57.2776L72.4733 65.8058L74.9377 71.4738Z" fill="white"/>
<path fill-rule="evenodd" clip-rule="evenodd" d="M63.4224 107.409L33.1406 95.4676C32.5507 95.2361 32.2594 94.564 32.4909 93.9741L39.8093 75.4092C40.0408 74.8193 40.7129 74.528 41.3029 74.7595L53.6098 79.6136C53.8935 79.7256 54.125 79.9421 54.2445 80.2259L55.4543 83.0114C55.5738 83.2877 55.8053 83.5117 56.0891 83.6238L70.5467 89.3217C71.1366 89.5532 71.4278 90.2253 71.1963 90.8152L64.916 106.751C64.6845 107.341 64.0124 107.633 63.4224 107.401" fill="#D0D9EE"/>
<path fill-rule="evenodd" clip-rule="evenodd" d="M70.8752 69.8684L72.4733 65.8059L74.9377 71.474L70.8752 69.8759V69.8684Z" fill="#DEE7F5"/>
<path d="M51.2179 59.4921L50.8017 60.5481L70.269 68.2204L70.6852 67.1644L51.2179 59.4921Z" fill="#DEE7F5"/>
<path fill-rule="evenodd" clip-rule="evenodd" d="M72.8467 73.386L49.4651 64.1708L49.7265 63.5061L73.1081 72.7213L72.8467 73.386Z" fill="#DEE7F5"/>
<path d="M48.9828 65.4038L48.7196 66.0706L72.0936 75.2967L72.3568 74.6299L48.9828 65.4038Z" fill="#DEE7F5"/>
<path d="M48.2386 67.2846L47.9754 67.9515L67.1887 75.5353L67.4519 74.8684L48.2386 67.2846Z" fill="#DEE7F5"/>
<path d="M47.489 69.1811L47.2258 69.8479L66.439 77.4318L66.7022 76.7649L47.489 69.1811Z" fill="#DEE7F5"/>
<path d="M46.7448 71.055L46.4819 71.722L59.481 76.8451L59.7439 76.1781L46.7448 71.055Z" fill="#DEE7F5"/>
<path d="M45.9986 72.9359L45.7358 73.6028L58.7348 78.7259L58.9977 78.059L45.9986 72.9359Z" fill="#DEE7F5"/>
<path fill-rule="evenodd" clip-rule="evenodd" d="M257.659 204.341C259.011 213.004 256.569 221.831 250.953 228.566C250.871 228.664 250.729 228.671 250.632 228.589C250.535 228.507 250.527 228.365 250.609 228.268C256.136 221.636 258.54 212.944 257.211 204.416C257.196 204.289 257.286 204.177 257.413 204.162C257.532 204.147 257.637 204.229 257.659 204.341Z" fill="#E9EFF8"/>
<path fill-rule="evenodd" clip-rule="evenodd" d="M248.07 229.955L265.694 223.01C266.038 222.876 266.21 222.488 266.075 222.144L261.109 209.553C260.975 209.21 260.586 209.038 260.235 209.173L253.074 211.995C252.91 212.063 252.775 212.19 252.708 212.354L251.999 213.974C251.931 214.139 251.797 214.266 251.633 214.333L243.216 217.649C242.873 217.79 242.709 218.171 242.843 218.515L247.204 229.575C247.339 229.918 247.727 230.09 248.07 229.955Z" fill="#BCC9E7"/>
<path fill-rule="evenodd" clip-rule="evenodd" d="M241.305 208.111L247.555 223.958L262.521 218.058L255.344 199.845L242.746 204.811L241.312 208.111H241.305Z" fill="#DEE7F5"/>
<path fill-rule="evenodd" clip-rule="evenodd" d="M243.672 207.179L242.738 204.811L241.305 208.112L243.672 207.179Z" fill="#D0D9EE"/>
<path fill-rule="evenodd" clip-rule="evenodd" d="M240.707 209.299L246.958 225.153L261.923 219.254L254.747 201.04L242.149 206.006L240.715 209.299H240.707Z" fill="white"/>
<path fill-rule="evenodd" clip-rule="evenodd" d="M247.406 230.216L265.03 223.271C265.373 223.137 265.545 222.749 265.411 222.405L261.154 211.599C261.02 211.256 260.631 211.091 260.288 211.218L253.126 214.041C252.962 214.108 252.827 214.235 252.76 214.4L252.051 216.02C251.976 216.184 251.849 216.311 251.685 216.379L243.269 219.694C242.925 219.829 242.753 220.217 242.888 220.561L246.547 229.836C246.681 230.179 247.07 230.343 247.413 230.216" fill="#D0D9EE"/>
<path fill-rule="evenodd" clip-rule="evenodd" d="M243.075 208.373L242.141 206.006L240.707 209.299L243.075 208.366V208.373Z" fill="#DEE7F5"/>
<path d="M254.508 202.308L243.186 206.777L243.43 207.395L254.752 202.926L254.508 202.308Z" fill="#DEE7F5"/>
<path fill-rule="evenodd" clip-rule="evenodd" d="M241.924 210.419L255.531 205.057L255.374 204.669L241.76 210.031L241.917 210.419H241.924Z" fill="#DEE7F5"/>
<path fill-rule="evenodd" clip-rule="evenodd" d="M242.358 211.517L255.964 206.155L255.807 205.766L242.201 211.128L242.358 211.517Z" fill="#DEE7F5"/>
<path d="M256.255 206.837L245.071 211.251L245.225 211.64L256.408 207.226L256.255 206.837Z" fill="#DEE7F5"/>
<path d="M256.682 207.936L245.497 212.347L245.65 212.736L256.835 208.325L256.682 207.936Z" fill="#DEE7F5"/>
<path d="M257.121 209.047L249.555 212.029L249.709 212.418L257.275 209.436L257.121 209.047Z" fill="#DEE7F5"/>
<path fill-rule="evenodd" clip-rule="evenodd" d="M250.139 213.533L257.704 210.553L257.547 210.165L249.982 213.145L250.132 213.533H250.139Z" fill="#DEE7F5"/>
<path fill-rule="evenodd" clip-rule="evenodd" d="M67.3878 204.654C68.8814 214.22 66.1855 223.958 59.9872 231.396C59.8902 231.501 59.7333 231.501 59.6288 231.411C59.5317 231.322 59.5242 231.18 59.5989 231.075C65.7001 223.749 68.3586 214.161 66.8875 204.744C66.8725 204.602 66.9696 204.482 67.1115 204.467C67.2384 204.453 67.3579 204.535 67.3878 204.662" fill="#E9EFF8"/>
<path fill-rule="evenodd" clip-rule="evenodd" d="M56.7985 232.942L76.252 225.273C76.6329 225.123 76.8196 224.698 76.6702 224.317L71.1889 210.412C71.0395 210.031 70.6064 209.844 70.233 209.994L62.3247 213.108C62.1454 213.182 61.9961 213.324 61.9139 213.504L61.1373 215.296C61.0626 215.475 60.9132 215.617 60.734 215.692L51.4441 219.351C51.0633 219.5 50.8766 219.933 51.0259 220.314L55.8426 232.524C55.992 232.905 56.4251 233.092 56.806 232.942" fill="#BCC9E7"/>
<path fill-rule="evenodd" clip-rule="evenodd" d="M49.3307 208.814L56.231 226.311L72.7497 219.799L64.8264 199.688L50.9214 205.17L49.3382 208.806L49.3307 208.814Z" fill="#DEE7F5"/>
<path fill-rule="evenodd" clip-rule="evenodd" d="M51.937 207.79L50.9064 205.177L49.3233 208.813L51.937 207.783V207.79Z" fill="#D0D9EE"/>
<path fill-rule="evenodd" clip-rule="evenodd" d="M48.6661 210.135L55.5663 227.632L72.085 221.12L64.1617 201.01L50.2567 206.491L48.6736 210.135H48.6661Z" fill="white"/>
<path fill-rule="evenodd" clip-rule="evenodd" d="M56.0667 233.226L75.5277 225.557C75.9085 225.407 76.0952 224.982 75.9459 224.601L71.2412 212.675C71.0918 212.294 70.6661 212.107 70.2853 212.256L62.3769 215.378C62.1902 215.445 62.0483 215.587 61.9662 215.774L61.1895 217.566C61.1074 217.745 60.9655 217.887 60.7788 217.962L51.4889 221.621C51.1081 221.77 50.9214 222.196 51.0707 222.577L55.1033 232.815C55.2527 233.196 55.6783 233.383 56.0592 233.233" fill="#D0D9EE"/>
<path fill-rule="evenodd" clip-rule="evenodd" d="M51.2798 209.105L50.2493 206.491L48.6661 210.135L51.2798 209.105Z" fill="#DEE7F5"/>
<path d="M63.9131 202.427L51.4082 207.358L51.6767 208.039L64.1816 203.108L63.9131 202.427Z" fill="#DEE7F5"/>
<path d="M64.862 205.023L49.8342 210.945L50.004 211.376L65.0318 205.453L64.862 205.023Z" fill="#DEE7F5"/>
<path fill-rule="evenodd" clip-rule="evenodd" d="M50.4957 212.578L65.5208 206.656L65.3491 206.23L50.3239 212.152L50.4957 212.578Z" fill="#DEE7F5"/>
<path d="M65.8193 207.447L53.4733 212.312L53.6403 212.736L65.9863 207.871L65.8193 207.447Z" fill="#DEE7F5"/>
<path fill-rule="evenodd" clip-rule="evenodd" d="M54.125 213.952L66.4767 209.083L66.305 208.657L53.9607 213.526L54.1325 213.952H54.125Z" fill="#DEE7F5"/>
<path d="M66.7762 209.874L58.4251 213.165L58.5949 213.596L66.946 210.304L66.7762 209.874Z" fill="#DEE7F5"/>
<path d="M67.2463 211.093L58.8952 214.385L59.0649 214.815L67.416 211.524L67.2463 211.093Z" fill="#DEE7F5"/>
<path fill-rule="evenodd" clip-rule="evenodd" d="M115.824 126.265C114.33 135.831 117.026 145.577 123.224 153.007C123.314 153.112 123.471 153.127 123.583 153.037C123.687 152.947 123.702 152.791 123.613 152.686C117.511 145.36 114.853 135.772 116.324 126.355C116.346 126.22 116.257 126.086 116.115 126.064C115.981 126.041 115.846 126.131 115.824 126.273" fill="#E9EFF8"/>
<path fill-rule="evenodd" clip-rule="evenodd" d="M126.406 154.545L106.952 146.876C106.571 146.727 106.384 146.301 106.534 145.92L112.015 132.015C112.165 131.634 112.598 131.448 112.979 131.597L120.887 134.711C121.074 134.786 121.215 134.928 121.298 135.107L122.074 136.899C122.156 137.078 122.298 137.22 122.485 137.295L131.775 140.954C132.156 141.103 132.342 141.529 132.193 141.91L127.384 154.127C127.234 154.508 126.801 154.695 126.421 154.545" fill="#BCC9E7"/>
<path fill-rule="evenodd" clip-rule="evenodd" d="M133.873 130.425L126.973 147.922L110.454 141.41L118.385 121.299L132.29 126.781L133.873 130.417V130.425Z" fill="#DEE7F5"/>
<path fill-rule="evenodd" clip-rule="evenodd" d="M131.267 129.394L132.298 126.78L133.881 130.417L131.267 129.394Z" fill="#D0D9EE"/>
<path fill-rule="evenodd" clip-rule="evenodd" d="M134.538 131.746L127.638 149.243L111.119 142.731L119.05 122.621L132.955 128.102L134.531 131.746H134.538Z" fill="white"/>
<path fill-rule="evenodd" clip-rule="evenodd" d="M127.137 154.837L107.684 147.168C107.303 147.018 107.116 146.593 107.266 146.212L111.97 134.286C112.12 133.905 112.545 133.718 112.926 133.867L120.835 136.989C121.014 137.064 121.163 137.206 121.245 137.385L122.022 139.177C122.097 139.356 122.246 139.498 122.425 139.573L131.715 143.232C132.096 143.381 132.283 143.807 132.133 144.188L128.101 154.426C127.951 154.807 127.518 154.994 127.137 154.844" fill="#D0D9EE"/>
<path fill-rule="evenodd" clip-rule="evenodd" d="M131.932 130.716L132.962 128.102L134.545 131.746L131.939 130.716H131.932Z" fill="#DEE7F5"/>
<path d="M119.297 124.034L119.029 124.715L131.535 129.644L131.803 128.963L119.297 124.034Z" fill="#DEE7F5"/>
<path d="M118.346 126.647L118.179 127.071L133.197 132.999L133.364 132.575L118.346 126.647Z" fill="#DEE7F5"/>
<path d="M117.857 127.834L117.69 128.257L132.711 134.177L132.878 133.753L117.857 127.834Z" fill="#DEE7F5"/>
<path fill-rule="evenodd" clip-rule="evenodd" d="M129.564 134.345L117.213 129.476L117.384 129.05L129.736 133.919L129.564 134.345Z" fill="#DEE7F5"/>
<path d="M116.894 130.261L116.727 130.685L129.073 135.551L129.24 135.127L116.894 130.261Z" fill="#DEE7F5"/>
<path d="M116.422 131.5L116.255 131.923L124.604 135.219L124.771 134.795L116.422 131.5Z" fill="#DEE7F5"/>
<path d="M115.954 132.687L115.784 133.118L124.135 136.409L124.305 135.978L115.954 132.687Z" fill="#DEE7F5"/>
<path fill-rule="evenodd" clip-rule="evenodd" d="M171.518 31.8722C173.012 41.4384 170.316 51.1764 164.118 58.6142C164.021 58.7188 163.864 58.7188 163.759 58.6292C163.662 58.5396 163.655 58.3977 163.729 58.2931C169.831 50.9673 172.489 41.3786 171.018 31.9618C171.003 31.8199 171.1 31.7004 171.242 31.6855C171.369 31.6705 171.488 31.7527 171.518 31.8796" fill="#E9EFF8"/>
<path fill-rule="evenodd" clip-rule="evenodd" d="M160.929 60.1524L180.383 52.483C180.763 52.3337 180.95 51.908 180.801 51.5271L175.319 37.6222C175.17 37.2413 174.737 37.0546 174.364 37.204L166.455 40.3255C166.276 40.4002 166.127 40.5421 166.044 40.7213L165.268 42.5135C165.193 42.6928 165.044 42.8347 164.865 42.9093L155.575 46.5685C155.194 46.7179 155.007 47.151 155.156 47.5319L159.973 59.7417C160.123 60.1225 160.548 60.3092 160.929 60.1599" fill="#BCC9E7"/>
<path fill-rule="evenodd" clip-rule="evenodd" d="M153.461 36.032L160.362 53.529L176.88 47.0171L168.957 26.9064L155.052 32.3877L153.469 36.0245L153.461 36.032Z" fill="#DEE7F5"/>
<path fill-rule="evenodd" clip-rule="evenodd" d="M156.075 35.0094L155.044 32.3956L153.461 36.0324L156.075 35.0094Z" fill="#D0D9EE"/>
<path fill-rule="evenodd" clip-rule="evenodd" d="M152.797 37.3542L159.697 54.8512L176.216 48.3393L168.292 28.2286L154.387 33.71L152.804 37.3542H152.797Z" fill="white"/>
<path fill-rule="evenodd" clip-rule="evenodd" d="M160.205 60.444L179.658 52.7746C180.039 52.6252 180.226 52.1996 180.076 51.8187L175.372 39.8927C175.222 39.5118 174.797 39.3251 174.416 39.4745L166.507 42.596C166.328 42.6707 166.179 42.8051 166.097 42.9918L165.32 44.7841C165.238 44.9633 165.096 45.1052 164.909 45.1799L155.619 48.8391C155.239 48.9884 155.052 49.4141 155.201 49.7949L159.234 60.0332C159.383 60.4141 159.809 60.6008 160.19 60.4514" fill="#D0D9EE"/>
<path fill-rule="evenodd" clip-rule="evenodd" d="M155.41 36.3228L154.38 33.7091L152.797 37.3534L155.41 36.3228Z" fill="#DEE7F5"/>
<path fill-rule="evenodd" clip-rule="evenodd" d="M155.799 35.2627L168.307 30.334L168.038 29.6544L155.53 34.5832L155.799 35.2627Z" fill="#DEE7F5"/>
<path d="M168.996 32.2414L153.975 38.1613L154.142 38.5851L169.163 32.6652L168.996 32.2414Z" fill="#DEE7F5"/>
<path fill-rule="evenodd" clip-rule="evenodd" d="M154.626 39.796L169.651 33.874L169.48 33.4484L154.455 39.3703L154.626 39.796Z" fill="#DEE7F5"/>
<path d="M169.96 34.6696L157.614 39.5353L157.781 39.9591L170.127 35.0934L169.96 34.6696Z" fill="#DEE7F5"/>
<path fill-rule="evenodd" clip-rule="evenodd" d="M158.256 41.1698L170.607 36.3008L170.436 35.8752L158.084 40.7441L158.256 41.1698Z" fill="#DEE7F5"/>
<path d="M170.924 37.1015L162.573 40.3927L162.743 40.8235L171.094 37.5322L170.924 37.1015Z" fill="#DEE7F5"/>
<path d="M171.401 38.3134L163.05 41.6047L163.22 42.0354L171.571 38.7442L171.401 38.3134Z" fill="#DEE7F5"/>
<path fill-rule="evenodd" clip-rule="evenodd" d="M277.665 130.439C279.017 139.102 276.575 147.929 270.959 154.664C270.877 154.762 270.735 154.769 270.638 154.687C270.541 154.605 270.534 154.463 270.616 154.366C276.142 147.734 278.546 139.042 277.217 130.514C277.18 130.394 277.254 130.267 277.374 130.23C277.493 130.193 277.62 130.267 277.658 130.387C277.658 130.402 277.658 130.417 277.665 130.439Z" fill="#E9EFF8"/>
<path fill-rule="evenodd" clip-rule="evenodd" d="M268.069 156.054L285.693 149.109C286.037 148.975 286.208 148.587 286.074 148.243L281.108 135.645C280.973 135.301 280.585 135.137 280.242 135.264L273.08 138.087C272.916 138.154 272.781 138.281 272.714 138.445L272.005 140.066C271.937 140.23 271.803 140.357 271.639 140.424L263.223 143.74C262.879 143.874 262.707 144.263 262.842 144.614L267.203 155.673C267.337 156.017 267.726 156.181 268.069 156.047" fill="#BCC9E7"/>
<path fill-rule="evenodd" clip-rule="evenodd" d="M261.303 134.211L267.554 150.057L282.519 144.158L275.343 125.944L262.745 130.91L261.311 134.211H261.303Z" fill="#DEE7F5"/>
<path fill-rule="evenodd" clip-rule="evenodd" d="M263.671 133.277L262.737 130.91L261.303 134.21L263.671 133.277Z" fill="#D0D9EE"/>
<path fill-rule="evenodd" clip-rule="evenodd" d="M260.706 135.398L266.956 151.245L281.922 145.345L274.745 127.131L262.147 132.097L260.713 135.398H260.706Z" fill="white"/>
<path fill-rule="evenodd" clip-rule="evenodd" d="M267.412 156.315L285.036 149.37C285.379 149.235 285.551 148.847 285.417 148.504L281.16 137.698C281.026 137.354 280.637 137.182 280.294 137.317L273.132 140.14C272.968 140.207 272.834 140.334 272.766 140.498L272.057 142.119C271.982 142.283 271.855 142.41 271.691 142.477L263.275 145.793C262.931 145.927 262.76 146.316 262.894 146.659L266.546 155.934C266.68 156.278 267.068 156.449 267.412 156.315Z" fill="#D0D9EE"/>
<path fill-rule="evenodd" clip-rule="evenodd" d="M263.066 134.465L262.132 132.097L260.698 135.391L263.066 134.457V134.465Z" fill="#DEE7F5"/>
<path d="M274.504 128.42L263.173 132.888L263.417 133.507L274.748 129.039L274.504 128.42Z" fill="#DEE7F5"/>
<path d="M275.382 130.741L261.773 136.107L261.926 136.496L275.536 131.13L275.382 130.741Z" fill="#DEE7F5"/>
<path fill-rule="evenodd" clip-rule="evenodd" d="M262.356 137.616L275.963 132.254L275.813 131.866L262.207 137.228L262.356 137.616Z" fill="#DEE7F5"/>
<path fill-rule="evenodd" clip-rule="evenodd" d="M265.209 137.758L276.396 133.352L276.239 132.963L265.052 137.369L265.202 137.758H265.209Z" fill="#DEE7F5"/>
<path d="M276.681 134.055L265.495 138.463L265.648 138.853L276.834 134.444L276.681 134.055Z" fill="#DEE7F5"/>
<path fill-rule="evenodd" clip-rule="evenodd" d="M269.705 138.527L277.269 135.547L277.113 135.159L269.548 138.138L269.697 138.527H269.705Z" fill="#DEE7F5"/>
<path d="M277.544 136.232L269.986 139.215L270.14 139.604L277.697 136.621L277.544 136.232Z" fill="#DEE7F5"/>
<path fill-rule="evenodd" clip-rule="evenodd" d="M52.385 152.35C53.4231 158.989 51.5487 165.747 47.2472 170.907C47.1875 170.982 47.0755 170.989 47.0008 170.93C46.9261 170.87 46.9186 170.758 46.9784 170.683C51.2126 165.605 53.0497 158.944 52.0341 152.41C52.0191 152.313 52.0863 152.223 52.1759 152.208C52.273 152.193 52.3626 152.253 52.3776 152.35" fill="#E9EFF8"/>
<path fill-rule="evenodd" clip-rule="evenodd" d="M45.0368 171.968L58.5385 166.644C58.7999 166.539 58.9343 166.24 58.8297 165.979L55.0286 156.338C54.9241 156.077 54.6254 155.942 54.364 156.047L48.8752 158.213C48.7482 158.265 48.6437 158.362 48.5914 158.481L48.0537 159.729C48.0015 159.856 47.8969 159.953 47.77 159.997L41.3253 162.536C41.0639 162.641 40.9295 162.94 41.034 163.201L44.3721 171.677C44.4767 171.938 44.7754 172.073 45.0368 171.968Z" fill="#BCC9E7"/>
<path fill-rule="evenodd" clip-rule="evenodd" d="M39.8541 155.24L44.641 167.382L56.104 162.864L50.6077 148.915L40.9519 152.716L39.8616 155.24H39.8541Z" fill="#DEE7F5"/>
<path fill-rule="evenodd" clip-rule="evenodd" d="M41.6613 154.523L40.9444 152.709L39.8467 155.233L41.6539 154.516L41.6613 154.523Z" fill="#D0D9EE"/>
<path fill-rule="evenodd" clip-rule="evenodd" d="M39.3911 156.151L44.178 168.294L55.641 163.776L50.1447 149.826L40.4964 153.627L39.3986 156.151H39.3911Z" fill="white"/>
<path fill-rule="evenodd" clip-rule="evenodd" d="M44.529 172.169L58.0307 166.852C58.2921 166.748 58.4265 166.449 58.3219 166.188L55.0585 157.913C54.954 157.652 54.6553 157.518 54.3939 157.622L48.9051 159.788C48.7781 159.84 48.6736 159.937 48.6213 160.057L48.0836 161.304C48.0313 161.431 47.9268 161.528 47.7998 161.573L41.3552 164.112C41.0938 164.216 40.9594 164.515 41.0639 164.776L43.8643 171.878C43.9689 172.14 44.2676 172.274 44.529 172.169Z" fill="#D0D9EE"/>
<path fill-rule="evenodd" clip-rule="evenodd" d="M41.2058 155.434L40.4889 153.62L39.3911 156.144L41.2058 155.427V155.434Z" fill="#DEE7F5"/>
<path d="M49.9728 150.807L41.2958 154.228L41.4821 154.701L50.1591 151.279L49.9728 150.807Z" fill="#DEE7F5"/>
<path fill-rule="evenodd" clip-rule="evenodd" d="M40.3321 157.002L50.7571 152.895L50.6451 152.596L40.22 156.704L40.3395 157.002H40.3321Z" fill="#DEE7F5"/>
<path fill-rule="evenodd" clip-rule="evenodd" d="M40.6606 157.846L51.0857 153.739L50.9736 153.44L40.5486 157.547L40.6681 157.846H40.6606Z" fill="#DEE7F5"/>
<path fill-rule="evenodd" clip-rule="evenodd" d="M42.8487 157.958L51.4142 154.583L51.2947 154.284L42.7292 157.659L42.8412 157.958H42.8487Z" fill="#DEE7F5"/>
<path fill-rule="evenodd" clip-rule="evenodd" d="M43.1848 158.802L51.7503 155.426L51.6308 155.128L43.0653 158.503L43.1848 158.802Z" fill="#DEE7F5"/>
<path d="M51.9685 155.966L46.1746 158.251L46.2924 158.549L52.0863 156.265L51.9685 155.966Z" fill="#DEE7F5"/>
<path fill-rule="evenodd" clip-rule="evenodd" d="M46.6199 159.392L52.4149 157.107L52.2954 156.808L46.5004 159.093L46.6125 159.392H46.6199Z" fill="#DEE7F5"/>
<path fill-rule="evenodd" clip-rule="evenodd" d="M50.4509 105.549C50.0701 104.101 49.7191 102.659 49.383 101.196L47.1726 101.689C47.5011 103.182 47.8745 104.653 48.2629 106.132L50.4509 105.549ZM147.047 188.725C146.158 188.434 145.217 188.15 144.343 187.837L143.619 189.988L146.345 190.884L147.039 188.733L147.047 188.725ZM137.951 185.604L133.724 184.028L132.91 186.142L137.174 187.725L137.951 185.596V185.604ZM127.436 181.534L123.292 179.764L122.38 181.84L126.57 183.625L127.436 181.534ZM117.138 176.956L113.091 174.977L112.067 176.994L116.16 178.995L117.138 176.956ZM107.124 171.818L103.203 169.593L102.053 171.55L106.011 173.797L107.116 171.818H107.124ZM97.4605 166.061C96.1985 165.254 94.9513 164.418 93.7192 163.567L92.4347 165.433C93.6818 166.292 94.9513 167.144 96.2358 167.965L97.4605 166.061ZM88.2528 159.616C87.0579 158.698 85.8855 157.779 84.7205 156.831L83.2867 158.593L86.8712 161.423L88.2453 159.624L88.2528 159.616ZM79.6275 152.432C78.5297 151.416 77.4394 150.401 76.379 149.348L74.7809 150.953C75.8637 152.021 76.9615 153.059 78.0817 154.09L79.6275 152.432ZM71.7341 144.479C70.7334 143.374 69.7626 142.239 68.8142 141.081L67.0592 142.507C68.0226 143.687 69.0233 144.86 70.0463 145.987L71.7341 144.479ZM64.7293 135.742C63.863 134.524 63.0266 133.292 62.2126 132.038L60.3009 133.262C61.1224 134.547 61.9886 135.809 62.8773 137.056L64.7293 135.749V135.742ZM58.7775 126.273C58.0606 124.966 57.3735 123.636 56.7164 122.3L54.6777 123.285C55.3498 124.652 56.0517 126.011 56.7836 127.355L58.7775 126.273ZM53.9906 116.161C53.438 114.772 52.9227 113.383 52.4224 111.979L50.2792 112.711C50.7944 114.152 51.3172 115.579 51.8847 116.998L53.9906 116.154V116.161Z" fill="white"/>
<path fill-rule="evenodd" clip-rule="evenodd" d="M220.298 168.757C218.819 169.1 217.468 169.354 215.967 169.571L216.25 171.819C217.789 171.61 219.312 171.326 220.821 170.96L220.298 168.757ZM259.616 147.66C258.406 148.549 257.166 149.415 255.941 150.274L257.241 152.126C258.481 151.26 259.735 150.386 260.952 149.483L259.616 147.653V147.66ZM250.341 154.075C249.094 154.897 247.824 155.733 246.547 156.502L247.742 158.429L251.58 155.965L250.341 154.075ZM240.752 159.967C239.46 160.714 238.146 161.416 236.831 162.118L237.869 164.134C239.214 163.417 240.558 162.701 241.88 161.939L240.76 159.975L240.752 159.967ZM230.768 165.06C229.394 165.658 228.042 166.225 226.638 166.763L227.437 168.884C228.878 168.331 230.275 167.749 231.686 167.136L230.768 165.068V165.06Z" fill="white"/>
<path fill-rule="evenodd" clip-rule="evenodd" d="M55.4991 171.438C54.3043 170.534 53.1617 169.623 52.0191 168.652L50.548 170.377C51.7204 171.378 52.9078 172.319 54.14 173.252L55.4991 171.438ZM66.3423 230.216L68.9037 230.605L69.2099 228.364L66.7157 227.984L66.3423 230.216ZM75.7592 231.277C77.2975 231.351 78.806 231.396 80.3518 231.396V229.134C78.8508 229.134 77.3722 229.089 75.8786 229.014L75.7666 231.277H75.7592ZM87.2371 231.06C88.7605 230.933 90.2989 230.709 91.8074 230.47L91.4415 228.23C89.9927 228.469 88.4842 228.671 87.0205 228.797L87.2296 231.06H87.2371ZM98.5657 229.029C100.029 228.641 101.545 228.193 102.972 227.692L102.24 225.549C100.843 226.034 99.4096 226.468 97.9758 226.841L98.5657 229.029ZM109.394 225.138C110.768 224.526 112.194 223.816 113.516 223.092L112.441 221.098C111.141 221.793 109.797 222.472 108.446 223.077L109.387 225.131L109.394 225.138ZM119.438 219.552C120.708 218.731 121.962 217.82 123.179 216.916L121.835 215.094C120.655 215.975 119.423 216.864 118.184 217.663L119.438 219.552ZM128.541 212.57C129.699 211.554 130.782 210.494 131.909 209.456L130.326 207.835C129.221 208.829 128.168 209.874 127.04 210.867L128.541 212.563V212.57ZM136.674 204.512C137.689 203.392 138.727 202.227 139.676 201.055L137.928 199.613C136.972 200.756 135.994 201.884 134.993 202.996L136.674 204.512ZM143.917 195.67L146.583 191.966L144.724 190.675L142.103 194.326L143.925 195.67H143.917ZM141.662 189.069C140.191 189.166 138.623 189.226 137.159 189.36L137.279 191.623C138.757 191.489 140.333 191.429 141.819 191.332L141.655 189.069H141.662ZM130.408 189.644L125.898 189.726L125.913 191.989L130.468 191.907L130.408 189.644ZM119.139 189.666C117.713 189.666 116.07 189.607 114.644 189.502L114.524 191.765C115.988 191.862 117.623 191.929 119.087 191.929L119.139 189.659V189.666ZM107.908 189.054C106.414 188.92 104.921 188.778 103.427 188.598L103.166 190.854C104.674 191.033 106.19 191.175 107.706 191.309L107.915 189.054H107.908ZM96.751 187.68C95.3098 187.471 93.7565 187.18 92.3301 186.881L91.8895 189.099C93.3458 189.405 94.914 189.704 96.3851 189.913L96.7585 187.68H96.751ZM85.766 185.387C84.3247 185.029 82.8685 184.618 81.4421 184.178L80.7924 186.351C82.2486 186.784 83.7273 187.209 85.1984 187.583L85.766 185.387ZM75.0796 182.019C73.7205 181.512 72.2493 180.944 70.935 180.332L70.0239 182.408C71.4278 183.013 72.8393 183.603 74.2731 184.133L75.0796 182.019ZM64.901 177.412C63.5792 176.717 62.3097 175.956 61.0327 175.194L59.8453 177.121C61.1149 177.92 62.5039 178.711 63.8331 179.406L64.9085 177.412H64.901Z" fill="white"/>
<path fill-rule="evenodd" clip-rule="evenodd" d="M183.646 10.7608L222.135 26.5402L211.568 40.0419L183.646 10.7683V10.7608Z" fill="#D0D9EE"/>
<path fill-rule="evenodd" clip-rule="evenodd" d="M227.564 20.1775L184.818 10.8428L238.026 14.7335L227.564 20.1775Z" fill="#D0D9EE"/>
<path fill-rule="evenodd" clip-rule="evenodd" d="M227.564 20.1776L226.563 37.8987L222.135 26.5402L183.646 10.7608L184.818 10.8429L227.564 20.1776Z" fill="#AAB9DE"/>
<path fill-rule="evenodd" clip-rule="evenodd" d="M226.563 37.8986L217.453 32.5218L222.135 26.5402L226.563 37.8986Z" fill="#8D9FCA"/>
<path fill-rule="evenodd" clip-rule="evenodd" d="M236.466 36.5844C235.958 36.5321 235.592 36.0766 235.644 35.5688C235.696 35.061 236.152 34.695 236.66 34.7473L238.504 34.9489C239.012 35.0087 239.378 35.4642 239.318 35.972C239.258 36.4798 238.803 36.8457 238.295 36.786L236.466 36.5918V36.5844ZM299.568 109.963C300.076 109.963 300.494 110.373 300.494 110.889C300.494 111.404 300.083 111.815 299.568 111.815H298.373C297.866 111.807 297.455 111.389 297.462 110.874C297.462 110.366 297.88 109.955 298.396 109.963H299.576H299.568ZM292.899 109.798C293.407 109.828 293.796 110.261 293.773 110.769C293.743 111.277 293.31 111.665 292.802 111.643L290.943 111.523C290.435 111.486 290.054 111.045 290.092 110.538C290.129 110.03 290.57 109.649 291.077 109.686L292.907 109.798H292.899ZM285.641 109.104C286.141 109.193 286.477 109.679 286.388 110.179C286.298 110.665 285.85 110.993 285.364 110.933L285.641 109.104ZM278.584 107.551C279.069 107.707 279.331 108.23 279.174 108.716C279.017 109.201 278.494 109.462 278.009 109.305C277.404 109.111 276.806 108.902 276.216 108.671C275.746 108.477 275.522 107.931 275.716 107.461C275.91 106.998 276.433 106.774 276.904 106.953C277.456 107.17 278.024 107.364 278.591 107.551M272.326 104.399C272.714 104.728 272.759 105.31 272.43 105.699C272.109 106.072 271.557 106.132 271.168 105.833C270.646 105.415 270.16 104.952 269.712 104.459C269.383 104.071 269.436 103.488 269.824 103.16C270.205 102.846 270.758 102.876 271.094 103.242C271.474 103.66 271.885 104.041 272.326 104.399ZM268.868 98.8058C268.943 99.3136 268.592 99.7766 268.084 99.8513C267.599 99.9185 267.143 99.5974 267.046 99.1195C266.927 98.4698 266.859 97.8126 266.829 97.148C266.829 96.6402 267.248 96.2294 267.763 96.2294C268.248 96.2294 268.652 96.6178 268.682 97.1032C268.704 97.6707 268.764 98.2383 268.868 98.7984M269.369 91.9056C269.234 92.3985 268.726 92.6823 268.233 92.5478C267.741 92.4134 267.457 91.9056 267.591 91.4127C267.755 90.8078 267.927 90.1806 268.136 89.5906C268.316 89.1127 268.846 88.8737 269.324 89.0529C269.779 89.2247 270.026 89.7175 269.884 90.188C269.69 90.7481 269.525 91.3306 269.369 91.9056ZM271.915 85.1398C271.684 85.5953 271.131 85.782 270.675 85.5505C270.242 85.334 270.048 84.8187 270.235 84.3632C270.496 83.8031 270.758 83.2281 271.034 82.6754C271.273 82.2199 271.825 82.0482 272.281 82.2871C272.714 82.5112 272.901 83.0414 272.692 83.4894C272.423 84.0346 272.161 84.5872 271.908 85.1398M275.208 78.5906C274.962 79.0386 274.402 79.1955 273.954 78.949C273.521 78.7101 273.356 78.1649 273.58 77.7243L274.447 76.0889C274.701 75.6483 275.261 75.4915 275.709 75.7454C276.134 75.9843 276.299 76.522 276.082 76.9551C275.783 77.4853 275.5 78.0454 275.216 78.5831M278.644 72.0339C278.405 72.4819 277.852 72.6612 277.396 72.4222C276.956 72.1907 276.777 71.6605 276.993 71.2124L277.8 69.5695C278.031 69.114 278.591 68.9347 279.039 69.1737C279.472 69.3977 279.659 69.9205 279.465 70.3686L278.644 72.0413V72.0339ZM281.638 65.1411C281.474 65.6265 280.944 65.8804 280.466 65.7087C279.995 65.5444 279.741 65.0366 279.883 64.5661C280.07 63.9986 280.242 63.4385 280.391 62.856C280.518 62.3631 281.018 62.0644 281.511 62.1839C282.004 62.3108 282.303 62.8112 282.183 63.304C282.019 63.9239 281.847 64.5213 281.638 65.1337M282.564 57.4792C282.624 57.987 282.265 58.4425 281.765 58.5097C281.257 58.5695 280.802 58.211 280.734 57.7107C280.667 57.1357 280.563 56.5681 280.421 56.008C280.294 55.5152 280.593 55.0074 281.085 54.8804C281.578 54.7535 282.086 55.0522 282.213 55.545C282.37 56.1798 282.489 56.822 282.572 57.4717M279.734 50.2504C280.033 50.6611 279.943 51.2436 279.532 51.5423C279.121 51.841 278.539 51.7514 278.24 51.3407C277.897 50.8702 277.531 50.4147 277.142 49.9741C276.799 49.5932 276.829 49.0107 277.21 48.6672C277.591 48.3237 278.173 48.3536 278.517 48.7344C278.95 49.2124 279.36 49.7202 279.734 50.2504ZM274.155 44.9856C274.574 45.2769 274.671 45.8593 274.379 46.2701C274.096 46.6733 273.543 46.7853 273.125 46.5165C272.624 46.1805 272.124 45.8593 271.609 45.5532C271.183 45.2769 271.056 44.7093 271.333 44.2762C271.594 43.8655 272.132 43.731 272.557 43.9625C273.102 44.2836 273.633 44.6197 274.163 44.9781M267.487 41.4459C267.957 41.6475 268.174 42.1927 267.972 42.6557C267.77 43.1187 267.24 43.3352 266.777 43.1485C266.225 42.9096 265.657 42.693 265.09 42.4764C264.612 42.2898 264.38 41.7595 264.559 41.2816C264.739 40.8111 265.269 40.5722 265.739 40.7514C266.322 40.9754 266.904 41.2069 267.479 41.4459M260.415 38.9815C260.9 39.1309 261.176 39.6462 261.027 40.1316C260.885 40.602 260.385 40.8783 259.907 40.7514L258.144 40.266C257.652 40.1241 257.375 39.6088 257.517 39.1234C257.652 38.6529 258.137 38.3692 258.615 38.4812L260.415 38.9815ZM253.171 37.2117C253.671 37.3162 253.992 37.8016 253.888 38.302C253.783 38.8023 253.298 39.1234 252.798 39.0189L250.998 38.6604C250.497 38.5559 250.176 38.0705 250.281 37.5701C250.378 37.0772 250.856 36.7636 251.349 36.8457L253.178 37.2117H253.171ZM245.853 35.9123C246.36 35.987 246.704 36.4574 246.629 36.9652C246.555 37.473 246.084 37.8166 245.576 37.7419L243.762 37.473C243.261 37.3909 242.918 36.913 243.007 36.4051C243.089 35.9197 243.538 35.5837 244.023 35.6434L245.86 35.9123H245.853Z" fill="#8D9FCA"/>
<path fill-rule="evenodd" clip-rule="evenodd" d="M49.5025 113.832L87.9914 129.611L77.4245 143.113L49.5025 113.839V113.832Z" fill="#D0D9EE"/>
<path fill-rule="evenodd" clip-rule="evenodd" d="M93.413 123.248L50.6674 113.914L103.875 117.797L93.4055 123.248H93.413Z" fill="#D0D9EE"/>
<path fill-rule="evenodd" clip-rule="evenodd" d="M93.413 123.248L92.4123 140.969L87.9839 129.611L49.5025 113.832L50.6749 113.921L93.413 123.248Z" fill="#AAB9DE"/>
<path fill-rule="evenodd" clip-rule="evenodd" d="M92.4123 140.962L83.3016 135.585L87.9839 129.603L92.4123 140.962Z" fill="#8D9FCA"/>
<path fill-rule="evenodd" clip-rule="evenodd" d="M4.71828 165.112L26.0313 173.849L20.1766 181.325L4.71828 165.112Z" fill="#D0D9EE"/>
<path fill-rule="evenodd" clip-rule="evenodd" d="M29.0333 170.332L5.36797 165.165L34.8283 167.315L29.0333 170.332Z" fill="#D0D9EE"/>
<path fill-rule="evenodd" clip-rule="evenodd" d="M29.0333 170.325L28.4807 180.137L26.0313 173.849L4.71828 165.112L5.36798 165.157L29.0333 170.325Z" fill="#AAB9DE"/>
<path fill-rule="evenodd" clip-rule="evenodd" d="M28.4807 180.137L23.44 177.158L26.0313 173.849L28.4807 180.137Z" fill="#8D9FCA"/>
<path fill-rule="evenodd" clip-rule="evenodd" d="M238.706 131.874L217.393 140.611L223.248 148.086L238.706 131.874Z" fill="#D0D9EE"/>
<path fill-rule="evenodd" clip-rule="evenodd" d="M214.391 137.086L238.056 131.919L208.596 134.069L214.391 137.086Z" fill="#D0D9EE"/>
<path fill-rule="evenodd" clip-rule="evenodd" d="M214.391 137.086L214.943 146.899L217.4 140.611L238.713 131.874L238.064 131.918L214.398 137.086H214.391Z" fill="#AAB9DE"/>
<path fill-rule="evenodd" clip-rule="evenodd" d="M214.943 146.899L219.992 143.919L217.4 140.611L214.943 146.899Z" fill="#8D9FCA"/>
<path fill-rule="evenodd" clip-rule="evenodd" d="M291.6 176.105L263.394 187.673L271.138 197.568L291.6 176.105Z" fill="#D0D9EE"/>
<path fill-rule="evenodd" clip-rule="evenodd" d="M259.421 183.013L290.749 176.173L251.752 179.025L259.421 183.013Z" fill="#D0D9EE"/>
<path fill-rule="evenodd" clip-rule="evenodd" d="M259.414 183.012L260.146 195.999L263.394 187.672L291.6 176.112L290.741 176.172L259.414 183.012Z" fill="#AAB9DE"/>
<path fill-rule="evenodd" clip-rule="evenodd" d="M260.153 195.999L266.829 192.056L263.394 187.673L260.146 195.999H260.153Z" fill="#8D9FCA"/>
<path fill-rule="evenodd" clip-rule="evenodd" d="M96.2806 238.797L117.586 247.534L111.739 255.009L96.2806 238.797Z" fill="#D0D9EE"/>
<path fill-rule="evenodd" clip-rule="evenodd" d="M120.596 244.01L96.9303 238.842L126.391 240.993L120.596 244.01Z" fill="#D0D9EE"/>
<path fill-rule="evenodd" clip-rule="evenodd" d="M120.596 244.009L120.043 253.822L117.586 247.534L96.2806 238.797L96.9303 238.842L120.596 244.009Z" fill="#AAB9DE"/>
<path fill-rule="evenodd" clip-rule="evenodd" d="M120.043 253.822L114.995 250.842L117.586 247.534L120.043 253.822Z" fill="#8D9FCA"/>
<path fill-rule="evenodd" clip-rule="evenodd" d="M103.756 8.1475L125.061 16.8848L119.214 24.36L103.756 8.1475Z" fill="#D0D9EE"/>
<path fill-rule="evenodd" clip-rule="evenodd" d="M128.071 13.3669L104.406 8.19925L133.866 10.35L128.071 13.3669Z" fill="#D0D9EE"/>
<path fill-rule="evenodd" clip-rule="evenodd" d="M128.071 13.36L127.518 23.1726L125.061 16.8848L103.756 8.1475L104.406 8.1923L128.071 13.36Z" fill="#AAB9DE"/>
<path fill-rule="evenodd" clip-rule="evenodd" d="M127.518 23.1727L122.47 20.1931L125.061 16.8848L127.518 23.1727Z" fill="#8D9FCA"/>
<path fill-rule="evenodd" clip-rule="evenodd" d="M172.564 253.165C172.564 253.165 181.085 259.311 182.421 261.141C184.355 263.784 167.994 268.713 169.778 265.621C170.189 264.919 171.369 262.515 171.421 262.291C171.69 261.029 168.225 257.646 168.225 257.646L172.571 253.165H172.564Z" fill="#F4AE7C"/>
<path fill-rule="evenodd" clip-rule="evenodd" d="M165.357 270.796L171.145 262.612C171.145 262.612 174.752 261.775 178.463 257.601C180.569 258.467 182.421 259.856 183.84 261.633C180.771 264.815 177.478 267.779 173.998 270.505C171.496 272.581 168.643 274.202 165.574 275.292C160.683 276.942 165.35 270.796 165.35 270.796" fill="#142D4D"/>
<path fill-rule="evenodd" clip-rule="evenodd" d="M113.091 88.6124C113.091 88.6124 113.501 89.8894 113.666 90.3151C113.867 90.8079 114.584 92.2417 114.584 92.2417C114.584 92.2417 117.399 97.0734 117.75 96.8493C118.213 96.4909 118.52 95.9681 118.624 95.3931C118.564 95.0421 118.086 94.4298 118.027 94.0713C117.974 93.6382 118.236 93.2275 118.654 93.1005C119.102 93.0109 120.08 94.6239 120.08 94.6239C120.513 95.3483 120.782 96.1548 120.872 96.9912C120.872 100.628 120.245 100.486 120.26 100.942C120.282 101.502 124.666 107.625 124.666 107.625C124.666 107.625 138.22 125.272 138.936 126.22H138.951C138.563 127.101 137.615 127.564 136.92 128.132C134.859 130.327 133.978 130.044 131.82 132.067C129.893 129.11 117.146 107.924 115.861 105.743C115.861 105.743 113.217 103.563 111.604 102.144C109.991 100.725 109.11 98.7014 108.722 98.2384C107.818 96.9838 107.079 95.6246 106.519 94.1834C105.705 92.1372 107.437 93.7278 107.437 93.7278C107.437 93.7278 109.648 97.2601 109.902 97.0584C110.096 96.8867 108.774 95.0272 107.863 92.7869C107.624 92.2044 107.393 91.6368 107.176 91.1141C106.631 89.7326 107.348 89.0231 108.162 90.3823C108.535 90.9946 108.864 91.6294 109.148 92.294C109.446 92.9064 109.797 93.4888 110.186 94.0415C110.499 94.6613 110.858 95.2587 111.261 95.8263C111.298 95.7665 111.567 95.8935 111.343 95.2811C111.059 94.5194 110.103 93.0557 109.782 91.9281C109.596 91.2933 109.133 89.9715 109.133 89.9715C109.006 89.2621 108.938 88.5377 108.938 87.8133C109.596 87.5072 110.238 88.8962 110.365 89.7848C110.716 90.3972 110.992 91.0469 111.201 91.719C111.201 91.719 112.762 94.3476 113.158 94.1609C113.322 94.0713 112.56 92.3463 112.09 90.5465C111.657 88.8738 111.492 87.1188 111.828 87.0068C112.381 86.7828 113.076 88.5975 113.076 88.5975" fill="#F4AE7C"/>
<path fill-rule="evenodd" clip-rule="evenodd" d="M185.588 190.047L184.243 196.709L150.37 227.521L174.61 252.067L168.068 258.743C168.068 258.743 132.26 232.449 130.968 229.007C128.974 223.705 156.635 188.561 156.635 188.561L185.588 190.047Z" fill="#0F3970"/>
<path fill-rule="evenodd" clip-rule="evenodd" d="M209.328 270.894C209.328 270.894 217.848 277.04 219.185 278.869C221.119 281.513 204.757 286.442 206.542 283.35C206.953 282.648 208.125 280.258 208.185 280.019C208.454 278.757 204.989 275.374 204.989 275.374L209.328 270.894Z" fill="#F4AE7C"/>
<path fill-rule="evenodd" clip-rule="evenodd" d="M202.106 288.555L207.894 280.37C207.894 280.37 211.74 279.683 215.444 275.516C217.468 276.33 219.245 277.667 220.589 279.392C217.527 282.58 214.234 285.538 210.754 288.263C208.252 290.347 205.4 291.967 202.33 293.05C197.439 294.701 202.106 288.555 202.106 288.555Z" fill="#142D4D"/>
<path fill-rule="evenodd" clip-rule="evenodd" d="M184.43 193.139L182.907 235.19L211.546 270.304L204.84 276.487C204.84 276.487 171.586 247.953 167.941 240.007C165.679 235.063 158.061 190.511 158.061 190.511L184.438 193.139H184.43Z" fill="#0F3D86"/>
<path fill-rule="evenodd" clip-rule="evenodd" d="M157.106 189.697C159.861 183.468 159.548 138.908 170.264 128.468C174.035 129.096 176.723 129.462 177.358 129.618C177.918 134.211 178.531 151.058 178.911 166.494C179.165 176.792 178.904 187.583 180.166 193.266C180.95 196.791 154.589 195.365 157.106 189.697Z" fill="white"/>
<path fill-rule="evenodd" clip-rule="evenodd" d="M186.133 131.926C189.03 132.576 191.188 133.905 194.855 139.192C200.755 146.884 210.948 161.804 210.963 162.596C210.978 163.612 207.871 188.629 207.871 188.629L199.754 188.785L198.141 167.734C194.168 163.492 189.336 156.577 188.806 155.875C188.634 155.651 189.441 171.49 189.441 173.999C189.441 176.508 193.533 196.642 193.533 196.642C193.533 196.642 181.383 199.636 179.009 194.192C171.735 177.539 177.321 129.611 177.321 129.611C177.321 129.611 183.975 131.44 186.148 131.933" fill="#8D9FCA"/>
<path fill-rule="evenodd" clip-rule="evenodd" d="M166.634 128.827C166.634 128.827 168.912 142.709 164.924 142.948C160.922 143.172 133.38 134.42 132.708 133.659C132.036 132.897 118.31 111.756 118.31 111.756L124.419 106.409L139.213 121.479C139.213 121.479 158.427 126.908 161.706 126.631C163.617 126.46 165.484 127.289 166.634 128.827Z" fill="#8D9FCA"/>
<path fill-rule="evenodd" clip-rule="evenodd" d="M156.038 192.676C154.365 192.706 152.707 192.429 151.131 191.862C151.131 191.862 155.717 166.001 158.383 140.349C159.436 130.215 160.421 126.063 164.596 126.803C165.798 127.012 169.076 128.259 170.264 128.468C159.764 158.175 159.727 181.048 158.241 187.68C157.494 191.01 156.844 192.691 156.038 192.676Z" fill="#8D9FCA"/>
<path fill-rule="evenodd" clip-rule="evenodd" d="M171.376 123.965L170.279 128.468C170.279 128.468 170.025 132.374 171.839 132.725C174.028 133.143 177.276 129.872 177.276 129.872L179.158 117.207L171.369 123.965H171.376Z" fill="#F3A992"/>
<path fill-rule="evenodd" clip-rule="evenodd" d="M171.376 123.965L170.279 128.468C170.279 128.468 170.025 132.374 171.839 132.725C174.028 133.143 177.276 129.872 177.276 129.872L179.158 117.207L171.369 123.965H171.376Z" fill="#F4AE7C"/>
<path fill-rule="evenodd" clip-rule="evenodd" d="M179.143 117.259L171.376 123.965L170.555 127.325C173.52 126.609 177.754 123.338 179.143 117.251" fill="#ED7D5B"/>
<path fill-rule="evenodd" clip-rule="evenodd" d="M171.354 105.617C169.42 105.676 167.725 106.946 167.127 108.783C166.381 110.896 165.813 113.077 165.432 115.287C164.611 120.156 167.381 124.607 169.793 124.973C172.205 125.324 177.956 123.726 179.225 116.826C179.77 113.876 180.487 109.993 178.06 107.954C176.148 106.446 173.789 105.624 171.362 105.617" fill="#F4AE7C"/>
<path fill-rule="evenodd" clip-rule="evenodd" d="M178.434 122.09C178.434 122.09 186.939 114.503 187.313 108.574C187.686 102.667 182.22 99.4927 177.537 99.321C175.626 99.2538 173.714 99.3583 171.817 99.6272C167.135 100.217 164.095 102.286 165.163 106.124C166.597 111.284 176.32 106.923 178.307 108.529C179.949 109.858 177.291 113.024 178.882 114.227C180.383 115.377 179.621 114.996 179.128 117.161C178.792 118.789 178.56 120.432 178.441 122.09" fill="#0F3970"/>
<path fill-rule="evenodd" clip-rule="evenodd" d="M181.719 115.221C181.51 116.632 180.637 117.685 179.778 117.558C178.919 117.431 178.396 116.176 178.605 114.758C178.814 113.339 179.688 112.293 180.539 112.42C181.391 112.547 181.921 113.794 181.719 115.221Z" fill="#F4AE7C"/>
<path fill-rule="evenodd" clip-rule="evenodd" d="M177.298 155.905L227.758 167.032C228.378 167.159 228.774 167.756 228.647 168.376C228.647 168.391 228.647 168.406 228.639 168.421L221.433 198.404C221.284 199.076 220.649 199.524 219.969 199.45L219.768 199.427C219.708 199.427 219.656 199.427 219.596 199.412L169.151 193.64C168.897 193.61 168.658 193.49 168.472 193.311C168.27 193.117 168.15 192.863 168.135 192.587L165.746 159.602L165.791 159.079C166.007 158.414 166.694 158.033 167.374 158.183L171.727 159.213L171.81 158.041L175.305 158.81L175.708 156.921L175.738 156.794C175.947 156.129 176.626 155.733 177.306 155.883" fill="#D0D9EE"/>
<path fill-rule="evenodd" clip-rule="evenodd" d="M217.475 170.041L167.359 158.204C166.679 158.047 165.992 158.436 165.776 159.093C165.723 159.265 165.708 159.444 165.731 159.616L168.128 192.593C168.173 193.139 168.598 193.579 169.144 193.639L219.588 199.411C220.275 199.501 220.925 199.053 221.082 198.381C221.112 198.239 221.112 198.09 221.082 197.94L218.356 171.049C218.311 170.556 217.953 170.145 217.468 170.041H217.475ZM217.102 171.221L219.835 198.209L169.39 192.444L166.993 159.384L217.109 171.221H217.102Z" fill="#C19274"/>
<path fill-rule="evenodd" clip-rule="evenodd" d="M226.496 170.071L171.795 158.055L169.39 192.437L219.902 198.814L226.496 170.071Z" fill="#E9EFF8"/>
<path fill-rule="evenodd" clip-rule="evenodd" d="M227.564 168.152L176.835 156.966L169.241 192.512L220.305 198.352L227.564 168.16V168.152Z" fill="#C19274"/>
<path fill-rule="evenodd" clip-rule="evenodd" d="M227.758 167.032L177.298 155.905C176.619 155.763 175.939 156.151 175.73 156.816C175.715 156.853 175.708 156.898 175.7 156.943L168.158 192.265C168.023 192.885 168.412 193.49 169.032 193.632C169.069 193.639 169.099 193.647 169.136 193.647H169.218L219.962 199.449C220.649 199.524 221.276 199.076 221.425 198.404L228.632 168.421C228.781 167.808 228.415 167.196 227.803 167.039C227.788 167.039 227.773 167.039 227.758 167.032ZM227.407 168.212L220.186 198.24L169.398 192.437L176.947 157.085L227.407 168.212Z" fill="#A0785C"/>
<path fill-rule="evenodd" clip-rule="evenodd" d="M208.118 199.434C208.327 199.001 208.469 198.546 208.536 198.068C208.536 198.068 208.461 197.194 208.439 196.574C208.439 196.41 208.439 196.253 208.446 196.089C208.618 195.23 208.656 194.341 208.544 193.467C208.394 192.609 207.745 190.152 207.423 188.979C207.379 188.867 207.356 188.748 207.341 188.621L200.374 188.755C199.702 190.451 198.007 194.856 198.051 195.738C198.051 195.842 198.066 195.947 198.081 196.044C198.26 196.738 198.514 197.418 198.835 198.06C198.888 198.232 199.478 199.927 199.978 200.114C200.531 200.36 201.173 200.308 201.681 199.964C202.427 200.211 203.227 200.241 203.981 200.054C204.75 200.308 205.586 200.188 206.258 199.74C206.258 199.74 207.595 200.054 208.11 199.419" fill="#F4AE7C"/>
<path fill-rule="evenodd" clip-rule="evenodd" d="M194.086 138.109L194.855 139.192C200.755 146.891 210.948 161.804 210.963 162.596C210.978 163.611 207.871 188.628 207.871 188.628L199.754 188.785L198.141 167.726C196.819 166.315 190.128 157.54 188.806 155.867L194.086 138.116V138.109Z" fill="#8D9FCA"/>
</svg>
