<svg width="39" height="21" viewBox="0 0 39 21" fill="none" xmlns="http://www.w3.org/2000/svg">
<path d="M14.1321 19.0781C13.9725 18.3031 13.699 17.4142 13.4483 16.7304L12.3314 13.9039H4.55874L3.46465 16.7304C3.09995 17.6649 2.9176 18.2575 2.75804 19.0781H0C0.410286 18.3487 0.661026 17.8017 1.20807 16.434L6.29106 3.66958C6.72414 2.57548 6.90649 2.05122 7.02046 1.50417H9.80129C9.91526 1.96005 10.0292 2.30195 10.5763 3.66958L15.6821 16.434C16.2519 17.8245 16.5482 18.4855 16.8901 19.0781H14.1321ZM8.91234 4.74088C8.86675 4.60412 8.70719 4.13305 8.43367 3.32767C8.3197 3.64678 8.22852 3.9203 8.18294 4.07986C8.06897 4.39897 8.00058 4.62691 7.955 4.74088L5.19697 12.0349H11.6932L8.91234 4.74088Z" fill="#333333"/>
<path d="M23.6826 18.5996C23.6826 19.6026 23.7282 20.2408 23.7966 20.8562H21.8136C21.9047 20.1952 21.9503 19.557 21.9503 18.5769V11.8755C20.879 12.924 20.2864 13.4027 18.9643 14.36C18.7136 13.7218 18.4401 13.2659 18.0298 12.7645C19.6482 11.7843 20.8562 10.8042 22.1327 9.43659C23.2724 8.20573 23.979 7.15722 24.8223 5.44769H20.7195C19.9901 5.44769 19.4886 5.47049 18.8504 5.53887V3.73817C19.5114 3.80655 19.9445 3.82934 20.6511 3.82934H21.9503V1.75511C21.9503 1.13969 21.9047 0.478667 21.8136 0H23.8194C23.7282 0.478667 23.6826 1.0713 23.6826 1.8007V3.82934H24.9135C25.5745 3.82934 25.9392 3.80655 26.2127 3.76096L27.0333 4.67271C26.8738 4.92344 26.7142 5.19696 26.5091 5.63004C25.7797 7.15722 25.1414 8.16014 24.0473 9.50497C25.2326 10.8498 26.1444 11.6248 27.7171 12.5593C27.3068 13.0836 27.0789 13.4711 26.8054 14.1093C25.4833 13.1975 24.5944 12.3998 23.6826 11.3057V18.5996ZM33.1192 18.0298H36.4927C37.678 18.0298 38.3846 17.9842 39 17.893V19.9217C38.2706 19.8077 37.45 19.7621 36.4927 19.7621H28.4009C27.398 19.7621 26.6458 19.8077 25.9164 19.9217V17.893C26.5774 17.9842 27.2385 18.0298 28.4237 18.0298H31.3413V8.54763H29.2443C28.4237 8.54763 27.6943 8.59322 27.0105 8.6616V6.74693C27.6259 6.83811 28.2642 6.88369 29.2443 6.88369H31.3413V2.21099C31.3413 1.41321 31.2957 0.911748 31.1818 0.0683812H33.2788C33.142 0.934541 33.1192 1.36762 33.1192 2.21099V6.88369H35.9684C36.9714 6.88369 37.564 6.8609 38.2022 6.74693V8.6616C37.5184 8.59322 36.8118 8.54763 35.9684 8.54763H33.1192V18.0298Z" fill="#333333"/>
</svg>
