<svg width="38" height="21" viewBox="0 0 38 21" fill="none" xmlns="http://www.w3.org/2000/svg">
<path d="M12.7802 6.62851C12.4624 5.65241 12.2127 5.19841 11.736 4.63091C10.8734 3.60941 9.55675 3.0646 7.99045 3.0646C4.42652 3.0646 2.22462 5.81132 2.22462 10.2151C2.22462 14.619 4.47192 17.4111 7.99045 17.4111C9.73836 17.4111 11.1912 16.7528 12.0538 15.5724C12.5305 14.9141 12.7348 14.3693 12.9391 13.3478L15.2091 13.8245C14.8005 15.2319 14.4827 15.9583 13.8925 16.7301C12.6213 18.3872 10.4874 19.3179 7.92232 19.3179C5.67501 19.3179 3.79094 18.6142 2.47433 17.2522C0.88532 15.6405 0 13.1435 0 10.2832C0 7.42303 0.953389 4.7898 2.6786 3.10999C4.01791 1.81609 5.76583 1.15779 7.94505 1.15779C10.1243 1.15779 11.8495 1.77069 13.1434 3.0192C14.006 3.8591 14.4373 4.5855 14.9821 6.03831L12.7802 6.62851Z" fill="#333333"/>
<path d="M22.7455 18.5233C22.7455 19.5221 22.7909 20.1577 22.859 20.7706H20.8841C20.9749 20.1123 21.0203 19.4767 21.0203 18.5006V11.8268C19.9534 12.871 19.3632 13.3477 18.0466 14.3011C17.7969 13.6655 17.5245 13.2115 17.1159 12.7121C18.7276 11.736 19.9307 10.7599 21.2019 9.39784C22.3369 8.17204 23.0406 7.12783 23.8805 5.42532H19.7945C19.0681 5.42532 18.5687 5.44802 17.9331 5.51612V3.72281C18.5914 3.79091 19.0227 3.81361 19.7264 3.81361H21.0203V1.74791C21.0203 1.135 20.9749 0.476703 20.8841 0H22.8817C22.7909 0.476703 22.7455 1.0669 22.7455 1.79331V3.81361H23.9713C24.6296 3.81361 24.9929 3.79091 25.2653 3.74551L26.0824 4.65352C25.9235 4.90322 25.7646 5.17561 25.5603 5.60691C24.8339 7.12782 24.1983 8.12663 23.1087 9.46594C24.2891 10.8052 25.1971 11.5771 26.7635 12.5078C26.3548 13.0299 26.1278 13.4158 25.8554 14.0514C24.5388 13.1434 23.6535 12.3489 22.7455 11.2592V18.5233ZM32.1434 17.9558H35.503C36.6834 17.9558 37.3871 17.9104 38 17.8196V19.8399C37.2736 19.7264 36.4564 19.681 35.503 19.681H27.4445C26.4457 19.681 25.6965 19.7264 24.9701 19.8399V17.8196C25.6284 17.9104 26.2867 17.9558 27.4671 17.9558H30.3728V8.51255H28.2844C27.4672 8.51255 26.7408 8.55795 26.0598 8.62605V6.71922C26.6727 6.81002 27.3083 6.85544 28.2844 6.85544H30.3728V2.20189C30.3728 1.40739 30.3274 0.908003 30.2139 0.0680976H32.3023C32.1661 0.930703 32.1434 1.36199 32.1434 2.20189V6.85544H34.9809C35.9797 6.85544 36.5699 6.83272 37.2055 6.71922V8.62605C36.5245 8.55795 35.8208 8.51255 34.9809 8.51255H32.1434V17.9558Z" fill="#333333"/>
</svg>
