<svg width="97" height="67" viewBox="0 0 97 67" fill="none" xmlns="http://www.w3.org/2000/svg">
<path d="M45.0785 33.2593C45.0785 44.5214 43.2341 52.8626 39.5453 58.2678C35.8565 63.6805 30.1728 66.3831 22.4941 66.3831C14.8154 66.3831 9.44781 63.5901 5.66868 58.0043C1.88956 52.4184 0 44.1676 0 33.2593C0 22.351 1.83686 13.4904 5.51059 8.09274C9.19185 2.69507 14.853 0 22.4941 0C30.1351 0 35.5554 2.82305 39.3646 8.46915C43.1738 14.1152 45.0785 22.3811 45.0785 33.2593ZM13.5431 33.2593C13.5431 41.1714 14.2282 46.84 15.5908 50.2653C16.9609 53.6906 19.257 55.4071 22.4941 55.4071C25.7312 55.4071 27.967 53.6756 29.3748 50.2051C30.7901 46.7347 31.4902 41.0886 31.4902 33.2668C31.4902 25.4451 30.775 19.671 29.3522 16.2156C27.9218 12.7602 25.6408 11.0362 22.4941 11.0362C19.3473 11.0362 16.991 12.7602 15.6133 16.2156C14.2282 19.671 13.5431 25.3548 13.5431 33.2668V33.2593Z" fill="#333333"/>
<path d="M97 65.5025H51.9215V56.017L68.107 39.6509C72.9024 34.7425 76.0341 31.3398 77.5021 29.4427C78.9701 27.5456 80.0316 25.7916 80.679 24.173C81.3264 22.5545 81.6501 20.8832 81.6501 19.1442C81.6501 16.5546 80.9349 14.6274 79.5121 13.3626C78.0818 12.0979 76.1847 11.4655 73.7983 11.4655C71.2989 11.4655 68.8749 12.0377 66.5186 13.1895C64.1623 14.3338 61.7081 15.9674 59.1485 18.0828L51.7408 9.30497C54.9177 6.60237 57.545 4.69023 59.6379 3.56853C61.7231 2.45437 64.0042 1.58863 66.4734 0.986384C68.9426 0.384133 71.7055 0.0830078 74.7694 0.0830078C78.797 0.0830078 82.3578 0.820765 85.4443 2.28875C88.5308 3.75674 90.9248 5.81945 92.6337 8.46182C94.335 11.1117 95.1932 14.138 95.1932 17.5483C95.1932 20.5219 94.6738 23.3073 93.6274 25.9045C92.581 28.5092 90.9624 31.1742 88.7717 33.9069C86.581 36.6396 82.7191 40.5392 77.1935 45.5981L68.8975 53.4048V54.0221H96.9925V65.4874L97 65.5025Z" fill="#333333"/>
</svg>
