<svg width="71" height="71" viewBox="0 0 71 71" fill="none" xmlns="http://www.w3.org/2000/svg">
<path d="M0.00750468 70.6251L0.329886 56.8675C0.329886 56.6725 0.494836 56.5226 0.689767 56.5226C0.817222 56.5226 0.929678 56.5976 0.989657 56.7025L3.90612 61.9807C4.10105 61.4334 4.41595 60.931 4.8283 60.5187L61.6508 3.69619L56.7175 0.974659C56.5451 0.884691 56.4851 0.667264 56.5826 0.502322C56.6426 0.389861 56.755 0.322381 56.8825 0.322381L70.6401 0C70.8351 0 70.9925 0.149941 71 0.344872C71 0.344872 71 0.352373 71 0.35987L70.6776 14.1175C70.6776 14.3125 70.5127 14.4624 70.3177 14.4624C70.1903 14.4624 70.0778 14.3874 70.0179 14.2825L67.2963 9.34921L10.4663 66.1792C10.054 66.5915 9.55914 66.9064 9.00434 67.1089L14.2825 70.0178C14.4549 70.1078 14.5149 70.3252 14.4174 70.4902C14.3575 70.6026 14.245 70.6701 14.1175 70.6701L0.359882 70.9925C0.16495 70.9925 0.00749736 70.8425 0 70.6476C0 70.6476 0 70.6401 0 70.6326" fill="#636972"/>
</svg>
