<svg width="183" height="112" viewBox="0 0 183 112" fill="none" xmlns="http://www.w3.org/2000/svg">
<path d="M159.445 45.3134C166.549 61.834 159.038 109.94 113.119 106.491C99.9451 105.502 85.1763 93.3958 74.2354 95.9566C63.2941 98.5174 58.1447 108.687 37.5612 105.331C16.9822 101.98 12.1979 84.7795 16.5985 71.994C20.9944 59.2084 9.05475 55.1407 9.97924 44.2318C10.8251 34.2566 26.2177 32.0656 33.3178 24.2491C40.4132 16.4372 43.2698 1.15089 59.2679 1.01684C77.092 0.868923 76.4126 21.2815 100.31 18.3046C126.719 15.0181 150.487 24.4756 159.445 45.3134Z" fill="#EAF0F9"/>
<path d="M109.195 86.7763C85.4126 81.9644 86.189 73.3251 55.5608 76.7965C34.3439 79.2048 20.6708 88.2045 24.3595 96.1967C27.1422 102.225 35.5041 106.814 50.6102 105.659C65.7162 104.503 78.7098 106.486 90.4371 107.827C105.192 109.514 127.716 105.511 131.096 99.5064C134.474 93.5019 125.447 90.0629 109.195 86.7763Z" fill="#EAF0F9"/>
<path d="M51.845 12.8596C51.845 12.6423 51.8404 12.425 51.8357 12.2124C51.8311 12.1154 51.8265 12.0275 51.8265 11.9351C51.8219 11.7687 51.8126 11.5976 51.8034 11.4358C51.7941 11.2926 51.7849 11.1585 51.7757 11.0244C51.7664 10.9135 51.7618 10.8026 51.7525 10.6963C51.7294 10.4513 51.7064 10.2155 51.6786 9.98903C51.3087 10.5021 50.9436 11.0291 50.5831 11.5606C50.4536 11.7501 50.3242 11.9443 50.1948 12.1384C49.959 12.4898 49.7279 12.8365 49.4968 13.1924C49.3581 13.405 49.2241 13.6269 49.0854 13.8395C48.8635 14.1862 48.6463 14.5328 48.429 14.8842C48.2996 15.0968 48.1701 15.3141 48.0408 15.5267C47.8189 15.8919 47.6017 16.2617 47.389 16.6314C47.3382 16.7193 47.2827 16.8071 47.2318 16.8996C47.2411 16.8857 47.2595 16.8625 47.2688 16.8395C44.0424 22.4557 41.5278 28.4926 40.9454 33.799C40.9454 33.7668 40.9453 33.739 40.9407 33.7066C40.9223 33.8545 40.913 34.0025 40.8991 34.1504C40.8899 34.2659 40.876 34.3861 40.8668 34.5016C40.8391 34.8715 40.8205 35.2413 40.8113 35.6064C40.7836 35.6203 40.7512 35.6388 40.7327 35.6758C40.2982 36.5171 39.896 37.3722 39.3876 38.1765C38.306 36.6188 37.2196 35.0702 36.1011 33.5402C36.5355 32.5372 37.0116 31.511 37.0948 30.4293C37.2382 30.249 37.3768 30.0642 37.5109 29.8746C37.5618 29.8053 37.6079 29.7314 37.6542 29.662C37.7651 29.5003 37.8714 29.3384 37.9732 29.172C38.024 29.0888 38.0702 29.0056 38.121 28.9225C38.2181 28.7561 38.3105 28.585 38.3984 28.4139C38.44 28.34 38.477 28.2615 38.5186 28.1875C38.6387 27.9425 38.7543 27.6974 38.856 27.4479C38.8606 27.4341 38.8653 27.4202 38.8699 27.4063C38.967 27.1659 39.0594 26.9256 39.1426 26.6805C39.1704 26.5973 39.1981 26.5096 39.2258 26.4217C39.2813 26.2461 39.3368 26.0658 39.3876 25.8902C39.4153 25.7931 39.4431 25.696 39.4661 25.5989C39.4847 25.5343 39.5032 25.4695 39.517 25.4048C39.5124 25.4187 39.5077 25.4325 39.5032 25.4464C40.9084 19.8533 39.1888 13.1739 37.0856 7.8165C37.0856 7.81188 37.0811 7.80725 37.0811 7.79801C36.7436 6.93824 36.3969 6.11083 36.0502 5.32502C36.0271 5.27879 36.0086 5.22795 35.9855 5.18173C35.8283 4.8258 35.6712 4.48374 35.514 4.1463C35.477 4.06773 35.4401 3.98915 35.403 3.91056C35.2459 3.57774 35.0934 3.25418 34.9455 2.9491C34.8391 3.22182 34.7328 3.49916 34.6357 3.78114C34.5941 3.90594 34.5525 4.03537 34.5109 4.16017C34.4601 4.31733 34.4046 4.47449 34.3584 4.63628C34.3168 4.77033 34.2798 4.90901 34.2429 5.04767C34.1966 5.20484 34.1504 5.362 34.1134 5.51916C34.0765 5.65321 34.0487 5.78726 34.0163 5.92131C33.9747 6.08772 33.9331 6.25412 33.8962 6.42515C33.8685 6.54995 33.8407 6.67938 33.8175 6.80881C33.7806 6.98908 33.7436 7.16936 33.7067 7.34964C33.6835 7.46981 33.6651 7.59463 33.6419 7.71943C33.6096 7.90894 33.5772 8.09847 33.5448 8.28798C33.5264 8.40817 33.5079 8.52835 33.494 8.65315C33.4663 8.84729 33.4385 9.04144 33.4155 9.23558C33.4016 9.36039 33.3877 9.48519 33.3739 9.60538C33.3507 9.79952 33.3323 9.98903 33.3137 10.1832C33.3091 10.2294 33.3045 10.271 33.2999 10.3172C33.2999 10.308 33.3045 10.2987 33.3045 10.2895C33.0873 12.6423 33.1104 15.0645 33.3229 17.4358C33.3229 17.4311 33.3229 17.4311 33.3229 17.4265C33.3229 17.4403 33.3276 17.4542 33.3276 17.4635C33.3507 17.7224 33.3784 17.9765 33.4062 18.2308C33.4108 18.2908 33.42 18.351 33.4247 18.4111C33.4524 18.6746 33.4894 18.9381 33.5217 19.2015C33.5264 19.2524 33.5356 19.2985 33.5403 19.3495C33.5772 19.6222 33.6188 19.8949 33.6604 20.163C33.6651 20.2 33.6696 20.2369 33.679 20.2739C33.7251 20.5559 33.7714 20.8379 33.8175 21.1151C33.8222 21.1383 33.8268 21.1661 33.8314 21.1938C33.8823 21.4804 33.9378 21.7669 33.9933 22.0489C33.9978 22.0628 33.9978 22.0812 34.0025 22.0951C34.0626 22.3863 34.1226 22.6729 34.1874 22.9596C34.1874 22.9688 34.192 22.978 34.192 22.9873C34.8299 25.8347 35.7267 28.4001 36.7805 30.4016C36.6927 31.3862 36.2859 32.3199 35.8884 33.2306C34.4508 31.2706 32.9625 29.3523 31.3677 27.5034C31.2336 27.2306 31.0996 26.9579 30.9609 26.676C30.8547 26.4541 30.7483 26.2275 30.642 26.0011C30.5218 25.7422 30.397 25.4833 30.2769 25.2198C29.9302 24.4756 29.5742 23.7083 29.209 22.9133V22.918C27.8778 20.0382 26.3939 16.8811 24.5496 13.7563C22.7885 10.7656 20.639 8.05224 18.4527 5.82424C18.4619 5.83348 18.4712 5.84273 18.4851 5.84735C18.4111 5.77339 18.3417 5.70405 18.2678 5.6301C18.2124 5.57463 18.1569 5.51916 18.106 5.46832C17.8241 5.19097 17.542 4.91825 17.2647 4.65477C17.2139 4.60855 17.1631 4.56232 17.1168 4.5161C16.8394 4.26187 16.5667 4.01688 16.294 3.78114C16.2709 3.76264 16.2478 3.73953 16.2293 3.72104C15.9473 3.48068 15.67 3.24956 15.3926 3.02768C15.3326 2.98145 15.2725 2.93061 15.2123 2.88439C14.9489 2.67638 14.6854 2.47761 14.422 2.2881C14.3573 2.24187 14.2971 2.20027 14.2325 2.15404C13.969 1.96453 13.7101 1.78425 13.4512 1.61784C13.4096 1.59011 13.3727 1.567 13.331 1.54389C13.0906 1.38672 12.8503 1.24343 12.6192 1.10938C12.5776 1.08627 12.536 1.05853 12.4944 1.03542C12.2494 0.896748 12.0044 0.767319 11.7686 0.651759C11.7178 0.624025 11.6623 0.600914 11.6115 0.573179C11.3758 0.462242 11.1492 0.360548 10.9274 0.272722C10.8858 0.258854 10.8488 0.244988 10.8072 0.226498C10.5761 0.138673 10.345 0.0600907 10.1278 0C10.2017 0.23112 10.2803 0.480731 10.3634 0.739587C10.3727 0.771944 10.3866 0.808922 10.3958 0.841278C10.4698 1.06315 10.5437 1.2989 10.6269 1.53926C10.6454 1.59935 10.6639 1.65482 10.687 1.71491C10.7794 1.98301 10.872 2.25573 10.969 2.54232C11.0106 2.66251 11.0568 2.78731 11.0984 2.9075C11.1492 3.05542 11.2047 3.20333 11.2602 3.35587C11.2926 3.4437 11.3203 3.5269 11.3527 3.61935C11.3527 3.6101 11.348 3.60548 11.348 3.59624C13.2525 8.71324 16.7517 16.0722 23.6899 22.4233C23.6714 22.4094 23.6483 22.391 23.6298 22.3771C23.7499 22.4881 23.8747 22.5943 23.995 22.7053C24.0966 22.7977 24.1983 22.8902 24.3001 22.978C24.5635 23.2091 24.8363 23.4448 25.109 23.6714C25.1737 23.7269 25.2383 23.7823 25.3077 23.8378C25.659 24.129 26.0149 24.4156 26.3847 24.7022C26.431 24.7391 26.4818 24.7762 26.5281 24.8131C26.8424 25.0534 27.1659 25.2938 27.4895 25.5343C27.5912 25.6081 27.6975 25.6821 27.8038 25.7607C28.0858 25.9641 28.3724 26.1629 28.6636 26.357C28.7791 26.4356 28.8994 26.5141 29.0149 26.5928C29.3153 26.7915 29.6204 26.9903 29.9302 27.1844C30.0364 27.2491 30.1382 27.3185 30.2491 27.3831C30.4894 27.5311 30.7298 27.6744 30.9748 27.8223C32.1489 29.1859 33.2768 30.5911 34.3677 32.0148C33.2721 31.6404 32.246 31.2244 31.303 30.5264C31.1551 30.3553 31.0072 30.1844 30.85 30.0133C30.776 29.9347 30.7067 29.8607 30.6328 29.7822C30.5726 29.7221 30.5172 29.6574 30.4525 29.5927C30.457 29.6019 30.4663 29.6158 30.4709 29.6296C25.7053 24.8547 16.7378 21.9657 10.7888 20.5328C9.93824 20.3248 8.92122 20.1676 7.89051 20.0382C7.83034 20.0289 7.77028 20.0243 7.71022 20.015C7.46986 19.9873 7.22951 19.9595 6.98905 19.9365C6.89206 19.9273 6.79496 19.9179 6.70253 19.9087C6.58697 19.8995 6.47141 19.8856 6.35585 19.8763C6.25409 19.8671 6.15243 19.8579 6.05076 19.8486C5.94444 19.8394 5.83811 19.8302 5.73178 19.8209C5.54692 19.807 5.36197 19.7931 5.18177 19.7793C5.09391 19.7747 5.01072 19.7654 4.92752 19.7608C4.81196 19.7515 4.6964 19.747 4.5854 19.7377C4.50221 19.7331 4.42368 19.7284 4.34048 19.7238C4.21569 19.7146 4.09546 19.7099 3.97533 19.7007C3.91984 19.6961 3.86901 19.6961 3.81351 19.6915C3.65168 19.6822 3.49453 19.673 3.3466 19.6683C3.2912 19.6638 3.24494 19.6638 3.18944 19.6591C3.08311 19.6545 2.98145 19.6499 2.88902 19.6452C2.84742 19.6452 2.81039 19.6406 2.77346 19.6406C2.6579 19.636 2.55624 19.6314 2.45914 19.6267C2.44991 19.6267 2.43601 19.6267 2.42678 19.6267C2.32045 19.6222 2.23726 19.6222 2.15873 19.6175C2.13559 19.6175 2.12169 19.6175 2.09856 19.6175C2.04316 19.6175 2.00157 19.6129 1.9692 19.6129C1.9553 19.6129 1.95064 19.6129 1.9414 19.6129C1.90904 19.6129 1.89057 19.6129 1.89057 19.6129C1.9969 19.7978 2.11713 19.9827 2.24649 20.1676C2.28809 20.2277 2.32968 20.2832 2.37128 20.3432C2.47304 20.4819 2.57927 20.616 2.69027 20.7547C2.73653 20.8101 2.77813 20.861 2.81973 20.9164C2.96755 21.0921 3.12481 21.2677 3.29577 21.4388C3.35593 21.4989 3.416 21.5589 3.47606 21.619C3.59629 21.7392 3.71641 21.8593 3.84587 21.9749C3.9244 22.0489 4.0076 22.1228 4.0909 22.1968C4.21569 22.3078 4.34505 22.4187 4.47451 22.5297C4.63633 22.6637 4.79806 22.7977 4.96912 22.9318C5.05698 23.0011 5.14018 23.0704 5.22794 23.1352C5.22337 23.1305 5.22337 23.1305 5.21871 23.1259C10.4559 27.1104 19.7284 30.3785 26.4263 31.0534H26.4217C26.4355 31.0534 26.4449 31.0534 26.4541 31.0579C26.5419 31.0673 26.6251 31.0718 26.7129 31.0811C26.9256 31.0995 27.1381 31.1181 27.3462 31.1319C27.4432 31.1366 27.5403 31.1458 27.6374 31.1505C27.8454 31.1597 28.0488 31.1689 28.2522 31.1782C28.3261 31.1782 28.4047 31.1828 28.4787 31.1828C28.756 31.1874 29.0242 31.1874 29.283 31.1828C29.3014 31.1828 29.32 31.1828 29.3385 31.1782C29.5788 31.1689 29.8146 31.1597 30.0411 31.1411C30.1058 31.1366 30.1659 31.1319 30.2306 31.1227C30.4155 31.1042 30.5957 31.0857 30.7714 31.0626C30.8315 31.0534 30.8916 31.0487 30.9517 31.0395C31.0765 31.021 31.1967 30.9979 31.3169 30.9748C32.3338 31.6636 33.4432 32.0795 34.6172 32.4725C34.6404 32.4817 34.6635 32.4817 34.6866 32.477C36.1242 34.3723 37.5063 36.309 38.8699 38.2643C38.098 38.3429 37.326 38.4677 36.5541 38.5047C36.2628 38.3753 35.967 38.2551 35.6665 38.1303C35.5556 38.084 35.4401 38.0379 35.3245 37.9963C34.8715 37.8205 34.4046 37.6449 33.9239 37.4832C33.9146 37.4785 33.9101 37.4785 33.9054 37.4739H33.9101C29.3338 35.9023 23.6945 34.9038 18.4712 34.6958C15.0736 34.437 11.0337 35.0009 7.68708 35.3523C6.93822 35.4261 6.17556 35.5417 5.41746 35.6943C5.42213 35.6943 5.4267 35.6896 5.43136 35.6896C5.15864 35.7451 4.88592 35.8052 4.61777 35.8653C4.53457 35.8838 4.45604 35.9069 4.37285 35.9254C4.14173 35.9809 3.91517 36.041 3.68872 36.101C3.59162 36.1288 3.49919 36.1519 3.4021 36.1797C3.15708 36.249 2.91672 36.3229 2.68103 36.4015C2.6302 36.42 2.5747 36.4338 2.52387 36.4524C2.24192 36.5448 1.9692 36.6419 1.70571 36.7436C1.63175 36.7713 1.56236 36.7991 1.49306 36.8268C1.2943 36.9054 1.10011 36.9839 0.910588 37.0671C0.836625 37.0995 0.762663 37.1318 0.693366 37.1642C0.453011 37.2751 0.217223 37.3861 0 37.5017C0.392947 37.6542 0.795027 37.8113 1.19721 37.9731C1.65488 38.158 2.12169 38.3429 2.5886 38.5278C2.63944 38.5463 2.6856 38.5648 2.73653 38.5879C3.16174 38.7543 3.59162 38.9208 4.02617 39.0825C4.05387 39.0917 4.077 39.1009 4.10013 39.1103C4.54847 39.2767 5.00148 39.4338 5.45449 39.5818C5.46829 39.5863 5.48686 39.591 5.50066 39.5956C5.49609 39.5956 5.49143 39.591 5.48686 39.591C6.54537 39.9377 7.62235 40.2242 8.7179 40.4045C12.1385 40.9685 14.9073 41.1672 18.1892 41.5093C23.3801 41.782 28.4509 41.2226 33.5495 39.7713C33.5032 39.7897 33.4616 39.8082 33.4155 39.8221C33.6696 39.7527 33.9239 39.6695 34.1735 39.591C34.4093 39.5216 34.6496 39.4523 34.8854 39.3737C35.4401 39.198 35.9947 39.0132 36.5494 38.819C37.3907 38.7774 38.232 38.6341 39.0779 38.5555C39.7065 39.4615 40.3352 40.3721 40.9639 41.2828C40.1595 41.5093 39.3645 41.7496 38.5555 41.9484C38.1303 41.953 37.6958 41.9623 37.252 41.9762C37.0625 41.9807 36.8684 41.99 36.6742 41.9992C36.4015 42.0085 36.1242 42.0223 35.8422 42.0362C35.6249 42.0501 35.4077 42.0594 35.1858 42.0778C34.9039 42.0963 34.6172 42.1194 34.3306 42.1426C34.1134 42.161 33.9007 42.1749 33.6835 42.198C33.6188 42.2026 33.5587 42.2073 33.494 42.2119C33.5032 42.2119 33.5125 42.2119 33.5217 42.2119C28.5527 42.688 22.7978 43.9268 17.2693 46.8204C17.2832 46.8112 17.3017 46.8019 17.3156 46.7927C17.0891 46.9083 16.8672 47.0469 16.6407 47.1671C16.2616 47.3751 15.8826 47.5738 15.5082 47.8004C15.2355 47.9622 14.9674 48.1471 14.6947 48.3181C14.3618 48.5307 14.029 48.7294 13.6962 48.956C13.3172 49.2148 12.9382 49.5014 12.5638 49.7787C12.3465 49.9359 12.1292 50.0838 11.9166 50.2503C11.3295 50.7079 10.7472 51.1886 10.1739 51.6924C10.308 51.7525 10.4513 51.8126 10.5946 51.8635C10.6454 51.8819 10.7009 51.8958 10.7517 51.9143C10.8442 51.9467 10.9413 51.979 11.0383 52.0022C11.1031 52.0206 11.1678 52.0345 11.2324 52.053C11.3203 52.0761 11.4082 52.0992 11.5006 52.1177C11.5699 52.1315 11.6439 52.1454 11.7178 52.1593C11.8057 52.1731 11.8934 52.1917 11.9813 52.2055C12.0599 52.2194 12.1385 52.2286 12.2171 52.2379C12.3049 52.2471 12.3927 52.261 12.4805 52.2657C12.5638 52.2749 12.6423 52.2795 12.7255 52.2887C12.8134 52.2934 12.9011 52.298 12.9937 52.3026C13.0814 52.3072 13.1693 52.3118 13.2571 52.3118C13.3449 52.3165 13.4328 52.3165 13.5205 52.3165C13.6131 52.3165 13.7055 52.3165 13.7979 52.3165C13.8811 52.3165 13.969 52.3118 14.0522 52.3072C14.1538 52.3026 14.2509 52.3026 14.3526 52.298C14.4173 52.2934 14.4774 52.2887 14.5421 52.2841C14.972 52.2563 15.4111 52.2147 15.8595 52.1547C15.9104 52.1501 15.9612 52.1409 16.012 52.1362C16.1507 52.1177 16.2848 52.0946 16.4234 52.0715C16.4789 52.0622 16.5298 52.053 16.5853 52.0438C16.7239 52.0206 16.8672 51.9929 17.0058 51.9698C17.0567 51.9606 17.1076 51.9513 17.1584 51.942C17.3063 51.9143 17.4496 51.8866 17.5975 51.8542C17.6391 51.845 17.6854 51.8358 17.727 51.8264C17.8841 51.7942 18.0413 51.7571 18.1938 51.7248C18.2216 51.7202 18.2493 51.7109 18.277 51.7063C18.448 51.6647 18.6191 51.6277 18.7947 51.5815H18.7994C18.9427 51.5445 19.0813 51.5121 19.2246 51.4752C19.22 51.4752 19.2154 51.4752 19.2107 51.4752C21.9056 50.7679 24.5589 49.7371 26.5465 48.8497C27.9009 48.2442 29.4864 47.5138 31.0858 46.7233C31.0811 46.728 31.0764 46.728 31.0719 46.7326C31.1042 46.7141 31.1366 46.7003 31.169 46.6817C31.4925 46.52 31.8161 46.3582 32.1351 46.1964C32.1535 46.1872 32.172 46.1779 32.1951 46.1641C32.5002 46.0069 32.8053 45.8497 33.1057 45.6879C33.1981 45.6371 33.2907 45.5908 33.3784 45.54C33.6142 45.4152 33.8499 45.2857 34.081 45.1609C34.1735 45.1101 34.266 45.0593 34.3584 45.0084C34.6172 44.8651 34.8762 44.7173 35.1303 44.5739C35.1811 44.5462 35.2321 44.5138 35.2829 44.4861C35.588 44.3104 35.8838 44.1301 36.1704 43.9545C36.2212 43.9221 36.2721 43.8898 36.323 43.8574C36.5494 43.7141 36.7713 43.5755 36.9885 43.4322C37.0672 43.3814 37.1457 43.3305 37.2196 43.2796C37.4092 43.1502 37.5941 43.0254 37.7697 42.9007C37.839 42.8497 37.9084 42.8036 37.9777 42.7527C38.2089 42.5862 38.4261 42.4198 38.6295 42.2535C39.4708 42.0455 40.3029 41.7912 41.1395 41.5601H41.1441C41.6341 42.2719 42.124 42.9792 42.6186 43.691C43.1317 44.4352 43.7742 45.3597 44.5 46.409C44.4815 46.409 44.4629 46.409 44.4445 46.4183C43.5431 46.7233 42.651 47.0469 41.8328 47.5646C41.8328 47.5646 41.8328 47.5646 41.8328 47.56C41.5324 47.6663 41.2134 47.7633 40.8899 47.8559C40.8344 47.8697 40.7836 47.8882 40.7281 47.902C40.4092 47.9899 40.0763 48.0731 39.7388 48.1471C36.9008 48.8034 33.494 49.2056 30.7899 50.5784C28.4695 51.7848 25.0766 54.2671 22.2015 56.7401L22.2061 56.7355C22.1876 56.7494 22.1737 56.7632 22.1552 56.7771C22.0767 56.8418 22.0027 56.9066 21.9288 56.9759C21.753 57.1284 21.5774 57.2809 21.4064 57.4334C21.3 57.5305 21.1938 57.623 21.0875 57.7201C20.9441 57.8495 20.8009 57.979 20.6622 58.1083C20.5605 58.2008 20.4588 58.2933 20.3618 58.3857C20.1445 58.589 19.9319 58.7878 19.7285 58.9867C19.6592 59.0559 19.5944 59.1207 19.5251 59.1854C19.3772 59.3287 19.2338 59.4719 19.0951 59.6153C19.0166 59.6938 18.9427 59.7724 18.8687 59.851C18.7392 59.985 18.6191 60.1145 18.4989 60.2439C18.4388 60.3132 18.3741 60.3779 18.314 60.4427C18.143 60.6322 17.9766 60.8171 17.8286 60.9974C18.0505 61.0621 18.277 61.1129 18.5081 61.1545C18.6099 61.173 18.7115 61.1822 18.8132 61.1961C18.9473 61.2146 19.0767 61.2331 19.2107 61.2469C19.3309 61.2562 19.4512 61.2608 19.5713 61.2655C19.6915 61.2701 19.8116 61.2793 19.9364 61.2793C20.0612 61.2793 20.1907 61.2747 20.3155 61.2701C20.4357 61.2654 20.5558 61.2608 20.6806 61.2562C20.8101 61.2469 20.9396 61.2331 21.069 61.2192C21.1938 61.2053 21.3186 61.1915 21.4434 61.173C21.5729 61.1545 21.7022 61.1314 21.8362 61.1082C21.9657 61.0852 22.0952 61.0621 22.2245 61.0389C22.354 61.0113 22.4834 60.9835 22.6175 60.9511C22.7515 60.9187 22.8856 60.8865 23.0197 60.8541C23.149 60.8217 23.2785 60.7847 23.4079 60.7478C23.468 60.7293 23.5327 60.7154 23.5928 60.6969C23.5836 60.6969 23.5697 60.7015 23.5604 60.7015C27.5819 59.509 31.9732 56.6292 35.6481 53.6616L35.6434 53.6662C35.6527 53.6569 35.662 53.6477 35.6758 53.6431C35.9624 53.4119 36.2443 53.1762 36.5263 52.9451C36.6002 52.8804 36.6742 52.8203 36.7482 52.7603C36.9608 52.58 37.1688 52.4042 37.3722 52.2286C37.4554 52.1593 37.534 52.0854 37.6172 52.016C37.816 51.8403 38.0148 51.6647 38.2089 51.4937C38.2782 51.4336 38.3476 51.3735 38.4123 51.3088C38.6619 51.0822 38.9115 50.8558 39.1473 50.6339C39.1518 50.6293 39.1565 50.6247 39.161 50.6247C39.4061 50.3981 39.6419 50.1717 39.873 49.9498C39.933 49.8897 39.9931 49.8342 40.0532 49.7741C40.215 49.617 40.3768 49.4598 40.534 49.3072C40.6033 49.2379 40.6726 49.1686 40.742 49.0992C40.8852 48.9513 41.0286 48.8127 41.1626 48.6694C41.2227 48.6093 41.2827 48.5446 41.3429 48.4845C41.5324 48.2903 41.7126 48.1008 41.8837 47.9159C41.8976 47.9113 41.9114 47.9067 41.9253 47.8975C42.7481 47.3566 43.6634 47.0423 44.5739 46.7326C44.6248 46.7141 44.6571 46.6817 44.671 46.6401C45.3736 47.6617 46.1594 48.8034 47.0007 50.0284C46.9961 50.033 46.9868 50.033 46.9868 50.0422C46.4969 51.0222 46.0484 52.0669 45.295 52.8712C45.0917 52.9405 44.8836 53.0144 44.6756 53.093C44.6155 53.1162 44.5555 53.1392 44.4953 53.1623C44.218 53.2687 43.9361 53.3889 43.6495 53.5137C43.5847 53.5414 43.52 53.5738 43.4507 53.6015C43.1595 53.7309 42.8682 53.8696 42.5678 54.0175C42.5493 54.0268 42.5308 54.036 42.5123 54.0452C42.2072 54.1978 41.8929 54.3642 41.5786 54.5353C41.5139 54.5722 41.4446 54.6046 41.3798 54.6415C41.0702 54.8126 40.7559 54.9974 40.4369 55.1824C40.3768 55.2193 40.3121 55.2563 40.252 55.2933C39.9238 55.492 39.5909 55.7001 39.2581 55.9127L39.2536 55.9173C38.9161 56.1346 38.5787 56.3657 38.2366 56.6015C38.1765 56.6431 38.121 56.68 38.0609 56.7216C37.7327 56.9527 37.4046 57.1885 37.0764 57.4289C37.0533 57.4428 37.0348 57.4612 37.0117 57.4751C37.0163 57.4751 37.0163 57.4705 37.0209 57.4705C34.7467 59.1623 32.5279 61.1592 30.6882 63.2901C30.6974 63.2762 30.7067 63.267 30.716 63.2531C30.6558 63.3225 30.5957 63.3964 30.5357 63.4657C30.4525 63.5628 30.3693 63.6598 30.2907 63.7569C30.1936 63.8771 30.0966 63.9927 29.9995 64.1128C29.9163 64.2146 29.8376 64.3163 29.7544 64.4179C29.662 64.5381 29.5696 64.6537 29.4817 64.7738C29.4032 64.8756 29.3246 64.9818 29.2506 65.0836C29.1628 65.2037 29.075 65.3193 28.9918 65.4395C28.9178 65.5412 28.8485 65.6475 28.7746 65.7492C28.6914 65.8694 28.6081 65.9896 28.5295 66.1097C28.4602 66.2114 28.3955 66.3177 28.3308 66.4195C28.2522 66.5396 28.1736 66.6644 28.0997 66.7846C28.0349 66.891 27.9749 66.9926 27.9148 67.0989C27.8454 67.2191 27.7714 67.3393 27.7067 67.4595C27.6421 67.5751 27.5866 67.6907 27.5265 67.8062C27.4664 67.9171 27.4063 68.028 27.3508 68.139C27.2399 68.3655 27.1336 68.5873 27.0365 68.8139C27.2676 68.7307 27.508 68.6382 27.753 68.5457C27.8315 68.518 27.9101 68.4857 27.9887 68.4533C28.1644 68.384 28.3493 68.3146 28.5295 68.2407C28.6174 68.2037 28.7006 68.1714 28.793 68.1343C29.0473 68.0327 29.3014 67.9263 29.5649 67.8154C29.6297 67.7876 29.6991 67.7553 29.7637 67.7276C29.9671 67.6397 30.1751 67.5473 30.3878 67.4549C30.4986 67.404 30.6142 67.3532 30.7298 67.3024C30.9055 67.2237 31.0811 67.1405 31.2614 67.0573C31.377 67.0019 31.4879 66.951 31.6034 66.8955C31.8716 66.7662 32.1443 66.6367 32.417 66.5027C32.5187 66.4518 32.6203 66.4009 32.7221 66.3501C32.9162 66.2531 33.1057 66.156 33.2999 66.0542C33.4247 65.9896 33.5448 65.9249 33.6696 65.8601C33.8591 65.7585 34.0487 65.6567 34.2429 65.5504C34.3214 65.5088 34.4 65.4672 34.4832 65.421C34.474 65.4256 34.4648 65.4303 34.4555 65.4348C38.2875 63.3086 42.1009 60.475 44.1164 57.0313C44.2041 56.8788 44.292 56.7263 44.3752 56.5737C44.4168 56.4905 44.4584 56.4073 44.5 56.3241C44.5647 56.1993 44.6248 56.0745 44.6803 55.945C44.7172 55.8618 44.7542 55.7786 44.7912 55.7001C44.8606 55.5383 44.9252 55.3719 44.9854 55.2101C45.0038 55.1546 45.027 55.0992 45.0454 55.0437C45.1147 54.8496 45.1749 54.6554 45.2257 54.4613C45.2488 54.3873 45.2626 54.3134 45.2858 54.2394C45.3228 54.0868 45.3597 53.9343 45.3921 53.7817C45.406 53.7078 45.4198 53.6385 45.4337 53.5645C45.4614 53.4119 45.4845 53.2548 45.503 53.1023C46.2565 52.3118 46.7233 51.2857 47.1995 50.3057C48.8866 52.7648 50.7864 55.5475 52.7186 58.4042C52.0345 59.0605 51.2765 59.6061 50.5276 60.1745C50.0838 60.2532 49.6447 60.3364 49.2009 60.4242C49.0808 60.4472 48.9606 60.475 48.845 60.4982C48.4475 60.5814 48.05 60.6784 47.6525 60.7801C47.5785 60.7986 47.5046 60.8125 47.4306 60.831C47.4352 60.831 47.4398 60.831 47.4445 60.831C45.4938 61.3533 43.52 62.1159 41.4723 63.4057C38.0517 65.5597 35.1858 67.9218 32.2968 71.0465C32.3199 71.0188 32.3476 70.9864 32.3707 70.9586C32.3015 71.0326 32.2321 71.1158 32.1581 71.1897C32.0796 71.2729 32.0009 71.3608 31.9224 71.4487C31.5434 71.8646 31.1643 72.2945 30.7853 72.7383C30.9379 72.7752 31.0904 72.803 31.2475 72.8354C31.2845 72.84 31.3169 72.8492 31.3538 72.8539C31.5157 72.8816 31.6774 72.9094 31.8438 72.9324C31.853 72.9324 31.8623 72.9324 31.8716 72.9371C32.0287 72.9555 32.1905 72.974 32.3569 72.9879C32.3939 72.9926 32.4308 72.9926 32.4678 72.9971C32.6435 73.011 32.8191 73.0156 33.0041 73.0156C33.0272 73.0156 33.0456 73.0156 33.0688 73.0156C33.2352 73.0156 33.4062 73.011 33.5772 72.9971C33.6142 72.9926 33.6512 72.9926 33.6928 72.9879C33.8823 72.974 34.0765 72.951 34.2798 72.9232C34.3122 72.9186 34.3445 72.9139 34.3723 72.9093C34.5525 72.8816 34.7375 72.8446 34.927 72.8076C34.9639 72.7984 35.0009 72.7938 35.0379 72.7845C35.2505 72.7336 35.4678 72.6782 35.6896 72.6135C35.7036 72.6088 35.7173 72.6088 35.7313 72.6043C35.7267 72.6043 35.722 72.6043 35.7173 72.6088C36.3275 72.424 36.9747 72.1697 37.6681 71.823C41.8929 69.7106 46.6772 66.4472 49.5384 62.3517C49.5338 62.3564 49.5292 62.3656 49.5292 62.3702C49.5384 62.3564 49.5476 62.3425 49.5569 62.3286C49.7372 62.0698 49.9035 61.8109 50.0699 61.5475C50.1116 61.4827 50.1532 61.4227 50.1902 61.3579C50.3705 61.0574 50.5415 60.7478 50.7032 60.438C51.4567 59.8694 52.2148 59.3148 52.9081 58.663C57.8172 65.9202 62.888 73.5657 65.0743 77.3422C65.2314 77.6103 65.6198 77.3006 65.4719 77.0371C63.8494 74.2359 60.4658 69.0033 56.7771 63.4565C57.7247 62.9943 58.7093 62.532 59.4673 61.76C59.4812 61.7462 59.4904 61.7276 59.4997 61.7092C59.5275 61.7046 59.5598 61.7046 59.5783 61.6954C59.9065 61.6121 60.2254 61.5104 60.5351 61.4041C60.586 61.3856 60.6368 61.3717 60.6876 61.3533C60.9835 61.2469 61.2654 61.1314 61.5474 61.0112C61.5982 60.9881 61.6492 60.965 61.7 60.9419C61.9819 60.8125 62.2547 60.6784 62.5181 60.5351C62.5413 60.5212 62.5643 60.5074 62.5874 60.4982C62.8417 60.3595 63.0867 60.2116 63.3224 60.059C63.3594 60.0359 63.401 60.0128 63.438 59.985C63.6183 59.8649 63.7986 59.7446 63.9742 59.6199C63.9557 59.6291 63.9372 59.643 63.9141 59.6522C66.9372 57.5028 68.8046 54.4798 70.3809 52.7972C72.9001 50.1069 74.0002 47.2179 74.6612 44.9206C74.8599 44.2272 75.0264 43.5801 75.1743 43.0162C75.0587 43.0162 74.9339 43.03 74.8045 43.0531C74.7675 43.0578 74.7306 43.067 74.6982 43.0763C74.5919 43.0994 74.4763 43.1271 74.3608 43.1687C74.3331 43.1779 74.3099 43.1826 74.2822 43.1918C74.1435 43.238 74.0048 43.2982 73.8569 43.3628C73.8107 43.3814 73.7645 43.4045 73.7229 43.4275C73.6119 43.483 73.4963 43.5431 73.3762 43.6078C73.3299 43.631 73.2838 43.6587 73.2375 43.6818C73.085 43.7696 72.9324 43.8621 72.7706 43.9637C72.7198 43.9961 72.6689 44.0331 72.6134 44.0655C72.4933 44.144 72.3731 44.2272 72.2483 44.3151C72.1882 44.3567 72.1282 44.3983 72.068 44.4445C71.9016 44.5647 71.7352 44.6895 71.5688 44.8235C71.5226 44.8605 71.4764 44.8975 71.4301 44.9345C71.2914 45.0454 71.1528 45.1564 71.0142 45.2765C70.9494 45.332 70.8847 45.3828 70.82 45.4383C70.6582 45.577 70.4964 45.7156 70.3346 45.859C70.3116 45.8821 70.2838 45.9006 70.2606 45.9237C70.0665 46.0993 69.8724 46.2796 69.6783 46.4645C69.6367 46.5061 69.5904 46.5477 69.5488 46.5893C69.3269 46.7973 69.105 47.0146 68.8832 47.2365C68.8878 47.2318 68.897 47.2271 68.9017 47.2226C66.5118 49.6078 64.0297 52.6585 62.1715 55.4274C62.176 55.4227 62.176 55.4181 62.1807 55.4135C62.1576 55.4459 62.1391 55.4782 62.116 55.5106C62.0975 55.5383 62.079 55.5707 62.0559 55.5984C62.042 55.6168 62.0282 55.6399 62.0143 55.6584L62.0096 55.6631C61.8709 55.8757 61.7369 56.0837 61.6029 56.2917C61.5982 56.301 61.5937 56.3056 61.589 56.3149C61.5752 56.338 61.5613 56.3564 61.5474 56.3796C61.5474 56.3841 61.5428 56.3888 61.5382 56.3934C61.492 56.4673 61.4457 56.5413 61.3995 56.6153C61.3995 56.6199 61.3949 56.6245 61.3949 56.6245C61.3441 56.7031 61.3025 56.7818 61.2516 56.8603C61.1915 56.962 61.1267 57.0637 61.0667 57.1607C61.039 57.207 61.0066 57.2578 60.9789 57.3041C60.9743 57.3133 60.9696 57.3225 60.9604 57.3318C60.9234 57.4012 60.8818 57.4705 60.8448 57.5352C60.8402 57.5398 60.8402 57.549 60.8356 57.549C60.8032 57.6045 60.7708 57.66 60.7385 57.7201C60.72 57.7524 60.7062 57.7801 60.6876 57.8125C60.6553 57.8726 60.6229 57.928 60.5905 57.9882C60.586 57.9974 60.5813 58.002 60.5767 58.0112C60.5444 58.0714 60.512 58.1315 60.4796 58.1962C60.475 58.2101 60.4658 58.2193 60.4612 58.2331C60.4288 58.2979 60.3918 58.3626 60.3594 58.4226C60.3549 58.4273 60.3549 58.4319 60.3502 58.4365C60.3133 58.5058 60.2809 58.5752 60.2439 58.6445C60.2439 58.6492 60.244 58.6492 60.2393 58.6492C60.2069 58.7139 60.1792 58.7786 60.1469 58.8387C60.1422 58.8525 60.133 58.8664 60.1237 58.8803C60.1006 58.9312 60.0729 58.982 60.0498 59.0375C60.0451 59.0513 60.0359 59.0652 60.0313 59.0791C60.0266 59.0836 60.0266 59.0883 60.0221 59.0929C60.0128 59.1114 60.0082 59.1252 59.9989 59.1438C59.9805 59.1807 59.9619 59.2223 59.9434 59.2594C59.9434 59.2594 59.9434 59.2594 59.9389 59.2639C59.9111 59.3287 59.8834 59.3887 59.8556 59.4535C59.851 59.4627 59.8464 59.4766 59.8418 59.4858C59.8232 59.5367 59.8002 59.5829 59.7771 59.6338C59.7678 59.6477 59.7632 59.6661 59.7539 59.6799C59.7355 59.7262 59.717 59.7724 59.6984 59.814C59.6939 59.8278 59.6846 59.8417 59.68 59.8556C59.6338 59.9712 59.5922 60.0821 59.5505 60.1931C59.5459 60.2116 59.5367 60.2208 59.5367 60.2393C59.532 60.2532 59.5275 60.2671 59.5228 60.2855C59.5182 60.304 59.509 60.3179 59.5043 60.3364C59.4997 60.3456 59.4997 60.3503 59.4951 60.3595C59.4904 60.3733 59.4812 60.3918 59.4766 60.4103C59.4627 60.4519 59.4488 60.4888 59.4349 60.5304C59.4304 60.5398 59.4257 60.5582 59.4211 60.5721C59.4072 60.623 59.3888 60.6738 59.3749 60.7246C59.3703 60.7339 59.3703 60.7431 59.3703 60.7523C59.3564 60.7939 59.3472 60.8355 59.3379 60.8726C59.3333 60.891 59.3333 60.9049 59.3287 60.9234C59.3195 60.9558 59.3148 60.9881 59.3056 61.0251C59.3056 61.0389 59.3009 61.0528 59.2963 61.0713C59.2871 61.1129 59.2779 61.1453 59.2732 61.1822C59.2732 61.1915 59.2685 61.2008 59.2685 61.2053C59.2593 61.2516 59.2547 61.2932 59.2455 61.3348C59.2455 61.3487 59.2408 61.3579 59.2408 61.3672C59.2362 61.3995 59.2363 61.4319 59.2316 61.4596C59.227 61.4735 59.2316 61.4873 59.227 61.5012C59.2224 61.5243 59.2224 61.5475 59.2224 61.5705C58.4735 62.3148 57.5121 62.7539 56.5876 63.2069C55.247 61.1961 53.8742 59.1438 52.5337 57.1561C53.2733 56.4628 53.8835 55.6585 54.5445 54.8865C54.8403 54.7294 55.1269 54.5675 55.4089 54.4058C55.5013 54.3503 55.5984 54.2995 55.6908 54.244C56.0838 54.0129 56.4674 53.7772 56.8372 53.5368C56.9019 53.4952 56.9667 53.449 57.0313 53.4074C57.3734 53.1855 57.7062 52.959 58.0297 52.7279C58.0899 52.6863 58.15 52.6447 58.21 52.5984C58.566 52.3442 58.9173 52.0807 59.264 51.8126C59.3379 51.7526 59.4165 51.6924 59.4904 51.637C59.8186 51.3781 60.1469 51.1193 60.4658 50.8466C61.6492 49.862 62.8001 48.7988 64.0065 47.6478C64.8478 46.8435 65.4904 46.2102 66.0497 45.5631C66.045 45.5724 66.0404 45.577 66.0358 45.5863C66.0727 45.5447 66.1098 45.4984 66.1467 45.4568C66.1837 45.4106 66.2253 45.3644 66.2623 45.3181C66.3778 45.1748 66.4934 45.0316 66.6044 44.8837C66.6367 44.8421 66.6691 44.7958 66.7014 44.7542C66.8124 44.6017 66.9279 44.4399 67.0343 44.2781C67.062 44.2365 67.0897 44.1903 67.122 44.1487C67.2376 43.973 67.3486 43.7928 67.4641 43.6033C67.4873 43.5662 67.5057 43.5293 67.5289 43.4923C67.6537 43.2796 67.7785 43.0624 67.9032 42.8267C69.0866 40.6171 69.706 38.5833 69.8631 36.6927C68.6382 37.3029 67.6259 37.8576 66.1051 38.8144C65.9618 38.9069 65.8092 39.0085 65.6568 39.1195C65.6152 39.1519 65.5689 39.1842 65.5227 39.2165C65.4072 39.3044 65.2869 39.3968 65.1668 39.4939C65.1206 39.5308 65.079 39.5632 65.0327 39.6002C64.8755 39.7297 64.7138 39.8637 64.5474 40.007C64.5427 40.007 64.5427 40.0116 64.5427 40.0116C64.3671 40.1641 64.1914 40.3259 64.0158 40.4877C63.9788 40.52 63.9465 40.5524 63.9094 40.5848C63.7662 40.7188 63.6229 40.8575 63.475 40.9962C63.438 41.0331 63.3964 41.0701 63.3594 41.1071C63.1976 41.2642 63.0359 41.4261 62.8741 41.5925C62.8602 41.6064 62.8509 41.6156 62.8371 41.6295C62.6614 41.8051 62.4904 41.9807 62.324 42.161C62.2731 42.2119 62.2223 42.2674 62.176 42.3182C62.0698 42.4337 61.9588 42.5446 61.8525 42.6602C61.8156 42.6972 61.7785 42.7388 61.7416 42.7804C61.7462 42.7758 61.7508 42.7758 61.7508 42.7712C61.0112 43.5709 60.3317 44.3474 59.8187 44.9668C58.6491 46.2889 57.7386 47.597 56.9759 48.919C56.9805 48.9144 56.9805 48.9052 56.9851 48.9005C56.9759 48.9144 56.9712 48.9282 56.962 48.9468C56.68 49.432 56.4212 49.9221 56.1762 50.412C56.1715 50.4212 56.167 50.4259 56.1623 50.4351C55.6585 51.4475 55.2147 52.4736 54.7848 53.5137C54.7848 53.5183 54.7802 53.5229 54.7802 53.5275C54.6276 53.902 54.4751 54.281 54.3226 54.6601C53.6708 55.4135 53.0745 56.2132 52.3488 56.8973C50.902 54.7571 49.5015 52.7048 48.2256 50.8511C48.9653 50.1485 49.58 49.3396 50.2502 48.5723C51.4429 48.1516 54.0961 46.6725 56.9065 44.3428C56.9528 44.3059 56.9944 44.2688 57.0406 44.2319C57.1839 44.1117 57.3271 43.9869 57.4751 43.8621C57.5629 43.7834 57.6507 43.7096 57.7432 43.631C57.8495 43.5385 57.9558 43.4369 58.0621 43.3443C58.1731 43.2427 58.284 43.1456 58.395 43.0439C58.3903 43.0485 58.3857 43.0485 58.3811 43.0531C60.2439 41.3244 62.0744 39.2489 63.5027 36.873C63.5027 36.8776 63.4981 36.8776 63.4981 36.8823C63.8494 36.2952 64.1822 35.685 64.478 35.061C64.5104 34.9917 64.5427 34.9131 64.5751 34.8438C64.686 34.6034 64.797 34.3676 64.8941 34.1227C64.9911 33.8916 65.0743 33.6558 65.1622 33.42C65.1945 33.3322 65.2314 33.2444 65.2638 33.1566C65.7261 31.8484 66.0404 30.4801 66.1698 29.0518C65.6568 29.3708 65.1576 29.7082 64.6675 30.0503C64.5427 30.1381 64.4225 30.2213 64.3024 30.3092C63.8355 30.6466 63.3779 30.9886 62.9341 31.3446C62.8417 31.4185 62.7585 31.4925 62.6661 31.5618C62.287 31.8715 61.9126 32.1859 61.5521 32.5048C61.4457 32.5973 61.3394 32.6897 61.2331 32.7868C60.8263 33.1519 60.4335 33.5263 60.0544 33.9008C59.9481 34.0025 59.851 34.1088 59.7447 34.2105C59.4211 34.5387 59.1021 34.8715 58.8017 35.2043C58.7278 35.2829 58.6538 35.3615 58.5845 35.44C58.5706 35.4539 58.5614 35.4677 58.5475 35.4771C58.5475 35.4771 58.5567 35.4677 58.5614 35.4632C57.3549 36.8175 56.3102 38.195 55.4736 39.5402C53.4859 42.7157 51.8865 45.2857 50.9159 46.8805C50.8835 46.936 50.8512 46.9868 50.8188 47.0377C50.7541 47.1439 50.694 47.2457 50.6339 47.3427C50.5877 47.4213 50.5415 47.4953 50.4998 47.5646C50.4582 47.6293 50.4213 47.694 50.3843 47.7541C50.3427 47.8235 50.3011 47.8928 50.2641 47.9575C50.2318 48.013 50.2041 48.0639 50.1763 48.11C50.1486 48.1563 50.1209 48.2071 50.0977 48.2487C50.0931 48.2534 50.0931 48.2534 50.0885 48.258C49.4044 49.0345 48.7895 49.862 48.0408 50.5738C46.349 48.1147 44.8975 46.0346 43.8945 44.6386C44.5092 43.7742 45.221 42.9653 45.7712 42.0547C45.7757 42.0455 45.7712 42.0408 45.7757 42.0316C45.9746 41.9068 46.1779 41.7727 46.3813 41.6341C46.4506 41.5879 46.5246 41.537 46.594 41.4861C46.8528 41.3058 47.1163 41.1163 47.3798 40.9176C47.3982 40.9038 47.4167 40.8899 47.4352 40.876C47.6941 40.6772 47.9529 40.4692 48.2117 40.2566C48.2857 40.1965 48.3551 40.1364 48.429 40.0764C48.7018 39.8498 48.9745 39.6141 49.2472 39.3737C49.2564 39.3691 49.261 39.3599 49.2703 39.3552C49.5431 39.1148 49.8111 38.8606 50.0793 38.6018C50.1439 38.5417 50.2041 38.4815 50.2687 38.4215C50.828 37.8807 51.3827 37.3121 51.9236 36.7204C51.9744 36.6649 52.0252 36.6095 52.0761 36.554C55.7279 32.5233 58.871 27.4017 59.5644 22.8301C59.5644 22.8348 59.5644 22.8393 59.5644 22.8393C59.5691 22.8116 59.5691 22.7793 59.5736 22.7516C59.6152 22.4603 59.6476 22.1691 59.6661 21.8825C59.6754 21.7808 59.68 21.6791 59.6846 21.5774C59.6984 21.2631 59.7078 20.9442 59.6984 20.6391C59.5922 20.676 59.4766 20.7315 59.3611 20.787C59.3287 20.8055 59.2963 20.824 59.264 20.8424C59.1808 20.8887 59.0929 20.9395 59.0051 20.995C58.9635 21.0227 58.9219 21.0505 58.8803 21.0782C58.7971 21.1337 58.7093 21.1938 58.6214 21.2585C58.5752 21.2909 58.5336 21.3232 58.4874 21.3602C58.3996 21.4295 58.3071 21.4989 58.2147 21.5728C58.1684 21.6098 58.1223 21.6468 58.0807 21.6837C57.9789 21.7669 57.8772 21.8593 57.7756 21.9519C57.7386 21.9888 57.697 22.0212 57.66 22.0582C57.5167 22.1876 57.3734 22.3262 57.2255 22.4742C57.0868 22.6082 56.9481 22.7516 56.8095 22.8994C56.8141 22.8994 56.8141 22.8948 56.8187 22.8948C55.0946 24.7022 53.1069 27.3786 51.2579 30.3092C51.2579 30.3045 51.2626 30.3 51.2626 30.2953C51.2394 30.3323 51.2163 30.3739 51.1932 30.4108C51.087 30.5819 50.9806 30.7529 50.8743 30.9239C50.8188 31.0118 50.7633 31.1042 50.7079 31.1921C50.6016 31.363 50.4999 31.5341 50.3982 31.7051C50.3427 31.7929 50.2918 31.8854 50.241 31.9732C50.1347 32.1489 50.033 32.3245 49.9313 32.5002C49.8851 32.5834 49.8388 32.662 49.788 32.7452C49.6817 32.9301 49.5754 33.115 49.4691 33.3044C49.4413 33.3554 49.4089 33.4108 49.3812 33.4617C48.9883 34.1596 48.6093 34.8622 48.2533 35.5603C48.2395 35.5833 48.2303 35.6064 48.2164 35.6296C48.1193 35.8191 48.0222 36.0086 47.9298 36.1981C47.8928 36.2721 47.8512 36.3506 47.8142 36.4246C47.7265 36.6003 47.6433 36.7713 47.5646 36.9423C47.523 37.0347 47.4768 37.1226 47.4352 37.2104C47.3566 37.3769 47.2827 37.5386 47.2087 37.7004C47.1624 37.7975 47.1209 37.8945 47.0747 37.9916C47.0053 38.1488 46.936 38.3014 46.8667 38.4585C46.8204 38.5602 46.7788 38.6618 46.7326 38.7636C46.6678 38.9114 46.6078 39.0593 46.5477 39.2073C46.5014 39.3136 46.4599 39.4199 46.4183 39.5216C46.3629 39.6603 46.3074 39.8036 46.2519 39.9377C46.2103 40.0486 46.1687 40.1596 46.1271 40.2705C46.0808 40.3999 46.03 40.5293 45.9838 40.6541C45.9375 40.7835 45.8959 40.9083 45.8497 41.0331C45.8127 41.1394 45.7757 41.2458 45.7388 41.3474C45.688 41.5093 45.6371 41.6619 45.5909 41.819C45.5724 41.8328 45.5539 41.8328 45.54 41.8559C45.0038 42.7388 44.3244 43.5246 43.7188 44.3659C42.3136 42.406 40.95 40.4276 39.5817 38.4538C40.1226 37.608 40.5524 36.702 41.0147 35.8098L41.5925 35.6573C41.8883 35.5695 42.1749 35.4632 42.4569 35.3429C42.5493 35.3013 42.6371 35.2597 42.7296 35.2136C42.9192 35.1257 43.1086 35.0286 43.2935 34.9223C43.386 34.8669 43.4831 34.8161 43.5755 34.7559C43.765 34.6358 43.9545 34.511 44.1394 34.3768C44.2088 34.326 44.2781 34.2799 44.3474 34.2289C49.6216 30.1797 51.8496 19.9134 51.8404 12.9889C51.8404 12.9936 51.8404 12.9982 51.8404 13.0028C51.845 12.9566 51.845 12.9104 51.845 12.8596Z" fill="#CDDAE7"/>
<path d="M85.352 95.1015C99.9391 95.1015 111.764 93.8143 111.764 92.2264C111.764 90.6384 99.9391 89.3512 85.352 89.3512C70.765 89.3512 58.9397 90.6384 58.9397 92.2264C58.9397 93.8143 70.765 95.1015 85.352 95.1015Z" fill="#DDEBFA"/>
<path d="M100.915 13.1995C104.012 13.1995 106.522 10.6892 106.522 7.59255C106.522 4.4959 104.012 1.98556 100.915 1.98556C97.8185 1.98556 95.3078 4.4959 95.3078 7.59255C95.3078 10.6892 97.8185 13.1995 100.915 13.1995Z" fill="#EAF0F9"/>
<path d="M148.889 8.34914V11.4831H149.569V8.34914C149.569 8.12264 149.416 7.94237 149.231 7.94237C149.047 7.94237 148.889 8.12727 148.889 8.34914Z" fill="#E5803C"/>
<path d="M148.889 22.0479C148.889 22.2744 149.042 22.4547 149.226 22.4547C149.411 22.4547 149.564 22.2698 149.564 22.0479V19.1034H148.885V22.0479H148.889Z" fill="#E5803C"/>
<path d="M141.969 15.2029C141.969 15.3878 142.155 15.5403 142.376 15.5403H145.51V14.8609H142.376C142.15 14.8654 141.969 15.018 141.969 15.2029Z" fill="#E5803C"/>
<path d="M156.077 14.8609H153.133V15.5403H156.077C156.304 15.5403 156.484 15.3878 156.484 15.2029C156.484 15.0134 156.304 14.8609 156.077 14.8609Z" fill="#E5803C"/>
<path d="M144.142 10.5991L146.356 12.8132L146.837 12.3325L144.623 10.1183C144.461 9.95655 144.225 9.93807 144.096 10.0675C143.961 10.2015 143.984 10.4419 144.142 10.5991Z" fill="#E5803C"/>
<path d="M153.83 20.2914C153.992 20.4533 154.228 20.4717 154.357 20.3423C154.491 20.2082 154.468 19.9726 154.306 19.8154L152.221 17.7306L151.741 18.2113L153.83 20.2914Z" fill="#E5803C"/>
<path d="M144.096 20.3367C144.23 20.4709 144.465 20.4477 144.623 20.2859L146.837 18.0718L146.356 17.5911L144.142 19.8052C143.984 19.967 143.961 20.2027 144.096 20.3367Z" fill="#E5803C"/>
<path d="M153.83 10.1194L151.746 12.2041L152.226 12.6849L154.311 10.6002C154.473 10.4384 154.491 10.2027 154.362 10.0732C154.228 9.93455 153.988 9.95766 153.83 10.1194Z" fill="#E5803C"/>
<path d="M25.1543 76.5888H23.176V75.4054H25.1543V73.3115H26.3655V75.4054H28.3438V76.5888H26.3655V78.6827H25.1543V76.5888Z" fill="#E5803C"/>
<path d="M149.682 60.0472H146.812V58.3277H149.682V55.286H151.443V58.3277H154.314V60.0472H151.443V63.0887H149.682V60.0472Z" fill="#729EDB"/>
<path d="M122.392 82.2044H37.6979C35.5294 82.2044 33.7549 80.4299 33.7549 78.2615V22.806C33.7549 20.6376 35.5294 18.863 37.6979 18.863H122.392C124.561 18.863 126.335 20.6376 126.335 22.806V78.2615C126.335 80.4299 124.561 82.2044 122.392 82.2044Z" fill="#C5DAEF"/>
<path d="M122.392 19.313H37.6979C35.5294 19.313 33.7549 21.0875 33.7549 23.2559V73.6061H126.335V23.2559C126.335 21.0875 124.561 19.313 122.392 19.313Z" fill="#284C7D"/>
<path d="M89.5615 82.2077H70.5327V90.5617H89.5615V82.2077Z" fill="#7AA9D7"/>
<path d="M123.087 22.8031H37.0038V69.6745H123.087V22.8031Z" fill="#D7E7F5"/>
<path d="M81.7846 78.7255H78.3057C77.5413 78.7255 76.9133 78.0975 76.9133 77.3332C76.9133 76.5687 77.5413 75.9408 78.3057 75.9408H81.7846C82.549 75.9408 83.1768 76.5687 83.1768 77.3332C83.1768 78.0975 82.5529 78.7255 81.7846 78.7255Z" fill="#7AA9D7"/>
<path d="M97.4472 93.5761V93.1119C97.4472 91.7078 96.3005 90.5612 94.8967 90.5612H65.1975C63.7935 90.5612 62.6468 91.7078 62.6468 93.1119V93.5761H97.4472Z" fill="#C5DAEF"/>
<path d="M109.647 24.5251H50.182V67.8552H109.647V24.5251Z" fill="#D7E7F5"/>
<path d="M106.402 28.2635H87.5372V43.4739H106.402V28.2635Z" fill="white"/>
<path d="M84.5067 28.2635H53.7622V64.2888H84.5067V28.2635Z" fill="white"/>
<path d="M75.3454 51.028C75.3454 52.1941 75.0218 53.2861 74.4562 54.2143L78.0443 56.3828C78.992 54.8189 79.5341 52.9858 79.5341 51.028H75.3454Z" fill="#78C4CF"/>
<path d="M64.9595 60.4364C66.2349 60.998 67.6427 61.31 69.1248 61.31C72.8845 61.31 76.2308 59.3872 78.0443 56.3919L74.4563 54.2235C73.3759 56.0058 71.3595 57.1174 69.1248 57.1174C68.2434 57.1174 67.4049 56.9301 66.6443 56.5986L64.9595 60.4364Z" fill="#ED971B"/>
<path d="M64.975 60.429L66.6793 56.5991C65.2832 55.979 64.1638 54.8557 63.5437 53.4556L59.706 55.1482C60.7473 57.496 62.631 59.3837 64.975 60.429Z" fill="#284C7D"/>
<path d="M59.7021 55.1368L63.5398 53.4441C63.2045 52.6836 63.0133 51.8412 63.0133 50.9559C63.0133 49.8522 63.3058 48.8147 63.8128 47.9216L60.1624 45.8545C59.3083 47.36 58.8207 49.0994 58.8207 50.9559C58.8207 52.4457 59.1366 53.8615 59.7021 55.1368Z" fill="#284C7D"/>
<path d="M67.2489 45.1828L65.919 41.2086C63.4619 42.012 61.4065 43.7086 60.1429 45.916L63.7934 47.983C64.5461 46.6648 65.7786 45.6546 67.2489 45.1828Z" fill="#284C7D"/>
<path d="M69.1833 40.6811C68.0445 40.6811 66.9486 40.8684 65.9228 41.2076L67.2411 45.1857C67.8534 44.9829 68.5047 44.8737 69.1833 44.8737C72.5881 44.8737 75.3455 47.6311 75.3455 51.0359H79.5381C79.5342 45.3145 74.9008 40.6811 69.1833 40.6811Z" fill="#729EDB"/>
<path d="M81.882 32.0175H56.3909V33.1057H81.882V32.0175Z" fill="#729EDB"/>
<path d="M81.8781 34.546H56.3871V35.6341H81.8781V34.546Z" fill="#729EDB"/>
<path d="M81.8664 37.0048H56.3754V38.0929H81.8664V37.0048Z" fill="#729EDB"/>
<path d="M106.402 45.2107H87.5372V64.2861H106.402V45.2107Z" fill="white"/>
<path d="M103.336 54.2079H90.595V55.296H103.336V54.2079Z" fill="#729EDB"/>
<path d="M103.332 56.7365H90.591V57.8246H103.332V56.7365Z" fill="#729EDB"/>
<path d="M103.329 59.1951H90.587V60.2833H103.329V59.1951Z" fill="#729EDB"/>
<path d="M104.659 41.919H89.2765C89.0423 41.919 88.8556 41.7396 88.8556 41.5133C88.8556 41.291 89.0423 41.1078 89.2765 41.1078H104.659C104.892 41.1078 105.08 41.2872 105.08 41.5133C105.08 41.7357 104.892 41.919 104.659 41.919Z" fill="#729EDB"/>
<path d="M101.464 34.5109L98.2464 36.6013L96.511 35.7668L92.9191 37.354L89.897 35.6576V34.1326L92.7553 35.2207L95.0804 34.1794L98.2037 30.7395L100.111 32.4009L104.659 29.0547V36.9914L101.464 34.5109Z" fill="#284C7D"/>
<path d="M92.8526 38.6489L96.4882 37.0421L98.3407 37.9313L101.399 35.9422L104.659 38.4695V39.6668H89.897V36.9913L92.8526 38.6489Z" fill="#ED971B"/>
<path d="M106.228 109.207C131.999 109.207 152.89 88.3161 152.89 62.5458C152.89 36.7755 131.999 15.8846 106.228 15.8846C80.4582 15.8846 59.5673 36.7755 59.5673 62.5458C59.5673 88.3161 80.4582 109.207 106.228 109.207Z" fill="url(#paint0_linear_1_140)"/>
<path d="M115.446 111.676C130.033 111.676 141.858 110.39 141.858 108.801C141.858 107.214 130.033 105.926 115.446 105.926C100.858 105.926 89.0333 107.214 89.0333 108.801C89.0333 110.39 100.858 111.676 115.446 111.676Z" fill="#CDDAE7"/>
<path d="M100.776 105.261L100.745 108.237L130.146 108.543L130.177 105.567L100.776 105.261Z" fill="#264C5F"/>
<path d="M133.16 52.6523C133.353 34.1072 133.363 33.1087 133.363 33.1087L100.008 32.762C100.008 32.762 99.9798 35.2535 99.8041 52.3056C99.6423 67.6243 111.101 76.393 113.431 78.0154C113.426 79.0278 113.316 81.792 112.345 85.5454C111.106 90.325 106.558 91.5869 106.558 91.5869L105.993 91.5822C105.241 91.573 104.616 92.1832 104.611 92.9366C104.602 93.69 105.213 94.3141 105.966 94.3188L116.112 94.4251L126.258 94.5313C127.012 94.5405 127.636 93.9305 127.64 93.1769C127.65 92.4235 127.039 91.7995 126.286 91.7949L125.722 91.7902C125.722 91.7902 121.197 90.4359 120.06 85.6332C119.098 81.5701 119.112 78.6764 119.135 77.8814C121.895 76.282 132.988 68.8862 133.16 52.6523Z" fill="#E39D41"/>
<path d="M130.012 74.2708C129.429 74.2663 128.833 74.123 128.325 73.8086C127.4 73.2354 126.97 72.2046 127.142 70.9843C127.303 69.8333 128.541 68.8303 131.569 66.4775C135.952 63.0707 142.576 57.9214 144.772 51.4038C146.412 46.1851 146.458 42.1035 144.896 39.6259C143.971 38.1606 142.497 37.2361 140.625 36.9449C135.67 37.2546 135.513 40.5643 135.517 41.0357C135.541 41.2992 135.813 43.8461 137.893 44.2252C138.503 44.3361 138.905 44.9186 138.794 45.5287C138.684 46.1389 138.101 46.541 137.49 46.4301C134.385 45.8615 133.377 42.7321 133.28 41.1605C133.28 41.1513 133.28 41.1421 133.28 41.1327C133.28 41.0727 133.146 35.0959 140.62 34.703C140.694 34.6984 140.764 34.703 140.837 34.7123C143.394 35.0728 145.51 36.3948 146.796 38.4333C148.747 41.5304 148.783 46.1297 146.907 52.1018C144.49 59.2804 137.542 64.6794 132.947 68.2525C131.389 69.4635 129.629 70.8318 129.356 71.3588C129.309 71.784 129.448 71.8718 129.508 71.9134C129.836 72.1169 130.464 72.0382 130.65 71.9088C131.158 71.5575 131.856 71.6916 132.208 72.2001C132.554 72.7131 132.424 73.4065 131.916 73.7578C131.435 74.0767 130.737 74.2755 130.012 74.2708Z" fill="#EDBB45"/>
<path d="M102.913 93.9037L102.793 105.352L128.681 105.621L128.801 94.1729L102.913 93.9037Z" fill="#264C5F"/>
<path d="M123.569 103.248L107.427 103.082L106.687 102.389L106.743 97.0354L107.455 96.2543L123.637 96.4252L124.293 97.1787L124.239 102.485L123.569 103.248Z" fill="#F5D048"/>
<path d="M103.308 74.3467C103.89 74.342 104.487 74.2033 104.999 73.889C105.925 73.3158 106.359 72.2896 106.193 71.0694C106.035 69.9183 104.801 68.9106 101.778 66.5486C97.4055 63.128 90.7995 57.9556 88.6273 51.4287C87.005 46.2007 86.9723 42.1192 88.5439 39.6508C89.4731 38.1901 90.9524 37.2703 92.8248 36.9837C97.7798 37.3119 97.9228 40.6169 97.9178 41.093C97.895 41.3565 97.613 43.8987 95.5282 44.2732C94.9186 44.3841 94.5165 44.9666 94.6227 45.5721C94.7329 46.1823 95.3107 46.5844 95.9213 46.4781C99.0278 45.9188 100.049 42.7941 100.151 41.2224C100.151 41.2131 100.151 41.2039 100.151 41.1947C100.156 41.1346 100.308 35.1624 92.8337 34.7418C92.7593 34.7372 92.6908 34.7418 92.6163 34.7511C90.0559 35.107 87.9383 36.4198 86.6486 38.4536C84.6843 41.5414 84.6334 46.1407 86.4918 52.122C88.8864 59.3099 95.8101 64.732 100.396 68.319C101.949 69.5347 103.706 70.9122 103.978 71.4391C104.024 71.8644 103.885 71.9522 103.826 71.9892C103.497 72.1926 102.869 72.1094 102.684 71.9799C102.176 71.6286 101.478 71.758 101.127 72.2666C100.775 72.775 100.904 73.473 101.412 73.8242C101.889 74.1478 102.587 74.3512 103.308 74.3467Z" fill="#F5D048"/>
<path d="M115.728 32.9797L99.1389 32.8087C99.1389 32.8087 99.1111 35.2817 98.9354 52.2136C98.7776 67.4259 110.232 76.1299 112.561 77.7432C112.558 78.7509 112.446 81.4919 111.475 85.2222C110.237 89.9694 105.688 91.2175 105.688 91.2175L105.124 91.2129C104.371 91.2037 103.747 91.8092 103.743 92.558C103.734 93.3068 104.343 93.9262 105.097 93.9309L115.243 94.0372L115.645 94.0417L115.728 32.9797Z" fill="#F5D048"/>
<path d="M105.083 55.8096C105.259 38.7575 105.286 36.2661 105.286 36.2661L101.802 36.2291C101.802 36.2291 101.783 37.944 101.626 53.161C101.529 62.3503 105.901 68.8957 109.378 72.6398C107.002 68.4381 105.009 62.8125 105.083 55.8096Z" fill="white"/>
<path d="M73.9571 103.49C81.9042 103.49 88.3463 102.672 88.3463 101.664C88.3463 100.655 81.9042 99.8376 73.9571 99.8376C66.0099 99.8376 59.5675 100.655 59.5675 101.664C59.5675 102.672 66.0099 103.49 73.9571 103.49Z" fill="#CDDAE7"/>
<path d="M71.034 84.4028C70.6734 85.4197 70.4285 86.6446 70.3499 87.9805C70.1511 91.4011 70.7105 92.6307 71.6997 98.1174L72.9246 98.2006C73.4377 95.5752 73.9184 90.9065 74.1357 87.2225C74.1865 86.335 74.2235 85.4659 74.2513 84.6246L71.034 84.4028Z" fill="#F7CCCF"/>
<path d="M77.3942 84.3004C76.9228 85.2526 76.5252 86.4313 76.271 87.7395C75.6192 91.0907 75.9706 92.3896 76.137 97.955L77.2602 98.2138C78.0968 95.6901 79.6176 91.4143 80.1446 88.4005C80.6715 85.3867 80.5883 84.721 80.7779 83.6117L77.3942 84.3004Z" fill="#F7CCCF"/>
<path d="M75.8966 101.54C75.3928 100.915 74.6625 101.207 74.0107 100.056C73.3543 98.9048 73.1971 98.3038 73.1971 98.3038L72.3974 98.2067C72.3558 98.3038 72.2726 98.3686 72.1802 98.3639C72.0785 98.3593 71.9999 98.2715 71.9768 98.1559L71.6487 98.1467C71.302 98.3686 71.0061 99.2052 70.9461 100.227C70.909 100.883 70.9738 101.479 71.1124 101.891L71.57 101.923C71.5377 101.451 71.5331 100.911 71.5608 100.337L72.0323 100.652L72.5962 101.997L76.0122 102.233C76.0029 102.229 76.4004 102.163 75.8966 101.54Z" fill="#16415D"/>
<path d="M80.3804 101.842C79.8766 101.218 79.1462 101.509 78.4944 100.358C77.8381 99.2072 77.681 98.6063 77.681 98.6063L76.8813 98.5092C76.8397 98.6063 76.7565 98.671 76.664 98.6664C76.5623 98.6618 76.4837 98.5739 76.4606 98.4584L76.1324 98.4491C75.7857 98.671 75.4899 99.5077 75.4298 100.529C75.3929 101.185 75.4575 101.782 75.5962 102.193L76.0539 102.226C76.0215 101.754 76.0168 101.213 76.0446 100.64L76.5161 100.955L77.08 102.299L80.496 102.535C80.4867 102.531 80.8843 102.466 80.3804 101.842Z" fill="#16415D"/>
<path d="M70.7936 85.2826C70.3221 84.4321 69.3745 82.7265 69.0925 81.5986C68.4407 78.9869 67.8074 77.9469 68.8938 73.0332L72.2496 72.9546C72.9614 75.1965 73.6871 79.2318 74.057 82.4398C74.1448 83.2117 74.2141 83.9652 74.2696 84.7048L70.7936 85.2826Z" fill="#F7CCCF"/>
<path d="M78.1384 84.1707C77.7547 83.3064 76.9921 81.5776 76.7425 80.4451C76.1739 77.8242 75.6654 76.7657 76.3542 71.9075L78.9058 71.9353C79.5113 74.1956 80.1723 78.2356 80.5421 81.4435C80.6299 82.2155 80.7038 82.969 80.764 83.7039L78.1384 84.1707Z" fill="#F7CCCF"/>
<path d="M77.3344 84.8626C77.0062 83.9936 76.3451 82.2463 76.1233 81.1138C75.6055 78.4837 75.1711 77.4159 75.6241 72.5901L77.6903 72.6872C78.2265 74.9568 78.8551 79.006 79.2203 82.2093C79.3081 82.9813 79.3867 83.7347 79.4514 84.4697L77.3344 84.8626Z" fill="#FFB9B9"/>
<path d="M76.1556 51.2461C75.7026 52.0966 77.7596 54.3107 80.7504 56.2013C81.6101 56.7422 83.5145 57.7683 85.1088 58.0503C89.075 58.7482 93.6558 58.0642 93.9794 57.4586C94.2713 56.9086 90.8591 56.4833 87.6007 55.5403C85.8117 55.0226 84.0693 54.1489 83.0106 53.4787C81.2495 52.3693 79.9968 47.5574 78.809 47.3032C77.9815 47.1275 76.3406 50.8994 76.1556 51.2461Z" fill="#FFB9B9"/>
<path d="M92.0335 56.9493C92.0335 57.8137 93.5495 58.5163 94.8948 58.5163C96.235 58.5163 97.2894 57.1804 97.2894 56.316C97.2894 55.6689 95.7406 56.8845 94.8769 56.8245C94.59 56.806 95.2323 55.3869 94.8948 55.3869C94.2246 55.3869 94.3031 56.2883 93.8642 56.5702C93.4254 56.8522 92.0335 56.5194 92.0335 56.9493Z" fill="#FFB9B9"/>
<path d="M78.9796 39.7265C77.9119 44.6678 78.1615 45.5646 77.8703 45.4999C76.2848 45.1532 74.251 42.5555 74.251 39.3151C74.251 36.0748 75.2956 33.4446 76.5852 33.4446C77.8748 33.4446 79.6591 36.574 78.9796 39.7265Z" fill="#1C3054"/>
<path d="M72.5684 45.1327C73.1 45.4101 73.7333 46.2051 74.3388 46.4224C75.6007 46.8754 76.65 45.3916 77.2324 45.0357C77.0059 44.6196 76.1831 44.0418 76.1831 43.4502C76.1831 42.6413 76.2247 41.9295 76.6177 41.4995V40.4872H74.2509C74.1493 42.3778 73.5114 44.0326 72.5684 45.1327Z" fill="#FFB9B9"/>
<path d="M78.411 36.196C78.1476 34.4765 76.6822 34.7908 75.6145 35.0635C74.9303 35.2392 74.3341 35.5212 74.0752 36.5381C73.9226 36.3717 73.7562 36.8247 73.5806 36.8756C73.22 36.9865 73.0258 37.2084 73.1461 37.8647C73.2663 38.5211 73.6546 39.3577 74.0151 39.2468C74.0335 39.2422 74.0474 39.2284 74.0659 39.2237C74.1908 39.746 74.1261 40.2083 74.3941 40.5734C74.9211 41.2991 75.9334 41.6968 76.6037 41.706C78.7993 41.7384 78.6745 37.9156 78.411 36.196Z" fill="#F7CCCF"/>
<path d="M79.1738 34.8799C78.9982 33.7012 76.5067 32.6519 74.7964 32.9431C73.7101 33.1281 73.2062 33.1188 72.2725 34.4038C71.3388 35.6889 71.3111 41.3282 71.4683 41.7627C71.8612 42.8351 73.5761 44.4021 74.1077 44.4252C74.1817 44.4298 74.3712 42.5531 74.3157 41.0601C74.2833 40.1032 73.9967 39.3036 74.0245 39.2666C73.835 39.2065 73.6455 39.0401 73.516 38.8044C73.2988 38.4022 73.3357 37.9446 73.5992 37.7828C73.8164 37.6487 74.1169 37.7597 74.3388 38.0232C74.519 37.131 74.8888 36.1881 76.4466 36.4747C78.1522 36.7798 79.3494 36.054 79.1738 34.8799Z" fill="url(#paint1_linear_1_140)"/>
<path d="M68.9629 59.9785C70.2849 57.8615 71.5746 53.5302 71.5746 51.9632C71.5746 49.8554 70.2711 48.1451 68.6624 48.1451C68.3158 48.1451 67.9876 48.2283 67.6779 48.3716C68.5562 45.8986 71.9305 43.3008 72.7163 42.7785C72.8365 42.7 72.9521 42.6306 73.063 42.5658L76.0214 45.9079L77.103 44.7569C78.0044 45.404 79.9458 47.0866 80.5051 49.8369C81.2401 53.447 78.8457 56.0679 78.7162 58.5825C78.5868 61.0971 78.5868 65.8305 78.5868 65.8305H68.7411C68.7503 65.8351 69.1016 63.339 68.9629 59.9785Z" fill="url(#paint2_linear_1_140)"/>
<path d="M68.9445 63.5578C69.0277 63.4238 69.1155 63.2943 69.2126 63.1742C71.0061 63.8998 73.8766 64.4083 75.8273 64.547C77.422 64.6579 78.3002 64.3944 78.7903 63.9137C78.7995 63.9414 78.8133 63.9646 78.8226 63.9924C80.3758 68.0831 80.8287 78.9643 80.8287 78.9643C80.8287 78.9643 67.4977 80.2401 67.6179 79.4866C68.6163 73.3158 66.7904 67.0523 68.9445 63.5578Z" fill="url(#paint3_linear_1_140)"/>
<path d="M68.3899 48.1504C69.6287 48.2659 70.7566 48.9917 71.6256 50.1288C71.4962 51.3815 71.2281 52.9484 70.9276 54.6958C70.202 58.9299 68.6165 62.2072 67.3915 62.0085C66.1666 61.8096 65.7967 58.2227 66.4948 53.9839C67.0032 50.8591 67.6826 49.1119 68.3899 48.1504Z" fill="#FFB9B9"/>
<path d="M68.279 61.5884C68.7274 62.0229 70.0401 60.932 72.9384 58.1262C75.8412 55.3204 77.8289 52.6948 77.3805 52.2604C76.9321 51.8259 74.2188 53.7488 71.3159 56.5546C68.4176 59.365 67.8306 61.1539 68.279 61.5884Z" fill="#F7CCCF"/>
<path d="M75.8827 50.8259C75.2957 52.0323 75.4158 53.2804 76.1462 53.6132C76.8765 53.946 77.2232 53.5485 77.8102 52.342C78.3973 51.1356 78.5591 50.6549 77.8287 50.3267C77.0984 49.9892 76.4697 49.6194 75.8827 50.8259Z" fill="#F7CCCF"/>
<path d="M162.527 109.4C173.834 109.4 183 108.28 183 106.899C183 105.518 173.834 104.398 162.527 104.398C151.221 104.398 142.054 105.518 142.054 106.899C142.054 108.28 151.221 109.4 162.527 109.4Z" fill="#CDDAE7"/>
<path d="M154.636 103.107C156.323 99.7471 157.539 94.6532 157.959 88.7411C160.645 84.6087 162.513 78.1881 162.938 70.8061H155.269C154.969 72.5489 154.687 74.3331 154.423 76.1451C152.958 86.3097 152.384 95.7303 152.63 103.107H154.636Z" fill="#1E2D54"/>
<path d="M169.28 86.2835C169.608 83.9909 169.788 81.5317 169.788 78.9663C169.788 75.9987 169.548 73.1698 169.109 70.5812H158.842C159.951 75.5827 161.995 81.6889 164.814 88.0401C167.602 94.3081 170.685 99.7764 173.561 103.811L175.548 102.753C175.063 100.142 174.304 97.3774 173.265 94.5808C172.127 91.493 170.759 88.6918 169.28 86.2835Z" fill="#153F5E"/>
<path d="M156.822 56.3421C157.174 55.7181 157.469 55.0986 157.715 54.4931L153.614 52.168C153.305 52.5933 153.004 53.0601 152.722 53.5548C152.057 54.7243 151.576 55.8983 151.298 56.9476C151.002 56.869 150.703 56.7858 150.393 56.7118C146.343 55.7365 142.904 55.7134 142.711 56.661C142.521 57.6086 145.645 59.1664 149.695 60.1463C149.94 60.2065 151.696 61.0015 152.616 60.8212C153.541 60.6363 155.103 59.3929 156.822 56.3421Z" fill="#FFB9B9"/>
<path d="M143.435 55.2327C143.435 55.2327 143.242 54.8445 143.001 55.1911C142.719 55.5979 142.312 55.6349 141.957 55.1449C141.776 54.8953 141.517 54.5578 141.185 53.9153C141.111 53.5409 140.87 53.4947 140.81 53.7027C140.607 54.4285 140.685 55.2882 141.393 56.2636C142.1 57.2389 142.831 57.7011 143.371 57.2296C143.801 56.8552 143.806 56.0417 143.435 55.2327Z" fill="#FFB9B9"/>
<path d="M170.273 54.6481L173.606 52.813C173.486 49.1013 170.352 45.9904 166.095 45.015C165.656 45.7916 164.584 46.3416 163.331 46.3416C162.055 46.3416 160.973 45.7731 160.548 44.978C156.522 45.8517 153.466 48.6205 152.958 52.0272L157.036 53.9733C156.989 59.5017 153.707 68.8205 154.432 70.0731C155.233 71.4459 168.406 71.7233 169.539 71.4459C170.667 71.1732 168.67 58.4153 169.405 54.7083L170.273 54.6481Z" fill="url(#paint4_linear_1_140)"/>
<path d="M174.471 54.3729C174.184 53.6565 173.865 52.9908 173.528 52.3853L169.155 54.8906C169.312 55.4453 169.497 56.0185 169.723 56.5963C170.256 57.9507 170.907 59.1248 171.582 60.0308C171.337 60.2665 171.088 60.5023 170.842 60.7564C167.583 64.0384 165.461 67.3203 166.109 68.0784C166.751 68.841 169.918 66.798 173.176 63.5161C173.375 63.3172 175.085 62.12 175.501 61.1309C175.917 60.137 175.872 57.8813 174.471 54.3729Z" fill="#F7CCCF"/>
<path d="M165.402 66.5187C165.402 66.5187 164.972 66.4679 165.101 66.9117C165.254 67.4293 165.036 67.8407 164.426 67.8823C164.116 67.9055 163.686 67.9425 162.965 67.8731C162.619 67.7159 162.433 67.9194 162.567 68.1042C163.025 68.7421 163.765 69.1905 164.981 69.1119C166.196 69.0334 167.015 68.6127 166.968 67.8084C166.932 67.1566 166.275 66.6574 165.402 66.5187Z" fill="#FFB9B9"/>
<path d="M165.67 45.9592C164.967 46.3059 164.172 46.5046 163.322 46.5046C162.351 46.5046 161.449 46.2412 160.677 45.7928C160.978 45.2705 161.163 44.5863 161.163 43.8375C161.163 42.8206 160.821 41.9192 160.303 41.383V40.1073H163.437C163.576 42.4878 164.422 44.5724 165.67 45.9592Z" fill="#FFB9B9"/>
<path d="M159.633 38.8017C159.92 37.2347 161.5 37.5167 162.652 37.7664C163.391 37.9281 164.034 38.1869 164.311 39.1114C164.477 38.9589 164.653 39.3703 164.843 39.4211C165.231 39.5228 165.439 39.7262 165.309 40.3225C165.179 40.9188 164.763 41.6861 164.375 41.5844C164.357 41.5798 164.339 41.5705 164.32 41.5613C164.186 42.042 164.255 42.4581 163.964 42.7955C163.395 43.4565 162.304 43.8217 161.579 43.8309C159.213 43.8586 159.347 40.3688 159.633 38.8017Z" fill="#F7CCCF"/>
<path d="M158.491 36.7789C158.686 35.5031 161.204 35.0224 163.095 35.2535C163.474 35.2998 163.474 35.2998 163.474 35.2998C163.474 35.2998 164.389 35.4893 165.004 36.2612C165.637 37.0562 165.975 38.443 165.868 39.5616C165.748 40.8097 165.041 41.6648 164.459 41.6926C164.325 41.6971 164.227 41.6417 164.149 41.5354C164.356 41.4707 164.565 41.2904 164.708 41.0316C164.948 40.597 164.906 40.1024 164.616 39.9268C164.38 39.7835 164.052 39.8991 163.806 40.1856C163.613 39.2195 163.206 38.198 161.491 38.5077C159.614 38.8451 158.296 38.0547 158.491 36.7789Z" fill="url(#paint5_linear_1_140)"/>
<path d="M152.796 104.437L154.128 104.885L154.817 102.431L153.249 101.908L152.796 104.437Z" fill="#FFB9B9"/>
<path d="M155.487 106.232L154.909 104.461C154.909 104.461 154.058 104.669 153.541 104.581C153.023 104.493 153.023 103.98 152.815 103.639H152.121C152.121 103.639 151.211 105.399 149.427 105.839H148.09C147.781 105.839 147.522 106.246 147.522 106.749V107.151H153.138L153.421 106.61H153.578V107.151H155.574V106.749C155.588 106.554 155.551 106.38 155.487 106.232Z" fill="#16415D"/>
<path d="M174.313 104.957L175.7 104.837L175.515 102.28L173.883 102.419L174.313 104.957Z" fill="#FFB9B9"/>
<path d="M177.42 105.546L176.287 104.127C176.287 104.127 175.566 104.658 175.053 104.788C174.539 104.917 174.369 104.437 174.064 104.2L173.422 104.478C173.422 104.478 173.167 106.48 171.655 107.603L170.412 108.139C170.121 108.264 170.024 108.744 170.19 109.211L170.324 109.585L175.552 107.335L175.635 106.72L175.783 106.656L175.964 107.154L177.822 106.355L177.688 105.981C177.623 105.805 177.526 105.657 177.42 105.546Z" fill="#16415D"/>
<path d="M60.2796 13.2823V10.9631L63.3771 9.96238L65.8551 9.10461V9.04107L63.3771 8.1833L60.2796 7.18257V4.86341L68.7144 8.10388V10.0418L60.2796 13.2823ZM74.4864 15.3314C72.2626 15.3314 70.0705 13.6 70.0705 9.29523C70.0705 5.02225 72.3261 3.06844 74.7724 3.06844C76.3291 3.06844 77.4728 3.71971 78.2193 4.48218L76.7262 6.15007C76.3449 5.73706 75.6142 5.32406 74.963 5.32406C73.6604 5.32406 72.6438 6.3248 72.6438 9.29523C72.6438 12.3769 73.5334 13.2187 74.4229 13.2187C75.1695 13.2187 75.8049 12.6628 75.8049 11.3126C75.8049 10.0259 75.1536 9.59704 74.3752 9.59704C73.7875 9.59704 73.1362 9.89884 72.6597 10.7566L72.5326 8.92988C73.1045 8.08799 74.2005 7.61145 74.9153 7.61145C76.885 7.61145 78.3782 8.75515 78.3782 11.3126C78.3782 13.8224 76.5991 15.3314 74.4864 15.3314ZM83.8643 15.3314C81.3705 15.3314 79.6708 13.2029 79.6708 9.13638C79.6708 5.06991 81.3705 3.06844 83.8643 3.06844C86.3577 3.06844 88.0415 5.08579 88.0415 9.13638C88.0415 13.2029 86.3577 15.3314 83.8643 15.3314ZM83.8643 13.1393C84.7062 13.1393 85.3729 12.3769 85.3729 9.13638C85.3729 5.91179 84.7062 5.22875 83.8643 5.22875C83.0225 5.22875 82.3394 5.91179 82.3394 9.13638C82.3394 12.3769 83.0225 13.1393 83.8643 13.1393ZM93.5436 15.3314C91.0497 15.3314 89.35 13.2029 89.35 9.13638C89.35 5.06991 91.0497 3.06844 93.5436 3.06844C96.0375 3.06844 97.7212 5.08579 97.7212 9.13638C97.7212 13.2029 96.0375 15.3314 93.5436 15.3314ZM93.5436 13.1393C94.3854 13.1393 95.0526 12.3769 95.0526 9.13638C95.0526 5.91179 94.3854 5.22875 93.5436 5.22875C92.7017 5.22875 92.0186 5.91179 92.0186 9.13638C92.0186 12.3769 92.7017 13.1393 93.5436 13.1393ZM99.7922 18.7148L99.2203 17.2058C100.602 16.7293 101.333 15.8715 101.317 14.9502L101.285 13.0917L102.175 14.6484C101.905 14.8866 101.555 14.9978 101.174 14.9978C100.301 14.9978 99.4904 14.426 99.4904 13.4094C99.4904 12.4563 100.269 11.8209 101.254 11.8209C102.493 11.8209 103.176 12.8057 103.176 14.4578C103.176 16.5069 102 18.0477 99.7922 18.7148ZM108.793 15.3314C106.299 15.3314 104.599 13.2029 104.599 9.13638C104.599 5.06991 106.299 3.06844 108.793 3.06844C111.287 3.06844 112.97 5.08579 112.97 9.13638C112.97 13.2029 111.287 15.3314 108.793 15.3314ZM108.793 13.1393C109.635 13.1393 110.302 12.3769 110.302 9.13638C110.302 5.91179 109.635 5.22875 108.793 5.22875C107.951 5.22875 107.268 5.91179 107.268 9.13638C107.268 12.3769 107.951 13.1393 108.793 13.1393ZM118.473 15.3314C115.979 15.3314 114.279 13.2029 114.279 9.13638C114.279 5.06991 115.979 3.06844 118.473 3.06844C120.966 3.06844 122.65 5.08579 122.65 9.13638C122.65 13.2029 120.966 15.3314 118.473 15.3314ZM118.473 13.1393C119.314 13.1393 119.982 12.3769 119.982 9.13638C119.982 5.91179 119.314 5.22875 118.473 5.22875C117.631 5.22875 116.948 5.91179 116.948 9.13638C116.948 12.3769 117.631 13.1393 118.473 13.1393ZM128.152 15.3314C125.658 15.3314 123.959 13.2029 123.959 9.13638C123.959 5.06991 125.658 3.06844 128.152 3.06844C130.646 3.06844 132.33 5.08579 132.33 9.13638C132.33 13.2029 130.646 15.3314 128.152 15.3314ZM128.152 13.1393C128.994 13.1393 129.661 12.3769 129.661 9.13638C129.661 5.91179 128.994 5.22875 128.152 5.22875C127.31 5.22875 126.627 5.91179 126.627 9.13638C126.627 12.3769 127.31 13.1393 128.152 13.1393Z" fill="#549FFE"/>
<defs>
<linearGradient id="paint0_linear_1_140" x1="113.674" y1="57.5819" x2="81.9259" y2="40.1874" gradientUnits="userSpaceOnUse">
<stop stop-color="#EAF0F9"/>
<stop offset="1" stop-color="#EAF0F9" stop-opacity="0"/>
</linearGradient>
<linearGradient id="paint1_linear_1_140" x1="76.6092" y1="43.8981" x2="73.6138" y2="33.4644" gradientUnits="userSpaceOnUse">
<stop stop-color="#314572"/>
<stop offset="1" stop-color="#1C55D3"/>
</linearGradient>
<linearGradient id="paint2_linear_1_140" x1="68.9181" y1="45.1169" x2="77.0457" y2="64.6291" gradientUnits="userSpaceOnUse">
<stop stop-color="#EE5306"/>
<stop offset="1" stop-color="#FC9A26"/>
</linearGradient>
<linearGradient id="paint3_linear_1_140" x1="74.2229" y1="63.1742" x2="74.2229" y2="79.7247" gradientUnits="userSpaceOnUse">
<stop stop-color="#314572"/>
<stop offset="1" stop-color="#2F52A0"/>
</linearGradient>
<linearGradient id="paint4_linear_1_140" x1="154.933" y1="47.891" x2="162.103" y2="71.8951" gradientUnits="userSpaceOnUse">
<stop stop-color="#EE5306"/>
<stop offset="1" stop-color="#FC9A26"/>
</linearGradient>
<linearGradient id="paint5_linear_1_140" x1="159.655" y1="34.7477" x2="164.229" y2="40.2741" gradientUnits="userSpaceOnUse">
<stop stop-color="#0049CD"/>
<stop offset="0.739583" stop-color="#1C3054"/>
</linearGradient>
</defs>
</svg>
