<svg width="43" height="21" viewBox="0 0 43 21" fill="none" xmlns="http://www.w3.org/2000/svg">
<path d="M2.62305 12.936C2.28676 16.3662 2.10741 17.375 1.45726 19.3928L0 18.765C0.650156 17.0387 0.964024 15.29 1.12096 12.667L2.62305 12.936ZM0.0448365 9.84219C0.448382 9.88702 0.717434 9.90944 1.18824 9.90944C1.47969 9.90944 1.54694 9.90944 1.88322 9.88702C2.42129 9.18455 2.83977 8.60913 3.13869 8.16075C1.88322 6.45689 1.2555 5.71705 0.0224411 4.50641L0.986449 3.25094C1.41241 3.72175 1.56936 3.87869 1.83839 4.19256C2.86967 2.46628 3.60949 0.896924 3.78885 0.0449951L5.38061 0.672752C5.26104 0.852105 4.992 1.36773 4.57351 2.21966C4.1027 3.16126 3.54225 4.10288 2.78 5.31351C3.3629 6.00851 3.76644 6.52415 3.99063 6.86044C5.38062 4.7082 6.18773 3.22854 6.43434 2.39903L8.00366 3.20611C7.84673 3.40788 7.68977 3.6545 7.42074 4.1253C6.45672 5.7619 4.93225 8.07107 3.63194 9.79735C5.06677 9.70767 5.78416 9.66282 6.83787 9.52831C6.50158 8.74364 6.34466 8.42978 5.87386 7.60027L7.08449 7.08462C7.93642 8.58671 8.49686 9.79733 9.05734 11.277L7.7122 11.9496C7.53285 11.3891 7.4656 11.1873 7.35351 10.8286C7.17415 10.8436 6.92006 10.8735 6.59124 10.9183C6.23254 10.9631 5.96354 10.9856 5.26854 11.0528V18.4063C5.26854 19.4376 5.29096 19.9981 5.40305 20.6706H3.56466C3.65434 19.9084 3.69917 19.3255 3.69917 18.3839V11.2097C3.2209 11.2396 2.40632 11.292 1.25547 11.3667C0.851923 11.3891 0.60533 11.4339 0.246624 11.5012L0.0448365 9.84219ZM7.35351 12.4877C7.86915 14.0346 8.18304 15.3797 8.58658 17.6441L7.19656 18.0252C6.92753 15.9626 6.56884 14.3933 6.0532 12.8912L7.35351 12.4877ZM14.8415 0.381292C15.671 2.08515 16.5678 3.25094 18.025 4.55125C18.9442 5.38076 19.8186 5.98608 21.074 6.70349C20.6705 7.17429 20.3566 7.73478 20.1324 8.27284C17.3076 6.38963 15.4692 4.52884 13.9671 2.06273C12.4651 4.70819 11.0078 6.36721 8.5417 8.13833C8.22783 7.51059 8.0261 7.21913 7.51046 6.74833C10.0214 5.20141 11.7476 3.18369 13.0255 0.381292H14.8415ZM11.1647 20.5137H9.39364C9.48332 19.7963 9.52815 19.0789 9.52815 18.2718V12.936C9.52815 12.0168 9.50573 11.6581 9.43847 11.0752C9.90928 11.1201 10.4025 11.1425 11.1199 11.1425H17.5542C18.2492 11.1425 18.72 11.1201 19.1908 11.0752C19.1235 11.6133 19.1011 12.0393 19.1011 12.9136V18.1373C19.1011 19.1013 19.146 20.0205 19.2132 20.4913H17.3973V19.1686H11.1647V20.5137ZM10.1783 6.95012C10.7164 7.03979 11.1199 7.06221 12.1288 7.06221H16.2987C17.33 7.06221 17.6888 7.03979 18.2492 6.95012V8.67639C17.6663 8.60913 17.1731 8.58672 16.2091 8.58672H12.2409C11.2993 8.58672 10.7612 8.60913 10.1783 8.67639V6.95012ZM11.1647 17.6665H17.4197V12.6446H11.1647V17.6665Z" fill="#333333"/>
<path d="M27.5531 9.43848C27.4186 9.84202 27.329 10.0438 27.1048 10.6267L25.3112 10.3128C26.6564 7.19657 27.5307 4.32692 28.1136 1.21065C28.2033 0.762271 28.2482 0.425964 28.2482 0L30.221 0.29146C30.0641 0.717424 29.9969 0.986457 29.9072 1.34516C29.7502 1.9729 29.6606 2.3316 29.4588 3.11628H38.3592C39.4577 3.11628 39.9958 3.09386 40.6684 3.00418V4.84255C40.0855 4.77529 39.4129 4.73046 38.404 4.73046H29.0328C28.6741 6.03077 28.4948 6.65849 28.1136 7.86913H36.7226C37.7987 7.86913 38.6058 7.82429 39.0766 7.75704C38.987 8.31752 38.8748 9.16945 38.6282 11.501C38.5834 11.8822 38.561 11.9943 38.4713 12.5996H40.5563C41.4531 12.5996 42.2602 12.5548 43 12.4651V14.3259C42.2602 14.2362 41.4531 14.1914 40.5563 14.1914H38.2247C37.7987 16.5902 37.3503 18.025 36.8123 18.8545C36.2294 19.7737 35.4223 20.0876 33.7184 20.0876C32.732 20.0876 31.7456 20.0203 29.8623 19.8634C29.7502 19.146 29.6606 18.7424 29.3691 17.9802C31.4765 18.294 32.6647 18.4061 33.6287 18.4061C34.8394 18.4061 35.1981 18.182 35.6016 17.2628C35.9155 16.5454 36.1845 15.5365 36.4311 14.1914H24.9974C24.0558 14.1914 23.2263 14.2362 22.4864 14.3259V12.4651C23.159 12.5548 24.011 12.5996 25.0198 12.5996H36.7002C36.8123 11.7701 36.8347 11.6804 37.0365 9.43848H27.5531Z" fill="#333333"/>
</svg>
