<svg width="36" height="21" viewBox="0 0 36 21" fill="none" xmlns="http://www.w3.org/2000/svg">
<path d="M7.5187 1.48142C10.8179 1.48142 12.6808 2.98516 12.6808 5.70087C12.6808 7.00262 12.2768 7.99015 11.4688 8.7308C10.9975 9.15724 10.616 9.35923 9.7182 9.651C10.7955 9.853 11.3117 10.0774 11.9177 10.6161C12.8155 11.4241 13.2868 12.5687 13.2868 14.0051C13.2868 17.0575 11.2893 18.7857 7.76559 18.7857H2.58106C1.45886 18.7857 0.830424 18.7857 0 18.8306C0.157107 17.9104 0.20201 17.3493 0.20201 16.0026V3.92781C0.20201 2.94028 0.157129 2.26696 0.0224658 1.43654C0.673339 1.45898 1.25687 1.48142 2.58106 1.48142H7.5187ZM7.4065 8.79813C9.40401 8.79813 10.5487 7.76572 10.5487 5.92532C10.5487 4.19714 9.47132 3.29938 7.38404 3.29938H2.28928V8.79813H7.4065ZM2.28928 16.9677H7.54116C9.85288 16.9677 11.1098 15.868 11.1098 13.8031C11.1098 11.7383 9.87531 10.5936 7.47381 10.5936H2.28928V16.9677Z" fill="#333333"/>
<path d="M20.9177 18.3142C20.9177 19.3018 20.9626 19.9302 21.0299 20.5362H19.0773C19.1671 19.8853 19.212 19.2569 19.212 18.2918V11.6933C18.1571 12.7257 17.5736 13.197 16.2718 14.1397C16.0249 13.5112 15.7556 13.0623 15.3516 12.5686C16.9451 11.6035 18.1346 10.6384 19.3915 9.29177C20.5137 8.0798 21.2095 7.04738 22.0399 5.36409H18C17.2818 5.36409 16.7881 5.38654 16.1596 5.45387V3.6808C16.8105 3.74813 17.2369 3.77058 17.9327 3.77058H19.212V1.72818C19.212 1.1222 19.1671 0.471322 19.0773 0H21.0524C20.9626 0.471322 20.9177 1.05486 20.9177 1.77307V3.77058H22.1297C22.7806 3.77058 23.1396 3.74813 23.409 3.70324L24.217 4.601C24.0598 4.84788 23.9027 5.11721 23.7007 5.54364C22.9825 7.04738 22.3541 8.03492 21.2768 9.35911C22.4439 10.6833 23.3417 11.4464 24.8903 12.3666C24.4863 12.8828 24.2618 13.2643 23.9925 13.8928C22.6908 12.995 21.8155 12.2095 20.9177 11.1322V18.3142ZM30.2095 17.7531H33.5312C34.6983 17.7531 35.394 17.7082 36 17.6185V19.616C35.2818 19.5037 34.4738 19.4589 33.5312 19.4589H25.5636C24.576 19.4589 23.8354 19.5037 23.1172 19.616V17.6185C23.7681 17.7082 24.419 17.7531 25.586 17.7531H28.4588V8.41646H26.394C25.5861 8.41646 24.8678 8.46135 24.1945 8.52868V6.64339C24.8005 6.73317 25.4289 6.77806 26.394 6.77806H28.4588V2.17706C28.4588 1.39152 28.414 0.897756 28.3018 0.0673318H30.3666C30.2319 0.9202 30.2095 1.34663 30.2095 2.17706V6.77806H33.015C34.0025 6.77806 34.586 6.75561 35.2145 6.64339V8.52868C34.5412 8.46135 33.8454 8.41646 33.015 8.41646H30.2095V17.7531Z" fill="#333333"/>
</svg>
