<svg width="620" height="304" viewBox="0 0 620 304" fill="none" xmlns="http://www.w3.org/2000/svg">
<mask id="mask0_1_1664" style="mask-type:luminance" maskUnits="userSpaceOnUse" x="285" y="48" width="51" height="21">
<path d="M335.367 48.4961H285.006V68.1182H335.367V48.4961Z" fill="white"/>
</mask>
<g mask="url(#mask0_1_1664)">
<path d="M335.292 58.0461L325.369 48.5707C325.22 48.4215 324.996 48.4215 324.847 48.5707C324.773 48.6454 324.698 48.7946 324.773 48.8692L326.414 54.6141C325.892 54.3902 325.295 54.241 324.773 54.241H294.034L295.6 48.8692C295.675 48.72 295.526 48.4961 295.377 48.4215C295.227 48.3469 295.153 48.4215 295.004 48.4961L285.081 57.9715C284.931 58.1207 284.931 58.3445 285.081 58.4937L295.004 67.9691C295.153 68.1183 295.377 68.1183 295.526 67.9691C295.6 67.8945 295.675 67.7452 295.6 67.6706L294.034 62.2988H324.773C325.369 62.2988 325.892 62.1496 326.414 61.9257L324.773 67.6706C324.698 67.8198 324.847 68.0437 324.996 68.1183C325.146 68.1929 325.22 68.1183 325.369 68.0437L335.292 58.5683C335.367 58.4191 335.367 58.1953 335.292 58.0461Z" fill="#636972"/>
</g>
<mask id="mask1_1_1664" style="mask-type:luminance" maskUnits="userSpaceOnUse" x="285" y="234" width="51" height="20">
<path d="M335.367 234.271H285.006V253.894H335.367V234.271Z" fill="white"/>
</mask>
<g mask="url(#mask1_1_1664)">
<path d="M335.292 243.822L325.369 234.346C325.22 234.197 324.996 234.197 324.847 234.346C324.773 234.421 324.698 234.57 324.773 234.719L326.414 240.464C325.892 240.24 325.295 240.091 324.773 240.091H294.034L295.6 234.719C295.675 234.57 295.526 234.346 295.377 234.272C295.227 234.272 295.153 234.272 295.004 234.346L285.081 243.822C284.931 243.971 284.931 244.195 285.081 244.344L295.004 253.819C295.153 253.968 295.377 253.968 295.526 253.819C295.6 253.745 295.675 253.595 295.6 253.446L294.034 248.074H324.773C325.369 248.074 325.892 247.925 326.414 247.701L324.773 253.446C324.698 253.595 324.847 253.819 324.996 253.894C325.146 253.894 325.22 253.894 325.369 253.819L335.292 244.344C335.367 244.195 335.367 243.971 335.292 243.822Z" fill="#636972"/>
</g>
<mask id="mask2_1_1664" style="mask-type:luminance" maskUnits="userSpaceOnUse" x="118" y="127" width="21" height="51">
<path d="M138.25 127.432H118.628V177.793H138.25V127.432Z" fill="white"/>
</mask>
<g mask="url(#mask2_1_1664)">
<path d="M128.7 177.644L138.176 167.721C138.325 167.571 138.325 167.348 138.176 167.198C138.101 167.124 137.952 167.049 137.877 167.124L132.132 168.765C132.356 168.243 132.505 167.646 132.505 167.124V136.385L137.877 137.952C138.026 138.026 138.25 137.877 138.325 137.728C138.4 137.579 138.325 137.504 138.25 137.429L128.775 127.506C128.626 127.357 128.402 127.357 128.253 127.506L118.777 137.429C118.628 137.579 118.628 137.802 118.777 137.952C118.852 138.026 119.001 138.101 119.076 138.026L124.448 136.46V167.124C124.448 167.721 124.597 168.318 124.821 168.765L119.076 167.124C118.927 167.049 118.703 167.198 118.628 167.348C118.554 167.497 118.628 167.571 118.703 167.646L128.178 177.569C128.327 177.793 128.551 177.793 128.7 177.644Z" fill="#636972"/>
</g>
<mask id="mask3_1_1664" style="mask-type:luminance" maskUnits="userSpaceOnUse" x="481" y="127" width="20" height="51">
<path d="M500.85 127.432H481.227V177.793H500.85V127.432Z" fill="white"/>
</mask>
<g mask="url(#mask3_1_1664)">
<path d="M491.3 177.644L500.775 167.721C500.924 167.571 500.924 167.348 500.775 167.198C500.7 167.124 500.551 167.049 500.402 167.124L494.657 168.765C494.881 168.243 495.03 167.646 495.03 167.124V136.385L500.402 137.952C500.551 138.026 500.775 137.877 500.85 137.728C500.85 137.579 500.85 137.504 500.775 137.429L491.3 127.506C491.15 127.357 490.927 127.357 490.777 127.506L481.302 137.429C481.153 137.579 481.153 137.802 481.302 137.952C481.377 138.026 481.526 138.101 481.675 138.026L487.047 136.46V167.124C487.047 167.721 487.196 168.318 487.42 168.765L481.675 167.124C481.526 167.049 481.302 167.198 481.227 167.348C481.227 167.497 481.227 167.571 481.302 167.646L490.777 177.569C490.927 177.793 491.15 177.793 491.3 177.644Z" fill="#636972"/>
</g>
<path d="M14.9218 0H242.479C250.686 0 257.401 6.7148 257.401 14.9218V101.468C257.401 109.675 250.686 116.39 242.479 116.39H14.9218C6.7148 116.39 0 109.675 0 101.468V14.9218C0 6.7148 6.7148 0 14.9218 0Z" fill="#FFF7F0"/>
<path d="M14.9218 187.269H242.479C250.686 187.269 257.401 193.983 257.401 202.19V288.737C257.401 296.944 250.686 303.658 242.479 303.658H14.9218C6.7148 303.658 0 296.944 0 288.737V202.19C0 193.983 6.7148 187.269 14.9218 187.269Z" fill="#F5F6F9"/>
<path d="M377.521 0H605.078C613.285 0 620 6.7148 620 14.9218V101.468C620 109.675 613.285 116.39 605.078 116.39H377.521C369.314 116.39 362.599 109.675 362.599 101.468V14.9218C362.599 6.7148 369.314 0 377.521 0Z" fill="#F5F6F9"/>
<path d="M377.521 185.776H605.078C613.285 185.776 620 192.491 620 200.698V287.244C620 295.451 613.285 302.166 605.078 302.166H377.521C369.314 302.166 362.599 295.451 362.599 287.244V200.698C362.599 192.491 369.314 185.776 377.521 185.776Z" fill="#F5F6F9"/>
<path d="M481.6 30.515C484.883 30.515 486.749 32.0072 486.749 34.6931C486.749 35.9615 486.375 37.006 485.555 37.6775C485.107 38.1251 484.734 38.2744 483.839 38.5728C484.883 38.7966 485.406 39.0205 486.002 39.5427C486.898 40.3634 487.345 41.4825 487.345 42.9001C487.345 45.9591 485.331 47.6751 481.824 47.6751H476.676C475.557 47.6751 474.96 47.6751 474.065 47.7497C474.214 46.8544 474.289 46.2575 474.289 44.9146V32.9025C474.289 31.9326 474.214 31.2611 474.14 30.4404C474.811 30.4404 475.408 30.515 476.676 30.515H481.6ZM481.451 37.8267C483.466 37.8267 484.585 36.7822 484.585 34.9916C484.585 33.2756 483.54 32.3803 481.451 32.3803H476.378V37.8267H481.451ZM476.378 45.9591H481.6C483.913 45.9591 485.182 44.84 485.182 42.8255C485.182 40.8111 483.913 39.6173 481.526 39.6173H476.378V45.9591Z" fill="#333333"/>
<path d="M494.956 47.3022C494.956 48.2721 495.03 48.9436 495.105 49.5405H493.165C493.239 48.869 493.314 48.2721 493.314 47.3022V40.7366C492.27 41.7812 491.673 42.2288 490.404 43.1987C490.181 42.6019 489.882 42.1542 489.509 41.632C491.076 40.662 492.27 39.6921 493.538 38.3492C494.657 37.1554 495.329 36.1109 496.149 34.4695H492.12C491.374 34.4695 490.927 34.4695 490.255 34.5441V32.7535C490.927 32.8281 491.3 32.8281 492.046 32.8281H493.314V30.8137C493.314 30.2168 493.239 29.5453 493.165 29.0977H495.105C495.03 29.5453 494.956 30.1422 494.956 30.8883V32.9027H496.149C496.821 32.9027 497.119 32.9027 497.418 32.8281L498.238 33.7234C498.089 33.9472 497.94 34.2457 497.716 34.6933C496.97 36.1855 496.373 37.1554 495.329 38.4984C496.522 39.8413 497.418 40.5874 498.91 41.4827C498.537 42.005 498.313 42.378 498.014 42.9749C496.746 42.0796 495.851 41.3335 494.956 40.2144V47.3022ZM504.207 46.7054H507.49C508.684 46.7054 509.355 46.6308 509.952 46.5561V48.5706C509.206 48.4214 508.46 48.4214 507.49 48.4214H499.507C498.537 48.4214 497.791 48.496 497.045 48.5706V46.5561C497.716 46.6308 498.313 46.7054 499.507 46.7054H502.342V37.3792H500.253C499.432 37.3792 498.761 37.4539 498.089 37.5285V35.6632C498.686 35.7378 499.357 35.8125 500.253 35.8125H502.342V31.1867C502.342 30.4406 502.267 29.9184 502.193 29.0977H504.282C504.132 29.9184 504.132 30.366 504.132 31.1867V35.8125H506.968C507.937 35.8125 508.534 35.8125 509.131 35.6632V37.5285C508.46 37.4539 507.788 37.3792 506.968 37.3792H504.132L504.207 46.7054Z" fill="#333333"/>
<path d="M451.16 68.715C451.16 68.1182 451.16 67.7451 451.085 67.3721H452.801C452.727 67.7451 452.727 67.9689 452.727 68.715V69.1627H455.264V68.715C455.264 68.0435 455.264 67.7451 455.189 67.3721H456.905C456.83 67.6705 456.83 67.9689 456.83 68.6404V69.0881H457.8C458.472 69.0881 458.994 69.0881 459.665 68.9389V70.5056C459.143 70.431 458.696 70.431 457.8 70.431H456.83V70.7295C456.83 71.2517 456.83 71.6248 456.905 71.9232H455.189C455.264 71.6248 455.264 71.3263 455.264 70.7295V70.431H452.727V70.7295C452.727 71.401 452.727 71.6248 452.801 71.9232H451.085C451.16 71.6248 451.16 71.2517 451.16 70.7295V70.5056H450.041C449.146 70.5056 448.623 70.5056 448.25 70.5803V69.0135C448.698 69.0881 449.22 69.1627 450.116 69.1627H451.16V68.715ZM450.638 77.1458C449.817 77.1458 449.519 77.1458 448.996 77.2204C448.996 76.922 449.071 76.4744 449.071 76.1013V73.5646C449.071 73.117 449.071 72.8931 448.996 72.4455C449.593 72.5201 449.593 72.5201 450.638 72.5201H457.278C458.248 72.5201 458.322 72.5201 458.919 72.4455C458.845 72.8185 458.845 73.117 458.845 73.6392V76.0267C458.845 76.4744 458.845 76.8474 458.919 77.2204C458.397 77.1458 458.173 77.1458 457.278 77.1458H454.592V78.5634H456.905C457.8 78.5634 458.248 78.5634 458.919 78.4888V80.0556C458.248 79.981 457.8 79.981 456.905 79.981H454.592V81.3985H456.457C457.353 81.3985 457.8 81.3985 458.397 81.3239V82.8907C457.726 82.8161 457.278 82.8161 456.457 82.8161H454.592V84.5321C455.786 84.3829 456.532 84.2337 458.472 83.8606L458.546 85.2036C455.338 85.9497 454.07 86.0989 449.742 86.6958C449.369 86.7704 449.071 86.845 448.623 86.845L448.25 85.0544C448.4 85.0544 448.474 85.0544 448.474 85.0544H448.623C449.295 85.0544 450.265 84.9798 453.025 84.6813V82.7415H451.011C450.265 82.7415 449.742 82.7415 449.146 82.8907V81.3239C449.593 81.3985 450.116 81.4731 451.011 81.4731H452.951V80.0556H450.638C449.892 80.0556 449.295 80.1302 448.773 80.2048V78.638C449.295 78.7126 449.742 78.7872 450.712 78.7872H453.175V77.3697L450.638 77.1458ZM450.563 73.7884V75.8029H453.1V73.7884H450.563ZM454.592 75.8029H457.427V73.7884H454.592V75.8029ZM465.933 72.0724C466.977 72.0724 467.425 72.0724 467.947 71.9978C467.947 72.2963 467.872 73.3408 467.798 75.206C467.649 80.4286 467.35 83.8606 466.903 85.2782C466.604 86.1735 466.38 86.6212 465.858 86.845C465.41 87.0688 464.888 87.1434 464.142 87.1434C463.769 87.1434 463.694 87.1434 462.277 86.9942C462.202 86.2481 462.128 85.8751 461.904 85.2036C462.724 85.4274 463.545 85.502 464.217 85.502C465.187 85.502 465.336 85.2036 465.56 83.5622C465.933 81.1747 466.082 78.7872 466.156 73.5646H463.62C463.471 77.1458 463.097 79.1603 462.351 81.3985C461.605 83.786 460.486 85.6512 458.845 87.4419C458.323 86.845 458.099 86.6212 457.427 86.2481C459.143 84.5321 460.188 82.8161 460.934 80.354C461.531 78.4888 461.755 76.6982 461.904 73.5646H461.456C460.262 73.5646 459.889 73.5646 459.442 73.7138V71.9978C460.039 72.0724 460.486 72.147 461.456 72.147H461.904C461.904 71.3263 461.904 70.7295 461.904 69.8342C461.904 68.1928 461.904 67.9689 461.755 67.3721H463.694C463.62 67.9689 463.545 68.2674 463.545 69.0135C463.545 70.8787 463.545 71.4009 463.471 72.147L465.933 72.0724Z" fill="#333333"/>
<path d="M470.558 85.5766C472.125 84.0098 472.797 82.8907 473.543 80.7271L475.035 81.3985C474.214 83.786 473.468 85.0544 472.051 86.7704L470.558 85.5766ZM474.587 71.1025C474.811 71.1025 474.886 71.1025 475.109 71.1025C476.602 69.3865 477.497 68.0435 477.87 66.999L479.884 67.4467C479.81 67.5959 479.661 67.7451 479.511 68.0435C478.691 69.3119 478.019 70.1326 477.199 71.1025C479.735 71.1025 482.347 70.9533 485.182 70.8041C484.286 70.1326 483.764 69.7596 482.57 68.9389L483.913 68.1182C486.002 69.4611 487.42 70.5056 489.882 72.8185L488.539 73.9376C487.569 72.9677 487.271 72.6693 486.674 72.0724C482.72 72.4455 477.721 72.6693 473.17 72.7439C472.424 72.7439 472.125 72.8185 471.677 72.8185L471.379 71.0279C472.125 71.1025 473.095 71.1771 474.438 71.1771L474.587 71.1025ZM473.617 75.6537C473.617 75.0568 473.617 74.6091 473.543 74.0123C474.065 74.0869 474.587 74.0869 475.483 74.0869H485.555C486.45 74.0869 486.972 74.0869 487.495 74.0123C487.42 74.5345 487.42 74.9076 487.42 75.6537V78.0411C487.42 78.8618 487.42 79.1603 487.495 79.6825C486.898 79.6079 486.45 79.6079 485.629 79.6079H475.408C474.587 79.6079 474.065 79.6079 473.543 79.6825C473.617 79.1603 473.617 78.7126 473.617 78.0411V75.6537ZM475.259 75.5044V78.1904H485.704V75.5044H475.259ZM477.945 80.8017C477.87 81.3239 477.795 81.6224 477.795 82.2938V84.9052C477.795 85.4274 478.094 85.502 480.556 85.502C483.391 85.502 484.063 85.4274 484.286 85.0544C484.51 84.7559 484.585 84.2337 484.659 82.8161C485.182 83.1145 485.629 83.2638 486.301 83.413C486.002 87.0688 485.853 87.1434 480.78 87.1434C476.751 87.1434 476.154 86.9196 476.154 85.5766V82.5177C476.154 81.8462 476.154 81.4731 476.005 80.8763L477.945 80.8017ZM482.272 83.8606C481.153 82.5923 480.407 81.9954 478.989 81.1001L480.258 80.2048C481.6 81.1001 482.347 81.697 483.466 82.8161L482.272 83.8606ZM489.285 86.4719C488.091 84.1591 487.196 82.9653 485.629 81.2493L487.047 80.5032C488.614 82.2192 489.509 83.4876 490.777 85.4274L489.285 86.4719Z" fill="#333333"/>
<path d="M496.224 70.1328C495.552 71.0281 494.955 71.5504 494.135 72.2965C493.687 71.6996 493.612 71.6996 492.866 71.1773C494.582 69.9836 495.702 68.566 496.373 66.7754L498.089 67.223C497.716 67.8945 497.567 68.1184 497.268 68.6406H500.85C501.819 68.6406 502.267 68.6406 502.789 68.4914V70.0582C502.267 69.9836 501.969 69.9836 501.148 69.9836H499.507C499.88 70.7297 500.103 71.1027 500.402 71.7742L498.91 72.3711C498.611 71.4011 498.387 70.8789 497.94 69.9836H496.224V70.1328ZM510.026 72.8933C511.146 72.8933 511.593 72.8933 512.339 72.8187C512.265 73.2664 512.265 73.5648 512.265 74.2363V75.5046C512.265 76.1761 512.265 76.5492 512.339 76.9968H510.623V74.3109H495.329V76.9968H493.612C493.687 76.5492 493.687 76.1761 493.687 75.5792V74.3109C493.687 73.714 493.687 73.341 493.612 72.8933C494.284 72.9679 494.732 72.9679 495.851 72.9679H501.819V72.6695C501.819 72.1472 501.819 71.8488 501.745 71.4758H503.536C503.536 71.5504 503.536 71.625 503.536 71.625C503.461 71.9234 503.461 72.1472 503.461 72.6695V72.9679L510.026 72.8933ZM496.448 87.5167C496.522 86.7706 496.597 86.0991 496.597 85.2038V77.146C496.597 76.3999 496.597 76.0269 496.522 75.5046C497.194 75.5792 497.791 75.6539 498.686 75.6539H506.967C507.863 75.6539 508.46 75.6538 509.131 75.5046C509.057 75.9523 509.057 76.3999 509.057 77.146V78.5636C509.057 79.3843 509.057 79.7573 509.131 80.2796C508.534 80.205 507.937 80.205 507.042 80.205H498.313V81.6226H508.012C508.907 81.6226 509.504 81.6226 510.026 81.548C509.952 82.0702 509.952 82.7417 509.952 83.4878V85.4276C509.952 86.2483 509.952 86.8452 510.101 87.5167H508.385V86.4721H498.387V87.5167H496.448ZM498.238 78.7874H507.415V76.9222H498.238V78.7874ZM498.238 85.0546H508.236V82.9655H498.238V85.0546ZM504.953 70.2074C504.505 70.8043 504.282 71.1027 503.834 71.5504C503.535 71.2519 503.088 70.9535 502.566 70.6551C503.685 69.7597 504.505 68.4914 504.953 66.9992L506.594 67.2977C506.371 67.8945 506.221 68.1183 505.848 68.7898H510.922C511.892 68.7898 512.339 68.7898 512.936 68.6406V70.282C512.339 70.2074 511.892 70.1328 510.922 70.1328H508.236C508.684 70.8789 508.907 71.2519 509.206 71.9234L507.639 72.5203C507.266 71.5504 507.042 71.0281 506.52 70.1328H504.953V70.2074Z" fill="#333333"/>
<path d="M516.89 69.8346C515.995 69.8346 515.771 69.8346 515.1 69.9838V68.1932C515.622 68.2678 516.144 68.3424 517.04 68.3424H520.397C521.218 68.3424 521.74 68.3424 522.262 68.1932V69.9092C521.665 69.8346 521.292 69.8346 520.546 69.8346H519.576V74.8334H520.323C520.919 74.8334 521.292 74.8334 521.815 74.6841V76.3255C521.367 76.2509 520.919 76.2509 520.323 76.2509H519.576V81.5482C520.472 81.1751 520.919 80.9513 522.113 80.3544L522.188 81.9958C520.173 82.9657 519.353 83.3388 516.368 84.5325C515.846 84.7563 515.771 84.7563 515.473 84.9056L514.951 83.0403C515.697 82.8911 516.443 82.6673 517.935 82.0704V76.1017H516.89C516.294 76.1017 515.921 76.1017 515.398 76.2509V74.6095C515.921 74.6841 516.294 74.7587 516.965 74.7587H518.01V69.76C517.935 69.8346 516.89 69.8346 516.89 69.8346ZM527.858 82.145H525.023C523.904 82.145 523.381 82.145 522.859 82.2943V80.5782C523.381 80.6529 523.904 80.7275 525.023 80.7275H527.858V78.34H525.62C524.202 78.34 523.531 78.34 522.859 78.4146C522.934 78.0415 522.934 77.2208 522.934 75.8033V70.9537C522.934 69.5361 522.934 68.79 522.785 68.0439C523.531 68.1186 524.202 68.1932 525.694 68.1932H531.663C533.304 68.1932 533.901 68.1932 534.498 68.0439C534.424 68.7154 534.424 69.6107 534.424 70.9537V75.5794C534.424 77.0716 534.424 77.8923 534.498 78.4892C533.678 78.4146 533.155 78.4146 531.887 78.4146H529.35V80.8021H532.558C533.677 80.8021 534.125 80.8021 534.797 80.6529V82.3689C534.2 82.2942 533.677 82.2196 532.558 82.2196H529.35V85.204H533.379C534.498 85.204 535.02 85.204 535.617 85.0548V86.7708C534.946 86.6962 534.424 86.6216 533.304 86.6216H523.456C522.337 86.6216 521.815 86.6216 521.143 86.7708V85.0548C521.74 85.1294 522.188 85.204 523.307 85.204H527.783L527.858 82.145ZM524.501 69.6107V72.5205H527.858V69.6107H524.501ZM524.501 74.0127V76.8478H527.858V74.0127H524.501ZM529.425 72.5205H532.931V69.6107H529.425V72.5205ZM529.425 76.8478H532.931V74.0127H529.425V76.8478Z" fill="#333333"/>
<path d="M485.629 221.291C485.331 220.321 485.032 219.873 484.585 219.351C483.764 218.306 482.421 217.784 480.854 217.784C477.348 217.784 475.184 220.47 475.184 224.872C475.184 229.274 477.422 231.96 480.854 231.96C482.57 231.96 483.988 231.288 484.883 230.169C485.331 229.498 485.555 228.976 485.779 228.006L488.017 228.453C487.644 229.871 487.271 230.542 486.749 231.288C485.48 232.93 483.391 233.825 480.854 233.825C478.616 233.825 476.751 233.154 475.483 231.811C473.916 230.244 473.02 227.782 473.02 224.947C473.02 222.111 473.99 219.5 475.632 217.859C476.975 216.59 478.691 215.919 480.854 215.919C483.018 215.919 484.734 216.516 486.002 217.784C486.823 218.605 487.271 219.351 487.793 220.769L485.629 221.291Z" fill="#333333"/>
<path d="M495.478 233.079C495.478 234.049 495.552 234.72 495.627 235.317H493.687C493.762 234.645 493.836 234.049 493.836 233.079V226.513C492.792 227.558 492.195 228.005 490.927 228.975C490.703 228.378 490.404 227.931 490.031 227.408C491.598 226.438 492.792 225.468 494.06 224.126C495.179 222.932 495.851 221.887 496.671 220.246H492.643C491.896 220.246 491.449 220.246 490.777 220.32V218.53C491.449 218.604 491.822 218.604 492.568 218.604H493.836V216.59C493.836 215.993 493.762 215.322 493.687 214.874H495.627C495.552 215.322 495.478 215.919 495.478 216.665V218.679H496.671C497.343 218.679 497.641 218.679 497.94 218.604L498.761 219.5C498.611 219.724 498.462 220.022 498.238 220.47C497.492 221.962 496.895 222.932 495.851 224.275C497.044 225.618 497.94 226.364 499.432 227.259C499.059 227.781 498.835 228.154 498.537 228.751C497.268 227.856 496.373 227.11 495.478 225.991V233.079ZM504.729 232.482H508.012C509.206 232.482 509.877 232.407 510.474 232.333V234.347C509.728 234.272 508.982 234.198 508.012 234.198H500.029C499.059 234.198 498.313 234.272 497.567 234.347V232.333C498.238 232.407 498.835 232.482 500.029 232.482H502.864V223.156H500.775C499.954 223.156 499.283 223.23 498.611 223.23V221.365C499.208 221.44 499.88 221.514 500.775 221.514H502.864V216.963C502.864 216.217 502.789 215.695 502.715 214.874H504.804C504.655 215.695 504.655 216.142 504.655 216.963V221.514H507.49C508.46 221.514 509.057 221.514 509.653 221.365V223.23C508.982 223.156 508.31 223.156 507.49 223.156H504.655L504.729 232.482Z" fill="#333333"/>
<path d="M472.871 265.682C472.498 269.114 472.349 270.084 471.677 272.099L470.185 271.502C470.857 269.786 471.155 268.07 471.304 265.384L472.871 265.682ZM470.26 262.549C470.633 262.623 470.931 262.623 471.379 262.623C471.677 262.623 471.752 262.623 472.051 262.623C472.573 261.952 473.02 261.355 473.319 260.907C472.051 259.191 471.454 258.445 470.185 257.252L471.155 255.983C471.603 256.431 471.752 256.58 471.976 256.953C473.02 255.237 473.767 253.67 473.916 252.85L475.483 253.446C475.333 253.596 475.109 254.118 474.662 255.013C474.214 255.983 473.617 256.878 472.871 258.072C473.468 258.744 473.841 259.266 474.065 259.639C475.483 257.475 476.229 255.983 476.527 255.162L478.094 255.983C477.945 256.207 477.795 256.431 477.497 256.878C476.527 258.52 475.035 260.833 473.692 262.549C475.109 262.474 475.856 262.4 476.9 262.25C476.527 261.504 476.378 261.131 475.93 260.31L477.124 259.788C477.945 261.28 478.541 262.474 479.064 263.966L477.721 264.638C477.572 264.041 477.497 263.892 477.348 263.519C477.199 263.519 476.9 263.593 476.602 263.593C476.229 263.668 476.005 263.668 475.259 263.743V271.054C475.259 272.099 475.259 272.621 475.408 273.292H473.543C473.617 272.546 473.692 271.95 473.692 270.98V263.817C473.244 263.817 472.424 263.892 471.23 263.966C470.857 263.966 470.558 264.041 470.26 264.116V262.549ZM477.572 265.235C478.094 266.801 478.392 268.144 478.84 270.383L477.422 270.756C477.124 268.667 476.826 267.1 476.303 265.608L477.572 265.235ZM485.107 253.148C485.928 254.864 486.823 255.983 488.315 257.326C489.211 258.147 490.106 258.744 491.374 259.49C491.001 259.937 490.628 260.534 490.404 261.057C487.569 259.191 485.779 257.326 484.286 254.864C482.794 257.475 481.302 259.191 478.84 260.907C478.541 260.311 478.318 260.012 477.795 259.49C480.332 257.923 482.048 255.909 483.316 253.148H485.107ZM481.377 273.218H479.586C479.661 272.472 479.735 271.8 479.735 270.98V265.682C479.735 264.787 479.735 264.414 479.661 263.817C480.108 263.892 480.631 263.892 481.302 263.892H487.718C488.39 263.892 488.912 263.892 489.36 263.817C489.285 264.339 489.285 264.787 489.285 265.682V270.905C489.285 271.875 489.36 272.77 489.434 273.218H487.644V271.875H481.451V273.218H481.377ZM480.407 259.714C480.929 259.788 481.377 259.788 482.347 259.788H486.525C487.569 259.788 487.942 259.788 488.464 259.714V261.43C487.868 261.355 487.42 261.355 486.45 261.355H482.496C481.526 261.355 481.004 261.355 480.407 261.43V259.714ZM481.377 270.383H487.644V265.384H481.377V270.383Z" fill="#333333"/>
<path d="M497.791 262.176C497.641 262.549 497.567 262.773 497.343 263.37L495.552 263.071C496.895 259.938 497.791 257.103 498.387 253.969C498.462 253.521 498.537 253.223 498.537 252.775L500.477 253.074C500.327 253.521 500.253 253.745 500.178 254.118C500.029 254.715 499.954 255.088 499.73 255.909H508.609C509.728 255.909 510.25 255.909 510.922 255.834V257.7C510.325 257.625 509.653 257.625 508.683 257.625H499.357C498.984 258.893 498.835 259.565 498.462 260.759H507.042C508.087 260.759 508.907 260.684 509.43 260.684C509.355 261.281 509.206 262.102 508.982 264.414C508.907 264.787 508.907 264.937 508.833 265.534H510.922C511.817 265.534 512.638 265.459 513.384 265.384V267.25C512.638 267.175 511.817 267.1 510.922 267.1H508.609C508.161 269.488 507.714 270.905 507.191 271.726C506.594 272.621 505.774 272.92 504.132 272.92C503.162 272.92 502.193 272.845 500.253 272.696C500.103 271.95 500.029 271.577 499.73 270.831C501.819 271.129 503.013 271.278 503.983 271.278C505.177 271.278 505.55 271.055 505.923 270.159C506.221 269.413 506.52 268.443 506.744 267.1H495.329C494.359 267.1 493.538 267.175 492.792 267.25V265.384C493.463 265.459 494.284 265.534 495.329 265.534H506.968C507.117 264.713 507.117 264.638 507.341 262.4L497.791 262.176Z" fill="#333333"/>
<path d="M111.093 218.903C111.093 217.858 111.018 217.261 110.943 216.217C111.69 216.291 112.361 216.291 113.48 216.291H117.36C119.822 216.291 121.762 216.963 123.105 218.306C124.671 219.798 125.418 222.036 125.418 224.797C125.418 227.557 124.597 230.019 122.955 231.586C121.613 232.929 119.747 233.601 117.36 233.601H113.48C112.286 233.601 111.764 233.601 110.943 233.675C111.093 232.78 111.093 232.109 111.093 230.915V218.903ZM117.285 231.661C119.076 231.661 120.419 231.139 121.463 230.094C122.657 228.9 123.254 227.035 123.254 224.797C123.254 222.559 122.657 220.843 121.538 219.649C120.568 218.604 119.225 218.157 117.36 218.157H113.182V231.661H117.285Z" fill="#333333"/>
<path d="M132.878 233.079C132.878 234.049 132.953 234.72 132.953 235.317H131.013C131.088 234.645 131.162 234.049 131.162 233.079V226.513C130.118 227.558 129.521 228.005 128.253 228.975C128.029 228.378 127.73 227.931 127.357 227.408C128.924 226.438 130.118 225.468 131.386 224.126C132.505 222.932 133.177 221.887 133.998 220.246H129.969C129.223 220.246 128.775 220.246 128.103 220.32V218.53C128.775 218.604 129.148 218.604 129.894 218.604H131.162V216.59C131.162 215.993 131.088 215.322 131.013 214.874H132.953C132.878 215.322 132.804 215.919 132.804 216.665V218.679H133.998C134.669 218.679 135.042 218.679 135.266 218.604L136.087 219.5C135.937 219.724 135.788 220.022 135.564 220.47C134.818 221.962 134.221 222.932 133.177 224.275C134.371 225.618 135.266 226.364 136.758 227.259C136.385 227.781 136.161 228.154 135.863 228.751C134.594 227.856 133.699 227.11 132.804 225.991V233.079H132.878ZM142.205 232.482H145.487C146.681 232.482 147.353 232.407 147.949 232.333V234.347C147.203 234.272 146.457 234.198 145.487 234.198H137.579C136.609 234.198 135.863 234.272 135.117 234.347V232.333C135.788 232.407 136.385 232.482 137.579 232.482H140.414V223.156H138.325C137.504 223.156 136.833 223.23 136.161 223.23V221.365C136.758 221.44 137.355 221.514 138.325 221.514H140.414V216.963C140.414 216.217 140.339 215.695 140.265 214.874H142.354C142.205 215.695 142.205 216.142 142.205 216.963V221.514H145.04C146.01 221.514 146.606 221.514 147.203 221.365V223.23C146.532 223.156 145.86 223.156 145.04 223.156H142.205V232.482Z" fill="#333333"/>
<path d="M41.5572 253.596C41.4079 253.895 41.1841 254.342 40.8111 255.014C40.5872 255.536 40.3634 255.909 40.1396 256.207C40.3634 256.133 42.5271 256.133 46.7052 256.058C47.3767 256.058 47.7497 255.984 48.1973 255.834L49.3165 256.953C49.0927 257.327 49.018 257.401 48.645 258.446C47.8243 260.609 46.7052 262.997 45.6606 264.638C43.4224 268.145 40.3634 270.682 35.6631 272.845C35.2154 272.025 34.9916 271.726 34.3201 271.204C36.1853 270.458 37.3791 269.786 38.8712 268.816C40.5872 267.623 41.5572 266.727 42.6763 265.384C41.0349 263.967 39.5427 262.848 37.7521 261.878L39.0205 260.535C40.8857 261.579 42.0048 262.4 43.87 263.892C45.0638 262.027 46.0337 260.012 46.7798 257.774L39.2443 257.849C37.7521 260.236 36.1853 261.952 33.947 263.818C33.4248 263.221 33.1264 262.997 32.3803 262.549C34.8424 260.759 36.633 258.744 38.0505 256.207C38.722 254.939 39.1697 253.969 39.3935 253.148L41.5572 253.596Z" fill="#333333"/>
<path d="M56.7028 254.268C56.6282 254.864 56.5536 255.312 56.5536 256.58L56.4789 269.637C59.0156 269.189 61.0301 268.443 62.8207 267.324C64.9844 265.907 66.4765 264.34 67.6703 262.027C68.2672 262.922 68.491 263.146 69.1625 263.668C66.1035 268.294 62.6715 270.458 56.6282 271.577C55.8821 271.726 55.6582 271.801 55.2852 271.95L54.2407 270.682C54.3899 270.234 54.3899 269.935 54.3899 269.04L54.4645 256.655C54.4645 255.536 54.4645 254.79 54.3899 254.342L56.7028 254.268Z" fill="#333333"/>
<path d="M70.8038 269.413C72.5945 269.339 75.2804 268.667 77.3694 267.772C81.6221 265.907 84.6065 262.624 86.4717 257.774C87.0686 258.52 87.367 258.819 88.1131 259.341C86.2479 263.295 84.2335 265.907 81.1745 267.921C78.8616 269.488 76.3995 270.458 72.8183 271.279C72.0722 271.428 71.923 271.502 71.4007 271.652L70.8038 269.413ZM72.3706 255.536C74.8327 257.103 76.2503 258.222 77.8917 259.789L76.5487 261.43C74.9073 259.64 73.0421 258.147 71.1023 257.028C71.0277 257.028 72.3706 255.536 72.3706 255.536Z" fill="#333333"/>
<path d="M93.1865 272.324C93.3357 271.577 93.3357 270.981 93.3357 269.712V256.059C93.3357 254.716 93.3357 254.194 93.1865 253.597H95.4248C95.3502 254.268 95.2756 254.865 95.2756 256.133V260.088C98.4091 261.207 101.468 262.624 105.273 264.788L104.154 266.728C102.214 265.31 99.0806 263.669 95.9471 262.326C95.6486 262.177 95.4994 262.177 95.201 261.953C95.2756 262.55 95.2756 262.923 95.2756 263.818V269.638C95.2756 270.831 95.2756 271.503 95.4248 272.249L93.1865 272.324Z" fill="#333333"/>
<path d="M115.644 265.235C118.255 263.072 120.344 260.684 122.06 257.924C122.135 257.775 122.135 257.775 122.209 257.625C121.986 257.625 117.882 257.7 109.824 257.7C108.481 257.7 107.884 257.7 106.989 257.775V255.686C107.81 255.835 108.407 255.835 109.824 255.835H122.582C123.403 255.835 123.627 255.835 124 255.686L125.119 256.954C124.821 257.252 124.671 257.476 124.224 258.148C122.06 261.505 119.673 264.266 116.838 266.504C117.658 267.399 118.703 268.742 120.046 270.458L118.404 271.801C117.211 269.936 116.017 268.369 114.077 266.28C112.436 264.489 111.242 263.37 109.6 262.027L111.093 260.908C112.436 262.027 113.256 262.773 114.152 263.669L115.644 265.235Z" fill="#333333"/>
<path d="M135.341 272.771C135.415 272.174 135.415 271.577 135.415 270.383V265.459C135.415 265.086 135.415 264.862 135.49 264.415C135.266 264.638 135.117 264.713 134.818 264.937C133.177 265.907 130.939 266.802 128.103 267.697C127.805 266.951 127.656 266.653 127.134 265.981C131.312 265.011 134.893 263.37 137.877 261.132C138.996 260.311 139.742 259.64 140.862 258.446L140.414 258.52C140.116 258.52 139.593 258.595 139.369 258.595H131.536C130.416 258.595 129.894 258.595 129.073 258.744V256.655C129.745 256.73 130.342 256.804 131.536 256.804H135.415V255.014C135.415 254.119 135.415 253.82 135.341 253.298H137.43C137.355 253.82 137.355 254.193 137.355 255.014V256.804H141.832C142.354 256.804 142.652 256.73 142.951 256.655L143.921 257.774C143.622 258.073 143.473 258.147 143.025 258.744C141.757 260.162 139.817 261.878 138.25 262.997C141.458 264.116 143.548 265.086 146.308 266.727L145.189 268.518C143.548 267.399 141.533 266.28 138.698 265.011C137.877 264.638 137.803 264.564 137.355 264.34C137.355 264.415 137.355 264.564 137.43 264.788C137.43 264.862 137.43 265.235 137.43 265.534V270.383C137.43 271.726 137.43 272.174 137.504 272.771H135.341Z" fill="#333333"/>
<path d="M149.665 259.714C151.829 260.61 153.545 261.43 155.41 262.699L154.366 264.489C152.724 263.295 150.71 262.176 148.546 261.356L149.665 259.714ZM148.994 269.936C150.561 269.936 152.874 269.413 155.112 268.518C157.872 267.474 159.961 265.907 161.752 263.519C163.02 261.878 163.767 260.535 164.438 258.52C165.109 259.192 165.333 259.416 166.079 259.938C164.14 264.638 161.379 267.697 157.425 269.637C155.858 270.383 153.471 271.204 151.605 271.577C151.232 271.652 150.859 271.726 150.412 271.801C149.964 271.875 149.815 271.95 149.516 272.025L148.994 269.936ZM151.381 254.342C153.545 255.238 155.112 255.984 157.052 257.178L156.007 258.968C154.291 257.774 152.053 256.581 150.337 255.984L151.381 254.342ZM163.319 253.372C164.363 254.641 164.886 255.387 165.632 256.804L164.289 257.551C163.617 256.133 162.871 255.014 161.976 254.044L163.319 253.372ZM165.856 252.179C166.9 253.372 167.422 254.119 168.168 255.611L166.9 256.357C166.229 255.088 165.557 254.044 164.587 252.925L165.856 252.179Z" fill="#333333"/>
<path d="M183.016 254.865C182.717 255.312 182.643 255.536 182.27 256.282C180.927 259.565 180.106 261.206 178.987 262.773C180.927 264.415 182.27 265.608 184.06 267.623L182.568 269.264C181.374 267.772 179.957 266.28 177.793 264.415C176.748 265.832 175.48 267.175 174.063 268.518C172.496 269.936 171.078 270.831 168.84 272.099C168.392 271.353 168.168 271.055 167.422 270.458C171.004 268.667 173.839 266.429 176.301 263.146C174.286 261.579 172.197 260.162 170.332 259.117L171.675 257.7C173.167 258.595 175.107 259.863 177.42 261.505C178.465 259.863 179.211 258.297 179.957 256.431C180.479 255.088 180.628 254.715 180.777 254.044L183.016 254.865Z" fill="#333333"/>
<path d="M187.641 269.413C189.432 269.339 192.118 268.667 194.207 267.772C198.46 265.907 201.444 262.624 203.235 257.774C203.832 258.52 204.13 258.819 204.876 259.341C203.011 263.295 200.996 265.907 197.937 267.921C195.625 269.488 193.162 270.458 189.507 271.279C188.761 271.428 188.611 271.502 188.089 271.652L187.641 269.413ZM189.208 255.536C191.67 257.103 193.088 258.222 194.729 259.789L193.386 261.43C191.745 259.64 189.88 258.147 187.94 257.028L189.208 255.536Z" fill="#333333"/>
<path d="M210.024 272.324C210.099 271.577 210.173 270.981 210.173 269.712V256.059C210.173 254.716 210.173 254.194 210.024 253.597H212.262C212.188 254.268 212.188 254.865 212.188 256.133V260.088C215.321 261.207 218.38 262.624 222.185 264.788L221.066 266.728C219.126 265.31 215.993 263.669 212.859 262.326C212.486 262.177 212.412 262.177 212.113 261.953C212.188 262.55 212.188 262.923 212.188 263.818V269.638C212.188 270.831 212.188 271.503 212.262 272.249L210.024 272.324Z" fill="#333333"/>
<path d="M25.367 11.9375H232.034C238.226 11.9375 243.225 16.9363 243.225 23.1288V93.2612C243.225 99.4538 238.226 104.453 232.034 104.453H25.367C19.1745 104.453 14.1757 99.4538 14.1757 93.2612V23.1288C14.1757 16.9363 19.1745 11.9375 25.367 11.9375Z" fill="white"/>
<mask id="mask4_1_1664" style="mask-type:luminance" maskUnits="userSpaceOnUse" x="267" y="108" width="86" height="86">
<path d="M281.668 108.929L267.793 122.804L338.222 193.233L352.097 179.358L281.668 108.929Z" fill="white"/>
</mask>
<g mask="url(#mask4_1_1664)">
<path d="M345.29 186.075L344.992 172.347C344.992 172.123 344.842 171.973 344.619 171.973C344.469 171.973 344.395 172.048 344.32 172.123L341.41 177.345C341.187 176.823 340.888 176.301 340.515 175.928L283.961 119.374L288.886 116.688C289.035 116.614 289.109 116.39 289.035 116.241C288.96 116.166 288.886 116.091 288.736 116.091L275.008 115.793C274.785 115.793 274.635 115.942 274.635 116.166L274.934 129.894C274.934 130.118 275.083 130.267 275.307 130.267C275.456 130.267 275.531 130.192 275.605 130.118L278.291 125.194L334.845 181.747C335.218 182.195 335.74 182.493 336.337 182.643L331.114 185.552C330.965 185.627 330.89 185.851 330.965 186C331.04 186.075 331.114 186.149 331.264 186.149L344.992 186.448C345.141 186.448 345.29 186.298 345.29 186.075Z" fill="#636972"/>
</g>
<mask id="mask5_1_1664" style="mask-type:luminance" maskUnits="userSpaceOnUse" x="267" y="108" width="86" height="86">
<path d="M338.275 108.981L267.846 179.41L281.721 193.285L352.15 122.856L338.275 108.981Z" fill="white"/>
</mask>
<g mask="url(#mask5_1_1664)">
<path d="M274.71 186.075L275.008 172.347C275.008 172.123 275.158 171.973 275.381 171.973C275.531 171.973 275.605 172.048 275.68 172.123L278.59 177.345C278.813 176.823 279.112 176.301 279.485 175.928L336.038 119.374L331.114 116.688C330.965 116.614 330.89 116.39 330.965 116.241C331.04 116.166 331.114 116.091 331.264 116.091L344.992 115.793C345.215 115.793 345.365 115.942 345.365 116.166L345.066 129.894C345.066 130.118 344.917 130.267 344.693 130.267C344.544 130.267 344.469 130.192 344.395 130.118L341.709 125.194L285.155 181.747C284.782 182.195 284.26 182.493 283.663 182.643L288.886 185.552C289.035 185.627 289.109 185.851 289.035 186C288.96 186.075 288.886 186.149 288.736 186.149L275.008 186.448C274.859 186.373 274.71 186.224 274.71 186.075Z" fill="#636972"/>
</g>
<path d="M162.573 52.4504C159.514 50.7344 156.828 48.4961 154.59 45.8102C152.575 43.4227 151.008 40.5876 150.039 37.5286L149.74 36.7079L149.442 37.5286C147.949 41.9305 146.532 44.3926 143.921 47.0786C141.832 49.2422 139.519 51.0328 136.907 52.4504L133.774 48.0485C138.623 45.661 141.458 43.1243 143.548 39.5431C145.711 35.8126 146.83 30.7392 146.83 24.4721C146.83 23.726 146.83 22.9053 146.681 22.1592H152.202C152.128 22.9799 152.053 23.8006 152.053 24.5467C151.978 27.9041 152.501 31.2615 153.471 34.5443C154.813 38.2001 157.052 41.4829 159.961 44.0196C161.677 45.5118 163.617 46.7801 165.632 47.75L162.573 52.4504Z" fill="#FC6D26"/>
<path d="M178.614 52.4502C177.793 52.4502 175.853 52.4502 174.585 52.3756V48.7197C176.077 48.869 177.271 48.9436 178.39 48.9436C179.36 48.9436 179.957 48.869 179.957 47.899V46.7799L168.542 46.9291V44.0194L179.957 44.094V42.4526L166.527 42.6018V39.4682L179.957 39.6175V37.9761L168.542 38.0507V35.2155L179.882 35.2901V33.7234L168.616 33.798V27.3816L179.882 27.4562V25.8894L166.676 26.1132V22.6066H179.957C179.957 22.6066 179.882 21.3383 179.807 20.8906H184.508C184.433 21.3383 184.359 22.6066 184.359 22.6066H197.788V26.1132L184.359 25.964V27.5308L195.774 27.4562V33.798L184.284 33.7234V35.2901L195.699 35.2155L195.625 39.2444H198.012V42.6764L195.625 42.751L195.774 46.7053H184.284V48.2721C184.359 51.9279 183.613 52.4502 178.614 52.4502ZM184.359 44.094H191.297V42.4526H184.359V44.094ZM184.359 39.5429H191.297V37.9015H184.359V39.5429ZM184.359 31.4851H190.477V29.8437H184.359V31.4851ZM173.913 31.4851H179.882V29.8437H173.913V31.4851Z" fill="#FC6D26"/>
<path d="M123.03 49.9136C120.12 49.9136 117.807 49.1675 116.315 47.6007C114.823 46.0339 114.002 43.721 114.002 40.7367C114.002 37.7523 114.823 35.2156 116.39 33.4996C117.957 31.7836 120.27 30.9629 123.03 30.9629C125.716 30.9629 127.805 31.709 129.297 33.2758C130.789 34.8426 131.536 37.0808 131.536 39.8414V41.4081H119.15L119.225 41.9304C119.225 43.0495 119.598 44.1687 120.27 45.064C120.941 45.8101 121.911 46.1831 122.955 46.1085C125.045 46.1085 125.865 45.1386 126.238 44.1687H131.312C131.013 45.8101 130.118 47.2276 128.775 48.2722C127.134 49.4659 125.119 49.9882 123.03 49.9136ZM123.105 34.5441C120.866 34.5441 119.523 35.8125 119.225 38.2L119.15 38.4238H126.611V38.2746C126.611 37.3046 126.313 36.2601 125.716 35.514C125.045 34.8426 124.075 34.5441 123.105 34.5441Z" fill="#FC6D26"/>
<path d="M105.273 49.6154V38.5732C105.273 36.708 103.856 35.2158 101.99 35.2158C100.125 35.2158 98.633 36.6334 98.633 38.4986V38.5732V49.6154H93.4103V30.9631H98.633V33.2014L99.006 32.8284C101.468 30.0678 105.646 29.9186 108.407 32.3807C109.675 33.4998 110.421 35.0666 110.57 36.7826V37.3795V49.69L105.273 49.6154Z" fill="#FC6D26"/>
<path d="M74.1612 52.4502C66.1781 52.4502 59.6871 45.9592 59.6871 37.9761V35.3648C59.6871 27.3816 66.1781 20.8906 74.1612 20.8906H74.6835C82.6667 20.8906 89.1576 27.3816 89.1576 35.3648V37.9761C89.1576 45.9592 82.6667 52.4502 74.6835 52.4502H74.1612ZM74.1612 27.0086C69.5355 27.0086 65.805 30.739 65.805 35.3648V37.9761C65.805 42.6018 69.5355 46.3323 74.1612 46.3323H74.6835C79.3093 46.3323 83.0397 42.6018 83.0397 37.9761V35.3648C83.0397 30.739 79.3093 27.0086 74.6835 27.0086H74.1612Z" fill="#FC6D26"/>
<path d="M103.408 63.8652H154.366C157.499 63.8652 160.036 66.4019 160.036 69.5355V89.7545C160.036 92.8881 157.499 95.4248 154.366 95.4248H103.408C100.274 95.4248 97.7377 92.8881 97.7377 89.7545V69.5355C97.6631 66.4019 100.274 63.8652 103.408 63.8652Z" fill="#FC6D26"/>
<path d="M116.091 79.8316H121.762C122.657 79.8316 123.702 79.757 124.373 79.757C124.298 80.2792 124.224 80.7269 124.224 81.2491C124.075 85.2034 123.776 87.2925 123.403 88.8592C122.955 90.5006 121.836 91.0975 119.15 91.0975C118.703 91.0975 118.33 91.0975 116.614 91.0229C116.539 90.053 116.315 89.0831 115.942 88.1132C116.912 88.2624 117.957 88.337 118.927 88.337C120.27 88.337 120.493 88.1878 120.717 87.2178C121.09 85.5765 121.239 83.9351 121.239 82.2937H115.644C115.122 84.6065 113.853 86.621 112.137 88.1132C110.421 89.5307 108.407 90.5753 106.318 91.2467C105.945 90.2768 105.348 89.3815 104.602 88.6354C106.616 88.1878 108.556 87.2925 110.197 85.9495C111.391 84.9796 112.286 83.7112 112.734 82.219H109.302C108.258 82.219 107.288 82.2937 106.318 82.3683V79.5331C107.288 79.6077 108.332 79.6824 109.302 79.6824H113.256C113.331 78.9363 113.331 78.1902 113.331 77.5187C113.331 77.2203 113.331 76.9218 113.256 76.6234H116.39C116.315 77.1456 116.241 77.5933 116.241 78.1156C116.166 78.9363 116.166 79.2347 116.091 79.8316ZM106.989 73.4898H108.705C108.108 71.923 107.288 70.5055 106.243 69.2371L108.854 68.2672C109.899 69.5355 110.794 70.9531 111.391 72.5199L109.004 73.4898H119.001C120.12 71.8484 121.09 69.9832 121.762 68.118L124.597 69.1625C124.448 69.3863 124.075 70.1324 123.403 71.1769C122.955 71.9976 122.433 72.8183 121.986 73.4898H123.702C124.597 73.4898 125.418 73.4898 126.313 73.4152C126.238 74.0867 126.238 74.8328 126.238 75.5042V77.3695C126.238 78.041 126.238 78.6378 126.387 79.3093H123.552V76.0265H107.288V79.3093H104.452C104.527 78.7124 104.602 78.041 104.602 77.3695V75.5042C104.602 74.8328 104.602 74.0867 104.527 73.4152C105.348 73.4898 106.168 73.4898 106.989 73.4898ZM117.509 72.0722L114.898 73.1168C114.375 71.55 113.629 70.0578 112.659 68.7894L115.271 67.9688C116.091 69.2371 116.912 70.6547 117.509 72.0722Z" fill="white"/>
<path d="M143.1 84.1591H141.16C140.489 84.1591 139.817 84.1591 139.146 84.2337V81.7716C138.922 82.4431 138.773 82.5923 138.474 83.2638C137.952 82.6669 137.28 82.2192 136.609 81.8462C137.206 80.8017 137.728 79.7571 138.026 78.638H136.385L136.46 89.0087C136.534 89.6055 136.31 90.277 135.937 90.7247C135.564 91.0231 134.818 91.2469 133.55 91.2469C132.953 91.2469 132.207 91.2469 131.461 91.1723C131.461 90.277 131.237 89.4563 130.939 88.7102C131.685 88.8594 132.431 88.934 133.251 88.934C133.923 88.934 134.072 88.8594 134.072 88.3372V82.2192C133.251 84.3083 131.909 86.0989 130.342 87.6657C130.043 86.6958 129.596 85.7259 129.073 84.9052C131.013 83.2638 132.505 81.1747 133.401 78.7872H131.61C130.864 78.7872 130.193 78.7872 129.446 78.9365V76.1013C130.193 76.1759 131.013 76.2505 131.759 76.2505H134.296C133.251 75.206 132.132 74.2361 130.864 73.3408L132.431 71.774C133.848 72.8185 133.998 72.8931 134.594 73.49C135.415 72.8931 136.087 72.0724 136.684 71.2517H132.207C131.461 71.2517 130.715 71.2517 130.043 71.3263V68.715C130.864 68.7896 131.61 68.8642 132.431 68.7896H136.833C137.579 68.7896 138.25 68.7896 138.996 68.715L140.414 70.2072C140.339 70.3564 140.116 70.5803 139.817 70.9533C138.773 72.4455 137.579 73.7884 136.236 74.9822C136.46 75.206 136.534 75.2806 136.833 75.5791L136.236 76.1759H137.803C138.4 76.1759 139.071 76.1759 139.668 76.1013L140.787 77.4443C140.638 77.6681 140.563 77.9665 140.489 78.265C141.981 77.9665 143.398 77.3697 144.667 76.6982C143.846 75.9521 143.1 75.0568 142.578 74.0869C141.981 74.9076 141.309 75.6537 140.638 76.3251C140.116 75.6537 139.444 75.0568 138.698 74.6091C140.339 73.2662 141.682 71.6248 142.503 69.6849C142.801 69.0881 143.025 68.4166 143.174 67.7451L145.86 68.2674C145.711 68.5658 145.562 68.8642 145.487 69.1627C145.338 69.4611 145.264 69.7596 145.04 70.1326H150.337C151.232 70.1326 152.128 70.1326 153.023 69.9834V72.5947C152.426 72.5201 151.829 72.4455 151.158 72.5201C150.635 74.0123 149.74 75.3552 148.621 76.549C150.188 77.2951 151.829 77.7427 153.545 77.9665C153.023 78.7872 152.65 79.6825 152.351 80.6525C150.337 80.2048 148.397 79.3841 146.606 78.265C145.86 78.7872 145.04 79.2349 144.219 79.6079H146.83C146.83 79.7571 146.83 79.8318 146.83 79.9064C146.83 80.0556 146.756 80.2048 146.756 80.354C146.756 80.5032 146.756 80.5032 146.681 80.8017C146.681 81.1747 146.606 81.3239 146.532 81.7716H150.188C150.859 81.7716 151.531 81.7716 152.202 81.697C152.128 82.07 152.128 82.4431 152.128 82.8161C152.053 84.9798 151.754 87.1434 151.232 89.2325C150.71 90.7993 150.038 91.1723 148.099 91.1723C147.203 91.1723 146.308 91.0977 145.413 91.0231C145.338 90.1278 145.189 89.2325 144.816 88.3372C145.786 88.561 146.756 88.6356 147.726 88.7102C148.546 88.7102 148.77 88.4118 149.069 87.0688C149.218 86.0989 149.367 85.129 149.367 84.1591H146.01C144.89 87.6657 142.876 89.7547 138.847 91.5454C138.4 90.7247 137.877 89.9786 137.28 89.2325C140.339 88.0387 142.055 86.6212 143.1 84.1591ZM141.235 81.7716H143.697C143.771 81.1747 143.846 80.5032 143.846 79.8318C143.846 79.7571 143.846 79.6825 143.846 79.6079C142.876 80.0556 142.354 80.2048 140.936 80.6525C140.712 80.1302 140.414 79.6079 140.116 79.0857C139.817 80.1302 139.593 80.7271 139.22 81.6224C139.892 81.7716 140.563 81.7716 141.235 81.7716ZM148.248 72.5201H144.219C144.741 73.5646 145.487 74.5345 146.383 75.2806C147.203 74.4599 147.875 73.5646 148.248 72.5201Z" fill="white"/>
</svg>
