<svg width="139" height="75" viewBox="0 0 139 75" fill="none" xmlns="http://www.w3.org/2000/svg">
<path d="M119.507 31.7136C118.682 31.7136 116.733 31.7136 115.458 31.6386V27.9649C116.958 28.1149 118.158 28.1899 119.282 28.1899C120.257 28.1899 120.857 28.1149 120.857 27.1402V26.0156L109.386 26.1656V23.2416L120.857 23.3166V21.6672L107.361 21.8172V18.6683L120.857 18.8182V17.1688L109.386 17.2438V14.3948L120.782 14.4698V12.8954L109.461 12.9703V6.52265L120.782 6.59763V5.02319L107.511 5.24811V1.72438H120.857C120.857 1.72438 120.782 0.449838 120.707 0H125.43C125.355 0.449838 125.28 1.72438 125.28 1.72438H138.775V5.24811L125.28 5.09817V6.6726L136.751 6.59763V12.9703L125.205 12.8954V14.4698L136.676 14.3948L136.601 18.4434H139V21.8921L136.601 21.9671L136.751 25.9407H125.205V27.5151C125.28 31.1888 124.53 31.7136 119.507 31.7136ZM125.28 23.3166H132.252V21.6672H125.28V23.3166ZM125.28 18.7433H132.252V17.0939H125.28V18.7433ZM125.28 10.6462H131.428V8.99676H125.28V10.6462ZM114.784 10.6462H120.782V8.99676H114.784V10.6462Z" fill="#FC6D26"/>
<path d="M63.6521 29.1646C60.7282 29.1646 58.404 28.4148 56.9045 26.8404C55.4051 25.266 54.5804 22.9418 54.5804 19.9429C54.5804 16.944 55.4051 14.3949 56.9795 12.6705C58.5539 10.9461 60.8781 10.1214 63.6521 10.1214C66.3511 10.1214 68.4504 10.8712 69.9499 12.4456C71.4493 14.02 72.199 16.2692 72.199 19.0432V20.6176H59.7535L59.8285 21.1425C59.8285 22.2671 60.2034 23.3917 60.8781 24.2913C61.5529 25.0411 62.5275 25.4159 63.5771 25.3409C65.6764 25.3409 66.5011 24.3663 66.876 23.3917H71.9741C71.6742 25.0411 70.7746 26.4655 69.425 27.5152C67.7756 28.7147 65.7514 29.2395 63.6521 29.1646ZM63.7271 13.7201C61.4779 13.7201 60.1284 14.9947 59.8285 17.3938L59.7535 17.6187H67.2508V17.4688C67.2508 16.4941 66.9509 15.4445 66.3511 14.6948C65.6764 14.02 64.7017 13.7201 63.7271 13.7201Z" fill="#FC6D26"/>
<path d="M45.8085 28.8649V17.7689C45.8085 15.8946 44.384 14.3951 42.5097 14.3951C40.6354 14.3951 39.1359 15.8196 39.1359 17.6939V17.7689V28.8649H33.8878V10.1217H39.1359V12.3709L39.5108 11.996C41.9849 9.22199 46.1834 9.07204 48.9574 11.5462C50.2319 12.6707 50.9817 14.2452 51.1316 15.9696V16.5693V28.9399L45.8085 28.8649Z" fill="#FC6D26"/>
<path d="M14.5448 31.7136C6.52266 31.7136 0 25.1909 0 17.1688V14.5448C0 6.52266 6.52266 0 14.5448 0H15.0696C23.0917 0 29.6143 6.52266 29.6143 14.5448V17.1688C29.6143 25.1909 23.0917 31.7136 15.0696 31.7136H14.5448ZM14.5448 6.14779C9.89644 6.14779 6.14779 9.89644 6.14779 14.5448V17.1688C6.14779 21.8172 9.89644 25.5658 14.5448 25.5658H15.0696C19.7179 25.5658 23.4666 21.8172 23.4666 17.1688V14.5448C23.4666 9.89644 19.7179 6.14779 15.0696 6.14779H14.5448Z" fill="#FC6D26"/>
<path d="M43.9342 43.1843H95.1408C98.2896 43.1843 100.839 45.7334 100.839 48.8823V69.2C100.839 72.3489 98.2896 74.8979 95.1408 74.8979H43.9342C40.7853 74.8979 38.2362 72.3489 38.2362 69.2V48.8823C38.1613 45.7334 40.7853 43.1843 43.9342 43.1843Z" fill="#FC6D26"/>
<path d="M56.6796 59.2286H62.3776C63.2772 59.2286 64.3269 59.1536 65.0016 59.1536C64.9266 59.6784 64.8517 60.1283 64.8517 60.6531C64.7017 64.6267 64.4018 66.7259 64.027 68.3003C63.5771 69.9497 62.4525 70.5495 59.7535 70.5495C59.3037 70.5495 58.9288 70.5495 57.2044 70.4746C57.1294 69.4999 56.9045 68.5253 56.5297 67.5506C57.5043 67.7006 58.5539 67.7755 59.5286 67.7755C60.8781 67.7755 61.103 67.6256 61.3279 66.6509C61.7028 65.0015 61.8527 63.3521 61.8527 61.7027H56.2298C55.705 64.0269 54.4304 66.0511 52.706 67.5506C50.9817 68.9751 48.9574 70.0247 46.8581 70.6995C46.4833 69.7248 45.8835 68.8252 45.1338 68.0754C47.158 67.6256 49.1073 66.7259 50.7567 65.3764C51.9563 64.4017 52.856 63.1272 53.3058 61.6277H49.8571C48.8074 61.6277 47.8328 61.7027 46.8581 61.7777V58.9287C47.8328 59.0037 48.8824 59.0787 49.8571 59.0787H53.8306C53.9056 58.3289 53.9056 57.5792 53.9056 56.9044C53.9056 56.6045 53.9056 56.3047 53.8306 56.0048H56.9795C56.9045 56.5296 56.8296 56.9794 56.8296 57.5042C56.7546 58.3289 56.7546 58.6288 56.6796 59.2286ZM47.5329 52.8559H49.2573C48.6575 51.2815 47.8328 49.857 46.7832 48.5824L49.4072 47.6078C50.4568 48.8823 51.3565 50.3068 51.9563 51.8812L49.5572 52.8559H59.6036C60.7281 51.2065 61.7028 49.3322 62.3776 47.4578L65.2265 48.5075C65.0766 48.7324 64.7017 49.4821 64.027 50.5317C63.5771 51.3564 63.0523 52.1811 62.6025 52.8559H64.3269C65.2265 52.8559 66.0512 52.8559 66.9509 52.7809C66.8759 53.4557 66.8759 54.2054 66.8759 54.8802V56.7545C66.8759 57.4292 66.8759 58.029 67.0259 58.7038H64.1769V55.405H47.8328V58.7038H44.9838C45.0588 58.104 45.1338 57.4292 45.1338 56.7545V54.8802C45.1338 54.2054 45.1338 53.4557 45.0588 52.7809C45.8835 52.8559 46.7082 52.8559 47.5329 52.8559ZM58.1041 51.4314L55.48 52.481C54.9552 50.9066 54.2055 49.4071 53.2308 48.1326L55.8549 47.3079C56.6796 48.5824 57.5043 50.0069 58.1041 51.4314Z" fill="white"/>
<path d="M83.8198 63.5772H81.8705C81.1958 63.5772 80.521 63.5772 79.8463 63.6522V61.1781C79.6214 61.8528 79.4714 62.0028 79.1715 62.6776C78.6467 62.0778 77.972 61.6279 77.2972 61.2531C77.897 60.2034 78.4218 59.1538 78.7217 58.0292H77.0723L77.1472 68.4505C77.2222 69.0503 76.9973 69.725 76.6224 70.1749C76.2476 70.4747 75.4978 70.6997 74.2233 70.6997C73.6235 70.6997 72.8738 70.6997 72.1241 70.6247C72.1241 69.725 71.8991 68.9003 71.5992 68.1506C72.349 68.3005 73.0987 68.3755 73.9234 68.3755C74.5982 68.3755 74.7481 68.3005 74.7481 67.7757V61.6279C73.9234 63.7272 72.5739 65.5265 70.9995 67.101C70.6996 66.1263 70.2497 65.1517 69.7249 64.327C71.6742 62.6776 73.1737 60.5783 74.0734 58.1792H72.274C71.5243 58.1792 70.8495 58.1792 70.0998 58.3291V55.4801C70.8495 55.5551 71.6742 55.6301 72.4239 55.6301H74.973C73.9234 54.5805 72.7988 53.6058 71.5243 52.7061L73.0987 51.1317C74.5232 52.1813 74.6731 52.2563 75.2729 52.8561C76.0976 52.2563 76.7724 51.4316 77.3722 50.6069H72.8738C72.1241 50.6069 71.3743 50.6069 70.6996 50.6819V48.0578C71.5243 48.1328 72.274 48.2078 73.0987 48.1328H77.5221C78.2718 48.1328 78.9466 48.1328 79.6963 48.0578L81.1208 49.5573C81.0458 49.7072 80.8209 49.9321 80.521 50.307C79.4714 51.8065 78.2718 53.156 76.9223 54.3555C77.1473 54.5805 77.2222 54.6554 77.5221 54.9553L76.9223 55.5551H78.4968C79.0965 55.5551 79.7713 55.5551 80.3711 55.4801L81.4957 56.8297C81.3457 57.0546 81.2708 57.3545 81.1958 57.6544C82.6953 57.3545 84.1197 56.7547 85.3943 56.0799C84.5696 55.3302 83.8199 54.4305 83.295 53.4559C82.6953 54.2806 82.0205 55.0303 81.3457 55.7051C80.8209 55.0303 80.1462 54.4305 79.3964 53.9807C81.0458 52.6312 82.3954 50.9818 83.2201 49.0325C83.52 48.4327 83.7449 47.7579 83.8948 47.0832L86.5938 47.608C86.4439 47.9079 86.294 48.2078 86.219 48.5076C86.069 48.8075 85.9941 49.1074 85.7691 49.4823H91.0922C91.9919 49.4823 92.8916 49.4823 93.7913 49.3324V51.9564C93.1915 51.8814 92.5917 51.8065 91.9169 51.8814C91.3921 53.3809 90.4924 54.7304 89.3678 55.93C90.9423 56.6797 92.5917 57.1295 94.3161 57.3545C93.7913 58.1792 93.4164 59.0788 93.1165 60.0535C91.0922 59.6037 89.1429 58.779 87.3436 57.6544C86.5938 58.1792 85.7691 58.629 84.9444 59.0039H87.5685C87.5685 59.1538 87.5685 59.2288 87.5685 59.3038C87.5685 59.4537 87.4935 59.6037 87.4935 59.7536C87.4935 59.9035 87.4935 59.9036 87.4186 60.2034C87.4186 60.5783 87.3436 60.7283 87.2686 61.1781H90.9423C91.617 61.1781 92.2918 61.1781 92.9666 61.1031C92.8916 61.478 92.8916 61.8529 92.8916 62.2277C92.8166 64.4019 92.5167 66.5762 91.9919 68.6754C91.4671 70.2498 90.7923 70.6247 88.843 70.6247C87.9434 70.6247 87.0437 70.5497 86.144 70.4747C86.069 69.5751 85.9191 68.6754 85.5442 67.7757C86.5189 68.0006 87.4935 68.0756 88.4682 68.1506C89.2929 68.1506 89.5178 67.8507 89.8177 66.5012C89.9676 65.5265 90.1176 64.5519 90.1176 63.5772H86.7438C85.6192 67.101 83.5949 69.2002 79.5464 70.9996C79.0965 70.1749 78.5717 69.4251 77.9719 68.6754C81.0458 67.4758 82.7702 66.0513 83.8198 63.5772ZM81.9455 61.1781H84.4196C84.4946 60.5783 84.5696 59.9036 84.5696 59.2288C84.5696 59.1538 84.5696 59.0788 84.5696 59.0039C83.5949 59.4537 83.0701 59.6037 81.6456 60.0535C81.4207 59.5287 81.1208 59.0039 80.8209 58.4791C80.521 59.5287 80.2961 60.1285 79.9213 61.0281C80.596 61.1781 81.2708 61.1781 81.9455 61.1781ZM88.993 51.8814H84.9444C85.4693 52.9311 86.219 53.9057 87.1187 54.6554C87.9434 53.8307 88.6181 52.9311 88.993 51.8814Z" fill="white"/>
</svg>
