<svg width="44" height="21" viewBox="0 0 44 21" fill="none" xmlns="http://www.w3.org/2000/svg">
<path d="M2.73573 13.1464C2.35577 16.6421 2.2038 17.63 1.51986 19.6818L0 19.0739C0.683938 17.326 0.98791 15.5782 1.1399 12.8425L2.73573 13.1464ZM0.0759746 9.9547C0.45594 10.0307 0.759912 10.0307 1.21587 10.0307C1.51984 10.0307 1.59586 10.0307 1.89983 10.0307C2.43178 9.34676 2.88775 8.73882 3.19172 8.28287C1.89984 6.53502 1.29188 5.77507 0 4.55918L0.987901 3.26732C1.44386 3.72327 1.59583 3.87525 1.82381 4.25522C2.88771 2.50738 3.64767 0.91152 3.79966 0.0755957L5.39549 0.683554C5.24351 0.835541 5.01554 1.36747 4.55959 2.27939C4.10363 3.2673 3.49566 4.17922 2.73573 5.39511C3.34368 6.07905 3.72367 6.61101 3.95165 6.99097C5.39552 4.78717 6.15544 3.26731 6.45941 2.43139L8.05525 3.26732C7.90326 3.49529 7.75129 3.72326 7.44732 4.17922C6.4594 5.85107 4.93956 8.20686 3.57169 9.9547C5.01555 9.87871 5.77548 9.80272 6.83938 9.65073C6.45941 8.8908 6.30744 8.51083 5.85148 7.67491L7.06735 7.14297C7.90327 8.66283 8.5112 9.8787 9.04315 11.3986L7.67529 12.0825C7.5233 11.4746 7.44731 11.3226 7.29532 10.9426C7.14333 10.9426 6.83936 11.0186 6.53539 11.0186C6.15542 11.0946 5.92745 11.0946 5.16752 11.1706V18.6179C5.16752 19.6818 5.16753 20.2138 5.31952 20.8977H3.41969C3.49568 20.1378 3.57169 19.5298 3.57169 18.5419V11.2466C3.11573 11.2466 2.27977 11.3226 1.06388 11.3986C0.68391 11.3986 0.379947 11.4746 0.0759746 11.5506V9.9547ZM7.52329 12.6905C8.05524 14.2863 8.35922 15.6542 8.81518 17.934L7.37134 18.3139C7.06737 16.1861 6.7634 14.5903 6.23144 13.0704L7.52329 12.6905ZM15.1986 0.379564C16.0345 2.1274 16.9465 3.26731 18.4663 4.63518C19.3782 5.47111 20.2901 6.07905 21.582 6.83898C21.202 7.29494 20.8221 7.90289 20.5941 8.43484C17.7064 6.53501 15.8825 4.63519 14.3627 2.12742C12.8428 4.78718 11.323 6.53502 8.81518 8.28287C8.51121 7.67492 8.28326 7.37093 7.75131 6.83898C10.3351 5.24312 12.0829 3.19131 13.3748 0.379564H15.1986ZM11.399 20.8217H9.57511C9.65111 20.0618 9.72711 19.3779 9.72711 18.5419V13.1464C9.72711 12.2345 9.72713 11.8545 9.65113 11.2466C10.1071 11.3226 10.639 11.3226 11.3229 11.3226H17.8584C18.5423 11.3226 19.0743 11.3226 19.5302 11.2466C19.4542 11.7785 19.4542 12.2345 19.4542 13.1464V18.4659C19.4542 19.4538 19.5302 20.3658 19.6062 20.8217H17.7824V19.4538H11.4749V20.8217H11.399ZM10.4111 7.06697C10.943 7.14296 11.399 7.14297 12.3869 7.14297H16.6425C17.7064 7.14297 18.0864 7.14296 18.6183 7.06697V8.8148C18.0104 8.73881 17.5544 8.7388 16.5665 8.7388H12.5389C11.551 8.7388 11.019 8.73881 10.4111 8.8148V7.06697ZM11.399 17.934H17.7824V12.8425H11.399V17.934Z" fill="#333333"/>
<path d="M28.1175 9.57514C27.9655 9.9551 27.8895 10.1831 27.6615 10.791L25.8377 10.4871C27.2055 7.29535 28.1175 4.4076 28.7254 1.21589C28.8014 0.759936 28.8774 0.455959 28.8774 0L30.8532 0.303991C30.7012 0.75995 30.6252 0.987924 30.5493 1.36789C30.3973 1.97583 30.3212 2.3558 30.0933 3.19172H39.1365C40.2764 3.19172 40.8083 3.19172 41.4922 3.11572V5.01555C40.8843 4.93956 40.2004 4.93955 39.2124 4.93955H29.7133C29.3333 6.23143 29.1813 6.91538 28.8014 8.13127H37.5406C38.6045 8.13127 39.4404 8.05527 39.9724 8.05527C39.8964 8.66322 39.7444 9.49914 39.5164 11.8549C39.4404 12.2349 39.4404 12.3869 39.3644 12.9948H41.4922C42.4042 12.9948 43.2401 12.9188 44 12.8429V14.7427C43.2401 14.6667 42.4042 14.5907 41.4922 14.5907H39.1365C38.6805 17.0225 38.2245 18.4663 37.6926 19.3023C37.0846 20.2142 36.2487 20.5181 34.5769 20.5181C33.589 20.5181 32.6011 20.4422 30.6252 20.2902C30.4732 19.5302 30.3972 19.1503 30.0933 18.3903C32.2211 18.6943 33.437 18.8463 34.4249 18.8463C35.6408 18.8463 36.0207 18.6183 36.4007 17.7064C36.7047 16.9465 37.0087 15.9586 37.2366 14.5907H25.6097C24.6218 14.5907 23.7859 14.6667 23.0259 14.7427V12.8429C23.7099 12.9188 24.5458 12.9948 25.6097 12.9948H37.4646C37.6166 12.1589 37.6166 12.0829 37.8446 9.80313L28.1175 9.57514Z" fill="#333333"/>
</svg>
