<svg width="32" height="31" viewBox="0 0 32 31" fill="none" xmlns="http://www.w3.org/2000/svg">
<path d="M28.9274 30.4262C25.8548 28.7026 23.1569 26.4543 20.9087 23.7564C18.8852 21.3583 17.3115 18.5105 16.3372 15.4379L16.0375 14.6136L15.7377 15.4379C14.2389 19.8595 12.815 22.3326 10.192 25.0304C8.09367 27.2037 5.77049 29.0023 3.14754 30.4262L0 26.0047C4.87119 23.6066 7.71896 21.0585 9.81732 17.4614C11.9906 13.7143 13.1148 8.61827 13.1148 2.32318C13.1148 1.57377 13.1148 0.749415 12.9649 0H18.5105C18.4356 0.824356 18.3607 1.64871 18.3607 2.39813C18.2857 5.77049 18.8103 9.14286 19.7845 12.4403C21.1335 16.1124 23.3817 19.4098 26.3044 21.9578C28.0281 23.4567 29.9766 24.7307 32 25.7049L28.9274 30.4262Z" fill="#FC6D26"/>
</svg>
