<svg width="71" height="71" viewBox="0 0 71 71" fill="none" xmlns="http://www.w3.org/2000/svg">
<path d="M71 70.6252L70.7001 56.83C70.7001 56.6051 70.5502 56.4551 70.3253 56.4551C70.1753 56.4551 70.1003 56.5301 70.0254 56.6051L67.1014 61.8532C66.8765 61.3284 66.5766 60.8036 66.2017 60.4288L9.3717 3.59874L14.32 0.899681C14.4699 0.824708 14.5449 0.599794 14.4699 0.449846C14.3949 0.374873 14.32 0.299901 14.17 0.299901L0.374868 0C0.149947 0 0 0.149947 0 0.374868L0.29989 14.17C0.29989 14.3949 0.449837 14.5449 0.674758 14.5449C0.824705 14.5449 0.899674 14.4699 0.974648 14.3949L3.6737 9.44668L60.5037 66.2767C60.8786 66.7265 61.4034 67.0264 62.0032 67.1764L56.755 70.1003C56.6051 70.1753 56.5301 70.4002 56.6051 70.5502C56.6801 70.6252 56.755 70.7001 56.905 70.7001L70.7001 71C70.8501 71 71 70.8501 71 70.6252Z" fill="#636972"/>
</svg>
