<svg width="96" height="67" viewBox="0 0 96 67" fill="none" xmlns="http://www.w3.org/2000/svg">
<path d="M44.8995 33.1272C44.8995 44.3446 43.0624 52.6527 39.3883 58.0364C35.7141 63.4276 30.053 66.1195 22.4047 66.1195C14.7565 66.1195 9.41029 63.3377 5.64618 57.774C1.88206 52.2103 0 43.9922 0 33.1272C0 22.2623 1.82957 13.4369 5.48871 8.06061C9.15535 2.68437 14.794 0 22.4047 0C30.0155 0 35.4142 2.81184 39.2083 8.43552C43.0024 14.0592 44.8995 22.2923 44.8995 33.1272ZM13.4893 33.1272C13.4893 41.0079 14.1717 46.6541 15.5289 50.0658C16.8935 53.4775 19.1805 55.1871 22.4047 55.1871C25.629 55.1871 27.856 53.4625 29.2581 50.0058C30.6678 46.5491 31.3652 40.9254 31.3652 33.1347C31.3652 25.3441 30.6528 19.5929 29.2357 16.1512C27.811 12.7095 25.539 10.9924 22.4047 10.9924C19.2705 10.9924 16.9235 12.7095 15.5514 16.1512C14.1717 19.5929 13.4893 25.2541 13.4893 33.1347V33.1272Z" fill="#333333"/>
<path d="M94.1105 15.3788C94.1105 19.3903 92.8957 22.802 90.4663 25.6139C88.0369 28.4257 84.6252 30.3603 80.2312 31.41V31.6724C85.4125 32.3173 89.3416 33.8919 92.0034 36.3963C94.6653 38.9007 96 42.275 96 46.5265C96 52.705 93.758 57.5189 89.2816 60.9606C84.7976 64.4023 78.4016 66.1194 70.0786 66.1194C63.1052 66.1194 56.9267 64.9646 51.5354 62.6477V51.0929C54.0248 52.3526 56.7617 53.3799 59.7535 54.1672C62.7453 54.9545 65.6996 55.3519 68.6314 55.3519C73.1154 55.3519 76.4221 54.5871 78.5591 53.0649C80.6961 51.5428 81.7683 49.0984 81.7683 45.7242C81.7683 42.7099 80.5386 40.5654 78.0792 39.3132C75.6198 38.0534 71.6907 37.4236 66.307 37.4236H61.4331V27.0085H66.3969C71.3758 27.0085 75.0124 26.3562 77.3144 25.0515C79.6163 23.7468 80.7636 21.5123 80.7636 18.3481C80.7636 13.4892 77.7193 11.0523 71.6232 11.0523C69.5162 11.0523 67.3717 11.4047 65.1897 12.1095C63.0077 12.8144 60.5858 14.0291 57.9164 15.7537L51.6329 6.39587C57.4815 2.19685 64.4699 0.0898438 72.583 0.0898438C79.2339 0.0898438 84.4827 1.43953 88.3368 4.1314C92.1909 6.82327 94.1179 10.5724 94.1179 15.3788H94.1105Z" fill="#333333"/>
</svg>
