<svg width="139" height="75" viewBox="0 0 139 75" fill="none" xmlns="http://www.w3.org/2000/svg">
<path d="M119.507 31.7136C118.682 31.7136 116.733 31.7136 115.458 31.6386V27.9649C116.958 28.1149 118.158 28.1899 119.282 28.1899C120.257 28.1899 120.857 28.1149 120.857 27.1402V26.0156L109.386 26.1656V23.2416L120.857 23.3166V21.6672L107.361 21.8172V18.6683L120.857 18.8182V17.1688L109.386 17.2438V14.3948L120.782 14.4698V12.8954L109.461 12.9703V6.52265L120.782 6.59763V5.02319L107.511 5.24811V1.72438H120.857C120.857 1.72438 120.782 0.449838 120.707 0H125.43C125.355 0.449838 125.28 1.72438 125.28 1.72438H138.775V5.24811L125.28 5.09817V6.6726L136.751 6.59763V12.9703L125.205 12.8954V14.4698L136.676 14.3948L136.601 18.4434H139V21.8921L136.601 21.9671L136.751 25.9407H125.205V27.5151C125.28 31.1888 124.53 31.7136 119.507 31.7136ZM125.28 23.3166H132.252V21.6672H125.28V23.3166ZM125.28 18.7433H132.252V17.0939H125.28V18.7433ZM125.28 10.6462H131.428V8.99676H125.28V10.6462ZM114.784 10.6462H120.782V8.99676H114.784V10.6462Z" fill="#FC6D26"/>
<path d="M63.6521 29.1646C60.7282 29.1646 58.404 28.4148 56.9045 26.8404C55.4051 25.266 54.5804 22.9418 54.5804 19.9429C54.5804 16.944 55.4051 14.3949 56.9795 12.6705C58.5539 10.9461 60.8781 10.1214 63.6521 10.1214C66.3511 10.1214 68.4504 10.8712 69.9499 12.4456C71.4493 14.02 72.199 16.2692 72.199 19.0432V20.6176H59.7535L59.8285 21.1425C59.8285 22.2671 60.2034 23.3917 60.8781 24.2913C61.5529 25.0411 62.5275 25.4159 63.5771 25.3409C65.6764 25.3409 66.5011 24.3663 66.876 23.3917H71.9741C71.6742 25.0411 70.7746 26.4655 69.425 27.5152C67.7756 28.7147 65.7514 29.2395 63.6521 29.1646ZM63.7271 13.7201C61.4779 13.7201 60.1284 14.9947 59.8285 17.3938L59.7535 17.6187H67.2508V17.4688C67.2508 16.4941 66.9509 15.4445 66.3511 14.6948C65.6764 14.02 64.7017 13.7201 63.7271 13.7201Z" fill="#FC6D26"/>
<path d="M45.8085 28.8649V17.7689C45.8085 15.8946 44.384 14.3951 42.5097 14.3951C40.6354 14.3951 39.1359 15.8196 39.1359 17.6939V17.7689V28.8649H33.8878V10.1217H39.1359V12.3709L39.5108 11.996C41.9849 9.22199 46.1834 9.07204 48.9574 11.5462C50.2319 12.6707 50.9817 14.2452 51.1316 15.9696V16.5693V28.9399L45.8085 28.8649Z" fill="#FC6D26"/>
<path d="M14.5448 31.7136C6.52266 31.7136 0 25.1909 0 17.1688V14.5448C0 6.52266 6.52266 0 14.5448 0H15.0696C23.0917 0 29.6143 6.52266 29.6143 14.5448V17.1688C29.6143 25.1909 23.0917 31.7136 15.0696 31.7136H14.5448ZM14.5448 6.14779C9.89644 6.14779 6.14779 9.89644 6.14779 14.5448V17.1688C6.14779 21.8172 9.89644 25.5658 14.5448 25.5658H15.0696C19.7179 25.5658 23.4666 21.8172 23.4666 17.1688V14.5448C23.4666 9.89644 19.7179 6.14779 15.0696 6.14779H14.5448Z" fill="#FC6D26"/>
<path d="M43.9342 43.1843H95.1408C98.2896 43.1843 100.839 45.7334 100.839 48.8823V69.2C100.839 72.3489 98.2896 74.8979 95.1408 74.8979H43.9342C40.7853 74.8979 38.2362 72.3489 38.2362 69.2V48.8823C38.1613 45.7334 40.7853 43.1843 43.9342 43.1843Z" fill="#FC6D26"/>
</svg>
