<svg width="88" height="21" viewBox="0 0 88 21" fill="none" xmlns="http://www.w3.org/2000/svg">
<path d="M2.93085 1.95369C2.93085 1.35249 2.93082 0.976749 2.85567 0.601002H4.58414C4.50899 0.976749 4.50897 1.20219 4.50897 1.95369V2.40458H7.06406V1.95369C7.06406 1.27734 7.06404 0.976749 6.98889 0.601002H8.71736C8.64221 0.9016 8.64218 1.2022 8.64218 1.87854V2.32944H9.61912C10.2955 2.32944 10.8215 2.32944 11.4979 2.17914V3.75728C10.9718 3.68213 10.5209 3.68213 9.61912 3.68213H8.64218V3.98273C8.64218 4.50877 8.64221 4.88452 8.71736 5.18512H6.98889C7.06404 4.88452 7.06406 4.58392 7.06406 3.98273V3.68213H4.50897V3.98273C4.50897 4.65907 4.50899 4.88452 4.58414 5.18512H2.85567C2.93082 4.88452 2.93085 4.50877 2.93085 3.98273V3.75728H1.8036C0.901811 3.75728 0.375747 3.75727 0 3.83242V2.25429C0.450897 2.32944 0.976942 2.40458 1.87874 2.40458H2.93085V1.95369ZM2.40479 10.4456C1.57815 10.4456 1.27754 10.4456 0.751494 10.5207C0.751494 10.2201 0.826671 9.76923 0.826671 9.39348V6.8384C0.826671 6.3875 0.826644 6.16206 0.751494 5.71116C1.35269 5.78631 1.3527 5.78631 2.40479 5.78631H9.09311C10.07 5.78631 10.1452 5.78631 10.7464 5.71116C10.6712 6.08691 10.6712 6.3875 10.6712 6.91355V9.31833C10.6712 9.76923 10.6712 10.145 10.7464 10.5207C10.2203 10.4456 9.9949 10.4456 9.09311 10.4456H6.3877V11.8734H8.71736C9.61915 11.8734 10.07 11.8734 10.7464 11.7983V13.3764C10.07 13.3013 9.61915 13.3012 8.71736 13.3012H6.3877V14.7291H8.26644C9.16823 14.7291 9.61915 14.7291 10.2203 14.6539V16.2321C9.544 16.1569 9.09308 16.1569 8.26644 16.1569H6.3877V17.8854C7.59009 17.7351 8.34159 17.5848 10.2955 17.209L10.3706 18.5617C7.13919 19.3132 5.86165 19.4635 1.50299 20.0647C1.12724 20.1398 0.826644 20.215 0.375747 20.215L0 18.4114C0.150299 18.4114 0.225439 18.4114 0.225439 18.4114H0.375747C1.05209 18.4114 2.02905 18.3363 4.80958 18.0357V16.0818H2.78054C2.02904 16.0818 1.503 16.0818 0.901802 16.2321V14.6539C1.3527 14.7291 1.87874 14.8042 2.78054 14.8042H4.7344V13.3764H2.40479C1.6533 13.3764 1.0521 13.4516 0.526055 13.5267V11.9486C1.0521 12.0237 1.50298 12.0989 2.47992 12.0989H4.95989V10.671L2.40479 10.4456ZM2.32966 7.06385V9.09288H4.88471V7.06385H2.32966ZM6.3877 9.09288H9.24337V7.06385H6.3877V9.09288ZM17.8104 5.33541C18.8625 5.33541 19.3134 5.33541 19.8395 5.26026C19.8395 5.56086 19.7643 6.61296 19.6892 8.49169C19.5389 13.7522 19.2383 17.209 18.7874 18.6369C18.4868 19.5387 18.2613 19.9896 17.7353 20.215C17.2844 20.4404 16.7583 20.5156 16.0068 20.5156C15.6311 20.5156 15.5559 20.5156 14.1281 20.3653C14.0529 19.6138 13.9778 19.2381 13.7523 18.5617C14.579 18.7872 15.4056 18.8623 16.082 18.8623C17.0589 18.8623 17.2092 18.5617 17.4347 16.9084C17.8104 14.5036 17.9607 12.0989 18.0359 6.8384H15.4808C15.3305 10.4456 14.9548 12.4746 14.2033 14.7291C13.4518 17.1339 12.3245 19.0126 10.6712 20.8162C10.1452 20.215 9.91971 19.9895 9.24337 19.6138C10.9718 17.8854 12.0239 16.1569 12.7754 13.677C13.3766 11.7983 13.602 9.99468 13.7523 6.8384H13.3015C12.0991 6.8384 11.7233 6.8384 11.2724 6.9887V5.26026C11.8736 5.33541 12.3245 5.41056 13.3015 5.41056H13.7523C13.7523 4.58392 13.7523 3.98272 13.7523 3.08093C13.7523 1.42764 13.7524 1.2022 13.6021 0.601002H15.5559C15.4808 1.2022 15.4056 1.50279 15.4056 2.25429C15.4056 4.13302 15.4056 4.65907 15.3305 5.41056L17.8104 5.33541Z" fill="#333333"/>
<path d="M22.4697 18.9375C24.0478 17.3593 24.7241 16.2321 25.4756 14.0527L26.9786 14.7291C26.152 17.1339 25.4005 18.4114 23.9726 20.1398L22.4697 18.9375ZM26.5277 4.35847C26.7531 4.35847 26.8283 4.35847 27.0538 4.35847C28.5567 2.63003 29.4585 1.27734 29.8343 0.225253L31.8633 0.676148C31.7882 0.826447 31.6379 0.976742 31.4876 1.27734C30.6609 2.55488 29.9846 3.38153 29.1579 4.35847C31.713 4.35847 34.3432 4.20817 37.1989 4.05787C36.2971 3.38153 35.7711 3.00578 34.5687 2.17914L35.9214 1.35249C38.0256 2.70518 39.4534 3.75727 41.9333 6.0869L40.5806 7.21414C39.6037 6.2372 39.3031 5.9366 38.7019 5.33541C34.719 5.71116 29.684 5.93661 25.0999 6.01176C24.3484 6.01176 24.0478 6.0869 23.5969 6.0869L23.2963 4.28332C24.0478 4.35847 25.0247 4.43362 26.3774 4.43362L26.5277 4.35847ZM25.5508 8.94258C25.5508 8.34139 25.5508 7.89049 25.4756 7.28929C26.0017 7.36444 26.5277 7.36445 27.4295 7.36445H37.5747C38.4765 7.36445 39.0025 7.36444 39.5286 7.28929C39.4534 7.81534 39.4534 8.19109 39.4534 8.94258V11.3474C39.4534 12.174 39.4534 12.4746 39.5286 13.0007C38.9274 12.9255 38.4765 12.9255 37.6498 12.9255H27.3544C26.5277 12.9255 26.0017 12.9255 25.4756 13.0007C25.5508 12.4746 25.5508 12.0237 25.5508 11.3474V8.94258ZM27.2041 8.79228V11.4977H37.725V8.79228H27.2041ZM29.9094 14.1279C29.8343 14.6539 29.7592 14.9545 29.7592 15.6309V18.2611C29.7592 18.7872 30.0597 18.8623 32.5397 18.8623C35.3953 18.8623 36.0717 18.7872 36.2971 18.4114C36.5226 18.1108 36.5977 17.5848 36.6729 16.1569C37.1989 16.4575 37.6498 16.6078 38.3262 16.7581C38.0256 20.4404 37.8753 20.5156 32.7651 20.5156C28.7071 20.5156 28.1059 20.2901 28.1059 18.9375V15.8563C28.1059 15.18 28.1059 14.8042 27.9556 14.203L29.9094 14.1279ZM34.2681 17.209C33.1409 15.9315 32.3894 15.3303 30.9615 14.4285L32.2391 13.5267C33.5918 14.4285 34.3433 15.0297 35.4705 16.1569L34.2681 17.209ZM41.3321 19.8392C40.1297 17.5096 39.228 16.3072 37.6498 14.5788L39.0777 13.8273C40.6558 15.5557 41.5576 16.8333 42.8351 18.7872L41.3321 19.8392Z" fill="#333333"/>
<path d="M48.321 3.38172C47.6447 4.28352 47.0435 4.80956 46.2169 5.56106C45.766 4.95986 45.6908 4.95986 44.9393 4.43382C46.6677 3.23143 47.795 1.80359 48.4713 0L50.1998 0.450895C49.824 1.12724 49.6737 1.35269 49.3731 1.87874H52.9803C53.9573 1.87874 54.4082 1.87874 54.9342 1.72844V3.30658C54.4082 3.23143 54.1076 3.23143 53.2809 3.23143H51.6276C52.0034 3.98292 52.2288 4.35866 52.5294 5.03501L51.0264 5.63621C50.7258 4.65926 50.5004 4.13322 50.0495 3.23143H48.321V3.38172ZM62.2237 6.16225C63.3509 6.16225 63.8018 6.16225 64.5533 6.0871C64.4782 6.538 64.4782 6.8386 64.4782 7.51494V8.79248C64.4782 9.46882 64.4782 9.84457 64.5533 10.2955H62.8249V7.59009H47.4193V10.2955H45.6908C45.766 9.84457 45.766 9.46883 45.766 8.86763V7.59009C45.766 6.98889 45.766 6.61315 45.6908 6.16225C46.3672 6.2374 46.818 6.2374 47.9453 6.2374H53.9572V5.9368C53.9572 5.41076 53.9573 5.11016 53.8821 4.73442H55.6857C55.6857 4.80956 55.6857 4.88471 55.6857 4.88471C55.6106 5.18531 55.6105 5.41076 55.6105 5.9368V6.2374L62.2237 6.16225ZM48.5465 20.8915C48.6217 20.14 48.6968 19.4637 48.6968 18.5619V10.4458C48.6968 9.69428 48.6968 9.31852 48.6217 8.79248C49.298 8.86763 49.8992 8.94278 50.801 8.94278H59.1426C60.0444 8.94278 60.6456 8.94278 61.3219 8.79248C61.2468 9.24338 61.2467 9.69428 61.2467 10.4458V11.8736C61.2467 12.7003 61.2468 13.076 61.3219 13.602C60.7207 13.5269 60.1195 13.5269 59.2177 13.5269H50.4253V14.9547H60.1947C61.0965 14.9547 61.6976 14.9547 62.2237 14.8796C62.1485 15.4056 62.1485 16.082 62.1485 16.8335V18.7874C62.1485 19.614 62.1486 20.2152 62.2989 20.8915H60.5704V19.8394H50.5004V20.8915H48.5465ZM50.3501 12.0991H59.5934V10.2203H50.3501V12.0991ZM50.3501 18.4116H60.4201V16.3074H50.3501V18.4116ZM57.1135 3.45687C56.6626 4.05807 56.4372 4.35867 55.9863 4.80956C55.6857 4.50897 55.2348 4.20836 54.7087 3.90777C55.836 3.00597 56.6626 1.72844 57.1135 0.225451L58.7668 0.526044C58.5414 1.12724 58.3911 1.35269 58.0153 2.02903H63.1255C64.1024 2.02903 64.5533 2.02903 65.1545 1.87874V3.53202C64.5533 3.45687 64.1024 3.38172 63.1255 3.38172H60.4201C60.871 4.13322 61.0965 4.50897 61.3971 5.18531L59.8189 5.7865C59.4432 4.80956 59.2177 4.28352 58.6917 3.38172H57.1135V3.45687Z" fill="#333333"/>
<path d="M69.1375 3.08133C68.2357 3.08133 68.0102 3.08134 67.3339 3.23163V1.42805C67.8599 1.5032 68.386 1.57834 69.2878 1.57834H72.6695C73.4961 1.57834 74.0222 1.57835 74.5482 1.42805V3.15648C73.947 3.08133 73.5713 3.08133 72.8198 3.08133H71.8429V8.11635H72.5944C73.1956 8.11635 73.5713 8.11634 74.0973 7.96604V9.61933C73.6465 9.54418 73.1956 9.54418 72.5944 9.54418H71.8429V14.8798C72.7447 14.504 73.1955 14.2786 74.3979 13.6774L74.4731 15.3307C72.4441 16.3076 71.6174 16.6834 68.6114 17.8858C68.0854 18.1112 68.0102 18.1112 67.7096 18.2615L67.1836 16.3828C67.9351 16.2325 68.6866 16.007 70.1896 15.4058V9.39388H69.1375C68.5363 9.39388 68.1605 9.39388 67.6345 9.54418V7.8909C68.1605 7.96604 68.5363 8.04119 69.2126 8.04119H70.2647V3.00618C70.1896 3.08133 69.1375 3.08133 69.1375 3.08133ZM80.1844 15.481H77.3288C76.2015 15.481 75.6755 15.481 75.1494 15.6313V13.9028C75.6755 13.978 76.2015 14.0531 77.3288 14.0531H80.1844V11.6484H77.9299C76.5021 11.6484 75.8258 11.6484 75.1494 11.7235C75.2246 11.3478 75.2246 10.5211 75.2246 9.09328V4.20857C75.2246 2.78073 75.2246 2.02924 75.0743 1.27774C75.8258 1.35289 76.5021 1.42805 78.0051 1.42805H84.017C85.6703 1.42805 86.2716 1.42804 86.8727 1.27774C86.7976 1.95409 86.7976 2.85588 86.7976 4.20857V8.86784C86.7976 10.3708 86.7976 11.1975 86.8727 11.7987C86.0461 11.7235 85.5201 11.7235 84.2425 11.7235H81.6874V14.1283H84.9188C86.0461 14.1283 86.497 14.1283 87.1733 13.978V15.7064C86.5721 15.6313 86.0461 15.5561 84.9188 15.5561H81.6874V18.5621H85.7455C86.8727 18.5621 87.3988 18.5621 88 18.4118V20.1403C87.3236 20.0651 86.7976 19.9899 85.6703 19.9899H75.7506C74.6234 19.9899 74.0973 19.99 73.421 20.1403V18.4118C74.0222 18.487 74.4731 18.5621 75.6003 18.5621H80.1093L80.1844 15.481ZM76.8027 2.85589V5.78671H80.1844V2.85589H76.8027ZM76.8027 7.2897V10.1454H80.1844V7.2897H76.8027ZM81.7626 5.78671H85.2946V2.85589H81.7626V5.78671ZM81.7626 10.1454H85.2946V7.2897H81.7626V10.1454Z" fill="#333333"/>
</svg>
