<svg width="36" height="21" viewBox="0 0 36 21" fill="none" xmlns="http://www.w3.org/2000/svg">
<path d="M7.55923 1.42185C10.8524 1.42185 12.7235 2.91873 12.7235 5.61312C12.7235 6.88546 12.3492 7.93328 11.526 8.60688C11.0769 9.05594 10.7027 9.20563 9.80455 9.50501C10.8524 9.72954 11.3763 9.95407 11.975 10.478C12.8732 11.3013 13.3222 12.4239 13.3222 13.846C13.3222 16.9146 11.3014 18.636 7.78375 18.636H2.61954C1.49688 18.636 0.898129 18.636 0 18.7108C0.149688 17.8127 0.224523 17.2139 0.224523 15.8668V3.81686C0.224523 2.84389 0.14967 2.17029 0.0748258 1.34701C0.748422 1.34701 1.34719 1.42185 2.61954 1.42185H7.55923ZM7.40953 8.75657C9.43032 8.75657 10.553 7.70875 10.553 5.91249C10.553 4.19108 9.50517 3.29295 7.40953 3.29295H2.32015V8.75657H7.40953ZM2.32015 16.9146H7.55923C9.8794 16.9146 11.1517 15.7919 11.1517 13.7711C11.1517 11.7503 9.87941 10.5528 7.4844 10.5528H2.32015V16.9146Z" fill="#333333"/>
<path d="M20.9564 18.2619C20.9564 19.2349 21.0312 19.9085 21.106 20.5073H19.1601C19.2349 19.8337 19.3098 19.2349 19.3098 18.2619V11.6757C18.262 12.7235 17.6632 13.1726 16.3908 14.1455C16.1663 13.5468 15.8669 13.0977 15.4927 12.5738C17.0644 11.6008 18.262 10.6279 19.5343 9.28066C20.657 8.08316 21.3306 7.03534 22.1538 5.38877H18.1122C17.3638 5.38877 16.9147 5.38877 16.2411 5.46361V3.66736C16.9147 3.7422 17.289 3.7422 18.0374 3.7422H19.3098V1.72141C19.3098 1.12266 19.2349 0.449064 19.1601 0H21.106C21.0312 0.449064 20.9564 1.04782 20.9564 1.79626V3.81704H22.1538C22.8274 3.81704 23.1268 3.81705 23.4262 3.7422L24.2495 4.64033C24.0998 4.86486 23.9501 5.16424 23.7255 5.6133C22.9771 7.11018 22.3784 8.08315 21.3306 9.43035C22.5281 10.7775 23.4262 11.526 24.9231 12.4241C24.5489 12.948 24.3243 13.3222 24.0249 13.921C22.7526 13.0229 21.8545 12.2744 20.9564 11.1518V18.2619ZM30.237 17.6632H33.5301C34.7276 17.6632 35.4012 17.5884 36 17.5135V19.5343C35.2515 19.3846 34.5031 19.3846 33.5301 19.3846H25.5218C24.5488 19.3846 23.8004 19.4594 23.052 19.5343V17.5135C23.7256 17.5884 24.3243 17.6632 25.5218 17.6632H28.3659V8.30769H26.2703C25.447 8.30769 24.7734 8.38253 24.0998 8.45738V6.58627C24.6985 6.66112 25.3721 6.73596 26.2703 6.73596H28.3659V2.09563C28.3659 1.34719 28.291 0.823284 28.2162 0H30.3119C30.1622 0.823284 30.1622 1.27235 30.1622 2.09563V6.73596H33.0062C33.9792 6.73596 34.578 6.73596 35.1767 6.58627V8.45738C34.5031 8.38253 33.8295 8.30769 33.0062 8.30769H30.1622L30.237 17.6632Z" fill="#333333"/>
</svg>
