<svg width="190" height="21" viewBox="0 0 190 21" fill="none" xmlns="http://www.w3.org/2000/svg">
<path d="M9.18632 1.41884C9.03695 1.71758 8.81289 2.16569 8.43947 2.83786C8.21541 3.36066 7.99135 3.73409 7.76729 4.03283C7.99135 3.95815 10.1572 3.95816 14.3396 3.88348C15.0118 3.88348 15.3852 3.80878 15.8333 3.65941L16.9536 4.77969C16.7296 5.15312 16.6549 5.2278 16.2814 6.2734C15.4599 8.43928 14.3396 10.8292 13.294 12.4723C11.0535 15.9825 7.99135 18.5218 3.28616 20.6877C2.83805 19.8662 2.61399 19.5674 1.94182 19.0446C3.80896 18.2978 5.00393 17.6256 6.49764 16.6547C8.21541 15.4597 9.18632 14.5635 10.3066 13.2192C8.66352 11.8001 7.16981 10.6799 5.37736 9.70894L6.64701 8.36461C8.51415 9.41021 9.63443 10.2317 11.5016 11.7255C12.6965 9.85832 13.6675 7.8418 14.4143 5.60124L6.87107 5.67593C5.37736 8.06586 3.80896 9.78363 1.5684 11.6508C1.0456 11.0533 0.746855 10.8292 0 10.3811C2.46462 8.58865 4.25707 6.57214 5.6761 4.03283C6.34827 2.76318 6.79638 1.79226 7.02044 0.970723L9.18632 1.41884Z" fill="#333333"/>
<path d="M24.3475 2.09101C24.2728 2.6885 24.1981 3.13661 24.1981 4.40627L24.1234 17.4762C26.6627 17.0281 28.6793 16.2813 30.4717 15.161C32.6376 13.742 34.1313 12.1736 35.3263 9.85833C35.9237 10.7546 36.1478 10.9786 36.82 11.5014C33.7579 16.1319 30.3223 18.2978 24.2728 19.4181C23.526 19.5674 23.3019 19.6421 22.9285 19.7915L21.8829 18.5218C22.0322 18.0737 22.0322 17.775 22.0322 16.8788L22.1069 4.48096C22.1069 3.36068 22.1069 2.61382 22.0322 2.1657L24.3475 2.09101Z" fill="#333333"/>
<path d="M38.4631 17.2524C40.2555 17.1777 42.9442 16.5055 45.0354 15.6093C49.2925 13.7422 52.2799 10.456 54.147 5.60144C54.7445 6.34829 55.0432 6.64704 55.7901 7.16984C53.923 11.1282 51.9064 13.7422 48.8443 15.7587C46.5291 17.3271 44.0645 18.298 40.4796 19.1195C39.7327 19.2689 39.5833 19.3436 39.0605 19.493L38.4631 17.2524ZM40.0314 3.36087C42.4961 4.92927 43.9151 6.04956 45.5582 7.61796L44.2138 9.26102C42.5708 7.46857 40.7036 5.97486 38.7618 4.85458C38.6871 4.85458 40.0314 3.36087 40.0314 3.36087Z" fill="#333333"/>
<path d="M60.8687 20.1655C61.0181 19.4186 61.0181 18.8212 61.0181 17.5515V3.88406C61.0181 2.53972 61.0181 2.01691 60.8687 1.41943H63.1093C63.0346 2.0916 62.9599 2.68907 62.9599 3.95873V7.91708C66.0967 9.03736 69.1588 10.4564 72.9678 12.6223L71.8475 14.5641C69.9057 13.1451 66.7689 11.502 63.6321 10.1576C63.3333 10.0083 63.184 10.0083 62.8852 9.78421C62.9599 10.3817 62.9599 10.7551 62.9599 11.6514V17.4768C62.9599 18.6718 62.9599 19.344 63.1093 20.0908L60.8687 20.1655Z" fill="#333333"/>
<path d="M83.3491 13.0702C85.9631 10.9043 88.0543 8.51437 89.772 5.751C89.8467 5.60163 89.8467 5.60162 89.9214 5.45224C89.6973 5.45224 85.5896 5.52693 77.5236 5.52693C76.1793 5.52693 75.5818 5.52694 74.6855 5.60162V3.51044C75.5071 3.65981 76.1046 3.6598 77.5236 3.6598H90.2948C91.1164 3.6598 91.3404 3.65981 91.7138 3.51044L92.8341 4.78008C92.5354 5.07882 92.386 5.30288 91.9379 5.97505C89.772 9.3359 87.3821 12.0993 84.544 14.3398C85.3656 15.2361 86.4112 16.5804 87.7555 18.2982L86.1124 19.6425C84.9175 17.7754 83.7225 16.207 81.7807 14.1158C80.1376 12.3233 78.9426 11.203 77.2995 9.85871L78.7932 8.73843C80.1376 9.85871 80.9591 10.6056 81.8554 11.5018L83.3491 13.0702Z" fill="#333333"/>
<path d="M103.066 20.6132C103.141 20.0157 103.141 19.4182 103.141 18.2233V13.294C103.141 12.9206 103.141 12.6965 103.215 12.2484C102.991 12.4725 102.842 12.5472 102.543 12.7712C100.9 13.7422 98.6596 14.6384 95.8216 15.5346C95.5228 14.7877 95.3734 14.489 94.8506 13.8168C99.033 12.8459 102.618 11.2028 105.605 8.96227C106.726 8.14073 107.473 7.46856 108.593 6.27359L108.145 6.34828C107.846 6.34828 107.323 6.42297 107.099 6.42297H99.2571C98.1368 6.42297 97.614 6.42295 96.7925 6.57233V4.48114C97.4646 4.55583 98.0621 4.63052 99.2571 4.63052H103.141V2.83805C103.141 1.94182 103.141 1.64309 103.066 1.12029H105.157C105.083 1.64309 105.083 2.01651 105.083 2.83805V4.63052H109.564C110.086 4.63052 110.385 4.55583 110.684 4.48114L111.655 5.60142C111.356 5.90016 111.207 5.97484 110.759 6.57233C109.489 7.99135 107.547 9.70913 105.979 10.8294C109.19 11.9497 111.281 12.9206 114.045 14.5637L112.925 16.3561C111.281 15.2359 109.265 14.1156 106.427 12.8459C105.605 12.4725 105.531 12.3978 105.083 12.1737C105.083 12.2484 105.083 12.3978 105.157 12.6219C105.157 12.6965 105.157 13.07 105.157 13.3687V18.2233C105.157 19.5676 105.157 20.0157 105.232 20.6132H103.066Z" fill="#333333"/>
<path d="M117.406 7.54324C119.572 8.43947 121.289 9.26101 123.156 10.5307L122.111 12.3231C120.468 11.1281 118.451 10.0079 116.285 9.18631L117.406 7.54324ZM116.733 17.7752C118.302 17.7752 120.617 17.2524 122.858 16.3561C125.621 15.3105 127.712 13.7421 129.505 11.3522C130.774 9.70913 131.521 8.36478 132.193 6.34827C132.866 7.02044 133.09 7.24449 133.836 7.76729C131.895 12.4725 129.131 15.5346 125.173 17.4764C123.605 18.2233 121.215 19.0448 119.347 19.4182C118.974 19.4929 118.601 19.5676 118.153 19.6423C117.704 19.717 117.555 19.7917 117.256 19.8664L116.733 17.7752ZM119.123 2.16588C121.289 3.0621 122.858 3.80897 124.8 5.00394L123.754 6.79639C122.036 5.60142 119.796 4.40645 118.078 3.80897L119.123 2.16588ZM131.073 1.19497C132.119 2.46463 132.642 3.21149 133.388 4.63051L132.044 5.37737C131.372 3.95834 130.625 2.83805 129.729 1.86714L131.073 1.19497ZM133.612 0C134.658 1.19497 135.181 1.94183 135.928 3.43554L134.658 4.1824C133.986 2.91274 133.314 1.86714 132.343 0.746855L133.612 0Z" fill="#333333"/>
<path d="M150.79 2.6887C150.491 3.13681 150.417 3.36086 150.043 4.10772C148.699 7.39388 147.877 9.03697 146.757 10.6054C148.699 12.2484 150.043 13.4434 151.836 15.4599L150.342 17.103C149.147 15.6093 147.728 14.1156 145.562 12.2484C144.517 13.6675 143.247 15.0118 141.828 16.3561C140.259 17.7752 138.84 18.6714 136.6 19.9411C136.152 19.1942 135.928 18.8955 135.181 18.298C138.766 16.5055 141.604 14.265 144.068 10.9788C142.052 9.4104 139.961 7.99136 138.094 6.94576L139.438 5.52674C140.932 6.42296 142.873 7.69262 145.189 9.3357C146.234 7.69262 146.981 6.12424 147.728 4.2571C148.251 2.91276 148.4 2.53932 148.55 1.86715L150.79 2.6887Z" fill="#333333"/>
<path d="M155.421 17.2524C157.213 17.1777 159.902 16.5055 161.993 15.6093C166.25 13.7422 169.237 10.456 171.03 5.60144C171.627 6.34829 171.926 6.64704 172.673 7.16984C170.806 11.1282 168.789 13.7422 165.727 15.7587C163.412 17.3271 160.947 18.298 157.288 19.1195C156.541 19.2689 156.392 19.3436 155.869 19.493L155.421 17.2524ZM156.989 3.36087C159.454 4.92927 160.873 6.04956 162.516 7.61796L161.171 9.26102C159.528 7.46857 157.661 5.97486 155.719 4.85458L156.989 3.36087Z" fill="#333333"/>
<path d="M177.826 20.1655C177.901 19.4186 177.976 18.8212 177.976 17.5515V3.88406C177.976 2.53972 177.976 2.01691 177.826 1.41943H180.067C179.992 2.0916 179.992 2.68907 179.992 3.95873V7.91708C183.129 9.03736 186.191 10.4564 190 12.6223L188.88 14.5641C186.938 13.1451 183.801 11.502 180.664 10.1576C180.291 10.0083 180.216 10.0083 179.917 9.78421C179.992 10.3817 179.992 10.7551 179.992 11.6514V17.4768C179.992 18.6718 179.992 19.344 180.067 20.0908L177.826 20.1655Z" fill="#333333"/>
</svg>
