<svg width="190" height="21" viewBox="0 0 190 21" fill="none" xmlns="http://www.w3.org/2000/svg">
<path d="M9.18632 1.41884C9.03695 1.71758 8.81289 2.16569 8.43946 2.83786C8.21541 3.36066 7.99135 3.73409 7.7673 4.03283C7.99135 3.95815 10.1572 3.95816 14.3396 3.88348C15.0118 3.88348 15.3852 3.80878 15.8333 3.65941L16.9536 4.77969C16.7296 5.15312 16.6549 5.2278 16.2814 6.2734C15.4599 8.43928 14.3396 10.8292 13.294 12.4723C11.0535 15.9825 7.99135 18.5218 3.28616 20.6877C2.83805 19.8662 2.614 19.5674 1.94183 19.0446C3.80896 18.2978 5.00393 17.6256 6.49764 16.6547C8.21541 15.4597 9.18632 14.5635 10.3066 13.2192C8.66352 11.8001 7.16981 10.6799 5.37736 9.70894L6.64701 8.36461C8.51415 9.41021 9.63444 10.2317 11.5016 11.7255C12.6965 9.85832 13.6675 7.8418 14.4143 5.60124L6.87107 5.67593C5.37736 8.06586 3.80896 9.78363 1.5684 11.6508C1.0456 11.0533 0.746855 10.8292 0 10.3811C2.46462 8.58865 4.25708 6.57214 5.6761 4.03283C6.34827 2.76318 6.79638 1.79226 7.02044 0.970723L9.18632 1.41884Z" fill="#333333"/>
<path d="M24.2728 2.09101C24.1981 2.6885 24.1234 3.13661 24.1234 4.40627L24.0487 17.4762C26.588 17.0281 28.6046 16.2813 30.397 15.161C32.5629 13.742 34.0566 12.1736 35.2516 9.85833C35.8491 10.7546 36.0731 10.9786 36.7453 11.5014C33.6832 16.1319 30.2476 18.2978 24.1981 19.4181C23.4513 19.5674 23.2272 19.6421 22.8538 19.7915L21.8082 18.5218C21.9575 18.0737 21.9575 17.775 21.9575 16.8788L22.0322 4.48096C22.0322 3.36068 22.0322 2.61382 21.9575 2.1657L24.2728 2.09101Z" fill="#333333"/>
<path d="M38.3884 17.2524C40.1808 17.1777 42.8695 16.5055 44.9607 15.6093C49.2178 13.7422 52.2052 10.456 54.0723 5.60144C54.6698 6.34829 54.9685 6.64704 55.7154 7.16984C53.8483 11.1282 51.8318 13.7422 48.7696 15.7587C46.4544 17.3271 43.9898 18.298 40.4049 19.1195C39.658 19.2689 39.5086 19.3436 38.9858 19.493L38.3884 17.2524ZM39.9568 3.36087C42.4214 4.92927 43.8404 6.04956 45.4835 7.61795L44.1391 9.26102C42.4961 7.46857 40.6289 5.97486 38.6871 4.85458C38.6124 4.85458 39.9568 3.36087 39.9568 3.36087Z" fill="#333333"/>
<path d="M60.8687 20.1655C61.0181 19.4186 61.0181 18.8212 61.0181 17.5515V3.88406C61.0181 2.53972 61.0181 2.01691 60.8687 1.41943H63.1093C63.0346 2.09159 62.9599 2.68907 62.9599 3.95873V7.91708C66.0967 9.03736 69.1588 10.4564 72.9678 12.6223L71.8475 14.5641C69.9057 13.1451 66.7689 11.502 63.6321 10.1576C63.3333 10.0083 63.184 10.0083 62.8852 9.78421C62.9599 10.3817 62.9599 10.7551 62.9599 11.6514V17.4768C62.9599 18.6718 62.9599 19.344 63.1093 20.0908L60.8687 20.1655Z" fill="#333333"/>
<path d="M83.2744 13.0702C85.8884 10.9043 87.9796 8.51437 89.6973 5.751C89.772 5.60163 89.772 5.60161 89.8467 5.45224C89.6227 5.45224 85.5149 5.52693 77.4489 5.52693C76.1046 5.52693 75.5071 5.52694 74.6109 5.60162V3.51044C75.4324 3.65981 76.0299 3.6598 77.4489 3.6598H90.2201C91.0417 3.6598 91.2657 3.65981 91.6392 3.51044L92.7594 4.78008C92.4607 5.07882 92.3113 5.30288 91.8632 5.97505C89.6973 9.3359 87.3074 12.0993 84.4693 14.3398C85.2909 15.2361 86.3365 16.5804 87.6808 18.2982L86.0377 19.6425C84.8428 17.7754 83.6478 16.207 81.706 14.1158C80.0629 12.3233 78.8679 11.203 77.2248 9.85871L78.7186 8.73843C80.0629 9.85871 80.8844 10.6055 81.7807 11.5018L83.2744 13.0702Z" fill="#333333"/>
<path d="M102.991 20.6132C103.066 20.0157 103.066 19.4182 103.066 18.2233V13.294C103.066 12.9206 103.066 12.6965 103.141 12.2484C102.917 12.4725 102.767 12.5472 102.469 12.7712C100.825 13.7422 98.5849 14.6384 95.7469 15.5346C95.4481 14.7877 95.2987 14.489 94.7759 13.8168C98.9583 12.8459 102.543 11.2028 105.531 8.96227C106.651 8.14073 107.398 7.46856 108.518 6.27359L108.07 6.34828C107.771 6.34828 107.248 6.42297 107.024 6.42297H99.1824C98.0621 6.42297 97.5393 6.42295 96.7178 6.57232V4.48114C97.3899 4.55582 97.9874 4.63052 99.1824 4.63052H103.066V2.83805C103.066 1.94182 103.066 1.64309 102.991 1.12029H105.083C105.008 1.64309 105.008 2.01651 105.008 2.83805V4.63052H109.489C110.012 4.63052 110.311 4.55582 110.609 4.48114L111.58 5.60142C111.281 5.90016 111.132 5.97484 110.684 6.57232C109.414 7.99135 107.472 9.70913 105.904 10.8294C109.116 11.9497 111.207 12.9206 113.97 14.5637L112.85 16.3561C111.207 15.2359 109.19 14.1156 106.352 12.8459C105.531 12.4725 105.456 12.3978 105.008 12.1737C105.008 12.2484 105.008 12.3978 105.083 12.6219C105.083 12.6965 105.083 13.07 105.083 13.3687V18.2233C105.083 19.5676 105.083 20.0157 105.157 20.6132H102.991Z" fill="#333333"/>
<path d="M117.406 7.54324C119.572 8.43947 121.289 9.26101 123.156 10.5307L122.111 12.3231C120.468 11.1281 118.451 10.0079 116.285 9.18631L117.406 7.54324ZM116.659 17.7752C118.227 17.7752 120.542 17.2524 122.783 16.3561C125.546 15.3105 127.638 13.7421 129.43 11.3522C130.7 9.70913 131.447 8.36478 132.119 6.34827C132.791 7.02044 133.015 7.24449 133.762 7.76729C131.82 12.4725 129.057 15.5346 125.098 17.4764C123.53 18.2233 121.14 19.0448 119.273 19.4182C118.899 19.4929 118.526 19.5676 118.078 19.6423C117.63 19.717 117.48 19.7917 117.182 19.8664L116.659 17.7752ZM119.123 2.16588C121.289 3.0621 122.858 3.80897 124.8 5.00394L123.754 6.79639C122.036 5.60142 119.796 4.40645 118.078 3.80897L119.123 2.16588ZM130.998 1.19497C132.044 2.46463 132.567 3.21149 133.314 4.63051L131.969 5.37737C131.297 3.95834 130.55 2.83805 129.654 1.86714L130.998 1.19497ZM133.612 0C134.658 1.19497 135.181 1.94183 135.928 3.43554L134.658 4.18239C133.986 2.91274 133.314 1.86714 132.343 0.746855L133.612 0Z" fill="#333333"/>
<path d="M150.79 2.6887C150.491 3.13681 150.417 3.36086 150.043 4.10772C148.699 7.39388 147.877 9.03697 146.757 10.6054C148.699 12.2484 150.043 13.4434 151.836 15.4599L150.342 17.103C149.147 15.6093 147.728 14.1156 145.562 12.2484C144.517 13.6675 143.247 15.0118 141.828 16.3561C140.259 17.7752 138.84 18.6714 136.6 19.9411C136.152 19.1942 135.928 18.8955 135.181 18.298C138.766 16.5055 141.604 14.265 144.068 10.9788C142.052 9.4104 139.961 7.99135 138.094 6.94576L139.438 5.52674C140.932 6.42296 142.873 7.69262 145.189 9.3357C146.234 7.69262 146.981 6.12423 147.728 4.2571C148.251 2.91276 148.4 2.53932 148.55 1.86715L150.79 2.6887Z" fill="#333333"/>
<path d="M155.421 17.2524C157.213 17.1777 159.902 16.5055 161.993 15.6093C166.25 13.7422 169.237 10.456 171.03 5.60144C171.627 6.34829 171.926 6.64704 172.673 7.16984C170.806 11.1282 168.789 13.7422 165.727 15.7587C163.412 17.3271 160.947 18.298 157.362 19.1195C156.616 19.2689 156.466 19.3436 155.943 19.493L155.421 17.2524ZM156.914 3.36087C159.379 4.92927 160.798 6.04956 162.441 7.61795L161.097 9.26102C159.454 7.46857 157.661 5.97486 155.645 4.85458L156.914 3.36087Z" fill="#333333"/>
<path d="M177.826 20.1655C177.901 19.4186 177.976 18.8212 177.976 17.5515V3.88406C177.976 2.53972 177.976 2.01691 177.826 1.41943H180.067C179.992 2.09159 179.992 2.68907 179.992 3.95873V7.91708C183.129 9.03736 186.191 10.4564 190 12.6223L188.88 14.5641C186.938 13.1451 183.801 11.502 180.664 10.1576C180.291 10.0083 180.216 10.0083 179.917 9.78421C179.992 10.3817 179.992 10.7551 179.992 11.6514V17.4768C179.992 18.6718 179.992 19.344 180.067 20.0908L177.826 20.1655Z" fill="#333333"/>
</svg>
