<svg width="620" height="304" viewBox="0 0 620 304" fill="none" xmlns="http://www.w3.org/2000/svg">
<mask id="mask0_1_2133" style="mask-type:luminance" maskUnits="userSpaceOnUse" x="285" y="48" width="51" height="21">
<path d="M335.367 48.4961H285.006V68.1182H335.367V48.4961Z" fill="white"/>
</mask>
<g mask="url(#mask0_1_2133)">
<path d="M335.292 58.0461L325.369 48.5707C325.22 48.4215 324.996 48.4215 324.847 48.5707C324.773 48.6454 324.698 48.7946 324.773 48.8692L326.414 54.6141C325.892 54.3902 325.295 54.241 324.773 54.241H294.034L295.6 48.8692C295.675 48.72 295.526 48.4961 295.377 48.4215C295.227 48.3469 295.153 48.4215 295.004 48.4961L285.081 57.9715C284.931 58.1207 284.931 58.3445 285.081 58.4937L295.004 67.9691C295.153 68.1183 295.377 68.1183 295.526 67.9691C295.6 67.8945 295.675 67.7452 295.6 67.6706L294.034 62.2988H324.773C325.369 62.2988 325.892 62.1496 326.414 61.9257L324.773 67.6706C324.698 67.8198 324.847 68.0437 324.996 68.1183C325.146 68.1929 325.22 68.1183 325.369 68.0437L335.292 58.5683C335.367 58.4191 335.367 58.1953 335.292 58.0461Z" fill="#636972"/>
</g>
<mask id="mask1_1_2133" style="mask-type:luminance" maskUnits="userSpaceOnUse" x="285" y="234" width="51" height="20">
<path d="M335.367 234.272H285.006V253.895H335.367V234.272Z" fill="white"/>
</mask>
<g mask="url(#mask1_1_2133)">
<path d="M335.292 243.823L325.369 234.347C325.22 234.198 324.996 234.198 324.847 234.347C324.773 234.422 324.698 234.571 324.773 234.72L326.414 240.465C325.892 240.241 325.295 240.092 324.773 240.092H294.034L295.6 234.72C295.675 234.571 295.526 234.347 295.377 234.273C295.227 234.273 295.153 234.273 295.004 234.347L285.081 243.823C284.931 243.972 284.931 244.196 285.081 244.345L295.004 253.82C295.153 253.969 295.377 253.969 295.526 253.82C295.6 253.746 295.675 253.596 295.6 253.447L294.034 248.075H324.773C325.369 248.075 325.892 247.926 326.414 247.702L324.773 253.447C324.698 253.596 324.847 253.82 324.996 253.895C325.146 253.895 325.22 253.895 325.369 253.82L335.292 244.345C335.367 244.196 335.367 243.972 335.292 243.823Z" fill="#636972"/>
</g>
<mask id="mask2_1_2133" style="mask-type:luminance" maskUnits="userSpaceOnUse" x="118" y="127" width="21" height="51">
<path d="M138.25 127.432H118.628V177.793H138.25V127.432Z" fill="white"/>
</mask>
<g mask="url(#mask2_1_2133)">
<path d="M128.7 177.644L138.176 167.721C138.325 167.571 138.325 167.348 138.176 167.198C138.101 167.124 137.952 167.049 137.877 167.124L132.132 168.765C132.356 168.243 132.505 167.646 132.505 167.124V136.385L137.877 137.952C138.026 138.026 138.25 137.877 138.325 137.728C138.4 137.579 138.325 137.504 138.25 137.429L128.775 127.506C128.626 127.357 128.402 127.357 128.253 127.506L118.777 137.429C118.628 137.579 118.628 137.802 118.777 137.952C118.852 138.026 119.001 138.101 119.076 138.026L124.448 136.46V167.124C124.448 167.721 124.597 168.318 124.821 168.765L119.076 167.124C118.927 167.049 118.703 167.198 118.628 167.348C118.554 167.497 118.628 167.571 118.703 167.646L128.178 177.569C128.327 177.793 128.551 177.793 128.7 177.644Z" fill="#636972"/>
</g>
<mask id="mask3_1_2133" style="mask-type:luminance" maskUnits="userSpaceOnUse" x="481" y="127" width="20" height="51">
<path d="M500.85 127.432H481.227V177.793H500.85V127.432Z" fill="white"/>
</mask>
<g mask="url(#mask3_1_2133)">
<path d="M491.3 177.644L500.775 167.721C500.924 167.571 500.924 167.348 500.775 167.198C500.7 167.124 500.551 167.049 500.402 167.124L494.657 168.765C494.881 168.243 495.03 167.646 495.03 167.124V136.385L500.402 137.952C500.551 138.026 500.775 137.877 500.85 137.728C500.85 137.579 500.85 137.504 500.775 137.429L491.3 127.506C491.15 127.357 490.927 127.357 490.777 127.506L481.302 137.429C481.153 137.579 481.153 137.802 481.302 137.952C481.377 138.026 481.526 138.101 481.675 138.026L487.047 136.46V167.124C487.047 167.721 487.196 168.318 487.42 168.765L481.675 167.124C481.526 167.049 481.302 167.198 481.227 167.348C481.227 167.497 481.227 167.571 481.302 167.646L490.777 177.569C490.927 177.793 491.15 177.793 491.3 177.644Z" fill="#FC6D26"/>
</g>
<path d="M14.9218 187.269H242.479C250.686 187.269 257.401 193.983 257.401 202.19V288.737C257.401 296.944 250.686 303.658 242.479 303.658H14.9218C6.7148 303.658 0 296.944 0 288.737V202.19C0 193.983 6.7148 187.269 14.9218 187.269Z" fill="#F5F6F9"/>
<path d="M377.521 0H605.078C613.285 0 620 6.7148 620 14.9218V101.468C620 109.675 613.285 116.39 605.078 116.39H377.521C369.314 116.39 362.599 109.675 362.599 101.468V14.9218C362.599 6.7148 369.314 0 377.521 0Z" fill="#FFF7F0"/>
<path d="M377.521 185.776H605.078C613.285 185.776 620 192.491 620 200.698V287.244C620 295.451 613.285 302.166 605.078 302.166H377.521C369.314 302.166 362.599 295.451 362.599 287.244V200.698C362.599 192.491 369.314 185.776 377.521 185.776Z" fill="#FFF7F0"/>
<path d="M111.093 218.903C111.093 217.858 111.018 217.261 110.943 216.217C111.69 216.291 112.361 216.291 113.48 216.291H117.36C119.822 216.291 121.762 216.963 123.105 218.306C124.671 219.798 125.418 222.036 125.418 224.797C125.418 227.557 124.597 230.019 122.955 231.586C121.613 232.929 119.747 233.601 117.36 233.601H113.48C112.286 233.601 111.764 233.601 110.943 233.675C111.093 232.78 111.093 232.109 111.093 230.915V218.903ZM117.285 231.661C119.076 231.661 120.419 231.139 121.463 230.094C122.657 228.9 123.254 227.035 123.254 224.797C123.254 222.559 122.657 220.843 121.538 219.649C120.568 218.604 119.225 218.157 117.36 218.157H113.182V231.661H117.285Z" fill="#333333"/>
<path d="M132.878 233.079C132.878 234.049 132.953 234.72 132.953 235.317H131.013C131.088 234.645 131.162 234.049 131.162 233.079V226.513C130.118 227.558 129.521 228.005 128.253 228.975C128.029 228.378 127.73 227.931 127.357 227.408C128.924 226.438 130.118 225.468 131.386 224.126C132.505 222.932 133.177 221.887 133.998 220.246H129.969C129.223 220.246 128.775 220.246 128.103 220.32V218.53C128.775 218.604 129.148 218.604 129.894 218.604H131.162V216.59C131.162 215.993 131.088 215.322 131.013 214.874H132.953C132.878 215.322 132.804 215.919 132.804 216.665V218.679H133.998C134.669 218.679 135.042 218.679 135.266 218.604L136.087 219.5C135.937 219.724 135.788 220.022 135.564 220.47C134.818 221.962 134.221 222.932 133.177 224.275C134.371 225.618 135.266 226.364 136.758 227.259C136.385 227.781 136.161 228.154 135.863 228.751C134.594 227.856 133.699 227.11 132.804 225.991V233.079H132.878ZM142.205 232.482H145.487C146.681 232.482 147.353 232.407 147.949 232.333V234.347C147.203 234.272 146.457 234.198 145.487 234.198H137.579C136.609 234.198 135.863 234.272 135.117 234.347V232.333C135.788 232.407 136.385 232.482 137.579 232.482H140.414V223.156H138.325C137.504 223.156 136.833 223.23 136.161 223.23V221.365C136.758 221.44 137.355 221.514 138.325 221.514H140.414V216.963C140.414 216.217 140.339 215.695 140.265 214.874H142.354C142.205 215.695 142.205 216.142 142.205 216.963V221.514H145.04C146.01 221.514 146.606 221.514 147.203 221.365V223.23C146.532 223.156 145.86 223.156 145.04 223.156H142.205V232.482Z" fill="#333333"/>
<path d="M39.9904 253.596C39.8412 253.895 39.6173 254.342 39.2443 255.014C39.0205 255.536 38.7966 255.909 38.5728 256.207C38.7966 256.133 40.9603 256.133 45.1384 256.058C45.8099 256.058 46.1829 255.984 46.6306 255.834L47.7497 256.953C47.5259 257.327 47.4513 257.401 47.0782 258.446C46.2575 260.609 45.1384 262.997 44.0939 264.638C41.8556 268.145 38.7966 270.682 34.0963 272.845C33.6486 272.025 33.4248 271.726 32.7533 271.204C34.6185 270.458 35.8123 269.786 37.3045 268.816C39.0205 267.623 39.9904 266.727 41.1095 265.384C39.4681 263.967 37.9759 262.848 36.1853 261.878L37.4537 260.535C39.3189 261.579 40.438 262.4 42.3032 263.892C43.497 262.027 44.4669 260.012 45.213 257.774L37.6775 257.849C36.1853 260.236 34.6185 261.952 32.3803 263.818C31.858 263.221 31.5596 262.997 30.8135 262.549C33.2756 260.759 35.0662 258.744 36.4838 256.207C37.1552 254.939 37.6029 253.969 37.8267 253.148L39.9904 253.596Z" fill="#333333"/>
<path d="M55.0614 254.268C54.9868 254.864 54.9121 255.312 54.9121 256.58L54.8375 269.637C57.3742 269.189 59.3887 268.443 61.1793 267.324C63.343 265.907 64.8351 264.34 66.0289 262.027C66.6257 262.922 66.8496 263.146 67.5211 263.668C64.4621 268.294 61.0301 270.458 54.9868 271.577C54.2407 271.726 54.0168 271.801 53.6438 271.95L52.5993 270.682C52.7485 270.234 52.7485 269.935 52.7485 269.04L52.8231 256.655C52.8231 255.536 52.8231 254.79 52.7485 254.342L55.0614 254.268Z" fill="#333333"/>
<path d="M69.1624 269.413C70.9531 269.339 73.639 268.667 75.728 267.772C79.9807 265.907 82.9651 262.624 84.8303 257.774C85.4272 258.52 85.7256 258.819 86.4717 259.341C84.6065 263.295 82.592 265.907 79.5331 267.921C77.2202 269.488 74.7581 270.458 71.1769 271.279C70.4308 271.428 70.2816 271.502 69.7593 271.652L69.1624 269.413ZM70.7292 255.536C73.1913 257.103 74.6089 258.222 76.2503 259.789L74.9073 261.43C73.2659 259.64 71.4007 258.147 69.4609 257.028C69.3863 257.028 70.7292 255.536 70.7292 255.536Z" fill="#333333"/>
<path d="M91.6197 272.324C91.769 271.577 91.769 270.981 91.769 269.712V256.059C91.769 254.716 91.769 254.194 91.6197 253.597H93.858C93.7834 254.268 93.7088 254.865 93.7088 256.133V260.088C96.8424 261.207 99.9013 262.624 103.706 264.788L102.587 266.728C100.647 265.31 97.5138 263.669 94.3803 262.326C94.0818 262.177 93.9326 262.177 93.6342 261.953C93.7088 262.55 93.7088 262.923 93.7088 263.818V269.638C93.7088 270.831 93.7088 271.503 93.858 272.249L91.6197 272.324Z" fill="#333333"/>
<path d="M114.002 265.235C116.614 263.072 118.703 260.684 120.419 257.924C120.493 257.775 120.493 257.775 120.568 257.625C120.344 257.625 116.241 257.7 108.183 257.7C106.84 257.7 106.243 257.7 105.348 257.775V255.686C106.168 255.835 106.765 255.835 108.183 255.835H120.941C121.762 255.835 121.986 255.835 122.359 255.686L123.478 256.954C123.179 257.252 123.03 257.476 122.582 258.148C120.419 261.505 118.031 264.266 115.196 266.504C116.017 267.399 117.061 268.742 118.404 270.458L116.763 271.801C115.569 269.936 114.375 268.369 112.436 266.28C110.794 264.489 109.6 263.37 107.959 262.027L109.451 260.908C110.794 262.027 111.615 262.773 112.51 263.669L114.002 265.235Z" fill="#333333"/>
<path d="M133.699 272.771C133.774 272.174 133.774 271.577 133.774 270.383V265.459C133.774 265.086 133.774 264.862 133.848 264.415C133.625 264.638 133.475 264.713 133.177 264.937C131.535 265.907 129.297 266.802 126.462 267.697C126.164 266.951 126.014 266.653 125.492 265.981C129.67 265.011 133.252 263.37 136.236 261.132C137.355 260.311 138.101 259.64 139.22 258.446L138.773 258.52C138.474 258.52 137.952 258.595 137.728 258.595H129.894C128.775 258.595 128.253 258.595 127.432 258.744V256.655C128.103 256.73 128.7 256.804 129.894 256.804H133.774V255.014C133.774 254.119 133.774 253.82 133.699 253.298H135.788C135.714 253.82 135.714 254.193 135.714 255.014V256.804H140.19C140.712 256.804 141.011 256.73 141.309 256.655L142.279 257.774C141.981 258.073 141.832 258.147 141.384 258.744C140.116 260.162 138.176 261.878 136.609 262.997C139.817 264.116 141.906 265.086 144.667 266.727L143.548 268.518C141.906 267.399 139.892 266.28 137.057 265.011C136.236 264.638 136.161 264.564 135.714 264.34C135.714 264.415 135.714 264.564 135.788 264.788C135.788 264.862 135.788 265.235 135.788 265.534V270.383C135.788 271.726 135.788 272.174 135.863 272.771H133.699Z" fill="#333333"/>
<path d="M148.099 259.714C150.262 260.61 151.978 261.43 153.844 262.699L152.799 264.489C151.158 263.295 149.143 262.176 146.98 261.356L148.099 259.714ZM147.353 269.936C148.919 269.936 151.232 269.413 153.471 268.518C156.231 267.474 158.32 265.907 160.111 263.519C161.379 261.878 162.125 260.535 162.797 258.52C163.468 259.192 163.692 259.416 164.438 259.938C162.498 264.638 159.738 267.697 155.783 269.637C154.217 270.383 151.829 271.204 149.964 271.577C149.591 271.652 149.218 271.726 148.77 271.801C148.323 271.875 148.173 271.95 147.875 272.025L147.353 269.936ZM149.815 254.342C151.978 255.238 153.545 255.984 155.485 257.178L154.44 258.968C152.724 257.774 150.486 256.581 148.77 255.984L149.815 254.342ZM161.678 253.372C162.722 254.641 163.244 255.387 163.99 256.804L162.647 257.551C161.976 256.133 161.23 255.014 160.335 254.044L161.678 253.372ZM164.289 252.179C165.333 253.372 165.856 254.119 166.602 255.611L165.333 256.357C164.662 255.088 163.99 254.044 163.02 252.925L164.289 252.179Z" fill="#333333"/>
<path d="M181.449 254.865C181.15 255.312 181.076 255.536 180.703 256.282C179.36 259.565 178.539 261.206 177.42 262.773C179.36 264.415 180.703 265.608 182.493 267.623L181.001 269.264C179.807 267.772 178.39 266.28 176.226 264.415C175.182 265.832 173.913 267.175 172.496 268.518C170.929 269.936 169.511 270.831 167.273 272.099C166.826 271.353 166.602 271.055 165.856 270.458C169.437 268.667 172.272 266.429 174.734 263.146C172.72 261.579 170.631 260.162 168.765 259.117L170.108 257.7C171.6 258.595 173.54 259.863 175.853 261.505C176.898 259.863 177.644 258.297 178.39 256.431C178.912 255.088 179.061 254.715 179.211 254.044L181.449 254.865Z" fill="#333333"/>
<path d="M186.075 269.413C187.865 269.339 190.551 268.667 192.64 267.772C196.893 265.907 199.877 262.624 201.668 257.774C202.265 258.52 202.563 258.819 203.309 259.341C201.444 263.295 199.43 265.907 196.371 267.921C194.058 269.488 191.596 270.458 188.014 271.279C187.268 271.428 187.119 271.502 186.597 271.652L186.075 269.413ZM187.567 255.536C190.029 257.103 191.446 258.222 193.088 259.789L191.745 261.43C190.103 259.64 188.313 258.147 186.298 257.028L187.567 255.536Z" fill="#333333"/>
<path d="M208.457 272.324C208.532 271.577 208.607 270.981 208.607 269.712V256.059C208.607 254.716 208.606 254.194 208.457 253.597H210.696C210.621 254.268 210.621 254.865 210.621 256.133V260.088C213.755 261.207 216.813 262.624 220.619 264.788L219.499 266.728C217.56 265.31 214.426 263.669 211.292 262.326C210.919 262.177 210.845 262.177 210.546 261.953C210.621 262.55 210.621 262.923 210.621 263.818V269.638C210.621 270.831 210.621 271.503 210.696 272.249L208.457 272.324Z" fill="#333333"/>
<mask id="mask4_1_2133" style="mask-type:luminance" maskUnits="userSpaceOnUse" x="267" y="108" width="86" height="86">
<path d="M281.668 108.929L267.793 122.804L338.222 193.233L352.097 179.358L281.668 108.929Z" fill="white"/>
</mask>
<g mask="url(#mask4_1_2133)">
<path d="M345.29 186.075L344.992 172.347C344.992 172.123 344.842 171.973 344.619 171.973C344.469 171.973 344.395 172.048 344.32 172.123L341.41 177.345C341.187 176.823 340.888 176.301 340.515 175.928L283.961 119.374L288.886 116.688C289.035 116.614 289.109 116.39 289.035 116.241C288.96 116.166 288.886 116.091 288.736 116.091L275.008 115.793C274.785 115.793 274.635 115.942 274.635 116.166L274.934 129.894C274.934 130.118 275.083 130.267 275.307 130.267C275.456 130.267 275.531 130.192 275.605 130.118L278.291 125.194L334.845 181.747C335.218 182.195 335.74 182.493 336.337 182.643L331.114 185.552C330.965 185.627 330.89 185.851 330.965 186C331.04 186.075 331.114 186.149 331.264 186.149L344.992 186.448C345.141 186.448 345.29 186.298 345.29 186.075Z" fill="#636972"/>
</g>
<mask id="mask5_1_2133" style="mask-type:luminance" maskUnits="userSpaceOnUse" x="267" y="108" width="86" height="86">
<path d="M338.275 108.982L267.846 179.411L281.721 193.286L352.15 122.857L338.275 108.982Z" fill="white"/>
</mask>
<g mask="url(#mask5_1_2133)">
<path d="M274.71 186.075L275.008 172.347C275.008 172.123 275.158 171.973 275.381 171.973C275.531 171.973 275.605 172.048 275.68 172.123L278.59 177.345C278.813 176.823 279.112 176.301 279.485 175.928L336.038 119.374L331.114 116.688C330.965 116.614 330.89 116.39 330.965 116.241C331.04 116.166 331.114 116.091 331.264 116.091L344.992 115.793C345.215 115.793 345.365 115.942 345.365 116.166L345.066 129.894C345.066 130.118 344.917 130.267 344.693 130.267C344.544 130.267 344.469 130.192 344.395 130.118L341.709 125.194L285.155 181.747C284.782 182.195 284.26 182.493 283.663 182.643L288.886 185.552C289.035 185.627 289.109 185.851 289.035 186C288.96 186.075 288.886 186.149 288.736 186.149L275.008 186.448C274.859 186.373 274.71 186.224 274.71 186.075Z" fill="#636972"/>
</g>
<path d="M14.9218 0H242.479C250.686 0 257.401 6.7148 257.401 14.9218V101.468C257.401 109.675 250.686 116.39 242.479 116.39H14.9218C6.7148 116.39 0 109.675 0 101.468V14.9218C0 6.7148 6.7148 0 14.9218 0Z" fill="#F5F6F9"/>
<path d="M123.478 47.7503C123.329 47.0042 123.03 46.1089 122.806 45.4374L121.687 42.6769H114.077L113.032 45.4374C112.659 46.3327 112.51 46.9296 112.361 47.7503H109.675C110.048 47.0042 110.347 46.4819 110.869 45.139L115.868 32.6047C116.315 31.5601 116.465 31.0379 116.614 30.5156H119.374C119.449 30.9633 119.598 31.2617 120.12 32.6047L125.119 45.139C125.716 46.4819 125.94 47.1534 126.313 47.7503H123.478ZM118.33 33.6492C118.255 33.5 118.106 33.0523 117.882 32.2316C117.807 32.5301 117.658 32.8285 117.658 32.9777C117.584 33.2762 117.509 33.5 117.434 33.6492L114.749 40.8117H121.165L118.33 33.6492Z" fill="#333333"/>
<path d="M132.878 47.3022C132.878 48.2721 132.953 48.9436 132.953 49.5405H131.013C131.088 48.869 131.162 48.2721 131.162 47.3022V40.7366C130.118 41.7812 129.521 42.2288 128.253 43.1987C128.029 42.6019 127.73 42.1542 127.357 41.632C128.924 40.662 130.118 39.6921 131.386 38.3492C132.505 37.1554 133.177 36.1109 133.998 34.4695H129.969C129.223 34.4695 128.775 34.4695 128.103 34.5441V32.7535C128.775 32.8281 129.148 32.8281 129.894 32.8281H131.162V30.8137C131.162 30.2168 131.088 29.5453 131.013 29.0977H132.953C132.878 29.5453 132.804 30.1422 132.804 30.8883V32.9027H133.998C134.669 32.9027 135.042 32.9027 135.266 32.8281L136.087 33.7234C135.937 33.9472 135.788 34.2457 135.564 34.6933C134.818 36.1855 134.221 37.1554 133.177 38.4984C134.371 39.8413 135.266 40.5874 136.758 41.4827C136.385 42.005 136.161 42.378 135.863 42.9749C134.594 42.0796 133.699 41.3335 132.804 40.2144C132.878 40.1398 132.878 47.3022 132.878 47.3022ZM142.13 46.7054H145.413C146.606 46.7054 147.278 46.6308 147.875 46.5561V48.5706C147.129 48.4214 146.383 48.4214 145.413 48.4214H137.504C136.534 48.4214 135.788 48.496 135.042 48.5706V46.5561C135.714 46.6308 136.31 46.7054 137.504 46.7054H140.339V37.3792H138.25C137.43 37.3792 136.758 37.4539 136.087 37.5285V35.6632C136.684 35.7378 137.28 35.8125 138.25 35.8125H140.339V31.1867C140.339 30.4406 140.265 29.9184 140.19 29.0977H142.279C142.13 29.9184 142.13 30.366 142.13 31.1867V35.8125H144.965C145.935 35.8125 146.532 35.8125 147.129 35.6632V37.5285C146.457 37.4539 145.786 37.3792 144.965 37.3792H142.13V46.7054Z" fill="#333333"/>
<path d="M98.9314 72.2967C100.125 70.506 100.722 69.4615 101.617 67.5217L103.333 68.1932C102.065 70.4314 101.617 71.1775 100.797 72.2967H102.587C103.632 72.2967 104.229 72.2967 104.975 72.222C104.9 72.7443 104.9 73.192 104.9 73.938V75.5794C104.9 76.1763 104.9 76.5494 104.975 77.1462H103.184V73.8634H88.0385V77.1462H86.2479C86.3225 76.4748 86.3971 76.1763 86.3971 75.5794V73.938C86.3971 73.192 86.3971 72.6697 86.3225 72.1474C87.0686 72.222 87.6655 72.222 88.71 72.222L98.9314 72.2967ZM100.871 77.6685C102.065 77.5939 102.811 77.5939 103.035 77.5939C102.96 77.8923 102.96 77.9669 102.96 78.7876C102.811 82.145 102.587 84.0849 102.14 85.4278C101.767 86.7708 100.946 87.1438 98.8568 87.1438C98.3345 87.1438 97.6631 87.1438 96.5439 86.9946C96.4693 86.2485 96.3947 85.7263 96.1709 85.204C97.1408 85.3532 98.1853 85.4278 98.9314 85.4278C100.125 85.4278 100.349 85.204 100.647 84.1595C100.871 83.1149 101.095 81.4735 101.17 79.1607H95.4994C94.9025 81.6228 93.9326 83.3388 92.2166 84.7563C91.0229 85.8009 89.8291 86.3977 87.5162 87.293C87.1432 86.547 86.9194 86.1739 86.3971 85.7263C88.5608 85.0548 90.2768 84.1595 91.4705 83.0403C92.5897 81.9958 93.2611 80.8021 93.7088 79.1607H90.2022C89.2323 79.1607 88.3369 79.2353 87.8147 79.3099V77.5193C88.2623 77.5939 89.1576 77.6685 90.2022 77.6685H93.9326C94.0072 76.8478 94.0818 76.2509 94.0818 75.5794C94.0818 75.2064 94.0818 74.9826 94.0072 74.7587H95.9471C95.8724 75.0572 95.8724 75.281 95.7978 76.0271C95.7232 76.6986 95.7232 77.0716 95.6486 77.6685H100.871ZM90.2022 71.9982C89.3815 70.2822 89.083 69.6853 87.9639 68.3424L89.5307 67.6709C90.6498 69.0885 90.8736 69.5361 91.8436 71.2521C91.769 71.2521 90.2022 71.9982 90.2022 71.9982ZM95.4248 71.5506C94.9025 70.2822 94.3803 69.3123 93.4103 67.8947L94.9771 67.2979C95.7978 68.417 96.4693 69.6107 97.0662 70.8045L95.4248 71.5506Z" fill="#333333"/>
<path d="M128.029 70.8043C127.507 70.7297 127.208 70.7297 126.164 70.7297C125.343 72.5203 124.821 73.4156 123.627 74.6093C124.97 75.43 126.387 75.9523 128.477 76.4746C128.103 77.0714 127.954 77.2952 127.73 78.1159C125.492 77.4445 123.925 76.6984 122.508 75.7285C121.239 76.6984 119.822 77.3699 117.434 78.2652C117.211 77.7429 116.987 77.3699 116.614 76.9968C116.166 78.1906 115.942 78.7128 115.42 79.6081C114.972 79.2351 114.823 79.0859 114.226 78.7874C114.823 77.8175 115.196 76.9968 115.569 75.8777H113.555L113.629 85.7261C113.629 86.9198 113.107 87.3674 111.615 87.3674C110.943 87.3674 110.421 87.3675 109.451 87.2182C109.451 86.696 109.377 86.2483 109.153 85.6514C110.123 85.8007 110.794 85.8753 111.466 85.8753C111.913 85.8753 112.063 85.7261 112.063 85.353V78.3398C111.018 80.8019 109.824 82.5179 108.258 84.0847C107.959 83.3386 107.81 83.0401 107.288 82.5179C109.302 80.8019 110.645 78.7874 111.69 75.8777H109.675C108.78 75.8777 108.258 75.8777 107.735 76.0269V74.3109C108.258 74.3855 108.78 74.4601 109.75 74.4601H112.585C111.54 73.1918 110.72 72.5203 109.302 71.4758L110.347 70.5058C111.391 71.3265 111.764 71.625 112.436 72.2218C113.48 71.3265 113.853 70.8043 114.674 69.6851H110.197C109.302 69.6851 108.78 69.6851 108.258 69.8344V68.1184C108.78 68.193 109.377 68.2676 110.347 68.2676H114.301C115.495 68.2676 115.644 68.2676 116.166 68.193L117.061 69.1629C116.912 69.3121 116.763 69.5359 116.39 69.9836C115.345 71.4011 114.525 72.3711 113.48 73.2664C113.704 73.4902 113.779 73.5648 114.077 73.9378L113.555 74.5347H115.047C115.793 74.5347 116.241 74.5347 116.688 74.4601L117.36 75.3554C117.285 75.5792 117.211 75.7285 117.061 76.1015C116.912 76.4746 116.912 76.6238 116.763 76.9968C118.777 76.3999 120.046 75.8031 121.389 74.9078C120.344 74.0125 119.747 73.1918 119.076 72.0726C118.479 72.8187 118.181 73.2664 117.136 74.2363C116.763 73.714 116.539 73.5648 115.942 73.1918C117.658 71.625 118.703 70.282 119.374 68.4914C119.598 67.9691 119.673 67.7453 119.822 67.1484L121.463 67.5215C121.389 67.6707 121.314 67.8945 121.165 68.2676C120.941 68.7898 120.866 69.0137 120.643 69.4613H125.865C126.91 69.4613 127.581 69.3867 128.103 69.3121V70.8043H128.029ZM125.418 79.3843C126.313 79.3843 126.835 79.3843 127.208 79.3097C127.134 79.6081 127.134 80.2796 126.984 81.3987C126.761 84.0847 126.387 85.7261 125.94 86.3975C125.567 86.9198 125.045 87.1436 124 87.1436C123.254 87.1436 122.806 87.069 121.463 86.9198C121.389 86.1737 121.389 85.9499 121.09 85.2038C122.284 85.5022 123.105 85.5768 123.776 85.5768C124.522 85.5768 124.746 85.353 124.97 84.2339C125.119 83.4878 125.194 82.8163 125.343 80.8765H121.613C120.717 84.0101 118.852 85.8753 115.42 87.4421C115.122 86.8452 114.823 86.4721 114.375 86.0245C116.241 85.2784 117.211 84.7561 118.181 83.7862C119.001 83.0401 119.523 82.1448 119.971 80.8765H117.882C116.912 80.8765 116.39 80.8765 115.942 80.9511V79.3097C116.465 79.3843 116.912 79.3843 117.957 79.3843H120.419C120.568 78.6382 120.643 78.0413 120.643 77.4445C120.643 77.2953 120.643 77.2206 120.568 76.9968L122.433 77.0714C122.359 77.4445 122.359 77.5191 122.209 78.489C122.135 78.7874 122.135 79.0113 122.06 79.3843H125.418ZM120.046 70.7297C120.643 71.8488 121.389 72.8187 122.508 73.714C123.478 72.8187 123.925 72.1472 124.522 70.7297H120.046Z" fill="#333333"/>
<path d="M133.625 70.1328C132.953 71.0281 132.356 71.5504 131.536 72.2965C131.088 71.6996 131.013 71.6996 130.267 71.1773C131.983 69.9836 133.102 68.566 133.774 66.7754L135.49 67.223C135.117 67.8945 134.968 68.1184 134.669 68.6406H138.25C139.22 68.6406 139.668 68.6406 140.19 68.4914V70.0582C139.668 69.9836 139.369 69.9836 138.549 69.9836H136.907C137.28 70.7297 137.504 71.1027 137.803 71.7742L136.31 72.3711C136.012 71.4011 135.788 70.8789 135.266 69.9836H133.625V70.1328ZM147.427 72.8933C148.546 72.8933 148.994 72.8933 149.74 72.8187C149.665 73.2664 149.665 73.5648 149.665 74.2363V75.5046C149.665 76.1761 149.665 76.5492 149.74 76.9968H148.024V74.3109H132.655V76.9968H130.939C131.013 76.5492 131.013 76.1761 131.013 75.5792V74.3109C131.013 73.714 131.013 73.341 130.939 72.8933C131.61 72.9679 132.058 72.9679 133.177 72.9679H139.146V72.6695C139.146 72.1472 139.146 71.8488 139.071 71.4758H140.862C140.862 71.5504 140.862 71.625 140.862 71.625C140.787 71.9234 140.787 72.1472 140.787 72.6695V72.9679L147.427 72.8933ZM133.848 87.5167C133.923 86.7706 133.998 86.0991 133.998 85.2038V77.146C133.998 76.3999 133.998 76.0269 133.923 75.5046C134.594 75.5792 135.191 75.6539 136.087 75.6539H144.368C145.264 75.6539 145.86 75.6538 146.532 75.5046C146.457 75.9523 146.457 76.3999 146.457 77.146V78.5636C146.457 79.3843 146.457 79.7573 146.532 80.2796C145.935 80.205 145.338 80.205 144.443 80.205H135.714V81.6226H145.413C146.308 81.6226 146.905 81.6226 147.427 81.548C147.353 82.0702 147.353 82.7417 147.353 83.4878V85.4276C147.353 86.2483 147.353 86.8452 147.427 87.5167H145.711V86.4721H135.714V87.5167H133.848ZM135.639 78.7874H144.816V76.9222H135.639V78.7874ZM135.639 85.0546H145.637V82.9655H135.639V85.0546ZM142.354 70.2074C141.906 70.8043 141.682 71.1027 141.235 71.5504C140.936 71.2519 140.489 70.9535 139.966 70.6551C141.085 69.7597 141.906 68.4914 142.354 66.9992L143.995 67.2977C143.771 67.8945 143.622 68.1183 143.249 68.7898H148.323C149.367 68.7898 149.74 68.7898 150.337 68.6406V70.282C149.74 70.2074 149.292 70.1328 148.323 70.1328H145.637C146.084 70.8789 146.308 71.2519 146.681 71.9234L145.114 72.5203C144.741 71.5504 144.517 71.0281 143.995 70.1328H142.354V70.2074Z" fill="#333333"/>
<path d="M154.291 69.8346C153.396 69.8346 153.172 69.8346 152.501 69.9838V68.1932C153.023 68.2678 153.545 68.3424 154.44 68.3424H157.798C158.619 68.3424 159.141 68.3424 159.663 68.1932V69.9092C159.066 69.8346 158.619 69.8346 157.947 69.8346H156.977V74.8334H157.798C158.395 74.8334 158.768 74.8334 159.29 74.6841V76.3255C158.842 76.2509 158.395 76.2509 157.798 76.2509H156.977V81.5482C157.872 81.1751 158.32 80.9513 159.514 80.3544L159.588 81.9958C157.574 82.9657 156.753 83.3388 153.769 84.5325C153.247 84.7563 153.172 84.7563 152.874 84.9056L152.351 83.0403C153.172 82.8911 153.844 82.6673 155.336 82.0704V76.1017H154.291C153.694 76.1017 153.247 76.1017 152.799 76.2509V74.6095C153.321 74.6841 153.694 74.7587 154.366 74.7587H155.41V69.76L154.291 69.8346ZM165.184 82.145H162.349C161.23 82.145 160.708 82.145 160.185 82.2943V80.5782C160.708 80.6529 161.23 80.7275 162.349 80.7275H165.184V78.34H162.946C161.528 78.34 160.782 78.34 160.185 78.4146C160.26 78.0415 160.26 77.2208 160.26 75.8033V70.9537C160.26 69.5361 160.26 68.79 160.185 68.0439C160.931 68.1186 161.603 68.1932 163.095 68.1932H169.064C170.705 68.1932 171.302 68.1932 171.899 68.0439C171.824 68.7154 171.824 69.6107 171.824 70.9537V75.5794C171.824 77.0716 171.824 77.8923 171.899 78.4892C171.078 78.4146 170.556 78.4146 169.288 78.4146H166.751V80.8021H169.959C171.078 80.8021 171.526 80.8021 172.197 80.6529V82.3689C171.6 82.2942 171.078 82.2196 169.959 82.2196H166.751V85.204H170.78C171.899 85.204 172.421 85.204 173.018 85.0548V86.7708C172.347 86.6962 171.824 86.6216 170.705 86.6216H160.857C159.738 86.6216 159.215 86.6216 158.544 86.7708V85.0548C159.141 85.1294 159.588 85.204 160.708 85.204H165.184V82.145ZM161.901 69.6107V72.5205H165.259V69.6107H161.901ZM161.901 74.0127V76.8478H165.259V74.0127H161.901ZM166.826 72.5205H170.332V69.6107H166.826V72.5205ZM166.826 76.8478H170.332V74.0127H166.826V76.8478Z" fill="#333333"/>
<path d="M387.966 11.9375H594.633C600.826 11.9375 605.824 16.9363 605.824 23.1288V93.2612C605.824 99.4538 600.826 104.453 594.633 104.453H387.966C381.774 104.453 376.775 99.4538 376.775 93.2612V23.1288C376.775 16.9363 381.774 11.9375 387.966 11.9375Z" fill="white"/>
<path d="M387.966 197.714H594.633C600.826 197.714 605.824 202.713 605.824 208.905V279.038C605.824 285.23 600.826 290.229 594.633 290.229H387.966C381.774 290.229 376.775 285.23 376.775 279.038V208.905C376.775 202.713 381.774 197.714 387.966 197.714Z" fill="white"/>
<path d="M541.138 52.674C540.318 52.674 538.303 52.674 537.035 52.5994V48.9436C538.527 49.0928 539.721 49.1674 540.84 49.1674C541.81 49.1674 542.407 49.0928 542.407 48.1229V47.0037H530.992V44.094L542.481 44.1686V42.5272L528.977 42.751V39.5429L542.481 39.6921V38.0507L531.066 38.1253V35.2901L542.481 35.3648V33.798L531.141 33.8726V27.4562L542.481 27.5308V25.964L529.201 26.1132V22.6066H542.481C542.481 22.6066 542.407 21.3383 542.332 20.8906H547.032C546.958 21.3383 546.883 22.6066 546.883 22.6066H560.387V26.1132L546.883 25.964V27.6054L558.373 27.5308V33.9472L546.883 33.8726V35.4394L558.373 35.3648L558.298 39.4682H560.686V42.9749L558.298 43.0495L558.448 47.0784H546.883V48.4959C546.883 52.0771 546.137 52.5994 541.138 52.674ZM546.958 44.2432H553.897V42.6018H546.958V44.2432ZM546.958 39.6921H553.897V38.0507H546.958V39.6921ZM546.958 31.5597H553.15V29.9183H546.958V31.5597ZM536.513 31.5597H542.556V29.9183H536.513V31.5597Z" fill="#FC6D26"/>
<path d="M525.023 52.6742C521.964 50.9582 519.203 48.6453 516.965 45.9594C514.876 43.4973 513.384 40.6622 512.339 37.6778L512.041 36.8571L511.743 37.6778C510.25 42.0798 508.833 44.6165 506.147 47.3024C504.058 49.466 501.67 51.2567 499.059 52.6742L495.925 48.1977C500.775 45.7356 503.685 43.2735 505.774 39.6177C508.012 35.8126 509.057 30.7392 509.057 24.4721C509.057 23.726 509.057 22.9053 508.907 22.1592H514.503C514.428 22.9799 514.354 23.8006 514.354 24.6213C514.279 28.0533 514.801 31.4107 515.771 34.6935C517.114 38.4239 519.353 41.6321 522.337 44.2434C524.053 45.7356 525.993 47.0039 528.082 47.9739L525.023 52.6742Z" fill="#FC6D26"/>
<path d="M485.256 50.0624C482.272 50.0624 480.034 49.2417 478.467 47.7495C476.9 46.2573 476.154 43.8698 476.154 40.8855C476.154 37.9011 476.975 35.3644 478.542 33.6484C480.108 31.9324 482.421 31.0371 485.256 31.0371C487.942 31.0371 490.106 31.8578 491.598 33.35C493.09 34.8422 493.836 37.155 493.836 39.9902V41.557H481.377V42.0792C481.377 43.1984 481.75 44.3175 482.421 45.2874C483.093 46.0335 484.137 46.4065 485.107 46.4065C487.196 46.4065 488.091 45.4366 488.465 44.3921H493.538C493.239 46.0335 492.344 47.4511 491.001 48.4956C489.434 49.6147 487.345 50.137 485.256 50.0624ZM485.331 34.6929C483.093 34.6929 481.75 35.9613 481.451 38.3488L481.377 38.5726H488.912V38.4234C488.912 37.4535 488.614 36.409 487.942 35.6629C487.271 34.9168 486.301 34.6183 485.331 34.6929Z" fill="#FC6D26"/>
<path d="M467.425 49.7644V38.6477C467.425 36.7825 465.933 35.2903 464.067 35.2903C462.202 35.2903 460.71 36.7825 460.71 38.6477V49.7644H455.413V31.0376H460.71V33.2759L461.083 32.9028C463.545 30.1423 467.798 29.9185 470.558 32.4552C471.827 33.5743 472.573 35.1411 472.722 36.8571V37.454V49.8391L467.425 49.7644Z" fill="#FC6D26"/>
<path d="M436.089 52.6736C428.031 52.6736 421.54 46.1827 421.54 38.1249V35.5136C421.54 27.4558 428.031 20.9648 436.089 20.9648H436.611C444.669 20.9648 451.16 27.4558 451.16 35.5136V38.1249C451.16 46.1827 444.669 52.6736 436.611 52.6736H436.089ZM436.089 27.0082C431.463 27.0082 427.658 30.7386 427.658 35.439V38.0503C427.658 42.676 431.463 46.4811 436.089 46.4811H436.611C441.237 46.4811 445.042 42.676 445.042 38.0503V35.439C445.042 30.8132 441.237 27.0082 436.611 27.0082H436.089Z" fill="#FC6D26"/>
<path d="M465.485 64.0889H516.816C519.949 64.0889 522.486 66.6256 522.486 69.7591V90.1274C522.486 93.261 519.949 95.7976 516.816 95.7976H465.485C462.351 95.7976 459.815 93.261 459.815 90.1274V69.8338C459.815 66.6256 462.351 64.0889 465.485 64.0889Z" fill="#FC6D26"/>
<path d="M486.823 76.1011H484.958C484.883 79.0109 484.51 81.846 483.69 84.6811C482.943 87.4417 481.526 89.9038 479.586 91.9928C479.138 91.1721 478.542 90.426 477.721 89.8292C475.035 90.3514 472.125 90.7245 468.245 91.1721C467.574 91.2467 467.425 91.2467 466.903 91.3213L466.455 88.5608C466.679 88.5608 466.903 88.5608 467.126 88.5608C468.022 88.5608 469.365 88.4862 471.827 88.2624V86.6956H469.663C468.917 86.6956 468.171 86.6956 467.425 86.8448V84.3827C468.171 84.5319 468.917 84.5319 469.663 84.5319H471.827V83.3382H469.215C468.469 83.3382 467.723 83.3382 466.903 83.4874V81.0253C467.649 81.1745 468.469 81.1745 469.215 81.1745H471.827V80.0554H469.066C468.171 80.0554 467.947 80.0554 467.052 80.13C467.126 79.6077 467.126 79.0855 467.126 78.5632V75.8773C467.126 75.355 467.126 74.8328 467.052 74.3105C467.723 74.3851 468.395 74.3851 469.066 74.3851H477.049C477.721 74.3851 478.392 74.3851 479.064 74.3105C478.989 74.9074 478.989 75.5043 478.989 76.1011V78.414C478.989 79.3093 478.989 79.9062 479.064 80.0554C478.392 79.9808 477.795 79.9808 477.124 79.9808H474.363V81.0999H476.751C477.572 81.0999 478.318 81.0999 479.138 81.0253V83.4128C478.318 83.3382 477.572 83.2636 476.751 83.3382H474.363V84.5319H476.303C477.049 84.5319 477.87 84.5319 478.616 84.4573V86.8448C477.87 86.7702 477.049 86.6956 476.303 86.7702H474.363V88.0385C476.229 87.8147 477.721 87.6655 478.765 87.5163V88.4862C480.854 85.6511 481.899 81.9206 482.272 76.1011H481.75C481.004 76.1011 480.332 76.1011 479.586 76.1757V73.4152C480.332 73.5644 481.004 73.5644 481.75 73.5644H482.347C482.347 72.2215 482.347 71.9976 482.347 70.3562C482.347 69.6848 482.347 69.0133 482.197 68.3418H485.182C485.107 68.9387 485.032 70.6547 485.032 73.5644H487.122C487.942 73.5644 488.763 73.5644 489.584 73.4898C489.509 73.9375 489.434 75.8773 489.36 79.3839C489.211 83.7858 488.838 87.7401 488.465 89.3069C488.017 91.0229 487.196 91.6198 485.032 91.6198C484.809 91.6198 484.137 91.6198 482.943 91.5452C482.869 90.5752 482.645 89.6053 482.272 88.71C483.018 88.8592 483.839 89.0085 484.585 89.0085C485.629 89.0085 485.853 88.71 486.077 86.8448C486.599 83.2636 486.823 79.6824 486.823 76.1011ZM471.827 76.4742H469.588V78.041H471.827V76.4742ZM474.289 76.4742V78.041H476.676V76.4742H474.289ZM469.365 70.1324V69.834C469.365 69.3117 469.365 68.8641 469.29 68.3418H472.051C471.976 68.8641 471.901 69.3117 471.976 69.834V70.1324H474.289V69.834C474.289 69.3117 474.289 68.8641 474.214 68.3418H476.975C476.9 68.7895 476.9 69.3117 476.9 69.7594V70.1324H477.646C478.392 70.1324 479.064 70.0578 479.81 69.9832V72.5199C479.064 72.4453 478.392 72.3707 477.646 72.4453H476.9V72.6691C476.9 73.1168 476.9 73.4898 476.975 73.9375H474.214C474.289 73.4898 474.289 73.1168 474.289 72.6691V72.5199H471.976V72.6691C471.976 73.1168 471.976 73.4898 472.051 73.9375H469.29C469.365 73.4898 469.365 73.1168 469.365 72.6691V72.5199H468.469C467.798 72.5199 467.126 72.5199 466.455 72.5945V70.0578C467.126 70.207 467.872 70.207 468.544 70.207L469.365 70.1324Z" fill="white"/>
<path d="M493.314 75.0566L492.866 72.2215C493.762 72.2961 495.254 72.3707 496.671 72.3707H497.045C498.238 71.0277 499.283 69.5355 500.029 67.9688L503.312 68.6402C503.088 68.8641 502.864 69.2371 502.566 69.6848C501.819 70.6547 501.073 71.6992 500.402 72.4453C503.909 72.3707 506.52 72.2961 508.236 72.1468C507.415 71.4754 506.594 70.8785 505.774 70.3562L508.087 68.9387C510.549 70.5801 512.862 72.5199 514.951 74.6836L512.638 76.5488C511.668 75.5042 511.369 75.1312 510.623 74.3851C506.072 74.7582 500.402 75.0566 495.478 75.1312C494.732 74.982 494.06 74.982 493.314 75.0566ZM494.359 91.2467L492.046 89.3815C492.792 88.71 493.389 87.8893 493.911 87.0686C494.508 86.0987 494.955 84.9796 495.329 83.8604L497.791 84.905C497.418 86.1733 496.895 87.4417 496.224 88.5608C495.702 89.5307 495.105 90.426 494.359 91.2467ZM498.387 84.0097H501.297C501.223 84.5319 501.148 84.9796 501.148 85.5018V88.4116C501.148 89.0085 501.521 89.0831 503.685 89.0831C506.744 89.0831 507.266 89.0085 507.564 88.6354C507.788 88.2624 507.863 87.8147 507.937 86.3225C508.758 86.7702 509.653 86.994 510.549 87.0686C510.399 89.0085 510.25 89.5307 509.952 90.2022C509.355 91.3959 508.46 91.6198 503.983 91.6198C499.134 91.6198 498.387 91.3213 498.387 89.5307V85.8003C498.537 85.2034 498.537 84.6065 498.387 84.0097ZM495.403 81.0253V78.1902C495.403 77.5187 495.403 76.7726 495.329 76.1011C496.149 76.1757 496.97 76.2503 497.791 76.1757H509.728C510.549 76.1757 511.369 76.1757 512.19 76.1011C512.116 76.7726 512.041 77.5187 512.116 78.1902V81.0253C512.116 81.7714 512.116 82.4429 512.19 83.189C511.444 83.1144 510.623 83.0398 509.877 83.1144H497.641C496.895 83.1144 496.149 83.1144 495.329 83.189C495.403 82.4429 495.403 81.7714 495.403 81.0253ZM509.355 78.4886H498.164V80.8015H509.355V78.4886ZM507.415 85.9495L505.252 87.6655C504.356 86.4718 503.237 85.5018 501.969 84.7558L504.058 83.2636C505.326 84.0097 506.445 84.9796 507.415 85.9495ZM515.921 89.3815L513.384 91.0229C512.339 88.7846 510.922 86.6956 509.355 84.7558L511.742 83.562C513.235 85.3526 514.652 87.2925 515.921 89.3815Z" fill="white"/>
<path d="M541.138 238.45C540.318 238.45 538.303 238.45 537.035 238.376V234.645C538.527 234.795 539.721 234.869 540.84 234.869C541.81 234.869 542.407 234.795 542.407 233.825V232.705L530.917 232.78V229.87L542.407 229.945V228.304L528.903 228.453V225.319L542.407 225.468V223.827L530.992 223.902V221.067L542.407 221.141V219.574L531.066 219.649V213.233L542.407 213.307V211.74L529.126 211.89V208.383H542.407C542.407 208.383 542.332 207.115 542.257 206.667H546.958C546.883 207.115 546.809 208.383 546.809 208.383H560.313V211.89L546.809 211.74V213.307L558.298 213.233V219.649L546.809 219.574V221.141L558.298 221.067L558.224 225.17H560.611V228.677L558.224 228.751L558.373 232.78H546.883V234.347C546.883 237.854 546.137 238.45 541.138 238.45ZM546.958 230.02H553.897V228.378H546.958V230.02ZM546.958 225.468H553.897V223.827H546.958V225.468ZM546.958 217.336H553.15V215.695H546.958V217.336ZM536.513 217.336H542.556V215.695H536.513V217.336Z" fill="#FC6D26"/>
<path d="M525.023 238.451C521.964 236.735 519.203 234.422 516.965 231.736C514.876 229.274 513.384 226.439 512.339 223.454L512.041 222.633L511.743 223.454C510.25 227.856 508.833 230.393 506.147 233.079C504.058 235.242 501.67 237.033 499.059 238.451L495.925 233.974C500.775 231.512 503.685 229.05 505.774 225.394C508.012 221.589 509.057 216.516 509.057 210.248C509.057 209.502 509.057 208.682 508.907 207.936H514.503C514.428 208.756 514.354 209.577 514.354 210.398C514.279 213.83 514.801 217.187 515.771 220.47C517.114 224.2 519.353 227.483 522.337 230.02C524.053 231.512 525.993 232.78 528.082 233.75L525.023 238.451Z" fill="#FC6D26"/>
<path d="M485.256 235.839C482.272 235.839 480.034 235.093 478.467 233.526C476.9 231.959 476.154 229.646 476.154 226.662C476.154 223.677 476.975 221.141 478.542 219.425C480.108 217.709 482.421 216.813 485.256 216.813C487.942 216.813 490.106 217.634 491.598 219.126C493.09 220.619 493.836 222.931 493.836 225.767V227.333H481.377V227.856C481.377 228.975 481.75 230.094 482.421 231.064C483.093 231.81 484.137 232.183 485.107 232.108C487.196 232.108 488.091 231.138 488.465 230.168H493.538C493.239 231.81 492.344 233.227 491.001 234.272C489.36 235.391 487.345 235.913 485.256 235.839ZM485.331 220.469C483.093 220.469 481.75 221.738 481.451 224.125L481.377 224.349H488.912V224.2C488.912 223.155 488.614 222.185 487.942 221.439C487.271 220.693 486.301 220.395 485.331 220.469Z" fill="#FC6D26"/>
<path d="M467.425 235.541V224.424C467.425 222.559 465.933 221.067 464.067 221.067C462.202 221.067 460.71 222.559 460.71 224.424V235.541H455.413V216.814H460.71V219.052L461.083 218.679C463.545 215.919 467.798 215.695 470.558 218.232C471.827 219.351 472.573 220.917 472.722 222.633V223.23V235.615L467.425 235.541Z" fill="#FC6D26"/>
<path d="M436.089 238.45C428.031 238.45 421.54 231.959 421.54 223.901V221.29C421.54 213.232 428.031 206.741 436.089 206.741H436.611C444.669 206.741 451.16 213.232 451.16 221.29V223.901C451.16 231.959 444.669 238.45 436.611 238.45H436.089ZM436.089 212.785C431.463 212.785 427.658 216.515 427.658 221.215V223.827C427.658 228.452 431.463 232.257 436.089 232.257H436.611C441.237 232.257 445.042 228.452 445.042 223.827V221.215C445.042 216.59 441.237 212.785 436.611 212.785H436.089Z" fill="#FC6D26"/>
<path d="M465.485 249.865H516.816C519.949 249.865 522.486 252.402 522.486 255.536V275.904C522.486 279.037 519.949 281.574 516.816 281.574H465.485C462.351 281.574 459.815 279.037 459.815 275.904V255.536C459.815 252.402 462.351 249.865 465.485 249.865Z" fill="#FC6D26"/>
<path d="M466.679 267.473L466.455 264.861C466.977 264.936 467.574 264.936 468.022 264.936C468.171 264.936 468.32 264.936 468.395 264.936C468.917 264.265 469.066 264.041 469.663 263.22C469.588 263.071 469.439 262.922 469.29 262.772C468.395 261.504 467.425 260.31 466.306 259.266L467.723 257.177C468.022 257.475 468.245 257.774 468.544 258.072C468.917 257.401 469.29 256.804 469.588 256.132C469.962 255.386 470.26 254.64 470.484 253.819L472.946 254.715C472.797 254.938 472.647 255.237 472.498 255.535C471.752 257.028 471.006 258.52 470.111 259.937C470.633 260.609 470.782 260.758 471.081 261.206C472.125 259.713 472.946 258.147 473.617 256.505L476.005 257.699C475.856 257.997 475.632 258.221 475.259 258.818C473.99 260.907 472.647 262.922 471.23 264.861C472.722 264.787 473.17 264.787 474.065 264.712C473.767 263.966 473.617 263.668 473.17 262.623L475.035 261.877C475.856 263.518 476.602 265.234 477.199 266.95L475.035 267.846C474.886 267.324 474.886 267.324 474.736 266.801C474.14 266.876 473.543 266.95 472.871 266.95V275.083C472.871 275.978 472.871 276.873 473.02 277.769H470.185C470.335 276.873 470.335 275.978 470.335 275.083V267.174C469.738 267.174 468.842 267.249 467.798 267.324C467.499 267.324 467.126 267.398 466.679 267.473ZM478.318 264.115V262.25C477.795 262.698 477.273 263.071 476.751 263.444C476.452 262.549 475.93 261.802 475.259 261.131C476.452 260.385 477.572 259.564 478.467 258.52C479.661 257.251 480.631 255.834 481.302 254.192H484.137C484.958 255.983 486.226 257.55 487.718 258.818C488.688 259.639 489.733 260.46 490.852 261.056C490.255 261.802 489.807 262.698 489.509 263.668C488.912 263.295 488.315 262.847 487.718 262.325V264.115C486.972 264.041 486.152 263.966 485.406 264.041H480.631C479.81 263.966 479.064 264.041 478.318 264.115ZM480.407 261.579H485.629C486.226 261.579 486.525 261.579 486.823 261.579C485.256 260.236 483.913 258.669 482.794 256.878C481.824 258.594 480.556 260.236 479.064 261.579C479.511 261.579 479.81 261.579 480.407 261.579ZM467.35 268.368L469.663 268.741C469.588 271.352 469.215 273.889 468.619 276.426L466.306 275.531C466.977 273.218 467.35 270.83 467.35 268.368ZM473.468 268.816L475.483 268.293C475.93 270.308 476.303 272.397 476.602 274.486L474.513 274.934C474.289 272.845 473.99 270.83 473.468 268.816ZM480.034 276.127V277.545H477.273C477.348 276.65 477.422 275.829 477.422 274.934V268.667C477.422 267.92 477.422 267.1 477.348 266.354C478.019 266.428 478.542 266.428 479.586 266.428H486.898C487.569 266.428 488.315 266.428 488.987 266.354C488.912 267.1 488.838 267.92 488.912 268.667V274.71C488.912 275.68 488.912 276.65 489.061 277.62H486.152V276.202L480.034 276.127ZM480.034 268.741V273.665H486.077V268.741H480.034Z" fill="white"/>
<path d="M508.46 264.936H498.537C498.387 265.384 498.313 265.533 498.164 266.056L495.179 265.683C496.075 263.593 496.821 261.43 497.343 259.266C497.865 257.476 498.238 255.61 498.387 253.745L501.596 254.118C501.297 255.013 501.073 255.909 500.85 256.804H510.25C511.295 256.804 512.339 256.804 513.384 256.655V259.639C512.563 259.565 511.668 259.49 510.325 259.49H500.103C499.88 260.311 499.73 260.908 499.357 262.251H509.057C509.952 262.251 510.773 262.251 511.668 262.101C511.519 263.146 511.444 263.668 511.146 266.876C511.146 267.175 511.071 267.324 511.071 267.772H512.862C513.906 267.772 514.951 267.697 515.995 267.622V270.532C514.951 270.458 513.906 270.383 512.862 270.383H510.698C510.25 272.994 509.803 274.561 509.057 275.606C508.236 276.725 507.266 277.098 504.878 277.098C503.759 277.098 502.864 277.023 500.7 276.874C500.551 275.829 500.253 274.859 499.88 273.89C501.521 274.188 503.162 274.337 504.878 274.337C505.848 274.337 506.371 274.113 506.744 273.591C507.266 272.547 507.564 271.427 507.788 270.308H495.403C494.284 270.308 493.165 270.383 492.12 270.458V267.548C493.239 267.622 494.284 267.697 495.403 267.697H508.087C508.31 266.578 508.31 266.205 508.46 264.936Z" fill="white"/>
</svg>
