<svg width="51" height="20" viewBox="0 0 51 20" fill="none" xmlns="http://www.w3.org/2000/svg">
<path d="M50.9433 9.70528L40.8982 0.113291C40.7471 -0.0377638 40.5205 -0.0377638 40.3695 0.113291C40.294 0.188819 40.2184 0.339874 40.2939 0.490929L41.9556 6.30654C41.4269 6.07996 40.8226 5.9289 40.2939 5.9289H9.1766L10.7627 0.490929C10.8382 0.339874 10.6871 0.113287 10.5361 0.0377592C10.385 0.0377592 10.3095 0.0377638 10.1584 0.113291L0.113291 9.70528C-0.0377638 9.85633 -0.0377638 10.0829 0.113291 10.234L10.1584 19.826C10.3095 19.977 10.5361 19.977 10.6872 19.826C10.7627 19.7505 10.8382 19.5994 10.7627 19.4484L9.1766 14.0104H40.2939C40.8982 14.0104 41.4269 13.8593 41.9556 13.6327L40.2939 19.4484C40.2184 19.5994 40.3695 19.826 40.5205 19.9015C40.6716 19.9015 40.7471 19.9015 40.8982 19.826L50.9433 10.234C51.0189 10.0829 51.0189 9.85633 50.9433 9.70528Z" fill="#636972"/>
</svg>
