<svg width="20" height="51" viewBox="0 0 20 51" fill="none" xmlns="http://www.w3.org/2000/svg">
<path d="M10.2266 50.8631L19.8177 40.8189C19.9687 40.6678 19.9687 40.4413 19.8177 40.2902C19.7422 40.2147 19.5911 40.1392 19.5156 40.2147L13.7005 41.8762C13.9271 41.3475 14.0781 40.7434 14.0781 40.2147V9.10024L19.5156 10.6862C19.6666 10.7617 19.8932 10.6107 19.9687 10.4596C20.0442 10.3086 19.9687 10.233 19.8932 10.1575L10.3021 0.113281C10.151 -0.0377603 9.92447 -0.0377603 9.77343 0.113281L0.18232 10.1575C0.0312784 10.3086 0.0312784 10.5351 0.18232 10.6862C0.25784 10.7617 0.408888 10.8372 0.484409 10.7617L5.92189 9.17575V40.2147C5.92189 40.8189 6.07293 41.423 6.29949 41.8762L0.484409 40.2147C0.333368 40.1392 0.106801 40.2902 0.0312807 40.4413C-0.0442399 40.5923 0.0312853 40.6678 0.106806 40.7434L9.69792 50.7876C9.84896 51.0142 10.0755 51.0142 10.2266 50.8631Z" fill="#636972"/>
</svg>
