<svg width="98" height="67" viewBox="0 0 98 67" fill="none" xmlns="http://www.w3.org/2000/svg">
<path d="M44.8711 33.1063C44.8711 44.3166 43.0352 52.6194 39.3634 57.9997C35.6915 63.3875 30.034 66.0777 22.3906 66.0777C14.7472 66.0777 9.40434 63.2976 5.64261 57.7374C1.88087 52.1772 0 43.9644 0 33.1063C0 22.2482 1.82841 13.4284 5.48524 8.05551C9.14956 2.68267 14.7847 0 22.3906 0C29.9965 0 35.3918 2.81006 39.1835 8.43019C42.9752 14.0503 44.8711 22.2782 44.8711 33.1063ZM13.4808 33.1063C13.4808 40.982 14.1627 46.6246 15.519 50.0341C16.8829 53.4436 19.1684 55.1522 22.3906 55.1522C25.6128 55.1522 27.8384 53.4287 29.2396 49.9742C30.6484 46.5197 31.3453 40.8995 31.3453 33.1138C31.3453 25.328 30.6334 19.5805 29.2172 16.141C27.7934 12.7015 25.5229 10.9855 22.3906 10.9855C19.2583 10.9855 16.9128 12.7015 15.5415 16.141C14.1627 19.5805 13.4808 25.2381 13.4808 33.1138V33.1063Z" fill="#333333"/>
<path d="M98 51.9001H90.2742V65.201H77.0107V51.9001H49.6145V42.4583L77.7601 1.01172H90.2742V41.3642H98V51.9001ZM77.0107 41.3642V30.4762C77.0107 28.6627 77.0856 26.025 77.228 22.5705C77.3704 19.116 77.4903 17.1078 77.5802 16.5532H77.228C76.1415 18.9512 74.8451 21.2966 73.3239 23.5821L61.5591 41.3642H77.0107Z" fill="#333333"/>
</svg>
