<svg width="39" height="21" viewBox="0 0 39 21" fill="none" xmlns="http://www.w3.org/2000/svg">
<path d="M14.0918 19.0434C13.9395 18.2817 13.6348 17.3676 13.4063 16.6821L12.2637 13.8637H4.49414L3.42774 16.6821C3.04688 17.5961 2.89454 18.2055 2.74219 19.0434H0C0.380859 18.2817 0.685552 17.7485 1.21875 16.3774L6.32227 3.58049C6.7793 2.51408 6.93164 1.98088 7.08399 1.44767H9.90235C9.97852 1.90471 10.1309 2.20939 10.6641 3.58049L15.7676 16.3774C16.377 17.7485 16.6055 18.434 16.9863 19.0434H14.0918ZM8.83594 4.64689C8.75977 4.49455 8.60742 4.03752 8.37891 3.19963C8.30274 3.50431 8.15039 3.809 8.15039 3.96135C8.07422 4.26603 7.99804 4.49455 7.92187 4.64689L5.17969 11.9594H11.7305L8.83594 4.64689Z" fill="#333333"/>
<path d="M23.6895 18.5859C23.6895 19.5762 23.7656 20.2617 23.7656 20.8711H21.7852C21.8613 20.1856 21.9375 19.5762 21.9375 18.5859V11.8828C20.8711 12.9492 20.2617 13.4063 18.9668 14.3965C18.7383 13.7871 18.4336 13.3301 18.0527 12.7969C19.6523 11.8066 20.8711 10.8164 22.166 9.44531C23.3086 8.22657 23.9941 7.16016 24.832 5.48438H20.7187C19.957 5.48438 19.5 5.48438 18.8144 5.56055V3.73242C19.5 3.8086 19.8809 3.80859 20.6426 3.80859H21.9375V1.75195C21.9375 1.14258 21.8613 0.457031 21.7852 0H23.7656C23.6894 0.457031 23.6133 1.06641 23.6133 1.82813V3.88477H24.832C25.5176 3.88477 25.8984 3.88477 26.1269 3.80859L26.9648 4.72266C26.8125 4.95117 26.6601 5.25586 26.4316 5.71289C25.6699 7.23633 25.0605 8.22656 23.9941 9.59766C25.2129 10.9688 26.1269 11.7305 27.6504 12.6445C27.2695 13.1777 27.041 13.5586 26.7363 14.168C25.4414 13.2539 24.5273 12.4922 23.6133 11.3496C23.6894 11.2734 23.6895 18.5859 23.6895 18.5859ZM33.1348 17.9766H36.4863C37.7051 17.9766 38.3906 17.9004 39 17.8242V19.8809C38.2383 19.7285 37.4766 19.7285 36.4863 19.7285H28.4121C27.4219 19.7285 26.6601 19.8047 25.8984 19.8809V17.8242C26.584 17.9004 27.1934 17.9766 28.4121 17.9766H31.3066V8.45508H29.1738C28.3359 8.45508 27.6504 8.53125 26.9648 8.60742V6.70313C27.5742 6.7793 28.1836 6.85547 29.1738 6.85547H31.3066V2.13281C31.3066 1.37109 31.2305 0.837891 31.1543 0H33.2871C33.1348 0.837891 33.1348 1.29492 33.1348 2.13281V6.85547H36.0293C37.0195 6.85547 37.6289 6.85547 38.2383 6.70313V8.60742C37.5527 8.53125 36.8672 8.45508 36.0293 8.45508H33.1348V17.9766Z" fill="#333333"/>
</svg>
