<svg width="140" height="75" viewBox="0 0 140 75" fill="none" xmlns="http://www.w3.org/2000/svg">
<path d="M119.746 31.8228C118.924 31.8228 116.908 31.8228 115.638 31.7481V28.013C117.132 28.1624 118.327 28.2371 119.447 28.2371C120.419 28.2371 121.016 28.1624 121.016 27.1913V26.0708L109.512 26.1455V23.2321L121.016 23.3068V21.6634L107.495 21.8128V18.6753L121.016 18.8247V17.1813L109.587 17.256V14.4173L121.016 14.492V12.9233L109.661 12.998V6.57371L121.016 6.64841V5.07968L107.719 5.22909V1.71812H121.016C121.016 1.71812 120.941 0.448208 120.867 0H125.573C125.498 0.448208 125.423 1.71812 125.423 1.71812H138.944V5.22909L125.423 5.07968V6.64841L136.927 6.57371V12.998L125.423 12.9233V14.492L136.927 14.4173L136.853 18.5259H139.243V22.0369L136.853 22.1116L137.002 26.1455H125.498V27.7142C125.498 31.2252 124.751 31.8228 119.746 31.8228ZM125.573 23.3815H132.52V21.7381H125.573V23.3815ZM125.573 18.8247H132.52V17.1813H125.573V18.8247ZM125.573 10.6823H131.773V9.03886H125.573V10.6823ZM115.115 10.6823H121.166V9.03886H115.115V10.6823Z" fill="#FC6D26"/>
<path d="M103.611 31.823C100.548 30.1048 97.784 27.7891 95.543 25.0998C93.4514 22.6347 91.9573 19.796 90.9115 16.808L90.6127 15.9863L90.3139 16.808C88.8199 21.2154 87.4006 23.7552 84.7113 26.4445C82.6197 28.6108 80.2292 30.4036 77.6147 31.823L74.4772 27.3409C79.3328 24.8757 82.2462 22.4106 84.3378 18.7502C86.5789 14.9405 87.6246 9.86076 87.6246 3.58585C87.6246 2.83884 87.6246 2.01714 87.4752 1.27013H93.0778C93.0031 2.09184 92.9285 2.91355 92.9285 3.73526C92.8538 7.17152 93.3766 10.5331 94.3478 13.8199C95.6924 17.555 97.9334 20.8418 100.921 23.3817C102.64 24.8757 104.582 26.1456 106.673 27.1168L103.611 31.823Z" fill="#FC6D26"/>
<path d="M63.7949 29.2079C60.8069 29.2079 58.5658 28.4609 56.9971 26.8921C55.4284 25.3234 54.6814 23.0077 54.6814 20.0196C54.6814 17.0316 55.5031 14.4917 57.0718 12.7736C58.6406 11.0555 60.9563 10.1591 63.7949 10.1591C66.4842 10.1591 68.6505 10.9808 70.1446 12.4748C71.6386 13.9688 72.3856 16.2846 72.3856 19.1232V20.6919H59.9105V21.2148C59.9105 22.3354 60.2839 23.4559 60.9563 24.427C61.6286 25.174 62.6744 25.5475 63.6455 25.4728C65.7372 25.4728 66.6336 24.5017 67.0071 23.5306H72.0868C71.788 25.174 70.8915 26.5933 69.5469 27.6392C67.9035 28.7597 65.8866 29.2826 63.7949 29.2079ZM63.8696 13.8194C61.6286 13.8194 60.284 15.0893 59.9852 17.4798L59.9105 17.7039H67.4553V17.5545C67.4553 16.5087 67.1565 15.5375 66.4842 14.7905C65.8119 14.0435 64.8407 13.7447 63.8696 13.8194Z" fill="#FC6D26"/>
<path d="M45.9413 28.9096V17.7791C45.9413 15.9115 44.4473 14.4175 42.5798 14.4175C40.7122 14.4175 39.2182 15.9115 39.2182 17.7791V28.9096H33.9144V10.1596H39.2182V12.4006L39.5917 12.0271C42.0568 9.26314 46.3148 9.03903 49.0788 11.5789C50.3487 12.6994 51.0957 14.2681 51.2451 15.9862V16.5839V28.9843L45.9413 28.9096Z" fill="#FC6D26"/>
<path d="M14.5668 31.8224C6.49901 31.8224 0 25.3234 0 17.2556V14.6411C0 6.57332 6.49901 0.0743107 14.5668 0.0743107H15.0897C23.1574 0.0743107 29.6564 6.57332 29.6564 14.6411V17.2556C29.6564 25.3234 23.1574 31.8224 15.0897 31.8224H14.5668ZM14.5668 6.12512C9.93527 6.12512 6.12552 9.86018 6.12552 14.5664V17.1809C6.12552 21.8124 9.93527 25.6221 14.5668 25.6221H15.0897C19.7212 25.6221 23.5309 21.8124 23.5309 17.1809V14.5664C23.5309 9.93488 19.7212 6.12512 15.0897 6.12512H14.5668Z" fill="#FC6D26"/>
<path d="M43.9991 43.2517H95.3936C98.5311 43.2517 101.071 45.7916 101.071 48.929V69.3225C101.071 72.46 98.5311 74.9998 95.3936 74.9998H43.9991C40.8617 74.9998 38.3218 72.46 38.3218 69.3225V48.929C38.3218 45.7916 40.8617 43.2517 43.9991 43.2517Z" fill="#FC6D26"/>
<path d="M45.1943 60.8811L44.9702 58.2665C45.4931 58.3412 46.0907 58.3412 46.5389 58.3412C46.6883 58.3412 46.8377 58.3412 46.9124 58.3412C47.4353 57.6689 47.5847 57.4448 48.1824 56.6231C48.1077 56.4737 47.9582 56.3243 47.8088 56.1749C46.9124 54.905 45.9413 53.7097 44.8208 52.6639L46.2401 50.5723C46.5389 50.8711 46.763 51.1699 47.0618 51.4687C47.4353 50.7964 47.8089 50.1988 48.1077 49.5265C48.4812 48.7795 48.7799 48.0325 49.004 47.2107L51.4692 48.1071C51.3198 48.3312 51.1704 48.6301 51.021 48.9289C50.274 50.4229 49.527 51.9169 48.6305 53.3362C49.1535 54.0085 49.3029 54.158 49.6017 54.6062C50.6475 53.1121 51.4692 51.5434 52.1415 49.9L54.532 51.0952C54.3826 51.394 54.1585 51.6181 53.7849 52.2157C52.515 54.3074 51.1704 56.3243 49.7511 58.2665C51.2451 58.1918 51.6933 58.1918 52.5897 58.1171C52.2909 57.3701 52.1415 57.0713 51.6933 56.0255L53.5609 55.2785C54.3826 56.9219 55.1296 58.64 55.7272 60.3582L53.5609 61.2546C53.4115 60.7317 53.4114 60.7317 53.262 60.2088C52.6644 60.2835 52.0668 60.3582 51.3945 60.3582V68.5006C51.3945 69.397 51.3945 70.2934 51.5439 71.1898H48.7053C48.8547 70.2934 48.8547 69.397 48.8547 68.5006V60.5823C48.2571 60.5823 47.3606 60.657 46.3148 60.7317C46.016 60.7317 45.6425 60.8064 45.1943 60.8811ZM56.8477 57.5195V55.652C56.3248 56.1002 55.8019 56.4737 55.279 56.8472C54.9802 55.9508 54.4573 55.2038 53.7849 54.5315C54.9802 53.7844 56.1007 52.9627 56.9971 51.9169C58.1923 50.647 59.1634 49.2277 59.8357 47.5842H62.6744C63.4961 49.3771 64.7661 50.9458 66.2601 52.2157C67.2312 53.0374 68.277 53.8591 69.3975 54.4568C68.7999 55.2038 68.3517 56.1002 68.0529 57.0713C67.4553 56.6978 66.8577 56.2496 66.2601 55.7267V57.5195C65.5131 57.4448 64.6913 57.3701 63.9443 57.4448H59.1635C58.3417 57.3701 57.5947 57.4448 56.8477 57.5195ZM58.9394 54.9797H64.1685C64.7661 54.9797 65.0648 54.9797 65.3637 54.9797C63.7949 53.6351 62.4503 52.0663 61.3298 50.2735C60.3586 51.9916 59.0887 53.6351 57.5947 54.9797C58.0429 54.9797 58.3417 54.9797 58.9394 54.9797ZM45.8666 61.7775L48.1824 62.151C48.1077 64.7655 47.7341 67.3054 47.1365 69.8452L44.8208 68.9488C45.4931 66.6331 45.8666 64.2426 45.8666 61.7775ZM51.9921 62.2257L54.009 61.7028C54.4573 63.7197 54.8308 65.8114 55.1296 67.903L53.0379 68.3512C52.8138 66.2596 52.515 64.2426 51.9921 62.2257ZM58.5659 69.5464V70.9657H55.8019C55.8766 70.0693 55.9513 69.2476 55.9513 68.3512V62.0763C55.9513 61.3293 55.9513 60.5076 55.8766 59.7606C56.5489 59.8353 57.0718 59.8353 58.1176 59.8353H65.4383C66.1106 59.8353 66.8577 59.8353 67.53 59.7606C67.4553 60.5076 67.3806 61.3293 67.4553 62.0763V68.1271C67.4553 69.0982 67.4553 70.0693 67.6047 71.0405H64.6913V69.6211L58.5659 69.5464ZM58.5659 62.151V67.0813H64.6166V62.151H58.5659Z" fill="white"/>
<path d="M87.027 58.3416H77.0917C76.9423 58.7898 76.8676 58.9392 76.7182 59.4621L73.7302 59.0886C74.6266 56.997 75.3736 54.8307 75.8965 52.6643C76.4194 50.8715 76.7929 49.004 76.9423 47.1364L80.1545 47.5099C79.8557 48.4064 79.6316 49.3028 79.4075 50.1992H88.8199C89.8657 50.1992 90.9115 50.1992 91.9573 50.0498V53.0378C91.1356 52.9631 90.2392 52.8884 88.8945 52.8884H78.6604C78.4363 53.7101 78.2869 54.3078 77.9134 55.6524H87.6246C88.521 55.6524 89.3427 55.6524 90.2392 55.503C90.0898 56.5488 90.015 57.0717 89.7162 60.2839C89.7162 60.5827 89.6416 60.7321 89.6416 61.1803H91.4344C92.4802 61.1803 93.526 61.1056 94.5718 61.0309V63.9442C93.526 63.8695 92.4802 63.7948 91.4344 63.7948H89.268C88.8198 66.4094 88.3716 67.9781 87.6246 69.0239C86.8029 70.1444 85.8318 70.5179 83.4414 70.5179C82.3208 70.5179 81.4244 70.4432 79.2581 70.2938C79.1086 69.248 78.8099 68.2769 78.4364 67.3058C80.0798 67.6046 81.7232 67.754 83.4414 67.754C84.4125 67.754 84.9354 67.5299 85.3089 67.007C85.8318 65.9612 86.1306 64.8406 86.3547 63.7201H73.9543C72.8338 63.7201 71.7132 63.7948 70.6674 63.8695V60.9562C71.7879 61.0309 72.8338 61.1056 73.9543 61.1056H86.6535C86.8776 59.985 86.8776 59.6116 87.027 58.3416Z" fill="white"/>
</svg>
