<svg width="140" height="75" viewBox="0 0 140 75" fill="none" xmlns="http://www.w3.org/2000/svg">
<path d="M119.746 31.8228C118.924 31.8228 116.908 31.8228 115.638 31.7481V28.0877C117.132 28.2371 118.327 28.3118 119.447 28.3118C120.419 28.3118 121.016 28.2371 121.016 27.266V26.1455H109.587V23.2321L121.091 23.3068V21.6634L107.57 21.8875V18.6753L121.091 18.8247V17.1813L109.661 17.256V14.4174L121.091 14.4921V12.9233L109.736 12.998V6.57371L121.091 6.64842V5.07969L107.794 5.22909V1.71813H121.091C121.091 1.71813 121.016 0.448208 120.941 0H125.648C125.573 0.448208 125.498 1.71813 125.498 1.71813H139.019V5.22909L125.498 5.07969V6.72312L137.002 6.64842V13.0727L125.498 12.998V14.5668L137.002 14.4921L136.927 18.6006H139.318V22.1116L136.927 22.1863L137.077 26.2202H125.498V27.6395C125.498 31.2251 124.751 31.7481 119.746 31.8228ZM125.573 23.3815H132.52V21.7381H125.573V23.3815ZM125.573 18.8247H132.52V17.1813H125.573V18.8247ZM125.573 10.6823H131.773V9.03886H125.573V10.6823ZM115.115 10.6823H121.166V9.03886H115.115V10.6823Z" fill="#FC6D26"/>
<path d="M103.611 31.823C100.548 30.1048 97.784 27.7891 95.543 25.0998C93.4514 22.6347 91.9573 19.7961 90.9115 16.808L90.6127 15.9863L90.3139 16.808C88.8199 21.2154 87.4006 23.7552 84.7113 26.4445C82.6197 28.6108 80.2292 30.4036 77.6147 31.823L74.4772 27.3409C79.3328 24.8757 82.2462 22.4106 84.3378 18.7502C86.5789 14.9405 87.6246 9.86078 87.6246 3.58587C87.6246 2.83885 87.6246 2.01714 87.4752 1.27013H93.0778C93.0031 2.09184 92.9285 2.91355 92.9285 3.73527C92.8538 7.17153 93.3766 10.5331 94.3478 13.8199C95.6924 17.555 97.9334 20.7672 100.921 23.3817C102.64 24.8757 104.582 26.1457 106.673 27.1168L103.611 31.823Z" fill="#FC6D26"/>
<path d="M63.7949 29.2079C60.8069 29.2079 58.5658 28.3862 56.9971 26.8921C55.4284 25.3981 54.6814 23.0077 54.6814 20.0196C54.6814 17.0316 55.5031 14.4917 57.0718 12.7736C58.6406 11.0555 60.9563 10.1591 63.7949 10.1591C66.4842 10.1591 68.6505 10.9808 70.1446 12.4748C71.6386 13.9688 72.3856 16.2846 72.3856 19.1232V20.6919H59.9105V21.2148C59.9105 22.3354 60.2839 23.4559 60.9563 24.427C61.6286 25.174 62.6744 25.5475 63.6455 25.5475C65.7372 25.5475 66.6336 24.5764 67.0071 23.5306H72.0868C71.788 25.174 70.8915 26.5933 69.5469 27.6392C67.9782 28.7597 65.8866 29.2826 63.7949 29.2079ZM63.8696 13.8194C61.6286 13.8194 60.284 15.0893 59.9852 17.4798L59.9105 17.7039H67.4553V17.5545C67.4553 16.5834 67.1565 15.5375 66.4842 14.7905C65.8119 14.0435 64.8407 13.7447 63.8696 13.8194Z" fill="#FC6D26"/>
<path d="M45.9413 28.9096V17.7791C45.9413 15.9116 44.4473 14.4175 42.5798 14.4175C40.7122 14.4175 39.2182 15.9116 39.2182 17.7791V28.9096H33.9144V10.1596H39.2182V12.4006L39.5917 12.0271C42.0568 9.26313 46.3148 9.03903 49.0788 11.5789C50.3487 12.6994 51.0957 14.2681 51.2451 15.9863V16.5839V28.9843L45.9413 28.9096Z" fill="#FC6D26"/>
<path d="M14.5668 31.8224C6.49901 31.8224 0 25.3234 0 17.2556V14.6411C0 6.57332 6.49901 0.0743107 14.5668 0.0743107H15.0897C23.1574 0.0743107 29.6564 6.57332 29.6564 14.6411V17.2556C29.6564 25.3234 23.1574 31.8224 15.0897 31.8224H14.5668ZM14.5668 6.12512C9.93527 6.12512 6.12552 9.86018 6.12552 14.5664V17.1809C6.12552 21.8124 9.93527 25.6222 14.5668 25.6222H15.0897C19.7212 25.6222 23.5309 21.8124 23.5309 17.1809V14.5664C23.5309 9.93488 19.7212 6.12512 15.0897 6.12512H14.5668Z" fill="#FC6D26"/>
<path d="M43.9991 43.2517H95.3936C98.5311 43.2517 101.071 45.7916 101.071 48.929V69.3225C101.071 72.46 98.5311 74.9998 95.3936 74.9998H43.9991C40.8617 74.9998 38.3218 72.46 38.3218 69.3225V49.0037C38.3218 45.7916 40.8617 43.2517 43.9991 43.2517Z" fill="#FC6D26"/>
<path d="M65.3637 55.2789H63.4961C63.4214 58.1922 63.0479 61.0309 62.2262 63.8695C61.4792 66.6335 60.0599 69.0986 58.1176 71.1903C57.6694 70.3685 57.0718 69.6215 56.2501 69.0239C53.5608 69.5468 50.6475 69.9203 46.763 70.3685C46.0907 70.4432 45.9413 70.4432 45.4184 70.5179L44.9702 67.754C45.1943 67.754 45.4184 67.754 45.6425 67.754C46.5389 67.754 47.8836 67.6793 50.3487 67.4552V65.8865H48.1824C47.4353 65.8865 46.6883 65.8865 45.9413 66.0359V63.5707C46.6883 63.7201 47.4353 63.7201 48.1824 63.7201H50.3487V62.5249H47.7342C46.9872 62.5249 46.2401 62.5249 45.4184 62.6743V60.2092C46.1654 60.3586 46.9872 60.3586 47.7342 60.3586H50.3487V59.238H47.5848C46.6883 59.238 46.4642 59.238 45.5678 59.3127C45.6425 58.7898 45.6425 58.2669 45.6425 57.744V55.0548C45.6425 54.5319 45.6425 54.009 45.5678 53.486C46.2401 53.5607 46.9124 53.5607 47.5848 53.5607H55.5778C56.2501 53.5607 56.9224 53.5607 57.5947 53.486C57.52 54.0837 57.52 54.6813 57.52 55.2789V57.5946C57.52 58.491 57.52 59.0886 57.5947 59.238C56.9224 59.1633 56.3248 59.1633 55.6525 59.1633H52.8885V60.2839H55.279C56.1007 60.2839 56.8477 60.2839 57.6694 60.2092V62.5996C56.8477 62.5249 56.1007 62.4502 55.279 62.5249H52.8885V63.7201H54.8308C55.5778 63.7201 56.3995 63.7201 57.1465 63.6454V66.0359C56.3995 65.9612 55.5778 65.8865 54.8308 65.9612H52.8885V67.2311C54.7561 67.007 56.2501 66.8576 57.2959 66.7082V67.6793C59.3876 64.8406 60.4334 61.1056 60.8069 55.2789H60.284C59.537 55.2789 58.8646 55.2789 58.1176 55.3536V52.5896C58.8646 52.739 59.537 52.739 60.284 52.739H60.8816C60.8816 51.3944 60.8816 51.1703 60.8816 49.5269C60.8816 48.8546 60.8816 48.1823 60.7322 47.5099H63.7202C63.6455 48.1076 63.5708 49.8257 63.5708 52.739H65.6625C66.4842 52.739 67.3059 52.739 68.1276 52.6643C68.0529 53.1125 67.9782 55.0548 67.9035 58.5657C67.7541 62.9731 67.3806 66.9323 67.0071 68.501C66.5589 70.2191 65.7371 70.8168 63.5708 70.8168C63.3467 70.8168 62.6744 70.8167 61.4792 70.742C61.4045 69.7709 61.1804 68.7998 60.8069 67.9034C61.5539 68.0528 62.3756 68.2022 63.1226 68.2022C64.1684 68.2022 64.3925 67.9034 64.6166 66.0359C65.1396 62.4502 65.3637 58.8645 65.3637 55.2789ZM50.3487 55.6524H48.1077V57.2211H50.3487V55.6524ZM52.8138 55.6524V57.2211H55.2043V55.6524H52.8138ZM47.8835 49.3028V49.004C47.8835 48.4811 47.8836 48.0328 47.8088 47.5099H50.5728C50.4981 48.0328 50.4234 48.4811 50.4981 49.004V49.3028H52.8138V49.004C52.8138 48.4811 52.8138 48.0328 52.7391 47.5099H55.5031C55.4284 47.9581 55.4284 48.4811 55.4284 48.9293V49.3028H56.1754C56.9224 49.3028 57.5947 49.2281 58.3417 49.1534V51.6932C57.5947 51.6185 56.9224 51.5438 56.1754 51.6185H55.4284V51.8426C55.4284 52.2908 55.4284 52.6643 55.5031 53.1125H52.7391C52.8138 52.6643 52.8138 52.2908 52.8138 51.8426V51.6932H50.4981V51.8426C50.4981 52.2908 50.4981 52.6643 50.5728 53.1125H47.8088C47.8836 52.6643 47.8835 52.2908 47.8835 51.8426V51.6932H46.9872C46.3148 51.6932 45.6425 51.6932 44.9702 51.7679V49.2281C45.6425 49.3775 46.3895 49.3775 47.0618 49.3775L47.8835 49.3028Z" fill="white"/>
<path d="M71.8627 54.2331L71.4144 51.3944C72.3108 51.4691 73.8049 51.5438 75.2242 51.5438H75.5977C76.7929 50.1992 77.8388 48.7052 78.5858 47.1364L81.8726 47.8087C81.6485 48.0328 81.4244 48.4064 81.1256 48.8546C80.3786 49.8257 79.6316 50.8715 78.9593 51.6185C82.4702 51.5438 85.0848 51.4691 86.8029 51.3197C85.9812 50.6474 85.1595 50.0498 84.3378 49.5269L86.6535 48.1076C89.1186 49.751 91.4344 51.6932 93.526 53.8595L91.2103 55.7271C90.2391 54.6813 89.9404 54.3078 89.1934 53.5607C84.6366 53.9342 78.9593 54.2331 74.029 54.3078C73.282 54.1584 72.6097 54.1584 71.8627 54.2331ZM72.9084 70.4432L70.5927 68.5757C71.3397 67.9034 71.9373 67.0817 72.4603 66.26C73.0579 65.2888 73.5061 64.1683 73.8796 63.0478L76.3447 64.0936C75.9712 65.3636 75.4483 66.6335 74.776 67.754C74.2531 68.7251 73.6555 69.6215 72.9084 70.4432ZM76.9423 63.1972H79.8557C79.781 63.7201 79.7063 64.1683 79.7063 64.6912V67.6046C79.7063 68.2022 80.0798 68.2769 82.2461 68.2769C85.3089 68.2769 85.8318 68.2022 86.1306 67.8287C86.3547 67.4552 86.4294 67.007 86.5041 65.513C87.3258 65.9612 88.2222 66.1853 89.1186 66.26C88.9692 68.2022 88.8198 68.7251 88.521 69.3974C87.9234 70.5926 87.027 70.8167 82.5449 70.8167C77.6893 70.8167 76.9423 70.5179 76.9423 68.7251V64.99C77.0917 64.3924 77.0917 63.7948 76.9423 63.1972ZM73.9543 60.2092V57.3705C73.9543 56.6982 73.9543 55.9512 73.8796 55.2789C74.7013 55.3536 75.523 55.4283 76.3447 55.3536H88.2969C89.1187 55.3536 89.9404 55.3536 90.7621 55.2789C90.6874 55.9512 90.6127 56.6982 90.6874 57.3705V60.2092C90.6874 60.9562 90.6874 61.6285 90.7621 62.3755C90.0151 62.3008 89.1934 62.2261 88.4464 62.3008H76.1953C75.4483 62.3008 74.7013 62.3008 73.8796 62.3755C73.9543 61.6285 73.9543 60.9562 73.9543 60.2092ZM87.9234 57.6693H76.7182V59.9851H87.9234V57.6693ZM85.9812 65.1394L83.8149 66.8576C82.9184 65.6624 81.7979 64.6912 80.528 63.9442L82.6196 62.4502C83.8895 63.1972 85.0101 64.1683 85.9812 65.1394ZM94.4971 68.5757L91.9573 70.2191C90.9115 67.9781 89.4922 65.8865 87.9234 63.9442L90.3139 62.749C91.8079 64.5418 93.2272 66.4841 94.4971 68.5757Z" fill="white"/>
</svg>
