<svg width="143" height="108" viewBox="0 0 143 108" fill="none" xmlns="http://www.w3.org/2000/svg">
<g clip-path="url(#clip0_1_238)">
<path d="M36.1712 65.3065C57.911 85.2078 49.8696 112.086 85.9324 107.478C110.913 104.284 133.223 78.9184 135.894 53.1598C137.909 33.7299 132.677 17.6705 115.356 18.2009C98.0359 18.7312 85.6181 9.87655 74.0372 3.28467C59.4628 -5.00429 31.736 2.92325 23.0699 21.0175C14.4038 39.1118 21.3139 51.7063 36.1712 65.3065Z" fill="#EAF0F9"/>
<path fill-rule="evenodd" clip-rule="evenodd" d="M32.2382 21.1138C31.7781 19.7836 31.0863 19.2661 30.2446 19.4215C30.2374 19.4229 30.2302 19.4246 30.2231 19.4267C29.9773 19.501 29.8088 19.6353 29.7014 19.8007C29.546 20.04 29.5185 20.3543 29.6041 20.6771C29.7998 21.4148 30.5928 22.1807 31.4544 22.0248C31.7025 21.9799 32.2386 21.6297 32.8575 21.1444C33.9093 20.3195 35.2361 19.119 35.7898 18.6113C36.1324 20.2219 36.6724 20.7085 37.3672 21.1281C37.4123 21.1554 37.4666 21.163 37.5181 21.1493C37.5696 21.1355 37.6141 21.1016 37.6419 21.055C37.6696 21.0084 37.6783 20.9528 37.6661 20.9006C37.6538 20.8483 37.6216 20.8037 37.5765 20.7764C36.9071 20.3721 36.4185 19.8861 36.1148 18.1806C36.1084 18.1451 36.0929 18.1122 36.0699 18.0853C36.0468 18.0584 36.0169 18.0384 35.9834 18.0274C35.9499 18.0164 35.9139 18.0147 35.8791 18.0227C35.8443 18.0306 35.812 18.0478 35.7855 18.0724C35.7855 18.0724 33.9725 19.7619 32.6187 20.8235C32.4867 20.9271 32.3591 21.0246 32.2382 21.1138ZM31.8946 21.3563C31.5232 20.2157 31.0159 19.698 30.3178 19.8204C30.1859 19.8622 30.0912 19.9301 30.0328 20.0202C29.9369 20.1678 29.9368 20.3631 29.9897 20.5623C30.1401 21.1293 30.7312 21.7436 31.3934 21.6238C31.4712 21.6097 31.5821 21.5512 31.7206 21.4673C31.7794 21.4316 31.8374 21.3946 31.8946 21.3563ZM21.54 7.71863C21.54 7.71863 19.8505 11.668 18.7604 14.0005C18.5074 13.7572 18.3204 13.6771 17.9942 13.55C17.6427 13.4131 17.2711 13.3794 16.9177 13.5032C16.5495 13.6322 16.1908 13.9342 15.9069 14.5117C15.2814 15.7846 16.0025 16.8772 16.819 17.2072C17.2447 17.3792 17.6602 17.3187 17.931 17.0066C18.1902 16.7079 18.7575 15.9223 19.2092 14.8454C20.0519 12.836 21.0457 11.0261 21.357 10.1457L26.724 10.2783L24.1797 15.7321C23.9737 15.4322 23.7017 15.2108 23.432 15.0669C23.105 14.8925 22.7804 14.8438 22.5691 14.8687C22.102 14.9237 21.5 15.3224 21.2652 16.0324C21.0664 16.6334 21.091 17.2328 21.6383 17.8022L21.757 17.9032C22.1916 18.2192 22.522 18.1526 22.9287 18.0241C23.4556 17.8575 23.9784 17.4521 24.4484 16.6729C24.4592 16.655 24.4681 16.636 24.475 16.6162C24.475 16.6162 28.9169 7.80554 28.8834 7.73575C28.85 7.66598 21.54 7.71863 21.54 7.71863ZM18.5167 14.5906C18.2928 14.3345 18.1092 14.2251 17.7792 14.0965C17.5547 14.0091 17.3183 13.9763 17.0926 14.0554C16.8404 14.1437 16.6122 14.3684 16.4179 14.7638C16.031 15.5511 16.3089 16.176 16.7997 16.5282C16.9487 16.6352 17.1057 16.7054 17.2519 16.7158C17.3494 16.7228 17.4408 16.7001 17.5059 16.6251C17.7415 16.3534 18.1075 15.5637 18.5167 14.5906ZM23.6957 16.5089C23.5692 16.0739 23.4609 15.7479 23.1575 15.5861C22.9605 15.481 22.7697 15.4265 22.643 15.4462C22.3958 15.4848 21.9535 15.74 21.8107 16.1979C21.713 16.5108 21.8638 17.1787 22.1734 17.3428C22.7553 17.6511 23.1385 17.3839 23.6957 16.5089Z" fill="#465393"/>
<path fill-rule="evenodd" clip-rule="evenodd" d="M10.4125 37.6818C7.37434 38.1556 5.95673 39.4437 5.89979 41.316C5.8993 41.3321 5.89973 41.3482 5.90106 41.3643C5.9458 41.9222 6.15354 42.3373 6.45572 42.6327C6.89261 43.0601 7.54797 43.2416 8.27313 43.1826C9.93072 43.0479 11.9229 41.6384 11.9879 39.723C12.0067 39.1715 11.509 37.8813 10.7623 36.3605C9.5824 33.9573 7.82183 30.9163 6.91793 29.3844C9.02274 29.962 10.2189 29.921 11.0129 29.6096C11.952 29.2414 12.3648 28.4802 13.0286 27.75L12.3774 27.1628C12.0688 27.5022 11.8234 27.854 11.5462 28.1637C11.3146 28.4224 11.0592 28.6502 10.6945 28.7932C9.876 29.1142 8.58561 29.0304 6.09816 28.2188C6.01281 28.191 5.9208 28.1899 5.83452 28.2158C5.74823 28.2416 5.6718 28.2931 5.61552 28.3634C5.55924 28.4336 5.5258 28.5193 5.51971 28.6088C5.51361 28.6982 5.53514 28.7873 5.58142 28.8639C5.58142 28.8639 8.33746 33.4231 9.9708 36.7499C10.1227 37.0583 10.27 37.369 10.4125 37.6818Z" fill="#465393"/>
<path d="M134.845 89.859H49.5356C47.3514 89.859 45.564 88.0716 45.564 85.8874V30.0292C45.564 27.845 47.3514 26.0576 49.5356 26.0576H134.845C137.029 26.0576 138.817 27.845 138.817 30.0292V85.8874C138.817 88.0716 137.029 89.859 134.845 89.859Z" fill="url(#paint0_linear_1_238)"/>
<path d="M134.845 26.5137H49.5356C47.3514 26.5137 45.564 28.3011 45.564 30.4853V81.2011H138.817V30.4853C138.817 28.3011 137.029 26.5137 134.845 26.5137Z" fill="#284C7D"/>
<path d="M101.776 89.8594H82.6089V98.274H101.776V89.8594Z" fill="url(#paint1_linear_1_238)"/>
<path d="M135.544 30.0293H48.8364V77.241H135.544V30.0293Z" fill="#D7E7F5"/>
<path d="M93.9425 86.3547H90.4383C89.6684 86.3547 89.0359 85.7222 89.0359 84.9523C89.0359 84.1823 89.6684 83.5498 90.4383 83.5498H93.9425C94.7125 83.5498 95.3449 84.1823 95.3449 84.9523C95.3449 85.7222 94.7164 86.3547 93.9425 86.3547Z" fill="#7AA9D7"/>
<path d="M109.719 101.31V100.843C109.719 99.4284 108.564 98.2734 107.15 98.2734H77.235C75.8207 98.2734 74.6658 99.4284 74.6658 100.843V101.31H109.719Z" fill="#C5DAEF"/>
<path d="M122.007 31.7578H62.1106V75.4025H122.007V31.7578Z" fill="#D7E7F5"/>
<path d="M118.739 35.5215H99.7371V50.8423H118.739V35.5215Z" fill="white"/>
<path d="M96.6845 35.5215H65.7168V71.8083H96.6845V35.5215Z" fill="white"/>
<path d="M87.4567 58.4551C87.4567 59.6297 87.1307 60.7296 86.561 61.6646L90.1752 63.8488C91.1298 62.2735 91.6758 60.4271 91.6758 58.4551H87.4567Z" fill="#78C4CF"/>
<path d="M76.9954 67.9269C78.28 68.4926 79.6981 68.8069 81.1909 68.8069C84.9779 68.8069 88.3485 66.8702 90.1752 63.8531L86.561 61.6689C85.4729 63.4642 83.4419 64.5838 81.1909 64.5838C80.3031 64.5838 79.4585 64.3953 78.6924 64.0614L76.9954 67.9269Z" fill="#ED971B"/>
<path d="M77.0111 67.9185L78.7279 64.0608C77.3215 63.4362 76.194 62.3048 75.5694 60.8945L71.7039 62.5995C72.7527 64.9644 74.6502 66.8657 77.0111 67.9185Z" fill="#284C7D"/>
<path d="M71.6998 62.5918L75.5654 60.8869C75.2276 60.1208 75.0351 59.2723 75.0351 58.3806C75.0351 57.2688 75.3297 56.2239 75.8404 55.3242L72.1634 53.2422C71.3031 54.7586 70.812 56.5106 70.812 58.3806C70.812 59.8812 71.1302 61.3072 71.6998 62.5918Z" fill="#284C7D"/>
<path d="M79.3014 52.5665L77.9618 48.5635C75.4869 49.3727 73.4166 51.0816 72.1438 53.3051L75.8208 55.3871C76.579 54.0593 77.8204 53.0419 79.3014 52.5665Z" fill="#284C7D"/>
<path d="M81.2497 48.0293C80.1026 48.0293 78.9987 48.2179 77.9656 48.5596L79.2934 52.5666C79.9101 52.3623 80.5662 52.2523 81.2497 52.2523C84.6792 52.2523 87.4566 55.0297 87.4566 58.4592H91.6797C91.6757 52.6963 87.0088 48.0293 81.2497 48.0293Z" fill="#729EDB"/>
<path d="M94.0406 39.3086H68.3645V40.4046H94.0406V39.3086Z" fill="#729EDB"/>
<path d="M94.0367 41.8545H68.3606V42.9505H94.0367V41.8545Z" fill="#729EDB"/>
<path d="M94.025 44.3291H68.3489V45.4251H94.025V44.3291Z" fill="#729EDB"/>
<path d="M118.739 52.5938H99.7371V71.8076H118.739V52.5938Z" fill="white"/>
<path d="M115.651 61.6533H102.817V62.7493H115.651V61.6533Z" fill="#729EDB"/>
<path d="M115.647 64.1992H102.813V65.2952H115.647V64.1992Z" fill="#729EDB"/>
<path d="M115.643 66.6777H102.809V67.7738H115.643V66.6777Z" fill="#729EDB"/>
<path d="M116.983 49.279H101.489C101.253 49.279 101.065 49.0983 101.065 48.8705C101.065 48.6465 101.253 48.4619 101.489 48.4619H116.983C117.218 48.4619 117.407 48.6426 117.407 48.8705C117.407 49.0944 117.218 49.279 116.983 49.279Z" fill="#729EDB"/>
<path d="M113.765 41.8142L110.525 43.9198L108.776 43.0792L105.158 44.678L102.114 42.9692V41.4332L104.993 42.5292L107.335 41.4803L110.481 38.0154L112.402 39.6889L116.983 36.3184V44.3127L113.765 41.8142Z" fill="#284C7D"/>
<path d="M105.092 45.9861L108.753 44.3676L110.619 45.2633L113.699 43.2598L116.983 45.8054V47.0114H102.114V44.3165L105.092 45.9861Z" fill="#ED971B"/>
<path d="M64.8724 27.0244L61.6157 35.4941C61.6157 35.4941 52.6236 28.2226 49.7126 29.0672L49.8109 33.302L59.8205 39.6071C59.8205 39.6071 63.2028 41.1549 64.3656 38.0908C65.5284 35.0266 68.1919 27.9869 68.1919 27.9869L64.8724 27.0244Z" fill="#FD6C26"/>
<path d="M65.5401 22.4434L66.5065 22.1841L66.8365 23.8773L68.1211 21.7245L68.1879 20.7031L69.3585 21.6027L69.7985 23.9126L68.8282 26.089L67.7047 27.8136L65.5244 27.6407L65.5401 22.4434Z" fill="#F7CCCF"/>
<path opacity="0.3" d="M43.325 100.474C51.9535 100.474 58.9483 99.2707 58.9483 97.7866C58.9483 96.3026 51.9535 95.0996 43.325 95.0996C34.6965 95.0996 27.7017 96.3026 27.7017 97.7866C27.7017 99.2707 34.6965 100.474 43.325 100.474Z" fill="#C7D0DD"/>
<path d="M48.3571 98.4307C47.1118 98.8039 46.0708 98.3992 46.0708 98.3992C46.0708 98.3992 45.8783 99.0199 44.8373 98.1439C43.7963 97.2679 46.0355 96.8632 46.0355 96.8632L49.351 96.3525L50.3331 96.4822C50.3331 96.4822 52.4073 97.6018 50.9813 97.8257C49.5553 98.0496 49.3235 98.14 48.3571 98.4307Z" fill="#19132E"/>
<path d="M46.1614 73.835H51.2722L47.7877 96.0619C47.8977 96.0541 47.9802 96.0816 48.0234 96.1484C48.1217 96.3094 47.9606 96.6473 47.6463 96.9773L47.6424 97.0126L47.607 97.0205C47.5363 97.0912 47.4578 97.1658 47.3713 97.2326C46.8842 97.6294 46.3853 97.7865 46.2596 97.5822C46.2203 97.5194 46.2203 97.429 46.2557 97.323L46.1653 97.3426V73.835H46.1614Z" fill="#F7CCCF"/>
<path d="M41.1879 98.6546C40.135 98.91 39.3572 98.576 39.3572 98.576C39.3572 98.576 39.3336 98.6428 38.5283 98.0379C37.723 97.4329 39.4515 96.71 39.4515 96.71L42.221 96.5215L43.0185 96.7454C43.0185 96.7454 44.6331 98.0575 43.4467 98.1439C42.2525 98.2343 42.005 98.4582 41.1879 98.6546Z" fill="#19132E"/>
<path d="M39.6047 73.8779H44.7156L41.2311 96.1049C41.3411 96.097 41.4236 96.1245 41.4668 96.1913C41.565 96.3524 41.404 96.6902 41.0897 97.0202L41.0857 97.0556L41.0504 97.0634C40.9797 97.1342 40.9011 97.2088 40.8147 97.2756C40.3276 97.6723 39.8287 97.8295 39.7029 97.6252C39.6637 97.5623 39.6637 97.472 39.699 97.3659L39.6087 97.3856V73.8779H39.6047Z" fill="#F7CCCF"/>
<path d="M38.2218 75.2292C38.2218 75.2292 42.8731 75.0014 47.1236 75.1153C51.3742 75.2292 54.5405 74.1136 54.5405 74.1136C54.5405 74.1136 53.4955 71.4187 53.6723 67.6788C53.8491 63.939 54.2223 59.2288 53.7116 55.7129C53.2009 52.193 50.6435 47.585 50.6435 47.585H40.6575C40.6575 47.585 38.1354 50.7866 37.6326 59.0284C37.1258 67.2703 38.2218 75.2292 38.2218 75.2292Z" fill="url(#paint2_linear_1_238)"/>
<path d="M35.1265 42.8753C35.1265 42.8753 37.2517 31.754 40.803 29.6326C44.3543 27.5152 40.9916 35.5802 40.9916 35.5802L38.6424 42.7182L40.3041 46.9334C40.3041 46.9334 39.6559 51.0386 38.7995 50.74C37.9431 50.4414 35.1265 42.8753 35.1265 42.8753Z" fill="url(#paint3_linear_1_238)"/>
<path d="M39.5616 47.0863C38.332 48.9326 51.8693 47.7109 51.8693 47.7109C51.8693 47.7109 53.8414 45.8095 52.1365 38.4948C50.4355 31.1841 51.0915 28.9566 51.0915 28.9566L40.693 28.332C40.693 28.332 38.6227 32.8065 38.6934 35.6703C38.7641 38.5341 40.7951 45.236 39.5616 47.0863Z" fill="url(#paint4_linear_1_238)"/>
<path d="M51.0084 22.6627C51.1145 20.8998 50.3175 19.4176 49.2281 19.352C48.1388 19.2864 47.1697 20.6623 47.0635 22.4252C46.9574 24.1881 47.7544 25.6704 48.8438 25.7359C49.9331 25.8015 50.9023 24.4256 51.0084 22.6627Z" fill="#F7CCCF"/>
<path d="M41.235 23.8734C41.8085 22.9424 41.4825 22.3845 41.015 21.3121C40.5475 20.2396 40.795 18.8804 40.8461 18.0436C40.9914 15.6198 43.3681 13.7892 46.1573 13.9581C48.9465 14.127 51.0875 16.2287 50.9382 18.6525C50.84 20.3143 49.52 20.9546 48.8915 21.8974C48.2629 22.8402 48.6479 23.4688 48.8915 24.4784C49.135 25.488 49.5043 26.6036 49.4218 27.9707C49.2647 30.5478 46.8448 32.5002 44.0163 32.3313C41.1839 32.1624 39.0154 29.931 39.1726 27.354C39.259 25.9083 40.6614 24.8044 41.235 23.8734Z" fill="url(#paint5_linear_1_238)"/>
<path d="M85.0439 15.001H70.0439V17.001H85.0439V15.001Z" fill="#BCCACE"/>
<path d="M68.0494 16.0051C68.0517 13.7984 66.2624 12.0076 64.0527 12.0053C61.843 12.0029 60.0498 13.7899 60.0475 15.9966C60.0451 18.2033 61.8345 19.9941 64.0442 19.9964C66.2539 19.9988 68.0471 18.2118 68.0494 16.0051Z" fill="#549FFE"/>
<path d="M112.044 15.001H97.0439V17.001H112.044V15.001Z" fill="#BCCACE"/>
<path d="M95.0505 16.0007C95.0528 13.7916 93.2634 11.9988 91.0536 11.9965C88.8438 11.9941 87.0506 13.7831 87.0482 15.9922C87.0459 18.2013 88.8353 19.9941 91.0451 19.9964C93.2549 19.9988 95.0481 18.2098 95.0505 16.0007Z" fill="#549FFE"/>
<path d="M142.044 15.001H128.044V17.001H142.044V15.001Z" fill="url(#paint6_linear_1_238)"/>
<path d="M126.033 16.0115C126.037 12.7025 123.357 10.0172 120.048 10.0137C116.739 10.0101 114.054 12.6898 114.05 15.9988C114.047 19.3078 116.726 21.9931 120.035 21.9966C123.344 22.0001 126.03 19.3205 126.033 16.0115Z" fill="#01A2A3"/>
<path d="M119.796 18.815C119.796 18.815 119.043 19.4086 118.377 18.4749C117.711 17.5411 116.878 16.386 116.21 15.5167C115.542 14.6474 117.067 13.941 117.65 14.6111C118.23 15.2813 119.23 16.2552 119.23 16.2552C119.23 16.2552 123.362 12.0112 123.932 11.4397C124.504 10.8682 125.468 10.7695 124.838 11.663C124.209 12.5565 119.796 18.815 119.796 18.815Z" fill="#F6F8FC"/>
</g>
<defs>
<linearGradient id="paint0_linear_1_238" x1="92.1903" y1="26.0576" x2="92.1903" y2="89.859" gradientUnits="userSpaceOnUse">
<stop offset="0.8125" stop-color="#C5DAEF"/>
<stop offset="1" stop-color="#90BAE4"/>
</linearGradient>
<linearGradient id="paint1_linear_1_238" x1="92.1923" y1="89.8594" x2="92.1923" y2="98.274" gradientUnits="userSpaceOnUse">
<stop stop-color="#457EB7"/>
<stop offset="1" stop-color="#7AA9D7"/>
</linearGradient>
<linearGradient id="paint2_linear_1_238" x1="46.0196" y1="47.585" x2="46.0196" y2="75.2292" gradientUnits="userSpaceOnUse">
<stop stop-color="#314572"/>
<stop offset="1" stop-color="#2F52A0"/>
</linearGradient>
<linearGradient id="paint3_linear_1_238" x1="38.7792" y1="33.8723" x2="36.8345" y2="43.5483" gradientUnits="userSpaceOnUse">
<stop stop-color="#D24600"/>
<stop offset="1" stop-color="#FD6C26"/>
</linearGradient>
<linearGradient id="paint4_linear_1_238" x1="40.0439" y1="30.5005" x2="45.7612" y2="48.1073" gradientUnits="userSpaceOnUse">
<stop stop-color="#EE5306"/>
<stop offset="1" stop-color="#FC9A26"/>
</linearGradient>
<linearGradient id="paint5_linear_1_238" x1="47.0439" y1="31.5005" x2="42.0439" y2="15.0005" gradientUnits="userSpaceOnUse">
<stop stop-color="#314572"/>
<stop offset="1" stop-color="#1C55D3"/>
</linearGradient>
<linearGradient id="paint6_linear_1_238" x1="128.044" y1="14.5229" x2="141.169" y2="14.5229" gradientUnits="userSpaceOnUse">
<stop stop-color="#BCCACE"/>
<stop offset="1" stop-color="#BCCACE" stop-opacity="0"/>
</linearGradient>
<clipPath id="clip0_1_238">
<rect width="143" height="108" fill="white"/>
</clipPath>
</defs>
</svg>
