<svg width="20" height="51" viewBox="0 0 20 51" fill="none" xmlns="http://www.w3.org/2000/svg">
<path d="M10.2393 50.8943L19.8363 40.8439C19.9874 40.6927 19.9874 40.466 19.8363 40.3149C19.7607 40.2393 19.6096 40.1638 19.4585 40.2393L13.6398 41.9018C13.8665 41.3728 14.0177 40.7683 14.0177 40.2393V9.10581L19.4585 10.6927C19.6096 10.7683 19.8363 10.6171 19.9119 10.466C19.9119 10.3149 19.9119 10.2393 19.8363 10.1637L10.2393 0.11335C10.0882 -0.0377834 9.86148 -0.0377834 9.71034 0.11335L0.11335 10.1637C-0.0377834 10.3149 -0.0377834 10.5416 0.11335 10.6927C0.188917 10.7683 0.340051 10.8438 0.491184 10.7683L5.932 9.18137V40.2393C5.932 40.8439 6.08314 41.4484 6.30984 41.9018L0.491184 40.2393C0.340051 40.1638 0.113369 40.3149 0.0378019 40.466C0.0378019 40.6172 0.0377834 40.6927 0.11335 40.7683L9.71034 50.8187C9.86148 51.0454 10.0882 51.0454 10.2393 50.8943Z" fill="#636972"/>
</svg>
