<svg width="38" height="21" viewBox="0 0 38 21" fill="none" xmlns="http://www.w3.org/2000/svg">
<path d="M12.7928 6.51037C12.4901 5.52631 12.1872 5.07212 11.7331 4.54224C10.9004 3.48248 9.53785 2.95259 7.94821 2.95259C4.39044 2.95259 2.19524 5.67769 2.19524 10.1438C2.19524 14.61 4.46614 17.3351 7.94821 17.3351C9.68924 17.3351 11.1275 16.6538 12.0359 15.5183C12.4901 14.8371 12.7171 14.3072 12.9442 13.3231L15.2151 13.7773C14.8366 15.2156 14.4582 15.8968 13.9283 16.6538C12.6415 18.3191 10.5219 19.2275 7.94821 19.2275C5.67729 19.2275 3.78485 18.5462 2.498 17.1837C0.908357 15.594 0 13.096 0 10.2195C0 7.34304 0.984064 4.69363 2.6494 3.0283C4.01195 1.74144 5.75299 1.06016 7.94821 1.06016C10.1434 1.06016 11.8845 1.66574 13.1713 2.95259C14.004 3.78526 14.4582 4.54224 14.988 5.98048L12.7928 6.51037Z" fill="#333333"/>
<path d="M22.7848 18.4701C22.7848 19.4542 22.8605 20.1355 22.9362 20.741H20.9681C21.0438 20.0598 21.1195 19.4542 21.1195 18.4701V11.8088C20.0598 12.8685 19.4542 13.3227 18.1673 14.3068C17.9402 13.7012 17.6374 13.247 17.2589 12.7171C18.8486 11.7331 20.0597 10.749 21.3466 9.38645C22.4821 8.17529 23.1633 7.11555 23.996 5.45021H19.9083C19.1514 5.45021 18.6972 5.45019 18.0159 5.52589V3.70916C18.6972 3.78486 19.0757 3.78486 19.8327 3.78486H21.1195V1.74103C21.1195 1.13545 21.0438 0.454183 20.9681 0H22.9362C22.8605 0.454183 22.7848 1.05976 22.7848 1.81673V3.86056H23.996C24.6773 3.86056 24.9801 3.86056 25.2829 3.78486L26.1155 4.69324C25.9641 4.92033 25.8127 5.22311 25.5856 5.67729C24.8287 7.19123 24.2231 8.1753 23.1633 9.53785C24.3745 10.9004 25.2829 11.6574 26.7968 12.5657C26.4183 13.0956 26.1912 13.4741 25.8884 14.0797C24.6016 13.1713 23.6932 12.4143 22.7848 11.2789V18.4701ZM32.1713 17.8645H35.502C36.7131 17.8645 37.3944 17.7888 38 17.7131V19.757C37.243 19.6813 36.4861 19.6056 35.502 19.6056H27.4024C26.4183 19.6056 25.6614 19.6813 24.9044 19.757V17.7131C25.5857 17.7888 26.1912 17.8645 27.4024 17.8645H30.2789V8.40239H28.1593C27.3267 8.40239 26.6454 8.4781 25.9641 8.4781V6.58567C26.5697 6.66136 27.251 6.73705 28.1593 6.73705H30.2789V2.11951C30.2789 1.36254 30.2032 0.832669 30.1275 0H32.247C32.0956 0.832669 32.0956 1.28684 32.0956 2.11951V6.73705H34.9721C35.9562 6.73705 36.5617 6.73706 37.1673 6.58567V8.4781C36.486 8.4024 35.8048 8.40239 34.9721 8.40239H32.0956L32.1713 17.8645Z" fill="#333333"/>
</svg>
