<svg width="620" height="304" viewBox="0 0 620 304" fill="none" xmlns="http://www.w3.org/2000/svg">
<mask id="mask0_1_2509" style="mask-type:luminance" maskUnits="userSpaceOnUse" x="285" y="48" width="51" height="21">
<path d="M335.367 48.4961H285.006V68.1182H335.367V48.4961Z" fill="white"/>
</mask>
<g mask="url(#mask0_1_2509)">
<path d="M335.292 58.0461L325.369 48.5707C325.22 48.4215 324.996 48.4215 324.847 48.5707C324.773 48.6454 324.698 48.7946 324.773 48.8692L326.414 54.6141C325.892 54.3902 325.295 54.241 324.773 54.241H294.034L295.6 48.8692C295.675 48.72 295.526 48.4961 295.377 48.4215C295.227 48.3469 295.153 48.4215 295.004 48.4961L285.081 57.9715C284.931 58.1207 284.931 58.3445 285.081 58.4937L295.004 67.9691C295.153 68.1183 295.377 68.1183 295.526 67.9691C295.6 67.8945 295.675 67.7452 295.6 67.6706L294.034 62.2988H324.773C325.369 62.2988 325.892 62.1496 326.414 61.9257L324.773 67.6706C324.698 67.8198 324.847 68.0437 324.996 68.1183C325.146 68.1929 325.22 68.1183 325.369 68.0437L335.292 58.5683C335.367 58.4191 335.367 58.1953 335.292 58.0461Z" fill="#636972"/>
</g>
<mask id="mask1_1_2509" style="mask-type:luminance" maskUnits="userSpaceOnUse" x="285" y="234" width="51" height="20">
<path d="M335.367 234.272H285.006V253.895H335.367V234.272Z" fill="white"/>
</mask>
<g mask="url(#mask1_1_2509)">
<path d="M335.292 243.823L325.369 234.347C325.22 234.198 324.996 234.198 324.847 234.347C324.773 234.422 324.698 234.571 324.773 234.72L326.414 240.465C325.892 240.241 325.295 240.092 324.773 240.092H294.034L295.6 234.72C295.675 234.571 295.526 234.347 295.377 234.273C295.227 234.273 295.153 234.273 295.004 234.347L285.081 243.823C284.931 243.972 284.931 244.196 285.081 244.345L295.004 253.82C295.153 253.969 295.377 253.969 295.526 253.82C295.6 253.746 295.675 253.596 295.6 253.447L294.034 248.075H324.773C325.369 248.075 325.892 247.926 326.414 247.702L324.773 253.447C324.698 253.596 324.847 253.82 324.996 253.895C325.146 253.895 325.22 253.895 325.369 253.82L335.292 244.345C335.367 244.196 335.367 243.972 335.292 243.823Z" fill="#636972"/>
</g>
<mask id="mask2_1_2509" style="mask-type:luminance" maskUnits="userSpaceOnUse" x="118" y="127" width="21" height="51">
<path d="M138.25 127.432H118.628V177.793H138.25V127.432Z" fill="white"/>
</mask>
<g mask="url(#mask2_1_2509)">
<path d="M128.7 177.644L138.176 167.721C138.325 167.571 138.325 167.348 138.176 167.198C138.101 167.124 137.952 167.049 137.877 167.124L132.132 168.765C132.356 168.243 132.505 167.646 132.505 167.124V136.385L137.877 137.952C138.026 138.026 138.25 137.877 138.325 137.728C138.4 137.579 138.325 137.504 138.25 137.429L128.775 127.506C128.626 127.357 128.402 127.357 128.253 127.506L118.777 137.429C118.628 137.579 118.628 137.802 118.777 137.952C118.852 138.026 119.001 138.101 119.076 138.026L124.448 136.46V167.124C124.448 167.721 124.597 168.318 124.821 168.765L119.076 167.124C118.927 167.049 118.703 167.198 118.628 167.348C118.554 167.497 118.628 167.571 118.703 167.646L128.178 177.569C128.327 177.793 128.551 177.793 128.7 177.644Z" fill="#636972"/>
</g>
<mask id="mask3_1_2509" style="mask-type:luminance" maskUnits="userSpaceOnUse" x="481" y="127" width="20" height="51">
<path d="M500.85 127.432H481.227V177.793H500.85V127.432Z" fill="white"/>
</mask>
<g mask="url(#mask3_1_2509)">
<path d="M491.3 177.644L500.775 167.721C500.924 167.571 500.924 167.348 500.775 167.198C500.7 167.124 500.551 167.049 500.402 167.124L494.657 168.765C494.881 168.243 495.03 167.646 495.03 167.124V136.385L500.402 137.952C500.551 138.026 500.775 137.877 500.85 137.728C500.85 137.579 500.85 137.504 500.775 137.429L491.3 127.506C491.15 127.357 490.927 127.357 490.777 127.506L481.302 137.429C481.153 137.579 481.153 137.802 481.302 137.952C481.377 138.026 481.526 138.101 481.675 138.026L487.047 136.46V167.124C487.047 167.721 487.196 168.318 487.42 168.765L481.675 167.124C481.526 167.049 481.302 167.198 481.227 167.348C481.227 167.497 481.227 167.571 481.302 167.646L490.777 177.569C490.927 177.793 491.15 177.793 491.3 177.644Z" fill="#636972"/>
</g>
<path d="M14.9218 187.269H242.479C250.686 187.269 257.401 193.983 257.401 202.19V288.737C257.401 296.944 250.686 303.658 242.479 303.658H14.9218C6.7148 303.658 0 296.944 0 288.737V202.19C0 193.983 6.7148 187.269 14.9218 187.269Z" fill="#F5F6F9"/>
<path d="M377.521 0H605.078C613.285 0 620 6.7148 620 14.9218V101.468C620 109.675 613.285 116.39 605.078 116.39H377.521C369.314 116.39 362.599 109.675 362.599 101.468V14.9218C362.599 6.7148 369.314 0 377.521 0Z" fill="#FFF7F0"/>
<path d="M377.521 187.269H605.078C613.285 187.269 620 193.983 620 202.19V288.737C620 296.944 613.285 303.658 605.078 303.658H377.521C369.314 303.658 362.599 296.944 362.599 288.737V202.19C362.599 193.983 369.314 187.269 377.521 187.269Z" fill="#F5F6F9"/>
<path d="M485.629 222.783C485.331 221.813 485.032 221.365 484.585 220.843C483.764 219.799 482.421 219.276 480.854 219.276C477.348 219.276 475.184 221.962 475.184 226.364C475.184 230.766 477.422 233.452 480.854 233.452C482.57 233.452 483.988 232.781 484.883 231.661C485.331 230.99 485.555 230.468 485.779 229.498L488.017 229.945C487.644 231.363 487.271 232.034 486.749 232.781C485.48 234.422 483.391 235.317 480.854 235.317C478.616 235.317 476.751 234.646 475.483 233.303C473.916 231.736 473.02 229.274 473.02 226.439C473.02 223.604 473.99 220.992 475.632 219.351C476.975 218.083 478.691 217.411 480.854 217.411C483.018 217.411 484.734 218.008 486.002 219.276C486.823 220.097 487.271 220.843 487.793 222.261L485.629 222.783Z" fill="#333333"/>
<path d="M495.478 234.571C495.478 235.541 495.552 236.212 495.627 236.809H493.687C493.762 236.138 493.836 235.541 493.836 234.571V228.005C492.792 229.05 492.195 229.497 490.927 230.467C490.703 229.87 490.404 229.423 490.031 228.9C491.598 227.931 492.792 226.961 494.06 225.618C495.179 224.424 495.851 223.379 496.671 221.738H492.643C491.896 221.738 491.449 221.738 490.777 221.813V220.022C491.449 220.097 491.822 220.097 492.568 220.097H493.836V218.082C493.836 217.485 493.762 216.814 493.687 216.366H495.627C495.552 216.814 495.478 217.411 495.478 218.157V220.171H496.671C497.343 220.171 497.641 220.171 497.94 220.097L498.761 220.992C498.611 221.216 498.462 221.514 498.238 221.962C497.492 223.454 496.895 224.424 495.851 225.767C497.044 227.11 497.94 227.856 499.432 228.751C499.059 229.274 498.835 229.647 498.537 230.243C497.268 229.348 496.373 228.602 495.478 227.483V234.571ZM504.729 233.974H508.012C509.206 233.974 509.877 233.899 510.474 233.825V235.839C509.728 235.765 508.982 235.69 508.012 235.69H500.029C499.059 235.69 498.313 235.765 497.567 235.839V233.825C498.238 233.899 498.835 233.974 500.029 233.974H502.864V224.648H500.775C499.954 224.648 499.283 224.722 498.611 224.722V222.857C499.208 222.932 499.88 223.006 500.775 223.006H502.864V218.455C502.864 217.709 502.789 217.187 502.715 216.366H504.804C504.655 217.187 504.655 217.635 504.655 218.455V223.006H507.49C508.46 223.006 509.057 223.006 509.653 222.857V224.722C508.982 224.648 508.31 224.648 507.49 224.648H504.655L504.729 233.974Z" fill="#333333"/>
<path d="M472.871 267.175C472.498 270.607 472.349 271.576 471.677 273.591L470.185 272.994C470.857 271.278 471.155 269.562 471.304 266.876L472.871 267.175ZM470.26 264.041C470.633 264.116 470.931 264.116 471.379 264.116C471.677 264.116 471.752 264.116 472.051 264.116C472.573 263.444 473.02 262.847 473.319 262.4C472.051 260.684 471.454 259.937 470.185 258.744L471.155 257.475C471.603 257.923 471.752 258.072 471.976 258.445C473.02 256.729 473.767 255.162 473.916 254.342L475.483 254.939C475.333 255.088 475.109 255.61 474.662 256.505C474.214 257.475 473.617 258.371 472.871 259.564C473.468 260.236 473.841 260.758 474.065 261.131C475.483 258.968 476.229 257.475 476.527 256.655L478.094 257.475C477.945 257.699 477.795 257.923 477.497 258.371C476.527 260.012 475.035 262.325 473.692 264.041C475.109 263.966 475.856 263.892 476.9 263.743C476.527 262.996 476.378 262.623 475.93 261.803L477.124 261.28C477.945 262.773 478.541 263.966 479.064 265.459L477.721 266.13C477.572 265.533 477.497 265.384 477.348 265.011C477.199 265.011 476.9 265.085 476.602 265.085C476.229 265.16 476.005 265.16 475.259 265.235V272.546C475.259 273.591 475.259 274.113 475.408 274.785H473.543C473.617 274.039 473.692 273.442 473.692 272.472V265.309C473.244 265.309 472.424 265.384 471.23 265.459C470.857 265.459 470.558 265.533 470.26 265.608V264.041ZM477.572 266.727C478.094 268.294 478.392 269.637 478.84 271.875L477.422 272.248C477.124 270.159 476.826 268.592 476.303 267.1L477.572 266.727ZM485.107 254.64C485.928 256.356 486.823 257.475 488.315 258.818C489.211 259.639 490.106 260.236 491.374 260.982C491.001 261.43 490.628 262.027 490.404 262.549C487.569 260.684 485.779 258.818 484.286 256.356C482.794 258.968 481.302 260.684 478.84 262.4C478.541 261.803 478.318 261.504 477.795 260.982C480.332 259.415 482.048 257.401 483.316 254.64H485.107ZM481.377 274.71H479.586C479.661 273.964 479.735 273.292 479.735 272.472V267.175C479.735 266.279 479.735 265.906 479.661 265.309C480.108 265.384 480.631 265.384 481.302 265.384H487.718C488.39 265.384 488.912 265.384 489.36 265.309C489.285 265.832 489.285 266.279 489.285 267.175V272.397C489.285 273.367 489.36 274.262 489.434 274.71H487.644V273.367H481.451V274.71H481.377ZM480.407 261.206C480.929 261.28 481.377 261.28 482.347 261.28H486.525C487.569 261.28 487.942 261.28 488.464 261.206V262.922C487.868 262.847 487.42 262.847 486.45 262.847H482.496C481.526 262.847 481.004 262.847 480.407 262.922V261.206ZM481.377 271.875H487.644V266.876H481.377V271.875Z" fill="#333333"/>
<path d="M497.791 263.668C497.641 264.041 497.567 264.265 497.343 264.862L495.552 264.564C496.895 261.43 497.791 258.595 498.387 255.461C498.462 255.014 498.537 254.715 498.537 254.268L500.477 254.566C500.327 255.014 500.253 255.238 500.178 255.611C500.029 256.207 499.954 256.58 499.73 257.401H508.609C509.728 257.401 510.25 257.401 510.922 257.327V259.192C510.325 259.117 509.653 259.117 508.683 259.117H499.357C498.984 260.386 498.835 261.057 498.462 262.251H507.042C508.087 262.251 508.907 262.176 509.43 262.176C509.355 262.773 509.206 263.594 508.982 265.907C508.907 266.28 508.907 266.429 508.833 267.026H510.922C511.817 267.026 512.638 266.951 513.384 266.877V268.742C512.638 268.667 511.817 268.592 510.922 268.592H508.609C508.161 270.98 507.714 272.398 507.191 273.218C506.594 274.114 505.774 274.412 504.132 274.412C503.162 274.412 502.193 274.337 500.253 274.188C500.103 273.442 500.029 273.069 499.73 272.323C501.819 272.621 503.013 272.771 503.983 272.771C505.177 272.771 505.55 272.547 505.923 271.651C506.221 270.905 506.52 269.935 506.744 268.592H495.329C494.359 268.592 493.538 268.667 492.792 268.742V266.877C493.463 266.951 494.284 267.026 495.329 267.026H506.968C507.117 266.205 507.117 266.13 507.341 263.892L497.791 263.668Z" fill="#333333"/>
<path d="M111.093 218.903C111.093 217.858 111.018 217.261 110.943 216.217C111.69 216.291 112.361 216.291 113.48 216.291H117.36C119.822 216.291 121.762 216.963 123.105 218.306C124.671 219.798 125.418 222.036 125.418 224.797C125.418 227.557 124.597 230.019 122.955 231.586C121.613 232.929 119.747 233.601 117.36 233.601H113.48C112.286 233.601 111.764 233.601 110.943 233.675C111.093 232.78 111.093 232.109 111.093 230.915V218.903ZM117.285 231.661C119.076 231.661 120.419 231.139 121.463 230.094C122.657 228.9 123.254 227.035 123.254 224.797C123.254 222.559 122.657 220.843 121.538 219.649C120.568 218.604 119.225 218.157 117.36 218.157H113.182V231.661H117.285Z" fill="#333333"/>
<path d="M132.878 233.079C132.878 234.049 132.953 234.72 132.953 235.317H131.013C131.088 234.645 131.162 234.049 131.162 233.079V226.513C130.118 227.558 129.521 228.005 128.253 228.975C128.029 228.378 127.73 227.931 127.357 227.408C128.924 226.438 130.118 225.468 131.386 224.126C132.505 222.932 133.177 221.887 133.998 220.246H129.969C129.223 220.246 128.775 220.246 128.103 220.32V218.53C128.775 218.604 129.148 218.604 129.894 218.604H131.162V216.59C131.162 215.993 131.088 215.322 131.013 214.874H132.953C132.878 215.322 132.804 215.919 132.804 216.665V218.679H133.998C134.669 218.679 135.042 218.679 135.266 218.604L136.087 219.5C135.937 219.724 135.788 220.022 135.564 220.47C134.818 221.962 134.221 222.932 133.177 224.275C134.371 225.618 135.266 226.364 136.758 227.259C136.385 227.781 136.161 228.154 135.863 228.751C134.594 227.856 133.699 227.11 132.804 225.991V233.079H132.878ZM142.205 232.482H145.487C146.681 232.482 147.353 232.407 147.949 232.333V234.347C147.203 234.272 146.457 234.198 145.487 234.198H137.579C136.609 234.198 135.863 234.272 135.117 234.347V232.333C135.788 232.407 136.385 232.482 137.579 232.482H140.414V223.156H138.325C137.504 223.156 136.833 223.23 136.161 223.23V221.365C136.758 221.44 137.355 221.514 138.325 221.514H140.414V216.963C140.414 216.217 140.339 215.695 140.265 214.874H142.354C142.205 215.695 142.205 216.142 142.205 216.963V221.514H145.04C146.01 221.514 146.606 221.514 147.203 221.365V223.23C146.532 223.156 145.86 223.156 145.04 223.156H142.205V232.482Z" fill="#333333"/>
<path d="M41.5572 253.596C41.4079 253.895 41.1841 254.342 40.8111 255.014C40.5872 255.536 40.3634 255.909 40.1396 256.207C40.3634 256.133 42.5271 256.133 46.7052 256.058C47.3767 256.058 47.7497 255.984 48.1973 255.834L49.3165 256.953C49.0927 257.327 49.018 257.401 48.645 258.446C47.8243 260.609 46.7052 262.997 45.6606 264.638C43.4224 268.145 40.3634 270.682 35.6631 272.845C35.2154 272.025 34.9916 271.726 34.3201 271.204C36.1853 270.458 37.3791 269.786 38.8712 268.816C40.5872 267.623 41.5572 266.727 42.6763 265.384C41.0349 263.967 39.5427 262.848 37.7521 261.878L39.0205 260.535C40.8857 261.579 42.0048 262.4 43.87 263.892C45.0638 262.027 46.0337 260.012 46.7798 257.774L39.2443 257.849C37.7521 260.236 36.1853 261.952 33.947 263.818C33.4248 263.221 33.1264 262.997 32.3803 262.549C34.8424 260.759 36.633 258.744 38.0505 256.207C38.722 254.939 39.1697 253.969 39.3935 253.148L41.5572 253.596Z" fill="#333333"/>
<path d="M56.7028 254.268C56.6282 254.864 56.5536 255.312 56.5536 256.58L56.4789 269.637C59.0156 269.189 61.0301 268.443 62.8207 267.324C64.9844 265.907 66.4765 264.34 67.6703 262.027C68.2672 262.922 68.491 263.146 69.1625 263.668C66.1035 268.294 62.6715 270.458 56.6282 271.577C55.8821 271.726 55.6582 271.801 55.2852 271.95L54.2407 270.682C54.3899 270.234 54.3899 269.935 54.3899 269.04L54.4645 256.655C54.4645 255.536 54.4645 254.79 54.3899 254.342L56.7028 254.268Z" fill="#333333"/>
<path d="M70.8038 269.413C72.5945 269.339 75.2804 268.667 77.3694 267.772C81.6221 265.907 84.6065 262.624 86.4717 257.774C87.0686 258.52 87.367 258.819 88.1131 259.341C86.2479 263.295 84.2335 265.907 81.1745 267.921C78.8616 269.488 76.3995 270.458 72.8183 271.279C72.0722 271.428 71.923 271.502 71.4007 271.652L70.8038 269.413ZM72.3706 255.536C74.8327 257.103 76.2503 258.222 77.8917 259.789L76.5487 261.43C74.9073 259.64 73.0421 258.147 71.1023 257.028C71.0277 257.028 72.3706 255.536 72.3706 255.536Z" fill="#333333"/>
<path d="M93.1865 272.324C93.3357 271.577 93.3357 270.981 93.3357 269.712V256.059C93.3357 254.716 93.3357 254.194 93.1865 253.597H95.4248C95.3502 254.268 95.2756 254.865 95.2756 256.133V260.088C98.4091 261.207 101.468 262.624 105.273 264.788L104.154 266.728C102.214 265.31 99.0806 263.669 95.9471 262.326C95.6486 262.177 95.4994 262.177 95.201 261.953C95.2756 262.55 95.2756 262.923 95.2756 263.818V269.638C95.2756 270.831 95.2756 271.503 95.4248 272.249L93.1865 272.324Z" fill="#333333"/>
<path d="M115.644 265.235C118.255 263.072 120.344 260.684 122.06 257.924C122.135 257.775 122.135 257.775 122.209 257.625C121.986 257.625 117.882 257.7 109.824 257.7C108.481 257.7 107.884 257.7 106.989 257.775V255.686C107.81 255.835 108.407 255.835 109.824 255.835H122.582C123.403 255.835 123.627 255.835 124 255.686L125.119 256.954C124.821 257.252 124.671 257.476 124.224 258.148C122.06 261.505 119.673 264.266 116.838 266.504C117.658 267.399 118.703 268.742 120.046 270.458L118.404 271.801C117.211 269.936 116.017 268.369 114.077 266.28C112.436 264.489 111.242 263.37 109.6 262.027L111.093 260.908C112.436 262.027 113.256 262.773 114.152 263.669L115.644 265.235Z" fill="#333333"/>
<path d="M135.341 272.771C135.415 272.174 135.415 271.577 135.415 270.383V265.459C135.415 265.086 135.415 264.862 135.49 264.415C135.266 264.638 135.117 264.713 134.818 264.937C133.177 265.907 130.939 266.802 128.103 267.697C127.805 266.951 127.656 266.653 127.134 265.981C131.312 265.011 134.893 263.37 137.877 261.132C138.996 260.311 139.742 259.64 140.862 258.446L140.414 258.52C140.116 258.52 139.593 258.595 139.369 258.595H131.536C130.416 258.595 129.894 258.595 129.073 258.744V256.655C129.745 256.73 130.342 256.804 131.536 256.804H135.415V255.014C135.415 254.119 135.415 253.82 135.341 253.298H137.43C137.355 253.82 137.355 254.193 137.355 255.014V256.804H141.832C142.354 256.804 142.652 256.73 142.951 256.655L143.921 257.774C143.622 258.073 143.473 258.147 143.025 258.744C141.757 260.162 139.817 261.878 138.25 262.997C141.458 264.116 143.548 265.086 146.308 266.727L145.189 268.518C143.548 267.399 141.533 266.28 138.698 265.011C137.877 264.638 137.803 264.564 137.355 264.34C137.355 264.415 137.355 264.564 137.43 264.788C137.43 264.862 137.43 265.235 137.43 265.534V270.383C137.43 271.726 137.43 272.174 137.504 272.771H135.341Z" fill="#333333"/>
<path d="M149.665 259.714C151.829 260.61 153.545 261.43 155.41 262.699L154.366 264.489C152.724 263.295 150.71 262.176 148.546 261.356L149.665 259.714ZM148.994 269.936C150.561 269.936 152.874 269.413 155.112 268.518C157.872 267.474 159.961 265.907 161.752 263.519C163.02 261.878 163.767 260.535 164.438 258.52C165.109 259.192 165.333 259.416 166.079 259.938C164.14 264.638 161.379 267.697 157.425 269.637C155.858 270.383 153.471 271.204 151.605 271.577C151.232 271.652 150.859 271.726 150.412 271.801C149.964 271.875 149.815 271.95 149.516 272.025L148.994 269.936ZM151.381 254.342C153.545 255.238 155.112 255.984 157.052 257.178L156.007 258.968C154.291 257.774 152.053 256.581 150.337 255.984L151.381 254.342ZM163.319 253.372C164.363 254.641 164.886 255.387 165.632 256.804L164.289 257.551C163.617 256.133 162.871 255.014 161.976 254.044L163.319 253.372ZM165.856 252.179C166.9 253.372 167.422 254.119 168.168 255.611L166.9 256.357C166.229 255.088 165.557 254.044 164.587 252.925L165.856 252.179Z" fill="#333333"/>
<path d="M183.016 254.865C182.717 255.312 182.643 255.536 182.27 256.282C180.927 259.565 180.106 261.206 178.987 262.773C180.927 264.415 182.27 265.608 184.06 267.623L182.568 269.264C181.374 267.772 179.957 266.28 177.793 264.415C176.748 265.832 175.48 267.175 174.063 268.518C172.496 269.936 171.078 270.831 168.84 272.099C168.392 271.353 168.168 271.055 167.422 270.458C171.004 268.667 173.839 266.429 176.301 263.146C174.286 261.579 172.197 260.162 170.332 259.117L171.675 257.7C173.167 258.595 175.107 259.863 177.42 261.505C178.465 259.863 179.211 258.297 179.957 256.431C180.479 255.088 180.628 254.715 180.777 254.044L183.016 254.865Z" fill="#333333"/>
<path d="M187.641 269.413C189.432 269.339 192.118 268.667 194.207 267.772C198.46 265.907 201.444 262.624 203.235 257.774C203.832 258.52 204.13 258.819 204.876 259.341C203.011 263.295 200.996 265.907 197.937 267.921C195.625 269.488 193.162 270.458 189.507 271.279C188.761 271.428 188.611 271.502 188.089 271.652L187.641 269.413ZM189.208 255.536C191.67 257.103 193.088 258.222 194.729 259.789L193.386 261.43C191.745 259.64 189.88 258.147 187.94 257.028L189.208 255.536Z" fill="#333333"/>
<path d="M210.024 272.324C210.099 271.577 210.173 270.981 210.173 269.712V256.059C210.173 254.716 210.173 254.194 210.024 253.597H212.262C212.188 254.268 212.188 254.865 212.188 256.133V260.088C215.321 261.207 218.38 262.624 222.185 264.788L221.066 266.728C219.126 265.31 215.993 263.669 212.859 262.326C212.486 262.177 212.412 262.177 212.113 261.953C212.188 262.55 212.188 262.923 212.188 263.818V269.638C212.188 270.831 212.188 271.503 212.262 272.249L210.024 272.324Z" fill="#333333"/>
<mask id="mask4_1_2509" style="mask-type:luminance" maskUnits="userSpaceOnUse" x="267" y="108" width="86" height="86">
<path d="M281.668 108.929L267.793 122.804L338.222 193.233L352.097 179.358L281.668 108.929Z" fill="white"/>
</mask>
<g mask="url(#mask4_1_2509)">
<path d="M345.29 186.075L344.992 172.347C344.992 172.123 344.842 171.973 344.619 171.973C344.469 171.973 344.395 172.048 344.32 172.123L341.41 177.345C341.187 176.823 340.888 176.301 340.515 175.928L283.961 119.374L288.886 116.688C289.035 116.614 289.109 116.39 289.035 116.241C288.96 116.166 288.886 116.091 288.736 116.091L275.008 115.793C274.785 115.793 274.635 115.942 274.635 116.166L274.934 129.894C274.934 130.118 275.083 130.267 275.307 130.267C275.456 130.267 275.531 130.192 275.605 130.118L278.291 125.194L334.845 181.747C335.218 182.195 335.74 182.493 336.337 182.643L331.114 185.552C330.965 185.627 330.89 185.851 330.965 186C331.04 186.075 331.114 186.149 331.264 186.149L344.992 186.448C345.141 186.448 345.29 186.298 345.29 186.075Z" fill="#636972"/>
</g>
<mask id="mask5_1_2509" style="mask-type:luminance" maskUnits="userSpaceOnUse" x="267" y="108" width="86" height="86">
<path d="M338.275 108.982L267.846 179.411L281.721 193.286L352.15 122.857L338.275 108.982Z" fill="white"/>
</mask>
<g mask="url(#mask5_1_2509)">
<path d="M274.71 186.075L275.008 172.347C275.008 172.123 275.158 171.973 275.381 171.973C275.531 171.973 275.605 172.048 275.68 172.123L278.59 177.345C278.813 176.823 279.112 176.301 279.485 175.928L336.038 119.374L331.114 116.688C330.965 116.614 330.89 116.39 330.965 116.241C331.04 116.166 331.114 116.091 331.264 116.091L344.992 115.793C345.215 115.793 345.365 115.942 345.365 116.166L345.066 129.894C345.066 130.118 344.917 130.267 344.693 130.267C344.544 130.267 344.469 130.192 344.395 130.118L341.709 125.194L285.155 181.747C284.782 182.195 284.26 182.493 283.663 182.643L288.886 185.552C289.035 185.627 289.109 185.851 289.035 186C288.96 186.075 288.886 186.149 288.736 186.149L275.008 186.448C274.859 186.373 274.71 186.224 274.71 186.075Z" fill="#636972"/>
</g>
<path d="M14.9218 0H242.479C250.686 0 257.401 6.7148 257.401 14.9218V101.468C257.401 109.675 250.686 116.39 242.479 116.39H14.9218C6.7148 116.39 0 109.675 0 101.468V14.9218C0 6.7148 6.7148 0 14.9218 0Z" fill="#F5F6F9"/>
<path d="M123.478 47.7503C123.329 47.0042 123.03 46.1089 122.806 45.4374L121.687 42.6769H114.077L113.032 45.4374C112.659 46.3327 112.51 46.9296 112.361 47.7503H109.675C110.048 47.0042 110.347 46.4819 110.869 45.139L115.868 32.6047C116.315 31.5601 116.465 31.0379 116.614 30.5156H119.374C119.449 30.9633 119.598 31.2617 120.12 32.6047L125.119 45.139C125.716 46.4819 125.94 47.1534 126.313 47.7503H123.478ZM118.33 33.6492C118.255 33.5 118.106 33.0523 117.882 32.2316C117.807 32.5301 117.658 32.8285 117.658 32.9777C117.584 33.2762 117.509 33.5 117.434 33.6492L114.749 40.8117H121.165L118.33 33.6492Z" fill="#333333"/>
<path d="M132.878 47.3022C132.878 48.2721 132.953 48.9436 132.953 49.5405H131.013C131.088 48.869 131.162 48.2721 131.162 47.3022V40.7366C130.118 41.7812 129.521 42.2288 128.253 43.1987C128.029 42.6019 127.73 42.1542 127.357 41.632C128.924 40.662 130.118 39.6921 131.386 38.3492C132.505 37.1554 133.177 36.1109 133.998 34.4695H129.969C129.223 34.4695 128.775 34.4695 128.103 34.5441V32.7535C128.775 32.8281 129.148 32.8281 129.894 32.8281H131.162V30.8137C131.162 30.2168 131.088 29.5453 131.013 29.0977H132.953C132.878 29.5453 132.804 30.1422 132.804 30.8883V32.9027H133.998C134.669 32.9027 135.042 32.9027 135.266 32.8281L136.087 33.7234C135.937 33.9472 135.788 34.2457 135.564 34.6933C134.818 36.1855 134.221 37.1554 133.177 38.4984C134.371 39.8413 135.266 40.5874 136.758 41.4827C136.385 42.005 136.161 42.378 135.863 42.9749C134.594 42.0796 133.699 41.3335 132.804 40.2144C132.878 40.1398 132.878 47.3022 132.878 47.3022ZM142.13 46.7054H145.413C146.606 46.7054 147.278 46.6308 147.875 46.5561V48.5706C147.129 48.4214 146.383 48.4214 145.413 48.4214H137.504C136.534 48.4214 135.788 48.496 135.042 48.5706V46.5561C135.714 46.6308 136.31 46.7054 137.504 46.7054H140.339V37.3792H138.25C137.43 37.3792 136.758 37.4539 136.087 37.5285V35.6632C136.684 35.7378 137.28 35.8125 138.25 35.8125H140.339V31.1867C140.339 30.4406 140.265 29.9184 140.19 29.0977H142.279C142.13 29.9184 142.13 30.366 142.13 31.1867V35.8125H144.965C145.935 35.8125 146.532 35.8125 147.129 35.6632V37.5285C146.457 37.4539 145.786 37.3792 144.965 37.3792H142.13V46.7054Z" fill="#333333"/>
<path d="M98.9314 72.2967C100.125 70.506 100.722 69.4615 101.617 67.5217L103.333 68.1932C102.065 70.4314 101.617 71.1775 100.797 72.2967H102.587C103.632 72.2967 104.229 72.2967 104.975 72.222C104.9 72.7443 104.9 73.192 104.9 73.938V75.5794C104.9 76.1763 104.9 76.5494 104.975 77.1462H103.184V73.8634H88.0385V77.1462H86.2479C86.3225 76.4748 86.3971 76.1763 86.3971 75.5794V73.938C86.3971 73.192 86.3971 72.6697 86.3225 72.1474C87.0686 72.222 87.6655 72.222 88.71 72.222L98.9314 72.2967ZM100.871 77.6685C102.065 77.5939 102.811 77.5939 103.035 77.5939C102.96 77.8923 102.96 77.9669 102.96 78.7876C102.811 82.145 102.587 84.0849 102.14 85.4278C101.767 86.7708 100.946 87.1438 98.8568 87.1438C98.3345 87.1438 97.6631 87.1438 96.5439 86.9946C96.4693 86.2485 96.3947 85.7263 96.1709 85.204C97.1408 85.3532 98.1853 85.4278 98.9314 85.4278C100.125 85.4278 100.349 85.204 100.647 84.1595C100.871 83.1149 101.095 81.4735 101.17 79.1607H95.4994C94.9025 81.6228 93.9326 83.3388 92.2166 84.7563C91.0229 85.8009 89.8291 86.3977 87.5162 87.293C87.1432 86.547 86.9194 86.1739 86.3971 85.7263C88.5608 85.0548 90.2768 84.1595 91.4705 83.0403C92.5897 81.9958 93.2611 80.8021 93.7088 79.1607H90.2022C89.2323 79.1607 88.3369 79.2353 87.8147 79.3099V77.5193C88.2623 77.5939 89.1576 77.6685 90.2022 77.6685H93.9326C94.0072 76.8478 94.0818 76.2509 94.0818 75.5794C94.0818 75.2064 94.0818 74.9826 94.0072 74.7587H95.9471C95.8724 75.0572 95.8724 75.281 95.7978 76.0271C95.7232 76.6986 95.7232 77.0716 95.6486 77.6685H100.871ZM90.2022 71.9982C89.3815 70.2822 89.083 69.6853 87.9639 68.3424L89.5307 67.6709C90.6498 69.0885 90.8736 69.5361 91.8436 71.2521C91.769 71.2521 90.2022 71.9982 90.2022 71.9982ZM95.4248 71.5506C94.9025 70.2822 94.3803 69.3123 93.4103 67.8947L94.9771 67.2979C95.7978 68.417 96.4693 69.6107 97.0662 70.8045L95.4248 71.5506Z" fill="#333333"/>
<path d="M128.029 70.8043C127.507 70.7297 127.208 70.7297 126.164 70.7297C125.343 72.5203 124.821 73.4156 123.627 74.6093C124.97 75.43 126.387 75.9523 128.477 76.4746C128.103 77.0714 127.954 77.2952 127.73 78.1159C125.492 77.4445 123.925 76.6984 122.508 75.7285C121.239 76.6984 119.822 77.3699 117.434 78.2652C117.211 77.7429 116.987 77.3699 116.614 76.9968C116.166 78.1906 115.942 78.7128 115.42 79.6081C114.972 79.2351 114.823 79.0859 114.226 78.7874C114.823 77.8175 115.196 76.9968 115.569 75.8777H113.555L113.629 85.7261C113.629 86.9198 113.107 87.3674 111.615 87.3674C110.943 87.3674 110.421 87.3675 109.451 87.2182C109.451 86.696 109.377 86.2483 109.153 85.6514C110.123 85.8007 110.794 85.8753 111.466 85.8753C111.913 85.8753 112.063 85.7261 112.063 85.353V78.3398C111.018 80.8019 109.824 82.5179 108.258 84.0847C107.959 83.3386 107.81 83.0401 107.288 82.5179C109.302 80.8019 110.645 78.7874 111.69 75.8777H109.675C108.78 75.8777 108.258 75.8777 107.735 76.0269V74.3109C108.258 74.3855 108.78 74.4601 109.75 74.4601H112.585C111.54 73.1918 110.72 72.5203 109.302 71.4758L110.347 70.5058C111.391 71.3265 111.764 71.625 112.436 72.2218C113.48 71.3265 113.853 70.8043 114.674 69.6851H110.197C109.302 69.6851 108.78 69.6851 108.258 69.8344V68.1184C108.78 68.193 109.377 68.2676 110.347 68.2676H114.301C115.495 68.2676 115.644 68.2676 116.166 68.193L117.061 69.1629C116.912 69.3121 116.763 69.5359 116.39 69.9836C115.345 71.4011 114.525 72.3711 113.48 73.2664C113.704 73.4902 113.779 73.5648 114.077 73.9378L113.555 74.5347H115.047C115.793 74.5347 116.241 74.5347 116.688 74.4601L117.36 75.3554C117.285 75.5792 117.211 75.7285 117.061 76.1015C116.912 76.4746 116.912 76.6238 116.763 76.9968C118.777 76.3999 120.046 75.8031 121.389 74.9078C120.344 74.0125 119.747 73.1918 119.076 72.0726C118.479 72.8187 118.181 73.2664 117.136 74.2363C116.763 73.714 116.539 73.5648 115.942 73.1918C117.658 71.625 118.703 70.282 119.374 68.4914C119.598 67.9691 119.673 67.7453 119.822 67.1484L121.463 67.5215C121.389 67.6707 121.314 67.8945 121.165 68.2676C120.941 68.7898 120.866 69.0137 120.643 69.4613H125.865C126.91 69.4613 127.581 69.3867 128.103 69.3121V70.8043H128.029ZM125.418 79.3843C126.313 79.3843 126.835 79.3843 127.208 79.3097C127.134 79.6081 127.134 80.2796 126.984 81.3987C126.761 84.0847 126.387 85.7261 125.94 86.3975C125.567 86.9198 125.045 87.1436 124 87.1436C123.254 87.1436 122.806 87.069 121.463 86.9198C121.389 86.1737 121.389 85.9499 121.09 85.2038C122.284 85.5022 123.105 85.5768 123.776 85.5768C124.522 85.5768 124.746 85.353 124.97 84.2339C125.119 83.4878 125.194 82.8163 125.343 80.8765H121.613C120.717 84.0101 118.852 85.8753 115.42 87.4421C115.122 86.8452 114.823 86.4721 114.375 86.0245C116.241 85.2784 117.211 84.7561 118.181 83.7862C119.001 83.0401 119.523 82.1448 119.971 80.8765H117.882C116.912 80.8765 116.39 80.8765 115.942 80.9511V79.3097C116.465 79.3843 116.912 79.3843 117.957 79.3843H120.419C120.568 78.6382 120.643 78.0413 120.643 77.4445C120.643 77.2953 120.643 77.2206 120.568 76.9968L122.433 77.0714C122.359 77.4445 122.359 77.5191 122.209 78.489C122.135 78.7874 122.135 79.0113 122.06 79.3843H125.418ZM120.046 70.7297C120.643 71.8488 121.389 72.8187 122.508 73.714C123.478 72.8187 123.925 72.1472 124.522 70.7297H120.046Z" fill="#333333"/>
<path d="M133.625 70.1328C132.953 71.0281 132.356 71.5504 131.536 72.2965C131.088 71.6996 131.013 71.6996 130.267 71.1773C131.983 69.9836 133.102 68.566 133.774 66.7754L135.49 67.223C135.117 67.8945 134.968 68.1184 134.669 68.6406H138.25C139.22 68.6406 139.668 68.6406 140.19 68.4914V70.0582C139.668 69.9836 139.369 69.9836 138.549 69.9836H136.907C137.28 70.7297 137.504 71.1027 137.803 71.7742L136.31 72.3711C136.012 71.4011 135.788 70.8789 135.266 69.9836H133.625V70.1328ZM147.427 72.8933C148.546 72.8933 148.994 72.8933 149.74 72.8187C149.665 73.2664 149.665 73.5648 149.665 74.2363V75.5046C149.665 76.1761 149.665 76.5492 149.74 76.9968H148.024V74.3109H132.655V76.9968H130.939C131.013 76.5492 131.013 76.1761 131.013 75.5792V74.3109C131.013 73.714 131.013 73.341 130.939 72.8933C131.61 72.9679 132.058 72.9679 133.177 72.9679H139.146V72.6695C139.146 72.1472 139.146 71.8488 139.071 71.4758H140.862C140.862 71.5504 140.862 71.625 140.862 71.625C140.787 71.9234 140.787 72.1472 140.787 72.6695V72.9679L147.427 72.8933ZM133.848 87.5167C133.923 86.7706 133.998 86.0991 133.998 85.2038V77.146C133.998 76.3999 133.998 76.0269 133.923 75.5046C134.594 75.5792 135.191 75.6539 136.087 75.6539H144.368C145.264 75.6539 145.86 75.6538 146.532 75.5046C146.457 75.9523 146.457 76.3999 146.457 77.146V78.5636C146.457 79.3843 146.457 79.7573 146.532 80.2796C145.935 80.205 145.338 80.205 144.443 80.205H135.714V81.6226H145.413C146.308 81.6226 146.905 81.6226 147.427 81.548C147.353 82.0702 147.353 82.7417 147.353 83.4878V85.4276C147.353 86.2483 147.353 86.8452 147.427 87.5167H145.711V86.4721H135.714V87.5167H133.848ZM135.639 78.7874H144.816V76.9222H135.639V78.7874ZM135.639 85.0546H145.637V82.9655H135.639V85.0546ZM142.354 70.2074C141.906 70.8043 141.682 71.1027 141.235 71.5504C140.936 71.2519 140.489 70.9535 139.966 70.6551C141.085 69.7597 141.906 68.4914 142.354 66.9992L143.995 67.2977C143.771 67.8945 143.622 68.1183 143.249 68.7898H148.323C149.367 68.7898 149.74 68.7898 150.337 68.6406V70.282C149.74 70.2074 149.292 70.1328 148.323 70.1328H145.637C146.084 70.8789 146.308 71.2519 146.681 71.9234L145.114 72.5203C144.741 71.5504 144.517 71.0281 143.995 70.1328H142.354V70.2074Z" fill="#333333"/>
<path d="M154.291 69.8346C153.396 69.8346 153.172 69.8346 152.501 69.9838V68.1932C153.023 68.2678 153.545 68.3424 154.44 68.3424H157.798C158.619 68.3424 159.141 68.3424 159.663 68.1932V69.9092C159.066 69.8346 158.619 69.8346 157.947 69.8346H156.977V74.8334H157.798C158.395 74.8334 158.768 74.8334 159.29 74.6841V76.3255C158.842 76.2509 158.395 76.2509 157.798 76.2509H156.977V81.5482C157.872 81.1751 158.32 80.9513 159.514 80.3544L159.588 81.9958C157.574 82.9657 156.753 83.3388 153.769 84.5325C153.247 84.7563 153.172 84.7563 152.874 84.9056L152.351 83.0403C153.172 82.8911 153.844 82.6673 155.336 82.0704V76.1017H154.291C153.694 76.1017 153.247 76.1017 152.799 76.2509V74.6095C153.321 74.6841 153.694 74.7587 154.366 74.7587H155.41V69.76L154.291 69.8346ZM165.184 82.145H162.349C161.23 82.145 160.708 82.145 160.185 82.2943V80.5782C160.708 80.6529 161.23 80.7275 162.349 80.7275H165.184V78.34H162.946C161.528 78.34 160.782 78.34 160.185 78.4146C160.26 78.0415 160.26 77.2208 160.26 75.8033V70.9537C160.26 69.5361 160.26 68.79 160.185 68.0439C160.931 68.1186 161.603 68.1932 163.095 68.1932H169.064C170.705 68.1932 171.302 68.1932 171.899 68.0439C171.824 68.7154 171.824 69.6107 171.824 70.9537V75.5794C171.824 77.0716 171.824 77.8923 171.899 78.4892C171.078 78.4146 170.556 78.4146 169.288 78.4146H166.751V80.8021H169.959C171.078 80.8021 171.526 80.8021 172.197 80.6529V82.3689C171.6 82.2942 171.078 82.2196 169.959 82.2196H166.751V85.204H170.78C171.899 85.204 172.421 85.204 173.018 85.0548V86.7708C172.347 86.6962 171.824 86.6216 170.705 86.6216H160.857C159.738 86.6216 159.215 86.6216 158.544 86.7708V85.0548C159.141 85.1294 159.588 85.204 160.708 85.204H165.184V82.145ZM161.901 69.6107V72.5205H165.259V69.6107H161.901ZM161.901 74.0127V76.8478H165.259V74.0127H161.901ZM166.826 72.5205H170.332V69.6107H166.826V72.5205ZM166.826 76.8478H170.332V74.0127H166.826V76.8478Z" fill="#333333"/>
<path d="M387.966 11.9375H594.633C600.826 11.9375 605.824 16.9363 605.824 23.1288V93.2612C605.824 99.4538 600.826 104.453 594.633 104.453H387.966C381.774 104.453 376.775 99.4538 376.775 93.2612V23.1288C376.775 16.9363 381.774 11.9375 387.966 11.9375Z" fill="white"/>
<path d="M541.138 52.674C540.318 52.674 538.303 52.674 537.035 52.5994V48.9436C538.527 49.0928 539.721 49.1674 540.84 49.1674C541.81 49.1674 542.407 49.0928 542.407 48.1229V47.0037H530.992V44.094L542.481 44.1686V42.5272L528.977 42.751V39.5429L542.481 39.6921V38.0507L531.066 38.1253V35.2901L542.481 35.3648V33.798L531.141 33.8726V27.4562L542.481 27.5308V25.964L529.201 26.1132V22.6066H542.481C542.481 22.6066 542.407 21.3383 542.332 20.8906H547.032C546.958 21.3383 546.883 22.6066 546.883 22.6066H560.387V26.1132L546.883 25.964V27.6054L558.373 27.5308V33.9472L546.883 33.8726V35.4394L558.373 35.3648L558.298 39.4682H560.686V42.9749L558.298 43.0495L558.448 47.0784H546.883V48.4959C546.883 52.0771 546.137 52.5994 541.138 52.674ZM546.958 44.2432H553.897V42.6018H546.958V44.2432ZM546.958 39.6921H553.897V38.0507H546.958V39.6921ZM546.958 31.5597H553.15V29.9183H546.958V31.5597ZM536.513 31.5597H542.556V29.9183H536.513V31.5597Z" fill="#FC6D26"/>
<path d="M525.023 52.6742C521.964 50.9582 519.203 48.6453 516.965 45.9594C514.876 43.4973 513.384 40.6622 512.339 37.6778L512.041 36.8571L511.743 37.6778C510.25 42.0798 508.833 44.6165 506.147 47.3024C504.058 49.466 501.67 51.2567 499.059 52.6742L495.925 48.1977C500.775 45.7356 503.685 43.2735 505.774 39.6177C508.012 35.8126 509.057 30.7392 509.057 24.4721C509.057 23.726 509.057 22.9053 508.907 22.1592H514.503C514.428 22.9799 514.354 23.8006 514.354 24.6213C514.279 28.0533 514.801 31.4107 515.771 34.6935C517.114 38.4239 519.353 41.6321 522.337 44.2434C524.053 45.7356 525.993 47.0039 528.082 47.9739L525.023 52.6742Z" fill="#FC6D26"/>
<path d="M485.256 50.0624C482.272 50.0624 480.034 49.2417 478.467 47.7495C476.9 46.2573 476.154 43.8698 476.154 40.8855C476.154 37.9011 476.975 35.3644 478.542 33.6484C480.108 31.9324 482.421 31.0371 485.256 31.0371C487.942 31.0371 490.106 31.8578 491.598 33.35C493.09 34.8422 493.836 37.155 493.836 39.9902V41.557H481.377V42.0792C481.377 43.1984 481.75 44.3175 482.421 45.2874C483.093 46.0335 484.137 46.4065 485.107 46.4065C487.196 46.4065 488.091 45.4366 488.465 44.3921H493.538C493.239 46.0335 492.344 47.4511 491.001 48.4956C489.434 49.6147 487.345 50.137 485.256 50.0624ZM485.331 34.6929C483.093 34.6929 481.75 35.9613 481.451 38.3488L481.377 38.5726H488.912V38.4234C488.912 37.4535 488.614 36.409 487.942 35.6629C487.271 34.9168 486.301 34.6183 485.331 34.6929Z" fill="#FC6D26"/>
<path d="M467.425 49.7644V38.6477C467.425 36.7825 465.933 35.2903 464.067 35.2903C462.202 35.2903 460.71 36.7825 460.71 38.6477V49.7644H455.413V31.0376H460.71V33.2759L461.083 32.9028C463.545 30.1423 467.798 29.9185 470.558 32.4552C471.827 33.5743 472.573 35.1411 472.722 36.8571V37.454V49.8391L467.425 49.7644Z" fill="#FC6D26"/>
<path d="M436.089 52.6736C428.031 52.6736 421.54 46.1827 421.54 38.1249V35.5136C421.54 27.4558 428.031 20.9648 436.089 20.9648H436.611C444.669 20.9648 451.16 27.4558 451.16 35.5136V38.1249C451.16 46.1827 444.669 52.6736 436.611 52.6736H436.089ZM436.089 27.0082C431.463 27.0082 427.658 30.7386 427.658 35.439V38.0503C427.658 42.676 431.463 46.4811 436.089 46.4811H436.611C441.237 46.4811 445.042 42.676 445.042 38.0503V35.439C445.042 30.8132 441.237 27.0082 436.611 27.0082H436.089Z" fill="#FC6D26"/>
<path d="M465.485 64.0889H516.816C519.949 64.0889 522.486 66.6256 522.486 69.7591V90.1274C522.486 93.261 519.949 95.7976 516.816 95.7976H465.485C462.351 95.7976 459.815 93.261 459.815 90.1274V69.8338C459.815 66.6256 462.351 64.0889 465.485 64.0889Z" fill="#FC6D26"/>
<path d="M486.823 76.1011H484.958C484.883 79.0109 484.51 81.846 483.69 84.6811C482.943 87.4417 481.526 89.9038 479.586 91.9928C479.138 91.1721 478.542 90.426 477.721 89.8292C475.035 90.3514 472.125 90.7245 468.245 91.1721C467.574 91.2467 467.425 91.2467 466.903 91.3213L466.455 88.5608C466.679 88.5608 466.903 88.5608 467.126 88.5608C468.022 88.5608 469.365 88.4862 471.827 88.2624V86.6956H469.663C468.917 86.6956 468.171 86.6956 467.425 86.8448V84.3827C468.171 84.5319 468.917 84.5319 469.663 84.5319H471.827V83.3382H469.215C468.469 83.3382 467.723 83.3382 466.903 83.4874V81.0253C467.649 81.1745 468.469 81.1745 469.215 81.1745H471.827V80.0554H469.066C468.171 80.0554 467.947 80.0554 467.052 80.13C467.126 79.6077 467.126 79.0855 467.126 78.5632V75.8773C467.126 75.355 467.126 74.8328 467.052 74.3105C467.723 74.3851 468.395 74.3851 469.066 74.3851H477.049C477.721 74.3851 478.392 74.3851 479.064 74.3105C478.989 74.9074 478.989 75.5043 478.989 76.1011V78.414C478.989 79.3093 478.989 79.9062 479.064 80.0554C478.392 79.9808 477.795 79.9808 477.124 79.9808H474.363V81.0999H476.751C477.572 81.0999 478.318 81.0999 479.138 81.0253V83.4128C478.318 83.3382 477.572 83.2636 476.751 83.3382H474.363V84.5319H476.303C477.049 84.5319 477.87 84.5319 478.616 84.4573V86.8448C477.87 86.7702 477.049 86.6956 476.303 86.7702H474.363V88.0385C476.229 87.8147 477.721 87.6655 478.765 87.5163V88.4862C480.854 85.6511 481.899 81.9206 482.272 76.1011H481.75C481.004 76.1011 480.332 76.1011 479.586 76.1757V73.4152C480.332 73.5644 481.004 73.5644 481.75 73.5644H482.347C482.347 72.2215 482.347 71.9976 482.347 70.3562C482.347 69.6848 482.347 69.0133 482.197 68.3418H485.182C485.107 68.9387 485.032 70.6547 485.032 73.5644H487.122C487.942 73.5644 488.763 73.5644 489.584 73.4898C489.509 73.9375 489.434 75.8773 489.36 79.3839C489.211 83.7858 488.838 87.7401 488.465 89.3069C488.017 91.0229 487.196 91.6198 485.032 91.6198C484.809 91.6198 484.137 91.6198 482.943 91.5452C482.869 90.5752 482.645 89.6053 482.272 88.71C483.018 88.8592 483.839 89.0085 484.585 89.0085C485.629 89.0085 485.853 88.71 486.077 86.8448C486.599 83.2636 486.823 79.6824 486.823 76.1011ZM471.827 76.4742H469.588V78.041H471.827V76.4742ZM474.289 76.4742V78.041H476.676V76.4742H474.289ZM469.365 70.1324V69.834C469.365 69.3117 469.365 68.8641 469.29 68.3418H472.051C471.976 68.8641 471.901 69.3117 471.976 69.834V70.1324H474.289V69.834C474.289 69.3117 474.289 68.8641 474.214 68.3418H476.975C476.9 68.7895 476.9 69.3117 476.9 69.7594V70.1324H477.646C478.392 70.1324 479.064 70.0578 479.81 69.9832V72.5199C479.064 72.4453 478.392 72.3707 477.646 72.4453H476.9V72.6691C476.9 73.1168 476.9 73.4898 476.975 73.9375H474.214C474.289 73.4898 474.289 73.1168 474.289 72.6691V72.5199H471.976V72.6691C471.976 73.1168 471.976 73.4898 472.051 73.9375H469.29C469.365 73.4898 469.365 73.1168 469.365 72.6691V72.5199H468.469C467.798 72.5199 467.126 72.5199 466.455 72.5945V70.0578C467.126 70.207 467.872 70.207 468.544 70.207L469.365 70.1324Z" fill="white"/>
<path d="M493.314 75.0566L492.866 72.2215C493.762 72.2961 495.254 72.3707 496.671 72.3707H497.045C498.238 71.0277 499.283 69.5355 500.029 67.9688L503.312 68.6402C503.088 68.8641 502.864 69.2371 502.566 69.6848C501.819 70.6547 501.073 71.6992 500.402 72.4453C503.909 72.3707 506.52 72.2961 508.236 72.1468C507.415 71.4754 506.594 70.8785 505.774 70.3562L508.087 68.9387C510.549 70.5801 512.862 72.5199 514.951 74.6836L512.638 76.5488C511.668 75.5042 511.369 75.1312 510.623 74.3851C506.072 74.7582 500.402 75.0566 495.478 75.1312C494.732 74.982 494.06 74.982 493.314 75.0566ZM494.359 91.2467L492.046 89.3815C492.792 88.71 493.389 87.8893 493.911 87.0686C494.508 86.0987 494.955 84.9796 495.329 83.8604L497.791 84.905C497.418 86.1733 496.895 87.4417 496.224 88.5608C495.702 89.5307 495.105 90.426 494.359 91.2467ZM498.387 84.0097H501.297C501.223 84.5319 501.148 84.9796 501.148 85.5018V88.4116C501.148 89.0085 501.521 89.0831 503.685 89.0831C506.744 89.0831 507.266 89.0085 507.564 88.6354C507.788 88.2624 507.863 87.8147 507.937 86.3225C508.758 86.7702 509.653 86.994 510.549 87.0686C510.399 89.0085 510.25 89.5307 509.952 90.2022C509.355 91.3959 508.46 91.6198 503.983 91.6198C499.134 91.6198 498.387 91.3213 498.387 89.5307V85.8003C498.537 85.2034 498.537 84.6065 498.387 84.0097ZM495.403 81.0253V78.1902C495.403 77.5187 495.403 76.7726 495.329 76.1011C496.149 76.1757 496.97 76.2503 497.791 76.1757H509.728C510.549 76.1757 511.369 76.1757 512.19 76.1011C512.116 76.7726 512.041 77.5187 512.116 78.1902V81.0253C512.116 81.7714 512.116 82.4429 512.19 83.189C511.444 83.1144 510.623 83.0398 509.877 83.1144H497.641C496.895 83.1144 496.149 83.1144 495.329 83.189C495.403 82.4429 495.403 81.7714 495.403 81.0253ZM509.355 78.4886H498.164V80.8015H509.355V78.4886ZM507.415 85.9495L505.252 87.6655C504.356 86.4718 503.237 85.5018 501.969 84.7558L504.058 83.2636C505.326 84.0097 506.445 84.9796 507.415 85.9495ZM515.921 89.3815L513.384 91.0229C512.339 88.7846 510.922 86.6956 509.355 84.7558L511.742 83.562C513.235 85.3526 514.652 87.2925 515.921 89.3815Z" fill="white"/>
</svg>
