<svg width="87" height="21" viewBox="0 0 87 21" fill="none" xmlns="http://www.w3.org/2000/svg">
<path d="M12.7171 5.53589C13.914 3.74053 14.5125 2.69324 15.4101 0.748267L17.1307 1.42153C15.859 3.66572 15.4102 4.41379 14.5873 5.53589H16.3826C17.4299 5.53589 18.0284 5.53589 18.7764 5.46108C18.7016 5.98473 18.7016 6.43356 18.7016 7.18163V8.82738C18.7016 9.42583 18.7016 9.79986 18.7764 10.3983H16.9811V7.10682H1.79536V10.3983H0C0.0748065 9.72505 0.149617 9.42583 0.149617 8.82738V7.18163C0.149617 6.43356 0.149612 5.90992 0.0748054 5.38627C0.822871 5.46108 1.42133 5.46108 2.46862 5.46108L12.7171 5.53589ZM14.6621 10.922C15.859 10.8472 16.6071 10.8472 16.8315 10.8472C16.7567 11.1464 16.7567 11.2212 16.7567 12.0441C16.6071 15.4104 16.3826 17.3553 15.9338 18.7018C15.5598 20.0484 14.7369 20.4224 12.6423 20.4224C12.1187 20.4224 11.4454 20.4224 10.3233 20.2728C10.2485 19.5247 10.1737 19.0011 9.94927 18.4774C10.9218 18.627 11.9691 18.7018 12.7171 18.7018C13.914 18.7018 14.1384 18.4774 14.4377 17.4301C14.6621 16.3828 14.8865 14.7371 14.9613 12.4181H9.27601C8.67756 14.8867 7.70507 16.6073 5.98452 18.0286C4.78762 19.0759 3.59072 19.6743 1.27171 20.572C0.897682 19.8239 0.673262 19.4499 0.149617 19.0011C2.31901 18.3278 4.03955 17.4301 5.23646 16.308C6.35856 15.2607 7.03182 14.0638 7.48065 12.4181H3.96475C2.99226 12.4181 2.09458 12.4929 1.57094 12.5677V10.7723C2.01978 10.8472 2.91746 10.922 3.96475 10.922H7.70508C7.77988 10.0991 7.85469 9.50064 7.85469 8.82738C7.85469 8.45334 7.85469 8.22892 7.77988 8.0045H9.72486C9.65005 8.30373 9.65004 8.52815 9.57523 9.27622C9.50043 9.94947 9.50043 10.3235 9.42562 10.922H14.6621ZM3.96475 5.23666C3.14188 3.51611 2.84265 2.91766 1.72055 1.57114L3.29149 0.897878C4.41359 2.3192 4.63801 2.76804 5.61049 4.48859C5.53568 4.48859 3.96475 5.23666 3.96475 5.23666ZM9.20121 4.78782C8.67756 3.51611 8.15391 2.54362 7.18143 1.1223L8.75237 0.523845C9.57524 1.64594 10.2485 2.84285 10.847 4.03976L9.20121 4.78782Z" fill="#333333"/>
<path d="M41.8917 4.03956C41.368 3.96475 41.0688 3.96475 40.0215 3.96475C39.1986 5.76011 38.675 6.65779 37.4781 7.85469C38.8246 8.67756 40.2459 9.20121 42.3405 9.72485C41.9665 10.3233 41.8169 10.5477 41.5924 11.3706C39.3482 10.6973 37.7773 9.94927 36.356 8.97679C35.0843 9.94927 33.6629 10.6225 31.2691 11.5202C31.0447 10.9966 30.8203 10.6225 30.4463 10.2485C29.9974 11.4454 29.773 11.969 29.2494 12.8667C28.8005 12.4927 28.6509 12.3431 28.0525 12.0439C28.6509 11.0714 29.0249 10.2485 29.399 9.1264H27.3792L27.454 19.0009C27.454 20.1978 26.9304 20.6466 25.4342 20.6466C24.761 20.6466 24.2373 20.6466 23.2648 20.497C23.2648 19.9734 23.19 19.5245 22.9656 18.9261C23.9381 19.0757 24.6114 19.1505 25.2846 19.1505C25.7335 19.1505 25.8831 19.0009 25.8831 18.6268V11.595C24.8358 14.0636 23.6389 15.7842 22.0679 17.3551C21.7687 16.6071 21.6191 16.3078 21.0955 15.7842C23.1152 14.0636 24.4617 12.0439 25.509 9.1264H23.4893C22.5916 9.1264 22.0679 9.1264 21.5443 9.27602V7.55546C22.0679 7.63027 22.5916 7.70508 23.5641 7.70508H26.4067C25.3594 6.43337 24.5366 5.76011 23.1152 4.71282L24.1625 3.74033C25.2098 4.5632 25.5838 4.86243 26.2571 5.46088C27.3044 4.5632 27.6784 4.03956 28.5013 2.91746H24.0129C23.1152 2.91746 22.5916 2.91746 22.0679 3.06707V1.34652C22.5916 1.42133 23.19 1.49613 24.1625 1.49613H28.1273C29.3242 1.49613 29.4738 1.49613 29.9974 1.42133L30.8951 2.39381C30.7455 2.54342 30.5959 2.76785 30.2219 3.21669C29.1746 4.63801 28.3517 5.61049 27.3044 6.50817C27.5288 6.73259 27.6036 6.8074 27.9028 7.18143L27.3792 7.77988H28.8753C29.6234 7.77988 30.0722 7.77989 30.5211 7.70508L31.1943 8.60276C31.1195 8.82717 31.0447 8.97679 30.8951 9.35082C30.7455 9.72485 30.7455 9.87446 30.5959 10.2485C32.6157 9.65004 33.8874 9.0516 35.2339 8.15392C34.1866 7.25624 33.5881 6.43336 32.9149 5.31127C32.3164 6.05933 32.0172 6.50817 30.9699 7.48066C30.5959 6.95701 30.3715 6.8074 29.773 6.43336C31.4936 4.86243 32.5409 3.51591 33.2141 1.72056C33.4385 1.19691 33.5133 0.972487 33.663 0.374035L35.3087 0.748068C35.2339 0.897681 35.1591 1.1221 35.0095 1.49613C34.785 2.01978 34.7102 2.2442 34.4858 2.69304H39.7223C40.7696 2.69304 41.4428 2.61823 41.9665 2.54343V4.03956H41.8917ZM39.2734 12.6423C40.1711 12.6423 40.6948 12.6423 41.0688 12.5675C40.994 12.8667 40.994 13.54 40.8444 14.6621C40.62 17.3551 40.2459 19.0009 39.7971 19.6741C39.4231 20.1978 38.8994 20.4222 37.8521 20.4222C37.1041 20.4222 36.6552 20.3474 35.3087 20.1978C35.2339 19.4497 35.2339 19.2253 34.9347 18.4772C36.1316 18.7764 36.9544 18.8512 37.6277 18.8512C38.3758 18.8512 38.6002 18.6268 38.8246 17.5047C38.9742 16.7567 39.049 16.0834 39.1986 14.1384H35.4583C34.5606 17.2803 32.6905 19.1505 29.2494 20.7214C28.9501 20.123 28.6509 19.7489 28.2021 19.3001C30.0722 18.552 31.0447 18.0284 32.0172 17.0559C32.8401 16.3078 33.3637 15.4102 33.8126 14.1384H31.718C30.7455 14.1384 30.2218 14.1384 29.773 14.2132V12.5675C30.2967 12.6423 30.7455 12.6423 31.7928 12.6423H34.2614C34.411 11.8942 34.4858 11.2958 34.4858 10.6973C34.4858 10.5477 34.4858 10.4729 34.411 10.2485L36.2812 10.3233C36.2064 10.6973 36.2064 10.7721 36.0568 11.7446C35.982 12.0439 35.982 12.2683 35.9072 12.6423H39.2734ZM33.8874 3.96475C34.4858 5.08685 35.2339 6.05933 36.356 6.95701C37.3285 6.05933 37.7773 5.38608 38.3758 3.96475H33.8874Z" fill="#333333"/>
<path d="M47.5022 3.36629C46.8289 4.26397 46.2304 4.78762 45.4076 5.53569C44.9587 4.93723 44.8839 4.93723 44.1359 4.41359C45.8564 3.21668 46.9785 1.79536 47.6518 0L49.3723 0.448838C48.9983 1.1221 48.8487 1.34652 48.5494 1.87016H52.1402C53.1126 1.87016 53.5615 1.87017 54.0851 1.72055V3.29149C53.5615 3.21668 53.2623 3.21668 52.4394 3.21668H50.7936C51.1677 3.96475 51.3921 4.33878 51.6913 5.01204L50.1952 5.61049C49.896 4.63801 49.6715 4.11436 49.1479 3.21668H47.5022V3.36629ZM61.3414 6.13413C62.4635 6.13413 62.9123 6.13414 63.6604 6.05933C63.5856 6.50817 63.5856 6.8074 63.5856 7.48065V8.75236C63.5856 9.42562 63.5856 9.79966 63.6604 10.2485H61.9398V7.55546H46.5297V10.2485H44.8091C44.8839 9.79966 44.8839 9.42563 44.8839 8.82717V7.55546C44.8839 6.95701 44.8839 6.58297 44.8091 6.13413C45.4824 6.20894 45.9312 6.20895 47.0533 6.20895H53.0378V5.90972C53.0378 5.38607 53.0378 5.08685 52.963 4.71281H54.7584C54.7584 4.78762 54.7584 4.86243 54.7584 4.86243C54.6836 5.16165 54.6836 5.38607 54.6836 5.90972V6.20895L61.3414 6.13413ZM47.7266 20.7962C47.8014 20.0482 47.8762 19.3749 47.8762 18.4772V10.3981C47.8762 9.65005 47.8762 9.27601 47.8014 8.75236C48.4746 8.82717 49.0731 8.90198 49.9708 8.90198H58.2743C59.172 8.90198 59.7704 8.90198 60.4437 8.75236C60.3689 9.2012 60.3689 9.65005 60.3689 10.3981V11.8194C60.3689 12.6423 60.3689 13.0163 60.4437 13.54C59.8452 13.4652 59.2468 13.4652 58.3491 13.4652H49.5967V14.8865H59.3216C60.2193 14.8865 60.8177 14.8865 61.3414 14.8117C61.2666 15.3353 61.2666 16.0086 61.2666 16.7567V18.7016C61.2666 19.5245 61.2666 20.123 61.3414 20.7962H59.6208V19.7489H49.5967V20.7962H47.7266ZM49.5219 12.0439H58.7231V10.1737H49.5219V12.0439ZM49.5219 18.3276H59.546V16.233H49.5219V18.3276ZM56.2545 3.4411C55.8057 4.03955 55.5813 4.33878 55.1324 4.78762C54.8332 4.48839 54.3844 4.18916 53.8607 3.88994C54.9828 2.99226 55.8057 1.72055 56.2545 0.224422L57.9003 0.523644C57.6758 1.1221 57.5262 1.34652 57.1522 2.01977H62.239C63.2863 2.01977 63.6604 2.01978 64.2588 1.87016V3.51591C63.6604 3.4411 63.2115 3.36629 62.239 3.36629H59.546C59.9948 4.11436 60.2193 4.48839 60.5933 5.16165L59.0224 5.7601C58.6483 4.78762 58.4239 4.26397 57.9003 3.36629H56.2545V3.4411Z" fill="#333333"/>
<path d="M68.2236 3.06727C67.3259 3.06727 67.1015 3.06728 66.4282 3.21689V1.42153C66.9519 1.49634 67.4755 1.57114 68.3732 1.57114H71.7395C72.5623 1.57114 73.086 1.57114 73.6096 1.42153V3.14208C73.0112 3.06727 72.5623 3.06727 71.8891 3.06727H70.9166V8.07932H71.7395C72.3379 8.07932 72.712 8.07931 73.2356 7.9297V9.57545C72.7868 9.50064 72.3379 9.50064 71.7395 9.50064H70.9166V14.8119C71.8143 14.4379 72.2631 14.2134 73.46 13.615L73.5348 15.2607C71.5151 16.2332 70.6922 16.6073 67.6999 17.8042C67.1763 18.0286 67.1015 18.0286 66.8022 18.1782L66.2786 16.308C67.1015 16.1584 67.7747 15.934 69.2709 15.3355V9.35102H68.2236C67.6251 9.35102 67.1763 9.35102 66.7274 9.50064V7.85489C67.2511 7.9297 67.6251 8.0045 68.2984 8.0045H69.3457V2.99247L68.2236 3.06727ZM79.1453 15.4104H76.3027C75.1806 15.4104 74.6569 15.4104 74.1333 15.56V13.8394C74.6569 13.9142 75.1806 13.989 76.3027 13.989H79.1453V11.5952H76.9011C75.4798 11.5952 74.7317 11.5952 74.1333 11.67C74.2081 11.296 74.2081 10.4731 74.2081 9.0518V4.18937C74.2081 2.76805 74.2081 2.01998 74.1333 1.27192C74.8813 1.34672 75.5546 1.42153 77.0507 1.42153H83.0353C84.681 1.42153 85.2795 1.42153 85.8779 1.27192C85.8031 1.94517 85.8031 2.84285 85.8031 4.18937V8.82738C85.8031 10.3235 85.8031 11.1464 85.8779 11.7448C85.055 11.67 84.5314 11.67 83.2597 11.67H80.7163V14.0638H83.9329C85.055 14.0638 85.5039 14.0638 86.1771 13.9142V15.6348C85.5787 15.56 85.055 15.4852 83.9329 15.4852H80.7163V18.4774H84.7558C85.8779 18.4774 86.4016 18.4774 87 18.3278V20.0484C86.3267 19.9736 85.8031 19.8987 84.681 19.8987H74.8065C73.6845 19.8987 73.1608 19.8987 72.4875 20.0484V18.3278C73.086 18.4026 73.5348 18.4774 74.6569 18.4774H79.1453V15.4104ZM75.8538 2.84286V5.76031H79.2201V2.84286H75.8538ZM75.8538 7.25644V10.0991H79.2201V7.25644H75.8538ZM80.7911 5.76031H84.307V2.84286H80.7911V5.76031ZM80.7911 10.0991H84.307V7.25644H80.7911V10.0991Z" fill="#333333"/>
</svg>
