<svg width="38" height="21" viewBox="0 0 38 21" fill="none" xmlns="http://www.w3.org/2000/svg">
<path d="M0.153223 4.13691C0.153223 3.06433 0.0766129 2.45142 0 1.37884C0.766129 1.45545 1.45565 1.45546 2.60485 1.45546H6.58872C9.11694 1.45546 11.1089 2.14498 12.4879 3.52402C14.0968 5.05627 14.8629 7.35465 14.8629 10.1893C14.8629 13.024 14.0202 15.5522 12.3347 17.1611C10.9557 18.5401 9.04033 19.2297 6.58872 19.2297H2.60485C1.37904 19.2297 0.842742 19.2297 0 19.3063C0.153226 18.3869 0.153223 17.6974 0.153223 16.4716V4.13691ZM6.5121 17.2377C8.35081 17.2377 9.72984 16.7014 10.8024 15.6288C12.0282 14.403 12.6411 12.4877 12.6411 10.1893C12.6411 7.89094 12.0282 6.12885 10.879 4.90304C9.88306 3.83046 8.50404 3.37078 6.58872 3.37078H2.29839V17.2377H6.5121Z" fill="#333333"/>
<path d="M22.5242 18.6935C22.5242 19.6895 22.6008 20.379 22.6008 20.9919H20.6089C20.6855 20.3024 20.7621 19.6895 20.7621 18.6935V11.9516C19.6895 13.0242 19.0766 13.4839 17.7742 14.4798C17.5444 13.8669 17.2379 13.4073 16.8548 12.871C18.4637 11.875 19.6895 10.879 20.9919 9.5C22.1411 8.27419 22.8307 7.20162 23.6734 5.51614H19.5363C18.7702 5.51614 18.3105 5.51612 17.621 5.59273V3.75403C18.3105 3.83064 18.6936 3.83065 19.4597 3.83065H20.7621V1.76209C20.7621 1.14918 20.6855 0.459677 20.6089 0H22.6008C22.5242 0.459677 22.4476 1.07258 22.4476 1.83871V3.90726H23.6734C24.3629 3.90726 24.746 3.90726 24.9758 3.83065L25.8185 4.75001C25.6653 4.97985 25.5121 5.28629 25.2823 5.74597C24.5161 7.27823 23.9032 8.2742 22.8306 9.65323C24.0565 11.0323 24.9758 11.7984 26.5081 12.7177C26.125 13.254 25.8952 13.6371 25.5887 14.25C24.2863 13.3307 23.3669 12.5645 22.4476 11.4153V18.6935H22.5242ZM32.1008 18.0807H35.4718C36.6976 18.0807 37.3871 18.004 38 17.9274V19.996C37.2339 19.9194 36.4677 19.8427 35.4718 19.8427H27.3508C26.3548 19.8427 25.5887 19.9194 24.8226 19.996V17.9274C25.5121 18.004 26.125 18.0807 27.3508 18.0807H30.2621V8.50404H28.1169C27.2742 8.50404 26.5847 8.58066 25.8952 8.58066V6.66533C26.5081 6.74195 27.121 6.81854 28.1169 6.81854H30.2621V2.14515C30.2621 1.37902 30.1855 0.842742 30.1089 0H32.254C32.1008 0.842742 32.1008 1.30241 32.1008 2.14515V6.81854H35.0121C36.0081 6.81854 36.621 6.81856 37.2339 6.66533V8.58066C36.5444 8.50404 35.8548 8.50404 35.0121 8.50404H32.1008V18.0807Z" fill="#333333"/>
</svg>
