<svg width="71" height="71" viewBox="0 0 71 71" fill="none" xmlns="http://www.w3.org/2000/svg">
<path d="M0 70.6251L0.29989 56.83C0.29989 56.6051 0.449837 56.4551 0.674758 56.4551C0.824705 56.4551 0.899674 56.5301 0.974648 56.6051L3.89861 61.8532C4.12353 61.3284 4.42344 60.8036 4.79831 60.4287L61.6283 3.59874L56.68 0.899681C56.5301 0.824707 56.4551 0.599793 56.5301 0.449846C56.6051 0.374873 56.68 0.299901 56.83 0.299901L70.6251 0C70.85 0 71 0.149947 71 0.374868L70.7001 14.17C70.7001 14.3949 70.5501 14.5449 70.3252 14.5449C70.1753 14.5449 70.1003 14.4699 70.0253 14.3949L67.3263 9.44668L10.4963 66.2767C10.1214 66.7265 9.59662 67.0264 8.99683 67.1763L14.245 70.1003C14.3949 70.1753 14.4699 70.4002 14.3949 70.5502C14.3199 70.6251 14.245 70.7001 14.095 70.7001L0.29989 71C0.149943 70.925 0 70.7751 0 70.6251Z" fill="#636972"/>
</svg>
