<svg width="51" height="20" viewBox="0 0 51 20" fill="none" xmlns="http://www.w3.org/2000/svg">
<path d="M50.938 9.77333L40.8939 0.182319C40.7429 0.0312792 40.5163 0.0312792 40.3653 0.182319C40.2898 0.257838 40.2142 0.408879 40.2898 0.484399L41.9512 6.29942C41.4226 6.07286 40.8184 5.92182 40.2898 5.92182H9.17564L10.7616 0.484399C10.8371 0.333359 10.686 0.106801 10.535 0.0312815C10.384 -0.0442382 10.3084 0.0312804 10.1574 0.1068L0.11328 9.6978C-0.0377599 9.84884 -0.0377599 10.0754 0.11328 10.2264L10.1574 19.8174C10.3084 19.9685 10.535 19.9685 10.686 19.8174C10.7616 19.7419 10.8371 19.5909 10.7616 19.5154L9.17564 14.0779H40.2898C40.8939 14.0779 41.4226 13.9269 41.9512 13.7003L40.2898 19.5154C40.2142 19.6664 40.3653 19.893 40.5163 19.9685C40.6674 20.044 40.7429 19.9685 40.8939 19.893L50.938 10.302C51.0136 10.1509 51.0136 9.92437 50.938 9.77333Z" fill="#636972"/>
</svg>
