<svg width="32" height="31" viewBox="0 0 32 31" fill="none" xmlns="http://www.w3.org/2000/svg">
<path d="M28.8628 30.4015C25.8226 28.6685 23.1036 26.4052 20.8553 23.7236C18.8086 21.296 17.2549 18.4874 16.2839 15.4547L15.9925 14.6331L15.7162 15.4547C14.2521 19.8319 12.7955 22.3343 10.1587 25.0084C8.09711 27.1373 5.72922 28.9449 3.13725 30.3716L0 25.9346C4.84034 23.5145 7.69374 21.0196 9.77778 17.4043C11.9664 13.6321 13.0719 8.56023 13.0719 2.33053C13.0868 1.55369 13.042 0.776844 12.9449 0H18.4799C18.3754 0.806723 18.3231 1.61344 18.338 2.42764C18.2932 5.81139 18.7712 9.18021 19.7572 12.422C21.0719 16.0971 23.3203 19.3688 26.2857 21.9085C27.9963 23.4248 29.9234 24.6723 32 25.6135L28.8553 30.4015H28.8628Z" fill="#FC6D26"/>
</svg>
