<svg width="620" height="304" viewBox="0 0 620 304" fill="none" xmlns="http://www.w3.org/2000/svg">
<mask id="mask0_1_2815" style="mask-type:luminance" maskUnits="userSpaceOnUse" x="285" y="48" width="51" height="21">
<path d="M335.374 48.4961H285.006V68.1108H335.374V48.4961Z" fill="white"/>
</mask>
<g mask="url(#mask0_1_2815)">
<path d="M335.263 58.0534L325.355 48.6005C325.213 48.4662 324.996 48.4736 324.862 48.6154C324.78 48.7049 324.743 48.8318 324.78 48.9511L326.444 54.7184C325.922 54.4722 325.347 54.3454 324.765 54.3379H294.034L295.593 48.9511C295.645 48.7646 295.541 48.5706 295.354 48.5184C295.235 48.4811 295.108 48.5184 295.019 48.6005L285.11 58.0534C284.969 58.1877 284.969 58.4041 285.096 58.5458C285.096 58.5458 285.103 58.5533 285.11 58.5608L295.019 68.0137C295.16 68.148 295.377 68.1405 295.511 67.9988C295.593 67.9093 295.63 67.7824 295.593 67.663L294.034 62.2688H324.765C325.347 62.2688 325.922 62.142 326.444 61.8958L324.78 67.663C324.728 67.8496 324.832 68.0435 325.019 68.0958C325.138 68.1331 325.265 68.0958 325.355 68.0137L335.255 58.5533C335.397 58.419 335.397 58.2026 335.27 58.0609C335.27 58.0609 335.263 58.0534 335.255 58.046" fill="#FC6D26"/>
</g>
<mask id="mask1_1_2815" style="mask-type:luminance" maskUnits="userSpaceOnUse" x="285" y="234" width="51" height="20">
<path d="M335.374 234.272H285.006V253.887H335.374V234.272Z" fill="white"/>
</mask>
<g mask="url(#mask1_1_2815)">
<path d="M335.263 243.83L325.355 234.377C325.213 234.243 324.996 234.25 324.862 234.392C324.78 234.481 324.743 234.608 324.78 234.727L326.444 240.495C325.922 240.249 325.347 240.122 324.765 240.114H294.034L295.593 234.727C295.645 234.541 295.541 234.347 295.354 234.295C295.235 234.257 295.108 234.295 295.019 234.377L285.11 243.83C284.969 243.964 284.969 244.18 285.096 244.322C285.096 244.322 285.103 244.33 285.11 244.337L295.019 253.79C295.16 253.924 295.377 253.917 295.511 253.775C295.593 253.686 295.63 253.559 295.593 253.439L294.034 248.045H324.765C325.347 248.045 325.922 247.918 326.444 247.672L324.78 253.439C324.728 253.626 324.832 253.82 325.019 253.872C325.138 253.909 325.265 253.872 325.355 253.79L335.255 244.33C335.397 244.195 335.397 243.979 335.27 243.837C335.27 243.837 335.263 243.83 335.255 243.822" fill="#636972"/>
</g>
<mask id="mask2_1_2815" style="mask-type:luminance" maskUnits="userSpaceOnUse" x="118" y="127" width="21" height="51">
<path d="M138.243 127.395H118.628V177.763H138.243V127.395Z" fill="white"/>
</mask>
<g mask="url(#mask2_1_2815)">
<path d="M128.685 177.651L138.138 167.743C138.273 167.601 138.265 167.385 138.123 167.251C138.034 167.168 137.907 167.131 137.788 167.168L132.02 168.832C132.267 168.31 132.394 167.735 132.401 167.154V136.422L137.788 137.981C137.974 138.034 138.168 137.929 138.22 137.743C138.258 137.623 138.22 137.496 138.138 137.407L128.685 127.499C128.551 127.357 128.335 127.357 128.193 127.484C128.193 127.484 128.186 127.491 128.178 127.499L118.725 137.407C118.591 137.549 118.598 137.765 118.74 137.899C118.83 137.981 118.956 138.019 119.076 137.981L124.47 136.422V167.154C124.47 167.735 124.597 168.31 124.843 168.832L119.076 167.168C118.889 167.116 118.695 167.221 118.643 167.407C118.606 167.527 118.643 167.653 118.725 167.743L128.186 177.644C128.32 177.785 128.536 177.785 128.678 177.658C128.678 177.658 128.685 177.651 128.693 177.644" fill="#636972"/>
</g>
<mask id="mask3_1_2815" style="mask-type:luminance" maskUnits="userSpaceOnUse" x="481" y="127" width="20" height="51">
<path d="M500.842 127.395H481.227V177.763H500.842V127.395Z" fill="white"/>
</mask>
<g mask="url(#mask3_1_2815)">
<path d="M491.285 177.651L500.738 167.743C500.872 167.601 500.864 167.385 500.723 167.251C500.633 167.168 500.506 167.131 500.387 167.168L494.62 168.832C494.866 168.31 494.993 167.735 495 167.154V136.422L500.387 137.981C500.573 138.034 500.767 137.929 500.82 137.743C500.857 137.623 500.82 137.496 500.738 137.407L491.285 127.499C491.15 127.357 490.934 127.357 490.792 127.484C490.792 127.484 490.785 127.491 490.777 127.499L481.324 137.407C481.19 137.549 481.198 137.765 481.339 137.899C481.429 137.981 481.556 138.019 481.675 137.981L487.069 136.422V167.154C487.069 167.735 487.196 168.31 487.442 168.832L481.675 167.168C481.489 167.116 481.295 167.221 481.242 167.407C481.205 167.527 481.242 167.653 481.324 167.743L490.785 177.644C490.919 177.785 491.135 177.785 491.277 177.658C491.277 177.658 491.285 177.651 491.292 177.644" fill="#FC6D26"/>
</g>
<path d="M242.479 0H14.9218C6.68071 0 0 6.68071 0 14.9218V101.468C0 109.709 6.68071 116.39 14.9218 116.39H242.479C250.72 116.39 257.401 109.709 257.401 101.468V14.9218C257.401 6.68071 250.72 0 242.479 0Z" fill="#FFF7F0"/>
<path d="M242.479 187.269H14.9218C6.68071 187.269 0 193.949 0 202.19V288.737C0 296.978 6.68071 303.658 14.9218 303.658H242.479C250.72 303.658 257.401 296.978 257.401 288.737V202.19C257.401 193.949 250.72 187.269 242.479 187.269Z" fill="#F5F6F9"/>
<path d="M605.078 0H377.521C369.28 0 362.599 6.68071 362.599 14.9218V101.468C362.599 109.709 369.28 116.39 377.521 116.39H605.078C613.319 116.39 620 109.709 620 101.468V14.9218C620 6.68071 613.319 0 605.078 0Z" fill="#FFF7F0"/>
<path d="M605.078 185.776H377.521C369.28 185.776 362.599 192.457 362.599 200.698V287.244C362.599 295.486 369.28 302.166 377.521 302.166H605.078C613.319 302.166 620 295.486 620 287.244V200.698C620 192.457 613.319 185.776 605.078 185.776Z" fill="#FFF7F0"/>
<path d="M111.108 218.866C111.108 217.814 111.063 217.187 110.929 216.202C111.69 216.247 112.339 216.269 113.48 216.269H117.33C119.814 216.269 121.717 216.918 123.06 218.261C124.604 219.739 125.388 221.954 125.388 224.73C125.388 227.505 124.537 229.967 122.926 231.534C121.56 232.855 119.703 233.526 117.352 233.526H113.48C112.294 233.526 111.734 233.526 110.929 233.571C111.063 232.698 111.108 232.027 111.108 230.84V218.866ZM117.263 231.646C119.053 231.646 120.396 231.154 121.404 230.102C122.59 228.893 123.217 227.035 123.217 224.775C123.217 222.514 122.657 220.791 121.516 219.627C120.531 218.619 119.21 218.149 117.33 218.149H113.189V231.646H117.263Z" fill="#333333"/>
<path d="M132.908 233.056C132.908 234.041 132.953 234.668 133.02 235.272H131.073C131.162 234.623 131.207 233.996 131.207 233.034V226.453C130.155 227.483 129.573 227.953 128.275 228.893C128.029 228.266 127.76 227.819 127.357 227.326C128.947 226.364 130.133 225.401 131.386 224.058C132.505 222.85 133.199 221.82 134.027 220.141H129.999C129.282 220.141 128.79 220.164 128.163 220.231V218.463C128.812 218.53 129.238 218.552 129.931 218.552H131.207V216.515C131.207 215.911 131.162 215.262 131.073 214.792H133.043C132.953 215.262 132.908 215.844 132.908 216.56V218.552H134.117C134.766 218.552 135.124 218.53 135.393 218.485L136.199 219.38C136.042 219.627 135.885 219.895 135.684 220.32C134.968 221.82 134.341 222.805 133.266 224.126C134.43 225.446 135.326 226.207 136.87 227.125C136.467 227.64 136.243 228.02 135.975 228.647C134.677 227.752 133.804 226.968 132.908 225.894V233.056ZM142.175 232.497H145.487C146.651 232.497 147.345 232.452 147.949 232.362V234.354C147.233 234.243 146.427 234.198 145.487 234.198H137.542C136.557 234.198 135.818 234.243 135.102 234.354V232.362C135.751 232.452 136.4 232.497 137.564 232.497H140.429V223.185H138.37C137.564 223.185 136.848 223.23 136.176 223.297V221.417C136.781 221.507 137.407 221.552 138.37 221.552H140.429V216.963C140.429 216.18 140.384 215.687 140.272 214.859H142.331C142.197 215.71 142.175 216.135 142.175 216.963V221.552H144.973C145.957 221.552 146.539 221.529 147.166 221.417V223.297C146.495 223.23 145.801 223.185 144.973 223.185H142.175V232.497Z" fill="#333333"/>
<path d="M42.3107 253.581C42.1466 253.85 41.9004 254.327 41.5721 255.014C41.3259 255.506 41.102 255.887 40.923 256.2C41.1468 256.155 43.3478 256.11 47.5259 256.066C48.175 256.066 48.6002 255.998 49.0031 255.842L50.1446 256.983C49.8984 257.364 49.8537 257.431 49.4955 258.461C48.6898 260.632 47.5259 263.049 46.5186 264.638C44.258 268.175 41.2363 270.659 36.536 272.853C36.0659 272.024 35.8421 271.756 35.2154 271.196C37.1179 270.435 38.3042 269.809 39.7815 268.824C41.4825 267.66 42.4674 266.765 43.5865 265.399C41.975 263.967 40.4306 262.848 38.6847 261.885L39.9158 260.52C41.7959 261.594 42.9374 262.378 44.7504 263.855C45.9591 261.975 46.9215 260.005 47.6602 257.744L40.0948 257.834C38.5728 260.229 37.006 261.975 34.7901 263.765C34.2529 263.139 33.9844 262.937 33.2233 262.489C35.6631 260.699 37.4761 258.662 38.9085 256.11C39.6024 254.835 40.0277 253.85 40.2291 253.044L42.3107 253.581Z" fill="#333333"/>
<path d="M57.3966 254.274C57.3071 254.834 57.2847 255.349 57.2847 256.58L57.1952 269.629C59.7468 269.181 61.7389 268.465 63.5295 267.324C65.7006 265.936 67.1555 264.369 68.4089 262.019C69.0356 262.914 69.2371 263.138 69.9085 263.698C66.8421 268.308 63.4176 270.457 57.3519 271.643C56.5909 271.778 56.3446 271.845 56.0313 271.979L54.9793 270.681C55.1136 270.233 55.136 269.965 55.1584 269.002L55.2031 256.625C55.2031 255.505 55.1733 254.722 55.1136 254.274H57.3966Z" fill="#333333"/>
<path d="M71.5201 269.406C73.3107 269.338 75.9966 268.645 78.0782 267.727C82.3533 265.824 85.3078 262.579 87.1432 257.767C87.7699 258.55 88.0161 258.796 88.7995 259.311C86.9641 263.295 84.8826 265.891 81.8833 267.928C79.6002 269.495 77.0934 270.48 73.4898 271.286C72.7735 271.442 72.5945 271.487 72.102 271.644L71.5201 269.406ZM73.0869 255.528C75.5714 257.117 76.9591 258.192 78.593 259.781L77.2277 261.46C75.549 259.669 73.7584 258.214 71.7663 257.028L73.0869 255.528Z" fill="#333333"/>
<path d="M93.9252 272.36C94.0371 271.622 94.0595 271.04 94.0595 269.764V256.133C94.0595 254.79 94.0371 254.253 93.9252 253.671H96.1858C96.0963 254.32 96.0739 254.947 96.0739 256.2V260.184C99.2299 261.303 102.274 262.713 106.079 264.907L104.96 266.854C102.99 265.467 99.9013 263.81 96.723 262.467C96.3872 262.311 96.2977 262.288 95.9844 262.087C96.0515 262.646 96.0739 263.027 96.0739 263.922V269.764C96.0739 270.95 96.0963 271.667 96.1858 272.36H93.9252Z" fill="#333333"/>
<path d="M116.375 265.197C119.016 263.026 121.098 260.631 122.776 257.923C122.844 257.789 122.866 257.766 122.955 257.632C122.732 257.662 118.613 257.677 110.6 257.677C109.28 257.677 108.653 257.699 107.802 257.789V255.685C108.631 255.819 109.257 255.841 110.623 255.841H123.381C124.209 255.841 124.41 255.819 124.813 255.685L125.932 256.983C125.641 257.274 125.485 257.475 125.015 258.214C122.888 261.549 120.449 264.347 117.651 266.607C118.479 267.525 119.531 268.846 120.852 270.591L119.195 271.957C118.009 270.077 116.823 268.532 114.898 266.451C113.264 264.66 112.1 263.563 110.444 262.22L111.943 261.079C113.286 262.176 114.092 262.914 115.01 263.832L116.375 265.197Z" fill="#333333"/>
<path d="M136.027 272.808C136.116 272.181 136.139 271.577 136.139 270.413V265.511C136.139 265.108 136.139 264.884 136.184 264.481C135.96 264.683 135.826 264.772 135.49 264.974C133.833 265.914 131.573 266.832 128.753 267.704C128.439 266.921 128.305 266.653 127.79 265.959C131.976 264.974 135.512 263.362 138.534 261.079C139.631 260.273 140.392 259.58 141.533 258.416L141.085 258.46C140.772 258.483 140.257 258.505 140.078 258.505H132.244C131.148 258.505 130.566 258.528 129.805 258.64V256.647C130.498 256.759 131.103 256.804 132.244 256.804H136.116V255.014C136.116 254.141 136.094 253.805 136.027 253.29H138.131C138.041 253.827 138.019 254.185 138.019 254.991V256.804H142.473C142.988 256.804 143.279 256.759 143.615 256.647L144.577 257.767C144.241 258.058 144.152 258.125 143.659 258.707C142.361 260.139 140.436 261.863 138.87 262.982C142.07 264.123 144.152 265.086 146.95 266.742L145.853 268.51C144.197 267.369 142.182 266.294 139.362 265.019C138.556 264.66 138.444 264.593 137.997 264.347C138.012 264.422 138.026 264.578 138.041 264.817C138.064 264.929 138.064 265.242 138.064 265.556V270.39C138.064 271.711 138.086 272.159 138.176 272.808H136.027Z" fill="#333333"/>
<path d="M150.419 259.714C152.545 260.587 154.269 261.46 156.171 262.668L155.164 264.459C153.485 263.228 151.471 262.154 149.345 261.325L150.419 259.714ZM149.703 269.898C151.247 269.876 153.575 269.361 155.858 268.488C158.589 267.436 160.693 265.869 162.483 263.519C163.737 261.885 164.475 260.497 165.147 258.505C165.818 259.199 166.064 259.423 166.826 259.938C164.856 264.616 162.125 267.66 158.163 269.629C156.574 270.413 154.179 271.219 152.344 271.599C151.963 271.666 151.583 271.756 151.135 271.845C150.665 271.935 150.576 271.98 150.24 272.091L149.703 269.898ZM152.142 254.342C154.336 255.237 155.88 255.998 157.805 257.185L156.753 258.953C155.052 257.722 152.814 256.536 151.113 255.954L152.142 254.342ZM164.05 253.38C165.102 254.633 165.617 255.394 166.4 256.849L165.08 257.588C164.386 256.2 163.67 255.081 162.752 254.051L164.05 253.38ZM166.602 252.171C167.654 253.402 168.146 254.096 168.952 255.573L167.654 256.312C167.005 255.014 166.333 254.006 165.348 252.842L166.602 252.171Z" fill="#333333"/>
<path d="M183.769 254.834C183.501 255.259 183.389 255.483 183.053 256.267C181.688 259.557 180.859 261.191 179.807 262.758C181.777 264.391 183.075 265.623 184.911 267.57L183.389 269.204C182.225 267.682 180.77 266.227 178.621 264.391C177.592 265.802 176.316 267.167 174.861 268.465C173.294 269.853 171.906 270.815 169.668 272.069C169.198 271.285 168.974 271.017 168.28 270.435C171.884 268.667 174.659 266.384 177.122 263.116C175.107 261.527 173.026 260.139 171.123 259.087L172.466 257.677C173.943 258.557 175.861 259.833 178.218 261.504C179.226 259.893 180.031 258.281 180.792 256.401C181.329 255.08 181.464 254.677 181.576 254.028L183.769 254.834Z" fill="#333333"/>
<path d="M188.38 269.406C190.171 269.338 192.857 268.645 194.938 267.727C199.213 265.824 202.168 262.579 204.003 257.767C204.63 258.55 204.876 258.796 205.659 259.311C203.824 263.295 201.742 265.891 198.743 267.928C196.46 269.495 193.953 270.48 190.35 271.286C189.633 271.442 189.454 271.487 188.962 271.644L188.38 269.406ZM189.947 255.528C192.431 257.117 193.819 258.192 195.453 259.781L194.088 261.46C192.409 259.669 190.618 258.214 188.626 257.028L189.947 255.528Z" fill="#333333"/>
<path d="M210.785 272.36C210.897 271.622 210.919 271.04 210.919 269.764V256.133C210.919 254.79 210.897 254.253 210.785 253.671H213.046C212.956 254.32 212.934 254.947 212.934 256.2V260.184C216.09 261.303 219.134 262.713 222.939 264.907L221.82 266.854C219.85 265.467 216.761 263.81 213.583 262.467C213.247 262.311 213.158 262.288 212.844 262.087C212.911 262.646 212.934 263.027 212.934 263.922V269.764C212.934 270.95 212.956 271.667 213.046 272.36H210.785Z" fill="#333333"/>
<path d="M232.034 11.9375H25.367C19.1862 11.9375 14.1757 16.948 14.1757 23.1288V93.2612C14.1757 99.442 19.1862 104.453 25.367 104.453H232.034C238.214 104.453 243.225 99.442 243.225 93.2612V23.1288C243.225 16.948 238.214 11.9375 232.034 11.9375Z" fill="white"/>
<mask id="mask4_1_2815" style="mask-type:luminance" maskUnits="userSpaceOnUse" x="267" y="108" width="86" height="86">
<path d="M338.279 108.928L267.844 179.363L281.713 193.233L352.149 122.798L338.279 108.928Z" fill="white"/>
</mask>
<g mask="url(#mask4_1_2815)">
<path d="M274.68 186.044L275.001 172.354C275.001 172.16 275.165 172.01 275.359 172.01C275.486 172.01 275.598 172.085 275.658 172.189L278.56 177.442C278.754 176.897 279.067 176.397 279.477 175.987L336.024 119.441L331.114 116.733C330.943 116.643 330.883 116.427 330.98 116.263C331.04 116.151 331.152 116.084 331.278 116.084L344.969 115.763C345.163 115.763 345.32 115.912 345.327 116.106C345.327 116.106 345.327 116.113 345.327 116.121L345.007 129.812C345.007 130.006 344.842 130.155 344.648 130.155C344.522 130.155 344.41 130.08 344.35 129.976L341.642 125.066L285.088 181.62C284.678 182.03 284.185 182.344 283.633 182.545L288.886 185.44C289.057 185.529 289.117 185.746 289.02 185.91C288.96 186.022 288.848 186.089 288.722 186.089L275.031 186.41C274.837 186.41 274.68 186.261 274.673 186.067C274.673 186.067 274.673 186.059 274.673 186.052" fill="#636972"/>
</g>
<mask id="mask5_1_2815" style="mask-type:luminance" maskUnits="userSpaceOnUse" x="267" y="108" width="86" height="86">
<path d="M281.713 108.928L267.844 122.798L338.279 193.233L352.149 179.363L281.713 108.928Z" fill="white"/>
</mask>
<g mask="url(#mask5_1_2815)">
<path d="M345.312 186.044L344.992 172.354C344.992 172.16 344.827 172.01 344.633 172.01C344.507 172.01 344.395 172.085 344.335 172.189L341.433 177.442C341.239 176.897 340.925 176.397 340.515 175.987L283.969 119.441L288.878 116.733C289.05 116.643 289.109 116.427 289.012 116.263C288.953 116.151 288.841 116.084 288.714 116.084L275.023 115.763C274.829 115.763 274.673 115.912 274.665 116.106C274.665 116.106 274.665 116.113 274.665 116.121L274.986 129.812C274.986 130.006 275.15 130.155 275.344 130.155C275.471 130.155 275.583 130.08 275.643 129.976L278.351 125.066L334.904 181.62C335.315 182.03 335.807 182.344 336.359 182.545L331.107 185.447C330.935 185.537 330.876 185.753 330.973 185.917C331.032 186.029 331.144 186.097 331.271 186.097L344.962 186.417C345.156 186.417 345.312 186.268 345.32 186.074C345.32 186.074 345.32 186.067 345.32 186.059" fill="#FC6D26"/>
</g>
<path d="M162.565 52.4654C159.529 50.7345 156.813 48.4739 154.567 45.7954C152.523 43.3706 150.971 40.5653 150.001 37.5362L149.71 36.7155L149.434 37.5362C147.972 41.9083 146.517 44.4077 143.883 47.0787C141.824 49.205 139.459 51.0106 136.87 52.4356L133.736 48.0038C138.571 45.5865 141.421 43.0946 143.503 39.4835C145.689 35.7157 146.793 30.6498 146.793 24.4274C146.808 23.6515 146.763 22.8755 146.666 22.0996H152.195C152.09 22.9054 152.038 23.7112 152.053 24.5244C152.008 27.9042 152.486 31.269 153.471 34.5071C154.784 38.1778 157.029 41.4457 159.991 43.9824C161.7 45.497 163.625 46.7429 165.699 47.683L162.558 52.4654H162.565Z" fill="#FC6D26"/>
<path d="M178.591 52.4648C177.771 52.4648 175.801 52.4425 174.54 52.3753V48.7045C176.025 48.8388 177.204 48.9284 178.345 48.9284C179.33 48.9284 179.919 48.8612 179.919 47.9137V46.7647L168.474 46.8766V44.0117L179.919 44.0863V42.4747L166.512 42.6015V39.4456L179.919 39.5724V37.9609L168.549 38.0429V35.2227L179.919 35.3197V33.7828L168.668 33.8574V27.4709L179.919 27.5529V25.9712L166.684 26.113V22.5989H179.927C179.927 22.5989 179.86 21.3305 179.778 20.9053H184.478C184.396 21.3305 184.321 22.5989 184.321 22.5989H197.743V26.113L184.329 25.9712V27.5529L195.781 27.4783V33.8574L184.329 33.7828V35.3272L195.736 35.2675L195.669 39.3188L198.079 39.2889V42.7433L195.677 42.7955L195.804 46.7647H184.329V48.3613C184.329 51.9277 183.575 52.4648 178.561 52.4648M184.351 44.0863H191.26V42.4747H184.351V44.0863ZM184.351 39.55H191.26V37.9385H184.351V39.55ZM184.351 31.4624H190.499V29.8509H184.351V31.4624ZM173.943 31.4624H179.919V29.8509H173.943V31.4624Z" fill="#FC6D26"/>
<path d="M123.045 49.9136C120.105 49.9136 117.837 49.1377 116.33 47.5933C114.823 46.0489 114.04 43.7435 114.04 40.7517C114.04 37.7598 114.853 35.2604 116.442 33.5519C118.031 31.8434 120.292 30.9854 123.12 30.9854C125.798 30.9854 127.902 31.7687 129.387 33.3132C130.871 34.8576 131.625 37.0884 131.625 39.916V41.4604H119.247L119.285 41.9827C119.285 43.1168 119.628 44.221 120.292 45.1461C120.986 45.8848 121.971 46.2727 122.978 46.213C125.037 46.213 125.917 45.2133 126.29 44.2508H131.364C131.051 45.8698 130.155 47.3172 128.85 48.317C127.126 49.4436 125.089 49.9957 123.038 49.8838M123.112 34.5815C120.866 34.5815 119.538 35.8424 119.262 38.2224L119.203 38.4313H126.664L126.641 38.2523C126.671 37.2525 126.343 36.2751 125.709 35.4992C125.015 34.8501 124.09 34.5144 123.142 34.5815" fill="#FC6D26"/>
<path d="M105.273 49.6221V38.5799C105.303 36.7446 103.833 35.23 101.998 35.2002C100.162 35.1703 98.6479 36.6401 98.618 38.4755C98.618 38.5053 98.618 38.5426 98.618 38.5725V49.6146H93.373V30.9698H98.6255V33.1783L98.9687 32.8052C101.423 30.082 105.624 29.8656 108.347 32.3277C109.6 33.4618 110.376 35.0286 110.518 36.7147L110.548 37.3041V49.6295H105.273V49.6221Z" fill="#FC6D26"/>
<path d="M74.1612 52.4726C66.1706 52.4651 59.6946 45.9891 59.6871 37.9984V35.3648C59.6946 27.3741 66.1706 20.8981 74.1612 20.8906H74.6835C82.6741 20.8981 89.1502 27.3741 89.1576 35.3648V37.9984C89.1576 45.9891 82.6741 52.4651 74.6835 52.4726H74.1612ZM74.1612 26.9936C69.543 26.9936 65.7901 30.739 65.7827 35.3648V37.9984C65.7827 42.6242 69.5355 46.3696 74.1612 46.3696H74.6835C79.3018 46.3546 83.0397 42.6018 83.0397 37.9835V35.3648C83.0397 30.739 79.2869 26.9936 74.6611 26.9936H74.1612Z" fill="#FC6D26"/>
<path d="M154.358 63.8428H103.4C100.252 63.8428 97.7003 66.3948 97.7003 69.5429V89.7246C97.7003 92.8727 100.252 95.4247 103.4 95.4247H154.358C157.506 95.4247 160.058 92.8727 160.058 89.7246V69.5429C160.058 66.3948 157.506 63.8428 154.358 63.8428Z" fill="#FC6D26"/>
<path d="M116.069 79.8396H121.717C122.612 79.8396 123.687 79.7874 124.321 79.7351C124.246 80.235 124.201 80.7349 124.194 81.2422C124.015 85.2263 123.784 87.2706 123.351 88.8822C122.888 90.5459 121.769 91.1279 119.083 91.1279C118.598 91.1279 118.292 91.0981 116.576 91.0234C116.509 90.0312 116.285 89.0612 115.912 88.1361C116.905 88.2928 117.897 88.3748 118.904 88.3898C120.262 88.3898 120.464 88.2629 120.717 87.2632C121.075 85.6516 121.254 84.0102 121.254 82.3614H115.659C115.144 84.6369 113.905 86.6887 112.137 88.2107C110.414 89.6283 108.437 90.7101 106.31 91.3816C105.907 90.4042 105.333 89.5089 104.602 88.7479C106.639 88.2928 108.548 87.3751 110.175 86.062C111.369 85.1144 112.249 83.8237 112.682 82.3614H109.235C108.228 82.3464 107.22 82.3987 106.221 82.5106V79.6978C107.213 79.7948 108.213 79.8396 109.213 79.8247H113.197C113.271 79.0935 113.309 78.3623 113.301 77.6312C113.301 77.3327 113.271 77.0343 113.226 76.7358H116.345C116.256 77.2357 116.203 77.7356 116.188 78.2429C116.159 78.9368 116.136 79.2427 116.084 79.8321L116.069 79.8396ZM107.026 73.4754H108.765C108.175 71.9385 107.34 70.506 106.288 69.2377L108.869 68.2677C109.914 69.551 110.779 70.9835 111.421 72.5055L109.048 73.4754H119.061C120.21 71.8042 121.15 69.9912 121.844 68.0812L124.657 69.1034C124.502 69.357 124.112 70.0385 123.485 71.1476C123 71.9683 122.485 72.8114 122.053 73.4754H123.791C124.664 73.4904 125.529 73.4531 126.395 73.371C126.313 74.0648 126.283 74.7662 126.29 75.4675V77.3327C126.283 77.9744 126.32 78.616 126.417 79.2502H123.56V75.9525H107.288V79.2502H104.43C104.527 78.616 104.572 77.9744 104.564 77.3327V75.4973C104.579 74.7886 104.542 74.0798 104.46 73.3784C105.318 73.4605 106.176 73.4904 107.034 73.4754H107.026ZM117.524 72.0952L114.89 73.0949C114.346 71.5431 113.592 70.0733 112.645 68.7303L115.226 67.9395C116.114 69.26 116.882 70.6478 117.524 72.1026V72.0952Z" fill="white"/>
<path d="M143.077 84.1811H141.108C140.436 84.1662 139.765 84.196 139.093 84.2856V81.8309C138.84 82.4726 138.735 82.6516 138.407 83.338C137.877 82.7635 137.243 82.286 136.542 81.9354C137.168 80.9207 137.653 79.8314 137.997 78.6899H136.378L136.43 89.0307C136.497 89.6499 136.303 90.2692 135.893 90.7392C135.535 91.075 134.744 91.2466 133.52 91.2466C132.961 91.2466 132.162 91.2167 131.401 91.172C131.371 90.314 131.192 89.4634 130.864 88.6726C131.618 88.8143 132.371 88.9039 133.14 88.9262C133.826 88.9262 133.983 88.8218 133.96 88.3144L133.93 82.2114C133.087 84.2706 131.804 86.1209 130.178 87.628C129.887 86.6432 129.454 85.7031 128.902 84.8451C130.871 83.2261 132.364 81.0923 133.222 78.6899H131.461C130.745 78.6675 130.028 78.7123 129.312 78.8167V76.1084C130.073 76.2129 130.842 76.2576 131.61 76.2353H134.162C133.11 75.1833 131.976 74.2208 130.767 73.3479L132.349 71.8184C133.781 72.8928 133.908 72.9674 134.542 73.527C135.348 72.8928 136.042 72.1318 136.609 71.2812H132.162C131.431 71.2738 130.692 71.3036 129.969 71.3857V68.752C130.767 68.8341 131.565 68.8714 132.371 68.8564H136.736C137.459 68.8714 138.183 68.849 138.907 68.7818L140.287 70.2665C140.183 70.3934 139.981 70.647 139.728 71.0052C138.683 72.4675 137.482 73.8105 136.154 75.0191C136.385 75.2728 136.49 75.3549 136.713 75.6309L136.154 76.2427H137.683C138.303 76.2502 138.929 76.2278 139.548 76.1681L140.645 77.526C140.518 77.7797 140.414 78.0483 140.339 78.3168C141.802 77.9811 143.212 77.4514 144.532 76.7351C143.712 75.9667 143.003 75.0788 142.436 74.1014C141.832 74.8923 141.175 75.6458 140.466 76.3472C139.914 75.6682 139.258 75.0863 138.526 74.6088C140.175 73.2957 141.481 71.602 142.331 69.6771C142.637 69.0653 142.854 68.4088 142.973 67.7373L145.629 68.2446C145.48 68.5356 145.353 68.8341 145.249 69.14C145.122 69.4682 145.017 69.6995 144.816 70.1397H150.106C151.008 70.1472 151.911 70.1099 152.814 70.0129V72.6167C152.202 72.5421 151.59 72.5048 150.979 72.5123C150.426 74.0119 149.568 75.3847 148.449 76.5262C150.001 77.2499 151.658 77.7274 153.351 77.9587C152.821 78.7794 152.426 79.6747 152.18 80.6148C150.15 80.1373 148.211 79.339 146.435 78.2422C145.689 78.7496 144.89 79.1898 144.062 79.5479L146.666 79.5777C146.644 79.6897 146.636 79.8016 146.644 79.906C146.614 80.0329 146.592 80.1895 146.569 80.3686C146.569 80.4954 146.547 80.5477 146.517 80.7789C146.487 81.1371 146.442 81.3161 146.39 81.7787H150.016C150.688 81.8011 151.367 81.7712 152.031 81.6742C151.971 82.0473 151.941 82.4203 151.926 82.8008C151.851 84.9645 151.553 87.1132 151.031 89.2172C150.523 90.7765 149.859 91.1869 147.86 91.1869C146.957 91.1794 146.054 91.1197 145.152 91.0078C145.099 90.0976 144.898 89.2023 144.562 88.3517C145.532 88.5606 146.509 88.68 147.502 88.7099C148.322 88.7099 148.576 88.404 148.86 87.0983C149.046 86.1433 149.158 85.1809 149.188 84.211H145.838C144.741 87.7101 142.719 89.8066 138.683 91.5674C138.258 90.7392 137.728 89.9782 137.101 89.2918C140.362 88.0608 142.048 86.6283 143.07 84.2035L143.077 84.1811ZM141.257 81.7563H143.712C143.786 81.1221 143.831 80.4805 143.838 79.8389C143.838 79.7717 143.838 79.6971 143.816 79.6374C142.846 80.0478 142.309 80.2268 140.906 80.6819C140.675 80.1448 140.392 79.63 140.063 79.1525C139.728 80.2268 139.526 80.764 139.168 81.6817C139.862 81.7489 140.563 81.7712 141.264 81.7563H141.257ZM148.233 72.5048H144.219C144.764 73.5643 145.51 74.4969 146.413 75.2653C147.226 74.4969 147.845 73.5568 148.225 72.5048H148.233Z" fill="white"/>
<path d="M594.633 11.9375H387.966C381.785 11.9375 376.775 16.948 376.775 23.1288V93.2612C376.775 99.442 381.785 104.453 387.966 104.453H594.633C600.814 104.453 605.824 99.442 605.824 93.2612V23.1288C605.824 16.948 600.814 11.9375 594.633 11.9375Z" fill="white"/>
<path d="M594.633 197.714H387.966C381.785 197.714 376.775 202.724 376.775 208.905V279.038C376.775 285.218 381.785 290.229 387.966 290.229H594.633C600.814 290.229 605.824 285.218 605.824 279.038V208.905C605.824 202.724 600.814 197.714 594.633 197.714Z" fill="white"/>
<path d="M541.161 52.6516C540.333 52.6516 538.348 52.6293 537.087 52.5621V48.869C538.579 49.0033 539.766 49.0928 540.907 49.0928C541.892 49.0928 542.489 49.0256 542.489 48.0781V46.9217L530.977 47.0336V44.1537L542.489 44.2283V42.6018L529 42.7287V39.5503L542.489 39.6771V38.0507L531.044 38.1327V35.2976L542.489 35.3946V33.8502L531.171 33.9248V27.501L542.489 27.583V25.9864L529.171 26.1282V22.5917H542.489C542.489 22.5917 542.422 21.3159 542.34 20.8906H547.062C546.98 21.3159 546.906 22.5917 546.906 22.5917H560.41V26.1282L546.921 25.9864V27.583L558.44 27.5084V33.9248L546.921 33.8502V35.4021L558.395 35.3349L558.328 39.4086L560.753 39.3787V42.8555L558.336 42.9077L558.463 46.9067H546.921V48.5034C546.921 52.0921 546.167 52.6293 541.123 52.6293M546.958 44.2208H553.904V42.5944H546.958V44.2208ZM546.958 39.6622H553.904V38.0432H546.958V39.6622ZM546.958 31.5299H553.143V29.9108H546.958V31.5299ZM536.49 31.5299H542.504V29.9108H536.49V31.5299Z" fill="#FC6D26"/>
<path d="M525.038 52.6513C521.979 50.9129 519.256 48.6374 516.987 45.944C514.928 43.4968 513.369 40.6766 512.392 37.6326L512.101 36.8119L511.825 37.64C510.355 42.0345 508.892 44.5488 506.244 47.2347C504.17 49.3685 501.79 51.189 499.186 52.629L496.03 48.1673C500.894 45.7351 503.759 43.2282 505.856 39.5948C508.057 35.8046 509.168 30.7089 509.168 24.4492C509.183 23.6658 509.139 22.8824 509.042 22.1064H514.6C514.496 22.9122 514.443 23.7329 514.458 24.5462C514.413 27.9483 514.898 31.3356 515.891 34.5885C517.211 38.2817 519.472 41.5644 522.449 44.1235C524.165 45.6456 526.105 46.899 528.194 47.8465L525.038 52.6513Z" fill="#FC6D26"/>
<path d="M485.279 50.0848C482.317 50.0848 480.041 49.3014 478.519 47.7495C476.997 46.1976 476.221 43.8773 476.221 40.8631C476.221 37.8489 477.042 35.342 478.639 33.6186C480.235 31.8951 482.511 31.0371 485.353 31.0371C488.047 31.0371 490.166 31.828 491.658 33.3798C493.15 34.9317 493.911 37.1774 493.911 40.02V41.5793H481.459L481.496 42.1016C481.496 43.2431 481.847 44.3548 482.511 45.2874C483.205 46.0335 484.197 46.4289 485.219 46.3692C487.286 46.3692 488.174 45.3695 488.554 44.3921H493.665C493.351 46.0186 492.449 47.4735 491.136 48.4807C489.405 49.6147 487.353 50.1668 485.286 50.0549M485.346 34.6631C483.085 34.6631 481.75 35.9315 481.474 38.3264L481.414 38.5353H488.92L488.897 38.3562C488.927 37.349 488.591 36.3642 487.957 35.5883C487.263 34.9392 486.331 34.6034 485.376 34.6631" fill="#FC6D26"/>
<path d="M467.402 49.7937V38.6844C467.402 36.8341 465.903 35.3345 464.052 35.3345C462.202 35.3345 460.703 36.8341 460.703 38.6844V49.7937H455.428V31.037H460.71V33.2603L461.061 32.8798C463.538 30.1417 467.761 29.9253 470.499 32.4023C471.76 33.5439 472.535 35.1181 472.677 36.8117L472.707 37.4086V49.8011H467.402V49.7937Z" fill="#FC6D26"/>
<path d="M436.097 52.6591C428.061 52.6516 421.548 46.1383 421.54 38.1029V35.4543C421.548 27.4189 428.061 20.9055 436.097 20.8906H436.619C444.654 20.8981 451.167 27.4114 451.182 35.4543V38.1029C451.182 46.1383 444.662 52.6591 436.626 52.6666H436.104L436.097 52.6591ZM436.097 27.0309C431.448 27.0309 427.681 30.7987 427.673 35.4543V38.1029C427.673 42.751 431.448 46.5262 436.097 46.5262H436.619C441.267 46.5113 445.035 42.7361 445.027 38.088V35.4543C445.027 30.8061 441.252 27.0309 436.604 27.0309H436.097Z" fill="#FC6D26"/>
<path d="M516.816 64.0967H465.485C462.337 64.0967 459.785 66.6487 459.785 69.7968V90.165C459.785 93.3131 462.337 95.8652 465.485 95.8652H516.816C519.964 95.8652 522.516 93.3131 522.516 90.165V69.7968C522.516 66.6487 519.964 64.0967 516.816 64.0967Z" fill="#FC6D26"/>
<path d="M486.786 76.0934H484.906C484.846 78.9882 484.428 81.8607 483.675 84.651C482.891 87.3817 481.496 89.896 479.586 92C479.138 91.1644 478.512 90.4407 477.758 89.8662C475.057 90.381 472.185 90.7913 468.298 91.2017C467.656 91.2763 467.477 91.3061 466.985 91.3808L466.522 88.6053C466.738 88.6277 466.947 88.6351 467.164 88.6277C468.037 88.6277 469.372 88.5232 471.842 88.2919V86.7475H469.663C468.924 86.7326 468.186 86.7774 467.455 86.8744V84.4048C468.193 84.5167 468.947 84.5615 469.693 84.5317H471.849V83.3752H469.23C468.462 83.3528 467.701 83.3976 466.94 83.502V81.04C467.708 81.1519 468.477 81.1966 469.253 81.1668H471.849V80.0402H469.126C468.201 80.0402 467.992 80.0402 467.149 80.0924C467.201 79.5702 467.231 79.0479 467.223 78.5256V75.877C467.246 75.3622 467.223 74.8474 467.149 74.3326C467.805 74.3848 468.469 74.3998 469.126 74.3848H477.072C477.743 74.3998 478.407 74.3848 479.079 74.3326C479.004 74.922 478.982 75.5114 479.004 76.1083V78.4212C479.026 79.324 479.026 79.8835 479.056 80.0924C478.407 80.0402 477.758 80.0253 477.102 80.0402H474.319V81.1668H476.684C477.482 81.1817 478.28 81.1519 479.071 81.0623V83.4797C478.28 83.3976 477.482 83.3603 476.684 83.3752H474.319V84.5317H476.251C477.027 84.5466 477.795 84.5167 478.564 84.4272V86.8445C477.795 86.7625 477.027 86.7252 476.251 86.7401H474.319V88.0234C476.169 87.8194 477.644 87.6404 478.743 87.4862L478.773 88.4337C480.877 85.606 481.936 81.8532 482.242 76.071H481.705C480.989 76.0486 480.28 76.0785 479.571 76.1755V73.4224C480.287 73.5343 481.011 73.5791 481.727 73.5492H482.294C482.317 72.2137 482.317 71.9601 482.317 70.3336C482.332 69.6696 482.279 69.0055 482.16 68.3564H485.167C485.062 68.9384 485.003 70.6693 484.988 73.5492H487.069C487.905 73.5641 488.733 73.5268 489.561 73.4448C489.511 73.8576 489.442 75.8198 489.352 79.3314C489.225 83.7259 488.867 87.6876 488.45 89.2544C487.987 91.0002 487.166 91.5673 485.032 91.5673C484.843 91.5673 484.16 91.5424 482.981 91.4927C482.928 90.5302 482.705 89.5827 482.339 88.6948C483.1 88.8664 483.876 88.9634 484.652 88.9783C485.682 88.9783 485.883 88.6948 486.167 86.8445C486.614 83.2708 486.816 79.6746 486.786 76.071V76.0934ZM471.849 76.4515H469.588V78.0183H471.849V76.4515ZM474.319 76.4515V78.0183H476.736V76.4515H474.319ZM469.335 70.1545V69.871C469.342 69.3711 469.32 68.8712 469.26 68.3788H472.036C471.946 68.8638 471.909 69.3562 471.931 69.8412V70.1471H474.244V69.8635C474.266 69.3711 474.229 68.8787 474.14 68.4012H476.893C476.818 68.8712 476.796 69.3413 476.818 69.8113V70.1471H477.586C478.303 70.1545 479.012 70.1098 479.72 70.0202V72.542C479.012 72.4525 478.303 72.4226 477.586 72.4375H476.818V72.639C476.811 73.0493 476.833 73.4672 476.893 73.87H474.169C474.229 73.4522 474.259 73.0344 474.244 72.6092V72.4301H471.931V72.6092C471.916 73.027 471.946 73.4522 472.006 73.87H469.26C469.32 73.4522 469.342 73.0344 469.335 72.6092V72.4301H468.439C467.76 72.4002 467.082 72.4301 466.41 72.5345V70.0128C467.104 70.1247 467.813 70.1694 468.514 70.1396H469.335V70.1545Z" fill="white"/>
<path d="M493.336 75.0864L492.896 72.2364C493.821 72.3408 495.261 72.3931 496.724 72.3931H497.082C498.298 71.0799 499.305 69.5952 500.066 67.9688L503.334 68.6104C503.145 68.869 502.896 69.2122 502.588 69.64C501.872 70.6397 501.073 71.6171 500.432 72.3632C503.909 72.2787 506.53 72.1767 508.296 72.0573C507.505 71.4008 506.669 70.789 505.804 70.2294L508.116 68.8193C510.593 70.4681 512.891 72.3781 514.951 74.5269L512.66 76.3772C511.683 75.2953 511.377 74.9596 510.653 74.221C506.132 74.6089 500.402 74.8925 495.493 74.9671C494.769 74.9671 494.045 75.0044 493.329 75.0939L493.336 75.0864ZM494.366 91.2318L492.031 89.3815C492.762 88.6876 493.389 87.9042 493.903 87.0462C494.5 86.039 494.97 84.9572 495.291 83.8306L497.731 84.8602C497.358 86.1435 496.843 87.3745 496.186 88.5384C495.694 89.5083 495.082 90.4186 494.359 91.2318H494.366ZM498.402 84.0097H501.335C501.238 84.5021 501.193 85.002 501.208 85.5018V88.3817C501.208 88.9712 501.543 89.0532 503.752 89.0532C506.811 89.0532 507.348 88.9786 507.632 88.5907C507.893 88.2325 507.937 87.77 507.99 86.2554C508.818 86.6732 509.713 86.9343 510.638 87.0239C510.459 88.9786 510.355 89.5158 510.049 90.1574C509.459 91.3363 508.557 91.5452 504.11 91.5452C499.275 91.5452 498.529 91.2617 498.529 89.486V85.8077C498.544 85.2034 498.499 84.5991 498.402 84.0097ZM495.418 81.0253V78.1976C495.425 77.5038 495.396 76.8099 495.314 76.116C496.134 76.2056 496.955 76.2354 497.783 76.2205H509.758C510.593 76.2354 511.422 76.2056 512.25 76.116C512.168 76.8099 512.13 77.5038 512.145 78.1976V81.0253C512.13 81.7416 512.16 82.4503 512.25 83.1591C511.481 83.0771 510.713 83.0397 509.937 83.0547H497.604C496.843 83.0397 496.075 83.0771 495.314 83.1591C495.396 82.4503 495.433 81.7416 495.418 81.0328V81.0253ZM509.348 78.4811H498.149V80.794H509.355V78.4811H509.348ZM507.415 85.9868L505.281 87.6804C504.379 86.5165 503.274 85.5242 502.013 84.7483L504.117 83.286C505.326 84.0395 506.438 84.9497 507.408 85.9868H507.415ZM515.898 89.374L513.376 91.0154C512.309 88.7623 510.944 86.6657 509.318 84.7707L511.683 83.5844C513.257 85.3899 514.667 87.3223 515.898 89.374Z" fill="white"/>
<path d="M541.161 238.428C540.333 238.428 538.348 238.406 537.087 238.338V234.645C538.579 234.78 539.766 234.869 540.907 234.869C541.892 234.869 542.489 234.802 542.489 233.854V232.698L530.977 232.81V229.93L542.489 230.005V228.378L529 228.505V225.327L542.489 225.454V223.827L531.044 223.909V221.074L542.489 221.171V219.627L531.171 219.701V213.277L542.489 213.359V211.763L529.171 211.905V208.368H542.489C542.489 208.368 542.422 207.092 542.34 206.667H547.062C546.98 207.092 546.906 208.368 546.906 208.368H560.41V211.905L546.921 211.763V213.359L558.44 213.285V219.701L546.921 219.627V221.178L558.395 221.119L558.328 225.192L560.753 225.163V228.639L558.336 228.692L558.463 232.691H546.921V234.295C546.921 237.883 546.167 238.421 541.123 238.421M546.958 229.997H553.904V228.371H546.958V229.997ZM546.958 225.439H553.904V223.82H546.958V225.439ZM546.958 217.306H553.143V215.687H546.958V217.306ZM536.49 217.306H542.504V215.687H536.49V217.306Z" fill="#FC6D26"/>
<path d="M525.038 238.428C521.979 236.689 519.256 234.414 516.987 231.72C514.928 229.281 513.369 226.453 512.392 223.416L512.101 222.588L511.825 223.416C510.355 227.811 508.892 230.325 506.244 233.011C504.17 235.145 501.79 236.965 499.186 238.405L496.03 233.944C500.894 231.511 503.759 229.005 505.856 225.371C508.057 221.581 509.168 216.485 509.168 210.226C509.183 209.442 509.139 208.659 509.042 207.883H514.6C514.496 208.689 514.443 209.509 514.458 210.323C514.413 213.725 514.898 217.112 515.891 220.365C517.211 224.058 519.472 227.341 522.449 229.9C524.165 231.422 526.105 232.675 528.194 233.623L525.038 238.428Z" fill="#FC6D26"/>
<path d="M485.279 235.861C482.317 235.861 480.041 235.078 478.519 233.526C476.997 231.974 476.221 229.654 476.221 226.639C476.221 223.625 477.042 221.118 478.639 219.395C480.235 217.671 482.511 216.813 485.353 216.813C488.047 216.813 490.166 217.604 491.658 219.156C493.15 220.708 493.911 222.954 493.911 225.796V227.356H481.459L481.496 227.878C481.496 229.019 481.847 230.131 482.511 231.064C483.205 231.81 484.197 232.198 485.212 232.138C487.278 232.138 488.166 231.138 488.547 230.161H493.657C493.344 231.787 492.441 233.242 491.128 234.257C489.397 235.391 487.345 235.943 485.279 235.831M485.346 220.432C483.085 220.432 481.75 221.7 481.474 224.095L481.414 224.304H488.92L488.897 224.125C488.927 223.118 488.591 222.133 487.957 221.357C487.263 220.708 486.331 220.372 485.376 220.432" fill="#FC6D26"/>
<path d="M467.402 235.57V224.461C467.402 222.61 465.903 221.111 464.052 221.111C462.202 221.111 460.703 222.61 460.703 224.461V235.57H455.428V216.813H460.71V219.037L461.061 218.656C463.538 215.918 467.761 215.702 470.499 218.179C471.76 219.32 472.535 220.894 472.677 222.588L472.707 223.185V235.578H467.402V235.57Z" fill="#FC6D26"/>
<path d="M436.097 238.435C428.061 238.428 421.548 231.914 421.54 223.871V221.223C421.548 213.187 428.061 206.674 436.097 206.659H436.619C444.654 206.667 451.167 213.18 451.182 221.223V223.871C451.182 231.907 444.662 238.428 436.626 238.435H436.104H436.097ZM436.097 212.807C431.448 212.807 427.681 216.575 427.673 221.23V223.879C427.673 228.527 431.448 232.302 436.097 232.302H436.619C441.267 232.287 445.035 228.512 445.027 223.864V221.23C445.027 216.582 441.252 212.807 436.604 212.807H436.097Z" fill="#FC6D26"/>
<path d="M516.816 249.88H465.485C462.337 249.88 459.785 252.432 459.785 255.58V275.948C459.785 279.096 462.337 281.648 465.485 281.648H516.816C519.964 281.648 522.516 279.096 522.516 275.948V255.58C522.516 252.432 519.964 249.88 516.816 249.88Z" fill="#FC6D26"/>
<path d="M466.716 267.436L466.462 264.862C467 264.914 467.567 264.937 468.059 264.937C468.193 264.937 468.335 264.937 468.469 264.907C468.984 264.265 469.163 263.982 469.73 263.213C469.646 263.094 469.526 262.932 469.372 262.728C468.484 261.467 467.477 260.296 466.365 259.236L467.805 257.132C468.079 257.426 468.352 257.727 468.626 258.035C469.006 257.394 469.35 256.737 469.656 256.058C470.006 255.319 470.297 254.551 470.529 253.768L472.998 254.67C472.826 254.924 472.685 255.185 472.558 255.469C471.849 256.983 471.036 258.453 470.141 259.863C470.655 260.505 470.782 260.661 471.118 261.146C472.14 259.677 473.006 258.102 473.684 256.446L476.05 257.655C475.871 257.916 475.691 258.192 475.333 258.811C474.087 260.885 472.737 262.892 471.275 264.825C472.767 264.75 473.2 264.72 474.072 264.646C473.789 263.929 473.632 263.594 473.147 262.564L475.02 261.818C475.871 263.459 476.602 265.16 477.206 266.906L475.05 267.809C474.893 267.294 474.893 267.272 474.766 266.757C474.164 266.827 473.555 266.886 472.938 266.936V275.083C472.909 275.986 472.961 276.889 473.095 277.784H470.29C470.417 276.881 470.469 275.971 470.446 275.061V267.145C469.83 267.18 468.982 267.232 467.902 267.302C467.507 267.331 467.111 267.384 466.723 267.458L466.716 267.436ZM478.303 264.116V262.243C477.803 262.683 477.266 263.086 476.706 263.452C476.4 262.579 475.9 261.788 475.244 261.139C476.452 260.43 477.542 259.535 478.482 258.49C479.676 257.229 480.631 255.767 481.309 254.17H484.107C484.95 255.946 486.159 257.52 487.651 258.796C488.614 259.654 489.658 260.408 490.785 261.034C490.195 261.81 489.748 262.691 489.472 263.631C488.845 263.228 488.248 262.795 487.674 262.318V264.116C486.905 264.034 486.137 263.996 485.361 264.011H480.608C479.832 263.996 479.064 264.034 478.295 264.108L478.303 264.116ZM480.414 261.602H485.607C486.196 261.602 486.48 261.602 486.786 261.572C485.204 260.244 483.846 258.662 482.779 256.894C481.794 258.632 480.548 260.214 479.079 261.572C479.541 261.602 479.795 261.602 480.414 261.602ZM467.38 268.383L469.671 268.771C469.596 271.36 469.253 273.934 468.641 276.456L466.328 275.553C466.985 273.218 467.335 270.808 467.38 268.383ZM473.498 268.794L475.505 268.279C475.975 270.323 476.333 272.39 476.587 274.472L474.483 274.957C474.319 272.875 473.99 270.816 473.505 268.786L473.498 268.794ZM480.056 276.143V277.583H477.281C477.355 276.71 477.407 275.889 477.407 274.934V268.637C477.43 267.854 477.393 267.078 477.303 266.302C477.945 266.354 478.512 266.376 479.511 266.376H486.786C487.487 266.391 488.196 266.362 488.89 266.302C488.808 267.07 488.77 267.839 488.785 268.615V274.658C488.77 275.635 488.815 276.613 488.912 277.59H486.032V276.15H480.049L480.056 276.143ZM480.056 268.771V273.681H486.07V268.771H480.056Z" fill="white"/>
<path d="M508.422 264.914H498.529C498.373 265.354 498.328 265.481 498.119 266.048L495.112 265.69C496.007 263.608 496.731 261.46 497.268 259.266C497.82 257.476 498.179 255.633 498.32 253.768L501.529 254.126C501.238 255.021 500.999 255.931 500.812 256.849H510.243C511.302 256.879 512.354 256.827 513.406 256.692V259.647C512.586 259.572 511.713 259.52 510.377 259.52H500.148C499.917 260.37 499.76 260.96 499.38 262.295H509.071C509.944 262.325 510.825 262.28 511.69 262.169C511.511 263.198 511.459 263.713 511.175 266.921C511.153 267.205 511.123 267.406 511.071 267.794H512.869C513.906 267.794 514.943 267.742 515.98 267.637V270.569C514.951 270.465 513.906 270.413 512.869 270.413H510.683C510.243 273.009 509.758 274.628 509.042 275.658C508.243 276.814 507.244 277.172 504.856 277.172C503.722 277.172 502.849 277.12 500.693 276.963C500.559 275.941 500.268 274.949 499.842 274.009C501.491 274.278 503.155 274.434 504.826 274.472C505.826 274.472 506.341 274.27 506.677 273.725C507.169 272.673 507.512 271.554 507.706 270.413H495.418C494.262 270.413 493.18 270.465 492.158 270.569V267.637C493.247 267.749 494.351 267.802 495.448 267.794H508.124C508.281 266.585 508.333 266.205 508.43 264.914H508.422Z" fill="white"/>
</svg>
