<svg width="139" height="75" viewBox="0 0 139 75" fill="none" xmlns="http://www.w3.org/2000/svg">
<path d="M119.427 31.7129C118.602 31.7129 116.624 31.6904 115.358 31.623V27.9361C116.849 28.071 118.033 28.1609 119.179 28.1609C120.168 28.1609 120.76 28.0935 120.76 27.1418V25.9878L109.265 26.1002V23.2226L120.76 23.2975V21.6789L107.294 21.8063V18.6365L120.76 18.7639V17.1452L109.34 17.2277V14.3951L120.76 14.4925V12.9488L109.46 13.0237V6.60914L120.76 6.69157V5.10291L107.467 5.24529V1.71578H120.768C120.768 1.71578 120.7 0.441852 120.618 0.0147128H125.339C125.257 0.441852 125.182 1.71578 125.182 1.71578H138.663V5.24529L125.189 5.10291V6.69157L136.692 6.61663V13.0237L125.189 12.9488V14.5L136.647 14.44L136.58 18.5091L139 18.4791V21.9487L136.587 22.0011L136.714 25.9878H125.189V27.5914C125.189 31.1734 124.432 31.7129 119.397 31.7129M125.212 23.2975H132.151V21.6789H125.212V23.2975ZM125.212 18.7414H132.151V17.1228H125.212V18.7414ZM125.212 10.6182H131.386V8.99962H125.212V10.6182ZM114.758 10.6182H120.76V8.99962H114.758V10.6182Z" fill="#FC6D26"/>
<path d="M63.6362 29.1505C60.6837 29.1505 58.4056 28.3712 56.8919 26.82C55.3782 25.2688 54.5914 22.9532 54.5914 19.9483C54.5914 16.9433 55.4082 14.4329 57.0043 12.7169C58.6005 11.0008 60.871 10.1391 63.7111 10.1391C66.4014 10.1391 68.5146 10.9259 70.0058 12.4771C71.4971 14.0283 72.2539 16.2689 72.2539 19.109V20.6602H59.8219L59.8594 21.1847C59.8594 22.3238 60.2041 23.4328 60.871 24.3621C61.568 25.1039 62.5571 25.4936 63.5688 25.4336C65.637 25.4336 66.5213 24.4295 66.896 23.4628H71.9917C71.6769 25.0889 70.7777 26.5427 69.4663 27.5469C67.7352 28.6784 65.6895 29.2329 63.6287 29.1205M63.7036 13.751C61.4481 13.751 60.1142 15.0175 59.8369 17.4079L59.777 17.6178H67.2706L67.2482 17.4379C67.2781 16.4338 66.9484 15.4521 66.3114 14.6727C65.6145 14.0208 64.6853 13.6836 63.7336 13.751" fill="#FC6D26"/>
<path d="M45.7863 28.8577V17.767C45.8163 15.9236 44.34 14.4024 42.4966 14.3724C40.6532 14.3424 39.1319 15.8187 39.102 17.6621C39.102 17.6921 39.102 17.7296 39.102 17.7595V28.8502H33.8339V10.1235H39.1095V12.3416L39.4542 11.9669C41.9196 9.23175 46.1385 9.01443 48.8737 11.4873C50.1326 12.6264 50.912 14.2 51.0544 15.8936L51.0843 16.4856V28.8652H45.7863V28.8577Z" fill="#FC6D26"/>
<path d="M14.5377 31.7207C6.512 31.7132 0.00749367 25.2087 0 17.183V14.5377C0.00749367 6.512 6.512 0.00749367 14.5377 0H15.0623C23.088 0.00749367 29.5925 6.512 29.6 14.5377V17.183C29.6 25.2087 23.088 31.7132 15.0623 31.7207H14.5377ZM14.5377 6.12982C9.89913 6.12982 6.12982 9.89164 6.12232 14.5377V17.183C6.12232 21.829 9.89164 25.5909 14.5377 25.5909H15.0623C19.7008 25.5759 23.4552 21.8066 23.4552 17.168V14.5377C23.4552 9.89164 19.6859 6.12982 15.0398 6.12982H14.5377Z" fill="#FC6D26"/>
<path d="M95.0871 43.1408H43.9054C40.7435 43.1408 38.1802 45.7041 38.1802 48.866V69.1364C38.1802 72.2983 40.7435 74.8615 43.9054 74.8615H95.0871C98.249 74.8615 100.812 72.2983 100.812 69.1364V48.866C100.812 45.7041 98.249 43.1408 95.0871 43.1408Z" fill="#FC6D26"/>
</svg>
