<svg width="190" height="21" viewBox="0 0 190 21" fill="none" xmlns="http://www.w3.org/2000/svg">
<path d="M9.10099 1.41235C8.9366 1.68134 8.69003 2.15954 8.36126 2.84697C8.11468 3.34013 7.89051 3.72123 7.71118 4.03505C7.93535 3.99022 10.1396 3.94537 14.324 3.90054C14.974 3.90054 15.4 3.8333 15.8034 3.67639L16.9467 4.81961C16.7001 5.20069 16.6553 5.26795 16.2966 6.29909C15.4896 8.47347 14.324 10.8944 13.3152 12.486C11.0512 16.0277 8.02501 18.5159 3.3176 20.7127C2.84686 19.8833 2.6227 19.6143 1.99505 19.0539C3.90043 18.2918 5.08849 17.6641 6.56796 16.6778C8.27159 15.5122 9.2579 14.6155 10.3787 13.2481C8.76475 11.8135 7.21803 10.6927 5.46956 9.72877L6.70245 8.36137C8.58542 9.43735 9.72864 10.2219 11.5444 11.7014C12.7548 9.81843 13.7187 7.8458 14.4585 5.58176L6.88179 5.67142C5.35748 8.06995 3.78834 9.81843 1.56914 11.6117C1.03115 10.9841 0.762152 10.7823 0 10.334C2.44337 8.54071 4.25909 6.50082 5.69372 3.94537C6.38863 2.66764 6.81453 1.68134 7.01628 0.874356L9.10099 1.41235Z" fill="#333333"/>
<path d="M24.2095 2.10667C24.1199 2.66708 24.0975 3.18265 24.0975 4.41554L24.0078 17.4842C26.5632 17.0359 28.5583 16.3186 30.3516 15.1753C32.526 13.7855 33.983 12.2164 35.2383 9.86269C35.866 10.7593 36.0677 10.9835 36.7402 11.5439C33.6692 16.1617 30.2395 18.3136 24.1647 19.5017C23.4026 19.6362 23.156 19.7034 22.8421 19.8379L21.7886 18.5378C21.9231 18.0894 21.9455 17.8204 21.9679 16.8565L22.0127 4.46037C22.0127 3.33956 21.9829 2.55499 21.9231 2.10667H24.2095Z" fill="#333333"/>
<path d="M38.3542 17.2605C40.1475 17.1933 42.8374 16.4984 44.9221 15.5793C49.2036 13.6739 52.1626 10.4236 54.0007 5.60408C54.6284 6.38865 54.8749 6.63523 55.6595 7.15081C53.8214 11.1409 51.7367 13.7412 48.7329 15.781C46.4464 17.3502 43.9358 18.3365 40.3268 19.1435C39.6095 19.3004 39.4302 19.3452 38.937 19.5021L38.3542 17.2605ZM39.9233 3.36246C42.4115 4.95401 43.8013 6.03 45.4377 7.62155L44.0703 9.30277C42.3891 7.50947 40.5958 6.05241 38.6008 4.86435L39.9233 3.36246Z" fill="#333333"/>
<path d="M60.7928 20.2198C60.9049 19.4801 60.9273 18.8973 60.9273 17.6195V3.96803C60.9273 2.62305 60.9049 2.08507 60.7928 1.50225H63.0569C62.9672 2.15232 62.9448 2.77999 62.9448 4.03529V8.02538C66.1055 9.14619 69.1541 10.5584 72.9648 12.7552L71.844 14.7054C69.8714 13.3156 66.778 11.6568 63.5949 10.3118C63.2586 10.1549 63.1689 10.1325 62.8551 9.93075C62.9224 10.4912 62.9448 10.8722 62.9448 11.7689V17.6195C62.9448 18.8076 62.9672 19.5249 63.0569 20.2198H60.7928Z" fill="#333333"/>
<path d="M83.2763 13.0458C85.9214 10.8715 88.0061 8.47293 89.6874 5.76056C89.7546 5.62607 89.777 5.60364 89.8667 5.46914C89.6425 5.49903 85.5179 5.51397 77.4929 5.51397C76.1704 5.51397 75.5427 5.53638 74.6909 5.62605V3.51894C75.5203 3.65344 76.148 3.67585 77.5153 3.67585H90.2926C91.122 3.67585 91.3237 3.65344 91.7272 3.51894L92.848 4.81907C92.5566 5.11049 92.3997 5.31223 91.929 6.05196C89.7994 9.39198 87.3561 12.194 84.554 14.458C85.3834 15.3771 86.437 16.6997 87.7596 18.4481L86.1008 19.8155C84.9127 17.9326 83.7246 16.3859 81.7968 14.3011C80.1605 12.5078 78.9948 11.4094 77.336 10.0645L78.8379 8.92124C80.1829 10.0196 80.9899 10.7594 81.9089 11.6784L83.2763 13.0458Z" fill="#333333"/>
<path d="M102.958 20.6678C103.047 20.0401 103.07 19.4349 103.07 18.2692V13.3601C103.07 12.9566 103.07 12.7324 103.115 12.3289C102.891 12.5307 102.756 12.6203 102.42 12.8221C100.761 13.7636 98.4969 14.6826 95.6725 15.5569C95.3587 14.7723 95.2242 14.5033 94.7086 13.8084C98.9004 12.8221 102.442 11.2081 105.468 8.92167C106.567 8.11469 107.329 7.41978 108.472 6.25413L108.024 6.29899C107.71 6.3214 107.194 6.34382 107.015 6.34382H99.1694C98.071 6.34382 97.4882 6.36623 96.726 6.47831V4.48325C97.4209 4.59533 98.0262 4.64018 99.1694 4.64018H103.047V2.84687C103.047 1.97263 103.025 1.63639 102.958 1.12082H105.065C104.975 1.65881 104.953 2.01747 104.953 2.82445V4.64018H109.414C109.929 4.64018 110.221 4.59533 110.557 4.48325L111.521 5.60407C111.185 5.89548 111.095 5.96273 110.602 6.54555C109.302 7.98019 107.374 9.70625 105.805 10.8271C109.01 11.9703 111.095 12.9342 113.897 14.593L112.798 16.3639C111.14 15.2206 109.122 14.1447 106.298 12.8669C105.491 12.5083 105.379 12.441 104.93 12.1944C104.945 12.2692 104.96 12.4261 104.975 12.6652C104.998 12.7773 104.998 13.0911 104.998 13.4049V18.2468C104.998 19.5694 105.02 20.0177 105.11 20.6678H102.958Z" fill="#333333"/>
<path d="M117.371 7.55428C119.501 8.42852 121.227 9.30274 123.132 10.5132L122.124 12.3065C120.442 11.0736 118.425 9.99766 116.295 9.16825L117.371 7.55428ZM116.654 17.7537C118.201 17.7312 120.532 17.2157 122.819 16.3414C125.553 15.2879 127.66 13.7188 129.454 11.365C130.709 9.72866 131.449 8.33886 132.121 6.34381C132.794 7.03871 133.04 7.26286 133.802 7.77844C131.83 12.4634 129.095 15.5121 125.127 17.4847C123.536 18.2693 121.137 19.0762 119.299 19.4573C118.918 19.5245 118.537 19.6142 118.089 19.7039C117.618 19.7935 117.528 19.8384 117.192 19.9505L116.654 17.7537ZM119.097 2.17438C121.294 3.07103 122.841 3.83318 124.769 5.02124L123.715 6.79212C122.012 5.55922 119.77 4.37117 118.066 3.78835L119.097 2.17438ZM131.023 1.21047C132.076 2.46578 132.592 3.22795 133.377 4.68501L132.054 5.42474C131.359 4.03493 130.642 2.91413 129.723 1.88298L131.023 1.21047ZM133.578 0C134.632 1.23289 135.125 1.92779 135.932 3.40727L134.632 4.14702C133.982 2.84688 133.309 1.83815 132.323 0.672505L133.578 0Z" fill="#333333"/>
<path d="M150.772 2.66718C150.503 3.09309 150.391 3.31726 150.054 4.10183C148.687 7.39702 147.857 9.03339 146.804 10.6025C148.777 12.2389 150.077 13.4718 151.915 15.422L150.391 17.0584C149.225 15.5341 147.768 14.077 145.616 12.2389C144.585 13.6511 143.307 15.0185 141.85 16.3187C140.281 17.7085 138.891 18.6724 136.649 19.9277C136.179 19.1431 135.954 18.8741 135.26 18.2913C138.869 16.5204 141.648 14.234 144.114 10.9612C142.096 9.36964 140.012 7.97984 138.106 6.92627L139.451 5.51404C140.931 6.39575 142.851 7.67348 145.212 9.34722C146.221 7.73325 147.028 6.11929 147.79 4.23632C148.328 2.91376 148.463 2.51028 148.575 1.86021L150.772 2.66718Z" fill="#333333"/>
<path d="M155.389 17.2605C157.183 17.1933 159.873 16.4984 161.957 15.5793C166.239 13.6739 169.198 10.4236 171.036 5.60408C171.664 6.38865 171.91 6.63523 172.695 7.15081C170.857 11.1409 168.772 13.7412 165.768 15.781C163.482 17.3502 160.971 18.3365 157.362 19.1435C156.645 19.3004 156.465 19.3452 155.972 19.5021L155.389 17.2605ZM156.958 3.36246C159.447 4.95401 160.836 6.03 162.473 7.62155L161.105 9.30277C159.424 7.50947 157.631 6.05241 155.636 4.86435L156.958 3.36246Z" fill="#333333"/>
<path d="M177.828 20.2198C177.94 19.4801 177.962 18.8973 177.962 17.6195V3.96803C177.962 2.62305 177.94 2.08507 177.828 1.50225H180.092C180.002 2.15232 179.98 2.77999 179.98 4.03529V8.02538C183.141 9.14619 186.189 10.5584 190 12.7552L188.879 14.7054C186.907 13.3156 183.813 11.6568 180.63 10.3118C180.294 10.1549 180.204 10.1325 179.89 9.93075C179.958 10.4912 179.98 10.8722 179.98 11.7689V17.6195C179.98 18.8076 180.002 19.5249 180.092 20.2198H177.828Z" fill="#333333"/>
</svg>
