<svg width="71" height="71" viewBox="0 0 71 71" fill="none" xmlns="http://www.w3.org/2000/svg">
<path d="M70.9925 70.6252L70.6701 56.8675C70.6701 56.6726 70.5052 56.5226 70.3103 56.5226C70.1828 56.5226 70.0703 56.5976 70.0104 56.7026L67.0939 61.9807C66.899 61.4334 66.5841 60.9311 66.1717 60.5187L9.34919 3.69619L14.2825 0.974659C14.4549 0.884691 14.5149 0.667264 14.4174 0.502322C14.3574 0.389862 14.245 0.322381 14.1175 0.322381L0.359859 0C0.164927 0 0.00749736 0.149941 0 0.344872C0 0.344872 0 0.352373 0 0.35987L0.322381 14.1175C0.322381 14.3125 0.487308 14.4624 0.68224 14.4624C0.809695 14.4624 0.922174 14.3874 0.982153 14.2825L3.70368 9.34921L60.5337 66.1792C60.9461 66.5916 61.4409 66.9065 61.9957 67.1089L56.7175 70.0254C56.5451 70.1153 56.4851 70.3328 56.5826 70.4977C56.6426 70.6102 56.755 70.6776 56.8825 70.6776L70.6401 71C70.8351 71 70.9925 70.8501 71 70.6551C71 70.6551 71 70.6477 71 70.6402" fill="#FC6D26"/>
</svg>
