<svg width="38" height="21" viewBox="0 0 38 21" fill="none" xmlns="http://www.w3.org/2000/svg">
<path d="M0.183608 4.17704C0.183608 3.09837 0.137703 2.45575 0 1.44593C0.780316 1.49183 1.44589 1.51478 2.61636 1.51478H6.56383C9.11133 1.51478 11.0621 2.18035 12.4392 3.55738C14.0227 5.07211 14.826 7.34419 14.826 10.19C14.826 13.0359 13.9539 15.5604 12.3014 17.167C10.9015 18.5211 8.99658 19.2096 6.58678 19.2096H2.61636C1.39999 19.2096 0.826216 19.2096 0 19.2555C0.137703 18.3604 0.183608 17.6719 0.183608 16.4555V4.17704ZM6.49498 17.2818C8.33102 17.2818 9.70805 16.7768 10.7408 15.6982C11.9572 14.4588 12.5998 12.5539 12.5998 10.2359C12.5998 7.91795 12.026 6.15077 10.8556 4.95734C9.84575 3.92457 8.49167 3.44263 6.56383 3.44263H2.31801V17.2818H6.49498Z" fill="#333333"/>
<path d="M22.5373 18.7276C22.5373 19.7374 22.5832 20.38 22.6521 20.9997H20.6554C20.7472 20.3341 20.7931 19.6915 20.7931 18.7046V11.9572C19.7144 13.0129 19.1177 13.4949 17.7866 14.4588C17.5341 13.8162 17.2587 13.3572 16.8456 12.8522C18.4751 11.8654 19.6915 10.8785 20.9767 9.50148C22.1242 8.26215 22.8357 7.20643 23.6849 5.48515H19.5538C18.8194 5.48515 18.3145 5.50809 17.6719 5.57694V3.76386C18.3374 3.83271 18.7735 3.85566 19.4849 3.85566H20.7931V1.76718C20.7931 1.14752 20.7472 0.48196 20.6554 0H22.6751C22.5833 0.48196 22.5373 1.07867 22.5373 1.81308V3.85566H23.7767C24.4422 3.85566 24.8094 3.83271 25.0848 3.78681L25.9111 4.70484C25.7504 4.95729 25.5898 5.23268 25.3832 5.66874C24.6488 7.20642 24.0062 8.21625 22.9046 9.57032C24.098 10.9244 25.016 11.7047 26.5996 12.6457C26.1865 13.1736 25.957 13.5637 25.6816 14.2063C24.3504 13.2883 23.4554 12.485 22.5373 11.3834V18.7276ZM32.0388 18.1538H35.4355C36.6289 18.1538 37.3404 18.1079 37.9601 18.0161V20.0587C37.2256 19.9439 36.3994 19.898 35.4355 19.898H27.2881C26.2783 19.898 25.5209 19.9439 24.7865 20.0587V18.0161C25.4521 18.1079 26.1176 18.1538 27.311 18.1538H30.2487V8.60642H28.1373C27.311 8.60642 26.5766 8.65232 25.8881 8.72117V6.79332C26.5078 6.88512 27.1504 6.93104 28.1373 6.93104H30.2487V2.22617C30.2487 1.42291 30.2028 0.918015 30.088 0.0688486H32.1995C32.0618 0.940966 32.0388 1.37701 32.0388 2.22617V6.93104H34.9076C35.9175 6.93104 36.5142 6.90807 37.1568 6.79332V8.72117C36.4683 8.65232 35.7568 8.60642 34.9076 8.60642H32.0388V18.1538Z" fill="#333333"/>
</svg>
