<svg width="139" height="75" viewBox="0 0 139 75" fill="none" xmlns="http://www.w3.org/2000/svg">
<path d="M119.427 31.7129C118.602 31.7129 116.624 31.6904 115.358 31.623V27.9361C116.849 28.071 118.033 28.1609 119.179 28.1609C120.168 28.1609 120.76 28.0935 120.76 27.1418V25.9878L109.265 26.1002V23.2226L120.76 23.2975V21.6789L107.294 21.8063V18.6365L120.76 18.7639V17.1452L109.34 17.2277V14.3951L120.76 14.4925V12.9488L109.46 13.0237V6.60914L120.76 6.69157V5.10291L107.467 5.24529V1.71578H120.768C120.768 1.71578 120.7 0.441852 120.618 0.0147128H125.339C125.257 0.441852 125.182 1.71578 125.182 1.71578H138.663V5.24529L125.189 5.10291V6.69157L136.692 6.61663V13.0237L125.189 12.9488V14.5L136.647 14.44L136.58 18.5091L139 18.4791V21.9487L136.587 22.0011L136.714 25.9878H125.189V27.5914C125.189 31.1734 124.432 31.7129 119.397 31.7129M125.212 23.2975H132.151V21.6789H125.212V23.2975ZM125.212 18.7414H132.151V17.1228H125.212V18.7414ZM125.212 10.6182H131.386V8.99962H125.212V10.6182ZM114.758 10.6182H120.76V8.99962H114.758V10.6182Z" fill="#FC6D26"/>
<path d="M63.6362 29.1505C60.6837 29.1505 58.4056 28.3712 56.8919 26.82C55.3782 25.2688 54.5914 22.9532 54.5914 19.9483C54.5914 16.9433 55.4082 14.4329 57.0043 12.7169C58.6005 11.0008 60.871 10.1391 63.7111 10.1391C66.4014 10.1391 68.5146 10.9259 70.0058 12.4771C71.4971 14.0283 72.2539 16.2689 72.2539 19.109V20.6602H59.8219L59.8594 21.1847C59.8594 22.3238 60.2041 23.4328 60.871 24.3621C61.568 25.1039 62.5571 25.4936 63.5688 25.4336C65.637 25.4336 66.5213 24.4295 66.896 23.4628H71.9917C71.6769 25.0889 70.7777 26.5427 69.4663 27.5469C67.7352 28.6784 65.6895 29.2329 63.6287 29.1205M63.7036 13.751C61.4481 13.751 60.1142 15.0175 59.8369 17.4079L59.777 17.6178H67.2706L67.2482 17.4379C67.2781 16.4338 66.9484 15.4521 66.3114 14.6727C65.6145 14.0208 64.6853 13.6836 63.7336 13.751" fill="#FC6D26"/>
<path d="M45.7863 28.8577V17.767C45.8163 15.9236 44.34 14.4024 42.4966 14.3724C40.6532 14.3424 39.1319 15.8187 39.102 17.6621C39.102 17.6921 39.102 17.7296 39.102 17.7595V28.8502H33.8339V10.1235H39.1095V12.3416L39.4542 11.9669C41.9196 9.23175 46.1385 9.01443 48.8737 11.4873C50.1326 12.6264 50.912 14.2 51.0544 15.8936L51.0843 16.4856V28.8652H45.7863V28.8577Z" fill="#FC6D26"/>
<path d="M14.5377 31.7207C6.512 31.7132 0.00749367 25.2087 0 17.183V14.5377C0.00749367 6.512 6.512 0.00749367 14.5377 0H15.0623C23.088 0.00749367 29.5925 6.512 29.6 14.5377V17.183C29.6 25.2087 23.088 31.7132 15.0623 31.7207H14.5377ZM14.5377 6.12982C9.89913 6.12982 6.12982 9.89164 6.12232 14.5377V17.183C6.12232 21.829 9.89164 25.5909 14.5377 25.5909H15.0623C19.7008 25.5759 23.4552 21.8066 23.4552 17.168V14.5377C23.4552 9.89164 19.6859 6.12982 15.0398 6.12982H14.5377Z" fill="#FC6D26"/>
<path d="M95.0871 43.1408H43.9054C40.7435 43.1408 38.1802 45.7041 38.1802 48.866V69.1364C38.1802 72.2983 40.7435 74.8615 43.9054 74.8615H95.0871C98.249 74.8615 100.812 72.2983 100.812 69.1364V48.866C100.812 45.7041 98.249 43.1408 95.0871 43.1408Z" fill="#FC6D26"/>
<path d="M56.6296 59.2079H62.3023C63.2016 59.2079 64.2807 59.1555 64.9176 59.103C64.8427 59.6051 64.7977 60.1072 64.7902 60.6167C64.6104 64.6183 64.3781 66.6716 63.9435 68.2902C63.4789 69.9613 62.3548 70.5458 59.6571 70.5458C59.17 70.5458 58.8628 70.5159 57.1392 70.4409C57.0718 69.4443 56.847 68.4701 56.4723 67.5409C57.4689 67.6982 58.4656 67.7807 59.4772 67.7957C60.8411 67.7957 61.0434 67.6683 61.2982 66.6641C61.6579 65.0455 61.8377 63.3969 61.8377 61.7408H56.2175C55.7004 64.0263 54.4565 66.0871 52.6805 67.6158C50.9494 69.0396 48.9636 70.1262 46.8279 70.8006C46.4233 69.8189 45.8463 68.9197 45.1119 68.1553C47.1576 67.6982 49.076 66.7765 50.7096 65.4576C51.9086 64.5059 52.7929 63.2095 53.2275 61.7408H49.7654C48.7538 61.7258 47.7421 61.7782 46.738 61.8906V59.0655C47.7347 59.163 48.7388 59.2079 49.743 59.1929H53.7446C53.8195 58.4585 53.857 57.7242 53.8495 56.9898C53.8495 56.69 53.8195 56.3903 53.7745 56.0905H56.9069C56.817 56.5926 56.7645 57.0947 56.7495 57.6043C56.7196 58.3012 56.6971 58.6084 56.6446 59.2004L56.6296 59.2079ZM47.5473 52.8158H49.2933C48.7013 51.2721 47.8621 49.8333 46.8054 48.5594L49.3983 47.5852C50.4474 48.8741 51.3166 50.3129 51.9611 51.8416L49.5781 52.8158H59.6346C60.7886 51.1372 61.7328 49.3163 62.4297 47.3979L65.2549 48.4245C65.1 48.6793 64.7078 49.3637 64.0783 50.4778C63.5913 51.3021 63.0742 52.1489 62.6396 52.8158H64.3856C65.2623 52.8308 66.1316 52.7933 67.0009 52.7109C66.9184 53.4078 66.8885 54.1122 66.896 54.8166V56.69C66.8885 57.3345 66.9259 57.979 67.0234 58.6159H64.1533V55.3037H47.8096V58.6159H44.9395C45.0369 57.979 45.0819 57.3345 45.0744 56.69V54.8466C45.0894 54.1347 45.0519 53.4228 44.9695 52.7184C45.8313 52.8008 46.693 52.8308 47.5548 52.8158H47.5473ZM58.0909 51.4295L55.4456 52.4336C54.8986 50.875 54.1417 49.3987 53.19 48.0498L55.7829 47.2555C56.6746 48.5819 57.4465 49.9757 58.0909 51.437V51.4295Z" fill="white"/>
<path d="M83.7567 63.5685H81.7784C81.1039 63.5535 80.4295 63.5835 79.7551 63.6734V61.208C79.5003 61.8525 79.3954 62.0323 79.0657 62.7217C78.5336 62.1447 77.8966 61.6651 77.1922 61.3129C77.8217 60.2938 78.3088 59.1997 78.6535 58.0532H77.0274L77.0798 68.4394C77.1473 69.0614 76.9524 69.6834 76.5403 70.1555C76.1806 70.4927 75.3863 70.665 74.1573 70.665C73.5953 70.665 72.7935 70.635 72.0291 70.5901C71.9991 69.7283 71.8193 68.874 71.4896 68.0797C72.2464 68.2221 73.0033 68.312 73.7751 68.3345C74.4646 68.3345 74.6219 68.2296 74.5994 67.72L74.5695 61.5902C73.7227 63.6584 72.4338 65.5169 70.8001 67.0306C70.5079 66.0414 70.0733 65.0972 69.5187 64.2355C71.4971 62.6093 72.9958 60.4661 73.8576 58.0532H72.0891C71.3697 58.0307 70.6503 58.0757 69.9309 58.1806V55.4604C70.6952 55.5653 71.4671 55.6102 72.2389 55.5878H74.8018C73.7452 54.5312 72.6061 53.5645 71.3922 52.6877L72.9808 51.1515C74.4196 52.2306 74.547 52.3055 75.1839 52.8676C75.9933 52.2306 76.6902 51.4662 77.2597 50.612H72.7935C72.0591 50.6045 71.3172 50.6344 70.5903 50.7169V48.0716C71.3921 48.154 72.194 48.1915 73.0033 48.1765H77.3871C78.114 48.1915 78.8408 48.169 79.5677 48.1016L80.9541 49.5928C80.8492 49.7202 80.6468 49.975 80.392 50.3347C79.3429 51.8035 78.1365 53.1523 76.8026 54.3663C77.0349 54.6211 77.1398 54.7035 77.3646 54.9808L76.8026 55.5953H78.3388C78.9607 55.6028 79.5902 55.5803 80.2122 55.5203L81.3138 56.8842C81.1864 57.139 81.0815 57.4087 81.0065 57.6785C82.4753 57.3413 83.8916 56.8092 85.218 56.0898C84.3937 55.318 83.6818 54.4262 83.1122 53.4446C82.5053 54.2389 81.8458 54.9958 81.1339 55.7002C80.5794 55.0182 79.9199 54.4337 79.1856 53.9541C80.8417 52.6353 82.1531 50.9342 83.0073 49.0008C83.3146 48.3863 83.5319 47.7269 83.6518 47.0525L86.3195 47.562C86.1697 47.8543 86.0423 48.154 85.9373 48.4613C85.81 48.791 85.7051 49.0233 85.5027 49.4654H90.8157C91.7225 49.4729 92.6292 49.4355 93.5359 49.338V51.9533C92.9215 51.8784 92.307 51.8409 91.6925 51.8484C91.138 53.3547 90.2762 54.7335 89.1521 55.88C90.7108 56.6069 92.3744 57.0865 94.0755 57.3188C93.5434 58.1431 93.1463 59.0423 92.899 59.9865C90.8607 59.507 88.9123 58.7051 87.1289 57.6036C86.3795 58.1131 85.5777 58.5553 84.7459 58.915L87.3612 58.9449C87.3387 59.0573 87.3312 59.1697 87.3387 59.2746C87.3087 59.402 87.2862 59.5594 87.2637 59.7393C87.2637 59.8666 87.2413 59.9191 87.2113 60.1514C87.1813 60.5111 87.1363 60.6909 87.0839 61.1556H90.7258C91.4002 61.178 92.0822 61.1481 92.7491 61.0506C92.6892 61.4253 92.6592 61.8 92.6442 62.1822C92.5693 64.3554 92.2695 66.5135 91.7449 68.6267C91.2354 70.1929 90.5684 70.6051 88.5601 70.6051C87.6534 70.5976 86.7467 70.5376 85.8399 70.4252C85.7875 69.511 85.5851 68.6118 85.2479 67.7575C86.2221 67.9673 87.2038 68.0872 88.2004 68.1172C89.0247 68.1172 89.2795 67.8099 89.5643 66.4985C89.7516 65.5393 89.864 64.5727 89.894 63.5985H86.5294C85.4278 67.113 83.397 69.2187 79.3429 70.9872C78.9158 70.1555 78.3837 69.3911 77.7543 68.7017C81.029 67.4652 82.7226 66.0264 83.7492 63.591L83.7567 63.5685ZM81.9282 61.1331H84.3937C84.4686 60.4961 84.5136 59.8517 84.521 59.2072C84.521 59.1398 84.521 59.0648 84.4986 59.0049C83.5244 59.417 82.9849 59.5969 81.576 60.054C81.3437 59.5144 81.059 58.9974 80.7293 58.5178C80.392 59.5969 80.1897 60.1364 79.83 61.0581C80.5269 61.1256 81.2313 61.1481 81.9357 61.1331H81.9282ZM88.9348 51.8409H84.9032C85.4503 52.905 86.1996 53.8417 87.1064 54.6136C87.9232 53.8417 88.5451 52.8975 88.9273 51.8409H88.9348Z" fill="white"/>
</svg>
