<svg width="96" height="67" viewBox="0 0 96 67" fill="none" xmlns="http://www.w3.org/2000/svg">
<path d="M45.1676 33.3251C45.1676 44.6094 43.3196 52.9671 39.6235 58.383C35.9274 63.8064 30.2324 66.5143 22.5385 66.5143C14.8447 66.5143 9.46649 63.7159 5.67989 58.119C1.8933 52.522 0 44.2549 0 33.3251C0 22.3952 1.8405 13.5171 5.52149 8.10875C9.21003 2.7004 14.8824 0 22.5385 0C30.1947 0 35.6257 2.82863 39.4424 8.4859C43.2592 14.1432 45.1676 22.4254 45.1676 33.3251ZM13.5699 33.3251C13.5699 41.2528 14.2563 46.9327 15.6216 50.3647C16.9944 53.7968 19.295 55.5166 22.5385 55.5166C25.782 55.5166 28.0223 53.7817 29.4329 50.3044C30.8509 46.8271 31.5525 41.1698 31.5525 33.3326C31.5525 25.4954 30.8359 19.7099 29.4102 16.2477C27.9771 12.7854 25.6915 11.0581 22.5385 11.0581C19.3856 11.0581 17.0246 12.7854 15.6442 16.2477C14.2563 19.7099 13.5699 25.4049 13.5699 33.3326V33.3251Z" fill="#333333"/>
<path d="M75.5358 24.3567C81.7814 24.3567 86.7523 26.1066 90.4559 29.6141C94.152 33.1216 96 37.9265 96 44.0213C96 51.24 93.7748 56.7916 89.3244 60.6838C84.8741 64.576 78.5077 66.5146 70.2331 66.5146C63.0446 66.5146 57.2364 65.353 52.8162 63.0222V51.2249C55.147 52.4619 57.855 53.4727 60.9476 54.2496C64.0402 55.0341 66.9745 55.4188 69.7428 55.4188C78.0778 55.4188 82.2491 52.0018 82.2491 45.1678C82.2491 38.3339 77.9345 35.3996 69.2977 35.3996C67.7363 35.3996 66.009 35.558 64.1232 35.8673C62.2375 36.1766 60.7062 36.5085 59.5295 36.863L54.091 33.9438L56.5198 1.01855H91.5647V12.5971H68.4906L67.2988 25.2844L68.8451 24.9752C70.6404 24.5603 72.8656 24.3567 75.5207 24.3567H75.5358Z" fill="#333333"/>
</svg>
