<svg width="140" height="75" viewBox="0 0 140 75" fill="none" xmlns="http://www.w3.org/2000/svg">
<path d="M119.638 31.7734C118.809 31.7734 116.824 31.751 115.563 31.6838V27.9902C117.056 28.1245 118.242 28.214 119.384 28.214C120.369 28.214 120.966 28.1469 120.966 27.1992V26.0426L109.452 26.1545V23.2742L120.966 23.3488V21.7221L107.475 21.849V18.6702L120.966 18.797V17.1703L109.519 17.2524V14.4169L120.966 14.5139V12.9692L109.646 13.0439V6.6191L120.966 6.70119V5.10432L107.646 5.2461V1.70914H120.966C120.966 1.70914 120.899 0.433145 120.817 0.00781362H125.54C125.458 0.433145 125.383 1.70914 125.383 1.70914H138.889V5.2461L125.398 5.10432V6.70119L136.919 6.62657V13.0439L125.398 12.9692V14.5213L136.875 14.4616L136.808 18.5358L139.233 18.506V21.9833L136.815 22.0355L136.942 26.0351H125.398V27.6394C125.398 31.2286 124.645 31.7659 119.6 31.7659M125.435 23.3414H132.383V21.7147H125.435V23.3414ZM125.435 18.7821H132.383V17.1629H125.435V18.7821ZM125.435 10.6486H131.621V9.02932H125.435V10.6486ZM114.966 10.6486H120.981V9.02932H114.966V10.6486Z" fill="#FC6D26"/>
<path d="M103.512 31.7731C100.453 30.0344 97.7293 27.7585 95.4608 25.0648C93.4013 22.6247 91.8418 19.7966 90.8643 16.7596L90.5732 15.9313L90.2972 16.7596C88.8272 21.1547 87.3646 23.6694 84.7156 26.3557C82.6412 28.4898 80.2608 30.3105 77.6566 31.7507L74.5002 27.2884C79.3654 24.8558 82.2308 22.3486 84.3276 18.7146C86.5289 14.924 87.6407 9.82744 87.6407 3.56685C87.6556 2.78335 87.6109 1.99985 87.5139 1.22381H93.073C92.9685 2.0297 92.9163 2.85051 92.9312 3.66386C92.8864 7.06651 93.3715 10.4542 94.3639 13.7077C95.6847 17.4013 97.9457 20.6846 100.923 23.2441C102.639 24.7663 104.579 26.0199 106.669 26.9676L103.512 31.7731Z" fill="#FC6D26"/>
<path d="M63.7475 29.2061C60.7851 29.2061 58.5092 28.4226 56.987 26.8705C55.4648 25.3184 54.6887 22.9978 54.6887 19.9831C54.6887 16.9685 55.5096 14.4613 57.1064 12.7376C58.7033 11.0139 60.9792 10.1558 63.8222 10.1558C66.516 10.1558 68.6351 10.9467 70.1275 12.4988C71.6199 14.0509 72.381 16.297 72.381 19.14V20.6995H59.927L59.9643 21.2218C59.9643 22.3635 60.315 23.4754 60.9791 24.4081C61.6731 25.1543 62.6656 25.5423 63.6804 25.4826C65.7474 25.4826 66.6353 24.4827 67.0159 23.5052H72.1273C71.8139 25.1319 70.911 26.587 69.5977 27.6018C67.8666 28.736 65.8145 29.2882 63.7475 29.1763M63.8147 13.7748C61.5537 13.7748 60.2181 15.0433 59.942 17.4386L59.8823 17.6476H67.389L67.3666 17.4685C67.3965 16.4611 67.0607 15.4761 66.4264 14.7001C65.7324 14.0509 64.7997 13.7151 63.8445 13.7748" fill="#FC6D26"/>
<path d="M45.8686 28.915V17.8042C45.8686 15.9536 44.3688 14.4537 42.5182 14.4537C40.6677 14.4537 39.1678 15.9536 39.1678 17.8042V28.915H33.8922V10.1556H39.1753V12.3793L39.526 11.9988C42.0034 9.26021 46.2268 9.04381 48.9654 11.5212C50.2265 12.6629 51.0025 14.2373 51.1443 15.9312L51.1741 16.5282V28.9225H45.8686V28.915Z" fill="#FC6D26"/>
<path d="M14.5583 31.7805C6.52176 31.773 0.00746196 25.2587 0 17.2147V14.5658C0.00746196 6.52923 6.52176 0.0149239 14.5583 0H15.0806C23.1172 0.00746196 29.6314 6.52177 29.6463 14.5658V17.2147C29.6463 25.2513 23.1246 31.773 15.0881 31.7805H14.5658H14.5583ZM14.5583 6.14867C9.90949 6.14867 6.14117 9.91694 6.13371 14.5732V17.2222C6.13371 21.871 9.90949 25.6467 14.5583 25.6467H15.0806C19.7294 25.6318 23.4977 21.8561 23.4902 17.2073V14.5732C23.4902 9.9244 19.7145 6.14867 15.0657 6.14867H14.5583Z" fill="#FC6D26"/>
<path d="M95.2892 43.2269H43.951C40.8024 43.2269 38.25 45.7793 38.25 48.9278V69.299C38.25 72.4475 40.8024 74.9999 43.951 74.9999H95.2892C98.4378 74.9999 100.99 72.4475 100.99 69.299V48.9278C100.99 45.7793 98.4378 43.2269 95.2892 43.2269Z" fill="#FC6D26"/>
<path d="M45.1822 60.7855L44.9285 58.2111C45.4657 58.2633 46.0328 58.2857 46.5253 58.2857C46.6596 58.2857 46.8014 58.2857 46.9357 58.2558C47.4506 57.6141 47.6297 57.3306 48.1968 56.562C48.1122 56.4426 47.9928 56.2809 47.8386 56.077C46.9506 54.8159 45.9433 53.6444 44.8315 52.5848L46.2716 50.4805C46.5452 50.774 46.8188 51.075 47.0924 51.3834C47.473 50.7417 47.8162 50.085 48.1222 49.406C48.4729 48.6672 48.7639 47.8987 48.9952 47.1151L51.4651 48.018C51.2935 48.2717 51.1517 48.5329 51.0249 48.8165C50.316 50.3313 49.5027 51.8012 48.6072 53.2116C49.1221 53.8533 49.2489 54.01 49.5847 54.495C50.607 53.025 51.4726 51.4505 52.1516 49.794L54.5171 51.0028C54.338 51.264 54.1589 51.5401 53.8007 52.1594C52.5546 54.2339 51.2039 56.2411 49.7414 58.1738C51.2338 58.0992 51.6666 58.0693 52.5396 57.9947C52.2561 57.2783 52.0994 56.9426 51.6144 55.9128L53.4873 55.1666C54.338 56.8082 55.0693 58.5095 55.6737 60.2556L53.5172 61.1586C53.3605 60.6437 53.3605 60.6213 53.2336 60.1064C52.6317 60.1761 52.0223 60.2358 51.4055 60.2855V68.434C51.3756 69.3369 51.4278 70.2398 51.5621 71.1352H48.7565C48.8833 70.2323 48.9355 69.3219 48.9131 68.4116V60.4944C48.2963 60.5293 47.4481 60.5815 46.3686 60.6511C45.9731 60.681 45.5776 60.7332 45.1896 60.8078L45.1822 60.7855ZM56.7706 57.4649V55.5919C56.2707 56.0322 55.7334 56.4351 55.1737 56.8008C54.8678 55.9277 54.3678 55.1368 53.7112 54.4876C54.92 53.7787 56.0095 52.8832 56.9497 51.8386C58.1436 50.5775 59.0987 49.115 59.7777 47.5181H62.576C63.4192 49.294 64.628 50.8685 66.1204 52.1445C67.083 53.0026 68.1277 53.7563 69.2544 54.3831C68.6649 55.1591 68.2172 56.0397 67.9411 56.9799C67.3143 56.5769 66.7174 56.1441 66.1428 55.6665V57.4649C65.3742 57.3828 64.6056 57.3455 63.8296 57.3604H59.0763C58.3003 57.3455 57.5317 57.3828 56.7631 57.4574L56.7706 57.4649ZM58.8823 54.9502H64.0758C64.6653 54.9502 64.9489 54.9502 65.2548 54.9204C63.6729 53.5921 62.3148 52.0102 61.2478 50.2417C60.2628 51.9803 59.0166 53.5623 57.5466 54.9204C58.0093 54.9502 58.263 54.9502 58.8823 54.9502ZM45.8463 61.7331L48.1371 62.1211C48.0625 64.7104 47.7192 67.2848 47.1074 69.807L44.7942 68.9041C45.4508 66.5685 45.8015 64.1583 45.8463 61.7331ZM51.9651 62.1435L53.9724 61.6286C54.4425 63.6732 54.8007 65.7402 55.0544 67.8221L52.9501 68.3071C52.7859 66.2252 52.4576 64.1657 51.9726 62.1361L51.9651 62.1435ZM58.5241 69.4936V70.9337H55.7483C55.8229 70.0607 55.8752 69.2399 55.8752 68.2847V61.9868C55.8975 61.2033 55.8602 60.4273 55.7707 59.6512C56.4124 59.7035 56.9795 59.7259 57.9794 59.7259H65.2548C65.9563 59.7408 66.6652 59.7109 67.3591 59.6512C67.277 60.4198 67.2397 61.1884 67.2546 61.9644V68.0086C67.2397 68.9862 67.2845 69.9637 67.3815 70.9412H64.5012V69.501H58.5167L58.5241 69.4936ZM58.5241 62.1211V67.0311H64.5385V62.1211H58.5241Z" fill="white"/>
<path d="M86.8945 58.2633H77C76.8433 58.7036 76.7985 58.8304 76.5896 59.3975L73.5824 59.0393C74.4778 56.9575 75.2016 54.8084 75.7389 52.6146C76.2911 50.8237 76.6492 48.9806 76.791 47.1151L79.9997 47.4733C79.7087 48.3687 79.4699 49.2791 79.2833 50.1969H88.7152C89.7748 50.2268 90.827 50.1745 91.8791 50.0402V52.9952C91.0583 52.9206 90.1852 52.8683 88.8495 52.8683H78.6192C78.3879 53.719 78.2312 54.3085 77.8506 55.6442H87.5437C88.4168 55.674 89.2973 55.6292 90.1629 55.5173C89.9838 56.5471 89.9315 57.0619 89.648 60.2706C89.6256 60.5541 89.5957 60.7556 89.5435 61.1436H91.3418C92.379 61.1436 93.4163 61.0914 94.4535 60.9869V63.9195C93.4237 63.815 92.379 63.7628 91.3418 63.7628H89.1555C88.7152 66.3595 88.2302 67.9788 87.5139 69.0085C86.7154 70.1651 85.7155 70.5233 83.3277 70.5233C82.1935 70.5233 81.3204 70.4711 79.1639 70.3144C79.0296 69.2921 78.7386 68.2997 78.3133 67.3594C79.9624 67.6281 81.6264 67.7848 83.2978 67.8221C84.2978 67.8221 84.8126 67.6206 85.1484 67.0759C85.6409 66.0238 85.9841 64.9045 86.1782 63.7628H73.8883C72.7317 63.7628 71.6497 63.815 70.6275 63.9195V60.9869C71.7169 61.0989 72.8213 61.1511 73.9182 61.1436H86.596C86.7527 59.9348 86.805 59.5542 86.902 58.2633H86.8945Z" fill="white"/>
</svg>
