<svg width="15" height="21" viewBox="0 0 15 21" fill="none" xmlns="http://www.w3.org/2000/svg">
<path fill-rule="evenodd" clip-rule="evenodd" d="M14.5126 7.24594C14.2893 8.6101 14.065 10.05 13.8568 11.5537C12.7595 12.5079 11.3313 13.5803 11.0648 13.5505C10.7962 13.5207 4.76245 13.297 4.76245 13.297C4.76245 13.297 9.86886 10.4174 9.76024 7.62824C9.65262 4.83907 9.25131 0 9.25131 0C9.25131 0 13.709 4.27784 13.8548 4.82207C13.9222 5.07443 14.227 6.12669 14.5126 7.24594ZM13.2966 16.2842C13.184 17.4535 13.0924 18.6249 13.022 19.7975C11.619 20.2693 9.70593 20.7773 7.64304 20.9391C3.47705 21.265 -0.00903456 20.1841 1.75894e-05 19.9977L10.5759 16.1948L13.2966 16.2842Z" fill="#FD6C26"/>
</svg>
