<svg width="34" height="34" viewBox="0 0 34 34" fill="none" xmlns="http://www.w3.org/2000/svg">
<path d="M18.5845 24.3415C18.3835 24.3159 18.1774 24.2902 17.9662 24.2624H17.9652C17.8874 24.2517 17.8086 24.2421 17.7278 24.2314C17.6136 24.2165 17.4975 24.2004 17.3803 24.1843L17.2702 24.1694H17.2671L17.159 24.1543L17.155 24.1533L17.0479 24.1384H17.0459L16.9368 24.1223H16.9357C16.8317 24.1073 16.7256 24.0913 16.6185 24.0752H16.6175C16.5508 24.0645 16.4821 24.0538 16.4134 24.0431C16.3356 24.0314 16.2558 24.0186 16.177 24.0057C15.3436 23.2355 15.4112 23.367 15.1011 23.1499C15.0344 22.3348 14.9425 21.4758 14.8758 20.7238V20.7153H14.8748C14.8697 20.6575 14.8647 20.5998 14.8606 20.5431V20.5409L14.8445 20.3527V20.3505C14.8384 20.282 14.8334 20.2136 14.8283 20.1483V20.1452C14.8233 20.0681 14.8172 19.9922 14.8121 19.9195V19.9076C14.8061 19.8114 14.8 19.7183 14.796 19.6306V19.6231C14.7909 19.5012 14.7879 19.3867 14.7869 19.2808C14.7869 19.2808 16.5721 18.025 16.4842 16.567C16.4619 16.199 16.4195 15.9262 16.3649 15.7251C16.2053 15.1292 15.9426 15.155 15.8184 15.1817C15.7295 15.1999 15.4173 15.3668 15.1455 15.5176C15.0536 15.5689 14.9657 15.6181 14.892 15.6598L14.7808 15.723L14.698 15.7711C14.3585 13.8777 14.4363 10.1038 11.851 9.89419C11.851 9.89419 11.2287 10.0374 10.2649 10.1776C9.87594 10.2344 9.43142 10.2899 8.95053 10.336C8.83334 10.3466 8.71312 10.3573 8.59188 10.368H8.5838V10.3691C8.35447 10.3873 8.11705 10.4034 7.87459 10.4162H7.87155C7.75032 10.4226 7.62707 10.4279 7.5028 10.4322H7.49068C7.04717 10.4472 6.58951 10.4493 6.12782 10.4322H6.1167C6.00961 10.4279 5.90252 10.4237 5.79543 10.4172L5.77826 10.4162C5.63581 10.4076 5.49438 10.398 5.35193 10.3862L5.33577 10.3852C5.22969 10.3755 5.1236 10.3648 5.01753 10.3542H5.01551C4.85184 10.336 4.68919 10.3156 4.52653 10.291V10.2899H4.52249C4.39621 10.2707 4.27093 10.2504 4.14566 10.2269V10.2258H4.14162C3.98907 10.1983 3.83752 10.1669 3.68699 10.1316L3.68093 10.1306C3.55465 10.1017 3.43038 10.0696 3.30612 10.0353C3.26874 10.0246 3.23136 10.015 3.19499 10.0043C3.14245 9.98936 3.08891 9.97329 3.03638 9.95723C3.02021 9.95188 3.00505 9.94763 2.98889 9.94228V9.94117H2.98687L2.94141 9.92622L2.93737 9.92521C2.92323 9.92086 2.90807 9.91551 2.89393 9.91127V9.90914H2.88786C2.87372 9.9049 2.86058 9.89955 2.84644 9.8952V9.89308H2.8424C2.82826 9.88773 2.8131 9.88348 2.79896 9.87813V9.87702H2.79694C2.73936 9.85671 2.68176 9.8364 2.62519 9.81498V9.81387H2.62317L2.54538 9.78508V9.78286H2.53932C2.51507 9.77326 2.48981 9.76366 2.46658 9.75407V9.75184H2.46052C2.43526 9.74224 2.41102 9.73154 2.38778 9.72194V9.72083H2.38474C2.27765 9.67597 2.17259 9.62778 2.06954 9.57858L2.03721 9.56252H2.0362C2.02609 9.55716 2.01599 9.55292 2.00589 9.54757V9.54645C1.98568 9.53584 1.96245 9.52514 1.94225 9.51443C1.89476 9.48978 1.84728 9.46412 1.7998 9.43845V9.43522H1.79474C1.78666 9.42987 1.77757 9.42452 1.76948 9.42027V9.41916C1.72301 9.3935 1.67655 9.36683 1.63007 9.33894C1.52501 9.2659 1.42297 9.18781 1.32497 9.10466V9.10153H1.32194C1.27951 9.06516 1.2391 9.02879 1.19767 8.99131L1.18252 8.97636V8.97524C1.12291 8.91968 1.06431 8.86078 1.00875 8.80198V8.80087C0.918834 8.70459 0.832961 8.60407 0.75517 8.50031C0.577361 8.26532 0.428855 8.00902 0.312673 7.73867C0.250036 7.59531 0.197496 7.44882 0.154055 7.2991V7.29586C0.13688 7.23807 0.120718 7.18029 0.106575 7.12149C0.0813177 7.01339 0.0600978 6.90428 0.0439334 6.79416V6.7888C0.0307998 6.7 0.0186788 6.60908 0.0116069 6.51926V6.50421C-0.00758836 6.25073 -0.00354843 5.99079 0.0277701 5.72761C0.0358523 5.65487 0.0469713 5.58001 0.0590946 5.50626V5.50515C0.0712179 5.42604 0.0873799 5.34795 0.105565 5.26874L0.106575 5.26662C0.111626 5.24632 0.115667 5.22601 0.120718 5.2056H0.122738V5.19812C0.140923 5.12114 0.162143 5.04517 0.185379 4.96819L0.186389 4.96384C0.213666 4.86979 0.24599 4.77664 0.280339 4.68258L0.281349 4.68046C0.309637 4.60237 0.341968 4.52316 0.375307 4.44506L0.376317 4.44406C0.410666 4.36485 0.447038 4.28675 0.485428 4.20765L0.486438 4.20442C0.490479 4.19472 0.49654 4.18512 0.500582 4.17552H0.502601V4.17229L0.516745 4.14451L0.517754 4.14128C0.522806 4.13168 0.527857 4.12198 0.532908 4.11238L0.533918 4.11137C0.563216 4.05358 0.594537 3.9958 0.627876 3.93801L0.628885 3.93589C0.673338 3.85678 0.720819 3.77869 0.771333 3.70059V3.69948C0.780426 3.68342 0.790528 3.66847 0.800631 3.6524H0.803667V3.64917C0.858222 3.56471 0.915806 3.48126 0.976422 3.39892L0.977432 3.39781L1.0239 3.33578L1.02491 3.33366C1.08048 3.25981 1.13807 3.18606 1.19767 3.11332L1.19868 3.11221C1.22495 3.08119 1.25121 3.04907 1.27849 3.01805C1.3189 2.96996 1.36032 2.92288 1.40478 2.8758H1.40579L1.41892 2.85974H1.42196V2.85762C1.54925 2.7186 1.68665 2.58161 1.83213 2.44795L1.83314 2.44684C1.88466 2.39976 1.9382 2.35278 1.99175 2.30571C2.05236 2.25216 2.11602 2.19973 2.17966 2.14739H2.18168V2.14628C2.25341 2.08749 2.32817 2.03071 2.40394 1.97302C2.42516 1.95696 2.44536 1.94089 2.46658 1.92594C2.51406 1.89058 2.56154 1.85644 2.61104 1.82219C2.66762 1.78258 2.7242 1.74298 2.7828 1.70449H2.78482V1.70338C2.79896 1.69277 2.81512 1.68307 2.83028 1.67236L2.83129 1.67135C2.93939 1.60074 3.05052 1.53224 3.16266 1.46596L3.16367 1.46485C3.19095 1.4499 3.21621 1.43384 3.24348 1.41778C3.25258 1.41242 3.26267 1.40717 3.27075 1.40181H3.27379V1.39959C3.31016 1.37928 3.34855 1.35898 3.38593 1.33867C3.48393 1.28412 3.58495 1.23168 3.68598 1.18036C3.78499 1.13116 3.885 1.08408 3.98603 1.03811L3.98704 1.037C4.0325 1.01558 4.07999 0.995278 4.12646 0.97386H4.12849C4.16486 0.957797 4.20122 0.941834 4.23759 0.926781H4.24063C4.30326 0.900009 4.36691 0.873337 4.43055 0.847676C4.47097 0.831613 4.5134 0.815549 4.55381 0.800597H4.55684V0.799487C4.58311 0.789889 4.60938 0.779178 4.63463 0.769581L4.67807 0.753518H4.68312V0.751398C4.80133 0.707552 4.92155 0.666836 5.04379 0.626223H5.04783C5.06299 0.621879 5.07713 0.615513 5.09127 0.61127H5.09531V0.61016C5.10946 0.605917 5.12462 0.600562 5.13876 0.595207H5.14179V0.594097L5.18927 0.579144C5.24079 0.563081 5.29232 0.547118 5.34485 0.532065H5.34687C5.41961 0.510647 5.49235 0.48822 5.56711 0.467913H5.56913V0.466803C5.58732 0.46155 5.6055 0.456194 5.62369 0.45185H5.63178V0.449726C5.68936 0.433663 5.74694 0.419824 5.80554 0.404771L5.86818 0.388808C5.95708 0.36739 6.047 0.345972 6.1359 0.325666H6.13792V0.324556C6.16015 0.319201 6.18137 0.313846 6.2046 0.309603H6.21672V0.306369C6.23693 0.302126 6.25915 0.297884 6.28037 0.29354C6.30563 0.288185 6.3329 0.282831 6.35715 0.277477H6.36018C6.46828 0.254947 6.57739 0.233631 6.6865 0.213325H6.69256V0.212211C6.71984 0.206957 6.74611 0.202616 6.77439 0.197262H6.78854V0.195138C6.88249 0.179075 6.97746 0.164124 7.07141 0.150182C7.14617 0.139473 7.22295 0.128865 7.29771 0.119166H7.30984V0.117043C7.34924 0.111688 7.38865 0.107447 7.42704 0.103103H7.43713C7.52806 0.0923942 7.62 0.0806743 7.71294 0.072087H7.72305C7.77356 0.0667325 7.82407 0.0603673 7.87357 0.0561241H7.89782V0.0539004C8.03522 0.0421812 8.17464 0.0325854 8.31406 0.0239981H8.34032V0.0228881C8.44539 0.0175337 8.55147 0.0121768 8.65553 0.00904494H8.6727V0.00793501C8.9778 -0.00166261 9.28493 -0.00277583 9.59205 0.00581152V0.00793501H9.66075C9.76986 0.0121782 9.87897 0.0165234 9.98808 0.0228881V0.0239981H9.9992C10.0699 0.0282412 10.1396 0.0314732 10.2093 0.0368277V0.0400611H10.2447C10.3649 0.0485474 10.4851 0.0592565 10.6064 0.072087C10.6528 0.0764312 10.7013 0.0817872 10.7478 0.0860304V0.0871403H10.763C10.8064 0.0913835 10.8488 0.096739 10.8903 0.102093L10.8973 0.103103C10.9792 0.112802 11.062 0.123511 11.1438 0.134219H11.1459C11.1822 0.139473 11.2186 0.144828 11.255 0.149173H11.259L11.3509 0.162002V0.165236H11.3701C11.4005 0.169479 11.4308 0.17483 11.4621 0.180185V0.181198H11.4671C11.5601 0.196252 11.653 0.21221 11.746 0.228274H11.747C11.7732 0.232618 11.7995 0.237974 11.8258 0.242217V0.243327H11.8339C11.9905 0.27212 12.146 0.304247 12.3016 0.338495C12.3228 0.342738 12.343 0.348095 12.3643 0.352439L12.3713 0.353448C12.4158 0.364157 12.4623 0.373756 12.5067 0.384465V0.385574H12.5107C12.532 0.389818 12.5511 0.395173 12.5714 0.400528V0.401638H12.5754C12.5946 0.405881 12.6148 0.411236 12.634 0.416591L12.638 0.4176C12.7593 0.447606 12.8795 0.478622 12.9977 0.511759V0.512869H13.0007C13.0371 0.522466 13.0725 0.533177 13.1088 0.542775V0.543885H13.1149C13.1502 0.554594 13.1846 0.564192 13.22 0.574901C13.2725 0.590964 13.326 0.605917 13.3786 0.62198C13.3937 0.626223 13.4109 0.631579 13.426 0.636933V0.638043H13.4291C13.6311 0.701084 13.8302 0.769583 14.0282 0.842323V0.843433H14.0312C14.0716 0.858385 14.114 0.873335 14.1545 0.889398V0.891522H14.1595L14.2333 0.920414V0.922538H14.2393C14.3555 0.967495 14.4697 1.01457 14.5818 1.06266V1.06479H14.5879C14.6121 1.07549 14.6364 1.08509 14.6616 1.0958L14.6929 1.10863V1.11085H14.699C14.7445 1.13116 14.7899 1.15258 14.8354 1.17288L14.8384 1.17389C14.9071 1.20491 14.9748 1.23703 15.0425 1.26916L15.0728 1.28411L15.0738 1.28512L15.1041 1.30018L15.1061 1.30119L15.1354 1.31513V1.31725H15.1385C15.1476 1.32149 15.1577 1.32584 15.1657 1.33119V1.33332H15.1708C15.1789 1.33756 15.189 1.3419 15.1971 1.34615V1.34827H15.2021C15.2112 1.35261 15.2203 1.35787 15.2294 1.36221V1.36433H15.2334C15.2435 1.36857 15.2516 1.37393 15.2617 1.37827V1.38039H15.2648L15.293 1.39535V1.39646H15.2961L15.3254 1.41141L15.3264 1.41242L15.3567 1.42849C15.4264 1.46486 15.4941 1.50122 15.5618 1.5387V1.53972H15.5638C15.6002 1.56012 15.6365 1.57932 15.6729 1.59963V1.60286H15.68L15.7052 1.6168L15.7072 1.61781L15.784 1.66277V1.666H15.7891L15.8154 1.68206C15.8689 1.71308 15.9214 1.74409 15.974 1.77612V1.77723C16.0154 1.80289 16.0578 1.82855 16.1003 1.85532V1.85644H16.1023C16.1174 1.86603 16.1326 1.87462 16.1467 1.88422V1.88846H16.1538C16.2104 1.92483 16.2659 1.96231 16.3215 1.99868C16.3377 2.00939 16.3538 2.01899 16.369 2.0297H16.37C16.4235 2.06607 16.4751 2.10244 16.5266 2.13881L16.5286 2.13982L16.5912 2.18265V2.1869H16.5973L16.6387 2.2169V2.21902H16.6418L16.7024 2.26398V2.2661H16.7054C16.7691 2.31318 16.8307 2.36026 16.8923 2.40835C16.9196 2.42866 16.9448 2.45007 16.9721 2.47149L16.9731 2.4725L16.9883 2.48432V2.48856H16.9933C17.0125 2.50463 17.0327 2.51958 17.0519 2.53463L17.0529 2.53564L17.0681 2.54746V2.5506H17.0721C17.0984 2.571 17.1226 2.59343 17.1469 2.61374L17.1631 2.62657V2.62869H17.1661C17.252 2.70042 17.3358 2.77417 17.4166 2.84903V2.85015H17.4177L17.4318 2.86297V2.86621H17.4348L17.448 2.87793V2.88227H17.453L17.4641 2.89187V2.89833H17.4702C17.6106 3.02876 17.745 3.16464 17.8753 3.30366V3.31012H17.8814L17.8915 3.32184V3.32619H17.8965L17.9076 3.33902V3.34225H17.9107L17.9238 3.35609V3.3572H17.9248C17.9733 3.40964 18.0198 3.46207 18.0662 3.51551V3.51662C18.0925 3.54764 18.1188 3.57865 18.1451 3.60967V3.61179H18.1471C18.1673 3.63634 18.1895 3.65988 18.2087 3.68453V3.6909H18.2137C18.2168 3.69524 18.2198 3.69948 18.2249 3.70373V3.70696H18.2269L18.2875 3.78404V3.78616H18.2885L18.3511 3.86426L18.3522 3.86527C18.3673 3.88558 18.3825 3.90598 18.3986 3.92629V3.92841H18.3996C18.4158 3.94872 18.4309 3.97014 18.4461 3.99155L18.4764 4.0354V4.04075H18.4805C18.4946 4.06106 18.5098 4.08035 18.5239 4.10066V4.10379H18.5259L18.5552 4.14552V4.15087H18.5593C18.5694 4.16482 18.5775 4.17876 18.5876 4.19159V4.19795H18.5916C18.6067 4.21937 18.6199 4.24079 18.634 4.2611C18.6451 4.27605 18.6552 4.29211 18.6663 4.30706V4.30817H18.6674C18.6734 4.31777 18.6815 4.32737 18.6876 4.33707L18.6987 4.35414V4.35525H18.6997C18.7249 4.39587 18.7522 4.43648 18.7785 4.47931V4.48143H18.7805C18.7957 4.50609 18.8118 4.53175 18.827 4.5563V4.56064H18.829C18.8603 4.61197 18.8906 4.6644 18.922 4.71895C18.9482 4.76492 18.9745 4.81089 19.0008 4.85908V4.8612L19.0169 4.88797V4.89333H19.0199C19.0462 4.93929 19.0715 4.98738 19.0967 5.03557V5.03658C19.1907 5.2153 19.2856 5.40463 19.3806 5.60466V5.60789H19.3816L19.3968 5.63891L19.3978 5.63992C19.4342 5.717 19.4715 5.795 19.5079 5.87532V5.87743C19.5342 5.93411 19.5615 5.99079 19.5877 6.04857V6.05181H19.5887C19.614 6.10949 19.6403 6.16728 19.6665 6.22618C19.7029 6.30953 19.7403 6.39298 19.7777 6.47855V6.47966L19.8251 6.58877V6.59089H19.8262L19.8726 6.7V6.70111H19.8736L19.9211 6.81123C19.9474 6.87326 19.9737 6.9364 19.9999 6.99955V7.00167C20.0262 7.0637 20.0535 7.12684 20.0797 7.191V7.19211C20.1161 7.28091 20.1535 7.37072 20.1899 7.46165L20.2212 7.53974L20.2525 7.61784V7.61996C20.3464 7.85212 20.4434 8.09065 20.5384 8.3313V8.33342L20.5707 8.41151V8.41262C20.6384 8.58487 20.7071 8.75915 20.7758 8.93463V8.93574C21.0294 9.5807 21.287 10.2428 21.5527 10.9007C21.782 11.4709 22.0164 12.0378 22.2559 12.5856C23.6076 15.6717 25.9595 17.2515 28.2084 18.8401C28.4317 18.9973 28.6529 19.1557 28.8732 19.315V19.3161C29.1247 19.498 29.3743 19.6819 29.6187 19.8702C29.6672 19.9065 29.7137 19.944 29.7612 19.9804V19.9815C29.7885 20.0018 29.8147 20.0232 29.84 20.0435L29.841 20.0445C29.9532 20.1333 30.0643 20.2221 30.1734 20.3131V20.3142H30.1744C30.2047 20.3398 30.236 20.3665 30.2684 20.3923L30.2694 20.3933C30.3431 20.4553 30.4169 20.5185 30.4906 20.5826V20.5837C30.5381 20.6254 30.5866 20.6661 30.6341 20.7089V20.711H30.6361L30.6502 20.7238V20.7271H30.6543C30.7068 20.7742 30.7583 20.8211 30.8099 20.8693V20.8704H30.8109C31.017 21.0629 31.218 21.2619 31.412 21.4694V21.4727H31.415L31.4282 21.4855V21.4886H31.4302L31.4423 21.5026V21.5047H31.4453C31.4494 21.51 31.4544 21.5144 31.4585 21.5197L31.4595 21.5207C31.508 21.5732 31.5554 21.6256 31.6019 21.6791C31.6605 21.7454 31.7191 21.8128 31.7767 21.8812V21.8856H31.7797L31.7929 21.9005V21.9016C31.8131 21.9262 31.8353 21.9508 31.8555 21.9765V21.9818H31.8595L31.8717 21.9968V21.9978H31.8727C31.8939 22.0236 31.9141 22.0502 31.9363 22.077L31.999 22.1562C32.0313 22.1968 32.0626 22.2396 32.0939 22.2813V22.2835H32.0949C32.1101 22.3038 32.1262 22.3241 32.1414 22.3455V22.3477H32.1424C32.1576 22.368 32.1737 22.3883 32.1879 22.4097V22.4108H32.1899L32.2202 22.4535V22.4589H32.2232C32.2384 22.4792 32.2525 22.5006 32.2677 22.522L32.299 22.5669V22.5691H32.301C32.3546 22.6461 32.4061 22.7231 32.4566 22.8023V22.8065H32.4596C32.4697 22.8215 32.4788 22.8365 32.4889 22.8504V22.8536H32.491C32.5011 22.8686 32.5112 22.8836 32.5213 22.8996V22.9018H32.5223C32.5263 22.9093 32.5314 22.9167 32.5374 22.9242V22.9338H32.5425C32.5506 22.9478 32.5597 22.9627 32.5678 22.9777V22.982H32.5698C32.5849 23.0066 32.6001 23.0322 32.6152 23.0569V23.0611H32.6183C32.6768 23.1585 32.7334 23.2579 32.79 23.3595V23.3628H32.792L32.8052 23.3884V23.3949H32.8092C32.8133 23.4024 32.8173 23.4099 32.8203 23.4173V23.4269H32.8264C32.8506 23.474 32.8749 23.5211 32.9001 23.5693L32.9153 23.6003V23.6013H32.9173L32.9315 23.6313V23.6334C32.9375 23.643 32.9426 23.6526 32.9476 23.6623V23.6656H32.9486C32.9698 23.7073 32.9911 23.7489 33.0113 23.7917V23.7929C33.0325 23.8377 33.0537 23.8827 33.0739 23.9276V23.9351H33.0769C33.082 23.9436 33.086 23.9522 33.089 23.9608V23.9661H33.0911C33.0951 23.9757 33.1002 23.9853 33.1042 23.9939V23.9971H33.1052C33.1153 24.0196 33.1254 24.0431 33.1355 24.0656V24.0762H33.1396C33.1436 24.0848 33.1466 24.0944 33.1507 24.103V24.1074H33.1537C33.1679 24.1426 33.184 24.1779 33.1992 24.2142V24.2186H33.2012C33.2335 24.2956 33.2648 24.3726 33.2941 24.4518V24.456H33.2962C33.3063 24.4817 33.3174 24.5074 33.3265 24.5341V24.5352H33.3275C33.3325 24.548 33.3386 24.562 33.3426 24.5748V24.5823H33.3457C33.3497 24.594 33.3547 24.6047 33.3588 24.6154V24.6261H33.3638C33.3739 24.6518 33.382 24.6786 33.3911 24.7042C33.3962 24.7193 33.4012 24.7352 33.4053 24.7502V24.7534H33.4063L33.4214 24.7962V24.8005C33.4487 24.8786 33.475 24.9577 33.5012 25.0379C33.5113 25.0722 33.5225 25.1064 33.5326 25.1417V25.1492H33.5356C33.5396 25.1642 33.5447 25.1792 33.5487 25.1931V25.1962H33.5497C33.5548 25.2123 33.5598 25.2284 33.5649 25.2444V25.2594H33.5689C33.574 25.2733 33.577 25.2872 33.5811 25.3011V25.3065H33.5821C33.5871 25.3235 33.5922 25.3428 33.5962 25.3599V25.3696H33.5982L33.6275 25.4776V25.4818C33.6487 25.5643 33.671 25.6487 33.6912 25.7333V25.7354C33.6962 25.7568 33.7033 25.7793 33.7073 25.8007V25.8145H33.7104L33.7235 25.8691V25.8777H33.7255C33.7296 25.898 33.7356 25.9173 33.7397 25.9365V25.9569H33.7437C33.7478 25.9761 33.7508 25.9954 33.7558 26.0146V26.0371H33.7599C33.7639 26.0563 33.767 26.0756 33.772 26.0948V26.1001C33.7771 26.1248 33.7821 26.1493 33.7872 26.1751V26.1793C33.7932 26.205 33.7983 26.2296 33.8033 26.2553V26.2595H33.8043C33.8154 26.3173 33.8245 26.3761 33.8356 26.4349V26.4489H33.8377C33.8417 26.4756 33.8468 26.5034 33.8518 26.5302V26.544H33.8538C33.8579 26.5719 33.8639 26.5987 33.868 26.6265V26.6543H33.872C33.8761 26.6789 33.8791 26.7046 33.8831 26.7291V26.7655H33.8872C33.8912 26.7934 33.8942 26.8212 33.8973 26.8489V26.8608H33.8993C33.9043 26.896 33.9084 26.9313 33.9124 26.9677V26.972C33.9245 27.0608 33.9336 27.1517 33.9437 27.2426V27.2726H33.9468L33.9599 27.3977V27.4469H33.965C33.969 27.4898 33.973 27.5346 33.9761 27.5785V27.6213H33.9791L33.9922 27.7957V27.8106H33.9932C33.9953 27.8416 33.9983 27.8727 33.9993 27.9048C34.0044 27.9904 33.9821 28.0406 33.9367 28.0641H33.9276V28.0673C33.9104 28.0748 33.8902 28.0792 33.868 28.0792H33.8427C33.7599 28.0759 33.6447 28.0406 33.5002 27.9839C33.0274 27.7999 32.2394 27.3924 31.2332 27.1345C31.2716 27.1849 31.3089 27.2351 31.3443 27.2854V27.2865C31.3948 27.3592 31.4423 27.432 31.4867 27.5068V27.509H31.4878C31.5272 27.5763 31.5635 27.6437 31.5979 27.7122V27.7155H31.5989C31.6029 27.7251 31.609 27.7336 31.613 27.7432V27.7465H31.6151C31.6201 27.7561 31.6242 27.7668 31.6292 27.7764V27.7785C31.6514 27.8256 31.6726 27.8727 31.6918 27.9197V27.9208H31.6929C31.704 27.9465 31.7141 27.9722 31.7242 27.9978V27.9999H31.7252C31.7616 28.093 31.7929 28.1872 31.8191 28.2813V28.2856C31.8363 28.3466 31.8535 28.4086 31.8666 28.4695V28.477C31.8848 28.5604 31.902 28.6429 31.9131 28.7263V28.7306H31.9141C31.9202 28.7691 31.9252 28.8087 31.9293 28.8472V28.8568C31.9363 28.9113 31.9414 28.967 31.9454 29.0215V29.0472H31.9474C31.9575 29.2109 31.9565 29.3745 31.9464 29.5382L31.9454 29.5596C31.9414 29.6216 31.9363 29.6826 31.9293 29.7447V29.7468C31.9252 29.7885 31.9202 29.8303 31.9141 29.8719H31.9131V29.8795C31.905 29.9457 31.8939 30.0121 31.8838 30.0773H31.8828V30.0849C31.8595 30.2099 31.8343 30.3351 31.803 30.4582V30.4593L31.7868 30.5223C31.7191 30.7887 31.6322 31.0487 31.5332 31.2989C31.5231 31.3257 31.513 31.3513 31.5029 31.3781H31.5019C31.4756 31.4424 31.4494 31.5054 31.4221 31.5685C31.316 31.811 31.2008 32.049 31.0746 32.282L31.0735 32.283C30.924 32.559 30.7725 32.8094 30.63 33.0265C30.5856 33.0929 30.5442 33.1559 30.5038 33.2158C30.3825 33.3939 30.2562 33.568 30.1239 33.7378C30.0996 33.7688 30.0774 33.7967 30.0602 33.8181C26.5364 25.0561 24.3421 25.0593 18.6997 24.3566L18.5845 24.3415Z" fill="white"/>
</svg>
