<svg width="620" height="304" viewBox="0 0 620 304" fill="none" xmlns="http://www.w3.org/2000/svg">
<mask id="mask0_1_3248" style="mask-type:luminance" maskUnits="userSpaceOnUse" x="285" y="48" width="51" height="21">
<path d="M335.374 48.4961H285.006V68.1108H335.374V48.4961Z" fill="white"/>
</mask>
<g mask="url(#mask0_1_3248)">
<path d="M335.263 58.0534L325.355 48.6005C325.213 48.4662 324.996 48.4736 324.862 48.6154C324.78 48.7049 324.743 48.8318 324.78 48.9511L326.444 54.7184C325.922 54.4722 325.347 54.3454 324.765 54.3379H294.034L295.593 48.9511C295.645 48.7646 295.541 48.5706 295.354 48.5184C295.235 48.4811 295.108 48.5184 295.019 48.6005L285.11 58.0534C284.969 58.1877 284.969 58.4041 285.096 58.5458C285.096 58.5458 285.103 58.5533 285.11 58.5608L295.019 68.0137C295.16 68.148 295.377 68.1405 295.511 67.9988C295.593 67.9093 295.63 67.7824 295.593 67.663L294.034 62.2688H324.765C325.347 62.2688 325.922 62.142 326.444 61.8958L324.78 67.663C324.728 67.8496 324.832 68.0435 325.019 68.0958C325.138 68.1331 325.265 68.0958 325.355 68.0137L335.255 58.5533C335.397 58.419 335.397 58.2026 335.27 58.0609C335.27 58.0609 335.263 58.0534 335.255 58.046" fill="#FC6D26"/>
</g>
<mask id="mask1_1_3248" style="mask-type:luminance" maskUnits="userSpaceOnUse" x="285" y="234" width="51" height="20">
<path d="M335.374 234.271H285.006V253.886H335.374V234.271Z" fill="white"/>
</mask>
<g mask="url(#mask1_1_3248)">
<path d="M335.263 243.829L325.355 234.376C325.213 234.242 324.996 234.249 324.862 234.391C324.78 234.48 324.743 234.607 324.78 234.727L326.444 240.494C325.922 240.248 325.347 240.121 324.765 240.113H294.034L295.593 234.727C295.645 234.54 295.541 234.346 295.354 234.294C295.235 234.256 295.108 234.294 295.019 234.376L285.11 243.829C284.969 243.963 284.969 244.179 285.096 244.321C285.096 244.321 285.103 244.329 285.11 244.336L295.019 253.789C295.16 253.923 295.377 253.916 295.511 253.774C295.593 253.685 295.63 253.558 295.593 253.438L294.034 248.044H324.765C325.347 248.044 325.922 247.917 326.444 247.671L324.78 253.438C324.728 253.625 324.832 253.819 325.019 253.871C325.138 253.908 325.265 253.871 325.355 253.789L335.255 244.329C335.397 244.194 335.397 243.978 335.27 243.836C335.27 243.836 335.263 243.829 335.255 243.821" fill="#FC6D26"/>
</g>
<mask id="mask2_1_3248" style="mask-type:luminance" maskUnits="userSpaceOnUse" x="118" y="127" width="21" height="51">
<path d="M138.243 127.395H118.628V177.763H138.243V127.395Z" fill="white"/>
</mask>
<g mask="url(#mask2_1_3248)">
<path d="M128.685 177.651L138.138 167.743C138.273 167.601 138.265 167.385 138.123 167.251C138.034 167.168 137.907 167.131 137.788 167.168L132.02 168.832C132.267 168.31 132.394 167.735 132.401 167.154V136.422L137.788 137.981C137.974 138.034 138.168 137.929 138.22 137.743C138.258 137.623 138.22 137.496 138.138 137.407L128.685 127.499C128.551 127.357 128.335 127.357 128.193 127.484C128.193 127.484 128.186 127.491 128.178 127.499L118.725 137.407C118.591 137.549 118.598 137.765 118.74 137.899C118.83 137.981 118.956 138.019 119.076 137.981L124.47 136.422V167.154C124.47 167.735 124.597 168.31 124.843 168.832L119.076 167.168C118.889 167.116 118.695 167.221 118.643 167.407C118.606 167.527 118.643 167.653 118.725 167.743L128.186 177.644C128.32 177.785 128.536 177.785 128.678 177.658C128.678 177.658 128.685 177.651 128.693 177.644" fill="#FC6D26"/>
</g>
<mask id="mask3_1_3248" style="mask-type:luminance" maskUnits="userSpaceOnUse" x="481" y="127" width="20" height="51">
<path d="M500.842 127.395H481.227V177.763H500.842V127.395Z" fill="white"/>
</mask>
<g mask="url(#mask3_1_3248)">
<path d="M491.285 177.651L500.738 167.743C500.872 167.601 500.864 167.385 500.723 167.251C500.633 167.168 500.506 167.131 500.387 167.168L494.62 168.832C494.866 168.31 494.993 167.735 495 167.154V136.422L500.387 137.981C500.573 138.034 500.767 137.929 500.82 137.743C500.857 137.623 500.82 137.496 500.738 137.407L491.285 127.499C491.15 127.357 490.934 127.357 490.792 127.484C490.792 127.484 490.785 127.491 490.777 127.499L481.324 137.407C481.19 137.549 481.198 137.765 481.339 137.899C481.429 137.981 481.556 138.019 481.675 137.981L487.069 136.422V167.154C487.069 167.735 487.196 168.31 487.442 168.832L481.675 167.168C481.489 167.116 481.295 167.221 481.242 167.407C481.205 167.527 481.242 167.653 481.324 167.743L490.785 177.644C490.919 177.785 491.135 177.785 491.277 177.658C491.277 177.658 491.285 177.651 491.292 177.644" fill="#FC6D26"/>
</g>
<path d="M605.078 0H377.521C369.28 0 362.599 6.68071 362.599 14.9218V101.468C362.599 109.709 369.28 116.39 377.521 116.39H605.078C613.319 116.39 620 109.709 620 101.468V14.9218C620 6.68071 613.319 0 605.078 0Z" fill="#FFF7F0"/>
<path d="M605.078 185.776H377.521C369.28 185.776 362.599 192.457 362.599 200.698V287.244C362.599 295.486 369.28 302.166 377.521 302.166H605.078C613.319 302.166 620 295.486 620 287.244V200.698C620 192.457 613.319 185.776 605.078 185.776Z" fill="#FFF7F0"/>
<mask id="mask4_1_3248" style="mask-type:luminance" maskUnits="userSpaceOnUse" x="267" y="108" width="86" height="86">
<path d="M281.713 108.928L267.844 122.798L338.279 193.233L352.149 179.363L281.713 108.928Z" fill="white"/>
</mask>
<g mask="url(#mask4_1_3248)">
<path d="M345.312 186.044L344.992 172.354C344.992 172.16 344.827 172.01 344.633 172.01C344.507 172.01 344.395 172.085 344.335 172.189L341.433 177.442C341.239 176.897 340.925 176.397 340.515 175.987L283.969 119.441L288.878 116.733C289.05 116.643 289.109 116.427 289.012 116.263C288.953 116.151 288.841 116.084 288.714 116.084L275.023 115.763C274.829 115.763 274.673 115.912 274.665 116.106C274.665 116.106 274.665 116.113 274.665 116.121L274.986 129.812C274.986 130.006 275.15 130.155 275.344 130.155C275.471 130.155 275.583 130.08 275.643 129.976L278.351 125.066L334.904 181.62C335.315 182.03 335.807 182.344 336.359 182.545L331.107 185.447C330.935 185.537 330.876 185.753 330.973 185.917C331.032 186.029 331.144 186.097 331.271 186.097L344.962 186.417C345.156 186.417 345.312 186.268 345.32 186.074C345.32 186.074 345.32 186.067 345.32 186.059" fill="#FC6D26"/>
</g>
<mask id="mask5_1_3248" style="mask-type:luminance" maskUnits="userSpaceOnUse" x="267" y="108" width="86" height="86">
<path d="M338.279 108.928L267.844 179.363L281.713 193.233L352.149 122.798L338.279 108.928Z" fill="white"/>
</mask>
<g mask="url(#mask5_1_3248)">
<path d="M274.68 186.044L275.001 172.354C275.001 172.16 275.165 172.01 275.359 172.01C275.486 172.01 275.598 172.085 275.658 172.189L278.56 177.442C278.754 176.897 279.067 176.397 279.477 175.987L336.024 119.441L331.114 116.733C330.943 116.643 330.883 116.427 330.98 116.263C331.04 116.151 331.152 116.084 331.278 116.084L344.969 115.763C345.163 115.763 345.32 115.912 345.327 116.106C345.327 116.106 345.327 116.113 345.327 116.121L345.007 129.812C345.007 130.006 344.842 130.155 344.648 130.155C344.522 130.155 344.41 130.08 344.35 129.976L341.642 125.066L285.088 181.62C284.678 182.03 284.185 182.344 283.633 182.545L288.886 185.44C289.057 185.529 289.117 185.746 289.02 185.91C288.96 186.022 288.848 186.089 288.722 186.089L275.031 186.41C274.837 186.41 274.68 186.261 274.673 186.067C274.673 186.067 274.673 186.059 274.673 186.052" fill="#FC6D26"/>
</g>
<path d="M594.633 11.9375H387.966C381.785 11.9375 376.775 16.948 376.775 23.1288V93.2612C376.775 99.442 381.785 104.453 387.966 104.453H594.633C600.814 104.453 605.824 99.442 605.824 93.2612V23.1288C605.824 16.948 600.814 11.9375 594.633 11.9375Z" fill="white"/>
<path d="M594.633 197.714H387.966C381.785 197.714 376.775 202.724 376.775 208.905V279.038C376.775 285.218 381.785 290.229 387.966 290.229H594.633C600.814 290.229 605.824 285.218 605.824 279.038V208.905C605.824 202.724 600.814 197.714 594.633 197.714Z" fill="white"/>
<path d="M541.161 52.6516C540.333 52.6516 538.348 52.6293 537.087 52.5621V48.869C538.579 49.0033 539.766 49.0928 540.907 49.0928C541.892 49.0928 542.489 49.0256 542.489 48.0781V46.9217L530.977 47.0336V44.1537L542.489 44.2283V42.6018L529 42.7287V39.5503L542.489 39.6771V38.0507L531.044 38.1327V35.2976L542.489 35.3946V33.8502L531.171 33.9248V27.501L542.489 27.583V25.9864L529.171 26.1282V22.5917H542.489C542.489 22.5917 542.422 21.3159 542.34 20.8906H547.062C546.98 21.3159 546.906 22.5917 546.906 22.5917H560.41V26.1282L546.921 25.9864V27.583L558.44 27.5084V33.9248L546.921 33.8502V35.4021L558.395 35.3349L558.328 39.4086L560.753 39.3787V42.8555L558.336 42.9077L558.463 46.9067H546.921V48.5034C546.921 52.0921 546.167 52.6293 541.123 52.6293M546.958 44.2208H553.904V42.5944H546.958V44.2208ZM546.958 39.6622H553.904V38.0432H546.958V39.6622ZM546.958 31.5299H553.143V29.9108H546.958V31.5299ZM536.49 31.5299H542.504V29.9108H536.49V31.5299Z" fill="#FC6D26"/>
<path d="M525.038 52.6513C521.979 50.9129 519.256 48.6374 516.987 45.944C514.928 43.4968 513.369 40.6766 512.392 37.6326L512.101 36.8119L511.825 37.64C510.355 42.0345 508.892 44.5488 506.244 47.2347C504.17 49.3685 501.79 51.189 499.186 52.629L496.03 48.1673C500.894 45.7351 503.759 43.2282 505.856 39.5948C508.057 35.8046 509.168 30.7089 509.168 24.4492C509.183 23.6658 509.139 22.8824 509.042 22.1064H514.6C514.496 22.9122 514.443 23.7329 514.458 24.5462C514.413 27.9483 514.898 31.3356 515.891 34.5885C517.211 38.2817 519.472 41.5644 522.449 44.1235C524.165 45.6456 526.105 46.899 528.194 47.8465L525.038 52.6513Z" fill="#FC6D26"/>
<path d="M485.279 50.0848C482.317 50.0848 480.041 49.3014 478.519 47.7495C476.997 46.1976 476.221 43.8773 476.221 40.8631C476.221 37.8489 477.042 35.342 478.639 33.6186C480.235 31.8951 482.511 31.0371 485.353 31.0371C488.047 31.0371 490.166 31.828 491.658 33.3798C493.15 34.9317 493.911 37.1774 493.911 40.02V41.5793H481.459L481.496 42.1016C481.496 43.2431 481.847 44.3548 482.511 45.2874C483.205 46.0335 484.197 46.4289 485.219 46.3692C487.286 46.3692 488.174 45.3695 488.554 44.3921H493.665C493.351 46.0186 492.449 47.4735 491.136 48.4807C489.405 49.6147 487.353 50.1668 485.286 50.0549M485.346 34.6631C483.085 34.6631 481.75 35.9315 481.474 38.3264L481.414 38.5353H488.92L488.897 38.3562C488.927 37.349 488.591 36.3642 487.957 35.5883C487.263 34.9392 486.331 34.6034 485.376 34.6631" fill="#FC6D26"/>
<path d="M467.402 49.7937V38.6844C467.402 36.8341 465.903 35.3345 464.052 35.3345C462.202 35.3345 460.703 36.8341 460.703 38.6844V49.7937H455.428V31.037H460.71V33.2603L461.061 32.8798C463.538 30.1417 467.761 29.9253 470.499 32.4023C471.76 33.5439 472.535 35.1181 472.677 36.8117L472.707 37.4086V49.8011H467.402V49.7937Z" fill="#FC6D26"/>
<path d="M436.097 52.6591C428.061 52.6516 421.548 46.1383 421.54 38.1029V35.4543C421.548 27.4189 428.061 20.9055 436.097 20.8906H436.619C444.654 20.8981 451.167 27.4114 451.182 35.4543V38.1029C451.182 46.1383 444.662 52.6591 436.626 52.6666H436.104L436.097 52.6591ZM436.097 27.0309C431.448 27.0309 427.681 30.7987 427.673 35.4543V38.1029C427.673 42.751 431.448 46.5262 436.097 46.5262H436.619C441.267 46.5113 445.035 42.7361 445.027 38.088V35.4543C445.027 30.8061 441.252 27.0309 436.604 27.0309H436.097Z" fill="#FC6D26"/>
<path d="M516.816 64.0967H465.485C462.337 64.0967 459.785 66.6487 459.785 69.7968V90.165C459.785 93.3131 462.337 95.8652 465.485 95.8652H516.816C519.964 95.8652 522.516 93.3131 522.516 90.165V69.7968C522.516 66.6487 519.964 64.0967 516.816 64.0967Z" fill="#FC6D26"/>
<path d="M486.786 76.0934H484.906C484.846 78.9882 484.428 81.8607 483.675 84.651C482.891 87.3817 481.496 89.896 479.586 92C479.138 91.1644 478.512 90.4407 477.758 89.8662C475.057 90.381 472.185 90.7913 468.298 91.2017C467.656 91.2763 467.477 91.3061 466.985 91.3808L466.522 88.6053C466.738 88.6277 466.947 88.6351 467.164 88.6277C468.037 88.6277 469.372 88.5232 471.842 88.2919V86.7475H469.663C468.924 86.7326 468.186 86.7774 467.455 86.8744V84.4048C468.193 84.5167 468.947 84.5615 469.693 84.5317H471.849V83.3752H469.23C468.462 83.3528 467.701 83.3976 466.94 83.502V81.04C467.708 81.1519 468.477 81.1966 469.253 81.1668H471.849V80.0402H469.126C468.201 80.0402 467.992 80.0402 467.149 80.0924C467.201 79.5702 467.231 79.0479 467.223 78.5256V75.877C467.246 75.3622 467.223 74.8474 467.149 74.3326C467.805 74.3848 468.469 74.3998 469.126 74.3848H477.072C477.743 74.3998 478.407 74.3848 479.079 74.3326C479.004 74.922 478.982 75.5114 479.004 76.1083V78.4212C479.026 79.324 479.026 79.8835 479.056 80.0924C478.407 80.0402 477.758 80.0253 477.102 80.0402H474.319V81.1668H476.684C477.482 81.1817 478.28 81.1519 479.071 81.0623V83.4797C478.28 83.3976 477.482 83.3603 476.684 83.3752H474.319V84.5317H476.251C477.027 84.5466 477.795 84.5167 478.564 84.4272V86.8445C477.795 86.7625 477.027 86.7252 476.251 86.7401H474.319V88.0234C476.169 87.8194 477.644 87.6404 478.743 87.4862L478.773 88.4337C480.877 85.606 481.936 81.8532 482.242 76.071H481.705C480.989 76.0486 480.28 76.0785 479.571 76.1755V73.4224C480.287 73.5343 481.011 73.5791 481.727 73.5492H482.294C482.317 72.2137 482.317 71.9601 482.317 70.3336C482.332 69.6696 482.279 69.0055 482.16 68.3564H485.167C485.062 68.9384 485.003 70.6693 484.988 73.5492H487.069C487.905 73.5641 488.733 73.5268 489.561 73.4448C489.511 73.8576 489.442 75.8198 489.352 79.3314C489.225 83.7259 488.867 87.6876 488.45 89.2544C487.987 91.0002 487.166 91.5673 485.032 91.5673C484.843 91.5673 484.16 91.5424 482.981 91.4927C482.928 90.5302 482.705 89.5827 482.339 88.6948C483.1 88.8664 483.876 88.9634 484.652 88.9783C485.682 88.9783 485.883 88.6948 486.167 86.8445C486.614 83.2708 486.816 79.6746 486.786 76.071V76.0934ZM471.849 76.4515H469.588V78.0183H471.849V76.4515ZM474.319 76.4515V78.0183H476.736V76.4515H474.319ZM469.335 70.1545V69.871C469.342 69.3711 469.32 68.8712 469.26 68.3788H472.036C471.946 68.8638 471.909 69.3562 471.931 69.8412V70.1471H474.244V69.8635C474.266 69.3711 474.229 68.8787 474.14 68.4012H476.893C476.818 68.8712 476.796 69.3413 476.818 69.8113V70.1471H477.586C478.303 70.1545 479.012 70.1098 479.72 70.0202V72.542C479.012 72.4525 478.303 72.4226 477.586 72.4375H476.818V72.639C476.811 73.0493 476.833 73.4672 476.893 73.87H474.169C474.229 73.4522 474.259 73.0344 474.244 72.6092V72.4301H471.931V72.6092C471.916 73.027 471.946 73.4522 472.006 73.87H469.26C469.32 73.4522 469.342 73.0344 469.335 72.6092V72.4301H468.439C467.76 72.4002 467.082 72.4301 466.41 72.5345V70.0128C467.104 70.1247 467.813 70.1694 468.514 70.1396H469.335V70.1545Z" fill="white"/>
<path d="M493.336 75.0864L492.896 72.2364C493.821 72.3408 495.261 72.3931 496.724 72.3931H497.082C498.298 71.0799 499.305 69.5952 500.066 67.9688L503.334 68.6104C503.145 68.869 502.896 69.2122 502.588 69.64C501.872 70.6397 501.073 71.6171 500.432 72.3632C503.909 72.2787 506.53 72.1767 508.296 72.0573C507.505 71.4008 506.669 70.789 505.804 70.2294L508.116 68.8193C510.593 70.4681 512.891 72.3781 514.951 74.5269L512.66 76.3772C511.683 75.2953 511.377 74.9596 510.653 74.221C506.132 74.6089 500.402 74.8925 495.493 74.9671C494.769 74.9671 494.045 75.0044 493.329 75.0939L493.336 75.0864ZM494.366 91.2318L492.031 89.3815C492.762 88.6876 493.389 87.9042 493.903 87.0462C494.5 86.039 494.97 84.9572 495.291 83.8306L497.731 84.8602C497.358 86.1435 496.843 87.3745 496.186 88.5384C495.694 89.5083 495.082 90.4186 494.359 91.2318H494.366ZM498.402 84.0097H501.335C501.238 84.5021 501.193 85.002 501.208 85.5018V88.3817C501.208 88.9712 501.543 89.0532 503.752 89.0532C506.811 89.0532 507.348 88.9786 507.632 88.5907C507.893 88.2325 507.937 87.77 507.99 86.2554C508.818 86.6732 509.713 86.9343 510.638 87.0239C510.459 88.9786 510.355 89.5158 510.049 90.1574C509.459 91.3363 508.557 91.5452 504.11 91.5452C499.275 91.5452 498.529 91.2617 498.529 89.486V85.8077C498.544 85.2034 498.499 84.5991 498.402 84.0097ZM495.418 81.0253V78.1976C495.425 77.5038 495.396 76.8099 495.314 76.116C496.134 76.2056 496.955 76.2354 497.783 76.2205H509.758C510.593 76.2354 511.422 76.2056 512.25 76.116C512.168 76.8099 512.13 77.5038 512.145 78.1976V81.0253C512.13 81.7416 512.16 82.4503 512.25 83.1591C511.481 83.0771 510.713 83.0397 509.937 83.0547H497.604C496.843 83.0397 496.075 83.0771 495.314 83.1591C495.396 82.4503 495.433 81.7416 495.418 81.0328V81.0253ZM509.348 78.4811H498.149V80.794H509.355V78.4811H509.348ZM507.415 85.9868L505.281 87.6804C504.379 86.5165 503.274 85.5242 502.013 84.7483L504.117 83.286C505.326 84.0395 506.438 84.9497 507.408 85.9868H507.415ZM515.898 89.374L513.376 91.0154C512.309 88.7623 510.944 86.6657 509.318 84.7707L511.683 83.5844C513.257 85.3899 514.667 87.3223 515.898 89.374Z" fill="white"/>
<path d="M541.161 238.428C540.333 238.428 538.348 238.406 537.087 238.338V234.645C538.579 234.78 539.766 234.869 540.907 234.869C541.892 234.869 542.489 234.802 542.489 233.854V232.698L530.977 232.81V229.93L542.489 230.005V228.378L529 228.505V225.327L542.489 225.454V223.827L531.044 223.909V221.074L542.489 221.171V219.627L531.171 219.701V213.277L542.489 213.359V211.763L529.171 211.905V208.368H542.489C542.489 208.368 542.422 207.092 542.34 206.667H547.062C546.98 207.092 546.906 208.368 546.906 208.368H560.41V211.905L546.921 211.763V213.359L558.44 213.285V219.701L546.921 219.627V221.178L558.395 221.119L558.328 225.192L560.753 225.163V228.639L558.336 228.692L558.463 232.691H546.921V234.295C546.921 237.883 546.167 238.421 541.123 238.421M546.958 229.997H553.904V228.371H546.958V229.997ZM546.958 225.439H553.904V223.82H546.958V225.439ZM546.958 217.306H553.143V215.687H546.958V217.306ZM536.49 217.306H542.504V215.687H536.49V217.306Z" fill="#FC6D26"/>
<path d="M525.038 238.428C521.979 236.689 519.256 234.414 516.987 231.72C514.928 229.281 513.369 226.453 512.392 223.416L512.101 222.588L511.825 223.416C510.355 227.811 508.892 230.325 506.244 233.011C504.17 235.145 501.79 236.965 499.186 238.405L496.03 233.944C500.894 231.511 503.759 229.005 505.856 225.371C508.057 221.581 509.168 216.485 509.168 210.226C509.183 209.442 509.139 208.659 509.042 207.883H514.6C514.496 208.689 514.443 209.509 514.458 210.323C514.413 213.725 514.898 217.112 515.891 220.365C517.211 224.058 519.472 227.341 522.449 229.9C524.165 231.422 526.105 232.675 528.194 233.623L525.038 238.428Z" fill="#FC6D26"/>
<path d="M485.279 235.861C482.317 235.861 480.041 235.078 478.519 233.526C476.997 231.974 476.221 229.654 476.221 226.639C476.221 223.625 477.042 221.118 478.639 219.395C480.235 217.671 482.511 216.813 485.353 216.813C488.047 216.813 490.166 217.604 491.658 219.156C493.15 220.708 493.911 222.954 493.911 225.796V227.356H481.459L481.496 227.878C481.496 229.019 481.847 230.131 482.511 231.064C483.205 231.81 484.197 232.198 485.212 232.138C487.278 232.138 488.166 231.138 488.547 230.161H493.657C493.344 231.787 492.441 233.242 491.128 234.257C489.397 235.391 487.345 235.943 485.279 235.831M485.346 220.432C483.085 220.432 481.75 221.7 481.474 224.095L481.414 224.304H488.92L488.897 224.125C488.927 223.118 488.591 222.133 487.957 221.357C487.263 220.708 486.331 220.372 485.376 220.432" fill="#FC6D26"/>
<path d="M467.402 235.57V224.461C467.402 222.61 465.903 221.111 464.052 221.111C462.202 221.111 460.703 222.61 460.703 224.461V235.57H455.428V216.813H460.71V219.037L461.061 218.656C463.538 215.918 467.761 215.702 470.499 218.179C471.76 219.32 472.535 220.894 472.677 222.588L472.707 223.185V235.578H467.402V235.57Z" fill="#FC6D26"/>
<path d="M436.097 238.435C428.061 238.428 421.548 231.914 421.54 223.871V221.223C421.548 213.187 428.061 206.674 436.097 206.659H436.619C444.654 206.667 451.167 213.18 451.182 221.223V223.871C451.182 231.907 444.662 238.428 436.626 238.435H436.104H436.097ZM436.097 212.807C431.448 212.807 427.681 216.575 427.673 221.23V223.879C427.673 228.527 431.448 232.302 436.097 232.302H436.619C441.267 232.287 445.035 228.512 445.027 223.864V221.23C445.027 216.582 441.252 212.807 436.604 212.807H436.097Z" fill="#FC6D26"/>
<path d="M516.816 249.88H465.485C462.337 249.88 459.785 252.432 459.785 255.58V275.948C459.785 279.096 462.337 281.648 465.485 281.648H516.816C519.964 281.648 522.516 279.096 522.516 275.948V255.58C522.516 252.432 519.964 249.88 516.816 249.88Z" fill="#FC6D26"/>
<path d="M466.716 267.436L466.462 264.862C467 264.914 467.567 264.937 468.059 264.937C468.193 264.937 468.335 264.937 468.469 264.907C468.984 264.265 469.163 263.982 469.73 263.213C469.646 263.094 469.526 262.932 469.372 262.728C468.484 261.467 467.477 260.296 466.365 259.236L467.805 257.132C468.079 257.426 468.352 257.727 468.626 258.035C469.006 257.394 469.35 256.737 469.656 256.058C470.006 255.319 470.297 254.551 470.529 253.768L472.998 254.67C472.826 254.924 472.685 255.185 472.558 255.469C471.849 256.983 471.036 258.453 470.141 259.863C470.655 260.505 470.782 260.661 471.118 261.146C472.14 259.677 473.006 258.102 473.684 256.446L476.05 257.655C475.871 257.916 475.691 258.192 475.333 258.811C474.087 260.885 472.737 262.892 471.275 264.825C472.767 264.75 473.2 264.72 474.072 264.646C473.789 263.929 473.632 263.594 473.147 262.564L475.02 261.818C475.871 263.459 476.602 265.16 477.206 266.906L475.05 267.809C474.893 267.294 474.893 267.272 474.766 266.757C474.164 266.827 473.555 266.886 472.938 266.936V275.083C472.909 275.986 472.961 276.889 473.095 277.784H470.29C470.417 276.881 470.469 275.971 470.446 275.061V267.145C469.83 267.18 468.982 267.232 467.902 267.302C467.507 267.331 467.111 267.384 466.723 267.458L466.716 267.436ZM478.303 264.116V262.243C477.803 262.683 477.266 263.086 476.706 263.452C476.4 262.579 475.9 261.788 475.244 261.139C476.452 260.43 477.542 259.535 478.482 258.49C479.676 257.229 480.631 255.767 481.309 254.17H484.107C484.95 255.946 486.159 257.52 487.651 258.796C488.614 259.654 489.658 260.408 490.785 261.034C490.195 261.81 489.748 262.691 489.472 263.631C488.845 263.228 488.248 262.795 487.674 262.318V264.116C486.905 264.034 486.137 263.996 485.361 264.011H480.608C479.832 263.996 479.064 264.034 478.295 264.108L478.303 264.116ZM480.414 261.602H485.607C486.196 261.602 486.48 261.602 486.786 261.572C485.204 260.244 483.846 258.662 482.779 256.894C481.794 258.632 480.548 260.214 479.079 261.572C479.541 261.602 479.795 261.602 480.414 261.602ZM467.38 268.383L469.671 268.771C469.596 271.36 469.253 273.934 468.641 276.456L466.328 275.553C466.985 273.218 467.335 270.808 467.38 268.383ZM473.498 268.794L475.505 268.279C475.975 270.323 476.333 272.39 476.587 274.472L474.483 274.957C474.319 272.875 473.99 270.816 473.505 268.786L473.498 268.794ZM480.056 276.143V277.583H477.281C477.355 276.71 477.407 275.889 477.407 274.934V268.637C477.43 267.854 477.393 267.078 477.303 266.302C477.945 266.354 478.512 266.376 479.511 266.376H486.786C487.487 266.391 488.196 266.362 488.89 266.302C488.808 267.07 488.77 267.839 488.785 268.615V274.658C488.77 275.635 488.815 276.613 488.912 277.59H486.032V276.15H480.049L480.056 276.143ZM480.056 268.771V273.681H486.07V268.771H480.056Z" fill="white"/>
<path d="M508.422 264.914H498.529C498.373 265.354 498.328 265.481 498.119 266.048L495.112 265.69C496.007 263.608 496.731 261.46 497.268 259.266C497.82 257.476 498.179 255.633 498.32 253.768L501.529 254.126C501.238 255.021 500.999 255.931 500.812 256.849H510.243C511.302 256.879 512.354 256.827 513.406 256.692V259.647C512.586 259.572 511.713 259.52 510.377 259.52H500.148C499.917 260.37 499.76 260.96 499.38 262.295H509.071C509.944 262.325 510.825 262.28 511.69 262.169C511.511 263.198 511.459 263.713 511.175 266.921C511.153 267.205 511.123 267.406 511.071 267.794H512.869C513.906 267.794 514.943 267.742 515.98 267.637V270.569C514.951 270.465 513.906 270.413 512.869 270.413H510.683C510.243 273.009 509.758 274.628 509.042 275.658C508.243 276.814 507.244 277.172 504.856 277.172C503.722 277.172 502.849 277.12 500.693 276.963C500.559 275.941 500.268 274.949 499.842 274.009C501.491 274.278 503.155 274.434 504.826 274.472C505.826 274.472 506.341 274.27 506.677 273.725C507.169 272.673 507.512 271.554 507.706 270.413H495.418C494.262 270.413 493.18 270.465 492.158 270.569V267.637C493.247 267.749 494.351 267.802 495.448 267.794H508.124C508.281 266.585 508.333 266.205 508.43 264.914H508.422Z" fill="white"/>
<path d="M242.479 0.0820312H14.9218C6.68071 0.0820312 0 6.76274 0 15.0038V101.55C0 109.791 6.68071 116.472 14.9218 116.472H242.479C250.72 116.472 257.401 109.791 257.401 101.55V15.0038C257.401 6.76274 250.72 0.0820312 242.479 0.0820312Z" fill="#FFF7F0"/>
<path d="M232.034 12.0195H25.367C19.1862 12.0195 14.1757 17.0301 14.1757 23.2109V93.3432C14.1757 99.524 19.1862 104.535 25.367 104.535H232.034C238.214 104.535 243.225 99.524 243.225 93.3432V23.2109C243.225 17.0301 238.214 12.0195 232.034 12.0195Z" fill="white"/>
<path d="M162.565 52.5475C159.529 50.8165 156.813 48.5559 154.567 45.8774C152.523 43.4526 150.971 40.6473 150.001 37.6182L149.71 36.7975L149.434 37.6182C147.972 41.9903 146.517 44.4897 143.883 47.1607C141.824 49.2871 139.459 51.0926 136.87 52.5176L133.736 48.0858C138.571 45.6685 141.421 43.1766 143.503 39.5655C145.689 35.7978 146.793 30.7318 146.793 24.5094C146.808 23.7335 146.763 22.9576 146.666 22.1816H152.195C152.09 22.9874 152.038 23.7932 152.053 24.6064C152.008 27.9862 152.486 31.3511 153.471 34.5891C154.784 38.2599 157.029 41.5277 159.991 44.0644C161.7 45.579 163.625 46.825 165.699 47.765L162.558 52.5475H162.565Z" fill="#FC6D26"/>
<path d="M178.591 52.5469C177.771 52.5469 175.801 52.5245 174.54 52.4573V48.7866C176.025 48.9209 177.204 49.0104 178.345 49.0104C179.33 49.0104 179.919 48.9433 179.919 47.9957V46.8468L168.474 46.9587V44.0937L179.919 44.1683V42.5567L166.512 42.6836V39.5276L179.919 39.6545V38.0429L168.549 38.125V35.3048L179.919 35.4017V33.8648L168.668 33.9394V27.5529L179.919 27.635V26.0532L166.684 26.195V22.6809H179.927C179.927 22.6809 179.86 21.4126 179.778 20.9873H184.478C184.396 21.4126 184.321 22.6809 184.321 22.6809H197.743V26.195L184.329 26.0532V27.635L195.781 27.5603V33.9394L184.329 33.8648V35.4092L195.736 35.3495L195.669 39.4008L198.079 39.3709V42.8253L195.677 42.8776L195.804 46.8468H184.329V48.4434C184.329 52.0097 183.575 52.5469 178.561 52.5469M184.351 44.1683H191.26V42.5567H184.351V44.1683ZM184.351 39.6321H191.26V38.0205H184.351V39.6321ZM184.351 31.5445H190.499V29.9329H184.351V31.5445ZM173.943 31.5445H179.919V29.9329H173.943V31.5445Z" fill="#FC6D26"/>
<path d="M123.045 49.9957C120.105 49.9957 117.837 49.2197 116.33 47.6753C114.823 46.1309 114.04 43.8255 114.04 40.8337C114.04 37.8419 114.853 35.3425 116.442 33.6339C118.031 31.9254 120.292 31.0674 123.12 31.0674C125.798 31.0674 127.902 31.8508 129.387 33.3952C130.871 34.9396 131.625 37.1704 131.625 39.9981V41.5425H119.247L119.285 42.0647C119.285 43.1988 119.628 44.303 120.292 45.2282C120.986 45.9668 121.971 46.3547 122.978 46.2951C125.037 46.2951 125.917 45.2953 126.29 44.3328H131.364C131.051 45.9519 130.155 47.3993 128.85 48.399C127.126 49.5256 125.089 50.0777 123.038 49.9658M123.112 34.6635C120.866 34.6635 119.538 35.9244 119.262 38.3044L119.203 38.5134H126.664L126.641 38.3343C126.671 37.3345 126.343 36.3572 125.709 35.5812C125.015 34.9321 124.09 34.5964 123.142 34.6635" fill="#FC6D26"/>
<path d="M105.273 49.7041V38.662C105.303 36.8266 103.833 35.312 101.998 35.2822C100.162 35.2524 98.6479 36.7222 98.618 38.5575C98.618 38.5874 98.618 38.6247 98.618 38.6545V49.6966H93.373V31.0519H98.6255V33.2603L98.9687 32.8873C101.423 30.164 105.624 29.9477 108.347 32.4098C109.6 33.5438 110.376 35.1106 110.518 36.7968L110.548 37.3862V49.7116H105.273V49.7041Z" fill="#FC6D26"/>
<path d="M74.1612 52.5546C66.1706 52.5471 59.6946 46.0711 59.6871 38.0805V35.4468C59.6946 27.4562 66.1706 20.9801 74.1612 20.9727H74.6835C82.6741 20.9801 89.1502 27.4562 89.1576 35.4468V38.0805C89.1576 46.0711 82.6741 52.5471 74.6835 52.5546H74.1612ZM74.1612 27.0757C69.543 27.0757 65.7901 30.821 65.7827 35.4468V38.0805C65.7827 42.7062 69.5355 46.4516 74.1612 46.4516H74.6835C79.3018 46.4367 83.0397 42.6838 83.0397 38.0656V35.4468C83.0397 30.821 79.2869 27.0757 74.6611 27.0757H74.1612Z" fill="#FC6D26"/>
<path d="M154.358 63.9248H103.4C100.252 63.9248 97.7003 66.4768 97.7003 69.6249V89.8066C97.7003 92.9547 100.252 95.5068 103.4 95.5068H154.358C157.506 95.5068 160.058 92.9547 160.058 89.8066V69.6249C160.058 66.4768 157.506 63.9248 154.358 63.9248Z" fill="#FC6D26"/>
<path d="M116.069 79.9216H121.717C122.612 79.9216 123.687 79.8694 124.321 79.8172C124.246 80.317 124.201 80.8169 124.194 81.3243C124.015 85.3084 123.784 87.3527 123.351 88.9642C122.888 90.628 121.769 91.2099 119.083 91.2099C118.598 91.2099 118.292 91.1801 116.576 91.1055C116.509 90.1132 116.285 89.1433 115.912 88.2181C116.905 88.3748 117.897 88.4569 118.904 88.4718C120.262 88.4718 120.464 88.345 120.717 87.3452C121.075 85.7336 121.254 84.0922 121.254 82.4434H115.659C115.144 84.719 113.905 86.7707 112.137 88.2927C110.414 89.7103 108.437 90.7921 106.31 91.4636C105.907 90.4862 105.333 89.5909 104.602 88.8299C106.639 88.3748 108.548 87.4571 110.175 86.144C111.369 85.1965 112.249 83.9057 112.682 82.4434H109.235C108.228 82.4285 107.22 82.4807 106.221 82.5926V79.7798C107.213 79.8768 108.213 79.9216 109.213 79.9067H113.197C113.271 79.1755 113.309 78.4444 113.301 77.7132C113.301 77.4147 113.271 77.1163 113.226 76.8179H116.345C116.256 77.3178 116.203 77.8176 116.188 78.325C116.159 79.0188 116.136 79.3247 116.084 79.9141L116.069 79.9216ZM107.026 73.5575H108.765C108.175 72.0205 107.34 70.588 106.288 69.3197L108.869 68.3498C109.914 69.633 110.779 71.0655 111.421 72.5876L109.048 73.5575H119.061C120.21 71.8862 121.15 70.0732 121.844 68.1632L124.657 69.1854C124.502 69.4391 124.112 70.1205 123.485 71.2297C123 72.0504 122.485 72.8934 122.053 73.5575H123.791C124.664 73.5724 125.529 73.5351 126.395 73.453C126.313 74.1469 126.283 74.8482 126.29 75.5495V77.4147C126.283 78.0564 126.32 78.698 126.417 79.3322H123.56V76.0345H107.288V79.3322H104.43C104.527 78.698 104.572 78.0564 104.564 77.4147V75.5794C104.579 74.8706 104.542 74.1618 104.46 73.4605C105.318 73.5425 106.176 73.5724 107.034 73.5575H107.026ZM117.524 72.1772L114.89 73.177C114.346 71.6251 113.592 70.1553 112.645 68.8123L115.226 68.0215C116.114 69.3421 116.882 70.7298 117.524 72.1847V72.1772Z" fill="white"/>
<path d="M143.077 84.2631H141.108C140.436 84.2482 139.765 84.2781 139.093 84.3676V81.913C138.84 82.5546 138.735 82.7337 138.407 83.4201C137.877 82.8456 137.243 82.3681 136.542 82.0174C137.168 81.0027 137.653 79.9134 137.997 78.7719H136.378L136.43 89.1127C136.497 89.732 136.303 90.3512 135.893 90.8213C135.535 91.157 134.744 91.3286 133.52 91.3286C132.961 91.3286 132.162 91.2988 131.401 91.254C131.371 90.396 131.192 89.5454 130.864 88.7546C131.618 88.8963 132.371 88.9859 133.14 89.0083C133.826 89.0083 133.983 88.9038 133.96 88.3965L133.93 82.2935C133.087 84.3527 131.804 86.203 130.178 87.7101C129.887 86.7252 129.454 85.7852 128.902 84.9272C130.871 83.3081 132.364 81.1743 133.222 78.7719H131.461C130.745 78.7495 130.028 78.7943 129.312 78.8988V76.1905C130.073 76.2949 130.842 76.3397 131.61 76.3173H134.162C133.11 75.2653 131.976 74.3028 130.767 73.4299L132.349 71.9004C133.781 72.9748 133.908 73.0494 134.542 73.609C135.348 72.9748 136.042 72.2138 136.609 71.3633H132.162C131.431 71.3558 130.692 71.3856 129.969 71.4677V68.834C130.767 68.9161 131.565 68.9534 132.371 68.9385H136.736C137.459 68.9534 138.183 68.931 138.907 68.8639L140.287 70.3486C140.183 70.4754 139.981 70.7291 139.728 71.0872C138.683 72.5495 137.482 73.8925 136.154 75.1012C136.385 75.3548 136.49 75.4369 136.713 75.713L136.154 76.3248H137.683C138.303 76.3322 138.929 76.3098 139.548 76.2501L140.645 77.608C140.518 77.8617 140.414 78.1303 140.339 78.3989C141.802 78.0631 143.212 77.5334 144.532 76.8172C143.712 76.0487 143.003 75.1609 142.436 74.1835C141.832 74.9743 141.175 75.7279 140.466 76.4292C139.914 75.7503 139.258 75.1683 138.526 74.6908C140.175 73.3777 141.481 71.6841 142.331 69.7592C142.637 69.1474 142.854 68.4908 142.973 67.8193L145.629 68.3267C145.48 68.6177 145.353 68.9161 145.249 69.222C145.122 69.5503 145.017 69.7816 144.816 70.2217H150.106C151.008 70.2292 151.911 70.1919 152.814 70.0949V72.6988C152.202 72.6242 151.59 72.5868 150.979 72.5943C150.426 74.0939 149.568 75.4667 148.449 76.6083C150.001 77.332 151.658 77.8095 153.351 78.0408C152.821 78.8615 152.426 79.7568 152.18 80.6968C150.15 80.2193 148.211 79.421 146.435 78.3243C145.689 78.8316 144.89 79.2718 144.062 79.6299L146.666 79.6598C146.644 79.7717 146.636 79.8836 146.644 79.988C146.614 80.1149 146.592 80.2716 146.569 80.4506C146.569 80.5775 146.547 80.6297 146.517 80.861C146.487 81.2191 146.442 81.3982 146.39 81.8607H150.016C150.688 81.8831 151.367 81.8533 152.031 81.7563C151.971 82.1293 151.941 82.5024 151.926 82.8829C151.851 85.0465 151.553 87.1953 151.031 89.2992C150.523 90.8586 149.859 91.2689 147.86 91.2689C146.957 91.2615 146.054 91.2018 145.152 91.0898C145.099 90.1796 144.898 89.2843 144.562 88.4338C145.532 88.6427 146.509 88.7621 147.502 88.7919C148.322 88.7919 148.576 88.486 148.86 87.1803C149.046 86.2253 149.158 85.2629 149.188 84.293H145.838C144.741 87.7921 142.719 89.8886 138.683 91.6494C138.258 90.8213 137.728 90.0602 137.101 89.3738C140.362 88.1428 142.048 86.7103 143.07 84.2855L143.077 84.2631ZM141.257 81.8383H143.712C143.786 81.2042 143.831 80.5625 143.838 79.9209C143.838 79.8538 143.838 79.7791 143.816 79.7195C142.846 80.1298 142.309 80.3089 140.906 80.764C140.675 80.2268 140.392 79.712 140.063 79.2345C139.728 80.3089 139.526 80.846 139.168 81.7637C139.862 81.8309 140.563 81.8533 141.264 81.8383H141.257ZM148.233 72.5868H144.219C144.764 73.6463 145.51 74.5789 146.413 75.3474C147.226 74.5789 147.845 73.6388 148.225 72.5868H148.233Z" fill="white"/>
<path d="M242.479 187.351H14.9218C6.68071 187.351 0 194.031 0 202.272V288.819C0 297.06 6.68071 303.74 14.9218 303.74H242.479C250.72 303.74 257.401 297.06 257.401 288.819V202.272C257.401 194.031 250.72 187.351 242.479 187.351Z" fill="#FFF7F0"/>
<path d="M232.034 199.288H25.367C19.1862 199.288 14.1757 204.299 14.1757 210.479V280.612C14.1757 286.793 19.1862 291.803 25.367 291.803H232.034C238.214 291.803 243.225 286.793 243.225 280.612V210.479C243.225 204.299 238.214 199.288 232.034 199.288Z" fill="white"/>
<path d="M178.591 239.815C177.771 239.815 175.801 239.793 174.54 239.726V236.055C176.025 236.189 177.204 236.279 178.345 236.279C179.33 236.279 179.919 236.212 179.919 235.272V234.123L168.474 234.235V231.37L179.919 231.444V229.833L166.512 229.96V226.796L179.919 226.923V225.311L168.549 225.394V222.573L179.919 222.67V221.133L168.668 221.208V214.821L179.919 214.904V213.322L166.684 213.464V209.949H179.927C179.927 209.949 179.86 208.681 179.778 208.256H184.478C184.396 208.681 184.321 209.949 184.321 209.949H197.743V213.464L184.329 213.322V214.904L195.781 214.829V221.208L184.329 221.133V222.678L195.736 222.618L195.669 226.669L198.079 226.639V230.094L195.677 230.146L195.804 234.115H184.329V235.712C184.329 239.278 183.575 239.815 178.561 239.815M184.359 231.437H191.267V229.825H184.359V231.437ZM184.359 226.901H191.267V225.289H184.359V226.901ZM184.359 218.813H190.506V217.209H184.359V218.813ZM173.951 218.813H179.927V217.209H173.951V218.813Z" fill="#FC6D26"/>
<path d="M162.565 239.816C159.529 238.085 156.82 235.824 154.567 233.146C152.523 230.721 150.971 227.916 150.001 224.886L149.71 224.066L149.434 224.886C147.972 229.259 146.517 231.758 143.883 234.429C141.824 236.555 139.459 238.361 136.87 239.786L133.736 235.354C138.571 232.937 141.421 230.445 143.503 226.826C145.689 223.058 146.793 217.993 146.793 211.77C146.808 210.994 146.763 210.218 146.666 209.442H152.195C152.09 210.248 152.038 211.054 152.053 211.867C152.008 215.247 152.486 218.612 153.471 221.85C154.784 225.521 157.029 228.788 159.991 231.325C161.7 232.84 163.625 234.086 165.699 235.026L162.558 239.808L162.565 239.816Z" fill="#FC6D26"/>
<path d="M123.045 237.264C120.105 237.264 117.837 236.488 116.33 234.944C114.823 233.399 114.04 231.094 114.04 228.102C114.04 225.11 114.853 222.611 116.442 220.902C118.031 219.194 120.292 218.336 123.12 218.336C125.798 218.336 127.902 219.119 129.387 220.664C130.871 222.208 131.625 224.439 131.625 227.267V228.818H119.247L119.285 229.341C119.285 230.475 119.628 231.579 120.292 232.504C120.986 233.243 121.971 233.631 122.978 233.571C125.037 233.571 125.917 232.571 126.29 231.609H131.364C131.051 233.228 130.155 234.675 128.85 235.675C127.126 236.802 125.089 237.354 123.038 237.242M123.112 221.932C120.866 221.932 119.538 223.193 119.262 225.573L119.203 225.782H126.664L126.641 225.603C126.671 224.603 126.343 223.626 125.709 222.85C125.015 222.201 124.09 221.865 123.142 221.932" fill="#FC6D26"/>
<path d="M105.273 236.973V225.931C105.303 224.095 103.833 222.581 101.998 222.551C100.162 222.521 98.6479 223.991 98.618 225.826C98.618 225.856 98.618 225.893 98.618 225.923V236.965H93.373V218.32H98.6255V220.529L98.9687 220.156C101.423 217.433 105.624 217.216 108.347 219.678C109.6 220.812 110.376 222.379 110.518 224.058L110.548 224.647V236.965H105.273V236.973Z" fill="#FC6D26"/>
<path d="M74.1612 239.823C66.1706 239.816 59.6946 233.34 59.6871 225.349V222.715C59.6946 214.725 66.1706 208.249 74.1612 208.241H74.6835C82.6741 208.249 89.1502 214.725 89.1576 222.715V225.349C89.1502 233.34 82.6741 239.816 74.6835 239.823H74.1612ZM74.1612 214.344C69.5355 214.344 65.7901 218.09 65.7827 222.715V225.349C65.7827 229.975 69.5355 233.72 74.1612 233.72H74.6835C79.3018 233.705 83.0397 229.952 83.0397 225.334V222.715C83.0397 218.09 79.2869 214.344 74.6611 214.337H74.1612V214.344Z" fill="#FC6D26"/>
<path d="M191.984 251.193H65.7901C62.642 251.193 60.09 253.745 60.09 256.893V277.075C60.09 280.223 62.642 282.775 65.7901 282.775H191.984C195.132 282.775 197.684 280.223 197.684 277.075V256.893C197.684 253.745 195.132 251.193 191.984 251.193Z" fill="#FC6D26"/>
<path d="M70.4159 260.416L72.7959 260.878C72.7959 260.878 72.5945 261.281 72.2214 262.035L75.8026 261.997C76.0862 262.02 76.3697 261.96 76.6159 261.826L77.8022 262.997C77.6529 263.154 77.541 263.355 77.4963 263.572C76.9665 265.407 76.1309 267.145 75.0193 268.705C74.1239 269.884 73.0272 270.906 71.7887 271.711C71.065 272.181 70.2965 272.592 69.4982 272.935C69.0953 272.189 68.573 271.51 67.9389 270.943C69.64 270.413 71.1918 269.481 72.4452 268.22C71.6768 267.586 70.8486 267.033 69.9682 266.571L71.3634 264.892C72.2214 265.325 73.0421 265.832 73.8106 266.407C74.303 265.653 74.691 264.833 74.9521 263.975L71.2664 264.004C70.4681 265.37 69.4385 266.586 68.2298 267.608C67.6927 266.989 67.0436 266.481 66.3124 266.108C67.6852 265.101 68.8193 263.795 69.625 262.288C69.9533 261.699 70.2144 261.072 70.3935 260.423L70.4159 260.416ZM80.6298 261.065L83.2785 261.08C83.2113 261.624 83.1815 262.169 83.1889 262.714L83.1069 269.764C85.6734 269.264 87.8594 267.593 89.001 265.243C89.4785 265.981 90.0903 266.631 90.799 267.16C88.8741 270.137 86.412 271.682 82.4876 272.361C82.2041 272.383 81.9355 272.465 81.6893 272.599L80.503 271.219C80.6448 270.876 80.7045 270.503 80.6597 270.13L80.7119 262.736V262.52C80.7119 262.035 80.6895 261.55 80.6298 261.072V261.065ZM91.672 263.303L93.2014 261.43C94.5146 262.154 95.7456 263.027 96.8573 264.034L95.2905 266.108C94.246 264.982 93.0224 264.034 91.672 263.296V263.303ZM92.5001 272.241L91.8063 269.69C93.1791 269.578 94.5369 269.257 95.8128 268.735C97.4318 268.093 98.8046 266.944 99.7073 265.452C100.245 264.639 100.677 263.758 101.006 262.84C101.558 263.534 102.222 264.131 102.96 264.624C101.752 267.242 100.483 268.817 98.6255 270.01C97.0438 271.003 95.2905 271.682 93.4477 272.002C92.9254 272.122 92.8508 272.137 92.4927 272.241H92.5001ZM108.877 272.51H106.31C106.37 271.831 106.4 271.152 106.392 270.473V262.729C106.407 262.087 106.377 261.438 106.303 260.796H108.869C108.81 261.438 108.787 262.087 108.802 262.736V264.556C110.921 265.235 112.95 266.168 114.853 267.324L113.592 269.585C112.271 268.682 110.869 267.906 109.399 267.272C109.19 267.205 108.989 267.116 108.802 267.004V270.465C108.795 271.144 108.817 271.823 108.877 272.502V272.51ZM125.007 263.9L118.912 263.922C118.195 263.907 117.472 263.93 116.755 263.989V261.647C117.487 261.729 118.218 261.766 118.949 261.751L126.238 261.736C126.552 261.751 126.865 261.706 127.156 261.602L128.432 263.042C128.178 263.288 127.977 263.579 127.82 263.892C126.746 265.84 125.313 267.563 123.605 268.988C124.179 269.667 124.552 270.145 125.186 271.01L123.194 272.569C122.456 271.331 121.59 270.167 120.628 269.1C119.822 268.138 118.927 267.25 117.957 266.452L119.777 265.176C120.598 265.825 121.366 266.526 122.075 267.287C122.836 266.66 123.53 265.952 124.149 265.183C124.47 264.78 124.754 264.348 125 263.892L125.007 263.9ZM136.116 272.749H133.617C133.692 272.129 133.722 271.503 133.707 270.876V268.481C132.498 269.152 131.215 269.675 129.872 270.025C129.618 269.287 129.245 268.6 128.782 267.974C130.155 267.69 131.491 267.272 132.774 266.713C134.02 266.183 135.154 265.429 136.124 264.489L132.05 264.519C131.409 264.504 130.774 264.519 130.133 264.586V262.43C130.774 262.512 131.424 262.549 132.073 262.535H133.654V261.803C133.662 261.393 133.639 260.975 133.587 260.565H136.064C136.005 260.968 135.982 261.371 135.982 261.774V262.52H138.094C138.385 262.535 138.676 262.482 138.944 262.37L139.981 263.579C139.842 263.679 139.638 263.882 139.369 264.191C138.623 265.026 137.803 265.795 136.922 266.496C138.437 267.011 139.884 267.712 141.235 268.585L139.922 270.54C138.72 269.645 137.407 268.899 136.027 268.317V270.883C136.005 271.503 136.027 272.122 136.109 272.741L136.116 272.749ZM142.943 262.84L144.129 260.953C145.45 261.423 146.733 262.012 147.949 262.706L146.763 264.743C145.577 263.945 144.294 263.303 142.943 262.833V262.84ZM149.688 261.274L151.001 260.833C151.478 261.483 151.874 262.199 152.172 262.952L150.859 263.43C150.561 262.661 150.173 261.938 149.688 261.266V261.274ZM141.906 266.116L143.13 264.213C144.435 264.706 145.674 265.34 146.838 266.101L145.711 268.19C144.54 267.324 143.264 266.623 141.906 266.108V266.116ZM151.605 260.647L152.859 260.222C153.344 260.848 153.739 261.535 154.045 262.273L152.769 262.736C152.471 261.99 152.083 261.289 151.605 260.639V260.647ZM142.958 272.555L142.294 270.025C143.697 269.973 145.084 269.682 146.39 269.175C148.927 268.145 150.844 265.996 151.575 263.363C152.135 264.012 152.799 264.579 153.53 265.026C151.844 269.205 148.822 271.488 143.898 272.331C143.577 272.39 143.264 272.458 142.951 272.547L142.958 272.555ZM161.722 260.796L164.222 261.632C164.005 262.035 163.819 262.445 163.662 262.87C163.17 264.086 162.58 265.265 161.894 266.384C162.923 267.25 163.893 268.182 164.796 269.175L162.983 271.062C162.23 270.078 161.387 269.167 160.469 268.339C159.066 270.092 157.313 271.54 155.321 272.569C154.896 271.801 154.329 271.115 153.642 270.562C155.589 269.712 157.313 268.414 158.671 266.772C157.581 265.899 156.425 265.109 155.209 264.407L156.843 262.796C157.932 263.43 158.977 264.124 159.984 264.885C160.767 263.624 161.349 262.244 161.715 260.804L161.722 260.796ZM166.833 263.303L168.362 261.43C169.676 262.154 170.907 263.027 172.018 264.034L170.452 266.108C169.407 264.982 168.183 264.034 166.833 263.303ZM167.654 272.241L166.96 269.69C168.333 269.578 169.69 269.257 170.966 268.735C172.585 268.093 173.958 266.944 174.861 265.452C175.398 264.639 175.838 263.766 176.167 262.848C176.719 263.542 177.383 264.139 178.121 264.631C176.913 267.25 175.644 268.824 173.787 270.018C172.205 271.01 170.451 271.689 168.616 272.01C168.101 272.129 168.019 272.137 167.661 272.249L167.654 272.241ZM184.03 272.502H181.464C181.523 271.823 181.553 271.144 181.546 270.465V262.721C181.561 262.079 181.531 261.43 181.456 260.789H184.023C183.963 261.43 183.941 262.079 183.956 262.729V264.549C186.075 265.228 188.104 266.161 190.007 267.317L188.746 269.578C187.425 268.675 186.022 267.899 184.553 267.265C184.344 267.198 184.142 267.108 183.956 266.996V270.458C183.948 271.137 183.971 271.816 184.038 272.495L184.03 272.502Z" fill="white"/>
</svg>
