<svg width="140" height="75" viewBox="0 0 140 75" fill="none" xmlns="http://www.w3.org/2000/svg">
<path d="M119.661 31.7718C118.833 31.7718 116.847 31.7494 115.586 31.6822V27.9878C117.079 28.1222 118.265 28.2117 119.407 28.2117C120.392 28.2117 120.989 28.1445 120.989 27.1967V26.0399L109.473 26.1518V23.2709L120.989 23.3456V21.7185L107.496 21.8454V18.666L120.989 18.7929V17.1659L109.541 17.248V14.4119L120.989 14.5089V12.964L109.667 13.0386V6.61259L120.989 6.69469V5.09752L107.667 5.23932V1.70166H120.989C120.989 1.70166 120.922 0.425415 120.84 0H125.564C125.482 0.425415 125.408 1.70166 125.408 1.70166H138.917V5.23932L125.423 5.09752V6.69469L136.946 6.62005V13.0386L125.423 12.964V14.5163L136.901 14.4492L136.834 18.5242L139.26 18.4943V21.9723L136.842 22.0245L136.969 26.0249H125.423V27.6221C125.423 31.212 124.669 31.7494 119.624 31.7494M125.46 23.3381H132.408V21.7111H125.46V23.3381ZM125.46 18.778H132.408V17.1584H125.46V18.778ZM125.46 10.6428H131.647V9.02327H125.46V10.6428ZM114.989 10.6428H121.004V9.02327H114.989V10.6428Z" fill="#FC6D26"/>
<path d="M103.532 31.7715C100.472 30.0325 97.7484 27.7561 95.4795 25.0619C93.4196 22.6139 91.8597 19.7927 90.882 16.7476L90.5909 15.9266L90.3148 16.7551C88.8445 21.151 87.3817 23.6662 84.7322 26.353C82.6573 28.4876 80.2765 30.3086 77.6718 31.7491L74.5148 27.2859C79.3809 24.8529 82.2468 22.3452 84.3441 18.7105C86.5458 14.9191 87.6578 9.82155 87.6578 3.55975C87.6728 2.77609 87.628 1.99243 87.531 1.21623H93.0912C92.9867 2.02228 92.9344 2.84326 92.9494 3.65677C92.9046 7.06009 93.3897 10.4485 94.3824 13.7025C95.7034 17.3969 97.9648 20.6808 100.943 23.2408C102.659 24.7633 104.6 26.0172 106.69 26.965L103.532 31.7715Z" fill="#FC6D26"/>
<path d="M63.76 29.204C60.797 29.204 58.5207 28.4204 56.9981 26.868C55.4756 25.3156 54.6994 22.9945 54.6994 19.9792C54.6994 16.964 55.5204 14.4563 57.1176 12.7323C58.7148 11.0082 60.9911 10.1499 63.8347 10.1499C66.5289 10.1499 68.6485 10.941 70.1412 12.4934C71.6339 14.0458 72.3952 16.2923 72.3952 19.1359V20.6957H59.9387L59.976 21.2182C59.976 22.3601 60.3268 23.4721 60.9911 24.405C61.6851 25.1514 62.6778 25.547 63.7003 25.4872C65.7676 25.4872 66.6558 24.4871 67.0364 23.5094H72.1489C71.8354 25.1365 70.9324 26.5918 69.6188 27.5994C67.8873 28.7338 65.8348 29.2861 63.7675 29.1742M63.8272 13.7771C61.5658 13.7771 60.2298 15.0459 59.9537 17.4417L59.894 17.6507H67.4021L67.3798 17.4715C67.4096 16.464 67.0738 15.4788 66.4394 14.7026C65.7453 14.0533 64.8123 13.7174 63.857 13.7771" fill="#FC6D26"/>
<path d="M45.8776 28.9128V17.7998C45.8776 15.9489 44.3775 14.4487 42.5265 14.4487C40.6756 14.4487 39.1755 15.9489 39.1755 17.7998V28.9128H33.8988V10.1498H39.1829V12.3739L39.5337 11.9933C42.0116 9.2542 46.2359 9.03776 48.9749 11.5156C50.2363 12.6575 51.0124 14.2323 51.1543 15.9265L51.1841 16.5236V28.9203H45.8776V28.9128Z" fill="#FC6D26"/>
<path d="M14.5611 31.7792C6.52303 31.7718 0.00746342 25.2562 0 17.2181V14.5686C0.00746342 6.53049 6.52303 0.0149268 14.5611 0H15.0836C23.1217 0.00746342 29.6372 6.52303 29.6521 14.5686V17.2181C29.6521 25.2562 23.1291 31.7792 15.091 31.7867H14.5686L14.5611 31.7792ZM14.5611 6.14239C9.91143 6.14239 6.14237 9.91142 6.13491 14.5686V17.2181C6.13491 21.8678 9.91143 25.6443 14.5611 25.6443H15.0836C19.7333 25.6294 23.5023 21.8529 23.4948 17.2032V14.5686C23.4948 9.91888 19.7183 6.14239 15.0686 6.14239H14.5611Z" fill="#FC6D26"/>
<path d="M95.3079 43.2207H43.9596C40.8104 43.2207 38.2575 45.7736 38.2575 48.9227V69.2979C38.2575 72.447 40.8104 74.9999 43.9596 74.9999H95.3079C98.457 74.9999 101.01 72.447 101.01 69.2979V48.9227C101.01 45.7736 98.457 43.2207 95.3079 43.2207Z" fill="#FC6D26"/>
<path d="M65.2676 55.2215H63.3868C63.3271 58.1173 62.9091 60.9907 62.1553 63.782C61.3717 66.5136 59.976 69.0288 58.0654 71.1335C57.6175 70.2976 56.9906 69.5736 56.2368 68.9989C53.535 69.5139 50.6616 69.9244 46.7732 70.3349C46.1313 70.4095 45.9522 70.4394 45.4596 70.514L44.9969 67.7376C45.2133 67.76 45.4224 67.7675 45.6388 67.76C46.512 67.76 47.8479 67.6555 50.3183 67.4241V65.8792H48.139C47.4001 65.8643 46.6612 65.9091 45.9298 66.0061V63.5357C46.6687 63.6477 47.4225 63.6924 48.1689 63.6626H50.3258V62.5058H47.7061C46.9374 62.4834 46.1761 62.5281 45.4149 62.6326V60.1697C46.1836 60.2817 46.9523 60.3264 47.7285 60.2966H50.3258V59.1696H47.6017C46.6762 59.1696 46.4672 59.1696 45.6238 59.2218C45.6761 58.6994 45.7059 58.177 45.6985 57.6545V55.005C45.7209 54.49 45.6985 53.9751 45.6238 53.4601C46.2806 53.5123 46.9449 53.5273 47.6017 53.5123H55.5502C56.2219 53.5273 56.8861 53.5123 57.5578 53.4601C57.4832 54.0497 57.4608 54.6393 57.4832 55.2364V57.55C57.5056 58.4531 57.5056 59.0129 57.5355 59.2218C56.8862 59.1696 56.2368 59.1547 55.58 59.1696H52.7962V60.2966H55.1621C55.9607 60.3115 56.7593 60.2817 57.5504 60.1921V62.6102C56.7593 62.5281 55.9607 62.4908 55.1621 62.5058H52.7962V63.6626H54.7292C55.5054 63.6775 56.2741 63.6477 57.0429 63.5581V65.9762C56.2741 65.8941 55.5054 65.8568 54.7292 65.8718H52.7962V67.1555C54.6471 66.9515 56.1224 66.7723 57.222 66.6181L57.2519 67.5659C59.3565 64.7373 60.4163 60.9832 60.7223 55.1991H60.185C59.4685 55.1767 58.7595 55.2065 58.0505 55.3036V52.5496C58.7669 52.6615 59.4909 52.7063 60.2073 52.6764H60.7746C60.797 51.3405 60.797 51.0867 60.797 49.4597C60.8119 48.7955 60.7597 48.1312 60.6402 47.4819H63.648C63.5435 48.064 63.4838 49.7956 63.4689 52.6764H65.5512C66.3871 52.6914 67.2155 52.654 68.0439 52.5719C67.9942 52.9849 67.9245 54.9478 67.835 58.4606C67.7081 62.8565 67.3498 66.8196 66.9319 68.3869C66.4692 70.1334 65.6482 70.7006 63.5136 70.7006C63.3246 70.7006 62.6404 70.6757 61.4612 70.6259C61.409 69.6632 61.1851 68.7153 60.8194 67.8272C61.5806 67.9988 62.3568 68.0959 63.133 68.1108C64.163 68.1108 64.3645 67.8272 64.6481 65.9762C65.0959 62.4013 65.2974 58.8039 65.2676 55.1991V55.2215ZM50.3258 55.5797H48.0644V57.147H50.3258V55.5797ZM52.7962 55.5797V57.147H55.2143V55.5797H52.7962ZM47.8106 49.2806V48.997C47.8181 48.4969 47.7957 47.9969 47.736 47.5043H50.5124C50.4228 47.9894 50.3855 48.482 50.4079 48.9671V49.2731H52.7216V48.9895C52.744 48.4969 52.7066 48.0043 52.6171 47.5267H55.3711C55.2964 47.9969 55.2741 48.4671 55.2965 48.9373V49.2731H56.0652C56.7816 49.2806 57.4907 49.2358 58.1997 49.1462V51.6689C57.4907 51.5793 56.7816 51.5495 56.0652 51.5644H55.2965V51.7659C55.289 52.1764 55.3114 52.5943 55.3711 52.9974H52.6469C52.7066 52.5794 52.7365 52.1615 52.7216 51.736V51.5569H50.4079V51.736C50.393 52.154 50.4228 52.5794 50.4825 52.9974H47.736C47.7957 52.5794 47.8181 52.1615 47.8106 51.736V51.5569H46.915C46.2358 51.5271 45.5567 51.5569 44.885 51.6614V49.1388C45.5791 49.2507 46.2881 49.2955 46.9897 49.2657H47.8106V49.2806Z" fill="white"/>
<path d="M71.8204 54.2142L71.3801 51.3631C72.3056 51.4676 73.746 51.5199 75.2088 51.5199H75.5671C76.7836 50.2063 77.7912 48.7211 78.5524 47.0941L81.8214 47.7359C81.6323 47.9947 81.3836 48.338 81.0751 48.7659C80.3586 49.766 79.56 50.7437 78.9181 51.49C82.3961 51.4054 85.0183 51.3034 86.7846 51.184C85.9935 50.5272 85.1576 49.9152 84.2918 49.3555L86.6054 47.9449C89.0833 49.5943 91.3821 51.5049 93.442 53.6544L91.1507 55.5053C90.173 54.4231 89.867 54.0873 89.143 53.3484C84.6202 53.7365 78.8883 54.0201 73.9774 54.0948C73.2534 54.0948 72.5294 54.1321 71.8129 54.2216L71.8204 54.2142ZM72.8504 70.365L70.5143 68.5141C71.2457 67.82 71.8727 67.0363 72.3876 66.178C72.9847 65.1705 73.4549 64.0883 73.7758 62.9613L76.2164 63.9912C75.8432 65.275 75.3282 66.5064 74.6714 67.6707C74.1789 68.641 73.5669 69.5515 72.8429 70.365H72.8504ZM76.8881 63.1404H79.8212C79.7242 63.633 79.6794 64.133 79.6944 64.6331V67.514C79.6944 68.1036 80.0302 68.1857 82.2394 68.1857C85.2994 68.1857 85.8367 68.1111 86.1204 67.723C86.3816 67.3647 86.4263 66.902 86.4786 65.3869C87.307 65.8049 88.2026 66.0661 89.1281 66.1556C88.949 68.1111 88.8445 68.6484 88.5385 69.2903C87.9489 70.4695 87.0458 70.6785 82.5976 70.6785C77.7613 70.6785 77.015 70.3949 77.015 68.6186V64.9391C77.0299 64.3346 76.9851 63.73 76.8881 63.1404ZM73.9027 60.155V57.3264C73.9102 56.6323 73.8803 55.9382 73.7982 55.2441C74.6192 55.3337 75.4402 55.3635 76.2686 55.3486H88.2474C89.0833 55.3635 89.9118 55.3337 90.7402 55.2441C90.6581 55.9382 90.6208 56.6323 90.6357 57.3264V60.155C90.6208 60.8715 90.6506 61.5806 90.7402 62.2896C89.9715 62.2075 89.2027 62.1702 88.4265 62.1851H76.0895C75.3282 62.1702 74.5595 62.2075 73.7982 62.2896C73.8803 61.5806 73.9177 60.8715 73.9027 60.1625V60.155ZM87.8369 57.61H76.6343V59.9237H87.8444V57.61H87.8369ZM85.9039 65.1182L83.7694 66.8124C82.8663 65.6481 81.7617 64.6555 80.5004 63.8793L82.6051 62.4165C83.8141 63.1703 84.9262 64.0808 85.8965 65.1182H85.9039ZM94.3898 68.5066L91.8672 70.1486C90.7999 67.8946 89.4341 65.7974 87.8071 63.9017L90.173 62.715C91.7478 64.5211 93.1583 66.4542 94.3898 68.5066Z" fill="white"/>
</svg>
