<svg width="20" height="51" viewBox="0 0 20 51" fill="none" xmlns="http://www.w3.org/2000/svg">
<path d="M10.1844 50.8978L19.7572 40.864C19.8932 40.7205 19.8857 40.5014 19.7421 40.3654C19.6514 40.2823 19.523 40.2445 19.4021 40.2823L13.5617 41.9671C13.811 41.4383 13.9395 40.8565 13.947 40.2672V9.14603L19.4021 10.7251C19.591 10.778 19.7874 10.6722 19.8403 10.4833C19.8781 10.3625 19.8403 10.234 19.7572 10.1433L10.1844 0.109635C10.0484 -0.0339194 9.82928 -0.0339226 9.68573 0.0945211C9.68573 0.0945211 9.67817 0.10208 9.67062 0.109635L0.0977892 10.1433C-0.0382099 10.2869 -0.0306627 10.506 0.112892 10.642C0.203558 10.7251 0.332011 10.7629 0.452899 10.7251L5.91553 9.14603V40.2672C5.91553 40.8565 6.04397 41.4383 6.2933 41.9671L0.452899 40.2823C0.264011 40.2294 0.0675667 40.3352 0.0146781 40.5241C-0.0230994 40.6449 0.0146786 40.7734 0.0977892 40.864L9.67817 50.8902C9.81417 51.0338 10.0333 51.0338 10.1768 50.9053C10.1768 50.9053 10.1844 50.8978 10.1919 50.8902" fill="#FC6D26"/>
</svg>
