<svg width="37" height="23" viewBox="0 0 37 23" fill="none" xmlns="http://www.w3.org/2000/svg">
<path d="M5.79942 22.8671V22.866H5.79515C5.76393 22.8563 5.73373 22.8455 5.70363 22.8347V22.8336H5.70139C5.67455 22.824 5.64871 22.8132 5.62278 22.8024C5.57967 22.7841 5.53564 22.7637 5.49466 22.7411V22.739H5.49038C5.48072 22.7336 5.47208 22.7292 5.46242 22.7238L5.4613 22.7228C5.43436 22.7077 5.40853 22.6916 5.3827 22.6754C5.36653 22.6657 5.35046 22.655 5.33429 22.6442V22.6431H5.33318C5.29016 22.613 5.24816 22.5817 5.20718 22.5483L5.20617 22.5473C5.10926 22.4676 5.01875 22.3771 4.93588 22.2781V22.276H4.93374C4.89601 22.2307 4.85941 22.1833 4.82392 22.1338V22.1327H4.82279C4.78944 22.0864 4.75823 22.039 4.72813 21.9906V21.9895H4.727C4.71083 21.9637 4.69579 21.9367 4.67962 21.9109C4.62796 21.8204 4.57946 21.7246 4.53644 21.6267V21.6234H4.53532C4.50095 21.5459 4.46963 21.4673 4.44167 21.3866V21.3845C4.4255 21.3381 4.40832 21.2907 4.39327 21.2423V21.2402H4.39214C4.36092 21.1411 4.33398 21.0398 4.3114 20.9375L3.99372 19.5346L3.57925 17.701L3.16465 15.8673L2.75018 14.0338L2.33569 12.2001L1.61746 9.02601L1.20297 7.19123L0.788389 5.35656L0.373905 3.52291L0.031526 2.01018C0.0282719 1.99615 0.025011 1.98222 0.0228755 1.96819V1.96066H0.0217584C0.015352 1.92833 0.0110864 1.89599 0.00783231 1.86376V1.8487H0.00670737C-0.00295308 1.75718 -0.00182813 1.66668 0.00783231 1.5773L0.00884864 1.57191C0.0121027 1.54181 0.0163689 1.51161 0.0217584 1.48151H0.0240005V1.46747C0.0282714 1.4449 0.0336542 1.42334 0.0390437 1.40178H0.0400678V1.3965C0.0487114 1.36091 0.0594833 1.32541 0.0712792 1.28982H0.0724042V1.28769C0.107894 1.18326 0.156392 1.08207 0.214559 0.986182H0.215583V0.984048C0.249038 0.930255 0.285641 0.877476 0.324384 0.826835H0.326525V0.823685C0.396487 0.734301 0.476206 0.650303 0.563354 0.571697H0.565596V0.569564L0.581655 0.555529C0.647346 0.498482 0.716298 0.445705 0.789514 0.396183C0.830393 0.368218 0.872384 0.34127 0.9155 0.31656L0.916517 0.315442C1.04678 0.238972 1.18569 0.174399 1.32897 0.124877H1.33111V0.12376C1.34616 0.11837 1.3612 0.112979 1.37625 0.108709H1.3785V0.107591C1.41287 0.096914 1.44846 0.0861343 1.48395 0.0763722H1.49046V0.0742386C1.50876 0.0688491 1.52807 0.0645758 1.54638 0.0603048H1.55401V0.0580705C1.57547 0.052681 1.5959 0.0484076 1.61746 0.0441367L1.70359 0.0279685H1.71336V0.0268513C1.82206 0.00966587 1.93076 0 2.03957 0H30.6795C30.7894 0 30.8951 0.00966587 30.9968 0.0268513V0.0279685H31.0019C31.0497 0.036612 31.0944 0.0462746 31.1392 0.0580705V0.0591876H31.1453C31.2083 0.0763731 31.2714 0.0969092 31.3314 0.120501V0.122743H31.3364C31.372 0.137793 31.4076 0.152843 31.4432 0.170131L31.4442 0.171147C31.4554 0.176536 31.4646 0.180808 31.4747 0.186198V0.187315H31.4768C31.4859 0.192705 31.4971 0.198094 31.5073 0.203483C31.614 0.261649 31.7157 0.330493 31.8093 0.410217L31.8103 0.411234C31.8957 0.482314 31.975 0.56204 32.0483 0.64817V0.650304H32.0503C32.1062 0.715995 32.1591 0.784839 32.2079 0.857038L32.2089 0.858054C32.3604 1.08096 32.4825 1.33508 32.575 1.6075C32.5801 1.62367 32.5862 1.63872 32.5913 1.65489C32.6289 1.7701 32.6614 1.88846 32.6879 2.00805L36.968 20.9387L36.9771 20.9839V20.986C36.9842 21.0205 36.9893 21.056 36.9924 21.0905V21.098C37.0025 21.1895 37.0025 21.281 36.9924 21.3693C36.9893 21.4016 36.9853 21.4329 36.9792 21.4641H36.9761V21.477C36.972 21.4997 36.9669 21.5222 36.9619 21.5438H36.9598V21.5481C36.9517 21.5847 36.9405 21.6202 36.9293 21.6558L36.9283 21.6579C36.907 21.7225 36.8795 21.786 36.848 21.8474C36.8287 21.8851 36.8083 21.9228 36.7859 21.9594H36.7839V21.9626C36.6883 22.1198 36.5632 22.2641 36.4188 22.3901L36.4178 22.3912C36.3863 22.418 36.3548 22.4439 36.3222 22.4697C36.2867 22.4977 36.25 22.5236 36.2124 22.5494H36.2104V22.5505C36.1951 22.5612 36.1789 22.571 36.1636 22.5806L36.1626 22.5817C36.1382 22.5979 36.1117 22.613 36.0863 22.6291H36.0833V22.6313C35.9674 22.6991 35.8453 22.7573 35.7182 22.8045H35.7152V22.8057C35.7019 22.8111 35.6877 22.8164 35.6735 22.8207H35.6674V22.8228C35.5484 22.8638 35.4264 22.8961 35.3033 22.9166H35.3013C35.2647 22.923 35.2281 22.9274 35.1915 22.9317H35.1894C35.1121 22.9403 35.0349 22.9457 34.9576 22.9457H6.31732C6.1353 22.9435 5.9609 22.9176 5.79942 22.8671Z" fill="white"/>
</svg>
