<svg width="139" height="75" viewBox="0 0 139 75" fill="none" xmlns="http://www.w3.org/2000/svg">
<path d="M119.427 31.7129C118.602 31.7129 116.624 31.6904 115.358 31.623V27.9361C116.849 28.071 118.033 28.1609 119.179 28.1609C120.168 28.1609 120.76 28.0935 120.76 27.1493V25.9952L109.265 26.1077V23.2301L120.76 23.305V21.6864L107.294 21.8138V18.6365L120.76 18.7639V17.1452L109.34 17.2277V14.3951L120.76 14.4925V12.9488L109.46 13.0237V6.60913L120.76 6.69157V5.10292L107.467 5.24528V1.71577H120.768C120.768 1.71577 120.7 0.441852 120.618 0.0147128H125.339C125.257 0.441852 125.182 1.71577 125.182 1.71577H138.663V5.24528L125.189 5.10292V6.69157L136.692 6.61663V13.0237L125.189 12.9488V14.5L136.647 14.44L136.58 18.5091L139 18.4791V21.9487L136.587 22.0011L136.714 25.9878H125.189V27.5914C125.189 31.1734 124.432 31.7129 119.397 31.7129M125.219 23.2975H132.158V21.6789H125.219V23.2975ZM125.219 18.7414H132.158V17.1227H125.219V18.7414ZM125.219 10.6182H131.394V9.00711H125.219V10.6182ZM114.765 10.6182H120.768V9.00711H114.765V10.6182Z" fill="#FC6D26"/>
<path d="M103.33 31.7132C100.28 29.9746 97.56 27.704 95.2969 25.0138C93.2437 22.5784 91.685 19.7608 90.7108 16.7183L90.4186 15.894L90.1413 16.7183C88.6725 21.1096 87.2113 23.62 84.566 26.3027C82.4978 28.4384 80.1223 30.2519 77.522 31.6832L74.3746 27.232C79.2305 24.804 82.0931 22.3011 84.1838 18.6667C86.3795 14.8824 87.4885 9.79419 87.4885 3.54447C87.5035 2.76513 87.4586 1.98579 87.3612 1.20645H92.914C92.8091 2.01576 92.7566 2.82508 92.7716 3.64189C92.7266 7.03652 93.2062 10.4162 94.1954 13.6684C95.5143 17.3553 97.7699 20.6375 100.745 23.1854C102.461 24.7066 104.394 25.958 106.477 26.9022L103.323 31.7057L103.33 31.7132Z" fill="#FC6D26"/>
<path d="M63.6362 29.1505C60.6837 29.1505 58.4056 28.3711 56.8919 26.82C55.3782 25.2688 54.5914 22.9532 54.5914 19.9483C54.5914 16.9433 55.4082 14.4329 57.0043 12.7169C58.6005 11.0008 60.871 10.1391 63.7111 10.1391C66.4014 10.1391 68.5146 10.9259 70.0058 12.4771C71.4971 14.0283 72.2539 16.2689 72.2539 19.109V20.6677H59.8219L59.8594 21.1922C59.8594 22.3313 60.2041 23.4403 60.871 24.3695C61.568 25.1114 62.5571 25.5011 63.5688 25.4411C65.637 25.4411 66.5213 24.437 66.896 23.4703H71.9917C71.6769 25.0964 70.7777 26.5502 69.4663 27.5543C67.7352 28.6859 65.6895 29.2404 63.6287 29.128M63.7036 13.751C61.4481 13.751 60.1142 15.0174 59.8369 17.4079L59.777 17.6177H67.2706L67.2482 17.4379C67.2781 16.4337 66.9484 15.4521 66.3114 14.6727C65.6145 14.0208 64.6853 13.6836 63.7336 13.751" fill="#FC6D26"/>
<path d="M45.7863 28.8577V17.767C45.8163 15.9236 44.34 14.4024 42.4966 14.3724C40.6532 14.3424 39.1319 15.8187 39.102 17.6621C39.102 17.6921 39.102 17.7296 39.102 17.7595V28.8502H33.8339V10.1235H39.1095V12.3416L39.4542 11.9669C41.9196 9.23174 46.1385 9.01444 48.8737 11.4873C50.1326 12.6264 50.912 14.2001 51.0544 15.8861L51.0843 16.4781V28.8502H45.7863V28.8577Z" fill="#FC6D26"/>
<path d="M14.5377 31.7207C6.512 31.7132 0.00749367 25.2087 0 17.183V14.5377C0.00749367 6.51201 6.512 0.00749367 14.5377 0H15.0623C23.088 0.00749367 29.5925 6.51201 29.6 14.5377V17.183C29.5925 25.2087 23.088 31.7132 15.0623 31.7207H14.5377ZM14.5377 6.12984C9.89164 6.12984 6.12982 9.89166 6.12232 14.5377V17.183C6.12232 21.8291 9.89164 25.5909 14.5377 25.5909H15.0623C19.7008 25.5759 23.4552 21.8066 23.4552 17.168V14.5377C23.4552 9.89166 19.6859 6.12983 15.0398 6.12234H14.5377V6.12984Z" fill="#FC6D26"/>
<path d="M132.878 43.1408H6.12982C2.9679 43.1408 0.404663 45.7041 0.404663 48.866V69.1364C0.404663 72.2983 2.9679 74.8615 6.12982 74.8615H132.878C136.04 74.8615 138.603 72.2983 138.603 69.1364V48.866C138.603 45.7041 136.04 43.1408 132.878 43.1408Z" fill="#FC6D26"/>
<path d="M10.7759 52.4037L13.1664 52.8683C13.1664 52.8683 12.9641 53.2729 12.5894 54.0298L16.1863 53.9923C16.4711 54.0148 16.7558 53.9548 17.0031 53.82L18.1946 54.9965C18.0448 55.1538 17.9324 55.3562 17.8874 55.5735C17.3553 57.4169 16.516 59.1629 15.3995 60.7291C14.5003 61.9131 13.3987 62.9397 12.1547 63.7491C11.4278 64.2212 10.656 64.6333 9.85418 64.978C9.44952 64.2287 8.92496 63.5467 8.288 62.9772C9.99655 62.4452 11.5552 61.5085 12.8142 60.242C12.0423 59.6051 11.2105 59.0505 10.3263 58.5859L11.7276 56.8999C12.5894 57.3345 13.4137 57.8441 14.1855 58.4211C14.6801 57.6642 15.0698 56.8399 15.332 55.9781L11.6302 56.0081C10.8284 57.3795 9.79423 58.6009 8.58025 59.6275C8.04071 59.0056 7.38876 58.496 6.65438 58.1213C8.03321 57.1097 9.17225 55.7983 9.98157 54.2846C10.3113 53.6926 10.5736 53.0631 10.7534 52.4111L10.7759 52.4037ZM21.0347 53.0556L23.695 53.0706C23.6275 53.6176 23.5976 54.1647 23.6051 54.7117L23.5226 61.7932C26.1004 61.2911 28.2961 59.6126 29.4426 57.2521C29.9222 57.9939 30.5367 58.6459 31.2486 59.1779C29.3152 62.1679 26.8423 63.7191 22.9006 64.401C22.6159 64.4235 22.3461 64.5059 22.0988 64.6408L20.9073 63.2545C21.0497 62.9098 21.1097 62.5351 21.0647 62.1604L21.1172 54.7342V54.5169C21.1172 54.0298 21.0947 53.5427 21.0347 53.0631V53.0556ZM32.1254 55.3037L33.6616 53.4228C34.9804 54.1497 36.2169 55.0264 37.3335 56.0381L35.7598 58.1213C34.7107 56.9898 33.4817 56.0381 32.1254 55.2962V55.3037ZM32.9572 64.2811L32.2602 61.7183C33.6391 61.6059 35.0029 61.2837 36.2843 60.7591C37.9105 60.1146 39.2893 58.9606 40.196 57.4619C40.7356 56.6451 41.1702 55.7608 41.4999 54.8391C42.0545 55.536 42.7214 56.1355 43.4633 56.6301C42.2493 59.2604 40.9754 60.8415 39.1095 62.0405C37.5208 63.0372 35.7598 63.7191 33.9088 64.0413C33.3843 64.1612 33.3094 64.1762 32.9497 64.2811H32.9572ZM49.4057 64.5509H46.8279C46.8879 63.869 46.9179 63.187 46.9104 62.5051V54.7267C46.9253 54.0822 46.8954 53.4303 46.8204 52.7858H49.3983C49.3383 53.4303 49.3158 54.0822 49.3308 54.7342V56.5626C51.459 57.2446 53.4973 58.1813 55.4082 59.3428L54.1417 61.6134C52.8154 60.7066 51.4066 59.9273 49.9303 59.2903C49.7205 59.2229 49.5182 59.133 49.3308 59.0206V62.4976C49.3233 63.1796 49.3458 63.8615 49.4057 64.5434V64.5509ZM65.6071 55.9032L59.4847 55.9257C58.7653 55.9107 58.0385 55.9332 57.3191 55.9931V53.6401C58.0534 53.7225 58.7878 53.76 59.5222 53.745L66.8435 53.73C67.1582 53.745 67.473 53.7001 67.7652 53.5952L69.0466 55.0414C68.7919 55.2887 68.5895 55.581 68.4322 55.8957C67.3531 57.8516 65.9143 59.5826 64.1982 61.0139C64.7753 61.6958 65.1499 62.1754 65.7869 63.0447L63.7861 64.6108C63.0442 63.3669 62.1749 62.1979 61.2083 61.1263C60.3989 60.1596 59.4997 59.2679 58.5255 58.466L60.354 57.1846C61.1783 57.8366 61.9501 58.541 62.662 59.3053C63.4264 58.6759 64.1233 57.964 64.7453 57.1921C65.0675 56.7874 65.3523 56.3528 65.5996 55.8957L65.6071 55.9032ZM76.7651 64.7907H74.2547C74.3297 64.1687 74.3597 63.5392 74.3447 62.9098V60.5043C73.1307 61.1787 71.8418 61.7033 70.4929 62.0555C70.2381 61.3136 69.8635 60.6242 69.3988 59.9947C70.7777 59.71 72.1191 59.2903 73.408 58.7283C74.6594 58.1963 75.7984 57.4394 76.7726 56.4952L72.6811 56.5252C72.0366 56.5102 71.3997 56.5252 70.7552 56.5926V54.4269C71.3997 54.5094 72.0516 54.5468 72.7036 54.5319H74.2922V53.7975C74.2997 53.3853 74.2772 52.9657 74.2248 52.5535H76.7127C76.6527 52.9582 76.6302 53.3628 76.6302 53.7675V54.5169H78.7509C79.0432 54.5318 79.3354 54.4794 79.6052 54.367L80.6468 55.581C80.507 55.6809 80.3021 55.8857 80.0324 56.1955C79.283 57.0347 78.4587 57.8066 77.5744 58.511C79.0957 59.0281 80.5494 59.7325 81.9058 60.6092L80.5869 62.5725C79.3804 61.6733 78.0615 60.924 76.6752 60.3395V62.9173C76.6527 63.5392 76.6752 64.1612 76.7576 64.7832L76.7651 64.7907ZM83.6218 54.8391L84.8133 52.9432C86.1397 53.4153 87.4286 54.0073 88.6501 54.7042L87.4586 56.75C86.2671 55.9482 84.9782 55.3037 83.6218 54.8316V54.8391ZM90.3961 53.2654L91.715 52.8233C92.1946 53.4753 92.5918 54.1946 92.8915 54.9515L91.5726 55.4311C91.2729 54.6592 90.8832 53.9324 90.3961 53.2579V53.2654ZM82.5802 58.1288L83.8092 56.2179C85.1206 56.7125 86.3645 57.3495 87.5335 58.1138L86.402 60.212C85.2255 59.3428 83.944 58.6384 82.5802 58.1213V58.1288ZM92.322 52.636L93.5809 52.2088C94.068 52.8383 94.4652 53.5277 94.7724 54.2696L93.491 54.7342C93.1912 53.9848 92.8016 53.2804 92.322 52.6285V52.636ZM83.6368 64.5958L82.9699 62.0555C84.3787 62.0031 85.7725 61.7108 87.0839 61.2012C89.6318 60.1671 91.5576 58.0089 92.292 55.3636C92.854 56.0156 93.521 56.5851 94.2553 57.0347C92.5618 61.2312 89.5268 63.5243 84.581 64.371C84.2588 64.431 83.9441 64.4984 83.6293 64.5883L83.6368 64.5958ZM102.483 52.7858L104.994 53.6251C104.776 54.0298 104.589 54.4419 104.432 54.8691C103.937 56.0905 103.345 57.2745 102.656 58.3986C103.69 59.2679 104.664 60.2046 105.571 61.2012L103.75 63.0971C102.993 62.108 102.146 61.1937 101.224 60.3619C99.8156 62.1229 98.0546 63.5767 96.0538 64.6108C95.6267 63.839 95.0572 63.1496 94.3677 62.5951C96.3236 61.7408 98.0546 60.4369 99.4185 58.7883C98.3244 57.9115 97.1629 57.1172 95.9414 56.4128L97.5825 54.7941C98.6766 55.4311 99.7257 56.128 100.737 56.8924C101.524 55.6259 102.109 54.2396 102.476 52.7933L102.483 52.7858ZM107.617 55.3037L109.153 53.4228C110.472 54.1497 111.708 55.0264 112.825 56.0381L111.251 58.1213C110.202 56.9898 108.973 56.0381 107.617 55.3037ZM108.441 64.2811L107.744 61.7183C109.123 61.6059 110.487 61.2837 111.768 60.7591C113.394 60.1146 114.773 58.9606 115.68 57.4619C116.219 56.6451 116.661 55.7683 116.991 54.8466C117.546 55.5435 118.213 56.143 118.954 56.6376C117.74 59.2679 116.467 60.849 114.601 62.048C113.012 63.0447 111.251 63.7266 109.408 64.0488C108.89 64.1687 108.808 64.1762 108.448 64.2886L108.441 64.2811ZM124.889 64.5434H122.312C122.372 63.8615 122.402 63.1796 122.394 62.4976V54.7192C122.409 54.0747 122.379 53.4228 122.304 52.7783H124.882C124.822 53.4228 124.8 54.0748 124.815 54.7267V56.5551C126.943 57.2371 128.981 58.1738 130.892 59.3353L129.625 61.6059C128.299 60.6991 126.89 59.9198 125.414 59.2828C125.204 59.2154 125.002 59.1255 124.815 59.0131V62.4901C124.807 63.1721 124.83 63.854 124.897 64.5359L124.889 64.5434Z" fill="white"/>
</svg>
