<svg width="64" height="65" viewBox="0 0 64 65" fill="none" xmlns="http://www.w3.org/2000/svg">
<g clip-path="url(#clip0_1_3457)">
<path d="M56 0.195312H8C3.58172 0.195312 0 3.77703 0 8.19531V56.1953C0 60.6136 3.58172 64.1953 8 64.1953H56C60.4183 64.1953 64 60.6136 64 56.1953V8.19531C64 3.77703 60.4183 0.195312 56 0.195312Z" fill="url(#paint0_linear_1_3457)"/>
<path d="M44.5131 47.2139V20.4983C44.5131 20.1542 44.2316 19.8727 43.8874 19.8727H37.0052V15.3053C37.0052 14.9612 36.7237 14.6797 36.3795 14.6797H20.1124C19.7683 14.6797 19.4868 14.9612 19.4868 15.3053V47.2139H16.9841V49.7166H47.0157V47.2139H44.5131ZM26.9947 42.2087H24.492V39.706H26.9947V42.2087ZM26.9947 37.2034H24.492V34.7008H26.9947V37.2034ZM26.9947 32.1981H24.492V29.6955H26.9947V32.1981ZM26.9947 27.1929H24.492V24.6902H26.9947V27.1929ZM26.9947 22.1876H24.492V19.685H26.9947V22.1876ZM31.9999 42.2087H29.4973V39.706H31.9999V42.2087ZM31.9999 37.2034H29.4973V34.7008H31.9999V37.2034ZM31.9999 32.1981H29.4973V29.6955H31.9999V32.1981ZM31.9999 27.1929H29.4973V24.6902H31.9999V27.1929ZM31.9999 22.1876H29.4973V19.685H31.9999V22.1876ZM39.5078 42.2087H37.0052V39.706H39.5078V42.2087ZM39.5078 37.2034H37.0052V34.7008H39.5078V37.2034ZM39.5078 32.1981H37.0052V29.6955H39.5078V32.1981ZM39.5078 27.1929H37.0052V24.6902H39.5078V27.1929Z" fill="white"/>
</g>
<defs>
<linearGradient id="paint0_linear_1_3457" x1="35.4374" y1="66.9423" x2="10.267" y2="-11.5007" gradientUnits="userSpaceOnUse">
<stop stop-color="#A8A8A8"/>
<stop offset="1" stop-color="#FAFAFA"/>
</linearGradient>
<clipPath id="clip0_1_3457">
<rect width="64" height="65" fill="white"/>
</clipPath>
</defs>
</svg>
