<svg width="100" height="54" viewBox="0 0 100 54" fill="none" xmlns="http://www.w3.org/2000/svg">
<path d="M85.9191 22.8107C85.3235 22.8107 83.9009 22.7923 82.9906 22.7465V20.0926C84.0614 20.1903 84.9131 20.2544 85.737 20.2544C86.4467 20.2544 86.8757 20.2056 86.8757 19.5245V18.6938L78.6086 18.7732V16.7026L86.8757 16.7545V15.5879L77.1891 15.6795V13.3981L86.8757 13.4897V12.3231L78.6579 12.3811V10.3441L86.8757 10.4143V9.30569L78.7474 9.36066V4.746L86.8788 4.80402V3.65874L77.3125 3.75953V1.22162H86.8788C86.8788 1.22162 86.8294 0.305405 86.7708 0H90.1653C90.1066 0.305405 90.0542 1.22162 90.0542 1.22162H99.7532V3.75953L90.0634 3.65874V4.80402L98.3367 4.74905V9.3576L90.0634 9.30569V10.4204L98.3059 10.3746L98.2565 13.3004L100 13.279V15.7772L98.2627 15.8169L98.3552 18.6877H90.0634V19.8391C90.0634 22.4167 89.5203 22.8046 85.8975 22.8046M90.085 16.7576H95.0749V15.5909H90.085V16.7576ZM90.085 13.4806H95.0749V12.3139H90.085V13.4806ZM90.085 7.63818H94.5287V6.47458H90.085V7.63818ZM82.5647 7.63818H86.885V6.47458H82.5647V7.63818Z" fill="#FD6C26"/>
<path d="M74.34 22.8139C71.7773 21.2626 70.0926 19.8447 68.56 17.9955C67.108 16.289 66.1524 14.5608 65.2589 12.0291L65.0479 11.4365L64.8494 12.0322C63.7914 15.1907 62.7427 16.9964 60.8409 18.9263C59.3525 20.4613 57.6439 21.7663 55.7713 22.7984L53.5064 19.5934C56.9999 17.8466 59.0569 16.047 60.5647 13.4346C62.1439 10.7135 62.9444 7.05241 62.9444 2.55665C62.9532 1.9947 62.9231 1.4328 62.8544 0.875001H66.8474C66.7698 1.45599 66.7356 2.04195 66.745 2.62801C66.745 5.26839 67.1359 8.02975 67.772 9.83861C68.7217 12.4908 70.3447 14.8505 72.4816 16.6862C73.7159 17.7786 75.1068 18.6801 76.608 19.3607L74.34 22.8139Z" fill="#FD6C26"/>
<path d="M45.7812 20.9723C43.6551 20.9723 42.0204 20.4098 40.9265 19.2972C39.8325 18.1846 39.2732 16.5158 39.2732 14.3524C39.2732 12.1335 39.8603 10.3843 41.0099 9.15117C42.1594 7.91807 43.7911 7.29688 45.8337 7.29688C47.7682 7.29688 49.2917 7.86244 50.3609 8.98119C51.4302 10.0999 51.9802 11.7101 51.9802 13.7529V14.8716H43.034L43.0618 15.2487C43.1359 16.2963 43.3708 17.0442 43.788 17.5356C44.2052 18.027 44.8696 18.3052 45.7286 18.3052C47.215 18.3052 47.8517 17.5851 48.1236 16.8866H51.7917C51.5647 18.0552 50.9185 19.1004 49.9747 19.8257C48.958 20.5767 47.5458 20.9568 45.775 20.9568M45.8275 9.89601C44.2052 9.89601 43.2441 10.8077 43.0463 12.5291L43.0031 12.6805H48.3925L48.377 12.5507C48.34 11.6606 48.1113 10.99 47.7002 10.5604C47.4532 10.3285 47.1611 10.1499 46.8421 10.0356C46.5232 9.92131 46.1841 9.87371 45.8461 9.89601" fill="#FD6C26"/>
<path d="M32.9415 20.7648V12.7852C32.9415 12.1475 32.6882 11.536 32.2374 11.0851C31.7865 10.6341 31.175 10.3808 30.5373 10.3808C29.8997 10.3808 29.2881 10.6341 28.8372 11.0851C28.3864 11.536 28.1331 12.1475 28.1331 12.7852V20.7648H24.3445V7.29036H28.1392V8.88505L28.3896 8.61308C29.0171 7.91845 29.8341 7.42254 30.7401 7.18642C31.6459 6.9503 32.601 6.98428 33.4878 7.28417C34.3745 7.58406 35.1543 8.13676 35.7309 8.87422C36.3075 9.61171 36.6559 10.5017 36.7332 11.4347L36.7548 11.8612V20.7648H32.9415Z" fill="#FD6C26"/>
<path d="M10.4572 22.8201C7.68482 22.8168 5.02689 21.7139 3.06647 19.7534C1.10607 17.7928 0.00327131 15.1346 0 12.3619V10.4582C0.00327131 7.68551 1.10607 5.02733 3.06647 3.06674C5.02689 1.10616 7.68482 0.003272 10.4572 0H10.8342C13.6067 0.003272 16.2646 1.10616 18.225 3.06674C20.1854 5.02733 21.2882 7.68551 21.2915 10.4582V12.3588C21.289 15.132 20.1866 17.791 18.2261 19.7523C16.2656 21.7135 13.6072 22.8168 10.8342 22.8201H10.4572ZM10.4572 4.41012C8.85357 4.41176 7.31599 5.04939 6.18172 6.18318C5.04746 7.31697 4.40909 8.85436 4.40664 10.4582V12.3588C4.40828 13.9632 5.04627 15.5014 6.18063 16.6358C7.31499 17.7703 8.85303 18.4084 10.4572 18.41H10.8342C12.4379 18.4051 13.9742 17.7643 15.1062 16.6282C16.2381 15.4921 16.8733 13.9534 16.8725 12.3496V10.4582C16.8709 8.85383 16.2329 7.31564 15.0985 6.18119C13.9642 5.04673 12.4261 4.40867 10.8219 4.40704L10.4572 4.41012Z" fill="#FD6C26"/>
<path d="M69.0413 31.0391H30.9587C29.0321 31.0391 27.4702 32.6009 27.4702 34.5276V50.3708C27.4702 52.2974 29.0321 53.8592 30.9587 53.8592H69.0413C70.9679 53.8592 72.5297 52.2974 72.5297 50.3708V34.5276C72.5297 32.6009 70.9679 31.0391 69.0413 31.0391Z" fill="#FD6C26"/>
<path d="M40.7425 42.5935H44.8221C45.4682 42.5935 46.2435 42.5566 46.705 42.5197C46.6496 42.8519 46.6496 42.9258 46.6127 43.6088C46.4835 46.4885 46.3173 47.9652 46.0035 49.1282C45.6712 50.328 44.859 50.7526 42.9207 50.7526C42.57 50.7526 42.3485 50.7342 41.1117 50.6788C41.0378 49.8666 40.8902 49.2205 40.6317 48.5929C41.3147 48.7036 42.2193 48.7774 42.7915 48.7774C43.7699 48.7774 43.9176 48.6851 44.1022 47.9652C44.3237 47.1345 44.4344 46.1008 44.4898 44.421H40.4471C39.9672 46.2485 39.1734 47.5591 37.8997 48.6482C36.8105 49.5897 35.6476 50.2173 33.6907 50.9372C33.3215 50.1065 32.9708 49.5712 32.4539 49.0359C34.2076 48.5744 35.3521 48.0206 36.4783 47.0976C37.3828 46.3592 37.8997 45.5839 38.2873 44.421H35.7953C34.9646 44.421 34.1339 44.4579 33.617 44.5317V42.5012C34.0231 42.5566 34.8722 42.5935 35.7768 42.5935H38.6565C38.7119 41.9843 38.7304 41.689 38.7304 41.006C38.7304 40.8214 38.7119 40.5814 38.675 40.3599H40.9271C40.8717 40.5999 40.8532 40.8398 40.8163 41.449C40.7979 41.9474 40.7794 42.1689 40.7425 42.5935ZM34.2076 37.9971H35.4629C34.7799 36.4465 34.503 35.9665 33.6723 34.9328L35.5368 34.2313C36.4229 35.3758 36.7552 35.9296 37.3828 37.2956L35.666 37.9971H42.9023C43.9176 36.4465 44.4714 35.3389 44.9144 34.1021L46.945 34.8405C46.7788 35.1174 46.7788 35.1174 46.0958 36.3172C45.7451 36.9079 45.3759 37.5171 45.0621 37.9971H46.3173C47.148 37.9971 47.6095 37.9786 48.2002 37.9232C48.1449 38.3662 48.1264 38.7539 48.1264 39.4369V40.7845C48.1264 41.3567 48.1449 41.6521 48.2187 42.1689H46.1512V39.7876H34.3923V42.1689H32.3247C32.3985 41.6705 32.417 41.2829 32.417 40.7845V39.4554C32.417 38.7908 32.3985 38.3847 32.3432 37.9232C32.9523 37.9786 33.3585 37.9971 34.2076 37.9971ZM41.7947 37.0002L39.8933 37.7202C39.4134 36.428 39.0811 35.7819 38.2689 34.5636L40.1333 33.9913C40.7979 34.9881 41.2594 35.8188 41.7947 37.0002Z" fill="white"/>
<path d="M60.2545 45.7318H58.8331C58.1132 45.7318 57.7809 45.7503 57.3748 45.8057V44.0335C57.1902 44.495 57.1163 44.6242 56.8763 45.1227C56.3595 44.6058 56.138 44.4396 55.5288 44.1074C55.9903 43.3505 56.341 42.5752 56.581 41.763H55.418L55.4549 49.2391C55.4549 49.8114 55.3442 50.199 55.0673 50.4759C54.8088 50.7159 54.2366 50.8451 53.3505 50.8451C52.9444 50.8451 52.3722 50.8267 51.8184 50.7897C51.7814 50.0883 51.6891 49.6637 51.4307 48.9807C52.1876 49.1099 52.7229 49.1653 53.0736 49.1653C53.572 49.1653 53.6828 49.0915 53.6643 48.7223L53.6459 44.3104C52.9444 45.9349 52.0953 47.1532 50.9323 48.2239C50.6554 47.3563 50.4339 46.8948 50.0093 46.2118C51.5045 44.9381 52.3352 43.7566 53.129 41.763H51.8553C51.1538 41.763 50.7292 41.7815 50.3047 41.8553V39.8986C50.7662 39.9724 51.2092 39.9909 51.966 39.9909H53.812C52.9259 39.1233 52.206 38.5141 51.3569 37.905L52.5014 36.7974C53.5351 37.5727 53.6274 37.6281 54.0889 38.0342C54.6981 37.5542 55.1042 37.0927 55.5842 36.4097H52.3722C51.7261 36.4097 51.2646 36.4282 50.7846 36.4836V34.5822C51.283 34.6376 51.7076 34.6561 52.5198 34.6561H55.6765C56.6179 34.6561 56.8579 34.6376 57.2455 34.6007L58.2424 35.6713C58.1685 35.7636 58.0209 35.9482 57.8363 36.2067C57.0425 37.2958 55.9718 38.5141 55.2519 39.1048C55.418 39.2894 55.4919 39.3448 55.658 39.5479L55.2519 39.9909H56.3595C57.0056 39.9909 57.3563 39.9724 57.707 39.9355L58.5008 40.9139C58.427 41.0615 58.3716 41.1908 58.2793 41.4861C59.4423 41.2092 60.4022 40.84 61.3067 40.3416C60.6606 39.714 60.1806 39.1233 59.793 38.4403C59.35 39.031 59.0915 39.3079 58.3716 40.0647C57.947 39.5479 57.5409 39.1971 56.9686 38.8095C58.3531 37.6096 59.0915 36.6497 59.7192 35.2468C59.9776 34.6745 60.0699 34.4161 60.1807 33.8438L62.1005 34.213C62.0451 34.3053 61.9343 34.5638 61.8236 34.8591C61.7313 35.0991 61.6574 35.2652 61.5098 35.5791H65.3309C66.1985 35.5791 66.8077 35.5421 67.2877 35.4868V37.3696C66.8631 37.3143 66.5308 37.2958 65.9586 37.2958C65.3863 38.6618 64.9987 39.271 64.131 40.1939C65.2202 40.7108 66.0878 40.9508 67.6753 41.2277C67.2323 41.9476 67.1031 42.2614 66.8262 43.1475C64.8141 42.5752 63.7434 42.1322 62.6727 41.4307C62.1743 41.7815 61.7497 42.003 60.956 42.3722L62.8389 42.3906C62.8204 42.5199 62.8204 42.5199 62.8204 42.6306C62.8019 42.7229 62.7835 42.8337 62.765 42.9629C62.765 43.0552 62.7466 43.0921 62.7281 43.2582C62.7096 43.5167 62.6727 43.6459 62.6358 43.9782H65.2571C66.0693 43.9782 66.3831 43.9597 66.7154 43.9043C66.66 44.3289 66.66 44.3289 66.6416 44.7165C66.4939 46.9132 66.2539 48.5931 65.9955 49.3499C65.6263 50.4759 65.1463 50.7713 63.7065 50.7713C63.1896 50.7713 62.5989 50.7344 61.7497 50.6421C61.6944 49.9037 61.6021 49.4976 61.3252 48.7223C62.1743 48.8884 62.8942 48.9807 63.448 48.9807C64.0387 48.9807 64.2233 48.7592 64.4264 47.8177C64.5556 47.2086 64.611 46.6548 64.6664 45.7318H62.2481C61.4544 48.2608 59.9961 49.7745 57.0794 51.0482C56.7471 50.4205 56.4333 49.9591 55.9349 49.4053C58.2977 48.5192 59.5161 47.4855 60.2545 45.7318ZM58.9438 43.9782H60.716C60.7714 43.4613 60.8083 43.0367 60.8083 42.5937C60.8083 42.5199 60.8083 42.5014 60.7898 42.446C60.0884 42.7414 59.7007 42.8706 58.6854 43.2029C58.4639 42.7044 58.3716 42.5568 58.0762 42.0953C57.8363 42.8706 57.6886 43.2582 57.4301 43.9228C57.7624 43.9597 58.1132 43.9782 58.9438 43.9782ZM63.9834 37.2958H61.0852C61.4359 38.0157 61.9528 38.6433 62.6727 39.2894C63.3373 38.6064 63.6326 38.1819 63.9834 37.2958Z" fill="white"/>
</svg>
