<svg width="100" height="54" viewBox="0 0 100 54" fill="none" xmlns="http://www.w3.org/2000/svg">
<path d="M85.9191 22.811C85.3235 22.811 83.9009 22.7926 82.9906 22.7468V20.0928C84.0614 20.1906 84.9131 20.2547 85.737 20.2547C86.4468 20.2547 86.8757 20.2058 86.8757 19.5248V18.6941L78.6086 18.7735V16.7028L86.8757 16.7547V15.5881L77.1891 15.6797V13.3983L86.8757 13.4899V12.3232L78.658 12.3813V10.3442L86.8757 10.4144V9.3058L78.7475 9.36077V4.74605L86.8788 4.80407V3.65879L77.3125 3.75958V1.22163H86.8788C86.8788 1.22163 86.8294 0.305409 86.7708 0H90.1653C90.1067 0.305409 90.0542 1.22163 90.0542 1.22163H99.7532V3.75958L90.0634 3.65879V4.80407L98.3367 4.7491V9.35771L90.0634 9.3058V10.4205L98.3059 10.3747L98.2565 13.3005L100 13.2792V15.7774L98.2627 15.8171L98.3553 18.6879H90.0634V19.8393C90.0634 22.417 89.5203 22.8048 85.8975 22.8048M90.0851 16.7578H95.0749V15.5911H90.0851V16.7578ZM90.0851 13.4807H95.0749V12.3141H90.0851V13.4807ZM90.0851 7.63827H94.5287V6.47465H90.0851V7.63827ZM82.5647 7.63827H86.885V6.47465H82.5647V7.63827Z" fill="#FD6C26"/>
<path d="M74.3399 22.8142C71.7772 21.2628 70.0925 19.8449 68.5599 17.9957C67.1079 16.2892 66.1523 14.561 65.2588 12.0292L65.0478 11.4366L64.8493 12.0323C63.7913 15.1909 62.7426 16.9966 60.8408 18.9265C59.3524 20.4616 57.6438 21.7666 55.7712 22.7987L53.5063 19.5936C56.9998 17.8468 59.0568 16.0472 60.5646 13.4347C62.1438 10.7137 62.9443 7.05248 62.9443 2.55667C62.9531 1.99471 62.923 1.43281 62.8543 0.875H66.8473C66.7697 1.45599 66.7355 2.04196 66.7449 2.62803C66.7449 5.26843 67.1358 8.02983 67.7719 9.8387C68.7216 12.491 70.3446 14.8507 72.4815 16.6864C73.7158 17.7788 75.1067 18.6803 76.6079 19.3609L74.3399 22.8142Z" fill="#FD6C26"/>
<path d="M45.7813 20.9724C43.6552 20.9724 42.0205 20.4099 40.9266 19.2974C39.8326 18.1848 39.2733 16.5159 39.2733 14.3525C39.2733 12.1335 39.8605 10.3843 41.01 9.15119C42.1596 7.91807 43.7912 7.29688 45.8338 7.29688C47.7683 7.29688 49.2918 7.86243 50.361 8.9812C51.4302 10.1 51.9802 11.7101 51.9802 13.753V14.8717H43.0341L43.0619 15.2488C43.1361 16.2965 43.3709 17.0444 43.7881 17.5358C44.2053 18.0272 44.8697 18.3053 45.7288 18.3053C47.2151 18.3053 47.8517 17.5852 48.1237 16.8868H51.7917C51.5648 18.0553 50.9185 19.1006 49.9747 19.8258C48.958 20.5768 47.5458 20.957 45.7751 20.957M45.8276 9.896C44.2053 9.896 43.2442 10.8077 43.0465 12.5291L43.0032 12.6806H48.3925L48.3771 12.5508C48.34 11.6607 48.1113 10.99 47.7003 10.5605C47.4533 10.3286 47.1612 10.1499 46.8423 10.0356C46.5233 9.92129 46.1843 9.8738 45.8462 9.896" fill="#FD6C26"/>
<path d="M32.9414 20.765V12.7853C32.9414 12.1476 32.6881 11.536 32.2373 11.0851C31.7864 10.6342 31.1749 10.3809 30.5372 10.3809C29.8996 10.3809 29.2881 10.6342 28.8372 11.0851C28.3864 11.536 28.1331 12.1476 28.1331 12.7853V20.765H24.3445V7.29035H28.1392V8.88506L28.3896 8.61309C29.0171 7.91846 29.8341 7.42254 30.74 7.18642C31.6458 6.95029 32.6009 6.98427 33.4877 7.28416C34.3744 7.58405 35.1542 8.13676 35.7308 8.87423C36.3074 9.6117 36.6558 10.5017 36.7331 11.4347L36.7547 11.8612V20.765H32.9414Z" fill="#FD6C26"/>
<path d="M10.4572 22.8204C7.68481 22.8171 5.02688 21.7142 3.06647 19.7536C1.10607 17.793 0.00327131 15.1348 0 12.3621V10.4583C0.00327131 7.6856 1.10607 5.02739 3.06647 3.06678C5.02688 1.10617 7.68481 0.003272 10.4572 0H10.8342C13.6067 0.003272 16.2646 1.10617 18.225 3.06678C20.1854 5.02739 21.2882 7.6856 21.2915 10.4583V12.359C21.289 15.1322 20.1866 17.7912 18.2261 19.7525C16.2656 21.7138 13.6072 22.8171 10.8342 22.8204H10.4572ZM10.4572 4.41017C8.85356 4.4118 7.31598 5.04944 6.18171 6.18325C5.04745 7.31705 4.40908 8.85447 4.40663 10.4583V12.359C4.40827 13.9634 5.04626 15.5016 6.18062 16.636C7.31498 17.7705 8.85302 18.4086 10.4572 18.4102H10.8342C12.4379 18.4053 13.9742 17.7645 15.1062 16.6284C16.2381 15.4923 16.8733 13.9536 16.8725 12.3497V10.4583C16.8709 8.85393 16.2329 7.31573 15.0985 6.18125C13.9642 5.04678 12.4261 4.40872 10.8219 4.40708L10.4572 4.41017Z" fill="#FD6C26"/>
<path d="M69.0412 31.0391H30.9588C29.0321 31.0391 27.4703 32.6009 27.4703 34.5275V50.371C27.4703 52.2976 29.0321 53.8595 30.9588 53.8595H69.0412C70.9679 53.8595 72.5297 52.2976 72.5297 50.371V34.5275C72.5297 32.6009 70.9679 31.0391 69.0412 31.0391Z" fill="#FD6C26"/>
<path d="M46.8619 39.6531H45.5143C45.422 42.0713 45.1267 44.0835 44.6283 45.8002C44.056 47.7754 43.1884 49.3445 41.6931 51.0797C41.3239 50.4336 40.9548 49.9906 40.3825 49.5476C38.4442 49.9168 36.3767 50.2121 33.5893 50.5075C33.1278 50.5629 32.9986 50.5813 32.6478 50.6367L32.3156 48.643C32.5371 48.6615 32.6294 48.6615 32.7771 48.6615C33.4047 48.6615 34.3646 48.5877 36.1367 48.4215V47.3139H34.5677C33.8846 47.3139 33.4785 47.3324 32.9801 47.4062V45.6341C33.3862 45.7079 33.8293 45.7264 34.5861 45.7264H36.1367V44.8957H34.2538C33.5155 44.8957 33.0909 44.9142 32.6109 44.988V43.2159C33.054 43.2897 33.4416 43.3082 34.2723 43.3082H36.1367V42.4959H34.18C33.5155 42.4959 33.3678 42.4959 32.7586 42.5328C32.7955 42.1821 32.814 41.8498 32.814 41.4068V39.5054C32.814 38.9701 32.814 38.7855 32.7586 38.3978C33.1463 38.4348 33.3678 38.4348 34.18 38.4348H39.8841C40.7148 38.4348 40.9178 38.4348 41.3239 38.3978C41.2686 38.804 41.2686 38.9701 41.2686 39.6716V41.333C41.287 41.979 41.287 42.3852 41.3055 42.5328C40.8994 42.4959 40.6963 42.4959 39.9025 42.4959H37.9089V43.3082H39.6072C40.4933 43.3082 40.844 43.2897 41.3239 43.2343V44.9695C40.7886 44.9142 40.4748 44.8957 39.6072 44.8957H37.9089V45.7264H39.2934C40.161 45.7264 40.4933 45.7079 40.9548 45.6525V47.3878C40.401 47.3324 40.1241 47.3139 39.2934 47.3139H37.9089V48.2369C39.9025 48.0154 39.9025 48.0154 41.084 47.8493L41.1024 48.5323C42.6161 46.5017 43.373 43.8066 43.5945 39.6531H43.2069C42.3208 39.6531 42.0439 39.6716 41.6747 39.727V37.7518C42.0993 37.8256 42.45 37.8441 43.2253 37.8441H43.6314C43.6499 36.8841 43.6499 36.6995 43.6499 35.5366C43.6499 34.8905 43.613 34.5397 43.5391 34.1152H45.6989C45.5882 34.7428 45.5882 34.7428 45.5697 37.8441H47.0649C47.9326 37.8441 48.3387 37.8256 48.8556 37.7702C48.8002 38.2132 48.8002 38.2132 48.7079 41.9975C48.6156 45.1541 48.3571 47.9969 48.0618 49.123C47.7295 50.3783 47.1388 50.7844 45.6066 50.7844C45.4036 50.7844 45.4036 50.7844 44.1298 50.729C44.056 49.8983 43.9637 49.4737 43.6683 48.7169C44.296 48.8461 44.8498 48.9199 45.3297 48.9199C46.0681 48.9199 46.2158 48.7169 46.4189 47.3878C46.6773 45.7633 46.8065 43.5112 46.8619 39.6531ZM36.1367 39.9115H34.5123V41.0376H36.1367V39.9115ZM37.9089 39.9115V41.0376H39.6441V39.9115H37.9089ZM34.3277 35.3889V35.1858C34.3277 34.7059 34.3092 34.4105 34.2723 34.1152H36.266C36.2106 34.3736 36.1921 34.6136 36.1921 35.1674V35.3889H37.8535V35.1858C37.8535 34.6505 37.835 34.4105 37.7797 34.1336H39.7549C39.6995 34.429 39.6995 34.632 39.6995 35.1489V35.3889H40.2533C40.8255 35.3889 41.2317 35.3704 41.7854 35.2966V37.1057C41.3978 37.0503 41.0655 37.0318 40.2533 37.0318H39.6995V37.1795C39.6995 37.5856 39.7179 37.8441 39.7549 38.0656H37.7981C37.835 37.8441 37.8535 37.641 37.8535 37.161V37.0318H36.1921V37.161C36.1921 37.641 36.2106 37.8256 36.2475 38.0656H34.2723C34.3092 37.8256 34.3277 37.5487 34.3277 37.161V37.0318H33.6816C32.8509 37.0318 32.5186 37.0503 32.2233 37.1057V35.2966C32.6109 35.3704 32.9986 35.3889 33.737 35.3889H34.3277Z" fill="white"/>
<path d="M51.5691 38.9337L51.2553 36.8846C51.9199 36.9585 52.9536 36.9954 54.0058 36.9954C54.0428 36.9954 54.1535 36.9954 54.2643 36.9954C55.3534 35.7217 56.1656 34.5218 56.4056 33.8203L58.75 34.2818C58.5469 34.5587 58.5469 34.5587 58.2147 35.0202C57.6978 35.7401 57.1255 36.4416 56.664 36.9769C60.4114 36.8846 60.4114 36.8846 62.3127 36.7554C61.759 36.2939 61.4082 36.0355 60.5221 35.4448L62.1835 34.4295C64.011 35.6478 64.971 36.4601 67.0938 38.5276L65.4509 39.8567C64.7494 39.0814 64.5279 38.8414 64.011 38.306C60.7621 38.5829 56.6456 38.786 53.1198 38.8414C52.3445 38.8598 52.1229 38.8598 51.5691 38.9337ZM52.3075 50.5264L50.6277 49.1973C51.2738 48.5512 51.5507 48.2005 51.9753 47.5175C52.4183 46.7791 52.6213 46.2807 52.9721 45.21L54.7258 45.9484C54.3566 47.0929 54.1535 47.6098 53.6182 48.5882C53.1567 49.4373 52.9167 49.8065 52.3075 50.5264ZM55.2057 45.3392H57.3101C57.2363 45.69 57.2178 45.9669 57.2178 46.4099V48.4774C57.2178 48.902 57.4578 48.9574 59.0454 48.9574C61.2421 48.9574 61.6297 48.902 61.8328 48.6251C62.0174 48.3666 62.0543 48.0344 62.0912 46.9452C62.7373 47.2591 63.3096 47.4252 63.9926 47.499C63.8634 48.902 63.7895 49.2896 63.568 49.7511C63.1434 50.6003 62.4973 50.748 59.3038 50.748C55.8334 50.748 55.298 50.5449 55.298 49.2712V46.6314C55.298 46.0961 55.2796 45.7453 55.2057 45.3392ZM53.0644 43.1979V41.1673C53.0644 40.5397 53.0459 40.1705 52.9905 39.6721C53.452 39.7275 53.8951 39.7459 54.7627 39.7459H63.365C64.251 39.7459 64.6756 39.7275 65.1556 39.6721C65.1002 40.1151 65.0817 40.392 65.0817 41.1673V43.1979C65.0817 44.0101 65.1002 44.2686 65.1556 44.7301C64.6571 44.6747 64.2879 44.6562 63.4942 44.6562H54.6335C53.8582 44.6562 53.489 44.6747 52.9905 44.7301C53.0459 44.3055 53.0644 43.9732 53.0644 43.1979ZM63.0696 41.3704H55.0211V43.0318H63.0696V41.3704ZM61.6851 46.7606L60.1529 47.979C59.3592 47.0191 58.7315 46.4468 57.8086 45.8746L59.3223 44.8224C60.3006 45.45 60.8544 45.9115 61.6851 46.7606ZM67.7768 49.1973L65.9678 50.3788C65.1186 48.6251 64.2879 47.3698 63.0511 45.893L64.7494 45.0439C66.0232 46.5391 66.7246 47.499 67.7768 49.1973Z" fill="white"/>
</svg>
