<svg width="158" height="24" viewBox="0 0 158 24" fill="none" xmlns="http://www.w3.org/2000/svg">
<g clip-path="url(#clip0_1_358)">
<path fill-rule="evenodd" clip-rule="evenodd" d="M4.16905 20.7744C6.2303 22.8357 9.0265 23.9954 11.9419 24H12.3376C15.2546 23.9969 18.0492 22.8357 20.112 20.7729C22.1733 18.7101 23.333 15.9139 23.336 12.997V10.9984C23.333 8.08302 22.1733 5.28681 20.1105 3.22557C18.0477 1.16279 15.253 0.00305596 12.3376 0H11.9419C9.0265 0.00305596 6.2303 1.16279 4.16905 3.22557C2.10628 5.28681 0.946537 8.08302 0.943481 10.9984V13.0001C0.946537 15.9155 2.10628 18.7117 4.16905 20.7729V20.7744ZM7.44504 6.50309C8.63839 5.31126 10.255 4.64048 11.9419 4.63895L12.3254 4.63589C14.0123 4.63742 15.6304 5.30821 16.8223 6.50156C18.0156 7.69491 18.6864 9.31304 18.6879 10.9999V12.9894C18.6879 14.6763 18.0202 16.2944 16.8299 17.4893C15.6396 18.6842 14.0245 19.358 12.3376 19.3626H11.9419C10.255 19.361 8.63687 18.6903 7.44504 17.4969C6.25169 16.3036 5.5809 14.6854 5.57938 12.9985V10.9999C5.58243 9.31304 6.25322 7.69644 7.44657 6.50462L7.44504 6.50309ZM91.3006 23.9924C90.6742 23.9924 89.1783 23.9725 88.2202 23.9251V21.1335C89.3464 21.2359 90.2418 21.3031 91.1081 21.3031C91.8538 21.3031 92.3061 21.2512 92.3061 20.5361V19.6621L83.6119 19.7461V17.5687L92.3061 17.6237V16.3968L82.119 16.493V14.0941L92.3061 14.1904V12.9634L83.6638 13.0245V10.8823L92.3061 10.9556V9.78977L83.7585 9.84784V4.99497L92.3106 5.05609V3.85204L82.2504 3.95747V1.28809H92.3106C92.3106 1.28809 92.2587 0.323932 92.1976 0.00305596H95.7669C95.7058 0.323932 95.6508 1.28809 95.6508 1.28809H105.852V3.95747L95.6615 3.85204V5.05609L104.362 4.99803V9.84478L95.6615 9.78977V10.9617L104.33 10.9128L104.278 13.9902L106.111 13.9673V16.5939L104.284 16.6351L104.382 19.6544H95.6615V20.8646C95.6615 23.5752 95.09 23.9832 91.2808 23.9832L91.3037 23.9893L91.3006 23.9924ZM95.6814 17.6268H100.928V16.3998H95.6814V17.6268ZM95.6814 14.1812H100.928V12.9542H95.6814V14.1812ZM95.6814 8.03718H100.354V6.81327H95.6814V8.03718ZM87.7725 8.03718H92.3168V6.81327H87.7725V8.03718ZM79.1226 23.9939C76.4273 22.362 74.6563 20.8707 73.0443 18.9271C71.5179 17.1317 70.5125 15.315 69.5728 12.6517L69.3512 12.0283L69.1419 12.6547C68.0295 15.9766 66.9263 17.8759 64.9262 19.905C63.3615 21.5201 61.5646 22.8922 59.595 23.9771L57.2129 20.6064C60.8862 18.7697 63.0498 16.8766 64.6358 14.1292C66.2968 11.2673 67.1387 7.41682 67.1387 2.68925C67.1478 2.09792 67.1158 1.50659 67.0439 0.921373H71.2428C71.1619 1.53256 71.1252 2.14834 71.1344 2.76565C71.1344 5.54199 71.5454 8.44668 72.2146 10.349C73.2139 13.1376 74.9207 15.6205 77.1668 17.5504C78.4641 18.6994 79.9279 19.6468 81.5063 20.3634L79.1211 23.9954L79.1226 23.9939ZM43.9837 20.2916C45.1342 21.462 46.8532 22.0534 49.0886 22.0534L49.0825 22.0365C50.9451 22.0365 52.4303 21.6362 53.4984 20.8462C54.4916 20.0838 55.17 18.9836 55.4099 17.7551H51.5517C51.266 18.4901 50.5968 19.2464 49.0336 19.2464C48.1306 19.2464 47.4323 18.9546 46.9922 18.4366C46.5537 17.9202 46.3062 17.1333 46.2283 16.0316L46.1992 15.6343H55.607V14.4578C55.607 12.3094 55.0279 10.6164 53.9048 9.43987C52.7818 8.26332 51.1789 7.66894 49.1436 7.66894C46.9953 7.66894 45.2794 8.32291 44.0707 9.61864C42.8621 10.9159 42.2448 12.7556 42.2448 15.0888C42.2448 17.422 42.8331 19.1196 43.9837 20.2885V20.2916ZM46.213 13.1743C46.4208 11.3636 47.4323 10.4056 49.1375 10.4056H49.1574C49.5134 10.3826 49.8694 10.4315 50.2056 10.5522C50.5417 10.6729 50.8489 10.8609 51.1086 11.1038C51.541 11.5561 51.7809 12.2605 51.8207 13.1972L51.8375 13.3332H46.1702L46.216 13.1743H46.213ZM35.5859 21.8364V13.4447C35.5859 12.7739 35.32 12.1306 34.8448 11.657C34.3711 11.1833 33.7278 10.9159 33.0571 10.9159C32.3863 10.9159 31.743 11.1818 31.2693 11.657C30.7956 12.1306 30.5283 12.7739 30.5283 13.4447V21.8364H26.5433V7.66435H30.5344V9.34208L30.7972 9.05634C31.4573 8.32597 32.316 7.80493 33.2695 7.55587C34.2214 7.30681 35.2268 7.34348 36.1589 7.65824C37.0909 7.973 37.9115 8.55517 38.5181 9.32985C39.1247 10.1061 39.4914 11.0412 39.5724 12.0222L39.5953 12.4714V21.8348H35.5843L35.5859 21.8364Z" fill="#FD6C26"/>
<path d="M153.477 0H113.444C111.419 0 109.777 1.64184 109.777 3.66716V20.3222C109.777 22.3475 111.419 23.9893 113.444 23.9893H153.477C155.503 23.9893 157.145 22.3475 157.145 20.3222V3.66716C157.145 1.64184 155.503 0 153.477 0Z" fill="#FD6C26"/>
<path d="M123.729 12.1506H128.018C128.697 12.1506 129.513 12.1124 129.997 12.0726C129.939 12.4225 129.939 12.4989 129.899 13.2171C129.763 16.244 129.589 17.7965 129.259 19.0188C128.909 20.2794 128.056 20.7271 126.018 20.7271C125.65 20.7271 125.416 20.7073 124.116 20.6492C124.038 19.7951 123.883 19.1166 123.611 18.4565C124.33 18.5727 125.28 18.6506 125.882 18.6506C126.91 18.6506 127.066 18.5528 127.26 17.7965C127.493 16.924 127.61 15.8361 127.668 14.0712H123.419C122.915 15.9919 122.08 17.3701 120.74 18.5146C119.596 19.5047 118.374 20.1633 116.315 20.9212C115.927 20.0472 115.559 19.4849 115.015 18.9226C116.859 18.4367 118.062 17.8545 119.246 16.8843C120.196 16.108 120.74 15.2936 121.148 14.0697H118.528C117.654 14.0697 116.781 14.1079 116.237 14.1858V12.0512C116.664 12.1093 117.558 12.149 118.508 12.149H121.535C121.593 11.5088 121.613 11.1986 121.613 10.4805C121.613 10.2864 121.593 10.0343 121.555 9.80206H123.922C123.864 10.0542 123.844 10.3063 123.805 10.9465C123.786 11.4706 123.767 11.7029 123.728 12.149L123.729 12.1506ZM116.859 7.31909H118.179C117.461 5.68872 117.171 5.1845 116.297 4.09811L118.257 3.36009C119.189 4.56261 119.538 5.14477 120.198 6.58107L118.393 7.31909H126C127.066 5.68872 127.648 4.52441 128.114 3.2241L130.249 4.00031C130.133 4.19488 129.835 4.71235 129.357 5.55274C128.988 6.1731 128.6 6.81486 128.27 7.31909H129.59C130.463 7.31909 130.949 7.29923 131.569 7.24116C131.511 7.7072 131.491 8.11517 131.491 8.83179V10.2482C131.491 10.8503 131.511 11.1604 131.589 11.7044H129.416V9.20156H117.055V11.7044H114.882C114.96 11.1803 114.978 10.7723 114.978 10.2482V8.85165C114.978 8.15337 114.958 7.72552 114.9 7.24116C115.541 7.29923 115.968 7.31909 116.861 7.31909H116.859ZM124.835 6.27089L122.837 7.02725C122.333 5.66887 121.983 4.99045 121.128 3.70847L123.089 3.10645C123.787 4.15464 124.273 5.02712 124.835 6.26937V6.27089Z" fill="white"/>
<path d="M144.239 15.449H142.745C141.988 15.449 141.638 15.4688 141.212 15.5269V13.6643C141.018 14.1502 140.94 14.2846 140.688 14.8087C140.144 14.2648 139.912 14.0906 139.272 13.7407C139.756 12.9446 140.126 12.1302 140.378 11.276H139.155L139.194 19.136C139.194 19.738 139.078 20.1444 138.786 20.4363C138.514 20.6884 137.912 20.8244 136.981 20.8244C136.555 20.8244 135.953 20.8045 135.371 20.7663C135.332 20.0283 135.235 19.5821 134.963 18.864C135.759 19 136.321 19.058 136.689 19.058C137.213 19.058 137.33 18.9801 137.31 18.592L137.29 13.9546C136.552 15.6629 135.659 16.9433 134.437 18.0679C134.145 17.1557 133.913 16.6713 133.467 15.9532C135.039 14.6147 135.912 13.3724 136.746 11.276H135.407C134.669 11.276 134.223 11.2959 133.777 11.3723V9.31565C134.261 9.39358 134.727 9.4119 135.523 9.4119H137.464C136.532 8.4997 135.776 7.85948 134.883 7.21926L136.086 6.05494C137.172 6.86935 137.27 6.9274 137.754 7.35524C138.395 6.851 138.821 6.36511 139.327 5.64696H135.95C135.27 5.64696 134.785 5.66683 134.281 5.72489V3.72628C134.805 3.78435 135.251 3.80421 136.106 3.80421H139.424C140.415 3.80421 140.667 3.78436 141.073 3.74616L142.121 4.87228C142.043 4.96854 141.889 5.16259 141.695 5.43457C140.861 6.57902 139.735 7.86101 138.978 8.48137C139.152 8.67542 139.23 8.73348 139.405 8.9474L138.978 9.41343H140.143C140.821 9.41343 141.191 9.39357 141.559 9.35537L142.393 10.3837C142.315 10.5396 142.257 10.674 142.161 10.9857C143.383 10.6954 144.393 10.3073 145.344 9.78321C144.664 9.12312 144.16 8.50276 143.753 7.78461C143.287 8.40496 143.015 8.69681 142.259 9.49288C141.813 8.94892 141.386 8.58069 140.784 8.17272C142.239 6.91061 143.015 5.90213 143.675 4.42763C143.947 3.8256 144.043 3.55362 144.161 2.95312L146.18 3.34123C146.122 3.43902 146.005 3.70949 145.889 4.02119C145.791 4.27331 145.715 4.4475 145.559 4.77754H149.576C150.489 4.77754 151.129 4.73933 151.633 4.67974V6.65849C151.187 6.60043 150.837 6.58056 150.236 6.58056C149.634 8.01686 149.228 8.65708 148.316 9.62735C149.46 10.1713 150.372 10.4234 152.041 10.7137C151.575 11.4701 151.439 11.8001 151.149 12.7322C149.034 12.1302 147.908 11.6641 146.782 10.9277C146.258 11.2959 145.811 11.5297 144.977 11.9178L146.956 11.9377C146.943 12.0283 146.936 12.1124 146.936 12.1898C146.916 12.2876 146.898 12.4037 146.878 12.5397C146.878 12.6375 146.858 12.6757 146.84 12.8499C146.82 13.1218 146.782 13.2578 146.743 13.6062H149.498C150.353 13.6062 150.683 13.5863 151.031 13.5283C150.992 13.8257 150.966 14.1104 150.953 14.3824C150.797 16.6912 150.545 18.4575 150.273 19.2536C149.885 20.4378 149.381 20.748 147.866 20.748C147.323 20.748 146.702 20.7098 145.81 20.612C145.752 19.8358 145.654 19.4095 145.364 18.5935C146.256 18.7677 147.012 18.8655 147.595 18.8655C148.215 18.8655 148.409 18.6333 148.623 17.6431C148.759 17.0029 148.817 16.4208 148.875 15.4505H146.332C145.498 18.1092 143.966 19.6998 140.899 21.0398C140.549 20.3797 140.22 19.8954 139.696 19.3132C142.181 18.3812 143.461 17.2948 144.238 15.452L144.239 15.449ZM142.861 13.6047H144.723C144.781 13.0607 144.821 12.6145 144.821 12.1485C144.821 12.0706 144.821 12.0507 144.801 11.9927C144.063 12.3028 143.657 12.4388 142.589 12.7887C142.357 12.2646 142.259 12.1103 141.949 11.6244C141.697 12.4388 141.541 12.8468 141.269 13.5451C141.619 13.5833 141.987 13.6032 142.859 13.6032L142.861 13.6047ZM148.158 6.58056H145.112C145.48 7.33691 146.024 7.99699 146.78 8.67694C147.478 7.95879 147.789 7.51263 148.158 6.58056Z" fill="white"/>
</g>
<defs>
<clipPath id="clip0_1_358">
<rect width="158" height="24" fill="white"/>
</clipPath>
</defs>
</svg>
