<svg width="100" height="54" viewBox="0 0 100 54" fill="none" xmlns="http://www.w3.org/2000/svg">
<path d="M85.9191 22.811C85.3235 22.811 83.9009 22.7926 82.9906 22.7468V20.0928C84.0614 20.1906 84.9131 20.2547 85.737 20.2547C86.4467 20.2547 86.8757 20.2058 86.8757 19.5248V18.6941L78.6086 18.7735V16.7028L86.8757 16.7547V15.5881L77.1891 15.6797V13.3983L86.8757 13.4899V12.3232L78.6579 12.3813V10.3442L86.8757 10.4144V9.30581L78.7474 9.36078V4.74606L86.8788 4.80408V3.65879L77.3125 3.75958V1.22163H86.8788C86.8788 1.22163 86.8294 0.305409 86.7708 0H90.1653C90.1066 0.305409 90.0542 1.22163 90.0542 1.22163H99.7532V3.75958L90.0634 3.65879V4.80408L98.3367 4.74911V9.35772L90.0634 9.30581V10.4205L98.3059 10.3747L98.2565 13.3005L100 13.2792V15.7774L98.2627 15.8171L98.3552 18.6879H90.0634V19.8393C90.0634 22.417 89.5203 22.8048 85.8975 22.8048M90.085 16.7578H95.0749V15.5911H90.085V16.7578ZM90.085 13.4807H95.0749V12.3141H90.085V13.4807ZM90.085 7.63828H94.5287V6.47466H90.085V7.63828ZM82.5647 7.63828H86.885V6.47466H82.5647V7.63828Z" fill="#FD6C26"/>
<path d="M74.34 22.8142C71.7773 21.2628 70.0926 19.8449 68.56 17.9957C67.108 16.2892 66.1524 14.561 65.2589 12.0292L65.0479 11.4366L64.8494 12.0323C63.7914 15.1909 62.7427 16.9966 60.8409 18.9265C59.3525 20.4616 57.6439 21.7666 55.7713 22.7987L53.5064 19.5936C56.9999 17.8468 59.0569 16.0472 60.5647 13.4347C62.1439 10.7137 62.9444 7.05249 62.9444 2.55667C62.9532 1.99471 62.9231 1.43281 62.8544 0.875001H66.8474C66.7698 1.45599 66.7356 2.04196 66.745 2.62803C66.745 5.26844 67.1359 8.02984 67.772 9.83871C68.7217 12.491 70.3447 14.8507 72.4816 16.6864C73.7159 17.7788 75.1068 18.6803 76.608 19.3609L74.34 22.8142Z" fill="#FD6C26"/>
<path d="M45.7812 20.9724C43.6551 20.9724 42.0204 20.4099 40.9265 19.2974C39.8325 18.1848 39.2732 16.5159 39.2732 14.3525C39.2732 12.1335 39.8603 10.3843 41.0099 9.1512C42.1594 7.91807 43.7911 7.29688 45.8337 7.29688C47.7682 7.29688 49.2917 7.86244 50.3609 8.98121C51.4302 10.1 51.9802 11.7101 51.9802 13.753V14.8717H43.034L43.0618 15.2488C43.1359 16.2965 43.3708 17.0444 43.788 17.5358C44.2052 18.0272 44.8696 18.3053 45.7286 18.3053C47.215 18.3053 47.8517 17.5852 48.1236 16.8868H51.7917C51.5647 18.0553 50.9185 19.1006 49.9747 19.8258C48.958 20.5768 47.5458 20.957 45.775 20.957M45.8275 9.896C44.2052 9.896 43.2441 10.8077 43.0463 12.5291L43.0031 12.6806H48.3925L48.377 12.5508C48.34 11.6607 48.1113 10.99 47.7002 10.5605C47.4532 10.3286 47.1611 10.1499 46.8421 10.0356C46.5232 9.9213 46.1841 9.87378 45.8461 9.896" fill="#FD6C26"/>
<path d="M32.9415 20.765V12.7853C32.9415 12.1476 32.6882 11.536 32.2374 11.0851C31.7865 10.6342 31.175 10.3809 30.5373 10.3809C29.8997 10.3809 29.2881 10.6342 28.8372 11.0851C28.3864 11.536 28.1331 12.1476 28.1331 12.7853V20.765H24.3445V7.29036H28.1392V8.88507L28.3896 8.6131C29.0171 7.91847 29.8341 7.42255 30.7401 7.18643C31.6459 6.9503 32.601 6.98428 33.4878 7.28417C34.3745 7.58406 35.1543 8.13677 35.7309 8.87424C36.3075 9.61171 36.6559 10.5017 36.7332 11.4347L36.7548 11.8612V20.765H32.9415Z" fill="#FD6C26"/>
<path d="M10.4572 22.8204C7.68482 22.8171 5.02689 21.7142 3.06647 19.7536C1.10607 17.793 0.00327131 15.1348 0 12.3621V10.4583C0.00327131 7.68561 1.10607 5.0274 3.06647 3.06678C5.02689 1.10617 7.68482 0.00327164 10.4572 0H10.8342C13.6067 0.00327164 16.2646 1.10617 18.225 3.06678C20.1854 5.0274 21.2882 7.68561 21.2915 10.4583V12.359C21.289 15.1322 20.1866 17.7912 18.2261 19.7525C16.2656 21.7138 13.6072 22.8171 10.8342 22.8204H10.4572ZM10.4572 4.41018C8.85357 4.41181 7.31599 5.04945 6.18172 6.18326C5.04746 7.31706 4.40909 8.85448 4.40664 10.4583V12.359C4.40828 13.9634 5.04627 15.5016 6.18063 16.636C7.31499 17.7705 8.85303 18.4086 10.4572 18.4102H10.8342C12.4379 18.4053 13.9742 17.7645 15.1062 16.6284C16.2381 15.4923 16.8733 13.9536 16.8725 12.3497V10.4583C16.8709 8.85394 16.2329 7.31574 15.0985 6.18126C13.9642 5.04679 12.4261 4.40873 10.8219 4.40709L10.4572 4.41018Z" fill="#FD6C26"/>
<path d="M96.0816 31.0391H3.91865C1.99202 31.0391 0.430176 32.6009 0.430176 34.5276V50.3711C0.430176 52.2977 1.99202 53.8595 3.91865 53.8595H96.0816C98.0083 53.8595 99.5701 52.2977 99.5701 50.3711V34.5276C99.5701 32.6009 98.0083 31.0391 96.0816 31.0391Z" fill="#FD6C26"/>
<path d="M7.89302 37.7829L9.61356 38.1193C9.60394 38.1385 9.46938 38.4076 9.20024 38.9555L11.7859 38.9267C12.0646 38.9267 12.1896 38.8979 12.3722 38.8017L13.2276 39.6476C13.1123 39.7725 13.0835 39.8302 13.0066 40.0609C12.4395 41.7718 11.93 42.8099 11.2188 43.7711C10.6036 44.5977 9.81541 45.3282 8.88305 45.9434C8.364 46.2798 7.96991 46.4913 7.22979 46.8277C6.87415 46.2029 6.64346 45.905 6.1052 45.3859C7.56621 44.8669 8.49857 44.2998 9.36365 43.4155C8.76771 42.9253 8.29672 42.6177 7.57582 42.2236L8.58508 41.0125C9.44054 41.4739 9.74812 41.6661 10.3537 42.1082C10.7478 41.5027 10.9785 40.9836 11.1803 40.3493L8.51779 40.3685C7.9603 41.3297 7.29708 42.1179 6.32627 42.9733C5.8649 42.4735 5.56693 42.2332 4.94214 41.8872C6.07636 40.9933 6.76842 40.1955 7.33552 39.1285C7.60466 38.6383 7.76806 38.225 7.89302 37.7829ZM15.275 38.2539L17.1878 38.2635C17.1397 38.6287 17.1301 38.8786 17.1205 39.4457L17.0628 44.5401C19.0044 44.1075 20.4462 43.0118 21.3209 41.272C21.7631 41.9064 22.061 42.2332 22.6185 42.6561C21.2248 44.8092 19.4466 45.9242 16.6111 46.4144C16.2554 46.4817 16.1977 46.4913 16.0343 46.5874L15.1789 45.5878C15.275 45.3859 15.2846 45.2802 15.2942 44.7996L15.3327 39.4553C15.3327 39.4073 15.3327 39.3496 15.3327 39.3016C15.3327 38.8498 15.3134 38.5422 15.275 38.2539ZM23.2525 39.8687L24.3579 38.5134C25.569 39.2247 26.1938 39.6668 27.0012 40.3973L25.867 41.8968C25.0307 41.0221 24.2137 40.3877 23.2525 39.8687ZM23.8485 46.3279L23.3487 44.4824C24.3291 44.4055 25.3383 44.1652 26.2419 43.7903C27.453 43.2905 28.318 42.5696 29.0582 41.4162C29.4619 40.801 29.7214 40.2724 30.0001 39.5322C30.4711 40.0993 30.6922 40.2916 31.4131 40.8202C30.5384 42.7138 29.6253 43.848 28.2796 44.7131C27.2415 45.3859 26.3284 45.7416 24.5405 46.1549C24.1657 46.2414 24.108 46.251 23.8485 46.3279ZM35.6808 46.5201H33.8257C33.8641 46.0876 33.8834 45.8088 33.8834 45.0495V39.4553C33.8834 38.6768 33.8737 38.5807 33.8161 38.0616H35.6712C35.6327 38.3404 35.6231 38.821 35.6231 39.465V40.7818C37.2571 41.3201 38.4971 41.8872 39.9965 42.7811L39.0834 44.4151C38.1511 43.7711 37.0168 43.1463 36.0557 42.7426C35.7192 42.6081 35.7192 42.6081 35.6231 42.5504V45.0495C35.6231 45.6935 35.6423 46.1741 35.6808 46.5201ZM47.3401 40.3012L42.9378 40.3204C42.14 40.3204 41.8036 40.33 41.3807 40.3685V38.6768C41.9093 38.7345 42.2073 38.7537 42.9666 38.7537L48.234 38.7441C48.5416 38.7441 48.6954 38.7152 48.8972 38.6479L49.82 39.686C49.6662 39.8302 49.6181 39.8975 49.3778 40.3012C48.3878 41.9641 47.5996 42.9156 46.3308 43.9826C46.7441 44.4728 47.0133 44.8188 47.4746 45.4436L46.0329 46.5682C45.4561 45.6262 44.9755 44.963 44.1777 44.0595C43.3992 43.1656 42.9474 42.7234 42.2457 42.1467L43.5626 41.2239C44.3508 41.8679 44.668 42.1659 45.2254 42.7522C45.7733 42.3005 46.3789 41.6853 46.7249 41.2336C46.9652 40.9356 47.2247 40.5223 47.3401 40.3012ZM55.3662 46.6931H53.5591C53.6072 46.3183 53.6264 45.9915 53.6264 45.3379V43.6077C52.9055 44.0306 52.1173 44.3478 50.8582 44.7227C50.5985 44.0499 50.4448 43.7615 50.07 43.2425C51.0888 43.031 52.0885 42.7138 52.9536 42.3293C53.934 41.8968 54.578 41.4642 55.3758 40.7241L52.4345 40.7433C51.5982 40.7433 51.4733 40.753 51.0504 40.7914V39.2343C51.4925 39.2919 51.877 39.3112 52.4537 39.3112H53.5976V38.7825C53.5976 38.35 53.5879 38.225 53.5495 37.8886H55.3373C55.2989 38.1673 55.2796 38.4076 55.2796 38.7633V39.3016H56.8079C57.0867 39.3016 57.2405 39.2727 57.4231 39.1958L58.1728 40.0705C58.0191 40.1762 58.0191 40.1762 57.7307 40.5127C57.2405 41.0605 57.1348 41.1663 55.9621 42.1755C57.1828 42.6081 58.1056 43.0598 59.0764 43.6846L58.1248 45.0976C57.327 44.492 56.4331 43.9826 55.3085 43.4924V45.3475C55.3085 46.1068 55.3085 46.2222 55.3662 46.6931ZM60.2971 39.5322L61.1525 38.1673C62.2099 38.5518 63.248 39.0324 63.9112 39.4361L63.0557 40.9068C62.1618 40.3108 61.1525 39.811 60.2971 39.5322ZM65.1703 38.398L66.1219 38.0808C66.4583 38.523 66.7467 39.0613 66.9678 39.6091L66.0162 39.9552C65.7567 39.3208 65.5164 38.869 65.1703 38.398ZM59.5474 41.8968L60.4317 40.5223C61.4601 40.926 62.3637 41.3777 63.1134 41.8872L62.2964 43.3962C61.6043 42.858 60.5278 42.2716 59.5474 41.8968ZM66.5545 37.9463L67.458 37.6387C67.7752 38.0424 68.0443 38.4942 68.3134 39.1189L67.3907 39.4553C67.1216 38.821 66.8717 38.3692 66.5545 37.9463ZM60.3067 46.549L59.8261 44.7227C60.672 44.7227 61.8927 44.4632 62.7866 44.1075C64.584 43.3962 65.8528 41.9833 66.5352 39.9071C66.9966 40.4262 67.4388 40.801 67.9482 41.1086C66.7275 44.1268 64.5456 45.78 60.9891 46.3856C60.6527 46.4528 60.4989 46.4913 60.3067 46.549ZM73.871 38.0616L75.6781 38.6672C75.5435 38.9075 75.4666 39.0901 75.2744 39.5611C74.8803 40.5127 74.4958 41.2912 73.996 42.0986C74.8322 42.8099 75.1302 43.0983 76.0914 44.1171L74.7842 45.482C74.2555 44.79 73.7076 44.194 72.9675 43.5116C72.0544 44.6939 70.8817 45.6647 69.2477 46.5682C68.9209 45.9915 68.6325 45.6358 68.0366 45.1168C69.2285 44.5497 69.8821 44.1268 70.6414 43.4443C71.0355 43.0887 71.3623 42.7522 71.6699 42.3774C70.478 41.4739 69.9494 41.1086 69.1708 40.6665L70.3531 39.5034C71.2277 40.0128 71.6603 40.3108 72.6215 41.0125C73.179 40.1186 73.7269 38.821 73.871 38.0616ZM77.562 39.8687L78.6674 38.5134C79.8785 39.2247 80.5033 39.6668 81.3107 40.3973L80.1765 41.8968C79.3402 41.0221 78.5232 40.3877 77.562 39.8687ZM78.158 46.3279L77.6581 44.4824C78.6386 44.4055 79.6478 44.1652 80.5513 43.7903C81.7624 43.2905 82.6275 42.5696 83.3676 41.4162C83.7713 40.801 84.0309 40.2724 84.3096 39.5322C84.7806 40.0993 85.0017 40.2916 85.7226 40.8202C84.8479 42.7138 83.9347 43.848 82.5891 44.7131C81.551 45.3859 80.6378 45.7416 78.85 46.1549C78.4752 46.2414 78.4175 46.251 78.158 46.3279ZM89.9903 46.5201H88.1352C88.1736 46.0876 88.1928 45.8088 88.1928 45.0495V39.4553C88.1928 38.6768 88.1832 38.5807 88.1255 38.0616H89.9807C89.9422 38.3404 89.9326 38.821 89.9326 39.465V40.7818C91.5666 41.3201 92.8066 41.8872 94.306 42.7811L93.3929 44.4151C92.4605 43.7711 91.3263 43.1463 90.3651 42.7426C90.0287 42.6081 90.0287 42.6081 89.9326 42.5504V45.0495C89.9326 45.6935 89.9518 46.1741 89.9903 46.5201Z" fill="white"/>
</svg>
