<svg width="100" height="55" viewBox="0 0 100 55" fill="none" xmlns="http://www.w3.org/2000/svg">
<g clip-path="url(#clip0_1_3571)">
<path fill-rule="evenodd" clip-rule="evenodd" d="M3.06636 20.2174C5.02682 22.1765 7.685 23.281 10.4573 23.281H10.8341C13.6073 23.281 16.2655 22.1765 18.2259 20.2174C20.1868 18.2538 21.2891 15.5947 21.2914 12.8219V10.922C21.2882 8.14926 20.1855 5.49017 18.225 3.53107C16.2645 1.56744 13.6068 0.467436 10.8341 0.462891H10.4573C7.685 0.467436 5.02682 1.56744 3.06636 3.53107C1.10591 5.49017 0.00318182 8.14926 0 10.922V12.8265C0.00318182 15.5992 1.10591 18.2538 3.06636 20.2174ZM6.18182 6.64463C7.31591 5.51281 8.85364 4.87649 10.4573 4.87195H10.8218C12.4259 4.87195 13.9641 5.50826 15.0986 6.64463C16.2327 7.77645 16.8709 9.31745 16.8723 10.922V12.8129C16.8732 14.4174 16.2382 15.9539 15.1064 17.0902C13.9741 18.2266 12.4377 18.8674 10.8341 18.872H10.4573C8.85318 18.872 7.315 18.231 6.18045 17.0992C5.04636 15.9628 4.40819 14.4265 4.40682 12.8219V10.922C4.4091 9.31745 5.04727 7.78099 6.18182 6.64463ZM85.9191 23.2765C85.3236 23.2765 83.9009 23.2584 82.9905 23.2129V20.5583C84.0614 20.6583 84.9132 20.722 85.7368 20.722C86.4468 20.722 86.8755 20.6719 86.8755 19.9901V19.1583L78.6086 19.2402V17.1674L86.8755 17.2219V16.0538L77.1891 16.1447V13.8629L86.8755 13.9538V12.7901L78.6577 12.8447V10.8084L86.8755 10.881V9.77199L78.7473 9.82645V5.21286L86.8786 5.26745V4.12655L77.3123 4.22654V1.68559H86.8786C86.8786 1.68559 86.8295 0.771987 86.7709 0.467441H90.1655C90.1068 0.771987 90.0541 1.68559 90.0541 1.68559H99.7532V4.22654L90.0632 4.12655V5.26745L98.3368 5.21286V9.8219L90.0632 9.77199V10.8856L98.3059 10.8402L98.2564 13.7674L100 13.7447V16.2447L98.2627 16.2811L98.355 19.1538H90.0632V20.3038C90.0632 22.881 89.5205 23.2719 85.8973 23.2719L85.9191 23.2765ZM90.085 17.2219H95.075V16.0584H90.085V17.2219ZM90.085 13.9447H95.075V12.781H90.085V13.9447ZM90.085 8.10381H94.5286V6.94017H90.085V8.10381ZM82.5645 8.10381H86.885V6.94017H82.5645V8.10381ZM74.34 23.2765C71.7773 21.7265 70.0927 20.3083 68.56 18.4583C67.1077 16.7537 66.1523 15.0219 65.2586 12.4901L65.0477 11.8992L64.8491 12.4947C63.7914 15.6538 62.7427 17.4583 60.8409 19.3901C59.3523 20.9219 57.6436 22.231 55.7714 23.2629L53.5064 20.0537C57 18.3083 59.0568 16.5084 60.5645 13.8993C62.1436 11.1765 62.9441 7.51286 62.9441 3.01738C62.9532 2.45829 62.9232 1.89467 62.8541 1.33558H66.8473C66.7695 1.9174 66.7355 2.50381 66.745 3.09018C66.745 5.73108 67.1359 8.49013 67.7718 10.2992C68.7214 12.9538 70.3446 15.3129 72.4814 17.1492C73.7159 18.2401 75.1068 19.1446 76.6077 19.8219L74.34 23.2765ZM40.9264 19.7583C42.0205 20.8674 43.655 21.431 45.7814 21.431L45.775 21.4174C47.5459 21.4174 48.9582 21.0355 49.9745 20.2855C50.9186 19.5583 51.5645 18.5129 51.7918 17.3447H48.1236C47.8518 18.0447 47.215 18.7629 45.7286 18.7629C44.8695 18.7629 44.2055 18.4856 43.7882 17.9947C43.3709 17.5038 43.1359 16.7538 43.0618 15.7084L43.0341 15.331H51.98V14.2129C51.98 12.1674 51.43 10.5584 50.3609 9.44017C49.2918 8.32199 47.7682 7.75836 45.8336 7.75836C43.7914 7.75836 42.1595 8.37649 41.01 9.60831C39.8605 10.8447 39.2732 12.5947 39.2732 14.8129C39.2732 16.9765 39.8327 18.6447 40.9264 19.7583ZM43.0464 12.9902C43.2441 11.2674 44.2055 10.3538 45.8277 10.3538H45.8464C46.1841 10.3311 46.5232 10.3811 46.8423 10.4947C47.1614 10.6084 47.4532 10.7902 47.7005 11.022C48.1114 11.4493 48.34 12.1219 48.3773 13.0083L48.3923 13.1401H43.0032L43.0464 12.9902ZM32.9414 21.2265V13.2447C32.9414 12.6083 32.6882 11.9947 32.2373 11.5447C31.7864 11.0947 31.175 10.8402 30.5373 10.8402C29.8995 10.8402 29.2882 11.0947 28.8373 11.5447C28.3864 11.9947 28.1332 12.6083 28.1332 13.2447V21.2265H24.3445V7.74926H28.1391V9.34472L28.3895 9.07195C29.0173 8.37649 29.8341 7.88108 30.74 7.64472C31.6459 7.40836 32.6009 7.44472 33.4877 7.74472C34.3745 8.04472 35.1541 8.59472 35.7309 9.33563C36.3073 10.072 36.6559 10.9629 36.7332 11.8947L36.7545 12.3219V21.2265H32.9414Z" fill="#FD6C26"/>
<path d="M88.5355 31.4629H11.4642C9.53841 31.4629 7.97718 33.024 7.97718 34.9499V50.9712C7.97718 52.8971 9.53841 54.4584 11.4642 54.4584H88.5355C90.4614 54.4584 92.0227 52.8971 92.0227 50.9712V34.9499C92.0227 33.024 90.4614 31.4629 88.5355 31.4629Z" fill="#FD6C26"/>
<path d="M16.0529 42.7395H13.5351C13.601 42.1441 13.6142 41.9486 13.6142 41.0122V38.9804C13.6142 38.2304 13.601 38.0214 13.5747 37.6396C14.1942 37.7032 14.4051 37.7168 15.0774 37.7168H21.8924C22.4988 37.7168 22.6833 37.6896 23.0129 37.5441L24.1729 38.6122C24.0279 38.8486 24.0015 38.9304 23.962 39.2849C23.6324 42.0395 23.1842 43.5168 22.2747 44.9259C21.5365 46.0485 20.4951 46.9848 19.0583 47.7894C18.4783 48.1166 18.0697 48.303 17.1997 48.6576C16.7779 47.8121 16.3956 47.2712 15.631 46.4712C16.857 46.1257 17.516 45.8485 18.307 45.3623C20.271 44.1214 21.141 42.6077 21.4047 39.8895H15.987V41.0532C15.987 42.0259 15.987 42.3168 16.0529 42.7395ZM25.3065 43.9759V41.4349C25.926 41.5258 26.6379 41.5531 28.0088 41.5531H34.3097C35.6279 41.5531 36.1288 41.5258 37.012 41.4349V43.9759C36.3793 43.9122 35.7993 43.8986 34.2965 43.8986H28.022C26.5456 43.8986 26.1106 43.9122 25.3065 43.9759ZM41.9024 36.585L44.3938 37.0304C44.3279 37.1486 44.3015 37.1895 44.2356 37.3622C44.2092 37.3986 44.1829 37.4804 44.1433 37.5576C44.0906 37.6895 44.051 37.7804 44.0247 37.835C43.8533 38.2168 43.8533 38.2168 43.761 38.4031L47.0695 38.3622C47.5836 38.3622 47.7286 38.335 48.045 38.2168L49.1391 39.2986C48.9809 39.5622 48.9414 39.6395 48.7568 40.235C48.0845 42.4213 47.1882 44.135 46.0282 45.4531C44.8288 46.8257 43.3393 47.8666 41.1775 48.853C40.7425 48.0121 40.3338 47.4985 39.5956 46.853C41.4674 46.1666 42.8384 45.3213 43.9984 44.1622C44.9738 43.1758 45.7118 41.9349 46.1995 40.4167L42.6933 40.4577C41.8365 41.8168 40.9533 42.7805 39.701 43.7668C39.0288 43.0032 38.6992 42.7123 37.8292 42.185C39.4374 41.0532 40.4788 39.8531 41.3356 38.1668C41.6783 37.4804 41.8365 37.0441 41.9024 36.585ZM60.4491 37.6122L61.6355 38.7577C61.4905 38.9804 61.4641 39.0486 61.3586 39.494C60.7655 41.9486 59.9745 43.5941 58.7091 45.0986C57.4832 46.5621 56.0068 47.6166 53.6868 48.6848C53.1727 47.6803 52.8959 47.3257 52.0259 46.4712C53.9241 45.8485 55.3082 45.0441 56.4682 43.885C57.5755 42.7668 58.2477 41.5668 58.6564 39.985H53.1859C51.9073 39.985 51.67 39.9986 50.9714 40.0622V37.6758C51.5382 37.7713 51.9336 37.7804 53.2255 37.7804H59.4868C59.9218 37.7804 60.1591 37.7441 60.4491 37.6122ZM71.5745 47.3257H65.9195V48.2348H63.5205C63.5995 47.5121 63.6259 47.0621 63.6259 46.0848V39.3122C63.6259 38.7441 63.6127 38.3349 63.5732 37.794C64.0345 37.8349 64.2982 37.8486 65.1682 37.8486H72.2732C73.0905 37.8486 73.2882 37.8486 73.9077 37.794C73.8814 38.2576 73.8682 38.7305 73.8682 39.3532V46.0348C73.8682 47.0485 73.8945 47.6803 73.9605 48.2076H71.5745V47.3257ZM71.5745 45.2168V39.9576H65.9195V45.2168H71.5745ZM75.3973 43.9759V41.4349C76.0168 41.5258 76.7286 41.5531 78.0996 41.5531H84.4005C85.7186 41.5531 86.2196 41.5258 87.1027 41.4349V43.9759C86.47 43.9122 85.89 43.8986 84.3873 43.8986H78.1127C76.6364 43.8986 76.2014 43.9122 75.3973 43.9759Z" fill="white"/>
</g>
<defs>
<clipPath id="clip0_1_3571">
<rect width="100" height="55" fill="white"/>
</clipPath>
</defs>
</svg>
