<svg width="100" height="54" viewBox="0 0 100 54" fill="none" xmlns="http://www.w3.org/2000/svg">
<path d="M85.9191 22.811C85.3235 22.811 83.9009 22.7926 82.9906 22.7468V20.0928C84.0614 20.1906 84.9131 20.2547 85.737 20.2547C86.4468 20.2547 86.8757 20.2058 86.8757 19.5248V18.6941L78.6086 18.7735V16.7028L86.8757 16.7547V15.5881L77.1891 15.6797V13.3983L86.8757 13.4899V12.3232L78.658 12.3813V10.3442L86.8757 10.4144V9.3058L78.7475 9.36077V4.74605L86.8788 4.80407V3.65879L77.3125 3.75958V1.22163H86.8788C86.8788 1.22163 86.8294 0.305409 86.7708 0H90.1653C90.1067 0.305409 90.0542 1.22163 90.0542 1.22163H99.7532V3.75958L90.0634 3.65879V4.80407L98.3367 4.7491V9.35771L90.0634 9.3058V10.4205L98.3059 10.3747L98.2565 13.3005L100 13.2792V15.7774L98.2627 15.8171L98.3553 18.6879H90.0634V19.8393C90.0634 22.417 89.5203 22.8048 85.8975 22.8048M90.0851 16.7578H95.0749V15.5911H90.0851V16.7578ZM90.0851 13.4807H95.0749V12.3141H90.0851V13.4807ZM90.0851 7.63827H94.5287V6.47465H90.0851V7.63827ZM82.5647 7.63827H86.885V6.47465H82.5647V7.63827Z" fill="#FD6C26"/>
<path d="M74.3399 22.8142C71.7772 21.2628 70.0925 19.8449 68.5599 17.9957C67.1079 16.2892 66.1523 14.561 65.2588 12.0292L65.0478 11.4366L64.8493 12.0323C63.7913 15.1909 62.7426 16.9966 60.8408 18.9265C59.3524 20.4616 57.6438 21.7666 55.7712 22.7987L53.5063 19.5936C56.9998 17.8468 59.0568 16.0472 60.5646 13.4347C62.1438 10.7137 62.9443 7.05248 62.9443 2.55667C62.9531 1.99471 62.923 1.43281 62.8543 0.875H66.8473C66.7697 1.45599 66.7355 2.04196 66.7449 2.62803C66.7449 5.26843 67.1358 8.02983 67.7719 9.8387C68.7216 12.491 70.3446 14.8507 72.4815 16.6864C73.7158 17.7788 75.1067 18.6803 76.6079 19.3609L74.3399 22.8142Z" fill="#FD6C26"/>
<path d="M45.7813 20.9724C43.6552 20.9724 42.0205 20.4099 40.9266 19.2974C39.8326 18.1848 39.2733 16.5159 39.2733 14.3525C39.2733 12.1335 39.8605 10.3843 41.01 9.15119C42.1596 7.91807 43.7912 7.29688 45.8338 7.29688C47.7683 7.29688 49.2918 7.86243 50.361 8.9812C51.4302 10.1 51.9802 11.7101 51.9802 13.753V14.8717H43.0341L43.0619 15.2488C43.1361 16.2965 43.3709 17.0444 43.7881 17.5358C44.2053 18.0272 44.8697 18.3053 45.7288 18.3053C47.2151 18.3053 47.8517 17.5852 48.1237 16.8868H51.7917C51.5648 18.0553 50.9185 19.1006 49.9747 19.8258C48.958 20.5768 47.5458 20.957 45.7751 20.957M45.8276 9.896C44.2053 9.896 43.2442 10.8077 43.0465 12.5291L43.0032 12.6806H48.3925L48.3771 12.5508C48.34 11.6607 48.1113 10.99 47.7003 10.5605C47.4533 10.3286 47.1612 10.1499 46.8423 10.0356C46.5233 9.92129 46.1843 9.8738 45.8462 9.896" fill="#FD6C26"/>
<path d="M32.9414 20.765V12.7853C32.9414 12.1476 32.6881 11.536 32.2373 11.0851C31.7864 10.6342 31.1749 10.3809 30.5372 10.3809C29.8996 10.3809 29.2881 10.6342 28.8372 11.0851C28.3864 11.536 28.1331 12.1476 28.1331 12.7853V20.765H24.3445V7.29035H28.1392V8.88506L28.3896 8.61309C29.0171 7.91846 29.8341 7.42254 30.74 7.18642C31.6458 6.95029 32.6009 6.98427 33.4877 7.28416C34.3744 7.58405 35.1542 8.13676 35.7308 8.87423C36.3074 9.6117 36.6558 10.5017 36.7331 11.4347L36.7547 11.8612V20.765H32.9414Z" fill="#FD6C26"/>
<path d="M10.4572 22.8204C7.68481 22.8171 5.02688 21.7142 3.06647 19.7536C1.10607 17.793 0.00327131 15.1348 0 12.3621V10.4583C0.00327131 7.6856 1.10607 5.02739 3.06647 3.06678C5.02688 1.10617 7.68481 0.003272 10.4572 0H10.8342C13.6067 0.003272 16.2646 1.10617 18.225 3.06678C20.1854 5.02739 21.2882 7.6856 21.2915 10.4583V12.359C21.289 15.1322 20.1866 17.7912 18.2261 19.7525C16.2656 21.7138 13.6072 22.8171 10.8342 22.8204H10.4572ZM10.4572 4.41017C8.85356 4.4118 7.31598 5.04944 6.18171 6.18325C5.04745 7.31705 4.40908 8.85447 4.40663 10.4583V12.359C4.40827 13.9634 5.04626 15.5016 6.18062 16.636C7.31498 17.7705 8.85302 18.4086 10.4572 18.4102H10.8342C12.4379 18.4053 13.9742 17.7645 15.1062 16.6284C16.2381 15.4923 16.8733 13.9536 16.8725 12.3497V10.4583C16.8709 8.85393 16.2329 7.31573 15.0985 6.18125C13.9642 5.04678 12.4261 4.40872 10.8219 4.40708L10.4572 4.41017Z" fill="#FD6C26"/>
<path d="M69.0412 31.0391H30.9588C29.0321 31.0391 27.4703 32.6009 27.4703 34.5275V50.371C27.4703 52.2976 29.0321 53.8595 30.9588 53.8595H69.0412C70.9679 53.8595 72.5297 52.2976 72.5297 50.371V34.5275C72.5297 32.6009 70.9679 31.0391 69.0412 31.0391Z" fill="#FD6C26"/>
<path d="M32.4449 43.6487L32.2603 41.8028C32.6479 41.8397 33.054 41.8581 33.4048 41.8581C33.4786 41.8581 33.5709 41.8581 33.7001 41.8397C34.0693 41.3782 34.1985 41.1751 34.6047 40.6213C34.5124 40.4921 34.5124 40.4921 34.3462 40.2706C33.6632 39.3107 33.0725 38.6277 32.1864 37.7601L33.2202 36.2464C33.5155 36.5602 33.5155 36.5602 33.8109 36.8925C34.2539 36.1171 34.3093 35.9879 34.5493 35.471C34.9739 34.4558 35.1031 34.1419 35.1769 33.8281L36.9491 34.4742C36.8383 34.6219 36.7829 34.7511 36.6352 35.0465C36.0999 36.191 35.5277 37.2063 34.9 38.2031C35.2692 38.6646 35.3615 38.7754 35.6015 39.1261C36.5614 37.6493 37.2444 36.394 37.4475 35.7479L39.1458 36.6156C39.0166 36.8002 38.8873 37.0032 38.6289 37.4462C37.9828 38.5723 36.7091 40.4552 35.7123 41.7658C36.7829 41.7105 37.0967 41.692 37.7244 41.6366C37.5213 41.1197 37.4106 40.8798 37.0598 40.1414L38.4074 39.606C39.0719 40.9167 39.5519 42.0243 39.9765 43.2611L38.4258 43.9072C38.3151 43.538 38.3151 43.5195 38.2228 43.1503C37.5767 43.2242 37.5767 43.2242 36.9121 43.2795V49.1313C36.9121 50.0358 36.9306 50.4973 37.0229 51.0696H35.0108C35.1031 50.4235 35.1215 49.962 35.1215 49.1128V43.4272C34.457 43.4641 34.457 43.4641 33.294 43.538C32.9064 43.5749 32.7218 43.5934 32.4449 43.6487ZM40.7702 41.2674V39.9199C40.3457 40.2891 40.1611 40.4183 39.6257 40.7875C39.3488 40.0675 39.1458 39.7537 38.5735 39.1261C39.6996 38.4062 40.1426 38.037 40.8995 37.2247C41.7486 36.3387 42.3762 35.3603 42.93 34.1235H44.9422C45.5882 35.4526 46.3266 36.4125 47.4896 37.4462C48.228 38.0923 48.8372 38.5354 49.7417 39.0523C49.2617 39.7168 49.0218 40.1968 48.8003 40.9167C48.1726 40.4921 47.9511 40.3444 47.5081 39.9752V41.2674C47.065 41.212 46.6405 41.1936 45.8467 41.1936H42.4316C41.6932 41.1936 41.2502 41.212 40.7702 41.2674ZM42.2839 39.4584H46.0128C46.4374 39.4584 46.6405 39.4584 46.862 39.4399C45.5882 38.3139 44.776 37.3909 43.9822 36.0802C43.17 37.4647 42.3947 38.4431 41.324 39.4399C41.6563 39.4584 41.8409 39.4584 42.2839 39.4584ZM32.9248 44.3318L34.5677 44.6087C34.4201 47.1561 34.2355 48.5037 33.8294 50.1281L32.168 49.482C32.611 47.9683 32.8141 46.6023 32.9248 44.3318ZM37.3183 44.6271L38.7581 44.2579C39.0719 45.6055 39.275 46.75 39.5334 48.7067L38.0197 49.0575C37.8536 47.2853 37.669 46.0485 37.3183 44.6271ZM42.0255 49.9066V50.9404H40.0318C40.0872 50.3127 40.1241 49.722 40.1241 49.039V44.5164C40.1241 43.5934 40.1057 43.3165 40.0503 42.8365C40.5118 42.8734 40.9179 42.8919 41.6378 42.8919H46.862C47.5819 42.8919 48.0249 42.8734 48.3757 42.8365C48.3203 43.298 48.3018 43.6672 48.3018 44.4979V48.8359C48.3018 49.7405 48.3388 50.5158 48.3941 50.9404H46.3266V49.9066H42.0255ZM42.0255 44.6087V48.1345H46.3451V44.6087H42.0255Z" fill="white"/>
<path d="M62.4051 41.8397H55.2981C55.1873 42.1535 55.1504 42.2458 55.0027 42.6519L52.8429 42.3935C53.5998 40.529 53.9321 39.606 54.3936 37.7785C54.9474 35.6556 55.132 34.6404 55.1504 33.8281L57.4579 34.0866C57.3287 34.4373 57.2918 34.6219 56.941 36.0433H63.7158C64.8234 36.0433 65.2849 36.0248 65.9863 35.9325V38.0554C65.3956 38 64.768 37.9631 63.8081 37.9631H56.4611C56.2949 38.5723 56.1842 38.9969 55.9073 39.9568H62.8666C63.7712 39.9568 64.3249 39.9383 64.7495 39.8645C64.6203 40.6029 64.5834 40.9721 64.3803 43.2795C64.3619 43.4826 64.3434 43.6303 64.3065 43.9072H65.5987C66.374 43.9072 67.1124 43.8703 67.8323 43.7964V45.9008C67.1308 45.827 66.3555 45.7901 65.5987 45.7901H64.0296C63.7158 47.6545 63.365 48.8175 62.8482 49.5559C62.2759 50.3866 61.556 50.645 59.8392 50.645C59.027 50.645 58.3994 50.6081 56.8487 50.4973C56.7195 49.6482 56.6087 49.279 56.2396 48.3745C58.3255 48.6514 59.0085 48.7067 59.8208 48.7067C60.5407 48.7067 60.9099 48.5591 61.1499 48.1714C61.3898 47.7653 61.6114 47.0269 61.8883 45.7901H53.0645C52.2338 45.7901 51.4585 45.827 50.7201 45.9008V43.7964C51.3846 43.8703 52.1415 43.9072 53.0829 43.9072H62.1836C62.2944 43.0396 62.3313 42.7627 62.4051 41.8397Z" fill="white"/>
</svg>
