<svg width="100" height="54" viewBox="0 0 100 54" fill="none" xmlns="http://www.w3.org/2000/svg">
<path d="M85.9191 22.811C85.3235 22.811 83.9009 22.7927 82.9906 22.7468V20.0929C84.0614 20.1906 84.9131 20.2547 85.737 20.2547C86.4468 20.2547 86.8757 20.2058 86.8757 19.5248V18.6941L78.6086 18.7735V16.7028L86.8757 16.7547V15.5881L77.1891 15.6797V13.3983L86.8757 13.4899V12.3233L78.658 12.3813V10.3442L86.8757 10.4145V9.30579L78.7475 9.36077V4.74606L86.8788 4.80407V3.65878L77.3125 3.75957V1.22163H86.8788C86.8788 1.22163 86.8294 0.305409 86.7708 0H90.1653C90.1067 0.305409 90.0542 1.22163 90.0542 1.22163H99.7532V3.75957L90.0634 3.65878V4.80407L98.3367 4.74909V9.35771L90.0634 9.30579V10.4206L98.3059 10.3748L98.2565 13.3006L100 13.2792V15.7774L98.2627 15.8171L98.3553 18.688H90.0634V19.8394C90.0634 22.417 89.5203 22.8049 85.8975 22.8049M90.0851 16.7578H95.0749V15.5911H90.0851V16.7578ZM90.0851 13.4808H95.0749V12.3141H90.0851V13.4808ZM90.0851 7.63826H94.5287V6.47466H90.0851V7.63826ZM82.5647 7.63826H86.885V6.47466H82.5647V7.63826Z" fill="#FD6C26"/>
<path d="M74.3399 22.8142C71.7772 21.2629 70.0925 19.8449 68.5599 17.9957C67.1079 16.2892 66.1523 14.561 65.2588 12.0292L65.0478 11.4366L64.8493 12.0323C63.7913 15.1909 62.7426 16.9967 60.8408 18.9265C59.3524 20.4616 57.6438 21.7666 55.7712 22.7987L53.5063 19.5936C56.9998 17.8468 59.0568 16.0472 60.5646 13.4348C62.1438 10.7137 62.9443 7.05248 62.9443 2.55667C62.9531 1.99471 62.923 1.43282 62.8543 0.875H66.8473C66.7697 1.456 66.7355 2.04197 66.7449 2.62804C66.7449 5.26844 67.1358 8.02984 67.7719 9.83868C68.7216 12.491 70.3446 14.8507 72.4815 16.6864C73.7158 17.7789 75.1067 18.6804 76.6079 19.3609L74.3399 22.8142Z" fill="#FD6C26"/>
<path d="M45.7813 20.9724C43.6552 20.9724 42.0205 20.41 40.9266 19.2974C39.8326 18.1848 39.2733 16.5159 39.2733 14.3526C39.2733 12.1336 39.8605 10.3843 41.01 9.15119C42.1596 7.91807 43.7912 7.29688 45.8338 7.29688C47.7683 7.29688 49.2918 7.86243 50.361 8.9812C51.4302 10.1 51.9802 11.7102 51.9802 13.753V14.8718H43.0341L43.0619 15.2488C43.1361 16.2965 43.3709 17.0444 43.7881 17.5358C44.2053 18.0272 44.8697 18.3053 45.7288 18.3053C47.2151 18.3053 47.8517 17.5852 48.1237 16.8868H51.7917C51.5648 18.0553 50.9185 19.1006 49.9747 19.8259C48.958 20.5769 47.5458 20.957 45.7751 20.957M45.8276 9.89598C44.2053 9.89598 43.2442 10.8077 43.0465 12.5291L43.0032 12.6806H48.3925L48.3771 12.5508C48.34 11.6607 48.1113 10.9901 47.7003 10.5605C47.4533 10.3286 47.1612 10.1499 46.8423 10.0356C46.5233 9.92127 46.1843 9.87378 45.8462 9.89598" fill="#FD6C26"/>
<path d="M32.9414 20.765V12.7853C32.9414 12.1476 32.6881 11.5361 32.2373 11.0851C31.7864 10.6342 31.1749 10.3809 30.5372 10.3809C29.8996 10.3809 29.2881 10.6342 28.8372 11.0851C28.3864 11.5361 28.1331 12.1476 28.1331 12.7853V20.765H24.3445V7.29035H28.1392V8.88505L28.3896 8.61309C29.0171 7.91845 29.8341 7.42253 30.74 7.18641C31.6458 6.95029 32.6009 6.98427 33.4877 7.28416C34.3744 7.58405 35.1542 8.13675 35.7308 8.87423C36.3074 9.61167 36.6558 10.5018 36.7331 11.4348L36.7547 11.8613V20.765H32.9414Z" fill="#FD6C26"/>
<path d="M10.4572 22.8204C7.68481 22.8171 5.02688 21.7142 3.06647 19.7536C1.10607 17.793 0.00327131 15.1348 0 12.3621V10.4583C0.00327131 7.68561 1.10607 5.02739 3.06647 3.06678C5.02688 1.10618 7.68481 0.003272 10.4572 0H10.8342C13.6067 0.003272 16.2646 1.10618 18.225 3.06678C20.1854 5.02739 21.2882 7.68561 21.2915 10.4583V12.359C21.289 15.1323 20.1866 17.7913 18.2261 19.7525C16.2656 21.7138 13.6072 22.8171 10.8342 22.8204H10.4572ZM10.4572 4.41016C8.85356 4.4118 7.31598 5.04945 6.18171 6.18325C5.04745 7.31705 4.40908 8.85446 4.40663 10.4583V12.359C4.40827 13.9634 5.04626 15.5016 6.18062 16.6361C7.31498 17.7705 8.85302 18.4086 10.4572 18.4102H10.8342C12.4379 18.4053 13.9742 17.7646 15.1062 16.6284C16.2381 15.4923 16.8733 13.9536 16.8725 12.3497V10.4583C16.8709 8.85392 16.2329 7.31572 15.0985 6.18125C13.9642 5.04678 12.4261 4.40871 10.8219 4.40708L10.4572 4.41016Z" fill="#FD6C26"/>
<path d="M85.3934 31.0391H14.6067C12.68 31.0391 11.1182 32.6009 11.1182 34.5275V50.371C11.1182 52.2976 12.68 53.8595 14.6067 53.8595H85.3934C87.3201 53.8595 88.8819 52.2976 88.8819 50.371V34.5275C88.8819 32.6009 87.3201 31.0391 85.3934 31.0391Z" fill="#FD6C26"/>
<path d="M22.2517 49.1759C21.0079 49.1759 19.9262 48.9025 19.0068 48.3557C18.0935 47.8089 17.3874 47.0337 16.8886 46.0302C16.3959 45.0207 16.1495 43.8249 16.1495 42.4428V42.4338C16.1495 41.0517 16.3989 39.8589 16.8977 38.8554C17.3964 37.8519 18.1025 37.0797 19.0159 36.5389C19.9292 35.9921 21.0079 35.7188 22.2517 35.7188C23.2492 35.7188 24.1416 35.911 24.9288 36.2955C25.722 36.6801 26.3679 37.2119 26.8667 37.8909C27.3654 38.57 27.6719 39.3511 27.7861 40.2345L27.7951 40.3246H25.5146L25.4696 40.1535C25.3434 39.6546 25.1361 39.225 24.8476 38.8644C24.5592 38.5039 24.1957 38.2244 23.757 38.0262C23.3183 37.8279 22.8166 37.7287 22.2517 37.7287C21.4946 37.7287 20.8366 37.921 20.2778 38.3056C19.7189 38.6902 19.2863 39.234 18.9798 39.937C18.6733 40.6342 18.5201 41.4663 18.5201 42.4338V42.4428C18.5201 43.4043 18.6733 44.2395 18.9798 44.9486C19.2863 45.6516 19.7189 46.1985 20.2778 46.589C20.8426 46.9736 21.5006 47.1659 22.2517 47.1659C22.8046 47.1659 23.2973 47.0698 23.73 46.8775C24.1686 46.6792 24.5382 46.3938 24.8386 46.0212C25.1391 45.6486 25.3584 45.1949 25.4966 44.6601L25.5237 44.57H27.8041L27.7861 44.6692C27.6779 45.5525 27.3744 46.3337 26.8757 47.0127C26.3769 47.6917 25.731 48.2235 24.9378 48.6081C24.1446 48.9867 23.2492 49.1759 22.2517 49.1759Z" fill="white"/>
<path d="M29.4085 48.9509V35.9443H31.6529V41.0009H31.698C31.9503 40.4241 32.3259 39.9794 32.8247 39.6669C33.3294 39.3545 33.9363 39.1982 34.6454 39.1982C35.3364 39.1982 35.9343 39.3575 36.4391 39.6759C36.9439 39.9884 37.3344 40.4301 37.6109 41.0009C37.8873 41.5658 38.0255 42.2328 38.0255 43.0019V48.9509H35.7811V43.4436C35.7811 42.7105 35.6038 42.1366 35.2493 41.722C34.8948 41.3014 34.396 41.0911 33.753 41.0911C33.3324 41.0911 32.9629 41.1932 32.6444 41.3975C32.3319 41.5958 32.0885 41.8722 31.9143 42.2268C31.74 42.5753 31.6529 42.9809 31.6529 43.4436V48.9509H29.4085Z" fill="white"/>
<path d="M42.6585 49.1131C42.0275 49.1131 41.4687 48.993 40.9819 48.7526C40.5012 48.5062 40.1256 48.1667 39.8552 47.7341C39.5908 47.2954 39.4586 46.7937 39.4586 46.2288V46.2108C39.4586 45.3635 39.7741 44.6935 40.4051 44.2008C41.042 43.702 41.9374 43.4196 43.0911 43.3535L46.7416 43.1281V44.6154L43.4066 44.8227C42.8538 44.8587 42.4301 44.9909 42.1357 45.2193C41.8412 45.4476 41.694 45.7511 41.694 46.1297V46.1387C41.694 46.5293 41.8412 46.8387 42.1357 47.0671C42.4361 47.2894 42.8327 47.4006 43.3255 47.4006C43.7581 47.4006 44.1427 47.3134 44.4792 47.1392C44.8217 46.9649 45.0921 46.7276 45.2904 46.4271C45.4887 46.1267 45.5879 45.7871 45.5879 45.4086V42.5423C45.5879 42.0615 45.4346 41.683 45.1282 41.4065C44.8277 41.1241 44.3921 40.9829 43.8212 40.9829C43.2924 40.9829 42.8688 41.0971 42.5503 41.3254C42.2318 41.5478 42.0335 41.8362 41.9554 42.1907L41.9374 42.2718H39.8643L39.8733 42.1637C39.9213 41.5988 40.1106 41.0941 40.4411 40.6494C40.7716 40.1987 41.2283 39.8442 41.8112 39.5858C42.4001 39.3274 43.0971 39.1982 43.9023 39.1982C44.7015 39.1982 45.3926 39.3304 45.9755 39.5948C46.5643 39.8592 47.018 40.2288 47.3365 40.7035C47.661 41.1782 47.8232 41.737 47.8232 42.38V48.9509H45.5879V47.4817H45.5338C45.3535 47.8122 45.1192 48.1006 44.8307 48.347C44.5423 48.5934 44.2118 48.7827 43.8392 48.9149C43.4727 49.0471 43.0791 49.1131 42.6585 49.1131Z" fill="white"/>
<path d="M53.1863 49.14C52.1948 49.14 51.4557 48.9237 50.969 48.491C50.4883 48.0584 50.2479 47.3493 50.2479 46.3638V41.1269H48.8959V39.3963H50.2479V36.9717H52.5283V39.3963H54.304V41.1269H52.5283V46.1835C52.5283 46.6462 52.6305 46.9677 52.8348 47.148C53.0451 47.3223 53.3516 47.4094 53.7542 47.4094C53.8683 47.4094 53.9675 47.4064 54.0516 47.4004C54.1418 47.3884 54.2259 47.3793 54.304 47.3733V49.0589C54.1718 49.0769 54.0096 49.0949 53.8173 49.1129C53.631 49.131 53.4207 49.14 53.1863 49.14Z" fill="white"/>
<path d="M61.7853 49.1759C60.5234 49.1759 59.4297 48.9025 58.5043 48.3557C57.5849 47.8089 56.8759 47.0307 56.3771 46.0212C55.8784 45.0057 55.629 43.7978 55.629 42.3977V42.3887C55.629 41.0066 55.8784 39.8199 56.3771 38.8284C56.8759 37.8309 57.5819 37.0647 58.4953 36.5299C59.4147 35.9891 60.4963 35.7188 61.7402 35.7188C62.7677 35.7188 63.6691 35.902 64.4443 36.2685C65.2194 36.629 65.8504 37.1248 66.3371 37.7557C66.8299 38.3807 67.1574 39.0928 67.3196 39.892L67.3557 40.0452H65.0031L64.9671 39.946C64.7207 39.249 64.3211 38.7052 63.7683 38.3146C63.2214 37.924 62.5484 37.7287 61.7492 37.7287C60.968 37.7287 60.298 37.912 59.7392 38.2785C59.1803 38.6451 58.7507 39.1769 58.4502 39.8739C58.1498 40.565 57.9996 41.3972 57.9996 42.3707V42.3797C57.9996 43.3712 58.1528 44.2275 58.4593 44.9486C58.7717 45.6637 59.2134 46.2135 59.7843 46.5981C60.3551 46.9766 61.0311 47.1659 61.8123 47.1659C62.4673 47.1659 63.0442 47.0398 63.5429 46.7873C64.0477 46.535 64.4413 46.1804 64.7237 45.7237C65.0121 45.2671 65.1624 44.7353 65.1744 44.1283L65.1834 43.93H61.9565V42.1183H67.4548V43.5244C67.4548 44.7022 67.2295 45.7117 66.7788 46.553C66.3281 47.3943 65.6791 48.0432 64.8319 48.4999C63.9906 48.9506 62.9751 49.1759 61.7853 49.1759Z" fill="white"/>
<path d="M68.221 48.9509L72.872 35.9443H74.8279V38.2608H74.1519L70.6546 48.9509H68.221ZM70.5735 45.5888L71.1954 43.7951H77.1534L77.7754 45.5888H70.5735ZM77.6942 48.9509L74.197 38.2608V35.9443H75.4859L80.1279 48.9509H77.6942Z" fill="white"/>
<path d="M81.525 48.9509V35.9443H83.8505V48.9509H81.525Z" fill="white"/>
</svg>
