<svg width="64" height="65" viewBox="0 0 64 65" fill="none" xmlns="http://www.w3.org/2000/svg">
<g clip-path="url(#clip0_1_3622)">
<path d="M56 0.945312H8C3.58172 0.945312 0 4.52703 0 8.94531V56.9453C0 61.3636 3.58172 64.9453 8 64.9453H56C60.4183 64.9453 64 61.3636 64 56.9453V8.94531C64 4.52703 60.4183 0.945312 56 0.945312Z" fill="url(#paint0_linear_1_3622)"/>
<path d="M40.637 30.9099C40.1979 28.9017 39.0969 27.0993 37.5107 25.7917C35.9307 24.4786 34.0609 24.2294 31.8924 23.4306H31.8835V20.1381L32.3024 20.0267L33.2214 19.6856C33.5748 19.5672 33.893 19.4665 34.2234 19.3958C34.4546 19.3345 34.6915 19.2977 34.9304 19.2862C35.2326 19.2862 35.6143 19.334 36.0615 19.4312C36.5139 19.5425 36.9981 19.6609 37.493 19.797C38.002 19.9507 38.4597 20.0692 38.9068 20.1681C39.3275 20.2671 39.6809 20.306 39.9743 20.306C40.4409 20.306 40.6777 20.2424 41.4783 20.0992V14.3095C40.6777 14.5003 40.5363 14.6046 39.9725 14.6046C39.6792 14.6046 39.3186 14.5604 38.8945 14.4526C38.4526 14.3678 37.9949 14.2352 37.4824 14.0868C37.0264 13.9507 36.5634 13.8305 36.0986 13.7316C35.7651 13.6385 35.4214 13.5869 35.0753 13.5778C34.0555 13.5778 32.6841 13.8182 31.8835 14.2635V13.2031H30.2859V23.4306H30.2364C28.0838 24.2294 26.1998 24.5246 24.6216 25.8377C23.0186 27.1879 21.9795 28.8368 21.4882 30.8427C21.4882 30.8427 19.9559 30.6254 19.9559 32.2248H42.3178C42.3178 30.6254 40.6388 30.9099 40.6388 30.9099H40.637ZM47.8742 35.5915V49.8131H35.883V46.6143H25.4876V49.8131H14.2952V35.5915H47.8742Z" fill="white"/>
</g>
<defs>
<linearGradient id="paint0_linear_1_3622" x1="35.4374" y1="67.6923" x2="10.267" y2="-10.7507" gradientUnits="userSpaceOnUse">
<stop stop-color="#A8A8A8"/>
<stop offset="1" stop-color="#FAFAFA"/>
</linearGradient>
<clipPath id="clip0_1_3622">
<rect width="64" height="65" fill="white"/>
</clipPath>
</defs>
</svg>
