<svg width="111" height="52" viewBox="0 0 111 52" fill="none" xmlns="http://www.w3.org/2000/svg">
<g clip-path="url(#clip0_1_3658)">
<path fill-rule="evenodd" clip-rule="evenodd" d="M3.53168 22.2899C5.70038 24.4588 8.64071 25.6789 11.7077 25.6825H12.1248C15.1923 25.6789 18.1332 24.4583 20.302 22.2887C22.4708 20.119 23.6903 17.1775 23.6931 14.1096V12.007C23.6894 8.93968 22.4695 5.99903 20.3008 3.83012C18.1321 1.6612 15.1918 0.441119 12.1248 0.4375H11.7077C8.64071 0.441119 5.70038 1.6612 3.53168 3.83012C1.36299 5.99903 0.143023 8.93968 0.139404 12.007V14.113C0.143023 17.1803 1.36299 20.121 3.53168 22.2899ZM6.97791 7.2777C8.23269 6.02343 9.93363 5.31805 11.7077 5.31624L12.1111 5.31283C13.8858 5.31464 15.5872 6.02049 16.8421 7.2755C18.097 8.53051 18.8028 10.2321 18.8046 12.007V14.0993C18.8055 15.8736 18.1028 17.5758 16.8506 18.8326C15.5983 20.0895 13.8988 20.7983 12.1248 20.8038H11.7077C9.93304 20.802 8.23158 20.0961 6.9767 18.8411C5.72182 17.5861 5.01604 15.8844 5.01423 14.1096V12.007C5.01694 10.2327 5.72313 8.53197 6.97791 7.2777ZM95.1872 25.675C94.5283 25.675 92.9546 25.6548 91.9475 25.6041V22.6681C93.1321 22.7762 94.0743 22.8472 94.9857 22.8472C95.7709 22.8472 96.2454 22.7931 96.2454 22.0397V21.1207L87.1 21.2086V18.9179L96.2454 18.9753V17.6847L85.5296 17.7861V15.2623L96.2454 15.3636V14.073L87.1546 14.1372V11.8837L96.2454 11.9614V10.735L87.2536 10.7958V5.69078L96.2488 5.75496V4.48799L85.6662 4.59949V1.7919H96.2488C96.2488 1.7919 96.1942 0.778326 96.1294 0.440468H99.8845C99.8197 0.778326 99.7616 1.7919 99.7616 1.7919H110.491V4.59949L99.7719 4.48799V5.75496L108.924 5.69415V10.7924L99.7719 10.735V11.9682L108.89 11.9175L108.835 15.1542L110.764 15.1305V17.8942L108.842 17.9381L108.945 21.114H99.7719V22.3877C99.7719 25.2392 99.171 25.6683 95.1633 25.6683L95.1872 25.675ZM99.7958 18.9787H105.316V17.6881H99.7958V18.9787ZM99.7958 15.3535H105.316V14.0629H99.7958V15.3535ZM99.7958 8.89029H104.712V7.60304H99.7958V8.89029ZM91.4764 8.89029H96.2557V7.60304H91.4764V8.89029ZM82.3778 25.6751C79.5428 23.9589 77.6791 22.3903 75.9836 20.3446C74.3774 18.4568 73.3203 16.545 72.3318 13.7442L72.0984 13.0886L71.8787 13.7476C70.7084 17.2418 69.5483 19.2394 67.4444 21.3743C65.7978 23.0725 63.9077 24.5162 61.8362 25.6579L59.3307 22.1123C63.1953 20.1799 65.4708 18.1891 67.1389 15.2991C68.8859 12.2889 69.7714 8.23871 69.7714 3.26523C69.7811 2.64356 69.7479 2.02196 69.6718 1.40489H74.0891C74.0033 2.04761 73.9654 2.69583 73.9758 3.34417C73.9758 6.26511 74.4083 9.3199 75.1119 11.321C76.1625 14.255 77.9579 16.8655 80.3219 18.8962C81.6873 20.1047 83.226 21.102 84.8867 21.8549L82.3778 25.6751ZM45.4143 21.7814C46.6245 23.0121 48.4329 23.6344 50.7848 23.6344L50.778 23.6173C52.7368 23.6173 54.2991 23.1968 55.4238 22.366C56.4679 21.5637 57.1828 20.4073 57.4339 19.1146H53.3761C53.0753 19.8873 52.371 20.6839 50.7267 20.6839C49.7764 20.6839 49.0414 20.3762 48.5799 19.8326C48.1184 19.289 47.8586 18.4616 47.7765 17.3026L47.7458 16.8855H57.6424V15.6479C57.6424 13.388 57.0339 11.6068 55.8511 10.3691C54.6683 9.1315 52.983 8.50585 50.843 8.50585C48.5833 8.50585 46.7783 9.19304 45.5066 10.5572C44.2349 11.9213 43.5854 13.8564 43.5854 16.3111C43.5854 18.7044 44.2042 20.5506 45.4143 21.7814ZM47.7594 14.294C47.9782 12.3897 49.0414 11.3811 50.8361 11.3811H50.8566C51.2306 11.3565 51.6057 11.4091 51.9585 11.5355C52.3114 11.662 52.6345 11.8596 52.9077 12.1162C53.3624 12.5914 53.6154 13.3333 53.6564 14.3179L53.6735 14.4615H47.7116L47.7594 14.294ZM36.5808 23.4055V14.5779C36.5808 13.8725 36.3006 13.1959 35.8018 12.6971C35.303 12.1983 34.6265 11.918 33.9212 11.918C33.2158 11.918 32.5393 12.1983 32.0405 12.6971C31.5418 13.1959 31.2615 13.8725 31.2615 14.5779V23.4055H27.0704V8.49916H31.2684V10.2633L31.5453 9.96244C32.2395 9.194 33.1434 8.6454 34.1454 8.38418C35.1475 8.12297 36.2041 8.16057 37.1851 8.49232C38.1661 8.82407 39.0286 9.4355 39.6665 10.2513C40.3044 11.0672 40.6898 12.0518 40.7753 13.0839L40.7992 13.5557V23.4055H36.5808Z" fill="#FD6C26"/>
<path d="M107.958 30.8281H2.94572C1.31884 30.8281 0 32.147 0 33.7738V48.7773C0 50.4042 1.31884 51.723 2.94572 51.723H107.958C109.585 51.723 110.904 50.4042 110.904 48.7773V33.7738C110.904 32.147 109.585 30.8281 107.958 30.8281Z" fill="white"/>
<path d="M107.958 30.8281H2.94572C1.31884 30.8281 0 32.147 0 33.7738V48.7773C0 50.4042 1.31884 51.723 2.94572 51.723H107.958C109.585 51.723 110.904 50.4042 110.904 48.7773V33.7738C110.904 32.147 109.585 30.8281 107.958 30.8281Z" fill="#FD6C26"/>
<path d="M4.75227 43.5507V41.9444H7.50806C8.20843 41.9444 8.75147 41.7643 9.13718 41.4039C9.52796 41.0436 9.72335 40.5361 9.72335 39.8814V39.8662C9.72335 39.2064 9.52796 38.6989 9.13718 38.3436C8.75147 37.9833 8.20843 37.8031 7.50806 37.8031H4.75227V36.1816H7.99527C8.74132 36.1816 9.39347 36.3364 9.95174 36.646C10.5151 36.9505 10.9541 37.3794 11.2687 37.9325C11.5885 38.4807 11.7483 39.1227 11.7483 39.8586V39.8738C11.7483 40.6046 11.5885 41.2466 11.2687 41.7998C10.9541 42.353 10.5151 42.7844 9.95174 43.0939C9.39347 43.3985 8.74132 43.5507 7.99527 43.5507H4.75227ZM3.755 47.1667V36.1816H5.74192V47.1667H3.755Z" fill="white"/>
<path d="M15.7298 47.3258C15.1411 47.3258 14.6386 47.2065 14.2225 46.968C13.8063 46.7244 13.4891 46.3768 13.2709 45.9251C13.0526 45.4734 12.9435 44.9354 12.9435 44.3112V39.0889H14.8695V43.9229C14.8695 44.4964 15.0015 44.938 15.2654 45.2475C15.5344 45.5571 15.9378 45.7119 16.4758 45.7119C16.8361 45.7119 17.1483 45.6307 17.4122 45.4683C17.6761 45.3059 17.8791 45.0775 18.0212 44.7832C18.1684 44.4888 18.242 44.1488 18.242 43.7631V39.0889H20.168V47.1659H18.242V45.8946H18.2039C17.9958 46.3311 17.6837 46.6787 17.2675 46.9376C16.8564 47.1964 16.3439 47.3258 15.7298 47.3258Z" fill="white"/>
<path d="M26.2429 47.3266C25.6593 47.3266 25.1517 47.1921 24.7204 46.9231C24.289 46.6491 23.9591 46.2735 23.7307 45.7965H23.685V47.1667H21.7666V36.1816H23.685V40.4752H23.7307C23.9591 39.993 24.2915 39.6149 24.728 39.3409C25.1695 39.0618 25.677 38.9222 26.2505 38.9222C26.9306 38.9222 27.5168 39.0922 28.009 39.4322C28.5064 39.7672 28.8921 40.2493 29.1662 40.8787C29.4402 41.5029 29.5773 42.2489 29.5773 43.1168V43.1244C29.5773 43.9922 29.4402 44.7408 29.1662 45.3701C28.8972 45.9995 28.5115 46.4841 28.009 46.8242C27.5117 47.1591 26.923 47.3266 26.2429 47.3266ZM25.6567 45.7127C26.0627 45.7127 26.4104 45.6087 26.6997 45.4006C26.994 45.1925 27.2199 44.8956 27.3772 44.5099C27.5396 44.1191 27.6208 43.6573 27.6208 43.1244V43.1168C27.6208 42.5839 27.5396 42.1271 27.3772 41.7465C27.2199 41.3608 26.994 41.0639 26.6997 40.8558C26.4053 40.6477 26.0577 40.5437 25.6567 40.5437C25.271 40.5437 24.9284 40.6503 24.629 40.8634C24.3346 41.0715 24.1037 41.3684 23.9362 41.7541C23.7688 42.1398 23.685 42.5966 23.685 43.1244V43.132C23.685 43.6548 23.7688 44.109 23.9362 44.4947C24.1037 44.8804 24.3346 45.1798 24.629 45.393C24.9284 45.6061 25.271 45.7127 25.6567 45.7127Z" fill="white"/>
<path d="M30.8562 47.1667V36.1816H32.7746V47.1667H30.8562Z" fill="white"/>
<path d="M34.4265 47.1667V39.0897H36.3525V47.1667H34.4265ZM35.3933 37.9402C35.0939 37.9402 34.8402 37.8387 34.6321 37.6356C34.424 37.4276 34.32 37.1814 34.32 36.8972C34.32 36.6029 34.424 36.3542 34.6321 36.1512C34.8402 35.9482 35.0939 35.8467 35.3933 35.8467C35.6928 35.8467 35.944 35.9482 36.147 36.1512C36.3551 36.3542 36.4591 36.6029 36.4591 36.8972C36.4591 37.1814 36.3551 37.4276 36.147 37.6356C35.944 37.8387 35.6928 37.9402 35.3933 37.9402Z" fill="white"/>
<path d="M41.5292 47.3263C40.7273 47.3263 40.0346 47.1563 39.4509 46.8163C38.8673 46.4762 38.4156 45.9915 38.0959 45.3622C37.7812 44.7278 37.6239 43.9793 37.6239 43.1165V43.1089C37.6239 42.2512 37.7837 41.5102 38.1035 40.886C38.4232 40.2567 38.8749 39.772 39.4585 39.4319C40.0422 39.0919 40.7273 38.9219 41.514 38.9219C42.2245 38.9219 42.8386 39.0589 43.3562 39.333C43.879 39.602 44.2875 39.9623 44.5819 40.414C44.8762 40.8606 45.0437 41.3554 45.0843 41.8985V41.9517H43.2801L43.2649 41.8908C43.1887 41.5001 43.006 41.1676 42.7168 40.8936C42.4275 40.6144 42.0316 40.4749 41.5292 40.4749C41.1384 40.4749 40.7958 40.584 40.5015 40.8022C40.2071 41.0154 39.9787 41.3199 39.8163 41.7158C39.659 42.1065 39.5803 42.576 39.5803 43.1241V43.1317C39.5803 43.69 39.6615 44.167 39.8239 44.5629C39.9863 44.9537 40.2147 45.2531 40.5091 45.4612C40.8034 45.6693 41.1485 45.7733 41.5444 45.7733C42.0215 45.7733 42.4072 45.6439 42.7015 45.3851C42.9959 45.1262 43.1862 44.7862 43.2725 44.365L43.2801 44.2965H45.0995L45.0919 44.3497C45.0462 44.9131 44.8686 45.4206 44.559 45.8723C44.2545 46.3189 43.8434 46.6742 43.3258 46.9381C42.8132 47.1969 42.2143 47.3263 41.5292 47.3263Z" fill="white"/>
<path d="M49.2695 39.2775H60.3701V40.7274H49.2695V39.2775ZM51.4678 37.5781H53.0424V42.6295H56.2541V37.5781H57.9068V44.0951H51.4678V37.5781ZM50.1581 44.6407L51.5769 45.1864C51.1871 46.3713 50.657 47.6965 49.784 48.5384L48.412 47.7277C49.2227 46.9638 49.8307 45.7477 50.1581 44.6407ZM52.3408 45.2488L53.7908 45.0929C54.0091 46.0751 54.1026 47.3535 54.1026 48.1954L52.5435 48.3513C52.6059 47.5094 52.5123 46.231 52.3408 45.2488ZM54.851 45.2644L56.2853 44.9681C56.7063 45.9192 57.0804 47.1508 57.2208 47.9772L55.6929 48.3357C55.5993 47.5094 55.2407 46.231 54.851 45.2644ZM57.3611 45.1708L58.811 44.6407C59.5594 45.6385 60.3233 46.9638 60.6975 47.8836L59.154 48.5228C58.8578 47.603 58.0783 46.1998 57.3611 45.1708ZM52.8553 33.9766H54.5859V36.6271H52.8553V33.9766ZM48.0378 35.6137H60.3701V37.1727H48.0378V35.6137ZM47.2115 35.6137H48.8485V39.9011C48.8485 42.3957 48.6146 46.1686 47.2115 48.5852C46.9308 48.3046 46.1981 47.8368 45.8083 47.6498C47.1023 45.4203 47.2115 42.1774 47.2115 39.8855V35.6137Z" fill="white"/>
<path d="M61.8824 34.6937H67.0585V36.1125H61.8824V34.6937ZM68.0564 42.7074H74.5265V44.1105H68.0564V42.7074ZM61.6797 39.4489H67.4951V40.9144H61.6797V39.4489ZM64.2834 40.0569H65.8581V46.6986C65.8581 47.4782 65.7333 47.9147 65.2344 48.1953C64.7355 48.4448 64.0495 48.476 63.0829 48.476C63.0361 48.0238 62.8179 47.3378 62.5996 46.8857C63.2076 46.9169 63.8313 46.9169 64.0339 46.9013C64.221 46.8857 64.2834 46.8545 64.2834 46.6674V40.0569ZM73.9809 42.7074H75.6647C75.6647 42.7074 75.6491 43.1439 75.6179 43.3622C75.3529 46.1218 75.0722 47.3378 74.6201 47.8212C74.2927 48.1641 73.9809 48.2733 73.5287 48.3356C73.139 48.3824 72.4841 48.3824 71.767 48.3512C71.7514 47.8835 71.5799 47.2287 71.3148 46.8078C71.9073 46.8701 72.4686 46.8857 72.718 46.8857C72.9519 46.8857 73.0922 46.8545 73.2325 46.7142C73.5287 46.4336 73.7782 45.4202 73.9809 42.9256V42.7074ZM70.6288 41.273H72.2971C72.0164 44.4535 71.3304 47.104 67.6978 48.5383C67.5107 48.133 67.0741 47.5405 66.7156 47.2443C69.9584 46.0594 70.395 43.8611 70.6288 41.273ZM62.3034 37.7651L63.3479 36.6893C64.6264 37.1726 66.3102 38.0145 67.1677 38.6694L66.0451 39.8698C65.2656 39.215 63.5974 38.3108 62.3034 37.7651ZM67.0897 39.4489H67.308L67.5419 39.3709L68.5553 39.7139C68.2746 41.1015 67.8537 42.6762 67.4171 43.7208L66.279 43.1751C66.5908 42.2864 66.9182 40.8521 67.0897 39.6983V39.4489ZM73.3261 36.2528L75.0722 36.5178C74.012 39.3865 71.689 40.9144 68.6644 41.7875C68.4617 41.4289 67.9472 40.7273 67.6198 40.3999C70.4885 39.7919 72.5933 38.529 73.3261 36.2528ZM70.1611 33.9609L71.7202 34.3975C70.9563 36.0657 69.709 37.6715 68.5241 38.6849C68.2123 38.4043 67.5575 37.9522 67.1677 37.7339C68.3838 36.8452 69.5219 35.4265 70.1611 33.9609ZM70.2391 36.627C71.3148 38.4823 73.5443 39.8543 76.2883 40.3999C75.9297 40.7429 75.4464 41.3822 75.2281 41.8187C72.3594 41.0859 70.1299 39.4333 68.8359 37.0791L70.2391 36.627ZM64.1119 39.9478L65.2032 40.3688C64.6108 42.4267 63.535 44.7965 62.241 46.0126C62.0851 45.5293 61.7109 44.8433 61.4459 44.4068C62.5684 43.409 63.613 41.5692 64.1119 39.9478ZM70.0364 35.5668H75.8985V36.9544H69.3504L70.0364 35.5668ZM66.6532 34.6937H67.0118L67.2768 34.6313L68.337 35.3017C67.6354 36.4399 66.4037 37.6715 65.3124 38.4199C65.0162 38.1705 64.5328 37.8119 64.2054 37.6248C65.1721 36.9388 66.2011 35.8007 66.6532 34.9899V34.6937Z" fill="white"/>
<path d="M83.5068 33.9609H85.2062V46.8857C85.2062 47.7432 84.988 48.1018 84.4267 48.3356C83.8498 48.5539 83.0235 48.5695 81.6983 48.5695C81.6048 48.1797 81.3397 47.5873 81.137 47.2443C81.9322 47.2755 82.8676 47.2599 83.1327 47.2599C83.4133 47.2443 83.5068 47.1507 83.5068 46.8857V33.9609ZM77.5979 35.0523H91.2711V36.3775H77.5979V35.0523ZM80.8096 38.186V39.0279H88.0126V38.186H80.8096ZM79.2038 37.0947H89.7276V40.1037H79.2038V37.0947ZM78.7984 40.9144H89.977V46.8857H88.2932V42.0681H78.7984V40.9144ZM77.2549 42.8477H91.614V44.1417H77.2549V42.8477ZM78.6737 44.9836H89.1819V46.2153H78.6737V44.9836Z" fill="white"/>
<path d="M93.064 34.6937H98.2401V36.1125H93.064V34.6937ZM99.2379 42.7074H105.708V44.1105H99.2379V42.7074ZM92.8613 39.4489H98.6767V40.9144H92.8613V39.4489ZM95.465 40.0569H97.0396V46.6986C97.0396 47.4782 96.9149 47.9147 96.416 48.1953C95.9171 48.4448 95.2311 48.476 94.2645 48.476C94.2177 48.0238 93.9994 47.3378 93.7812 46.8857C94.3892 46.9169 95.0128 46.9169 95.2155 46.9013C95.4026 46.8857 95.465 46.8545 95.465 46.6674V40.0569ZM105.162 42.7074H106.846C106.846 42.7074 106.831 43.1439 106.799 43.3622C106.534 46.1218 106.254 47.3378 105.802 47.8212C105.474 48.1641 105.162 48.2733 104.71 48.3356C104.321 48.3824 103.666 48.3824 102.949 48.3512C102.933 47.8835 102.761 47.2287 102.496 46.8078C103.089 46.8701 103.65 46.8857 103.9 46.8857C104.133 46.8857 104.274 46.8545 104.414 46.7142C104.71 46.4336 104.96 45.4202 105.162 42.9256V42.7074ZM101.81 41.273H103.479C103.198 44.4535 102.512 47.104 98.8794 48.5383C98.6923 48.133 98.2557 47.5405 97.8971 47.2443C101.14 46.0594 101.577 43.8611 101.81 41.273ZM93.4849 37.7651L94.5295 36.6893C95.808 37.1726 97.4918 38.0145 98.3493 38.6694L97.2267 39.8698C96.4472 39.215 94.779 38.3108 93.4849 37.7651ZM98.2713 39.4489H98.4896L98.7234 39.3709L99.7369 39.7139C99.4562 41.1015 99.0353 42.6762 98.5987 43.7208L97.4606 43.1751C97.7724 42.2864 98.0998 40.8521 98.2713 39.6983V39.4489ZM104.508 36.2528L106.254 36.5178C105.194 39.3865 102.871 40.9144 99.846 41.7875C99.6433 41.4289 99.1288 40.7273 98.8014 40.3999C101.67 39.7919 103.775 38.529 104.508 36.2528ZM101.343 33.9609L102.902 34.3975C102.138 36.0657 100.891 37.6715 99.7057 38.6849C99.3939 38.4043 98.739 37.9522 98.3493 37.7339C99.5653 36.8452 100.703 35.4265 101.343 33.9609ZM101.421 36.627C102.496 38.4823 104.726 39.8543 107.47 40.3999C107.111 40.7429 106.628 41.3822 106.41 41.8187C103.541 41.0859 101.312 39.4333 100.017 37.0791L101.421 36.627ZM95.2935 39.9478L96.3848 40.3688C95.7924 42.4267 94.7166 44.7965 93.4226 46.0126C93.2667 45.5293 92.8925 44.8433 92.6274 44.4068C93.75 43.409 94.7946 41.5692 95.2935 39.9478ZM101.218 35.5668H107.08V36.9544H100.532L101.218 35.5668ZM97.8348 34.6937H98.1934L98.4584 34.6313L99.5186 35.3017C98.817 36.4399 97.5853 37.6715 96.494 38.4199C96.1977 38.1705 95.7144 37.8119 95.387 37.6248C96.3536 36.9388 97.3826 35.8007 97.8348 34.9899V34.6937Z" fill="white"/>
</g>
<defs>
<clipPath id="clip0_1_3658">
<rect width="111" height="52" fill="white"/>
</clipPath>
</defs>
</svg>
