<svg width="111" height="53" viewBox="0 0 111 53" fill="none" xmlns="http://www.w3.org/2000/svg">
<g clip-path="url(#clip0_1_3632)">
<path fill-rule="evenodd" clip-rule="evenodd" d="M3.53168 22.7899C5.70038 24.9588 8.64071 26.1789 11.7077 26.1825H12.1248C15.1923 26.1789 18.1332 24.9583 20.302 22.7887C22.4708 20.619 23.6903 17.6775 23.6931 14.6096V12.507C23.6894 9.43968 22.4695 6.49903 20.3008 4.33012C18.1321 2.1612 15.1918 0.941119 12.1248 0.9375H11.7077C8.64071 0.941119 5.70038 2.1612 3.53168 4.33012C1.36299 6.49903 0.143023 9.43968 0.139404 12.507V14.613C0.143023 17.6803 1.36299 20.621 3.53168 22.7899ZM6.97791 7.7777C8.23269 6.52343 9.93363 5.81805 11.7077 5.81624L12.1111 5.81283C13.8858 5.81464 15.5872 6.52049 16.8421 7.7755C18.097 9.03051 18.8028 10.7321 18.8046 12.507V14.5993C18.8055 16.3736 18.1028 18.0758 16.8506 19.3326C15.5983 20.5895 13.8988 21.2983 12.1248 21.3038H11.7077C9.93304 21.302 8.23158 20.5961 6.9767 19.3411C5.72182 18.0861 5.01604 16.3844 5.01423 14.6096V12.507C5.01694 10.7327 5.72313 9.03197 6.97791 7.7777ZM95.1872 26.1752C94.5283 26.1752 92.9546 26.1549 91.9475 26.1043V23.1683C93.1321 23.2764 94.0743 23.3473 94.9857 23.3473C95.7709 23.3473 96.2454 23.2933 96.2454 22.5399V21.6209L87.1 21.7087V19.4181L96.2454 19.4755V18.1849L85.5296 18.2862V15.7624L96.2454 15.8638V14.5732L87.1546 14.6374V12.3839L96.2454 12.4616V11.2352L87.2536 11.296V6.19095L96.2488 6.25513V4.98816L85.6662 5.09966V2.29207H96.2488C96.2488 2.29207 96.1942 1.27849 96.1294 0.940636H99.8845C99.8197 1.27849 99.7616 2.29207 99.7616 2.29207H110.491V5.09966L99.7719 4.98816V6.25513L108.924 6.19432V11.2926L99.7719 11.2352V12.4683L108.89 12.4177L108.835 15.6543L110.764 15.6307V18.3944L108.842 18.4383L108.945 21.6141H99.7719V22.8879C99.7719 25.7394 99.171 26.1685 95.1633 26.1685L95.1872 26.1752ZM99.7958 19.4789H105.316V18.1883H99.7958V19.4789ZM99.7958 15.8537H105.316V14.5631H99.7958V15.8537ZM99.7958 9.39046H104.712V8.10321H99.7958V9.39046ZM91.4764 9.39046H96.2557V8.10321H91.4764V9.39046ZM82.3778 26.1753C79.5428 24.4591 77.6791 22.8905 75.9836 20.8448C74.3774 18.957 73.3203 17.0452 72.3318 14.2444L72.0984 13.5888L71.8787 14.2478C70.7084 17.742 69.5483 19.7396 67.4444 21.8745C65.7978 23.5727 63.9077 25.0164 61.8362 26.1581L59.3307 22.6125C63.1953 20.68 65.4708 18.6893 67.1389 15.7992C68.8859 12.7891 69.7714 8.73888 69.7714 3.76539C69.7811 3.14373 69.7479 2.52213 69.6718 1.90505H74.0891C74.0033 2.54778 73.9654 3.196 73.9758 3.84434C73.9758 6.76528 74.4083 9.82007 75.1119 11.8211C76.1625 14.7552 77.9579 17.3657 80.3219 19.3963C81.6873 20.6049 83.226 21.6022 84.8867 22.355L82.3778 26.1753ZM45.4143 22.2815C46.6245 23.5123 48.4329 24.1346 50.7848 24.1346L50.778 24.1175C52.7368 24.1175 54.2991 23.6969 55.4238 22.8661C56.4679 22.0638 57.1828 20.9075 57.4339 19.6148H53.3761C53.0753 20.3875 52.371 21.1841 50.7267 21.1841C49.7764 21.1841 49.0414 20.8764 48.5799 20.3328C48.1184 19.7892 47.8586 18.9618 47.7765 17.8028L47.7458 17.3857H57.6424V16.148C57.6424 13.8882 57.0339 12.1069 55.8511 10.8693C54.6683 9.63166 52.983 9.00601 50.843 9.00601C48.5833 9.00601 46.7783 9.69321 45.5066 11.0573C44.2349 12.4215 43.5854 14.3566 43.5854 16.8113C43.5854 19.2045 44.2042 21.0507 45.4143 22.2815ZM47.7594 14.7942C47.9782 12.8899 49.0414 11.8813 50.8361 11.8813H50.8566C51.2306 11.8567 51.6057 11.9093 51.9585 12.0357C52.3114 12.1622 52.6345 12.3598 52.9077 12.6164C53.3624 13.0916 53.6154 13.8335 53.6564 14.8181L53.6735 14.9617H47.7116L47.7594 14.7942ZM36.5808 23.9054V15.0779C36.5808 14.3724 36.3006 13.6959 35.8018 13.197C35.303 12.6982 34.6265 12.418 33.9212 12.418C33.2158 12.418 32.5393 12.6982 32.0405 13.197C31.5418 13.6959 31.2615 14.3724 31.2615 15.0779V23.9054H27.0704V8.99908H31.2684V10.7632L31.5453 10.4624C32.2395 9.69392 33.1434 9.14532 34.1454 8.88411C35.1475 8.62289 36.2041 8.66049 37.1851 8.99224C38.1661 9.32399 39.0286 9.93542 39.6665 10.7512C40.3044 11.5671 40.6898 12.5517 40.7753 13.5838L40.7992 14.0556V23.9054H36.5808Z" fill="#FD6C26"/>
<path d="M107.98 31.3281H2.92364C1.30896 31.3281 0 32.6371 0 34.2518V49.2994C0 50.9141 1.30896 52.223 2.92364 52.223H107.98C109.595 52.223 110.904 50.9141 110.904 49.2994V34.2518C110.904 32.6371 109.595 31.3281 107.98 31.3281Z" fill="#FD6C26"/>
<path d="M4.94721 44.0664V42.4601H7.70301C8.40338 42.4601 8.94641 42.28 9.33212 41.9196C9.72291 41.5593 9.9183 41.0518 9.9183 40.3971V40.3819C9.9183 39.7221 9.72291 39.2146 9.33212 38.8593C8.94641 38.499 8.40338 38.3188 7.70301 38.3188H4.94721V36.6973H8.19022C8.93626 36.6973 9.58842 36.8521 10.1467 37.1617C10.71 37.4662 11.149 37.895 11.4637 38.4482C11.7834 38.9963 11.9433 39.6384 11.9433 40.3742V40.3895C11.9433 41.1203 11.7834 41.7623 11.4637 42.3155C11.149 42.8687 10.71 43.3001 10.1467 43.6096C9.58842 43.9141 8.93626 44.0664 8.19022 44.0664H4.94721ZM3.94995 47.6824V36.6973H5.93686V47.6824H3.94995Z" fill="white"/>
<path d="M15.9247 47.8414C15.336 47.8414 14.8336 47.7221 14.4174 47.4836C14.0012 47.24 13.684 46.8923 13.4658 46.4407C13.2476 45.989 13.1385 45.451 13.1385 44.8268V39.6045H15.0645V44.4385C15.0645 45.012 15.1964 45.4535 15.4603 45.7631C15.7293 46.0727 16.1328 46.2275 16.6708 46.2275C17.0311 46.2275 17.3432 46.1463 17.6071 45.9839C17.871 45.8215 18.074 45.5931 18.2161 45.2988C18.3633 45.0044 18.4369 44.6644 18.4369 44.2787V39.6045H20.3629V47.6815H18.4369V46.4102H18.3988C18.1908 46.8467 17.8786 47.1943 17.4625 47.4531C17.0514 47.712 16.5388 47.8414 15.9247 47.8414Z" fill="white"/>
<path d="M26.4378 47.8423C25.8542 47.8423 25.3467 47.7078 24.9153 47.4388C24.4839 47.1648 24.154 46.7892 23.9257 46.3121H23.88V47.6824H21.9616V36.6973H23.88V40.9909H23.9257C24.154 40.5087 24.4865 40.1306 24.9229 39.8566C25.3645 39.5775 25.872 39.4379 26.4455 39.4379C27.1255 39.4379 27.7117 39.6079 28.204 39.9479C28.7013 40.2829 29.0871 40.765 29.3611 41.3943C29.6352 42.0186 29.7722 42.7646 29.7722 43.6325V43.6401C29.7722 44.5079 29.6352 45.2565 29.3611 45.8858C29.0921 46.5152 28.7064 46.9998 28.204 47.3399C27.7066 47.6748 27.1179 47.8423 26.4378 47.8423ZM25.8517 46.2284C26.2577 46.2284 26.6053 46.1244 26.8946 45.9163C27.189 45.7082 27.4148 45.4113 27.5721 45.0256C27.7345 44.6348 27.8157 44.173 27.8157 43.6401V43.6325C27.8157 43.0996 27.7345 42.6428 27.5721 42.2622C27.4148 41.8765 27.189 41.5796 26.8946 41.3715C26.6002 41.1634 26.2526 41.0594 25.8517 41.0594C25.466 41.0594 25.1234 41.166 24.8239 41.3791C24.5296 41.5872 24.2987 41.8841 24.1312 42.2698C23.9637 42.6555 23.88 43.1123 23.88 43.6401V43.6477C23.88 44.1704 23.9637 44.6247 24.1312 45.0104C24.2987 45.3961 24.5296 45.6955 24.8239 45.9087C25.1234 46.1218 25.466 46.2284 25.8517 46.2284Z" fill="white"/>
<path d="M31.0511 47.6824V36.6973H32.9695V47.6824H31.0511Z" fill="white"/>
<path d="M34.6215 47.6823V39.6053H36.5475V47.6823H34.6215ZM35.5883 38.4557C35.2889 38.4557 35.0351 38.3542 34.827 38.1512C34.6189 37.9432 34.5149 37.697 34.5149 37.4128C34.5149 37.1185 34.6189 36.8698 34.827 36.6668C35.0351 36.4638 35.2889 36.3623 35.5883 36.3623C35.8877 36.3623 36.1389 36.4638 36.342 36.6668C36.55 36.8698 36.6541 37.1185 36.6541 37.4128C36.6541 37.697 36.55 37.9432 36.342 38.1512C36.1389 38.3542 35.8877 38.4557 35.5883 38.4557Z" fill="white"/>
<path d="M41.7241 47.8419C40.9223 47.8419 40.2295 47.6719 39.6459 47.3318C39.0622 46.9918 38.6105 46.5071 38.2908 45.8778C37.9761 45.2434 37.8188 44.4948 37.8188 43.6321V43.6245C37.8188 42.7668 37.9787 42.0258 38.2984 41.4016C38.6181 40.7722 39.0698 40.2876 39.6535 39.9475C40.2371 39.6075 40.9223 39.4375 41.7089 39.4375C42.4194 39.4375 43.0335 39.5745 43.5512 39.8486C44.0739 40.1176 44.4825 40.4779 44.7768 40.9296C45.0712 41.3762 45.2387 41.871 45.2793 42.414V42.4673H43.475L43.4598 42.4064C43.3837 42.0156 43.201 41.6832 42.9117 41.4092C42.6224 41.13 42.2266 40.9905 41.7241 40.9905C41.3333 40.9905 40.9908 41.0996 40.6964 41.3178C40.4021 41.531 40.1737 41.8355 40.0113 42.2313C39.8539 42.6221 39.7753 43.0916 39.7753 43.6397V43.6473C39.7753 44.2056 39.8565 44.6826 40.0189 45.0785C40.1813 45.4693 40.4097 45.7687 40.704 45.9768C40.9984 46.1849 41.3435 46.2889 41.7393 46.2889C42.2164 46.2889 42.6021 46.1595 42.8965 45.9007C43.1908 45.6418 43.3812 45.3018 43.4674 44.8806L43.475 44.812H45.2945L45.2869 44.8653C45.2412 45.4287 45.0636 45.9362 44.754 46.3879C44.4495 46.8345 44.0384 47.1897 43.5207 47.4536C43.0081 47.7125 42.4093 47.8419 41.7241 47.8419Z" fill="white"/>
<path d="M52.2707 34.8818H54.1728C54.0325 37.4543 53.8142 45.1249 47.422 48.9135C47.1258 48.477 46.5957 47.9625 46.0188 47.5883C52.3175 44.1739 52.1616 36.9398 52.2707 34.8818ZM54.1105 35.2716C54.1572 36.5812 54.5314 44.5169 60.9236 47.4947C60.3936 47.8845 59.8946 48.4458 59.6452 48.9135C52.9567 45.6238 52.6137 36.9865 52.489 35.4275L54.1105 35.2716Z" fill="white"/>
<path d="M68.111 34.4766H69.8104V47.4014C69.8104 48.2589 69.5921 48.6175 69.0308 48.8513C68.454 49.0696 67.6277 49.0852 66.3025 49.0852C66.2089 48.6954 65.9439 48.103 65.7412 47.76C66.5363 47.7912 67.4718 47.7756 67.7368 47.7756C68.0174 47.76 68.111 47.6664 68.111 47.4014V34.4766ZM62.2021 35.568H75.8752V36.8932H62.2021V35.568ZM65.4138 38.7017V39.5436H72.6167V38.7017H65.4138ZM63.8079 37.6104H74.3317V40.6194H63.8079V37.6104ZM63.4026 41.4301H74.5812V47.4014H72.8974V42.5838H63.4026V41.4301ZM61.8591 43.3634H76.2182V44.6574H61.8591V43.3634ZM63.2778 45.4993H73.786V46.731H63.2778V45.4993Z" fill="white"/>
<path d="M84.762 39.528H89.9225V41.0404H84.762V39.528ZM84.8555 46.6998H90.172V48.1809H84.8555V46.6998ZM87.2409 36.3787C86.399 37.8131 84.9179 39.684 83.312 40.9312C83.1093 40.4791 82.6884 39.8399 82.361 39.4813C83.9824 38.2964 85.6039 36.2228 86.3678 34.6949H87.9737C89.0494 36.3631 90.6709 38.2808 92.1988 39.2786C91.8402 39.6995 91.4504 40.3076 91.1698 40.8377C89.7354 39.6995 88.114 37.7819 87.2409 36.3787ZM83.9824 42.5682H90.8735V48.9761H89.2677V44.0494H85.5259V49.0384H83.9824V42.5682ZM79.6949 34.4922L81.1449 35.0535C80.5368 36.2228 79.8041 37.6104 79.196 38.4835L78.0735 37.9846C78.6504 37.0647 79.3364 35.568 79.6949 34.4922ZM81.4723 36.3163L82.8443 36.94C81.7373 38.7329 80.225 40.9312 79.0401 42.2876L78.0579 41.7263C79.2272 40.3232 80.6616 38.0001 81.4723 36.3163ZM77.2784 38.0781L78.0891 36.94C78.9154 37.6572 79.8976 38.655 80.303 39.3721L79.4299 40.6506C79.0401 39.9178 78.0891 38.8265 77.2784 38.0781ZM80.989 40.0114L82.1115 39.5592C82.7196 40.5882 83.3276 41.9602 83.5147 42.8333L82.3142 43.379C82.1427 42.4903 81.5814 41.0871 80.989 40.0114ZM77.2472 41.3989C78.666 41.3522 80.7239 41.2742 82.7663 41.1651L82.7507 42.5059C80.8487 42.6462 78.8842 42.7709 77.3875 42.8645L77.2472 41.3989ZM81.3476 43.8467L82.5325 43.4569C82.9222 44.3612 83.3432 45.5305 83.5147 46.2944L82.2674 46.7466C82.1115 45.967 81.7062 44.751 81.3476 43.8467ZM77.98 43.5817L79.3831 43.8311C79.2116 45.3122 78.8531 46.8557 78.3853 47.8535C78.0891 47.6664 77.4499 47.3702 77.1069 47.2455C77.5746 46.31 77.8396 44.9225 77.98 43.5817ZM79.7105 42.1161H81.1761V49.0696H79.7105V42.1161Z" fill="white"/>
<path d="M96.5954 40.0113H103.596V41.5547H96.5954V40.0113ZM97.297 36.5345H105.576V38.1404H97.297V36.5345ZM93.181 43.3945H107.275V44.9847H93.181V43.3945ZM103.019 40.0113H104.734C104.734 40.0113 104.718 40.5258 104.687 40.7596C104.282 45.5928 103.876 47.5728 103.159 48.3056C102.707 48.8045 102.27 48.9448 101.569 49.0071C100.992 49.0695 99.9318 49.0539 98.8716 48.9916C98.8404 48.5082 98.6066 47.7911 98.2792 47.3233C99.3861 47.4325 100.477 47.4325 100.914 47.4325C101.288 47.4325 101.491 47.4013 101.709 47.2298C102.27 46.7309 102.676 44.7353 103.019 40.2919V40.0113ZM96.8136 34.4609L98.5598 34.6324C98.1233 37.1426 97.484 40.3387 97.0007 42.2719L95.2546 42.116C95.7846 40.1516 96.4395 36.9087 96.8136 34.4609Z" fill="white"/>
</g>
<defs>
<clipPath id="clip0_1_3632">
<rect width="111" height="53" fill="white"/>
</clipPath>
</defs>
</svg>
