<svg width="111" height="53" viewBox="0 0 111 53" fill="none" xmlns="http://www.w3.org/2000/svg">
<g clip-path="url(#clip0_1_3683)">
<path fill-rule="evenodd" clip-rule="evenodd" d="M3.53168 22.7899C5.70038 24.9588 8.64071 26.1789 11.7077 26.1825H12.1248C15.1923 26.1789 18.1332 24.9583 20.302 22.7887C22.4708 20.619 23.6903 17.6775 23.6931 14.6096V12.507C23.6894 9.43968 22.4695 6.49903 20.3008 4.33012C18.1321 2.1612 15.1918 0.941119 12.1248 0.9375H11.7077C8.64071 0.941119 5.70038 2.1612 3.53168 4.33012C1.36299 6.49903 0.143023 9.43968 0.139404 12.507V14.613C0.143023 17.6803 1.36299 20.621 3.53168 22.7899ZM6.97791 7.7777C8.23269 6.52343 9.93363 5.81805 11.7077 5.81624L12.1111 5.81283C13.8858 5.81464 15.5872 6.52049 16.8421 7.7755C18.097 9.03051 18.8028 10.7321 18.8046 12.507V14.5993C18.8055 16.3736 18.1028 18.0758 16.8506 19.3326C15.5983 20.5895 13.8988 21.2983 12.1248 21.3038H11.7077C9.93304 21.302 8.23158 20.5961 6.9767 19.3411C5.72182 18.0861 5.01604 16.3844 5.01423 14.6096V12.507C5.01694 10.7327 5.72313 9.03197 6.97791 7.7777ZM95.1872 26.1751C94.5283 26.1751 92.9546 26.1549 91.9475 26.1042V23.1682C93.1321 23.2763 94.0743 23.3473 94.9857 23.3473C95.7709 23.3473 96.2454 23.2932 96.2454 22.5398V21.6208L87.1 21.7087V19.418L96.2454 19.4754V18.1848L85.5296 18.2862V15.7624L96.2454 15.8637V14.5731L87.1546 14.6373V12.3838L96.2454 12.4615V11.2351L87.2536 11.2959V6.19086L96.2488 6.25504V4.98808L85.6662 5.09958V2.29198H96.2488C96.2488 2.29198 96.1942 1.27841 96.1294 0.940552H99.8845C99.8197 1.27841 99.7616 2.29198 99.7616 2.29198H110.491V5.09958L99.7719 4.98808V6.25504L108.924 6.19423V11.2925L99.7719 11.2351V12.4682L108.89 12.4176L108.835 15.6542L110.764 15.6306V18.3943L108.842 18.4382L108.945 21.6141H99.7719V22.8878C99.7719 25.7393 99.171 26.1684 95.1633 26.1684L95.1872 26.1751ZM99.7958 19.4788H105.316V18.1882H99.7958V19.4788ZM99.7958 15.8536H105.316V14.563H99.7958V15.8536ZM99.7958 9.39037H104.712V8.10313H99.7958V9.39037ZM91.4764 9.39037H96.2557V8.10313H91.4764V9.39037ZM82.3778 26.1752C79.5428 24.459 77.6791 22.8904 75.9836 20.8447C74.3774 18.9569 73.3203 17.0451 72.3318 14.2443L72.0984 13.5887L71.8787 14.2477C70.7084 17.7419 69.5483 19.7395 67.4444 21.8744C65.7978 23.5726 63.9077 25.0163 61.8362 26.158L59.3307 22.6124C63.1953 20.68 65.4708 18.6892 67.1389 15.7992C68.8859 12.789 69.7714 8.7388 69.7714 3.76531C69.7811 3.14365 69.7479 2.52205 69.6718 1.90497H74.0891C74.0033 2.54769 73.9654 3.19592 73.9758 3.84426C73.9758 6.76519 74.4083 9.81999 75.1119 11.8211C76.1625 14.7551 77.9579 17.3656 80.3219 19.3963C81.6873 20.6048 83.226 21.6021 84.8867 22.355L82.3778 26.1752ZM45.4143 22.2814C46.6245 23.5122 48.4329 24.1345 50.7848 24.1345L50.778 24.1174C52.7368 24.1174 54.2991 23.6968 55.4238 22.8661C56.4679 22.0637 57.1828 20.9074 57.4339 19.6147H53.3761C53.0753 20.3874 52.371 21.184 50.7267 21.184C49.7764 21.184 49.0414 20.8763 48.5799 20.3327C48.1184 19.7891 47.8586 18.9617 47.7765 17.8027L47.7458 17.3856H57.6424V16.148C57.6424 13.8881 57.0339 12.1068 55.8511 10.8692C54.6683 9.63158 52.983 9.00593 50.843 9.00593C48.5833 9.00593 46.7783 9.69313 45.5066 11.0573C44.2349 12.4214 43.5854 14.3565 43.5854 16.8112C43.5854 19.2044 44.2042 21.0506 45.4143 22.2814ZM47.7594 14.7941C47.9782 12.8898 49.0414 11.8812 50.8361 11.8812H50.8566C51.2306 11.8566 51.6057 11.9092 51.9585 12.0356C52.3114 12.1621 52.6345 12.3597 52.9077 12.6163C53.3624 13.0915 53.6154 13.8334 53.6564 14.818L53.6735 14.9616H47.7116L47.7594 14.7941ZM36.5808 23.9053V15.0778C36.5808 14.3723 36.3006 13.6958 35.8018 13.1969C35.303 12.6981 34.6265 12.4179 33.9212 12.4179C33.2158 12.4179 32.5393 12.6981 32.0405 13.1969C31.5418 13.6958 31.2615 14.3723 31.2615 15.0778V23.9053H27.0704V8.999H31.2684V10.7631L31.5453 10.4623C32.2395 9.69384 33.1434 9.14523 34.1454 8.88402C35.1475 8.62281 36.2041 8.6604 37.1851 8.99215C38.1661 9.32391 39.0286 9.93534 39.6665 10.7512C40.3044 11.567 40.6898 12.5516 40.7753 13.5837L40.7992 14.0555V23.9053H36.5808Z" fill="#FD6C26"/>
<path d="M107.98 31.3281H2.92364C1.30896 31.3281 0 32.6371 0 34.2518V49.2994C0 50.9141 1.30896 52.223 2.92364 52.223H107.98C109.595 52.223 110.904 50.9141 110.904 49.2994V34.2518C110.904 32.6371 109.595 31.3281 107.98 31.3281Z" fill="#FD6C26"/>
<path d="M4.79902 44.1123V42.506H7.55481C8.25518 42.506 8.79822 42.3258 9.18393 41.9655C9.57472 41.6052 9.77011 41.0976 9.77011 40.443V40.4277C9.77011 39.768 9.57472 39.2604 9.18393 38.9052C8.79822 38.5449 8.25518 38.3647 7.55481 38.3647H4.79902V36.7432H8.04203C8.78807 36.7432 9.44022 36.898 9.99849 37.2076C10.5618 37.5121 11.0008 37.9409 11.3155 38.4941C11.6352 39.0422 11.7951 39.6842 11.7951 40.4201V40.4353C11.7951 41.1662 11.6352 41.8082 11.3155 42.3614C11.0008 42.9145 10.5618 43.3459 9.99849 43.6555C9.44022 43.96 8.78807 44.1123 8.04203 44.1123H4.79902ZM3.80176 47.7283V36.7432H5.78867V47.7283H3.80176Z" fill="white"/>
<path d="M15.7765 47.8884C15.1878 47.8884 14.6854 47.7691 14.2692 47.5306C13.853 47.287 13.5359 46.9393 13.3176 46.4876C13.0994 46.0359 12.9903 45.498 12.9903 44.8737V39.6514H14.9163V44.4855C14.9163 45.059 15.0482 45.5005 15.3121 45.8101C15.5811 46.1197 15.9846 46.2745 16.5226 46.2745C16.8829 46.2745 17.195 46.1933 17.4589 46.0309C17.7228 45.8685 17.9258 45.6401 18.0679 45.3457C18.2151 45.0514 18.2887 44.7113 18.2887 44.3256V39.6514H20.2147V47.7285H18.2887V46.4572H18.2506C18.0426 46.8936 17.7304 47.2413 17.3143 47.5001C16.9032 47.7589 16.3906 47.8884 15.7765 47.8884Z" fill="white"/>
<path d="M26.2896 47.8882C25.706 47.8882 25.1985 47.7537 24.7671 47.4847C24.3357 47.2106 24.0058 46.8351 23.7775 46.358H23.7318V47.7283H21.8134V36.7432H23.7318V41.0367H23.7775C24.0058 40.5546 24.3383 40.1765 24.7747 39.9025C25.2163 39.6233 25.7238 39.4838 26.2973 39.4838C26.9773 39.4838 27.5635 39.6538 28.0558 39.9938C28.5532 40.3288 28.9389 40.8109 29.2129 41.4402C29.487 42.0645 29.624 42.8105 29.624 43.6783V43.686C29.624 44.5538 29.487 45.3024 29.2129 45.9317C28.9439 46.561 28.5582 47.0457 28.0558 47.3857C27.5584 47.7207 26.9697 47.8882 26.2896 47.8882ZM25.7035 46.2743C26.1095 46.2743 26.4571 46.1702 26.7464 45.9622C27.0408 45.7541 27.2666 45.4572 27.4239 45.0715C27.5863 44.6807 27.6675 44.2188 27.6675 43.686V43.6783C27.6675 43.1455 27.5863 42.6887 27.4239 42.3081C27.2666 41.9224 27.0408 41.6255 26.7464 41.4174C26.4521 41.2093 26.1044 41.1053 25.7035 41.1053C25.3178 41.1053 24.9752 41.2118 24.6758 41.425C24.3814 41.6331 24.1505 41.93 23.983 42.3157C23.8155 42.7014 23.7318 43.1581 23.7318 43.686V43.6936C23.7318 44.2163 23.8155 44.6705 23.983 45.0562C24.1505 45.442 24.3814 45.7414 24.6758 45.9545C24.9752 46.1677 25.3178 46.2743 25.7035 46.2743Z" fill="white"/>
<path d="M30.9029 47.7283V36.7432H32.8213V47.7283H30.9029Z" fill="white"/>
<path d="M34.4733 47.7283V39.6512H36.3993V47.7283H34.4733ZM35.4401 38.5017C35.1407 38.5017 34.8869 38.4002 34.6788 38.1972C34.4708 37.9891 34.3667 37.743 34.3667 37.4588C34.3667 37.1644 34.4708 36.9157 34.6788 36.7127C34.8869 36.5097 35.1407 36.4082 35.4401 36.4082C35.7395 36.4082 35.9908 36.5097 36.1938 36.7127C36.4018 36.9157 36.5059 37.1644 36.5059 37.4588C36.5059 37.743 36.4018 37.9891 36.1938 38.1972C35.9908 38.4002 35.7395 38.5017 35.4401 38.5017Z" fill="white"/>
<path d="M41.5759 47.8888C40.7741 47.8888 40.0813 47.7187 39.4977 47.3787C38.914 47.0387 38.4623 46.554 38.1426 45.9247C37.8279 45.2903 37.6706 44.5417 37.6706 43.6789V43.6713C37.6706 42.8136 37.8305 42.0727 38.1502 41.4484C38.47 40.8191 38.9216 40.3344 39.5053 39.9944C40.0889 39.6544 40.7741 39.4844 41.5607 39.4844C42.2712 39.4844 42.8853 39.6214 43.403 39.8954C43.9257 40.1644 44.3343 40.5248 44.6286 40.9764C44.923 41.4231 45.0905 41.9179 45.1311 42.4609V42.5142H43.3269L43.3116 42.4533C43.2355 42.0625 43.0528 41.7301 42.7635 41.456C42.4742 41.1769 42.0784 41.0373 41.5759 41.0373C41.1851 41.0373 40.8426 41.1465 40.5482 41.3647C40.2539 41.5778 40.0255 41.8824 39.8631 42.2782C39.7057 42.669 39.6271 43.1384 39.6271 43.6866V43.6942C39.6271 44.2524 39.7083 44.7295 39.8707 45.1254C40.0331 45.5161 40.2615 45.8156 40.5558 46.0237C40.8502 46.2317 41.1953 46.3358 41.5912 46.3358C42.0682 46.3358 42.4539 46.2064 42.7483 45.9475C43.0426 45.6887 43.233 45.3487 43.3192 44.9274L43.3269 44.8589H45.1463L45.1387 44.9122C45.093 45.4755 44.9154 45.9831 44.6058 46.4347C44.3013 46.8814 43.8902 47.2366 43.3725 47.5005C42.8599 47.7593 42.2611 47.8888 41.5759 47.8888Z" fill="white"/>
<path d="M54.009 38.125H59.232V39.6685H54.009V38.125ZM58.7642 38.125H60.3233C60.3233 38.125 60.3077 38.6551 60.3077 38.8577C60.1674 45.3279 60.0427 47.5886 59.5594 48.259C59.232 48.7267 58.9201 48.8826 58.4368 48.9762C58.0003 49.0541 57.3299 49.0385 56.6283 49.0073C56.5971 48.5552 56.4256 47.9004 56.1762 47.4639C56.8154 47.5262 57.3611 47.5262 57.6417 47.5262C57.8756 47.5262 58.0315 47.4794 58.1562 47.2612C58.4992 46.809 58.6395 44.6263 58.7642 38.4836V38.125ZM55.5681 34.6794H57.1116C57.096 41.3834 57.096 46.3413 53.9467 49.1321C53.7128 48.7423 53.1671 48.181 52.793 47.9316C55.6773 45.4371 55.5525 41.0093 55.5681 34.6794ZM46.619 44.7043H53.6349V45.9048H46.619V44.7043ZM46.3851 42.6151H53.7908V43.8468H46.3851V42.6151ZM46.1669 35.724H54.0402V36.9713H46.1669V35.724ZM49.285 38.7954H50.8285V47.573H49.285V38.7954ZM47.6792 34.5391H49.1915V38.0158H47.6792V34.5391ZM50.8753 34.5391H52.4188V38.0158H50.8753V34.5391ZM46.0421 47.23C47.991 47.0897 51 46.7934 53.822 46.5128L53.8375 47.838C51.1247 48.1343 48.2404 48.4305 46.2292 48.6332L46.0421 47.23ZM48.0534 39.4502V40.7286H52.0914V39.4502H48.0534ZM46.619 38.3121H53.6193V41.8824H46.619V38.3121Z" fill="white"/>
<path d="M65.7489 44.7978H67.4015V46.9182C67.4015 47.3391 67.5107 47.4015 68.2278 47.4015C68.5552 47.4015 69.9896 47.4015 70.4106 47.4015C70.9874 47.4015 71.081 47.23 71.1589 46.0451C71.4863 46.2945 72.1879 46.544 72.64 46.622C72.4374 48.4461 71.9696 48.8826 70.5665 48.8826C70.1767 48.8826 68.4149 48.8826 68.0563 48.8826C66.1699 48.8826 65.7489 48.4305 65.7489 46.9494V44.7978ZM66.8403 44.2989L67.8848 43.3011C68.8982 43.7688 70.1143 44.5172 70.7224 45.1408L69.6154 46.2322C69.0542 45.6086 67.8537 44.7978 66.8403 44.2989ZM72.0164 45.3123L73.3728 44.5484C74.4798 45.4371 75.6646 46.7155 76.148 47.7133L74.6668 48.5552C74.2459 47.6042 73.1078 46.2478 72.0164 45.3123ZM63.6909 44.7355L65.1876 45.25C64.7979 46.622 64.1742 47.9004 62.9582 48.6799L61.5862 47.7133C62.6775 47.0585 63.3635 45.9515 63.6909 44.7355ZM65.6398 40.8066V42.4436H72.0164V40.8066H65.6398ZM64.0807 39.4502H73.6846V43.8H64.0807V39.4502ZM70.2235 36.1605L71.4551 35.2251C73.0766 36.1138 74.9163 37.5481 75.8517 38.5771L74.6045 39.6529C73.6846 38.5615 71.8293 37.096 70.2235 36.1605ZM62.3501 37.0648C65.1876 37.0492 69.6622 37.0024 73.7782 36.9401L73.7002 38.3277C69.631 38.4368 65.2968 38.5147 62.4593 38.5615L62.3501 37.0648ZM66.5129 34.5391L68.3838 35.1159C67.4951 36.2385 66.3725 37.439 65.515 38.2185L64.1431 37.6572C64.985 36.8153 65.9516 35.5213 66.5129 34.5391Z" fill="white"/>
<path d="M81.1682 47.4012H88.948V48.6485H81.1682V47.4012ZM83.616 37.7661H85.2218V39.6058H83.616V37.7661ZM77.8162 38.8886H91.2554V41.9444H89.6184V40.1515H79.3908V41.9444H77.8162V38.8886ZM81.1058 40.8998H88.8389V44.2986H81.1058V43.0825H87.1707V42.1159H81.1058V40.8998ZM81.1838 45.1093H89.977V49.1006H88.3088V46.341H81.1838V45.1093ZM80.186 40.8998H81.7918V49.1162H80.186V40.8998ZM79.2973 35.6457H84.2396V36.9865H79.2973V35.6457ZM85.5492 35.6457H91.6608V36.9865H85.5492V35.6457ZM79.422 34.4141L80.9811 34.835C80.3887 36.2382 79.4064 37.6414 78.5022 38.53C78.1748 38.265 77.52 37.8129 77.1302 37.6258C78.0656 36.8462 78.9387 35.6146 79.422 34.4141ZM85.7207 34.4141L87.311 34.8038C86.7497 36.1602 85.7675 37.4387 84.8164 38.2494C84.489 37.9999 83.7719 37.6258 83.3665 37.4387C84.3643 36.7215 85.253 35.5834 85.7207 34.4141ZM79.9521 36.6747L81.3865 36.3005C81.7607 36.8306 82.1972 37.5946 82.3687 38.0779L80.872 38.5144C80.7161 38.0311 80.3263 37.2516 79.9521 36.6747ZM86.8277 36.7215L88.2932 36.3161C88.7609 36.8462 89.3066 37.5946 89.5405 38.0935L88.0126 38.5456C87.7943 38.0623 87.2798 37.2672 86.8277 36.7215Z" fill="white"/>
<path d="M100.095 39.4653V40.9932H105.131V39.4653H100.095ZM100.095 36.6278V38.1401H105.131V36.6278H100.095ZM98.5831 35.209H106.722V42.4119H98.5831V35.209ZM98.4584 43.8931H106.909V45.3898H98.4584V43.8931ZM97.3359 47.0736H107.423V48.5859H97.3359V47.0736ZM92.8613 35.474H97.9439V37.0331H92.8613V35.474ZM93.0172 39.9642H97.6944V41.5077H93.0172V39.9642ZM92.6898 45.9043C93.9994 45.5613 95.9794 44.9376 97.8192 44.3296L98.1154 45.9355C96.3848 46.5123 94.5295 47.1359 93.064 47.6037L92.6898 45.9043ZM94.6542 36.0821H96.2445V45.686L94.6542 45.951V36.0821ZM101.935 35.8326H103.354V41.7415H103.494V47.7752H101.779V41.7415H101.935V35.8326Z" fill="white"/>
</g>
<defs>
<clipPath id="clip0_1_3683">
<rect width="111" height="53" fill="white"/>
</clipPath>
</defs>
</svg>
