<svg width="32" height="32" viewBox="0 0 32 32" fill="none" xmlns="http://www.w3.org/2000/svg">
<g clip-path="url(#clip0_1_3615)">
<path d="M32 16C32 7.16344 24.8366 0 16 0C7.16344 0 0 7.16344 0 16C0 24.8366 7.16344 32 16 32C24.8366 32 32 24.8366 32 16Z" fill="#F6F8FC"/>
<path d="M9.64701 15.3672C9.29615 15.3672 9.01172 15.6516 9.01172 16.0025C9.01172 16.3534 9.29615 16.6378 9.64701 16.6378V15.3672ZM22.8021 16.4517C23.0502 16.2036 23.0502 15.8014 22.8021 15.5533L18.7592 11.5103C18.5111 11.2622 18.1088 11.2622 17.8607 11.5103C17.6126 11.7584 17.6126 12.1606 17.8607 12.4087L21.4544 16.0025L17.8607 19.5962C17.6126 19.8443 17.6126 20.2466 17.8607 20.4947C18.1088 20.7428 18.5111 20.7428 18.7592 20.4947L22.8021 16.4517ZM9.64701 16.6378H22.3529V15.3672H9.64701V16.6378Z" fill="#93979F"/>
</g>
<defs>
<clipPath id="clip0_1_3615">
<rect width="32" height="32" fill="white"/>
</clipPath>
</defs>
</svg>
