<svg width="111" height="52" viewBox="0 0 111 52" fill="none" xmlns="http://www.w3.org/2000/svg">
<g clip-path="url(#clip0_1_3733)">
<path fill-rule="evenodd" clip-rule="evenodd" d="M3.53474 22.1849C5.70532 24.3556 8.6482 25.5768 11.7179 25.5805H12.1353C15.2055 25.5768 18.149 24.3552 20.3196 22.1836C22.4904 20.0122 23.7109 17.0681 23.7136 13.9975V11.893C23.7101 8.82304 22.4889 5.87985 20.3185 3.70905C18.1479 1.53824 15.2049 0.317099 12.1353 0.313477H11.7179C8.6482 0.317099 5.70532 1.53824 3.53474 3.70905C1.36415 5.87985 0.143125 8.82304 0.139503 11.893V14.0009C0.143125 17.0708 1.36415 20.0141 3.53474 22.1849ZM6.98396 7.15962C8.23983 5.90427 9.94224 5.19826 11.7179 5.19646L12.1216 5.19304C13.8978 5.19485 15.6007 5.90133 16.8567 7.15741C18.1126 8.41352 18.8192 10.1166 18.8209 11.893V13.9872C18.8217 15.763 18.1184 17.4667 16.8652 18.7246C15.6119 19.9826 13.9109 20.692 12.1353 20.6975H11.7179C9.94166 20.6957 8.23871 19.9892 6.98275 18.7331C5.72678 17.477 5.02038 15.7738 5.01857 13.9975V11.893C5.02129 10.1172 5.72808 8.41498 6.98396 7.15962ZM95.2699 25.5731C94.6105 25.5731 93.0354 25.5528 92.0274 25.5022V22.5636C93.213 22.6718 94.156 22.7428 95.0683 22.7428C95.8541 22.7428 96.329 22.6887 96.329 21.9346V21.0149L87.1757 21.1029V18.8101L96.329 18.8676V17.5758L85.604 17.6773V15.1513L96.329 15.2528V13.961L87.2304 14.0253V11.7698L96.329 11.8476V10.6201L87.3295 10.681V5.5715L96.3326 5.63573V4.36766L85.7406 4.47926V1.66922H96.3326C96.3326 1.66922 96.2779 0.65477 96.2129 0.316619H99.9714C99.9064 0.65477 99.8484 1.66922 99.8484 1.66922H110.587V4.47926L99.8587 4.36766V5.63573L109.019 5.57488V10.6776L99.8587 10.6201V11.8543L108.985 11.8036L108.93 15.0431L110.861 15.0194V17.7856L108.937 17.8295L109.039 21.0081H99.8587V22.283C99.8587 25.137 99.2573 25.5663 95.246 25.5663L95.2699 25.5731ZM99.8825 18.871H105.407V17.5792H99.8825V18.871ZM99.8825 15.2426H105.407V13.9509H99.8825V15.2426ZM99.8825 8.77378H104.803V7.48543H99.8825V8.77378ZM91.5559 8.77378H96.3393V7.48543H91.5559V8.77378ZM82.4494 25.5731C79.6119 23.8555 77.7467 22.2856 76.0496 20.238C74.4421 18.3486 73.384 16.4351 72.3947 13.6319L72.1611 12.9757L71.9412 13.6353C70.7699 17.1324 69.6087 19.1319 67.503 21.2687C65.855 22.9683 63.9632 24.4132 61.8899 25.5559L59.3823 22.0073C63.2502 20.0731 65.5278 18.0806 67.1973 15.1881C68.9458 12.1753 69.832 8.1216 69.832 3.1438C69.8417 2.52159 69.8085 1.89946 69.7325 1.28184H74.1535C74.0676 1.92512 74.0298 2.5739 74.0401 3.22282C74.0401 6.14628 74.473 9.20374 75.1771 11.2065C76.2287 14.1431 78.0258 16.7558 80.3917 18.7883C81.7583 19.998 83.2983 20.996 84.9605 21.7496L82.4494 25.5731ZM45.4539 21.676C46.665 22.908 48.475 23.5307 50.829 23.5307L50.8221 23.5137C52.7826 23.5137 54.3462 23.0927 55.472 22.2611C56.517 21.4582 57.2326 20.3008 57.4838 19.007H53.4225C53.1214 19.7803 52.4166 20.5776 50.7708 20.5776C49.8197 20.5776 49.084 20.2697 48.6222 19.7257C48.1602 19.1816 47.9002 18.3534 47.818 17.1934L47.7873 16.7759H57.6925V15.5373C57.6925 13.2754 57.0834 11.4926 55.8996 10.2539C54.7158 9.0152 53.029 8.389 50.8872 8.389C48.6256 8.389 46.819 9.0768 45.5462 10.4421C44.2734 11.8074 43.6233 13.7442 43.6233 16.2011C43.6233 18.5963 44.2427 20.4443 45.4539 21.676ZM47.8009 14.1822C48.0199 12.2762 49.084 11.2668 50.8803 11.2668H50.9009C51.2752 11.2422 51.6506 11.2948 52.0037 11.4213C52.3569 11.5479 52.6803 11.7457 52.9538 12.0025C53.4089 12.4781 53.6621 13.2207 53.7031 14.2062L53.7201 14.3499H47.753L47.8009 14.1822ZM36.6126 23.3015V14.4662C36.6126 13.7601 36.3321 13.083 35.8329 12.5837C35.3337 12.0844 34.6566 11.804 33.9507 11.804C33.2447 11.804 32.5676 12.0844 32.0684 12.5837C31.5692 13.083 31.2886 13.7601 31.2886 14.4662V23.3015H27.094V8.38211H31.2956V10.1478L31.5727 9.84665C32.2675 9.07755 33.1721 8.52847 34.1751 8.26703C35.178 8.00558 36.2355 8.04321 37.2173 8.37526C38.1993 8.7073 39.0625 9.31926 39.701 10.1358C40.3395 10.9523 40.7253 11.9378 40.8107 12.9708L40.8346 13.443V23.3015H36.6126Z" fill="#FD6C26"/>
<path d="M108.074 30.7275H2.92619C1.3101 30.7275 0 32.0376 0 33.6537V48.7144C0 50.3305 1.3101 51.6406 2.92619 51.6406H108.074C109.69 51.6406 111 50.3305 111 48.7144V33.6537C111 32.0376 109.69 30.7275 108.074 30.7275Z" fill="#FD6C26"/>
<path d="M81.0742 46.769V35.7744H83.0629V46.769H81.0742Z" fill="white"/>
<path d="M69.7976 46.769L73.7217 35.7744H75.4131V37.7478H74.8264L71.8854 46.769H69.7976ZM71.794 43.9422L72.3273 42.4032H77.3713L77.8971 43.9422H71.794ZM77.798 46.769L74.8645 37.7478V35.7744H75.9769L79.8933 46.769H77.798Z" fill="white"/>
<path d="M65.7442 46.9294C64.9416 46.9294 64.2482 46.7592 63.6641 46.4188C63.08 46.0786 62.628 45.5934 62.3078 44.9636C61.993 44.3287 61.8355 43.5795 61.8355 42.716V42.7082C61.8355 41.8498 61.9954 41.1082 62.3156 40.4834C62.6355 39.8536 63.0876 39.3684 63.6717 39.0282C64.256 38.6878 64.9416 38.5176 65.7289 38.5176C66.4401 38.5176 67.0548 38.6548 67.5728 38.9291C68.0961 39.1984 68.5049 39.5589 68.7996 40.0111C69.0941 40.458 69.2617 40.9533 69.3024 41.4969V41.5501H67.4967L67.4814 41.4892C67.4052 41.0981 67.2224 40.7654 66.9328 40.4911C66.6433 40.2117 66.2471 40.0721 65.7442 40.0721C65.3531 40.0721 65.0103 40.1811 64.7156 40.3996C64.421 40.6129 64.1924 40.9178 64.0298 41.314C63.8725 41.705 63.7936 42.1749 63.7936 42.7235V42.7311C63.7936 43.2899 63.8749 43.7674 64.0375 44.1636C64.2 44.5547 64.4286 44.8544 64.7231 45.0627C65.0178 45.2709 65.3632 45.375 65.7595 45.375C66.2369 45.375 66.623 45.2455 66.9176 44.9865C67.2123 44.7275 67.4027 44.3871 67.489 43.9654L67.4967 43.8969H69.3177L69.31 43.9503C69.2643 44.514 69.0866 45.022 68.7767 45.4741C68.4719 45.9211 68.0605 46.2766 67.5424 46.5408C67.0294 46.7998 66.43 46.9294 65.7442 46.9294Z" fill="white"/>
<path d="M58.6353 46.7693V38.6852H60.563V46.7693H58.6353ZM59.603 37.5348C59.3033 37.5348 59.0494 37.4331 58.8411 37.2299C58.6328 37.0218 58.5287 36.7753 58.5287 36.4909C58.5287 36.1962 58.6328 35.9473 58.8411 35.7441C59.0494 35.541 59.3033 35.4395 59.603 35.4395C59.9027 35.4395 60.1541 35.541 60.3573 35.7441C60.5656 35.9473 60.6697 36.1962 60.6697 36.4909C60.6697 36.7753 60.5656 37.0218 60.3573 37.2299C60.1541 37.4331 59.9027 37.5348 59.603 37.5348Z" fill="white"/>
<path d="M55.062 46.769V35.7744H56.9819V46.769H55.062Z" fill="white"/>
<path d="M50.4447 46.9291C49.8606 46.9291 49.3525 46.7945 48.9208 46.5252C48.489 46.2509 48.1589 45.8751 47.9303 45.3976H47.8846V46.769H45.9645V35.7744H47.8846V40.0717H47.9303C48.1589 39.5891 48.4916 39.2108 48.9283 38.9363C49.3702 38.657 49.8783 38.5172 50.4522 38.5172C51.1329 38.5172 51.7196 38.6874 52.2123 39.0278C52.71 39.3631 53.0961 39.8455 53.3704 40.4755C53.6447 41.1003 53.7819 41.8469 53.7819 42.7156V42.7232C53.7819 43.5917 53.6447 44.341 53.3704 44.9708C53.1013 45.6008 52.7152 46.0858 52.2123 46.4262C51.7146 46.7615 51.1253 46.9291 50.4447 46.9291ZM49.858 45.3138C50.2643 45.3138 50.6123 45.2096 50.9019 45.0014C51.1964 44.7931 51.4224 44.496 51.5799 44.1099C51.7424 43.7188 51.8237 43.2565 51.8237 42.7232V42.7156C51.8237 42.1822 51.7424 41.725 51.5799 41.344C51.4224 40.9581 51.1964 40.6608 50.9019 40.4527C50.6072 40.2443 50.2592 40.1403 49.858 40.1403C49.4719 40.1403 49.1291 40.2469 48.8294 40.4602C48.5347 40.6686 48.3037 40.9657 48.136 41.3518C47.9684 41.7377 47.8846 42.1949 47.8846 42.7232V42.7307C47.8846 43.254 47.9684 43.7087 48.136 44.0946C48.3037 44.4807 48.5347 44.7804 48.8294 44.9937C49.1291 45.207 49.4719 45.3138 49.858 45.3138Z" fill="white"/>
<path d="M39.9224 46.9298C39.3331 46.9298 38.8302 46.8104 38.4137 46.5715C37.9972 46.3278 37.6797 45.9799 37.4614 45.5278C37.2429 45.0756 37.1337 44.5372 37.1337 43.9125V38.6855H39.0614V43.5239C39.0614 44.0978 39.1935 44.5397 39.4576 44.8496C39.7267 45.1594 40.1307 45.3145 40.6691 45.3145C41.0296 45.3145 41.342 45.2331 41.6062 45.0706C41.8703 44.9081 42.0735 44.6795 42.2157 44.3848C42.3631 44.0903 42.4367 43.7499 42.4367 43.364V38.6855H44.3644V46.7697H42.4367V45.4972H42.3986C42.1903 45.9342 41.878 46.2821 41.4614 46.5411C41.0501 46.8001 40.537 46.9298 39.9224 46.9298Z" fill="white"/>
<path d="M28.9353 43.1498V41.5422H31.6936C32.3945 41.5422 32.938 41.3619 33.324 41.0012C33.7152 40.6406 33.9107 40.1327 33.9107 39.4773V39.4622C33.9107 38.8018 33.7152 38.2938 33.324 37.9383C32.938 37.5776 32.3945 37.3973 31.6936 37.3973H28.9353V35.7744H32.1812C32.9279 35.7744 33.5806 35.9293 34.1393 36.2392C34.7031 36.5439 35.1424 36.9732 35.4574 37.5268C35.7774 38.0753 35.9375 38.718 35.9375 39.4545V39.4698C35.9375 40.2012 35.7774 40.8437 35.4574 41.3975C35.1424 41.9512 34.7031 42.3828 34.1393 42.6928C33.5806 42.9975 32.9279 43.1498 32.1812 43.1498H28.9353ZM27.9373 46.769V35.7744H29.9258V46.769H27.9373Z" fill="white"/>
</g>
<defs>
<clipPath id="clip0_1_3733">
<rect width="111" height="52" fill="white"/>
</clipPath>
</defs>
</svg>
