<svg width="119" height="97" viewBox="0 0 119 97" fill="none" xmlns="http://www.w3.org/2000/svg">
<g opacity="0.8">
<path d="M72 3H2C0.89543 3 0 3.89543 0 5V52.9762C0 54.0808 0.89543 54.9762 2 54.9762H72C73.1046 54.9762 74 54.0808 74 52.9762V5C74 3.89543 73.1046 3 72 3Z" fill="#CDE1FF"/>
<path fill-rule="evenodd" clip-rule="evenodd" d="M2 3C0.8955 3 0 3.8954 0 5V10.9286H74V5C74 3.8954 73.1046 3 72 3H2ZM4.4048 8.8637C5.3779 8.8637 6.1667 8.0749 6.1667 7.1018C6.1667 6.1287 5.3779 5.3399 4.4048 5.3399C3.4317 5.3399 2.6429 6.1287 2.6429 7.1018C2.6429 8.0749 3.4317 8.8637 4.4048 8.8637ZM11.4524 7.1018C11.4524 8.0749 10.6636 8.8637 9.6905 8.8637C8.7174 8.8637 7.9286 8.0749 7.9286 7.1018C7.9286 6.1287 8.7174 5.3399 9.6905 5.3399C10.6636 5.3399 11.4524 6.1287 11.4524 7.1018ZM14.9762 8.8637C15.9493 8.8637 16.7381 8.0749 16.7381 7.1018C16.7381 6.1287 15.9493 5.3399 14.9762 5.3399C14.0032 5.3399 13.2143 6.1287 13.2143 7.1018C13.2143 8.0749 14.0032 8.8637 14.9762 8.8637Z" fill="#314572"/>
<path d="M26 16H6C5.44772 16 5 16.4477 5 17V31C5 31.5523 5.44772 32 6 32H26C26.5523 32 27 31.5523 27 31V17C27 16.4477 26.5523 16 26 16Z" fill="white"/>
<path d="M11.475 22.1152H9V29.1084H11.475V22.1152Z" fill="#729EDB"/>
<path d="M14.9181 20.8223H12.4432V29.1085H14.9181V20.8223Z" fill="#729EDB"/>
<path d="M18.3615 25.6133H15.8865V29.111H18.3615V25.6133Z" fill="#729EDB"/>
<path d="M21.8046 19H19.3296V29.1093H21.8046V19Z" fill="#ED971B"/>
<path d="M11.475 30.0117H9V30.293H11.475V30.0117Z" fill="#153F5E"/>
<path d="M14.8788 30.0117H12.4039V30.293H14.8788V30.0117Z" fill="#153F5E"/>
<path d="M18.4116 30.0117H15.9366V30.293H18.4116V30.0117Z" fill="#153F5E"/>
<path d="M21.7587 30.0117H19.2837V30.293H21.7587V30.0117Z" fill="#153F5E"/>
<path d="M69 34H6C5.44772 34 5 34.4477 5 35V49C5 49.5523 5.44772 50 6 50H69C69.5523 50 70 49.5523 70 49V35C70 34.4477 69.5523 34 69 34Z" fill="white"/>
<path d="M19.511 38H10V38.673H19.511V38Z" fill="#729EDB"/>
<path d="M25.3179 39.8281H10V40.5012H25.3179V39.8281Z" fill="#729EDB"/>
<path d="M25.3179 41.8906H10V42.2248H25.3179V41.8906Z" fill="#729EDB"/>
<path d="M25.3179 43.6113H10V43.9455H25.3179V43.6113Z" fill="#729EDB"/>
<path d="M25.3179 45.334H10V45.6682H25.3179V45.334Z" fill="#729EDB"/>
<path d="M43.9175 38.1445H28.5997V38.4787H43.9175V38.1445Z" fill="#729EDB"/>
<path d="M43.9175 39.8711H28.5997V40.2053H43.9175V39.8711Z" fill="#729EDB"/>
<path d="M43.9175 41.5938H28.5997V41.9279H43.9175V41.5938Z" fill="#729EDB"/>
<path d="M39.415 43.3145H28.5997V43.6487H39.415V43.3145Z" fill="#729EDB"/>
<g style="mix-blend-mode:multiply" filter="url(#filter0_d_1_3763)">
<path d="M71.5 73C90.0015 73 105 60.2401 105 44.5C105 28.7599 90.0015 16 71.5 16C52.9985 16 38 28.7599 38 44.5C38 60.2401 52.9985 73 71.5 73Z" fill="#CDDAE7"/>
</g>
<path d="M69 16H30C29.4477 16 29 16.4477 29 17V31C29 31.5523 29.4477 32 30 32H69C69.5523 32 70 31.5523 70 31V17C70 16.4477 69.5523 16 69 16Z" fill="white"/>
<path d="M41.511 27.7109H32V28.384H41.511V27.7109Z" fill="#729EDB"/>
<path d="M60 19H54V20H60V19Z" fill="#729EDB"/>
<path d="M60 24H54V25H60V24Z" fill="#729EDB"/>
<path d="M47.3179 29.541H32V30.2141H47.3179V29.541Z" fill="#729EDB"/>
<path d="M64 21H54V22H64V21Z" fill="#729EDB"/>
<path d="M64 26H54V27H64V26Z" fill="#729EDB"/>
<path d="M35.712 19.209C37.7615 19.209 39.4239 20.8899 39.4239 22.9615C39.4239 25.0331 37.7615 26.7139 35.712 26.7139C33.6625 26.7139 32 25.0331 32 22.9615C32 20.8899 33.6625 19.209 35.712 19.209Z" fill="#153F5E"/>
<path d="M50.1801 23.1796C49.9147 25.1996 48.0237 26.6224 45.9594 26.3533C43.8915 26.0842 42.4318 24.2301 42.6972 22.2064C42.9626 20.1864 44.8536 18.7636 46.9178 19.0327C48.9858 19.3017 50.4455 21.1596 50.1801 23.1796Z" fill="#D7E7F5"/>
<path d="M38.1007 20.1859C37.4593 19.5335 36.5857 19.1169 35.6126 19.0801V22.6998L38.1007 20.1859Z" fill="#D7E7F5"/>
<path d="M35.6936 19.0879C33.7474 19.1469 32.1771 20.7245 32.0997 22.6892H35.6936V19.0879Z" fill="#D7E7F5"/>
<path d="M44.1937 19.6562C43.4306 20.2867 42.874 21.2082 42.6934 22.2919L46.409 22.7747L44.1937 19.6562Z" fill="#D7E7F5"/>
<path d="M47.0027 19.0215L46.0406 26.3311C48.0495 26.5154 49.8557 25.1147 50.1138 23.1426C50.3755 21.1705 48.9895 19.3569 47.0027 19.0215Z" fill="#ED971B"/>
<path d="M42.6825 22.3066C42.4908 24.2345 43.9505 26.0001 46.0147 26.3429L46.4792 22.8006L42.6825 22.3066Z" fill="#729EDB"/>
<path d="M35.6936 21.1445C36.6631 21.1445 37.4519 21.9407 37.4519 22.9249C37.4519 23.9091 36.6631 24.7053 35.6936 24.7053C34.7242 24.7053 33.9353 23.9091 33.9353 22.9249C33.9353 21.9444 34.7242 21.1445 35.6936 21.1445Z" fill="white"/>
<path d="M48.1712 22.8919C48.0458 23.8503 47.1501 24.5211 46.1696 24.3958C45.1891 24.2668 44.4998 23.3895 44.6251 22.4311C44.7504 21.4727 45.6462 20.8018 46.6267 20.9272C47.6035 21.0525 48.2965 21.9335 48.1712 22.8919Z" fill="white"/>
</g>
<defs>
<filter id="filter0_d_1_3763" x="12" y="0" width="107" height="97" filterUnits="userSpaceOnUse" color-interpolation-filters="sRGB">
<feFlood flood-opacity="0" result="BackgroundImageFix"/>
<feColorMatrix in="SourceAlpha" type="matrix" values="0 0 0 0 0 0 0 0 0 0 0 0 0 0 0 0 0 0 127 0" result="hardAlpha"/>
<feOffset dx="-6" dy="4"/>
<feGaussianBlur stdDeviation="10"/>
<feComposite in2="hardAlpha" operator="out"/>
<feColorMatrix type="matrix" values="0 0 0 0 0.192157 0 0 0 0 0.270588 0 0 0 0 0.447059 0 0 0 0.25 0"/>
<feBlend mode="normal" in2="BackgroundImageFix" result="effect1_dropShadow_1_3763"/>
<feBlend mode="normal" in="SourceGraphic" in2="effect1_dropShadow_1_3763" result="shape"/>
</filter>
</defs>
</svg>
