<svg width="111" height="52" viewBox="0 0 111 52" fill="none" xmlns="http://www.w3.org/2000/svg">
<g clip-path="url(#clip0_1_3707)">
<path fill-rule="evenodd" clip-rule="evenodd" d="M3.53168 22.2899C5.70038 24.4588 8.64071 25.6789 11.7077 25.6825H12.1248C15.1923 25.6789 18.1332 24.4583 20.302 22.2887C22.4708 20.119 23.6903 17.1775 23.6931 14.1096V12.007C23.6894 8.93968 22.4695 5.99903 20.3008 3.83012C18.1321 1.6612 15.1918 0.441119 12.1248 0.4375H11.7077C8.64071 0.441119 5.70038 1.6612 3.53168 3.83012C1.36299 5.99903 0.143023 8.93968 0.139404 12.007V14.113C0.143023 17.1803 1.36299 20.121 3.53168 22.2899ZM6.97791 7.2777C8.23269 6.02343 9.93363 5.31805 11.7077 5.31624L12.1111 5.31283C13.8858 5.31464 15.5872 6.02049 16.8421 7.2755C18.097 8.53051 18.8028 10.2321 18.8046 12.007V14.0993C18.8055 15.8736 18.1028 17.5758 16.8506 18.8326C15.5983 20.0895 13.8988 20.7983 12.1248 20.8038H11.7077C9.93304 20.802 8.23158 20.0961 6.9767 18.8411C5.72182 17.5861 5.01604 15.8844 5.01423 14.1096V12.007C5.01694 10.2327 5.72313 8.53197 6.97791 7.2777ZM95.1872 25.6752C94.5283 25.6752 92.9546 25.6549 91.9475 25.6043V22.6683C93.1321 22.7764 94.0743 22.8473 94.9857 22.8473C95.7709 22.8473 96.2454 22.7933 96.2454 22.0399V21.1209L87.1 21.2087V18.9181L96.2454 18.9755V17.6849L85.5296 17.7862V15.2624L96.2454 15.3638V14.0732L87.1546 14.1374V11.8839L96.2454 11.9616V10.7352L87.2536 10.796V5.69094L96.2488 5.75512V4.48816L85.6662 4.59966V1.79206H96.2488C96.2488 1.79206 96.1942 0.778489 96.1294 0.440632H99.8845C99.8197 0.778489 99.7616 1.79206 99.7616 1.79206H110.491V4.59966L99.7719 4.48816V5.75512L108.924 5.69431V10.7926L99.7719 10.7352V11.9683L108.89 11.9177L108.835 15.1543L110.764 15.1307V17.8944L108.842 17.9383L108.945 21.1141H99.7719V22.3879C99.7719 25.2394 99.171 25.6684 95.1633 25.6684L95.1872 25.6752ZM99.7958 18.9789H105.316V17.6883H99.7958V18.9789ZM99.7958 15.3537H105.316V14.063H99.7958V15.3537ZM99.7958 8.89045H104.712V7.60321H99.7958V8.89045ZM91.4764 8.89045H96.2557V7.60321H91.4764V8.89045ZM82.3778 25.6752C79.5428 23.9591 77.6791 22.3905 75.9836 20.3448C74.3774 18.457 73.3203 16.5452 72.3318 13.7444L72.0984 13.0888L71.8787 13.7478C70.7084 17.2419 69.5483 19.2396 67.4444 21.3745C65.7978 23.0727 63.9077 24.5164 61.8362 25.6581L59.3307 22.1125C63.1953 20.18 65.4708 18.1893 67.1389 15.2992C68.8859 12.2891 69.7714 8.23887 69.7714 3.26539C69.7811 2.64373 69.7479 2.02213 69.6718 1.40505H74.0891C74.0033 2.04777 73.9654 2.696 73.9758 3.34434C73.9758 6.26527 74.4083 9.32007 75.1119 11.3211C76.1625 14.2552 77.9579 16.8656 80.3219 18.8963C81.6873 20.1049 83.226 21.1022 84.8867 21.855L82.3778 25.6752ZM45.4143 21.7815C46.6245 23.0123 48.4329 23.6346 50.7848 23.6346L50.778 23.6175C52.7368 23.6175 54.2991 23.1969 55.4238 22.3661C56.4679 21.5638 57.1828 20.4075 57.4339 19.1148H53.3761C53.0753 19.8875 52.371 20.6841 50.7267 20.6841C49.7764 20.6841 49.0414 20.3764 48.5799 19.8327C48.1184 19.2891 47.8586 18.4618 47.7765 17.3028L47.7458 16.8857H57.6424V15.648C57.6424 13.3882 57.0339 11.6069 55.8511 10.3693C54.6683 9.13166 52.983 8.50601 50.843 8.50601C48.5833 8.50601 46.7783 9.1932 45.5066 10.5573C44.2349 11.9215 43.5854 13.8566 43.5854 16.3113C43.5854 18.7045 44.2042 20.5507 45.4143 21.7815ZM47.7594 14.2942C47.9782 12.3899 49.0414 11.3813 50.8361 11.3813H50.8566C51.2306 11.3567 51.6057 11.4093 51.9585 11.5357C52.3114 11.6622 52.6345 11.8598 52.9077 12.1163C53.3624 12.5916 53.6154 13.3335 53.6564 14.3181L53.6735 14.4617H47.7116L47.7594 14.2942ZM36.5808 23.4054V14.5778C36.5808 13.8724 36.3006 13.1959 35.8018 12.697C35.303 12.1982 34.6265 11.918 33.9212 11.918C33.2158 11.918 32.5393 12.1982 32.0405 12.697C31.5418 13.1959 31.2615 13.8724 31.2615 14.5778V23.4054H27.0704V8.49908H31.2684V10.2632L31.5453 9.96236C32.2395 9.19392 33.1434 8.64531 34.1454 8.3841C35.1475 8.12289 36.2041 8.16048 37.1851 8.49223C38.1661 8.82399 39.0286 9.43542 39.6665 10.2512C40.3044 11.0671 40.6898 12.0517 40.7753 13.0838L40.7992 13.5556V23.4054H36.5808Z" fill="#FD6C26"/>
<path d="M107.956 30.8281H2.94842C1.32005 30.8281 0 32.1482 0 33.7765V48.7746C0 50.403 1.32005 51.723 2.94842 51.723H107.956C109.584 51.723 110.904 50.403 110.904 48.7746V33.7765C110.904 32.1482 109.584 30.8281 107.956 30.8281Z" fill="#FD6C26"/>
<path d="M11.3702 43.2406V41.6331H14.128C14.8288 41.6331 15.3723 41.4528 15.7583 41.0922C16.1493 40.7316 16.3449 40.2238 16.3449 39.5686V39.5534C16.3449 38.8931 16.1493 38.3852 15.7583 38.0297C15.3723 37.6691 14.8288 37.4888 14.128 37.4888H11.3702V35.8662H14.6155C15.3621 35.8662 16.0147 36.0211 16.5734 36.3309C17.1371 36.6356 17.5765 37.0647 17.8913 37.6183C18.2113 38.1668 18.3713 38.8093 18.3713 39.5457V39.561C18.3713 40.2923 18.2113 40.9348 17.8913 41.4884C17.5765 42.042 17.1371 42.4737 16.5734 42.7835C16.0147 43.0882 15.3621 43.2406 14.6155 43.2406H11.3702ZM10.3722 46.8592V35.8662H12.3605V46.8592H10.3722Z" fill="white"/>
<path d="M22.3556 47.0193C21.7665 47.0193 21.2637 46.8999 20.8472 46.6612C20.4307 46.4174 20.1133 46.0695 19.8949 45.6175C19.6765 45.1655 19.5673 44.6272 19.5673 44.0025V38.7764H21.4948V43.614C21.4948 44.1879 21.6268 44.6297 21.8909 44.9395C22.1601 45.2493 22.5638 45.4042 23.1022 45.4042C23.4628 45.4042 23.7751 45.323 24.0392 45.1604C24.3033 44.9979 24.5065 44.7694 24.6487 44.4748C24.796 44.1802 24.8696 43.84 24.8696 43.454V38.7764H26.797V46.8593H24.8696V45.5871H24.8315C24.6233 46.0238 24.3109 46.3717 23.8945 46.6308C23.4831 46.8898 22.9701 47.0193 22.3556 47.0193Z" fill="white"/>
<path d="M32.8763 47.0192C32.2923 47.0192 31.7844 46.8846 31.3527 46.6154C30.921 46.3412 30.5909 45.9653 30.3623 45.4879H30.3166V46.8592H28.3968V35.8662H30.3166V40.1628H30.3623C30.5909 39.6803 30.9235 39.302 31.3603 39.0277C31.8022 38.7484 32.31 38.6087 32.8839 38.6087C33.5645 38.6087 34.1511 38.7788 34.6437 39.1191C35.1415 39.4543 35.5275 39.9368 35.8017 40.5666C36.076 41.1913 36.2131 41.9378 36.2131 42.8063V42.8139C36.2131 43.6824 36.076 44.4315 35.8017 45.0613C35.5325 45.6911 35.1465 46.1761 34.6437 46.5164C34.146 46.8516 33.5569 47.0192 32.8763 47.0192ZM32.2897 45.4041C32.696 45.4041 33.0439 45.3 33.3334 45.0918C33.628 44.8835 33.854 44.5864 34.0114 44.2005C34.174 43.8094 34.2552 43.3472 34.2552 42.8139V42.8063C34.2552 42.273 34.174 41.816 34.0114 41.435C33.854 41.0491 33.628 40.7519 33.3334 40.5437C33.0388 40.3355 32.6909 40.2314 32.2897 40.2314C31.9037 40.2314 31.5609 40.338 31.2613 40.5513C30.9667 40.7596 30.7356 41.0567 30.568 41.4427C30.4004 41.8287 30.3166 42.2857 30.3166 42.8139V42.8216C30.3166 43.3447 30.4004 43.7992 30.568 44.1852C30.7356 44.5712 30.9667 44.8709 31.2613 45.0842C31.5609 45.2975 31.9037 45.4041 32.2897 45.4041Z" fill="white"/>
<path d="M37.4929 46.8592V35.8662H39.4127V46.8592H37.4929Z" fill="white"/>
<path d="M41.0659 46.8596V38.7766H42.9933V46.8596H41.0659ZM42.0334 37.6264C41.7337 37.6264 41.4798 37.5247 41.2716 37.3215C41.0633 37.1133 40.9592 36.867 40.9592 36.5826C40.9592 36.288 41.0633 36.0391 41.2716 35.836C41.4798 35.6328 41.7337 35.5312 42.0334 35.5312C42.333 35.5312 42.5844 35.6328 42.7876 35.836C42.9958 36.0391 43.0999 36.288 43.0999 36.5826C43.0999 36.867 42.9958 37.1133 42.7876 37.3215C42.5844 37.5247 42.333 37.6264 42.0334 37.6264Z" fill="white"/>
<path d="M48.1737 47.0199C47.3712 47.0199 46.6779 46.8497 46.0939 46.5095C45.5098 46.1692 45.0578 45.6842 44.7378 45.0544C44.423 44.4195 44.2655 43.6704 44.2655 42.807V42.7994C44.2655 41.9411 44.4255 41.1996 44.7455 40.5749C45.0654 39.9451 45.5174 39.4601 46.1015 39.1198C46.6856 38.7795 47.3712 38.6094 48.1584 38.6094C48.8694 38.6094 49.484 38.7465 50.002 39.0208C50.5251 39.29 50.934 39.6506 51.2285 40.1026C51.5231 40.5495 51.6907 41.0447 51.7313 41.5881V41.6414H49.9258L49.9106 41.5805C49.8344 41.1894 49.6516 40.8568 49.3621 40.5825C49.0726 40.3032 48.6765 40.1635 48.1737 40.1635C47.7826 40.1635 47.4398 40.2727 47.1452 40.4911C46.8506 40.7044 46.6221 41.0091 46.4596 41.4053C46.3021 41.7963 46.2234 42.2661 46.2234 42.8146V42.8223C46.2234 43.3809 46.3047 43.8583 46.4672 44.2545C46.6297 44.6455 46.8582 44.9452 47.1528 45.1534C47.4474 45.3617 47.7927 45.4658 48.1889 45.4658C48.6663 45.4658 49.0523 45.3363 49.3469 45.0772C49.6414 44.8182 49.8319 44.4779 49.9182 44.0564L49.9258 43.9878H51.7466L51.739 44.0412C51.6933 44.6049 51.5155 45.1128 51.2057 45.5648C50.901 46.0117 50.4896 46.3673 49.9715 46.6314C49.4586 46.8904 48.8593 47.0199 48.1737 47.0199Z" fill="white"/>
<path d="M57.6358 35.4922L59.6031 35.9165C59.4745 36.1351 59.436 36.1994 59.2688 36.5723C59.1531 36.8037 59.1145 36.8938 58.9859 37.1252L62.3805 37.0995C62.8306 37.0866 63.0492 37.0609 63.3449 36.9323L64.3479 37.9224C64.1679 38.1282 64.155 38.1539 63.9364 38.7968C63.0878 41.2785 62.0977 43.0143 60.7347 44.4288C59.6031 45.5989 58.2016 46.5504 56.3757 47.3862C55.9385 46.6147 55.7199 46.3447 55.1027 45.766C56.1699 45.3417 56.8 45.0331 57.5586 44.5702C58.4202 44.0173 58.9474 43.593 59.5903 42.8986C58.7159 42.1657 58.0344 41.7028 57.07 41.1756L58.2401 39.7997C59.3717 40.4298 59.976 40.8284 60.709 41.3942C61.2619 40.5455 61.6476 39.7226 61.9691 38.7196L58.2016 38.7582C57.4172 40.0441 56.5171 41.0984 55.2313 42.2043C54.7041 41.6128 54.4469 41.4199 53.6754 40.9827C55.1413 39.8383 56.0928 38.7582 56.89 37.2924C57.2629 36.6109 57.5072 36.0194 57.6358 35.4922Z" fill="white"/>
<path d="M67.4725 36.0449L69.6584 36.0706C69.5941 36.5592 69.5684 36.9578 69.5684 37.6651L69.4912 44.5829C70.8671 44.3 71.9215 43.8499 72.9244 43.1299C74.0174 42.3455 74.7889 41.4454 75.4189 40.2239C75.9847 41.0082 76.1904 41.2268 76.8848 41.7926C75.0589 44.6086 72.8473 45.9973 69.1055 46.6788C68.7069 46.7559 68.5654 46.7945 68.334 46.8974L67.3567 45.7401C67.4596 45.4444 67.4853 45.2515 67.4853 44.5571L67.5368 37.6779C67.5496 37.6136 67.5496 37.5622 67.5496 37.4979C67.5496 36.8807 67.5239 36.3921 67.4725 36.0449Z" fill="white"/>
<path d="M86.5672 38.6166L80.3437 38.6294C79.3279 38.6294 78.955 38.6423 78.3892 38.6937V36.765C78.9293 36.8421 79.3793 36.855 80.3823 36.855H87.3772C87.853 36.855 88.0587 36.8293 88.3545 36.7393L89.4089 37.9222C89.216 38.128 89.1388 38.2308 88.8431 38.7194C87.6087 40.7639 86.3614 42.2426 84.7284 43.6185C85.3199 44.3128 85.6414 44.7243 86.3486 45.663L84.7156 46.9488C83.9698 45.7401 83.3011 44.8658 82.2339 43.6571C81.2181 42.5127 80.588 41.8955 79.6622 41.1368L81.1538 40.0696C82.1439 40.8797 82.8639 41.5483 83.4683 42.2169C84.3041 41.484 84.9856 40.7896 85.6028 40.031C85.9757 39.5681 86.22 39.2081 86.4772 38.7709C86.5543 38.6423 86.5543 38.6423 86.5672 38.6166Z" fill="white"/>
<path d="M96.751 42.7824V45.5855C96.751 46.3956 96.7639 46.8071 96.8281 47.2185H94.7708C94.8351 46.7685 94.848 46.357 94.848 45.5727V42.8853C94.1922 43.361 92.752 43.9525 90.9904 44.4797C90.6818 43.6953 90.5533 43.451 90.0904 42.8081C91.4276 42.5252 92.662 42.1138 93.935 41.5223C95.3237 40.8922 96.4167 40.1336 97.4068 39.1435L93.1378 39.1692C92.302 39.1692 91.8262 39.1949 91.3505 39.2335V37.4462C91.942 37.5233 92.2248 37.5362 93.1635 37.5362H94.8222V36.9575C94.8222 36.3018 94.8094 35.9674 94.758 35.6074H96.7896C96.7381 36.0189 96.7253 36.3918 96.7253 36.9318V37.5362H98.8341C99.207 37.5362 99.4513 37.4976 99.6827 37.4076L100.544 38.4105C100.338 38.5777 100.338 38.5777 99.9785 38.9892C99.2198 39.8507 98.384 40.6222 97.4582 41.3037C99.1684 41.8566 100.737 42.5767 101.817 43.3353L100.75 44.9683C99.5284 44.1197 98.3454 43.4639 97.0596 42.9238C96.9053 42.8724 96.8796 42.8467 96.751 42.7824Z" fill="white"/>
</g>
<defs>
<clipPath id="clip0_1_3707">
<rect width="111" height="52" fill="white"/>
</clipPath>
</defs>
</svg>
