<svg width="143" height="131" viewBox="0 0 143 131" fill="none" xmlns="http://www.w3.org/2000/svg">
<path d="M139.278 45.7801C144.713 61.9498 135.785 108.199 95.6513 103.501C84.1361 102.156 71.7619 90.019 62.036 92.1668C52.3101 94.3147 47.294 103.984 29.395 100.133C11.4959 96.2814 8.13169 79.5253 12.613 67.3023C17.0941 55.0834 6.81191 50.7962 8.15327 40.2854C9.37818 30.676 22.9987 29.0154 29.6063 21.679C36.2138 14.3425 39.4616 -0.339066 53.5091 0.00597646C69.1611 0.394152 67.5739 20.0918 88.691 17.9266C112.029 15.5415 132.429 25.3881 139.278 45.7801Z" fill="#EAF0F9"/>
<g opacity="0.8">
<path d="M72.2835 36.4575H2.00788C0.898956 36.4575 0 37.3564 0 38.4653V86.6304C0 87.7394 0.898956 88.6383 2.00788 88.6383H72.2835C73.3924 88.6383 74.2914 87.7394 74.2914 86.6304V38.4653C74.2914 37.3564 73.3924 36.4575 72.2835 36.4575Z" fill="#CDE1FF"/>
<path fill-rule="evenodd" clip-rule="evenodd" d="M2.00788 36.4575C0.899026 36.4575 0 37.3564 0 38.4653V44.4173H74.2914V38.4653C74.2914 37.3564 73.3925 36.4575 72.2835 36.4575H2.00788ZM4.42215 42.3442C5.39908 42.3442 6.19098 41.5523 6.19098 40.5754C6.19098 39.5985 5.39908 38.8066 4.42215 38.8066C3.44521 38.8066 2.65331 39.5985 2.65331 40.5754C2.65331 41.5523 3.44521 42.3442 4.42215 42.3442ZM11.4975 40.5754C11.4975 41.5523 10.7056 42.3442 9.72866 42.3442C8.75173 42.3442 7.95982 41.5523 7.95982 40.5754C7.95982 39.5985 8.75173 38.8066 9.72866 38.8066C10.7056 38.8066 11.4975 39.5985 11.4975 40.5754ZM15.0352 42.3442C16.0121 42.3442 16.804 41.5523 16.804 40.5754C16.804 39.5985 16.0121 38.8066 15.0352 38.8066C14.0583 38.8066 13.2663 39.5985 13.2663 40.5754C13.2663 41.5523 14.0583 42.3442 15.0352 42.3442Z" fill="#314572"/>
<path d="M26.1024 49.5086H6.02363C5.46917 49.5086 5.01969 49.9581 5.01969 50.5126V64.5677C5.01969 65.1222 5.46917 65.5717 6.02363 65.5717H26.1024C26.6568 65.5717 27.1063 65.1222 27.1063 64.5677V50.5126C27.1063 49.9581 26.6568 49.5086 26.1024 49.5086Z" fill="white"/>
<path d="M11.5202 55.648H9.03544V62.6687H11.5202V55.648Z" fill="#729EDB"/>
<path d="M14.9769 54.3499H12.4922V62.6687H14.9769V54.3499Z" fill="#729EDB"/>
<path d="M18.4338 59.1598H15.9491V62.6713H18.4338V59.1598Z" fill="#729EDB"/>
<path d="M21.8905 52.5205H19.4057V62.6696H21.8905V52.5205Z" fill="#ED971B"/>
<path d="M11.5202 63.5755H9.03544V63.8579H11.5202V63.5755Z" fill="#153F5E"/>
<path d="M14.9374 63.5755H12.4527V63.8579H14.9374V63.5755Z" fill="#153F5E"/>
<path d="M18.4841 63.5755H15.9993V63.8579H18.4841V63.5755Z" fill="#153F5E"/>
<path d="M21.8444 63.5755H19.3596V63.8579H21.8444V63.5755Z" fill="#153F5E"/>
<path d="M69.2717 67.5795H6.02363C5.46917 67.5795 5.01969 68.029 5.01969 68.5835V82.6386C5.01969 83.1931 5.46917 83.6425 6.02363 83.6425H69.2717C69.8262 83.6425 70.2756 83.1931 70.2756 82.6386V68.5835C70.2756 68.029 69.8262 67.5795 69.2717 67.5795Z" fill="white"/>
<path d="M19.5878 71.5953H10.0394V72.2709H19.5878V71.5953Z" fill="#729EDB"/>
<path d="M25.4176 73.4306H10.0394V74.1064H25.4176V73.4306Z" fill="#729EDB"/>
<path d="M25.4176 75.5012H10.0394V75.8367H25.4176V75.5012Z" fill="#729EDB"/>
<path d="M25.4176 77.2287H10.0394V77.5642H25.4176V77.2287Z" fill="#729EDB"/>
<path d="M25.4176 78.9581H10.0394V79.2937H25.4176V78.9581Z" fill="#729EDB"/>
<path d="M44.0904 71.7404H28.7123V72.0759H44.0904V71.7404Z" fill="#729EDB"/>
<path d="M44.0904 73.4737H28.7123V73.8093H44.0904V73.4737Z" fill="#729EDB"/>
<path d="M44.0904 75.2032H28.7123V75.5387H44.0904V75.2032Z" fill="#729EDB"/>
<path d="M39.5702 76.9307H28.7123V77.2662H39.5702V76.9307Z" fill="#729EDB"/>
<g style="mix-blend-mode:multiply" filter="url(#filter0_d_1_3761)">
<path d="M71.7816 106.733C90.3559 106.733 105.413 93.923 105.413 78.1209C105.413 62.3188 90.3559 49.5086 71.7816 49.5086C53.2072 49.5086 38.1496 62.3188 38.1496 78.1209C38.1496 93.923 53.2072 106.733 71.7816 106.733Z" fill="#CDDAE7"/>
</g>
<path d="M69.2717 49.5086H30.1181C29.5637 49.5086 29.1142 49.9581 29.1142 50.5126V64.5677C29.1142 65.1222 29.5637 65.5717 30.1181 65.5717H69.2717C69.8262 65.5717 70.2756 65.1222 70.2756 64.5677V50.5126C70.2756 49.9581 69.8262 49.5086 69.2717 49.5086Z" fill="white"/>
<path d="M41.6745 61.2657H32.126V61.9415H41.6745V61.2657Z" fill="#729EDB"/>
<path d="M60.2363 52.5205H54.2126V53.5244H60.2363V52.5205Z" fill="#729EDB"/>
<path d="M60.2363 57.5401H54.2126V58.5441H60.2363V57.5401Z" fill="#729EDB"/>
<path d="M47.5042 63.103H32.126V63.7787H47.5042V63.103Z" fill="#729EDB"/>
<path d="M64.252 54.5283H54.2126V55.5323H64.252V54.5283Z" fill="#729EDB"/>
<path d="M64.252 59.548H54.2126V60.552H64.252V59.548Z" fill="#729EDB"/>
<path d="M35.8526 52.7303C37.9102 52.7303 39.5791 54.4178 39.5791 56.4975C39.5791 58.5773 37.9102 60.2647 35.8526 60.2647C33.7951 60.2647 32.126 58.5773 32.126 56.4975C32.126 54.4178 33.7951 52.7303 35.8526 52.7303Z" fill="#153F5E"/>
<path d="M50.3777 56.7165C50.1113 58.7444 48.2128 60.1728 46.1404 59.9027C44.0643 59.6325 42.5989 57.7711 42.8653 55.7395C43.1318 53.7115 45.0302 52.2831 47.1026 52.5533C49.1787 52.8233 50.6441 54.6885 50.3777 56.7165Z" fill="#D7E7F5"/>
<path d="M38.2507 53.711C37.6068 53.056 36.7298 52.6378 35.7528 52.6009V56.2348L38.2507 53.711Z" fill="#D7E7F5"/>
<path d="M35.8342 52.6087C33.8803 52.6679 32.3038 54.2517 32.2261 56.2242H35.8342V52.6087Z" fill="#D7E7F5"/>
<path d="M44.3677 53.1793C43.6016 53.8122 43.0428 54.7373 42.8615 55.8253L46.5917 56.3101L44.3677 53.1793Z" fill="#D7E7F5"/>
<path d="M47.1878 52.542L46.2219 59.8804C48.2387 60.0654 50.052 58.6592 50.3111 56.6794C50.5739 54.6995 49.1824 52.8787 47.1878 52.542Z" fill="#ED971B"/>
<path d="M42.8506 55.8401C42.6581 57.7756 44.1236 59.5482 46.1959 59.8923L46.6622 56.3361L42.8506 55.8401Z" fill="#729EDB"/>
<path d="M35.8342 54.6734C36.8075 54.6734 37.5994 55.4728 37.5994 56.4608C37.5994 57.4489 36.8075 58.2483 35.8342 58.2483C34.8609 58.2483 34.0689 57.4489 34.0689 56.4608C34.0689 55.4765 34.8609 54.6734 35.8342 54.6734Z" fill="white"/>
<path d="M48.3609 56.4277C48.235 57.3898 47.3358 58.0633 46.3514 57.9375C45.3671 57.808 44.675 56.9272 44.8008 55.965C44.9266 55.0029 45.826 54.3293 46.8103 54.4552C47.791 54.581 48.4867 55.4655 48.3609 56.4277Z" fill="white"/>
</g>
<path d="M129.121 78.7321C129.323 78.7407 129.526 78.7493 129.725 78.7537C129.815 78.7537 129.898 78.7537 129.984 78.758C130.139 78.758 130.298 78.7623 130.45 78.7623C130.583 78.7623 130.708 78.758 130.837 78.7537C130.941 78.7493 131.045 78.7493 131.149 78.745C131.376 78.7364 131.596 78.7234 131.808 78.7063C131.346 78.3396 130.872 77.973 130.394 77.6108C130.221 77.4814 130.044 77.352 129.872 77.2226C129.556 76.9896 129.242 76.7524 128.919 76.5238C128.724 76.3859 128.53 76.2478 128.331 76.1098C128.017 75.8898 127.706 75.6699 127.387 75.4499C127.193 75.3162 126.999 75.1868 126.804 75.0575C126.473 74.8374 126.141 74.6174 125.805 74.3975C125.722 74.3458 125.645 74.2896 125.563 74.2379C125.576 74.2509 125.598 74.2639 125.615 74.2768C120.53 71.0161 115.017 68.3938 110.096 67.6088C110.126 67.6088 110.152 67.6088 110.182 67.6088C110.045 67.5873 109.906 67.57 109.769 67.5527C109.66 67.5355 109.553 67.5225 109.445 67.5097C109.1 67.4665 108.76 67.432 108.418 67.406C108.405 67.3802 108.392 67.35 108.358 67.3328C107.595 66.8885 106.814 66.4745 106.089 65.9655C107.59 65.0296 109.083 64.085 110.562 63.1146C111.476 63.5675 112.412 64.0549 113.417 64.1842C113.582 64.3266 113.745 64.4646 113.913 64.5983C113.978 64.65 114.042 64.6932 114.108 64.7449C114.254 64.8527 114.401 64.9606 114.551 65.0642C114.625 65.1159 114.703 65.1634 114.776 65.2107C114.927 65.3099 115.082 65.4006 115.237 65.4911C115.306 65.5299 115.376 65.5731 115.445 65.6119C115.665 65.7369 115.889 65.8534 116.122 65.9612C116.135 65.9655 116.148 65.9741 116.161 65.9785C116.376 66.082 116.6 66.1769 116.82 66.2675C116.898 66.2976 116.98 66.3278 117.057 66.358C117.222 66.4184 117.381 66.4788 117.545 66.5348C117.631 66.5651 117.722 66.5953 117.812 66.6212C117.872 66.6383 117.929 66.6599 117.989 66.6772C117.976 66.6729 117.968 66.6642 117.955 66.6599C123.104 68.2256 129.406 66.9274 134.495 65.2151C134.5 65.2151 134.504 65.2107 134.513 65.2107C135.332 64.9348 136.117 64.65 136.863 64.3654C136.91 64.3482 136.953 64.3309 137 64.3136C137.338 64.1842 137.665 64.0506 137.984 63.9212C138.062 63.891 138.135 63.8607 138.208 63.8306C138.523 63.7012 138.834 63.5718 139.127 63.4467C138.877 63.3346 138.623 63.2268 138.368 63.1233C138.251 63.0758 138.135 63.0327 138.018 62.9895C137.872 62.9335 137.73 62.8774 137.583 62.8257C137.458 62.7825 137.333 62.7394 137.203 62.6963C137.062 62.6488 136.915 62.5971 136.773 62.5539C136.651 62.5152 136.527 62.4806 136.401 62.4418C136.247 62.3944 136.095 62.3512 135.94 62.3081C135.824 62.2779 135.702 62.2477 135.586 62.2175C135.422 62.1744 135.255 62.1313 135.086 62.0924C134.974 62.0666 134.857 62.0407 134.746 62.0148C134.568 61.976 134.396 61.9372 134.219 61.8984C134.107 61.8768 133.995 61.8552 133.882 61.8337C133.702 61.7992 133.525 61.7646 133.343 61.7345C133.227 61.7129 133.115 61.6957 132.999 61.6784C132.822 61.6482 132.64 61.6224 132.46 61.5965C132.416 61.5921 132.377 61.5835 132.334 61.5749C132.343 61.5749 132.351 61.5792 132.36 61.5792C130.178 61.2687 127.918 61.1781 125.696 61.2687C125.701 61.2687 125.701 61.2687 125.705 61.2687C125.692 61.2687 125.679 61.2687 125.671 61.2687C125.429 61.2773 125.192 61.2903 124.95 61.3074C124.894 61.3117 124.838 61.3117 124.783 61.3161C124.532 61.3333 124.287 61.3506 124.041 61.3722C123.992 61.3765 123.949 61.3808 123.902 61.3808C123.648 61.4024 123.389 61.4282 123.134 61.4541C123.1 61.4584 123.066 61.4627 123.027 61.4627C122.764 61.493 122.501 61.5231 122.238 61.5533C122.211 61.5576 122.19 61.5576 122.164 61.5619C121.892 61.5965 121.625 61.6352 121.357 61.6741C121.345 61.6784 121.327 61.6784 121.31 61.6784C121.039 61.7216 120.767 61.7646 120.5 61.8078C120.491 61.8078 120.482 61.8121 120.474 61.8121C117.791 62.2779 115.359 62.9938 113.443 63.8866C112.528 63.7616 111.679 63.3389 110.847 62.9249C112.736 61.6741 114.595 60.3759 116.394 58.9741C116.652 58.8619 116.911 58.7455 117.183 58.6334C117.394 58.5428 117.609 58.4566 117.829 58.366C118.075 58.2625 118.321 58.1633 118.575 58.0598C119.287 57.7708 120.016 57.4775 120.775 57.1713H120.771C123.519 56.0629 126.524 54.8207 129.522 53.2507C132.39 51.7455 135.017 49.865 137.191 47.9328C137.182 47.9414 137.173 47.95 137.169 47.9587C137.242 47.8939 137.307 47.8293 137.381 47.7688C137.432 47.7214 137.488 47.674 137.54 47.6223C137.812 47.3721 138.08 47.1219 138.338 46.8717C138.386 46.8286 138.428 46.7812 138.471 46.7381C138.722 46.4922 138.963 46.2507 139.196 46.0048C139.213 45.9832 139.235 45.9661 139.252 45.9445C139.489 45.6943 139.714 45.4441 139.934 45.1983C139.981 45.1422 140.028 45.0905 140.077 45.0344C140.283 44.7972 140.481 44.5599 140.671 44.327C140.719 44.271 140.762 44.2149 140.805 44.1589C140.99 43.9216 141.172 43.6887 141.339 43.4558C141.366 43.4214 141.392 43.3825 141.418 43.348C141.572 43.1323 141.719 42.9167 141.858 42.7054C141.884 42.6665 141.909 42.6278 141.931 42.5932C142.073 42.3689 142.203 42.149 142.323 41.9333C142.349 41.8859 142.375 41.8385 142.401 41.791C142.517 41.5797 142.621 41.3683 142.712 41.1656C142.729 41.1268 142.742 41.0923 142.759 41.0535C142.853 40.8422 142.936 40.6308 143 40.4324C142.78 40.4928 142.543 40.5531 142.301 40.6222C142.267 40.6308 142.237 40.6395 142.203 40.6481C141.991 40.7041 141.771 40.7646 141.542 40.8292C141.486 40.8465 141.435 40.8594 141.379 40.8766C141.125 40.95 140.866 41.0233 140.594 41.1052C140.481 41.1397 140.361 41.1743 140.248 41.2087C140.107 41.2519 139.968 41.295 139.822 41.3381C139.735 41.364 139.658 41.3856 139.572 41.4158C139.581 41.4158 139.585 41.4115 139.593 41.4115C134.741 42.9426 127.724 45.8669 121.483 52.0388C121.5 52.0215 121.513 52.0042 121.53 51.9827C121.422 52.0905 121.315 52.1983 121.211 52.3061C121.12 52.3968 121.03 52.4873 120.939 52.5779C120.711 52.8151 120.482 53.0567 120.254 53.3025C120.198 53.3629 120.141 53.4189 120.089 53.4793C119.801 53.7942 119.52 54.1133 119.236 54.4411C119.201 54.4843 119.162 54.5273 119.127 54.5705C118.886 54.8552 118.649 55.1398 118.412 55.4331C118.338 55.528 118.261 55.6229 118.188 55.7178C117.989 55.9722 117.786 56.2267 117.592 56.4898C117.515 56.5933 117.433 56.7012 117.355 56.8047C117.157 57.0764 116.958 57.3524 116.76 57.6327C116.691 57.7277 116.627 57.8226 116.557 57.9174C116.411 58.1331 116.264 58.353 116.118 58.573C114.788 59.6082 113.435 60.5915 112.055 61.5403C112.455 60.5397 112.887 59.5995 113.582 58.7541C113.749 58.6248 113.913 58.4954 114.078 58.3574C114.151 58.2927 114.228 58.2323 114.301 58.1633C114.362 58.1115 114.427 58.0598 114.487 58.008C114.478 58.0123 114.465 58.0209 114.452 58.0253C119.123 53.8028 122.225 45.5735 123.833 40.096C124.066 39.3111 124.26 38.3751 124.424 37.4176C124.433 37.3615 124.441 37.3055 124.45 37.2494C124.488 37.0251 124.524 36.8051 124.558 36.5808C124.571 36.4903 124.584 36.4041 124.597 36.3135C124.614 36.2057 124.627 36.0979 124.644 35.99C124.657 35.8951 124.67 35.8002 124.683 35.7096C124.696 35.6104 124.709 35.5113 124.721 35.4164C124.743 35.2438 124.764 35.0756 124.787 34.9074C124.795 34.8255 124.804 34.7479 124.817 34.6701C124.83 34.5623 124.843 34.4545 124.856 34.351C124.864 34.2734 124.873 34.2001 124.881 34.1224C124.894 34.0059 124.907 33.8938 124.92 33.786C124.924 33.7386 124.933 33.6868 124.937 33.6394C124.954 33.4884 124.967 33.3461 124.98 33.2081C124.985 33.1563 124.989 33.1131 124.993 33.0658C125.002 32.9666 125.01 32.876 125.019 32.7854C125.023 32.7509 125.027 32.7121 125.027 32.6775C125.037 32.5697 125.046 32.4748 125.054 32.3886C125.054 32.38 125.054 32.367 125.059 32.3584C125.067 32.2592 125.076 32.1816 125.08 32.1082C125.08 32.0867 125.084 32.0738 125.084 32.0522C125.089 32.0047 125.093 31.9616 125.093 31.9314C125.093 31.9185 125.093 31.9141 125.093 31.9055C125.097 31.8754 125.097 31.8581 125.097 31.8581C124.92 31.9487 124.739 32.0522 124.562 32.1643C124.506 32.1989 124.45 32.2376 124.394 32.2721C124.26 32.3584 124.131 32.4533 123.997 32.5482C123.945 32.587 123.894 32.6215 123.842 32.6646C123.673 32.794 123.502 32.9364 123.333 33.083C123.273 33.1347 123.216 33.1909 123.156 33.2426C123.04 33.3504 122.923 33.4582 122.807 33.5703C122.734 33.6437 122.66 33.7127 122.587 33.786C122.478 33.8981 122.367 34.0146 122.259 34.131C122.125 34.2734 121.996 34.4244 121.862 34.5753C121.793 34.653 121.729 34.7263 121.659 34.8082C121.664 34.8039 121.664 34.8039 121.668 34.7996C117.713 39.5008 114.245 47.9888 113.31 54.1996V54.1952C113.31 54.2082 113.306 54.2168 113.306 54.2255C113.292 54.3074 113.283 54.3851 113.27 54.4627C113.24 54.6611 113.214 54.8594 113.193 55.0536C113.184 55.1442 113.171 55.2347 113.163 55.3253C113.141 55.5194 113.124 55.7092 113.111 55.8989C113.107 55.968 113.098 56.0413 113.094 56.1102C113.077 56.3647 113.064 56.6192 113.06 56.8607C113.06 56.878 113.06 56.8952 113.06 56.9125C113.055 57.1368 113.055 57.3567 113.064 57.5681C113.064 57.6285 113.068 57.6888 113.073 57.745C113.081 57.9174 113.09 58.0856 113.107 58.2539C113.111 58.3099 113.116 58.366 113.124 58.422C113.137 58.5385 113.154 58.6506 113.167 58.7627C112.477 59.6771 112.042 60.6907 111.619 61.7689C111.61 61.7905 111.606 61.8121 111.61 61.8337C109.777 63.0844 107.909 64.2878 106.025 65.4652C105.986 64.7406 105.909 64.0204 105.909 63.2957C106.042 63.0327 106.172 62.7609 106.296 62.4849C106.344 62.3814 106.391 62.2779 106.439 62.1744C106.624 61.7603 106.805 61.3333 106.983 60.8934C106.987 60.8848 106.987 60.8805 106.991 60.8761V60.8805C108.664 56.6882 109.855 51.4781 110.286 46.6216C110.683 43.4688 110.342 39.6776 110.169 36.5421C110.135 35.8434 110.062 35.1273 109.954 34.4114C109.954 34.4158 109.958 34.4201 109.958 34.4244C109.919 34.1656 109.876 33.9111 109.829 33.6567C109.816 33.579 109.799 33.5014 109.782 33.4238C109.739 33.2081 109.695 32.9925 109.648 32.7767C109.626 32.6862 109.609 32.5956 109.587 32.5094C109.532 32.2808 109.476 32.0522 109.415 31.8279C109.402 31.7761 109.389 31.7287 109.376 31.6769C109.303 31.4096 109.221 31.1507 109.139 30.9006C109.117 30.8316 109.091 30.7669 109.07 30.6979C109.005 30.5081 108.94 30.3227 108.871 30.1458C108.845 30.0768 108.82 30.0034 108.79 29.9388C108.698 29.7102 108.604 29.4859 108.505 29.2789C108.345 29.6412 108.177 30.0034 108.009 30.3744C107.815 30.7927 107.62 31.2198 107.426 31.6468C107.405 31.6899 107.387 31.7373 107.366 31.7804C107.19 32.1686 107.017 32.5611 106.844 32.9579C106.835 32.9795 106.823 33.0053 106.814 33.0269C106.641 33.4367 106.474 33.8507 106.314 34.2691C106.309 34.282 106.301 34.295 106.296 34.3122C106.296 34.3079 106.301 34.3036 106.301 34.2993C105.93 35.2697 105.61 36.2617 105.396 37.2753C104.714 40.4367 104.399 43.0116 103.933 46.0523C103.441 50.8785 103.735 55.6273 104.847 60.4449C104.834 60.4018 104.817 60.3629 104.804 60.3198C104.86 60.557 104.925 60.7985 104.981 61.0401C105.037 61.2644 105.089 61.4886 105.15 61.7172C105.287 62.2391 105.434 62.7653 105.593 63.2957C105.593 64.085 105.689 64.87 105.723 65.6636C104.847 66.2114 103.972 66.7548 103.096 67.2982C102.92 66.5392 102.734 65.7844 102.582 65.0253C102.601 64.6285 102.609 64.2231 102.618 63.809C102.622 63.6322 102.622 63.451 102.622 63.2699C102.626 63.0154 102.626 62.7566 102.626 62.4936C102.626 62.2909 102.622 62.0881 102.618 61.8811C102.614 61.6181 102.605 61.3506 102.596 61.0788C102.591 60.8761 102.582 60.6778 102.574 60.4708C102.57 60.4103 102.57 60.3543 102.57 60.2939C102.57 60.3025 102.57 60.3111 102.565 60.3198C102.351 55.666 101.457 50.2445 99.0115 44.9654C99.0205 44.9826 99.0285 44.9956 99.0376 45.0085C98.9382 44.7929 98.8217 44.5772 98.7183 44.3616C98.5416 43.9992 98.373 43.637 98.1832 43.279C98.0457 43.0159 97.886 42.7572 97.7395 42.4984C97.5588 42.1792 97.3861 41.8557 97.1913 41.5408C96.9674 41.1743 96.7215 40.8119 96.4755 40.4496C96.338 40.2426 96.2125 40.0313 96.0659 39.8243C95.6694 39.2549 95.2467 38.6899 94.7979 38.1335C94.7337 38.2586 94.6775 38.3837 94.6212 38.5174C94.5992 38.5648 94.5871 38.6123 94.565 38.6597C94.5309 38.746 94.4957 38.8323 94.4706 38.9228C94.4486 38.9833 94.4315 39.0436 94.4144 39.1039C94.3883 39.186 94.3662 39.2679 94.3411 39.3498C94.3231 39.4146 94.306 39.4835 94.293 39.5525C94.2759 39.6345 94.2548 39.7164 94.2377 39.7984C94.2247 39.8718 94.2116 39.9407 94.1986 40.014C94.1855 40.096 94.1725 40.178 94.1594 40.2599C94.1464 40.3375 94.1383 40.4109 94.1293 40.4885C94.1213 40.5704 94.1122 40.6524 94.1032 40.7343C94.0952 40.8163 94.0861 40.8939 94.0821 40.9759C94.0781 41.0578 94.0731 41.1397 94.0651 41.2216C94.06 41.308 94.056 41.3942 94.052 41.4805C94.047 41.5581 94.047 41.6401 94.047 41.7177C94.047 41.8126 94.043 41.9031 94.043 41.998C94.043 42.0584 94.043 42.1144 94.047 42.1749C94.052 42.576 94.0731 42.99 94.1082 43.4084C94.1122 43.4558 94.1163 43.5033 94.1213 43.555C94.1333 43.6844 94.1464 43.8138 94.1594 43.9432C94.1634 43.9949 94.1685 44.0424 94.1765 44.0942C94.1946 44.2278 94.2116 44.3572 94.2287 44.491C94.2377 44.5384 94.2418 44.5858 94.2498 44.6376C94.2679 44.7756 94.2889 44.9136 94.311 45.0517C94.315 45.0905 94.3231 45.1336 94.3321 45.1724C94.3542 45.319 94.3793 45.4657 94.4054 45.6124C94.4094 45.6383 94.4144 45.6641 94.4184 45.6943C94.4486 45.8582 94.4787 46.0178 94.5088 46.1817C94.5088 46.186 94.5088 46.186 94.5088 46.186C94.5349 46.3196 94.561 46.4534 94.5911 46.5871C94.5911 46.5828 94.5911 46.5785 94.5911 46.5741C95.1262 49.1188 95.9665 51.6377 96.7004 53.531C97.2004 54.8207 97.8087 56.3302 98.4774 57.8613C98.4774 57.857 98.4723 57.8528 98.4723 57.8485C98.4854 57.8786 98.4984 57.9131 98.5155 57.9433C98.649 58.2495 98.7876 58.5601 98.9251 58.8663C98.9342 58.8835 98.9432 58.9051 98.9512 58.9224C99.0847 59.2156 99.2193 59.5047 99.3528 59.7936C99.396 59.8798 99.4341 59.9704 99.4773 60.0567C99.5857 60.2853 99.6931 60.5096 99.8016 60.7296C99.8437 60.8201 99.8869 60.9064 99.9301 60.9969C100.056 61.2471 100.176 61.493 100.302 61.7345C100.328 61.7819 100.353 61.8337 100.375 61.8811C100.525 62.1744 100.677 62.459 100.828 62.7351C100.854 62.7868 100.884 62.8343 100.91 62.8817C101.03 63.1017 101.151 63.313 101.271 63.52C101.314 63.5977 101.363 63.671 101.406 63.7443C101.513 63.9255 101.626 64.1023 101.733 64.2749C101.776 64.3395 101.819 64.4085 101.859 64.4733C102.005 64.6932 102.148 64.9089 102.289 65.1029C102.445 65.8965 102.644 66.6815 102.82 67.4708V67.4751C102.135 67.8978 101.449 68.3248 100.767 68.7517C100.052 69.196 99.158 69.7524 98.1451 70.3778C98.1451 70.3605 98.1451 70.3433 98.14 70.3217C97.8951 69.4677 97.6361 68.6223 97.1913 67.8331C97.1913 67.8331 97.1913 67.8331 97.1963 67.8331C97.11 67.5484 97.0367 67.2465 96.9674 66.9403C96.9544 66.8885 96.9413 66.8411 96.9333 66.7893C96.8681 66.4874 96.8038 66.1769 96.7476 65.8577C96.2687 63.1794 96.0448 59.9877 94.8933 57.4042C93.8753 55.1873 91.7138 51.9137 89.5443 49.1188L89.5493 49.1231C89.5363 49.1059 89.5232 49.0929 89.5102 49.0758C89.454 49.0024 89.3937 48.9291 89.3375 48.8558C89.204 48.6832 89.0705 48.5151 88.9319 48.3468C88.8506 48.2433 88.7643 48.1398 88.6819 48.0363C88.5655 47.8939 88.453 47.756 88.3416 47.6223C88.2593 47.5231 88.177 47.4239 88.0956 47.3289C87.9189 47.1176 87.7372 46.9106 87.5646 46.7122C87.5043 46.6432 87.4481 46.5828 87.3879 46.5138C87.2584 46.3714 87.1339 46.2291 87.0084 46.0954C86.9391 46.0178 86.8708 45.9445 86.8016 45.8711C86.6851 45.7461 86.5687 45.6253 86.4522 45.5089C86.392 45.4484 86.3317 45.3838 86.2755 45.3277C86.1068 45.1595 85.9392 44.9956 85.7836 44.849C85.7143 45.0517 85.6591 45.263 85.6069 45.4743C85.5858 45.5649 85.5727 45.6641 85.5547 45.7547C85.5336 45.8754 85.5075 45.9962 85.4904 46.1213C85.4734 46.2291 85.4693 46.3455 85.4563 46.4534C85.4473 46.5655 85.4342 46.6776 85.4262 46.7898C85.4212 46.9062 85.4171 47.027 85.4171 47.1435C85.4171 47.2556 85.4131 47.3678 85.4171 47.4842C85.4212 47.605 85.4262 47.7258 85.4342 47.8465C85.4432 47.963 85.4473 48.0794 85.4603 48.1959C85.4734 48.3166 85.4864 48.4417 85.4995 48.5624C85.5115 48.6832 85.5296 48.804 85.5466 48.9291C85.5637 49.0499 85.5858 49.1749 85.6069 49.2957C85.628 49.4207 85.6541 49.5501 85.6802 49.6752C85.7063 49.796 85.7324 49.9168 85.7625 50.0418C85.7755 50.1022 85.7876 50.1583 85.8006 50.2186C85.8006 50.21 85.8006 50.1971 85.7966 50.1885C86.7243 53.9925 89.208 58.215 91.8052 61.7733L91.8002 61.7689C91.8092 61.7776 91.8132 61.7862 91.8223 61.7992C92.0251 62.0795 92.2319 62.3512 92.4347 62.623C92.4909 62.6963 92.5421 62.7653 92.5983 62.8386C92.7539 63.0413 92.9085 63.244 93.0681 63.4424C93.1334 63.5243 93.1936 63.602 93.2579 63.6796C93.4135 63.8737 93.5641 64.0679 93.7197 64.2533C93.7719 64.3179 93.8271 64.387 93.8793 64.4517C94.0781 64.6975 94.2759 64.9348 94.4747 65.1677C94.4787 65.172 94.4787 65.1763 94.4827 65.1805C94.6855 65.4221 94.8843 65.6507 95.078 65.8749C95.1302 65.9354 95.1814 65.9914 95.2336 66.0518C95.3762 66.2114 95.5137 66.3667 95.6473 66.5219C95.7075 66.591 95.7728 66.6599 95.833 66.729C95.9625 66.8713 96.088 67.0093 96.2125 67.143C96.2687 67.2034 96.3209 67.2595 96.3761 67.3198C96.5488 67.5053 96.7175 67.6821 96.8811 67.846C96.8851 67.8589 96.8851 67.8719 96.8942 67.8848C97.36 68.6784 97.61 69.5453 97.8599 70.4036C97.873 70.4554 97.9031 70.4813 97.9423 70.4986C96.9584 71.1067 95.8591 71.7881 94.6775 72.517C94.6724 72.5127 94.6724 72.5041 94.6644 72.4998C93.7759 71.9995 92.8222 71.5336 92.1064 70.7918C92.0552 70.5978 91.9949 70.4036 91.9297 70.2052C91.9126 70.1492 91.8955 70.0931 91.8735 70.0371C91.7871 69.7739 91.6887 69.5066 91.5843 69.2348C91.5592 69.1745 91.5371 69.1097 91.511 69.0494C91.4036 68.7733 91.2872 68.493 91.1617 68.2083C91.1536 68.191 91.1446 68.1739 91.1406 68.1523C91.0111 67.8589 90.8735 67.5614 90.726 67.2595C90.6958 67.1947 90.6657 67.1344 90.6356 67.0696C90.489 66.7721 90.3344 66.4702 90.1748 66.1683C90.1437 66.1079 90.1095 66.0518 90.0794 65.9914C89.9067 65.6766 89.7301 65.3574 89.5443 65.0339L89.5403 65.0296C89.3506 64.7062 89.1518 64.3784 88.949 64.0506C88.9149 63.9945 88.8807 63.9385 88.8456 63.8823C88.6478 63.5675 88.441 63.2483 88.2292 62.9335C88.2161 62.9119 88.2031 62.8903 88.19 62.8688C88.19 62.8731 88.195 62.8731 88.195 62.8774C86.7192 60.6821 84.9603 58.5212 83.0619 56.7098C83.0749 56.7184 83.084 56.7271 83.097 56.7357C83.0318 56.6753 82.9675 56.6192 82.9073 56.5588C82.821 56.4769 82.7346 56.395 82.6483 56.3173C82.5398 56.2181 82.4364 56.1232 82.329 56.0283C82.2387 55.9464 82.1483 55.8687 82.0529 55.7868C81.9455 55.6962 81.8411 55.6057 81.7337 55.5151C81.6393 55.4374 81.548 55.3598 81.4536 55.2865C81.3452 55.2002 81.2377 55.1139 81.1343 55.0277C81.039 54.9544 80.9486 54.8853 80.8542 54.8121C80.7458 54.7301 80.6384 54.6481 80.5259 54.5662C80.4316 54.4972 80.3402 54.4325 80.2458 54.3678C80.1336 54.2902 80.0258 54.2125 79.9136 54.1349C79.8188 54.0702 79.7239 54.0098 79.629 53.9495C79.5212 53.8804 79.4091 53.8071 79.3013 53.7381C79.1977 53.6734 79.0942 53.6131 78.9907 53.5526C78.8914 53.4923 78.7923 53.4318 78.6887 53.3758C78.4861 53.2594 78.279 53.1515 78.0763 53.0524C78.1453 53.2723 78.2186 53.4966 78.292 53.7295C78.3179 53.8028 78.3394 53.8761 78.3653 53.9538C78.4214 54.1219 78.4817 54.2945 78.5422 54.4713C78.5723 54.5532 78.5982 54.6353 78.6284 54.7215C78.7146 54.963 78.8009 55.2045 78.8914 55.4547C78.913 55.5194 78.9389 55.5841 78.9648 55.6444C79.0381 55.8386 79.1114 56.037 79.1891 56.2353C79.2322 56.3432 79.2753 56.451 79.3142 56.5588C79.3788 56.7271 79.4478 56.8952 79.5169 57.0635C79.56 57.1713 79.6031 57.2791 79.6506 57.3913C79.7584 57.6457 79.8663 57.9045 79.9784 58.1676C80.0215 58.2625 80.0646 58.3617 80.1077 58.4609C80.1897 58.6463 80.272 58.8275 80.3583 59.0129C80.4095 59.1294 80.4657 59.2458 80.5219 59.3666C80.6083 59.5477 80.6946 59.7289 80.785 59.9144C80.8241 59.992 80.8583 60.0654 80.8924 60.143C80.8884 60.1343 80.8844 60.1257 80.8844 60.1171C82.6874 63.7831 85.1541 67.4708 88.2723 69.5065C88.4099 69.5971 88.5484 69.6834 88.691 69.7653C88.7643 69.8085 88.8416 69.8515 88.9149 69.8947C89.0273 69.9594 89.1438 70.0198 89.2602 70.0801C89.3335 70.119 89.4108 70.1578 89.4841 70.1923C89.6307 70.2657 89.7823 70.3303 89.9329 70.3951C89.9851 70.4166 90.0363 70.4381 90.0885 70.4597C90.2652 70.533 90.4418 70.5978 90.6226 70.6581C90.6918 70.6797 90.7611 70.7013 90.8304 70.7229C90.9679 70.7659 91.1105 70.8048 91.248 70.8393C91.3173 70.8565 91.3815 70.8738 91.4508 70.891C91.5934 70.9256 91.7359 70.9514 91.8825 70.9773C92.5853 71.7149 93.5209 72.1979 94.4094 72.6853C92.0421 74.1431 89.3596 75.7863 86.6118 77.4598C86.0295 76.7956 85.5597 76.0623 85.0638 75.3334C85.0115 74.9194 84.9553 74.5011 84.8911 74.087C84.874 73.9748 84.8559 73.8627 84.8349 73.7505C84.7746 73.3754 84.7053 73.0044 84.628 72.6248C84.615 72.5559 84.6019 72.4869 84.5889 72.4135C84.5889 72.4178 84.5889 72.4221 84.5889 72.4264C84.1923 70.5848 83.5709 68.7087 82.4625 66.7418C80.6123 63.4554 78.5422 60.6778 75.7603 57.8441C75.7861 57.8656 75.8163 57.8959 75.8379 57.9174C75.7689 57.8485 75.6998 57.7794 75.6308 57.7104C75.5531 57.6328 75.4755 57.5551 75.3979 57.4775C75.027 57.1066 74.6475 56.7314 74.2463 56.3561C74.2076 56.4942 74.1687 56.6364 74.1342 56.7831C74.1255 56.8176 74.1169 56.8478 74.1084 56.8823C74.0738 57.0289 74.0393 57.1799 74.0134 57.3351C74.0134 57.3438 74.0091 57.3524 74.0091 57.3611C73.9833 57.5077 73.9617 57.6586 73.9401 57.8096C73.9358 57.8441 73.9315 57.8786 73.9272 57.9131C73.9099 58.0771 73.8926 58.2409 73.8841 58.4091C73.8841 58.4306 73.8841 58.4479 73.8841 58.4695C73.8755 58.6248 73.8755 58.7843 73.8755 58.944C73.8755 58.9784 73.8755 59.0129 73.8755 59.0518C73.8798 59.2286 73.8884 59.414 73.9099 59.5995C73.9142 59.6297 73.9185 59.6599 73.9185 59.6858C73.9358 59.854 73.9617 60.0308 73.9876 60.2076C73.9919 60.2422 73.9962 60.2767 74.0048 60.3111C74.0393 60.5096 74.0825 60.7166 74.1385 60.9279C74.1428 60.9409 74.1428 60.9538 74.1471 60.9667C74.1471 60.9625 74.1471 60.9538 74.1471 60.9538C74.2938 61.5317 74.5008 62.1485 74.7898 62.8084C76.5667 66.8454 79.3875 71.4517 83.0749 74.3069C83.0709 74.3026 83.0619 74.2983 83.0579 74.294C83.0709 74.3026 83.084 74.3112 83.097 74.3199C83.33 74.4968 83.5629 74.6692 83.7998 74.8332C83.856 74.8719 83.9122 74.9151 83.9725 74.9539C84.2435 75.1351 84.5246 75.3119 84.8047 75.4715C85.3007 76.2004 85.7796 76.9336 86.3578 77.6065C79.3702 81.8504 72.0122 86.2282 68.3936 88.0871C68.1347 88.2208 68.4065 88.6003 68.661 88.471C71.348 87.0864 76.377 84.1708 81.7166 80.9878C82.1051 81.8936 82.4886 82.8295 83.1743 83.5714C83.1874 83.5843 83.2045 83.5973 83.2175 83.6058C83.2175 83.6317 83.2215 83.6619 83.2265 83.6792C83.2908 83.9897 83.3681 84.2916 83.4544 84.5849C83.4675 84.6323 83.4805 84.6841 83.4976 84.7315C83.5839 85.0119 83.6793 85.2836 83.7777 85.5467C83.7958 85.5942 83.8169 85.6459 83.8389 85.6934C83.9464 85.9607 84.0588 86.2195 84.1793 86.474C84.1883 86.4955 84.2004 86.5171 84.2134 86.5387C84.3349 86.7802 84.4594 87.0132 84.5889 87.2461C84.611 87.2805 84.628 87.3194 84.6491 87.3539C84.7525 87.5307 84.8559 87.7033 84.9644 87.8671C84.9553 87.8498 84.9473 87.8283 84.9383 87.8111C86.8016 90.7266 89.5313 92.6028 91.0332 94.1512C93.4266 96.6225 96.0659 97.7785 98.1792 98.503C98.8177 98.723 99.413 98.9042 99.9301 99.068C99.9351 98.9602 99.926 98.8438 99.913 98.723C99.909 98.6885 99.905 98.654 99.8999 98.6195C99.8829 98.516 99.8618 98.4125 99.8317 98.3047C99.8226 98.2787 99.8186 98.2572 99.8136 98.2314C99.7755 98.102 99.7273 97.9682 99.672 97.8259C99.654 97.7828 99.6369 97.7396 99.6158 97.6966C99.5686 97.5887 99.5205 97.4766 99.4642 97.3645C99.4431 97.3213 99.4211 97.2781 99.4 97.2307C99.3267 97.0841 99.2444 96.9374 99.158 96.7822C99.1279 96.7347 99.0978 96.683 99.0677 96.6312C98.9984 96.5147 98.9251 96.3983 98.8518 96.2818C98.8137 96.2258 98.7785 96.1653 98.7404 96.105C98.637 95.9454 98.5246 95.7859 98.4081 95.6219C98.378 95.5789 98.3428 95.5314 98.3087 95.4882C98.2143 95.3546 98.1149 95.2208 98.0115 95.0871C97.9633 95.0268 97.9162 94.962 97.869 94.9017C97.7485 94.7464 97.623 94.5912 97.4975 94.4316C97.4764 94.4056 97.4594 94.3841 97.4423 94.3583C97.2907 94.1727 97.1311 93.983 96.9674 93.7889C96.9333 93.7458 96.8942 93.7026 96.86 93.6638C96.6743 93.4482 96.4846 93.2326 96.2858 93.0169C96.2898 93.0212 96.2948 93.0299 96.2988 93.0342C94.1855 90.7008 91.4558 88.2424 88.962 86.3877C88.9671 86.392 88.9711 86.392 88.9751 86.3963C88.945 86.3748 88.9189 86.3533 88.8888 86.3317C88.8637 86.3101 88.8376 86.2928 88.8115 86.2756C88.7944 86.2627 88.7773 86.2498 88.7552 86.2368L88.7512 86.2325C88.5615 86.0945 88.3717 85.9564 88.182 85.8271C88.177 85.8228 88.1689 85.8185 88.1649 85.8142C88.1428 85.8012 88.1258 85.7839 88.1037 85.771C88.0997 85.771 88.0956 85.7667 88.0916 85.7624C88.0224 85.7149 87.9571 85.6675 87.8888 85.62C87.8838 85.62 87.8798 85.6157 87.8798 85.6114C87.8065 85.5597 87.7372 85.5165 87.6639 85.4691C87.5736 85.4087 87.4832 85.344 87.3929 85.2836C87.3497 85.2535 87.3065 85.2232 87.2634 85.1973C87.2543 85.193 87.2463 85.1887 87.2413 85.1801C87.1811 85.1413 87.1168 85.1025 87.0556 85.0593C87.0516 85.055 87.0435 85.055 87.0435 85.0507C86.9913 85.0162 86.9391 84.986 86.8879 84.9558C86.8618 84.9385 86.8317 84.9214 86.8056 84.9041C86.7544 84.8696 86.6982 84.835 86.646 84.8049C86.6379 84.8006 86.6329 84.7963 86.6249 84.7919C86.5687 84.7574 86.5124 84.7229 86.4612 84.6928C86.4482 84.6841 86.4391 84.6798 86.4261 84.6712C86.3699 84.6366 86.3096 84.6022 86.2534 84.5677C86.2494 84.5633 86.2454 84.5633 86.2414 84.559C86.1761 84.5245 86.1159 84.4857 86.0506 84.4512C86.0466 84.4512 86.0466 84.4512 86.0466 84.4469C85.9904 84.4124 85.9302 84.3822 85.8739 84.352C85.8609 84.3434 85.8488 84.3391 85.8358 84.3304C85.7876 84.3045 85.7404 84.2786 85.6932 84.2528C85.6802 84.2485 85.6671 84.2399 85.6541 84.2312C85.6501 84.2269 85.646 84.2269 85.641 84.2226C85.6239 84.214 85.6109 84.2053 85.5938 84.1967C85.5597 84.1794 85.5246 84.158 85.4904 84.1407C85.4904 84.1407 85.4904 84.1407 85.4864 84.1364C85.4302 84.1062 85.37 84.0759 85.3137 84.05C85.3047 84.0457 85.2916 84.0415 85.2836 84.0329C85.2404 84.0113 85.1933 83.9897 85.1501 83.9681C85.137 83.9595 85.124 83.9552 85.1069 83.9465C85.0638 83.925 85.0246 83.9078 84.9814 83.8905C84.9684 83.8862 84.9553 83.8776 84.9423 83.8732C84.8389 83.8259 84.7355 83.7784 84.6361 83.7352C84.619 83.7309 84.611 83.7222 84.5929 83.7179C84.5809 83.7137 84.5678 83.7094 84.5548 83.7008C84.5377 83.6965 84.5246 83.6878 84.5066 83.6835C84.4985 83.6792 84.4945 83.6792 84.4855 83.6749C84.4724 83.6705 84.4554 83.6619 84.4383 83.6576C84.3991 83.6403 84.365 83.6317 84.3299 83.6144C84.3218 83.6101 84.3048 83.6059 84.2957 83.6016C84.2486 83.5843 84.2004 83.567 84.1572 83.5541C84.1492 83.5498 84.1401 83.5498 84.1361 83.5455C84.097 83.5325 84.0628 83.5196 84.0287 83.5066C84.0106 83.5023 83.9986 83.498 83.9855 83.4937C83.9554 83.4851 83.9253 83.4765 83.8942 83.4679C83.8821 83.4635 83.8691 83.4592 83.856 83.4549C83.8209 83.4463 83.7867 83.4376 83.7526 83.429C83.7436 83.429 83.7345 83.4247 83.7305 83.4247C83.6924 83.4161 83.6492 83.4074 83.61 83.3988C83.601 83.3988 83.588 83.3945 83.5799 83.3901C83.5498 83.3858 83.5197 83.3816 83.4936 83.3773C83.4805 83.373 83.4675 83.373 83.4544 83.373C83.4334 83.3687 83.4113 83.3644 83.3902 83.3644C82.7296 82.6311 82.3632 81.7167 81.9837 80.8368C83.9203 79.681 85.892 78.4949 87.8065 77.3347C88.4189 78.055 89.1438 78.6588 89.8294 79.31C89.963 79.5904 90.1015 79.8664 90.2391 80.1382C90.2862 80.2287 90.3294 80.3193 90.3766 80.4055C90.5754 80.7808 90.7741 81.1475 90.981 81.5054C91.0151 81.5701 91.0542 81.6304 91.0934 81.6952C91.2872 82.023 91.4809 82.3421 91.6837 82.657C91.7229 82.7131 91.757 82.7734 91.7962 82.8338C92.02 83.1788 92.2489 83.5196 92.4818 83.8517C92.5341 83.925 92.5853 83.9983 92.6375 84.0716C92.8613 84.3908 93.0902 84.7057 93.3272 85.0162C94.1895 86.1634 95.1262 87.2848 96.1482 88.4623C96.86 89.2861 97.4202 89.9115 97.9985 90.4593C97.9935 90.455 97.9854 90.4506 97.9764 90.442C98.0156 90.4808 98.0547 90.5153 98.0929 90.5498C98.132 90.5887 98.1752 90.6274 98.2183 90.6663C98.3479 90.7827 98.4774 90.8949 98.6109 91.007C98.649 91.0371 98.6882 91.0717 98.7273 91.1019C98.8649 91.214 99.0074 91.3262 99.158 91.434C99.1972 91.4642 99.2363 91.49 99.2745 91.5202C99.4301 91.6324 99.5937 91.7488 99.7664 91.861C99.7965 91.8826 99.8357 91.9041 99.8658 91.9257C100.056 92.0507 100.254 92.1758 100.469 92.3052C102.471 93.5085 104.338 94.1814 106.094 94.4143C105.58 93.2455 105.11 92.275 104.286 90.8172C104.209 90.6792 104.118 90.5326 104.019 90.3859C103.993 90.3428 103.963 90.2996 103.933 90.2566C103.855 90.1444 103.778 90.028 103.692 89.9115C103.662 89.8684 103.631 89.8252 103.596 89.7821C103.484 89.6268 103.364 89.4716 103.239 89.312C103.239 89.3077 103.234 89.3077 103.234 89.3033C103.1 89.1352 102.958 88.9626 102.815 88.7901C102.785 88.7556 102.76 88.7211 102.73 88.6866C102.609 88.5443 102.488 88.4062 102.368 88.264C102.332 88.2251 102.302 88.1863 102.268 88.1517C102.126 87.9922 101.983 87.8326 101.842 87.6774C101.829 87.6644 101.819 87.6515 101.806 87.6428C101.652 87.4747 101.492 87.3064 101.337 87.1382C101.289 87.0908 101.241 87.0391 101.194 86.9916C101.091 86.8838 100.991 86.7802 100.888 86.6767C100.854 86.6422 100.819 86.6034 100.784 86.5689C100.788 86.5732 100.788 86.5776 100.793 86.5776C100.082 85.8486 99.3869 85.1844 98.8348 84.6755C97.6571 83.5239 96.4755 82.6138 95.2808 81.8461C95.2848 81.8504 95.2939 81.8504 95.2979 81.8547C95.2848 81.8461 95.2728 81.8375 95.2597 81.8288C94.819 81.5442 94.3753 81.2811 93.9305 81.031C93.9225 81.0267 93.9185 81.0224 93.9094 81.018C92.9868 80.5004 92.0552 80.039 91.1014 79.5948C91.0974 79.5948 91.0934 79.5904 91.0884 79.5904C90.748 79.4308 90.4027 79.2713 90.0533 79.1117C89.3807 78.4691 88.6649 77.8781 88.0605 77.1708C90.1186 75.92 92.0983 74.7081 93.8833 73.6083C94.5048 74.3285 95.2296 74.941 95.9153 75.5966C96.2516 76.7265 97.5106 79.267 99.5506 81.9928C99.5857 82.0359 99.6158 82.079 99.646 82.1222C99.7534 82.2602 99.8618 82.4025 99.9732 82.5448C100.043 82.6311 100.108 82.7173 100.176 82.8036C100.258 82.9072 100.345 83.0107 100.431 83.1142C100.517 83.222 100.604 83.3298 100.694 83.4376C100.689 83.4333 100.69 83.429 100.685 83.4247C102.208 85.2405 104.062 87.0434 106.211 88.4796C106.206 88.4796 106.206 88.4753 106.202 88.4753C106.732 88.8332 107.284 89.1653 107.853 89.4716C107.918 89.506 107.988 89.5363 108.052 89.5708C108.268 89.6829 108.488 89.7994 108.707 89.9029C108.918 90.0021 109.134 90.0926 109.35 90.1875C109.432 90.222 109.51 90.2609 109.592 90.2953C110.787 90.7827 112.05 91.1407 113.374 91.3262C113.098 90.8344 112.81 90.3558 112.511 89.8813C112.438 89.7648 112.361 89.6441 112.288 89.5276C111.994 89.0791 111.696 88.6348 111.386 88.2035C111.321 88.1173 111.256 88.031 111.192 87.9447C110.92 87.5782 110.644 87.2159 110.364 86.8622C110.282 86.7587 110.199 86.6552 110.118 86.5516C109.795 86.1592 109.466 85.7753 109.134 85.4043C109.044 85.3008 108.949 85.2017 108.858 85.1025C108.565 84.7833 108.272 84.4771 107.975 84.1751C107.905 84.1062 107.836 84.0286 107.763 83.9595C107.75 83.9465 107.742 83.9337 107.729 83.925C107.729 83.925 107.737 83.9337 107.742 83.9422C106.538 82.7562 105.3 81.721 104.084 80.8757C101.216 78.8787 98.895 77.27 97.4503 76.2909C97.4031 76.2565 97.356 76.2262 97.3078 76.196C97.2134 76.1314 97.118 76.0709 97.0317 76.0106C96.9634 75.9631 96.8942 75.9201 96.8289 75.8769C96.7687 75.838 96.7124 75.7993 96.6572 75.7604C96.592 75.7174 96.5317 75.6785 96.4755 75.6396C96.4243 75.6052 96.3811 75.5793 96.338 75.5491C96.2948 75.5232 96.2476 75.4931 96.2125 75.4672C96.2085 75.4629 96.2085 75.4629 96.2085 75.4585C95.5178 74.7857 94.7718 74.1732 94.1424 73.4443C96.5147 71.9779 98.5155 70.7185 99.8618 69.8515C100.642 70.464 101.358 71.1628 102.186 71.7192C102.195 71.7235 102.199 71.7192 102.208 71.7235C102.315 71.9132 102.432 72.1073 102.552 72.3057C102.596 72.3747 102.635 72.4437 102.682 72.5084C102.841 72.7585 103.001 73.0087 103.178 73.2632C103.191 73.2805 103.204 73.2977 103.213 73.3149C103.386 73.5651 103.566 73.8153 103.752 74.0654C103.803 74.1344 103.855 74.2034 103.907 74.2768C104.105 74.5398 104.312 74.8073 104.524 75.0703C104.528 75.0789 104.537 75.0833 104.541 75.0919C104.752 75.355 104.977 75.6181 105.206 75.8812C105.257 75.9415 105.313 76.0063 105.364 76.0666C105.843 76.6102 106.348 77.1536 106.874 77.6884C106.927 77.7401 106.974 77.7876 107.025 77.8393C110.618 81.4234 115.242 84.5936 119.473 85.4475C119.469 85.4475 119.464 85.4475 119.464 85.4475C119.49 85.4518 119.516 85.4562 119.546 85.4605C119.818 85.5122 120.085 85.5553 120.352 85.5899C120.448 85.6027 120.543 85.6114 120.633 85.62C120.926 85.6502 121.22 85.6718 121.509 85.6761C121.479 85.5726 121.435 85.4648 121.383 85.357C121.37 85.3267 121.353 85.2922 121.336 85.2621C121.297 85.1801 121.254 85.0981 121.207 85.0119C121.185 84.9731 121.159 84.93 121.137 84.8911C121.09 84.8092 121.039 84.7272 120.983 84.6453C120.953 84.6021 120.926 84.559 120.896 84.5159C120.836 84.4296 120.776 84.3434 120.711 84.2528C120.676 84.2097 120.646 84.1665 120.611 84.1191C120.538 84.0242 120.457 83.925 120.374 83.8215C120.344 83.7827 120.314 83.7482 120.284 83.7094C120.167 83.5714 120.046 83.429 119.917 83.2866C119.796 83.153 119.672 83.0193 119.542 82.8813C119.542 82.8856 119.546 82.8856 119.546 82.8899C117.942 81.1992 115.535 79.2238 112.891 77.3649C112.895 77.3649 112.9 77.3692 112.9 77.3692C112.865 77.3433 112.831 77.3217 112.797 77.2958C112.641 77.188 112.49 77.0802 112.335 76.9767C112.252 76.9207 112.171 76.8646 112.093 76.8085C111.938 76.705 111.783 76.5972 111.627 76.4937C111.546 76.4419 111.467 76.3859 111.386 76.3341C111.226 76.2306 111.067 76.1227 110.907 76.0192C110.834 75.9718 110.761 75.9244 110.683 75.8769C110.515 75.7691 110.347 75.6612 110.178 75.5534C110.131 75.5232 110.083 75.4931 110.036 75.4672C109.402 75.0703 108.764 74.6822 108.129 74.3199C108.108 74.3069 108.086 74.294 108.065 74.281C107.892 74.1818 107.72 74.0826 107.547 73.9878C107.479 73.9489 107.409 73.9102 107.34 73.8713C107.18 73.7851 107.025 73.6988 106.866 73.6126C106.784 73.5694 106.702 73.5219 106.62 73.4789C106.469 73.3969 106.322 73.3193 106.172 73.2416C106.081 73.1942 105.995 73.1511 105.904 73.1036C105.762 73.0303 105.619 72.9612 105.481 72.888C105.386 72.8406 105.296 72.7974 105.201 72.7499C105.067 72.6853 104.93 72.6205 104.795 72.5558C104.701 72.5084 104.601 72.4653 104.507 72.4221C104.378 72.3618 104.252 72.3057 104.123 72.2496C104.019 72.2022 103.92 72.1591 103.816 72.1159C103.7 72.0641 103.583 72.0124 103.467 71.9649C103.35 71.9175 103.234 71.8701 103.118 71.8227C103.023 71.7838 102.924 71.745 102.828 71.7062C102.682 71.6501 102.54 71.5984 102.398 71.5466C102.389 71.5293 102.385 71.5121 102.368 71.4949C101.565 70.9557 100.867 70.2829 100.112 69.6834C102.001 68.4628 103.912 67.2811 105.813 66.0992C106.581 66.6427 107.4 67.0826 108.212 67.5527L108.328 68.1005C108.397 68.3809 108.484 68.6525 108.582 68.92C108.617 69.0062 108.651 69.0925 108.69 69.1787C108.764 69.3599 108.845 69.541 108.936 69.7179C108.984 69.8085 109.027 69.899 109.078 69.9853C109.182 70.1707 109.29 70.3476 109.406 70.5287C109.449 70.5935 109.493 70.6624 109.536 70.7315C113.068 75.8295 122.535 78.3785 128.987 78.6847C128.983 78.6847 128.979 78.6847 128.974 78.6847C129.035 78.7321 129.078 78.7321 129.121 78.7321Z" fill="#CDDAE7"/>
<path d="M48.256 18.38V21.3041H48.89V18.38C48.89 18.1685 48.7477 18.0004 48.5751 18.0004C48.3983 17.9961 48.256 18.1685 48.256 18.38Z" fill="#E5803C"/>
<path d="M48.2559 31.1596C48.2559 31.3709 48.3983 31.5392 48.5707 31.5392C48.7433 31.5392 48.8856 31.3667 48.8856 31.1596V28.4122H48.2516V31.1596H48.2559Z" fill="#E5803C"/>
<path d="M41.7993 24.7725C41.7993 24.945 41.9717 25.0873 42.1789 25.0873H45.103V24.4533H42.1789C41.9717 24.4533 41.7993 24.5956 41.7993 24.7725Z" fill="#E5803C"/>
<path d="M54.9625 24.4533H52.2151V25.0873H54.9625C55.1738 25.0873 55.3421 24.945 55.3421 24.7725C55.3464 24.5956 55.1738 24.4533 54.9625 24.4533Z" fill="#E5803C"/>
<path d="M43.8307 20.476L45.8967 22.5419L46.3453 22.0933L44.2793 20.0274C44.1284 19.8764 43.9084 19.8592 43.7876 19.9799C43.6625 20.105 43.6798 20.325 43.8307 20.476Z" fill="#E5803C"/>
<path d="M52.871 29.5114C53.0219 29.6624 53.2418 29.6796 53.3626 29.5589C53.4877 29.4338 53.4661 29.2138 53.3152 29.0671L51.37 27.122L50.9214 27.5706L52.871 29.5114Z" fill="#E5803C"/>
<path d="M43.7833 29.5585C43.9084 29.6835 44.1284 29.662 44.275 29.511L46.341 27.4451L45.8924 26.9965L43.8307 29.0667C43.6798 29.2134 43.6626 29.4334 43.7833 29.5585Z" fill="#E5803C"/>
<path d="M52.8708 20.0266L50.9256 21.9718L51.3742 22.4204L53.3193 20.4751C53.4703 20.3243 53.4876 20.1042 53.3668 19.9835C53.2374 19.8584 53.0174 19.8757 52.8708 20.0266Z" fill="#E5803C"/>
<path d="M96.9152 9.69399H94.7678V8.40874H96.9152V6.13147H98.2314V8.40874H100.379V9.69399H98.2314V11.9713H96.9152V9.69399Z" fill="#729EDB"/>
<path d="M118.465 49.0067H38.1496C37.3179 49.0067 36.6437 49.6809 36.6437 50.5126V104.725C36.6437 105.557 37.3179 106.231 38.1496 106.231H118.465C119.296 106.231 119.971 105.557 119.971 104.725V50.5126C119.971 49.6809 119.296 49.0067 118.465 49.0067Z" fill="white" stroke="#314572"/>
<path fill-rule="evenodd" clip-rule="evenodd" d="M38.1496 48.5047C37.0408 48.5047 36.1418 49.4036 36.1418 50.5126V57.5401H120.473V50.5126C120.473 49.4036 119.574 48.5047 118.465 48.5047H38.1496ZM42.1057 55.1075C43.2015 55.1075 44.0896 54.2192 44.0896 53.1235C44.0896 52.0278 43.2015 51.1395 42.1057 51.1395C41.01 51.1395 40.1217 52.0278 40.1217 53.1235C40.1217 54.2192 41.01 55.1075 42.1057 55.1075ZM50.0416 53.1235C50.0416 54.2192 49.1533 55.1075 48.0576 55.1075C46.9619 55.1075 46.0736 54.2192 46.0736 53.1235C46.0736 52.0278 46.9619 51.1395 48.0576 51.1395C49.1533 51.1395 50.0416 52.0278 50.0416 53.1235ZM54.0094 55.1075C55.1052 55.1075 55.9934 54.2192 55.9934 53.1235C55.9934 52.0278 55.1052 51.1395 54.0094 51.1395C52.9137 51.1395 52.0256 52.0278 52.0256 53.1235C52.0256 54.2192 52.9137 55.1075 54.0094 55.1075Z" fill="#314572"/>
<path d="M62.2441 68.0815H45.1772C44.3455 68.0815 43.6713 68.7557 43.6713 69.5874V95.6898C43.6713 96.5215 44.3455 97.1957 45.1772 97.1957H62.2441C63.0758 97.1957 63.7501 96.5215 63.7501 95.6898V69.5874C63.7501 68.7557 63.0758 68.0815 62.2441 68.0815Z" fill="white" stroke="#729EDB"/>
<path d="M55.5315 78.6228H46.1811V79.3807H55.5315V78.6228Z" fill="#729EDB"/>
<path d="M61.2402 80.6817H46.1811V81.4396H61.2402V80.6817Z" fill="#729EDB"/>
<path d="M61.2402 83.0033H46.1811V83.3796H61.2402V83.0033Z" fill="#729EDB"/>
<path d="M61.2402 84.9426H46.1811V85.3189H61.2402V84.9426Z" fill="#729EDB"/>
<path d="M61.2402 86.8818H46.1811V87.2581H61.2402V86.8818Z" fill="#729EDB"/>
<path d="M61.2402 90.6701H46.1811V94.6858H61.2402V90.6701Z" fill="#729EDB"/>
<path d="M63.2481 68.5835H44.1733V76.615H63.2481V68.5835Z" fill="#729EDB"/>
<g style="mix-blend-mode:multiply">
<path d="M49.193 70.5913H45.1772V74.6071H49.193V70.5913Z" fill="#729EDB"/>
</g>
<g style="mix-blend-mode:multiply">
<path d="M54.2126 70.5913H51.2008V71.5953H54.2126V70.5913Z" fill="#729EDB"/>
</g>
<g style="mix-blend-mode:multiply">
<path d="M60.2363 72.5992H51.2008V73.6032H60.2363V72.5992Z" fill="#729EDB"/>
</g>
<path d="M111.437 68.0815H94.3702C93.5386 68.0815 92.8643 68.7557 92.8643 69.5874V95.6898C92.8643 96.5215 93.5386 97.1957 94.3702 97.1957H111.437C112.269 97.1957 112.943 96.5215 112.943 95.6898V69.5874C112.943 68.7557 112.269 68.0815 111.437 68.0815Z" fill="white" stroke="#729EDB"/>
<path d="M104.725 78.6228H95.3742V79.3807H104.725V78.6228Z" fill="#729EDB"/>
<path d="M110.433 80.6817H95.3742V81.4396H110.433V80.6817Z" fill="#729EDB"/>
<path d="M110.433 83.0033H95.3742V83.3796H110.433V83.0033Z" fill="#729EDB"/>
<path d="M110.433 84.9426H95.3742V85.3189H110.433V84.9426Z" fill="#729EDB"/>
<path d="M110.433 86.8818H95.3742V87.2581H110.433V86.8818Z" fill="#729EDB"/>
<path d="M110.433 90.6701H95.3742V94.6858H110.433V90.6701Z" fill="#729EDB"/>
<path d="M112.441 68.5835H93.3663V76.615H112.441V68.5835Z" fill="#729EDB"/>
<g style="mix-blend-mode:multiply">
<path d="M98.386 70.5913H94.3702V74.6071H98.386V70.5913Z" fill="#729EDB"/>
</g>
<g style="mix-blend-mode:multiply">
<path d="M103.406 70.5913H100.394V71.5953H103.406V70.5913Z" fill="#729EDB"/>
</g>
<g style="mix-blend-mode:multiply">
<path d="M109.429 72.5992H100.394V73.6032H109.429V72.5992Z" fill="#729EDB"/>
</g>
<path d="M87.3426 65.0697H69.2717C68.44 65.0697 67.7658 65.7439 67.7658 66.5756V97.6977C67.7658 98.5293 68.44 99.2036 69.2717 99.2036H87.3426C88.1743 99.2036 88.8485 98.5293 88.8485 97.6977V66.5756C88.8485 65.7439 88.1743 65.0697 87.3426 65.0697Z" fill="white" stroke="#FDA072"/>
<path d="M86.3387 91.674H70.2756V96.6937H86.3387V91.674Z" fill="#FDA072"/>
<path d="M68.2678 66.5756C68.2678 66.0211 68.7173 65.5716 69.2717 65.5716H87.3427C87.8969 65.5716 88.3466 66.0211 88.3466 66.5756V73.6032H68.2678V66.5756Z" fill="#FDA072"/>
<g style="mix-blend-mode:multiply">
<path d="M73.2875 67.5795H69.2717V71.5953H73.2875V67.5795Z" fill="#FDA072"/>
</g>
<g style="mix-blend-mode:multiply">
<path d="M78.3071 67.5795H75.2953V68.5835H78.3071V67.5795Z" fill="#FDA072"/>
</g>
<g style="mix-blend-mode:multiply">
<path d="M84.7616 69.9227H75.2953V71.0939H84.7616V69.9227Z" fill="#FDA072"/>
</g>
<path d="M80.2494 76.615H70.2756V77.3728H80.2494V76.615Z" fill="#FDA072"/>
<path d="M86.3388 78.6738H70.2756V79.4317H86.3388V78.6738Z" fill="#FDA072"/>
<path d="M86.3388 80.9954H70.2756V81.3717H86.3388V80.9954Z" fill="#FDA072"/>
<path d="M86.3388 82.9347H70.2756V83.3111H86.3388V82.9347Z" fill="#FDA072"/>
<path d="M86.3388 84.8739H70.2756V85.2502H86.3388V84.8739Z" fill="#FDA072"/>
<path d="M86.3388 86.6543H70.2756V87.0306H86.3388V86.6543Z" fill="#FDA072"/>
<defs>
<filter id="filter0_d_1_3761" x="12.0473" y="33.4456" width="107.421" height="97.382" filterUnits="userSpaceOnUse" color-interpolation-filters="sRGB">
<feFlood flood-opacity="0" result="BackgroundImageFix"/>
<feColorMatrix in="SourceAlpha" type="matrix" values="0 0 0 0 0 0 0 0 0 0 0 0 0 0 0 0 0 0 127 0" result="hardAlpha"/>
<feOffset dx="-6" dy="4"/>
<feGaussianBlur stdDeviation="10"/>
<feComposite in2="hardAlpha" operator="out"/>
<feColorMatrix type="matrix" values="0 0 0 0 0.192157 0 0 0 0 0.270588 0 0 0 0 0.447059 0 0 0 0.25 0"/>
<feBlend mode="normal" in2="BackgroundImageFix" result="effect1_dropShadow_1_3761"/>
<feBlend mode="normal" in="SourceGraphic" in2="effect1_dropShadow_1_3761" result="shape"/>
</filter>
</defs>
</svg>
