<svg width="15" height="21" viewBox="0 0 15 21" fill="none" xmlns="http://www.w3.org/2000/svg">
<path fill-rule="evenodd" clip-rule="evenodd" d="M14.5127 7.24598C14.2894 8.61015 14.0651 10.0501 13.8569 11.5537C12.7596 12.5079 11.3314 13.5804 11.0648 13.5505C10.7963 13.5208 4.76248 13.2971 4.76248 13.2971C4.76248 13.2971 9.86892 10.4175 9.76029 7.62828C9.65267 4.8391 9.25136 0 9.25136 0C9.25136 0 13.7091 4.27786 13.8549 4.8221C13.9223 5.07446 14.2271 6.12673 14.5127 7.24598ZM13.2967 16.2843C13.184 17.4536 13.0925 18.625 13.0221 19.7977C11.619 20.2694 9.70599 20.7774 7.64309 20.9392C3.47707 21.2651 -0.00903461 20.1842 1.75895e-05 19.9978L10.576 16.1949L13.2967 16.2843Z" fill="#FD6C26"/>
</svg>
