<svg width="34" height="34" viewBox="0 0 34 34" fill="none" xmlns="http://www.w3.org/2000/svg">
<path d="M18.5845 24.3415C18.3835 24.3159 18.1774 24.2902 17.9662 24.2624H17.9652C17.8874 24.2517 17.8086 24.2421 17.7278 24.2314C17.6136 24.2164 17.4975 24.2004 17.3803 24.1843L17.2702 24.1694H17.2671L17.159 24.1543L17.155 24.1533L17.0479 24.1384H17.0459L16.9368 24.1223H16.9357C16.8317 24.1072 16.7256 24.0913 16.6185 24.0752H16.6175C16.5508 24.0645 16.4821 24.0538 16.4134 24.0431C16.3356 24.0314 16.2558 24.0185 16.177 24.0057C15.3436 23.2355 15.4112 23.367 15.1011 23.1499C15.0344 22.3348 14.9425 21.4758 14.8758 20.7238V20.7152H14.8748C14.8697 20.6575 14.8647 20.5998 14.8606 20.5431V20.5409L14.8445 20.3526V20.3505C14.8384 20.282 14.8334 20.2135 14.8283 20.1483V20.1451C14.8233 20.0681 14.8172 19.9922 14.8122 19.9194V19.9076C14.8061 19.8113 14.8 19.7183 14.796 19.6306V19.6231C14.7909 19.5012 14.7879 19.3867 14.7869 19.2807C14.7869 19.2807 16.5721 18.025 16.4842 16.5669C16.4619 16.199 16.4195 15.9262 16.3649 15.7251C16.2053 15.1292 15.9426 15.155 15.8184 15.1817C15.7295 15.1998 15.4173 15.3667 15.1455 15.5176C15.0536 15.5689 14.9657 15.6181 14.892 15.6598L14.7808 15.723L14.698 15.7711C14.3585 13.8777 14.4363 10.1038 11.851 9.89418C11.851 9.89418 11.2287 10.0374 10.2649 10.1776C9.87595 10.2343 9.43143 10.2899 8.95053 10.336C8.83334 10.3466 8.71312 10.3573 8.59189 10.368H8.58381V10.3691C8.35447 10.3873 8.11706 10.4034 7.8746 10.4162H7.87156C7.75033 10.4226 7.62708 10.4279 7.50281 10.4322H7.49069C7.04718 10.4472 6.58952 10.4493 6.12783 10.4322H6.11671C6.00962 10.4279 5.90253 10.4237 5.79544 10.4172L5.77827 10.4162C5.63582 10.4076 5.49439 10.398 5.35194 10.3862L5.33578 10.3852C5.2297 10.3755 5.12362 10.3648 5.01754 10.3542H5.01552C4.85185 10.336 4.6892 10.3156 4.52654 10.291V10.2899H4.5225C4.39622 10.2707 4.27094 10.2504 4.14567 10.2269V10.2258H4.14163C3.98908 10.1983 3.83753 10.1669 3.687 10.1316L3.68094 10.1306C3.55466 10.1017 3.43039 10.0696 3.30613 10.0353C3.26875 10.0246 3.23137 10.015 3.195 10.0043C3.14247 9.98935 3.08892 9.97329 3.03639 9.95722C3.02022 9.95187 3.00507 9.94762 2.9889 9.94227V9.94116H2.98688L2.94142 9.92621L2.93738 9.9252C2.92324 9.92085 2.90809 9.9155 2.89394 9.91126V9.90913H2.88788C2.87373 9.90489 2.8606 9.89954 2.84645 9.89519V9.89307H2.84241C2.82827 9.88772 2.81312 9.88347 2.79897 9.87812V9.87701H2.79695C2.73937 9.8567 2.68178 9.83639 2.6252 9.81498V9.81387H2.62318L2.5454 9.78507V9.78285H2.53933C2.51508 9.77325 2.48983 9.76365 2.46659 9.75406V9.75183H2.46053C2.43528 9.74224 2.41103 9.73153 2.38779 9.72193V9.72082H2.38476C2.27767 9.67596 2.1726 9.62777 2.06956 9.57857L2.03723 9.56251H2.03621C2.02611 9.55715 2.01601 9.55291 2.0059 9.54756V9.54644C1.9857 9.53584 1.96247 9.52513 1.94226 9.51442C1.89478 9.48977 1.8473 9.46411 1.79981 9.43845V9.43521H1.79476C1.78667 9.42986 1.77758 9.42451 1.7695 9.42026V9.41915C1.72303 9.39349 1.67656 9.36682 1.63009 9.33893C1.52502 9.26589 1.42298 9.1878 1.32498 9.10465V9.10152H1.32195C1.27952 9.06515 1.23911 9.02878 1.19769 8.9913L1.18254 8.97635V8.97524C1.12293 8.91967 1.06433 8.86077 1.00876 8.80197V8.80086C0.918849 8.70458 0.832976 8.60406 0.755185 8.5003C0.577376 8.26531 0.42887 8.00901 0.312688 7.73866C0.250051 7.5953 0.197512 7.44881 0.15407 7.29909V7.29585C0.136895 7.23807 0.120734 7.18028 0.10659 7.12148C0.081333 7.01338 0.0601131 6.90428 0.0439487 6.79416V6.7888C0.0308152 6.69999 0.0186942 6.60907 0.0116223 6.51926V6.5042C-0.00757294 6.25073 -0.00353301 5.99078 0.0277855 5.72761C0.0358677 5.65487 0.0469866 5.58 0.0591099 5.50625V5.50514C0.0712333 5.42604 0.0873952 5.34794 0.10558 5.26874L0.10659 5.26662C0.111641 5.24631 0.115682 5.226 0.120734 5.2056H0.122753V5.19812C0.140938 5.12114 0.162158 5.04516 0.185394 4.96818L0.186404 4.96384C0.213681 4.86978 0.246005 4.77663 0.280354 4.68258L0.281364 4.68046C0.309652 4.60236 0.341983 4.52316 0.375322 4.44506L0.376332 4.44405C0.410681 4.36485 0.447053 4.28675 0.485443 4.20765L0.486453 4.20442C0.490494 4.19472 0.496555 4.18512 0.500597 4.17552H0.502616V4.17229L0.51676 4.1445L0.517769 4.14127C0.522821 4.13168 0.527872 4.12198 0.532923 4.11238L0.533933 4.11137C0.563231 4.05358 0.594552 3.99579 0.627891 3.938L0.6289 3.93588C0.673352 3.85678 0.720834 3.77868 0.771348 3.70059V3.69948C0.78044 3.68342 0.790542 3.66846 0.800645 3.6524H0.803682V3.64917C0.858237 3.56471 0.91582 3.48126 0.976437 3.39892L0.977446 3.39781L1.02392 3.33578L1.02493 3.33366C1.08049 3.25981 1.13808 3.18606 1.19769 3.11332L1.1987 3.11221C1.22497 3.08119 1.25123 3.04906 1.2785 3.01805C1.31892 2.96996 1.36034 2.92288 1.40479 2.8758H1.40581L1.41893 2.85974H1.42197V2.85762C1.54926 2.7186 1.68666 2.58161 1.83214 2.44795L1.83315 2.44684C1.88467 2.39976 1.93822 2.35278 1.99176 2.3057C2.05238 2.25216 2.11603 2.19973 2.17968 2.14739H2.1817V2.14628C2.25343 2.08748 2.32819 2.03071 2.40396 1.97302C2.42517 1.95696 2.44538 1.94089 2.46659 1.92594C2.51407 1.89058 2.56155 1.85643 2.61106 1.82219C2.66763 1.78258 2.72421 1.74298 2.78281 1.70449H2.78483V1.70338C2.79897 1.69277 2.81514 1.68307 2.83029 1.67236L2.8313 1.67135C2.9394 1.60073 3.05053 1.53224 3.16267 1.46596L3.16368 1.46485C3.19096 1.4499 3.21622 1.43384 3.2435 1.41777C3.25259 1.41242 3.26269 1.40717 3.27077 1.40181H3.2738V1.39959C3.31017 1.37928 3.34856 1.35898 3.38594 1.33867C3.48394 1.28411 3.58497 1.23168 3.68599 1.18036C3.785 1.13116 3.88501 1.08408 3.98604 1.03811L3.98705 1.037C4.03251 1.01558 4.08 0.995277 4.12647 0.973859H4.1285C4.16487 0.957796 4.20123 0.941833 4.2376 0.92678H4.24064C4.30327 0.900008 4.36692 0.873336 4.43057 0.847675C4.47098 0.831612 4.51341 0.815548 4.55382 0.800596H4.55685V0.799486C4.58312 0.789888 4.60939 0.779178 4.63464 0.76958L4.67809 0.753517H4.68313V0.751397C4.80134 0.707551 4.92156 0.666836 5.0438 0.626223H5.04784C5.063 0.621879 5.07714 0.615513 5.09128 0.61127H5.09532V0.61016C5.10947 0.605917 5.12463 0.600561 5.13877 0.595207H5.1418V0.594097L5.18928 0.579144C5.24081 0.56308 5.29233 0.547118 5.34486 0.532064H5.34688C5.41962 0.510647 5.49236 0.488219 5.56712 0.467913H5.56914V0.466803C5.58733 0.461549 5.60551 0.456194 5.6237 0.45185H5.63179V0.449726C5.68937 0.433663 5.74695 0.419823 5.80555 0.40477L5.86819 0.388808C5.95709 0.36739 6.04701 0.345972 6.13591 0.325665H6.13793V0.324555C6.16016 0.319201 6.18138 0.313846 6.20461 0.309602H6.21673V0.306369C6.23693 0.302126 6.25916 0.297883 6.28038 0.293539C6.30564 0.288185 6.33291 0.282831 6.35716 0.277476H6.36019C6.46829 0.254947 6.5774 0.233631 6.68651 0.213324H6.69257V0.212211C6.71985 0.206957 6.74612 0.202616 6.7744 0.197261H6.78855V0.195138C6.8825 0.179074 6.97747 0.164124 7.07142 0.150182C7.14618 0.139473 7.22296 0.128865 7.29772 0.119166H7.30985V0.117043C7.34925 0.111688 7.38865 0.107447 7.42704 0.103103H7.43714C7.52807 0.0923941 7.62 0.0806743 7.71295 0.0720869H7.72305C7.77357 0.0667325 7.82408 0.0603672 7.87358 0.0561241H7.89783V0.0539004C8.03523 0.0421812 8.17465 0.0325854 8.31406 0.023998H8.34033V0.0228881C8.4454 0.0175337 8.55148 0.0121768 8.65553 0.00904493H8.67271V0.00793501C8.97781 -0.00166261 9.28494 -0.00277583 9.59206 0.00581151V0.00793501H9.66076C9.76987 0.0121782 9.87898 0.0165234 9.98809 0.0228881V0.023998H9.9992C10.0699 0.0282412 10.1396 0.0314732 10.2093 0.0368276V0.0400611H10.2447C10.3649 0.0485474 10.4851 0.0592564 10.6064 0.0720869C10.6528 0.0764311 10.7013 0.0817871 10.7478 0.0860303V0.0871402H10.763C10.8064 0.0913834 10.8488 0.0967389 10.8903 0.102093L10.8973 0.103103C10.9792 0.112802 11.062 0.12351 11.1438 0.134219H11.1459C11.1822 0.139473 11.2186 0.144828 11.255 0.149172H11.259L11.3509 0.162002V0.165235H11.3701C11.4005 0.169479 11.4308 0.17483 11.4621 0.180185V0.181198H11.4671C11.5601 0.196251 11.653 0.21221 11.746 0.228274H11.747C11.7732 0.232618 11.7995 0.237974 11.8258 0.242217V0.243327H11.8339C11.9905 0.27212 12.146 0.304247 12.3016 0.338495C12.3228 0.342738 12.343 0.348094 12.3643 0.352438L12.3713 0.353448C12.4158 0.364157 12.4623 0.373755 12.5067 0.384464V0.385574H12.5107C12.532 0.389817 12.5512 0.395173 12.5714 0.400527V0.401637H12.5754C12.5946 0.40588 12.6148 0.411236 12.634 0.41659L12.638 0.4176C12.7593 0.447605 12.8795 0.478621 12.9977 0.511758V0.512868H13.0007C13.0371 0.522466 13.0725 0.533177 13.1088 0.542774V0.543884H13.1149C13.1502 0.554593 13.1846 0.564192 13.22 0.5749C13.2725 0.590964 13.326 0.605916 13.3786 0.62198C13.3937 0.626223 13.4109 0.631578 13.4261 0.636933V0.638043H13.4291C13.6311 0.701084 13.8302 0.769582 14.0282 0.842322V0.843432H14.0312C14.0716 0.858384 14.1141 0.873334 14.1545 0.889397V0.891521H14.1595L14.2333 0.920414V0.922537H14.2393C14.3555 0.967494 14.4697 1.01457 14.5818 1.06266V1.06478H14.5879C14.6121 1.07549 14.6364 1.08509 14.6616 1.0958L14.6929 1.10863V1.11085H14.699C14.7445 1.13116 14.7899 1.15258 14.8354 1.17288L14.8384 1.17389C14.9071 1.20491 14.9748 1.23703 15.0425 1.26916L15.0728 1.28411L15.0738 1.28512L15.1041 1.30018L15.1061 1.30119L15.1354 1.31513V1.31725H15.1385C15.1476 1.32149 15.1577 1.32584 15.1657 1.33119V1.33332H15.1708C15.1789 1.33756 15.189 1.3419 15.1971 1.34615V1.34827H15.2021C15.2112 1.35261 15.2203 1.35786 15.2294 1.36221V1.36433H15.2334C15.2435 1.36857 15.2516 1.37393 15.2617 1.37827V1.38039H15.2648L15.293 1.39534V1.39646H15.2961L15.3254 1.41141L15.3264 1.41242L15.3567 1.42848C15.4264 1.46485 15.4941 1.50122 15.5618 1.5387V1.53971H15.5638C15.6002 1.56012 15.6365 1.57932 15.6729 1.59962V1.60286H15.68L15.7052 1.6168L15.7072 1.61781L15.784 1.66277V1.666H15.7891L15.8154 1.68206C15.8689 1.71308 15.9214 1.74409 15.974 1.77612V1.77723C16.0154 1.80289 16.0578 1.82855 16.1003 1.85532V1.85644H16.1023C16.1174 1.86603 16.1326 1.87462 16.1467 1.88422V1.88846H16.1538C16.2104 1.92483 16.2659 1.96231 16.3215 1.99868C16.3377 2.00939 16.3538 2.01899 16.369 2.02969H16.37C16.4235 2.06606 16.4751 2.10244 16.5266 2.13881L16.5286 2.13982L16.5912 2.18265V2.1869H16.5973L16.6387 2.2169V2.21902H16.6418L16.7024 2.26398V2.2661H16.7054C16.7691 2.31318 16.8307 2.36026 16.8923 2.40835C16.9196 2.42865 16.9448 2.45007 16.9721 2.47149L16.9731 2.4725L16.9883 2.48432V2.48856H16.9933C17.0125 2.50463 17.0327 2.51958 17.0519 2.53463L17.0529 2.53564L17.0681 2.54746V2.55059H17.0721C17.0984 2.571 17.1226 2.59343 17.1469 2.61374L17.1631 2.62657V2.62869H17.1661C17.252 2.70042 17.3358 2.77417 17.4166 2.84903V2.85014H17.4177L17.4318 2.86297V2.86621H17.4348L17.448 2.87793V2.88227H17.453L17.4641 2.89186V2.89833H17.4702C17.6106 3.02876 17.745 3.16464 17.8753 3.30365V3.31012H17.8814L17.8915 3.32184V3.32618H17.8965L17.9076 3.33901V3.34225H17.9107L17.9238 3.35609V3.3572H17.9248C17.9733 3.40963 18.0198 3.46207 18.0662 3.51551V3.51662C18.0925 3.54763 18.1188 3.57865 18.1451 3.60966V3.61179H18.1471C18.1673 3.63634 18.1895 3.65988 18.2087 3.68453V3.69089H18.2137C18.2168 3.69524 18.2198 3.69948 18.2249 3.70372V3.70696H18.2269L18.2875 3.78404V3.78616H18.2885L18.3511 3.86426L18.3522 3.86527C18.3673 3.88557 18.3825 3.90598 18.3986 3.92628V3.92841H18.3996C18.4158 3.94871 18.4309 3.97013 18.4461 3.99155L18.4764 4.0354V4.04075H18.4805C18.4946 4.06106 18.5098 4.08035 18.5239 4.10066V4.10379H18.5259L18.5552 4.14552V4.15087H18.5593C18.5694 4.16481 18.5775 4.17875 18.5876 4.19158V4.19795H18.5916C18.6067 4.21937 18.6199 4.24078 18.634 4.26109C18.6451 4.27604 18.6552 4.2921 18.6663 4.30706V4.30817H18.6674C18.6734 4.31777 18.6815 4.32736 18.6876 4.33706L18.6987 4.35414V4.35525H18.6997C18.7249 4.39586 18.7522 4.43647 18.7785 4.47931V4.48143H18.7805C18.7957 4.50608 18.8118 4.53174 18.827 4.55629V4.56064H18.829C18.8603 4.61196 18.8906 4.66439 18.9219 4.71895C18.9482 4.76492 18.9745 4.81088 19.0008 4.85907V4.86119L19.0169 4.88797V4.89332H19.0199C19.0462 4.93929 19.0715 4.98738 19.0967 5.03557V5.03658C19.1907 5.2153 19.2856 5.40462 19.3806 5.60465V5.60789H19.3816L19.3968 5.6389L19.3978 5.63991C19.4342 5.717 19.4715 5.79499 19.5079 5.87531V5.87743C19.5342 5.93411 19.5615 5.99078 19.5877 6.04857V6.0518H19.5887C19.614 6.10949 19.6403 6.16728 19.6665 6.22618C19.7029 6.30952 19.7403 6.39297 19.7777 6.47854V6.47965L19.8251 6.58877V6.59089H19.8262L19.8726 6.7V6.70111H19.8736L19.9211 6.81123C19.9474 6.87326 19.9736 6.9364 19.9999 6.99954V7.00166C20.0262 7.0637 20.0535 7.12684 20.0797 7.19099V7.1921C20.1161 7.2809 20.1535 7.37072 20.1898 7.46164L20.2212 7.53974L20.2525 7.61783V7.61995C20.3464 7.85211 20.4434 8.09064 20.5384 8.33129V8.33341L20.5707 8.4115V8.41261C20.6384 8.58486 20.7071 8.75914 20.7758 8.93462V8.93573C21.0294 9.58069 21.287 10.2428 21.5527 10.9007C21.782 11.4709 22.0164 12.0378 22.2559 12.5856C23.6076 15.6716 25.9595 17.2515 28.2084 18.8401C28.4317 18.9973 28.6529 19.1557 28.8732 19.315V19.3161C29.1247 19.498 29.3743 19.6819 29.6187 19.8701C29.6672 19.9065 29.7137 19.944 29.7612 19.9804V19.9815C29.7885 20.0018 29.8147 20.0232 29.84 20.0435L29.841 20.0445C29.9531 20.1333 30.0643 20.2221 30.1734 20.313V20.3142H30.1744C30.2047 20.3398 30.236 20.3665 30.2684 20.3923L30.2694 20.3933C30.3431 20.4553 30.4169 20.5184 30.4906 20.5826V20.5837C30.5381 20.6254 30.5866 20.666 30.6341 20.7089V20.711H30.6361L30.6502 20.7238V20.7271H30.6543C30.7068 20.7741 30.7583 20.8211 30.8099 20.8693V20.8704H30.8109C31.017 21.0629 31.218 21.2619 31.412 21.4694V21.4726H31.415L31.4281 21.4855V21.4886H31.4302L31.4423 21.5025V21.5047H31.4453C31.4494 21.51 31.4544 21.5144 31.4584 21.5197L31.4595 21.5207C31.508 21.5732 31.5554 21.6256 31.6019 21.679C31.6605 21.7454 31.7191 21.8128 31.7767 21.8812V21.8855H31.7797L31.7929 21.9005V21.9016C31.8131 21.9262 31.8353 21.9508 31.8555 21.9765V21.9818H31.8595L31.8716 21.9968V21.9978H31.8727C31.8939 22.0235 31.9141 22.0502 31.9363 22.077L31.9989 22.1562C32.0313 22.1968 32.0626 22.2395 32.0939 22.2813V22.2835H32.0949C32.1101 22.3038 32.1262 22.3241 32.1414 22.3455V22.3476H32.1424C32.1576 22.3679 32.1737 22.3883 32.1879 22.4097V22.4108H32.1899L32.2202 22.4535V22.4589H32.2232C32.2384 22.4792 32.2525 22.5006 32.2677 22.522L32.299 22.5669V22.5691H32.301C32.3546 22.6461 32.4061 22.7231 32.4566 22.8023V22.8065H32.4596C32.4697 22.8215 32.4788 22.8365 32.4889 22.8504V22.8536H32.491C32.5011 22.8685 32.5112 22.8836 32.5213 22.8996V22.9018H32.5223C32.5263 22.9093 32.5314 22.9167 32.5374 22.9242V22.9338H32.5425C32.5506 22.9477 32.5597 22.9627 32.5677 22.9776V22.982H32.5698C32.5849 23.0065 32.6001 23.0322 32.6152 23.0569V23.0611H32.6182C32.6768 23.1585 32.7334 23.2579 32.79 23.3595V23.3628H32.792L32.8052 23.3884V23.3949H32.8092C32.8132 23.4024 32.8173 23.4098 32.8203 23.4173V23.4269H32.8264C32.8506 23.474 32.8749 23.5211 32.9001 23.5693L32.9153 23.6003V23.6013H32.9173L32.9314 23.6313V23.6334C32.9375 23.643 32.9425 23.6526 32.9476 23.6623V23.6655H32.9486C32.9698 23.7073 32.991 23.7489 33.0112 23.7917V23.7928C33.0325 23.8377 33.0537 23.8827 33.0739 23.9276V23.9351H33.0769C33.082 23.9436 33.086 23.9522 33.089 23.9607V23.9661H33.0911C33.0951 23.9757 33.1001 23.9853 33.1042 23.9939V23.9971H33.1052C33.1153 24.0195 33.1254 24.0431 33.1355 24.0656V24.0762H33.1395C33.1436 24.0848 33.1466 24.0944 33.1507 24.103V24.1073H33.1537C33.1678 24.1426 33.184 24.1779 33.1992 24.2142V24.2186H33.2012C33.2335 24.2956 33.2648 24.3725 33.2941 24.4517V24.456H33.2961C33.3062 24.4816 33.3174 24.5074 33.3264 24.5341V24.5352H33.3275C33.3325 24.548 33.3386 24.562 33.3426 24.5748V24.5823H33.3456C33.3497 24.594 33.3547 24.6047 33.3588 24.6154V24.6261H33.3638C33.3739 24.6518 33.382 24.6785 33.3911 24.7042C33.3962 24.7193 33.4012 24.7352 33.4053 24.7502V24.7534H33.4063L33.4214 24.7961V24.8005C33.4487 24.8786 33.475 24.9577 33.5012 25.0379C33.5113 25.0721 33.5225 25.1064 33.5326 25.1417V25.1491H33.5356C33.5396 25.1642 33.5447 25.1791 33.5487 25.1931V25.1962H33.5497C33.5548 25.2123 33.5598 25.2283 33.5649 25.2444V25.2594H33.5689C33.574 25.2733 33.577 25.2871 33.581 25.3011V25.3064H33.5821C33.5871 25.3235 33.5921 25.3428 33.5962 25.3599V25.3696H33.5982L33.6275 25.4776V25.4818C33.6487 25.5643 33.671 25.6487 33.6912 25.7333V25.7354C33.6962 25.7568 33.7033 25.7792 33.7073 25.8007V25.8145H33.7104L33.7235 25.8691V25.8776H33.7255C33.7296 25.8979 33.7356 25.9172 33.7396 25.9364V25.9568H33.7437C33.7477 25.976 33.7508 25.9953 33.7558 26.0145V26.0371H33.7599C33.7639 26.0563 33.7669 26.0756 33.772 26.0947V26.1001C33.777 26.1248 33.7821 26.1493 33.7871 26.1751V26.1793C33.7932 26.205 33.7982 26.2296 33.8033 26.2553V26.2595H33.8043C33.8154 26.3173 33.8245 26.3761 33.8356 26.4349V26.4489H33.8376C33.8417 26.4756 33.8467 26.5034 33.8518 26.5302V26.544H33.8538C33.8579 26.5719 33.8639 26.5987 33.868 26.6265V26.6542H33.872C33.876 26.6789 33.8791 26.7045 33.8831 26.7291V26.7655H33.8872C33.8912 26.7934 33.8942 26.8211 33.8973 26.8489V26.8607H33.8993C33.9043 26.896 33.9084 26.9313 33.9124 26.9676V26.972C33.9245 27.0608 33.9336 27.1517 33.9437 27.2426V27.2725H33.9468L33.9599 27.3977V27.4469H33.9649C33.969 27.4897 33.973 27.5346 33.9761 27.5784V27.6213H33.9791L33.9922 27.7956V27.8106H33.9932C33.9953 27.8416 33.9983 27.8726 33.9993 27.9048C34.0043 27.9903 33.9821 28.0405 33.9367 28.0641H33.9276V28.0673C33.9104 28.0748 33.8902 28.0791 33.868 28.0791H33.8427C33.7599 28.0759 33.6447 28.0405 33.5002 27.9839C33.0274 27.7999 32.2394 27.3923 31.2332 27.1345C31.2716 27.1848 31.3089 27.235 31.3443 27.2854V27.2865C31.3948 27.3592 31.4423 27.4319 31.4867 27.5068V27.5089H31.4878C31.5272 27.5763 31.5635 27.6437 31.5979 27.7122V27.7154H31.5989C31.6029 27.725 31.609 27.7336 31.613 27.7432V27.7464H31.615C31.6201 27.756 31.6241 27.7668 31.6292 27.7764V27.7785C31.6514 27.8256 31.6726 27.8726 31.6918 27.9197V27.9208H31.6928C31.704 27.9465 31.714 27.9721 31.7242 27.9978V27.9999H31.7252C31.7615 28.093 31.7929 28.1871 31.8191 28.2813V28.2855C31.8363 28.3465 31.8535 28.4086 31.8666 28.4695V28.477C31.8848 28.5604 31.902 28.6429 31.9131 28.7263V28.7306H31.9141C31.9201 28.769 31.9252 28.8087 31.9292 28.8471V28.8567C31.9363 28.9113 31.9414 28.967 31.9454 29.0215V29.0472H31.9474C31.9575 29.2108 31.9565 29.3745 31.9464 29.5382L31.9454 29.5596C31.9414 29.6216 31.9363 29.6825 31.9292 29.7447V29.7468C31.9252 29.7885 31.9201 29.8302 31.9141 29.8719H31.9131V29.8794C31.905 29.9457 31.8939 30.0121 31.8838 30.0772H31.8828V30.0848C31.8595 30.2099 31.8343 30.3351 31.803 30.4581V30.4592L31.7868 30.5223C31.7191 30.7887 31.6322 31.0486 31.5332 31.2989C31.5231 31.3257 31.513 31.3513 31.5029 31.3781H31.5019C31.4756 31.4423 31.4494 31.5054 31.4221 31.5685C31.316 31.811 31.2008 32.049 31.0745 32.282L31.0735 32.283C30.924 32.559 30.7725 32.8093 30.63 33.0264C30.5856 33.0928 30.5442 33.1559 30.5037 33.2158C30.3825 33.3939 30.2562 33.568 30.1239 33.7378C30.0996 33.7688 30.0774 33.7967 30.0602 33.8181C26.5364 25.0561 24.3421 25.0593 18.6997 24.3566L18.5845 24.3415Z" fill="white"/>
</svg>
