<svg width="118" height="109" viewBox="0 0 118 109" fill="none" xmlns="http://www.w3.org/2000/svg">
<path d="M93.9623 31.8222C68.3269 17.9613 69.6647 -9.49384 36.0955 3.31919C12.8412 12.198 -2.57282 41.5478 0.982461 66.6826C3.66763 85.6425 12.5184 99.6999 29.041 95.1482C45.5638 90.5965 59.6118 96.1212 72.3125 99.6859C88.2926 104.172 113.063 90.1522 117.09 70.9068C121.118 51.6662 111.482 41.2951 93.9623 31.8222Z" fill="#EAF0F9"/>
<path d="M97.8029 96.9542H17.6782C17.3976 96.9542 17.1636 96.7203 17.1636 96.4303V41.2907C17.1636 41.0054 17.3929 40.7669 17.6782 40.7669H97.8029C98.0836 40.7669 98.3175 41.0007 98.3175 41.2907V96.4303C98.3175 96.7203 98.0883 96.9542 97.8029 96.9542Z" fill="#314572"/>
<path d="M95.6649 92.72H20.1199C20.0825 92.72 20.0498 92.6872 20.0498 92.6499V44.3309C20.0498 44.2934 20.0825 44.2607 20.1199 44.2607H95.6649C95.7023 44.2607 95.735 44.2934 95.735 44.3309V92.6451C95.735 92.6872 95.7023 92.72 95.6649 92.72Z" fill="white"/>
<path d="M60.2573 96.019H19.2219L0 106.264H60.2573V96.019Z" fill="#F4F9FF"/>
<path d="M55.6635 95.9953H96.7035L115.925 106.24H55.6635V95.9953Z" fill="#E3F0FF"/>
<path d="M55.6635 101.51H98.7571L92.7787 97.0563H55.6635V101.51Z" fill="#EAF0F9"/>
<path d="M55.6635 105.478H74.9789L73.4165 102.578H55.6635V105.478Z" fill="#EAF0F9"/>
<path d="M55.6635 107.654H115.64L115.925 106.241H55.6635V107.654Z" fill="#EAF0F9"/>
<path d="M55.6635 108.818C55.6635 108.818 110.784 108.818 112.647 108.818C114.513 108.818 115.636 107.648 115.636 107.648H55.6635V108.818Z" fill="#314572"/>
<path d="M60.2574 101.533H17.1636L23.1468 97.0799H60.2574V101.533Z" fill="#EAF0F9"/>
<path d="M18.5856 96.3558H96.7034V96.019H19.7785L18.5856 96.3558Z" fill="#AEB7C1"/>
<path d="M60.2573 105.502H40.9418L42.5089 102.601H60.2573V105.502Z" fill="#EAF0F9"/>
<path d="M42.3546 102.89H73.51V102.601H42.6259L42.3546 102.89Z" fill="#AEB7C1"/>
<path d="M60.2573 107.677H0.285358L0 106.264H60.2573V107.677Z" fill="#EAF0F9"/>
<path d="M60.2573 108.845C60.2573 108.845 5.13649 108.845 3.27465 108.845C1.4128 108.845 0.285413 107.676 0.285413 107.676H60.262V108.845H60.2573Z" fill="#314572"/>
<path d="M29.0878 98.7786H22.4497V99.2511H29.0878V98.7786Z" fill="#101D34"/>
<path d="M29.0878 99.0227H22.4497V99.266H29.0878V99.0227Z" fill="#101D34"/>
<path d="M30.828 98.7786H26.9032V99.2511H30.828V98.7786Z" fill="#101D34"/>
<path d="M30.828 99.0227H26.9032V99.266H30.828V99.0227Z" fill="#101D34"/>
<path d="M35.3189 98.7786H31.394V99.2511H35.3189V98.7786Z" fill="#101D34"/>
<path d="M35.3189 99.0227H31.394V99.266H35.3189V99.0227Z" fill="#101D34"/>
<path d="M39.7723 98.7786H35.8475V99.2511H39.7723V98.7786Z" fill="#101D34"/>
<path d="M39.7723 99.0227H35.8475V99.266H39.7723V99.0227Z" fill="#101D34"/>
<path d="M44.1976 98.7786H40.2728V99.2511H44.1976V98.7786Z" fill="#101D34"/>
<path d="M44.1976 99.0227H40.2728V99.266H44.1976V99.0227Z" fill="#101D34"/>
<path d="M48.6557 98.7786H44.7309V99.2511H48.6557V98.7786Z" fill="#101D34"/>
<path d="M48.6557 99.0227H44.7309V99.266H48.6557V99.0227Z" fill="#101D34"/>
<path d="M53.1419 98.7786H49.2171V99.2511H53.1419V98.7786Z" fill="#101D34"/>
<path d="M53.1419 99.0227H49.2171V99.266H53.1419V99.0227Z" fill="#101D34"/>
<path d="M57.6 98.7786H53.6752V99.2511H57.6V98.7786Z" fill="#101D34"/>
<path d="M57.6 99.0227H53.6752V99.266H57.6V99.0227Z" fill="#101D34"/>
<path d="M61.9646 98.7688H58.0398V99.2412H61.9646V98.7688Z" fill="#101D34"/>
<path d="M61.9646 99.0168H58.0398V99.2601H61.9646V99.0168Z" fill="#101D34"/>
<path d="M66.4227 98.7688H62.4979V99.2412H66.4227V98.7688Z" fill="#101D34"/>
<path d="M66.4227 99.0168H62.4979V99.2601H66.4227V99.0168Z" fill="#101D34"/>
<path d="M70.9088 98.7688H66.9841V99.2412H70.9088V98.7688Z" fill="#101D34"/>
<path d="M70.9088 99.0168H66.9841V99.2601H70.9088V99.0168Z" fill="#101D34"/>
<path d="M75.367 98.7688H71.4422V99.2412H75.367V98.7688Z" fill="#101D34"/>
<path d="M75.367 99.0168H71.4422V99.2601H75.367V99.0168Z" fill="#101D34"/>
<path d="M79.7927 98.7688H75.8678V99.2412H79.7927V98.7688Z" fill="#101D34"/>
<path d="M79.7927 99.0168H75.8678V99.2601H79.7927V99.0168Z" fill="#101D34"/>
<path d="M84.2508 98.7688H80.3259V99.2412H84.2508V98.7688Z" fill="#101D34"/>
<path d="M84.2508 99.0168H80.3259V99.2601H84.2508V99.0168Z" fill="#101D34"/>
<path d="M88.7369 98.7688H84.812V99.2412H88.7369V98.7688Z" fill="#101D34"/>
<path d="M88.7369 99.0168H84.812V99.2601H88.7369V99.0168Z" fill="#101D34"/>
<path d="M93.1997 98.7688H87.4364V99.2412H93.1997V98.7688Z" fill="#101D34"/>
<path d="M93.1997 99.0168H87.4364V99.2601H93.1997V99.0168Z" fill="#101D34"/>
<path d="M28.5591 99.5935H21.4859V100.066H28.5591V99.5935Z" fill="#101D34"/>
<path d="M28.5591 99.8376H21.4859V100.081H28.5591V99.8376Z" fill="#101D34"/>
<path d="M33.0126 99.5935H29.0878V100.066H33.0126V99.5935Z" fill="#101D34"/>
<path d="M33.0126 99.8376H29.0878V100.081H33.0126V99.8376Z" fill="#101D34"/>
<path d="M37.4988 99.5935H33.5739V100.066H37.4988V99.5935Z" fill="#101D34"/>
<path d="M37.4988 99.8376H33.5739V100.081H37.4988V99.8376Z" fill="#101D34"/>
<path d="M41.9569 99.5935H38.0321V100.066H41.9569V99.5935Z" fill="#101D34"/>
<path d="M41.9569 99.8376H38.0321V100.081H41.9569V99.8376Z" fill="#101D34"/>
<path d="M46.3823 99.5935H42.4574V100.066H46.3823V99.5935Z" fill="#101D34"/>
<path d="M46.3823 99.8376H42.4574V100.081H46.3823V99.8376Z" fill="#101D34"/>
<path d="M50.8404 99.5935H46.9156V100.066H50.8404V99.5935Z" fill="#101D34"/>
<path d="M50.8404 99.8376H46.9156V100.081H50.8404V99.8376Z" fill="#101D34"/>
<path d="M55.3266 99.5935H51.4017V100.066H55.3266V99.5935Z" fill="#101D34"/>
<path d="M55.3266 99.8376H51.4017V100.081H55.3266V99.8376Z" fill="#101D34"/>
<path d="M59.7846 99.5935H55.8598V100.066H59.7846V99.5935Z" fill="#101D34"/>
<path d="M59.7846 99.8376H55.8598V100.081H59.7846V99.8376Z" fill="#101D34"/>
<path d="M64.1493 99.5837H60.2244V100.056H64.1493V99.5837Z" fill="#101D34"/>
<path d="M64.1493 99.8317H60.2244V100.075H64.1493V99.8317Z" fill="#101D34"/>
<path d="M68.6073 99.5837H64.6825V100.056H68.6073V99.5837Z" fill="#101D34"/>
<path d="M68.6073 99.8317H64.6825V100.075H68.6073V99.8317Z" fill="#101D34"/>
<path d="M73.0936 99.5837H69.1687V100.056H73.0936V99.5837Z" fill="#101D34"/>
<path d="M73.0936 99.8317H69.1687V100.075H73.0936V99.8317Z" fill="#101D34"/>
<path d="M77.5516 99.5837H73.6268V100.056H77.5516V99.5837Z" fill="#101D34"/>
<path d="M77.5516 99.8317H73.6268V100.075H77.5516V99.8317Z" fill="#101D34"/>
<path d="M81.9771 99.5837H78.0522V100.056H81.9771V99.5837Z" fill="#101D34"/>
<path d="M81.9771 99.8317H78.0522V100.075H81.9771V99.8317Z" fill="#101D34"/>
<path d="M86.4351 99.5837H82.5103V100.056H86.4351V99.5837Z" fill="#101D34"/>
<path d="M86.4351 99.8317H82.5103V100.075H86.4351V99.8317Z" fill="#101D34"/>
<path d="M90.9213 99.5837H86.9965V100.056H90.9213V99.5837Z" fill="#101D34"/>
<path d="M90.9213 99.8317H86.9965V100.075H90.9213V99.8317Z" fill="#101D34"/>
<path d="M94.2428 99.5837H90.1122V100.056H94.2428V99.5837Z" fill="#101D34"/>
<path d="M94.2428 99.8317H90.1122V100.075H94.2428V99.8317Z" fill="#101D34"/>
<path d="M29.3122 100.464H20.7983V100.935H29.3122V100.464Z" fill="#101D34"/>
<path d="M29.3122 100.712H20.7983V100.954H29.3122V100.712Z" fill="#101D34"/>
<path d="M31.0524 100.464H27.1275V100.935H31.0524V100.464Z" fill="#101D34"/>
<path d="M31.0524 100.712H27.1275V100.954H31.0524V100.712Z" fill="#101D34"/>
<path d="M35.5386 100.464H31.6138V100.935H35.5386V100.464Z" fill="#101D34"/>
<path d="M35.5386 100.712H31.6138V100.954H35.5386V100.712Z" fill="#101D34"/>
<path d="M39.9919 100.464H36.0671V100.935H39.9919V100.464Z" fill="#101D34"/>
<path d="M39.9919 100.712H36.0671V100.954H39.9919V100.712Z" fill="#101D34"/>
<path d="M44.422 100.464H40.4971V100.935H44.422V100.464Z" fill="#101D34"/>
<path d="M44.422 100.712H40.4971V100.954H44.422V100.712Z" fill="#101D34"/>
<path d="M48.8754 100.464H44.9506V100.935H48.8754V100.464Z" fill="#101D34"/>
<path d="M48.8754 100.712H44.9506V100.954H48.8754V100.712Z" fill="#101D34"/>
<path d="M53.3663 100.464H49.4414V100.935H53.3663V100.464Z" fill="#101D34"/>
<path d="M53.3663 100.712H49.4414V100.954H53.3663V100.712Z" fill="#101D34"/>
<path d="M57.8197 100.464H53.8949V100.935H57.8197V100.464Z" fill="#101D34"/>
<path d="M57.8197 100.712H53.8949V100.954H57.8197V100.712Z" fill="#101D34"/>
<path d="M62.1892 100.454H58.2644V100.926H62.1892V100.454Z" fill="#101D34"/>
<path d="M62.1892 100.702H58.2644V100.945H62.1892V100.702Z" fill="#101D34"/>
<path d="M66.6427 100.454H62.7178V100.926H66.6427V100.454Z" fill="#101D34"/>
<path d="M66.6427 100.702H62.7178V100.945H66.6427V100.702Z" fill="#101D34"/>
<path d="M71.1335 100.454H67.2087V100.926H71.1335V100.454Z" fill="#101D34"/>
<path d="M71.1335 100.702H67.2087V100.945H71.1335V100.702Z" fill="#101D34"/>
<path d="M75.587 100.454H71.6621V100.926H75.587V100.454Z" fill="#101D34"/>
<path d="M75.587 100.702H71.6621V100.945H75.587V100.702Z" fill="#101D34"/>
<path d="M80.0123 100.454H76.0874V100.926H80.0123V100.454Z" fill="#101D34"/>
<path d="M80.0123 100.702H76.0874V100.945H80.0123V100.702Z" fill="#101D34"/>
<path d="M84.4705 100.454H80.5456V100.926H84.4705V100.454Z" fill="#101D34"/>
<path d="M84.4705 100.702H80.5456V100.945H84.4705V100.702Z" fill="#101D34"/>
<path d="M88.9566 100.454H85.0317V100.926H88.9566V100.454Z" fill="#101D34"/>
<path d="M88.9566 100.702H85.0317V100.945H88.9566V100.702Z" fill="#101D34"/>
<path d="M94.907 100.454H87.6562V100.926H94.907V100.454Z" fill="#101D34"/>
<path d="M94.907 100.702H87.6562V100.945H94.907V100.702Z" fill="#101D34"/>
<path d="M28.4422 97.8141H23.1936V98.2866H28.4422V97.8141Z" fill="#101D34"/>
<path d="M28.4422 98.0621H23.1936V98.3054H28.4422V98.0621Z" fill="#101D34"/>
<path d="M32.8958 97.8141H28.9709V98.2866H32.8958V97.8141Z" fill="#101D34"/>
<path d="M32.8958 98.0621H28.9709V98.3054H32.8958V98.0621Z" fill="#101D34"/>
<path d="M37.3819 97.8141H33.4572V98.2866H37.3819V97.8141Z" fill="#101D34"/>
<path d="M37.3819 98.0621H33.4572V98.3054H37.3819V98.0621Z" fill="#101D34"/>
<path d="M41.8401 97.8141H37.9152V98.2866H41.8401V97.8141Z" fill="#101D34"/>
<path d="M41.8401 98.0621H37.9152V98.3054H41.8401V98.0621Z" fill="#101D34"/>
<path d="M46.2654 97.8141H42.3406V98.2866H46.2654V97.8141Z" fill="#101D34"/>
<path d="M46.2654 98.0621H42.3406V98.3054H46.2654V98.0621Z" fill="#101D34"/>
<path d="M50.7236 97.8141H46.7987V98.2866H50.7236V97.8141Z" fill="#101D34"/>
<path d="M50.7236 98.0621H46.7987V98.3054H50.7236V98.0621Z" fill="#101D34"/>
<path d="M55.2097 97.8141H51.2849V98.2866H55.2097V97.8141Z" fill="#101D34"/>
<path d="M55.2097 98.0621H51.2849V98.3054H55.2097V98.0621Z" fill="#101D34"/>
<path d="M59.6678 97.8141H55.7429V98.2866H59.6678V97.8141Z" fill="#101D34"/>
<path d="M59.6678 98.0621H55.7429V98.3054H59.6678V98.0621Z" fill="#101D34"/>
<path d="M64.0324 97.8102H60.1075V98.2826H64.0324V97.8102Z" fill="#101D34"/>
<path d="M64.0324 98.0543H60.1075V98.2975H64.0324V98.0543Z" fill="#101D34"/>
<path d="M68.4905 97.8102H64.5656V98.2826H68.4905V97.8102Z" fill="#101D34"/>
<path d="M68.4905 98.0543H64.5656V98.2975H68.4905V98.0543Z" fill="#101D34"/>
<path d="M72.9767 97.8102H69.0518V98.2826H72.9767V97.8102Z" fill="#101D34"/>
<path d="M72.9767 98.0543H69.0518V98.2975H72.9767V98.0543Z" fill="#101D34"/>
<path d="M77.4348 97.8102H73.5099V98.2826H77.4348V97.8102Z" fill="#101D34"/>
<path d="M77.4348 98.0543H73.5099V98.2975H77.4348V98.0543Z" fill="#101D34"/>
<path d="M81.8601 97.8102H77.9353V98.2826H81.8601V97.8102Z" fill="#101D34"/>
<path d="M81.8601 98.0543H77.9353V98.2975H81.8601V98.0543Z" fill="#101D34"/>
<path d="M86.3183 97.8102H82.3934V98.2826H86.3183V97.8102Z" fill="#101D34"/>
<path d="M86.3183 98.0543H82.3934V98.2975H86.3183V98.0543Z" fill="#101D34"/>
<path d="M90.8044 97.8102H86.8795V98.2826H90.8044V97.8102Z" fill="#101D34"/>
<path d="M90.8044 98.0543H86.8795V98.2975H90.8044V98.0543Z" fill="#101D34"/>
<path d="M92.1752 97.8102H89.9953V98.2826H92.1752V97.8102Z" fill="#101D34"/>
<path d="M92.1752 98.0543H89.9953V98.2975H92.1752V98.0543Z" fill="#101D34"/>
<path d="M29.8598 55.5631H24.5503V70.5654H29.8598V55.5631Z" fill="#729EDB"/>
<path d="M37.2463 52.7897H31.9368V70.5661H37.2463V52.7897Z" fill="#729EDB"/>
<path d="M44.6329 63.0665H39.3234V70.57H44.6329V63.0665Z" fill="#729EDB"/>
<path d="M52.0194 48.8785H46.7099V70.5657H52.0194V48.8785Z" fill="#ED971B"/>
<path d="M30.9919 77.3864C33.5929 77.3864 35.7026 79.5195 35.7026 82.1486C35.7026 84.7776 33.5929 86.9107 30.9919 86.9107C28.3909 86.9107 26.2812 84.7776 26.2812 82.1486C26.2812 79.5195 28.3909 77.3864 30.9919 77.3864Z" fill="#153F5E"/>
<path d="M49.353 82.4249C49.0162 84.9883 46.6163 86.7941 43.9967 86.4526C41.3723 86.1111 39.5199 83.7581 39.8567 81.1898C40.1935 78.6263 42.5933 76.8206 45.213 77.1621C47.8373 77.5036 49.6898 79.8613 49.353 82.4249Z" fill="#D7E7F5"/>
<path d="M34.0231 78.6264C33.2091 77.7984 32.1004 77.2698 30.8655 77.223V81.8168L34.0231 78.6264Z" fill="#D7E7F5"/>
<path d="M30.9685 77.2309C28.4984 77.3058 26.5056 79.3079 26.4073 81.8013H30.9685V77.2309Z" fill="#D7E7F5"/>
<path d="M41.7558 77.9513C40.7874 78.7513 40.081 79.9208 39.8519 81.2961L44.5673 81.909L41.7558 77.9513Z" fill="#D7E7F5"/>
<path d="M45.3205 77.1482L44.0996 86.4246C46.6491 86.6586 48.9413 84.8809 49.2688 82.3782C49.6009 79.8754 47.8419 77.5739 45.3205 77.1482Z" fill="#ED971B"/>
<path d="M39.8378 81.3152C39.5946 83.7619 41.4471 86.0027 44.0667 86.4377L44.6562 81.9421L39.8378 81.3152Z" fill="#729EDB"/>
<path d="M30.9684 79.8429C32.1987 79.8429 33.1997 80.8533 33.1997 82.1024C33.1997 83.3514 32.1987 84.3618 30.9684 84.3618C29.738 84.3618 28.737 83.3514 28.737 82.1024C28.737 80.8581 29.738 79.8429 30.9684 79.8429Z" fill="white"/>
<path d="M46.8034 82.0601C46.6444 83.2764 45.5076 84.1278 44.2632 83.9687C43.0189 83.805 42.1441 82.6917 42.3031 81.4753C42.4622 80.2591 43.599 79.4077 44.8433 79.5668C46.083 79.7258 46.9624 80.8438 46.8034 82.0601Z" fill="white"/>
<path d="M29.8598 72.5029H24.5503V73.1063H29.8598V72.5029Z" fill="#153F5E"/>
<path d="M37.1621 72.5029H31.8526V73.1063H37.1621V72.5029Z" fill="#153F5E"/>
<path d="M44.7403 72.5029H39.4308V73.1063H44.7403V72.5029Z" fill="#153F5E"/>
<path d="M51.9212 72.5029H46.6117V73.1063H51.9212V72.5029Z" fill="#153F5E"/>
<path d="M90.4305 52.6952L85.5046 55.8528L80.2698 60.0349L77.0888 56.5826L71.1338 64.5773L67.4943 60.7647L61.3802 67.8566L56.1454 65.3211V72.9416H90.4305V52.6952Z" fill="#ED971B"/>
<path d="M90.4305 61.0548L84.976 64.5307L80.2698 65.5411L77.0888 63.4312L71.1338 68.3198L67.4943 65.9902L61.3802 70.3266L56.1454 68.7782V73.4328H90.4305V61.0548Z" fill="#729EDB"/>
<path d="M65.8382 75.9593H56.253V76.6376H65.8382V75.9593Z" fill="#729EDB"/>
<path d="M71.6904 77.8017H56.253V78.4801H71.6904V77.8017Z" fill="#729EDB"/>
<path d="M71.6904 79.8803H56.253V80.2171H71.6904V79.8803Z" fill="#729EDB"/>
<path d="M71.6904 81.6144H56.253V81.9512H71.6904V81.6144Z" fill="#729EDB"/>
<path d="M71.6904 83.3505H56.253V83.6873H71.6904V83.3505Z" fill="#729EDB"/>
<path d="M90.4352 76.105H74.9977V76.4418H90.4352V76.105Z" fill="#729EDB"/>
<path d="M90.4352 77.845H74.9977V78.1818H90.4352V77.845Z" fill="#729EDB"/>
<path d="M90.4352 79.5811H74.9977V79.9179H90.4352V79.5811Z" fill="#729EDB"/>
<path d="M85.8975 81.3152H74.9977V81.6521H85.8975V81.3152Z" fill="#729EDB"/>
<path d="M104.324 23.5087C104.324 22.9707 103.922 22.5216 103.421 22.5216C85.3218 22.5216 82.2578 15.0134 82.2296 14.9433C82.094 14.5784 81.3924 14.003 81.3924 14.003C81.3924 14.003 80.6953 14.5643 80.555 14.9292C80.5269 15.0088 77.3973 22.5263 59.3637 22.5263C58.8631 22.5263 58.4608 22.9754 58.4608 23.5133V46.908C58.4608 60.6847 80.1105 71.2196 81.0274 71.6593C81.1491 71.72 81.266 71.7435 81.397 71.7435C81.5139 71.7435 81.6449 71.72 81.7572 71.6593C82.3466 71.3786 91.4126 66.9626 97.8729 60.2168L99.0658 58.9117C102.111 55.3939 104.333 51.3193 104.333 46.908V23.5087H104.324Z" fill="white"/>
<path d="M81.383 18.6489C82.1267 19.4442 83.1513 20.3331 84.5359 21.1937C88.6432 23.748 94.3269 25.1467 101.461 25.3619V46.904C101.461 50.1132 99.9312 53.5094 96.9186 57.0039L95.7772 58.2576C90.6734 63.5765 83.8155 67.3796 81.397 68.6333C79.5679 67.6837 75.3343 65.3446 71.1943 62.0421C68.219 59.6703 65.8708 57.2612 64.2147 54.8847C62.3014 52.1434 61.3331 49.4582 61.3331 46.9087V25.3619C68.4389 25.1467 74.118 23.748 78.23 21.1891C79.61 20.3283 80.6345 19.4442 81.383 18.6489ZM81.3924 13.999C81.3924 13.999 80.6953 14.5604 80.555 14.9253C80.5269 15.0048 77.3973 22.5223 59.3637 22.5223C58.8631 22.5223 58.4608 22.9714 58.4608 23.5094V46.904C58.4608 60.6807 80.1105 71.2156 81.0274 71.6553C81.1491 71.7161 81.266 71.7395 81.397 71.7395C81.5139 71.7395 81.6449 71.7161 81.7572 71.6553C82.3466 71.3746 91.4126 66.9587 97.8729 60.2129L99.0658 58.9078C102.111 55.39 104.333 51.3154 104.333 46.904V23.5094C104.333 22.9714 103.931 22.5223 103.43 22.5223C85.3312 22.5223 82.2671 15.0142 82.239 14.944C82.0987 14.5744 81.3924 13.999 81.3924 13.999Z" fill="#FD6C26"/>
<g opacity="0.6">
<path d="M67.143 46.7926V27.0281C67.143 26.9719 67.1478 26.9204 67.157 26.8643C66.432 26.897 65.6741 26.9158 64.8789 26.9158C64.4813 26.9158 64.1631 27.2666 64.1631 27.6829V45.8148C64.1631 52.2658 70.4363 57.7952 75.5681 61.2382C71.2737 57.5333 67.143 52.4903 67.143 46.7926Z" fill="#FFDCCA"/>
</g>
<path d="M81.631 55.1284C74.6654 55.1284 69.0051 49.4634 69.0051 42.5026C69.0051 35.5417 74.6701 29.872 81.631 29.872C83.142 29.872 84.6202 30.1339 86.0236 30.6578C86.6317 30.8824 86.9405 31.5607 86.716 32.1642C86.4914 32.7723 85.8131 33.0811 85.2096 32.8566C84.0683 32.4309 82.8659 32.2203 81.6356 32.2203C75.9659 32.2203 71.3534 36.8329 71.3534 42.5026C71.3534 48.1723 75.9659 52.7848 81.6356 52.7848C87.3054 52.7848 91.9178 48.1723 91.9178 42.5026C91.9178 41.6839 91.8197 40.8699 91.6325 40.0793C91.4829 39.4478 91.8664 38.8163 92.4979 38.6619C93.1295 38.5123 93.761 38.8958 93.9154 39.5273C94.1493 40.4957 94.2662 41.4968 94.2662 42.4978C94.2569 49.4634 88.5918 55.1284 81.631 55.1284Z" fill="#FD6C26"/>
<path d="M82.8751 48.448C82.8751 48.448 81.2192 49.828 79.755 47.6574C78.2907 45.4868 76.4569 42.8017 74.9881 40.7807C73.5192 38.7599 76.8734 37.1179 78.1551 38.6756C79.4322 40.2334 81.6308 42.4976 81.6308 42.4976C81.6308 42.4976 90.7202 32.6317 91.9739 31.3031C93.2322 29.9746 95.3514 29.7454 93.9667 31.8224C92.582 33.8995 82.8751 48.448 82.8751 48.448Z" fill="#FD6C26"/>
</svg>
