<svg width="18" height="12" viewBox="0 0 18 12" fill="none" xmlns="http://www.w3.org/2000/svg">
<path d="M0.814804 5.1854C0.364801 5.1854 0 5.5502 0 6.0002C0 6.45019 0.364801 6.81506 0.814804 6.81506V5.1854ZM17.6871 6.5764C18.0053 6.25816 18.0053 5.74225 17.6871 5.42405L12.5017 0.238649C12.1836 -0.0795498 11.6676 -0.0795498 11.3494 0.238649C11.0312 0.556859 11.0312 1.07277 11.3494 1.39097L15.9586 6.0002L11.3494 10.6094C11.0312 10.9276 11.0312 11.4436 11.3494 11.7618C11.6676 12.0799 12.1836 12.0799 12.5017 11.7618L17.6871 6.5764ZM0.814804 6.81506H17.111V5.1854H0.814804V6.81506Z" fill="#FD6C26"/>
</svg>
