<svg width="158" height="24" viewBox="0 0 158 24" fill="none" xmlns="http://www.w3.org/2000/svg">
<g clip-path="url(#clip0_1_411)">
<path fill-rule="evenodd" clip-rule="evenodd" d="M4.16893 20.7744C6.23017 22.8357 9.02638 23.9969 11.9418 24H12.3375C15.2544 23.9969 18.0491 22.8357 20.1119 20.7729C22.1731 18.7101 23.3329 15.9139 23.3359 12.997V10.9984C23.3329 8.08302 22.1731 5.28682 20.1104 3.22557C18.0491 1.16432 15.2529 0.00305596 12.3375 0H11.9418C9.02638 0.00305596 6.23017 1.1628 4.16893 3.22557C2.10615 5.28682 0.946415 8.08302 0.943359 10.9984V13.0001C0.946415 15.9155 2.10615 18.7117 4.16893 20.7729V20.7744ZM7.44492 6.50309C8.63827 5.31126 10.2549 4.64048 11.9418 4.63895L12.3253 4.63589C14.0122 4.63742 15.6303 5.3082 16.8221 6.50156C18.0155 7.69491 18.6863 9.31151 18.6878 10.9999V12.9894C18.6878 14.6763 18.0201 16.2944 16.8298 17.4893C15.6395 18.6842 14.0244 19.358 12.3375 19.3626H11.9418C10.2549 19.3611 8.63674 18.6903 7.44492 17.4969C6.25157 16.3036 5.58078 14.6854 5.57925 12.9985V10.9999C5.58231 9.31304 6.25309 7.69644 7.44645 6.50462L7.44492 6.50309ZM91.3005 23.9924C90.674 23.9924 89.1782 23.9725 88.2201 23.9251V21.1335C89.3462 21.2359 90.2416 21.3031 91.108 21.3031C91.8537 21.3031 92.3059 21.2512 92.3059 20.5361V19.6621L83.6117 19.7461V17.5687L92.3059 17.6237V16.3968L82.1189 16.493V14.0941L92.3059 14.1904V12.9634L83.6637 13.0245V10.8823L92.3059 10.9556V9.78978L83.7584 9.84784V4.99497L92.3105 5.05609V3.85204L82.2503 3.95747V1.28809H92.3105C92.3105 1.28809 92.2586 0.32393 92.1974 0.00305428H95.7668C95.7057 0.32393 95.6507 1.28809 95.6507 1.28809H105.851V3.95747L95.6614 3.85204V5.05609L104.362 4.99802V9.84478L95.6614 9.78978V10.9617L104.33 10.9128L104.278 13.9902L106.111 13.9673V16.5954L104.284 16.6367L104.382 19.656H95.6614V20.8676C95.6614 23.5783 95.0899 23.9862 91.2807 23.9862L91.3036 23.9924H91.3005ZM95.6813 17.6268H100.928V16.3998H95.6813V17.6268ZM95.6813 14.1812H100.928V12.9542H95.6813V14.1812ZM95.6813 8.03718H100.354V6.81327H95.6813V8.03718ZM87.7724 8.03718H92.3166V6.81327H87.7724V8.03718ZM79.1225 23.9939C76.4272 22.362 74.6562 20.8707 73.0442 18.9271C71.5178 17.1333 70.5123 15.315 69.5726 12.6517L69.3511 12.0283L69.1417 12.6547C68.0294 15.9766 66.9262 17.8759 64.926 19.905C63.3614 21.5201 61.5645 22.8922 59.5949 23.9771L57.2128 20.6063C60.8861 18.7697 63.0497 16.8766 64.6357 14.1292C66.2966 11.2673 67.1386 7.41682 67.1386 2.68925C67.1477 2.09792 67.1156 1.50659 67.0438 0.919843H71.2427C71.1617 1.53104 71.1251 2.14681 71.1342 2.76412C71.1342 5.54046 71.5453 8.44516 72.2145 10.3475C73.2138 13.1376 74.9206 15.619 77.1667 17.5489C78.464 18.6979 79.9278 19.6453 81.5062 20.3619L79.121 23.9939H79.1225ZM43.9835 20.2931C45.1341 21.4635 46.8531 22.0549 49.0885 22.0549L49.0824 22.0381C50.945 22.0381 52.4302 21.6377 53.4983 20.8478C54.4915 20.0853 55.1699 18.9852 55.4098 17.7567H51.5516C51.2659 18.4916 50.5966 19.248 49.0335 19.248C48.1305 19.248 47.4322 18.9561 46.9921 18.4381C46.5536 17.9217 46.3061 17.1348 46.2281 16.0331L46.1991 15.6358H55.6069V14.4593C55.6069 12.3109 55.0278 10.6179 53.9047 9.4414C52.7801 8.26485 51.1788 7.67047 49.1435 7.67047C46.9952 7.67047 45.2793 8.32444 44.0706 9.62017C42.862 10.9174 42.2447 12.7571 42.2447 15.0903C42.2447 17.4236 42.833 19.1212 43.9835 20.2901V20.2931ZM46.2129 13.1758C46.4207 11.3651 47.4322 10.4071 49.1374 10.4071H49.1573C49.5133 10.3842 49.8693 10.4331 50.2055 10.5538C50.5416 10.6745 50.8488 10.8624 51.1085 11.1054C51.5409 11.5576 51.7808 12.262 51.8205 13.1987L51.8374 13.3347H46.1701L46.2159 13.1758H46.2129ZM35.5857 21.8379V13.4462C35.5857 12.7754 35.3199 12.1322 34.8447 11.6585C34.371 11.1848 33.7277 10.9174 33.0569 10.9174C32.3862 10.9174 31.7429 11.1833 31.2692 11.6585C30.7955 12.1322 30.5281 12.7754 30.5281 13.4462V21.8379H26.5432V7.66741H30.5342V9.34513L30.7971 9.0594C31.4571 8.32903 32.3159 7.80798 33.2693 7.55892C34.2213 7.31139 35.2267 7.34653 36.1587 7.6613C37.0908 7.97759 37.9113 8.55822 38.5179 9.33291C39.1246 10.1091 39.4913 11.0442 39.5723 12.0252L39.5952 12.4744V21.8379H35.5842H35.5857Z" fill="#FD6C26"/>
<path d="M153.477 0H113.444C111.419 0 109.777 1.64184 109.777 3.66716V20.3222C109.777 22.3475 111.419 23.9893 113.444 23.9893H153.477C155.502 23.9893 157.144 22.3475 157.144 20.3222V3.66716C157.144 1.64184 155.502 0 153.477 0Z" fill="#FD6C26"/>
<path d="M130.162 9.05501H128.745C128.647 11.5976 128.337 13.7123 127.813 15.5168C127.211 17.5934 126.299 19.2421 124.728 21.0665C124.34 20.3865 123.952 19.922 123.35 19.456C121.311 19.8441 119.139 20.1543 116.208 20.4644C115.724 20.5225 115.588 20.5424 115.218 20.6004L114.868 18.504C115.1 18.5239 115.198 18.5239 115.354 18.5239C116.014 18.5239 117.022 18.446 118.885 18.2718V17.1075H117.236C116.518 17.1075 116.092 17.1273 115.568 17.2053V15.3426C115.994 15.4206 116.46 15.4404 117.256 15.4404H118.887V14.5664H116.908C116.132 14.5664 115.685 14.5863 115.181 14.6642V12.8016C115.647 12.8795 116.054 12.8994 116.928 12.8994H118.888V12.0453H116.831C116.133 12.0453 115.977 12.0453 115.337 12.0835C115.375 11.7152 115.395 11.3653 115.395 10.8993V8.90068C115.395 8.33838 115.395 8.14433 115.337 7.73636C115.745 7.77456 115.977 7.77456 116.831 7.77456H122.827C123.701 7.77456 123.914 7.77456 124.341 7.73636C124.283 8.16267 124.283 8.33839 124.283 9.07487V10.8214C124.303 11.5013 124.303 11.9276 124.322 12.0835C123.895 12.0453 123.681 12.0453 122.847 12.0453H120.751V12.8994H122.535C123.467 12.8994 123.836 12.8795 124.34 12.8215V14.6459C123.778 14.5878 123.448 14.568 122.535 14.568H120.751V15.442H122.207C123.119 15.442 123.469 15.4221 123.953 15.364V17.1884C123.371 17.1304 123.079 17.1105 122.207 17.1105H120.751V18.0808C122.148 17.926 123.261 17.79 124.088 17.6728L124.108 18.391C125.698 16.2564 126.494 13.4235 126.728 9.05653H126.32C125.388 9.05653 125.098 9.0764 124.71 9.13446V7.05793C125.156 7.13586 125.524 7.15573 126.34 7.15573H126.766C126.786 6.14726 126.786 5.95321 126.786 4.72929C126.786 4.04934 126.748 3.6811 126.67 3.23493H128.941C128.863 3.67499 128.818 4.98141 128.805 7.1542H130.377C131.289 7.1542 131.715 7.13433 132.259 7.07627C132.221 7.38696 132.169 8.86809 132.104 11.5196C132.007 14.8384 131.735 17.8256 131.425 19.0098C131.075 20.33 130.455 20.7563 128.844 20.7563C128.702 20.7563 128.184 20.7369 127.292 20.6982C127.214 19.8242 127.118 19.378 126.808 18.5835C127.468 18.7195 128.05 18.7974 128.554 18.7974C129.33 18.7974 129.486 18.5835 129.699 17.1869C129.971 15.4786 130.107 13.1118 130.165 9.05653L130.162 9.05501ZM118.887 9.32699H117.178V10.5112H118.887V9.32699ZM120.749 9.32699V10.5112H122.574V9.32699H120.749ZM116.984 4.57344V4.35952C116.984 3.85529 116.964 3.54511 116.926 3.2334H119.023C118.965 3.50538 118.945 3.75749 118.945 4.33966V4.57191H120.691V4.35799C120.691 3.79569 120.671 3.54358 120.613 3.25173H122.69C122.632 3.56191 122.632 3.77583 122.632 4.31979V4.57191H123.214C123.816 4.57191 124.242 4.55205 124.824 4.47412V6.37646C124.416 6.31839 124.068 6.29853 123.214 6.29853H122.632V6.45438C122.632 6.88069 122.652 7.15267 122.69 7.38645H120.633C120.671 7.1542 120.691 6.94028 120.691 6.43605V6.30006H118.945V6.43605C118.945 6.94028 118.965 7.13433 119.003 7.38645H116.926C116.964 7.13433 116.984 6.84249 116.984 6.43605V6.30006H116.304C115.432 6.30006 115.082 6.31992 114.772 6.37798V4.47565C115.18 4.55357 115.586 4.57344 116.362 4.57344H116.984Z" fill="white"/>
<path d="M135.109 8.29829L134.779 6.14383C135.478 6.22176 136.564 6.25996 137.67 6.25996H137.942C139.087 4.92145 139.941 3.65934 140.193 2.92285L142.657 3.40875C142.515 3.60229 142.327 3.86103 142.095 4.18497C141.551 4.94132 140.951 5.67933 140.465 6.24163C143.091 6.17643 145.07 6.09902 146.403 6.00938C145.82 5.52501 145.452 5.25302 144.52 4.63113L146.267 3.56461C148.187 4.84505 149.197 5.69919 151.428 7.87198L149.701 9.26856C148.963 8.45414 148.731 8.20202 148.187 7.6382C144.772 7.92852 140.445 8.14244 136.738 8.2005C135.924 8.22036 135.691 8.22036 135.109 8.29829ZM135.885 20.4855L134.119 19.0889C134.799 18.4089 135.089 18.0407 135.536 17.3225C136.002 16.5463 136.216 16.0222 136.584 14.8961L138.428 15.6723C138.04 16.8748 137.826 17.4188 137.264 18.4471C136.778 19.3395 136.526 19.7276 135.885 20.4855ZM138.932 15.0321H141.145C141.067 15.4003 141.047 15.6922 141.047 16.1582V18.331C141.047 18.7772 141.299 18.8352 142.968 18.8352C145.276 18.8352 145.684 18.7772 145.898 18.4853C146.092 18.2134 146.131 17.865 146.17 16.719C146.85 17.049 147.451 17.2232 148.169 17.3012C148.033 18.7757 147.955 19.1836 147.723 19.668C147.277 20.5603 146.597 20.7162 143.24 20.7162C139.591 20.7162 139.029 20.5023 139.029 19.1638V16.389C139.029 15.8267 139.009 15.4569 138.931 15.0306L138.932 15.0321ZM136.682 12.7814V10.6468C136.682 9.98671 136.662 9.5986 136.604 9.07451C137.088 9.13257 137.554 9.15243 138.466 9.15243H147.509C148.441 9.15243 148.887 9.13257 149.391 9.07451C149.333 9.54054 149.313 9.83085 149.313 10.6468V12.7814C149.313 13.6355 149.333 13.9075 149.391 14.3919C148.867 14.3338 148.479 14.3139 147.645 14.3139H138.33C137.516 14.3139 137.128 14.3338 136.604 14.3919C136.662 13.9457 136.682 13.5958 136.682 12.7814ZM147.199 10.8607H138.738V12.6072H147.199V10.8607ZM145.742 16.5265L144.132 17.8069C143.298 16.7984 142.638 16.1964 141.667 15.5944L143.258 14.4881C144.286 15.1482 144.868 15.6326 145.742 16.5265ZM152.146 19.0874L150.244 20.3296C149.352 18.4869 148.478 17.1667 147.177 15.6143L148.962 14.7219C150.3 16.2942 151.039 17.3027 152.146 19.0874Z" fill="white"/>
</g>
<defs>
<clipPath id="clip0_1_411">
<rect width="158" height="24" fill="white"/>
</clipPath>
</defs>
</svg>
