<svg width="240" height="41" viewBox="0 0 240 41" fill="none" xmlns="http://www.w3.org/2000/svg">
<g clip-path="url(#clip0_1_4147)">
<path fill-rule="evenodd" clip-rule="evenodd" d="M34.0042 36.8558H46.8725C46.8875 36.8558 46.9025 36.8558 46.9175 36.8558C46.9325 36.8558 46.9475 36.8558 46.9625 36.8558H47.1046V36.8538C51.3031 36.7541 54.6758 33.3178 54.6758 29.0932C54.6758 26.0072 52.8758 23.3417 50.2693 22.0904C50.3479 21.4314 50.3883 20.7607 50.3883 20.0804C50.3883 10.8133 42.8802 3.30078 33.6183 3.30078C28.9719 3.30078 24.7668 5.19147 21.7296 8.2459C20.3773 7.59856 18.8628 7.23609 17.2637 7.23609C11.5415 7.23609 6.9028 11.8775 6.9028 17.603C6.9028 18.9182 7.14761 20.1763 7.5941 21.334C3.41729 21.4575 0.0692139 24.8841 0.0692139 29.0932C0.0692139 33.3804 3.54268 36.8558 7.82741 36.8558C7.93399 36.8558 8.04006 36.8538 8.14559 36.8495V36.8558H33.2321C33.3605 36.8586 33.4892 36.8601 33.6183 36.8601C33.7472 36.8601 33.8761 36.8586 34.0042 36.8558ZM17.6082 14.6422H13.3578V29.2905H17.6082V23.7616H26.1087V29.2905H30.3592V14.6422H26.1087V19.7961H17.6082V14.6422ZM31.3986 25.5534H35.6937L39.9353 29.2905H46.5422L41.5907 24.9278C43.6462 24.0189 45.0468 22.2128 45.0468 20.1332C45.0468 17.1397 42.1449 14.713 38.565 14.713H31.3986V18.4241H38.565C39.6938 18.4241 40.6088 19.1893 40.6088 20.1332C40.6088 21.0771 39.6938 21.8423 38.565 21.8423H31.3986V25.5534Z" fill="white"/>
<path d="M215.127 40.0268C214.085 40.0268 211.597 39.9945 210.004 39.9144V35.2723C211.877 35.4434 213.367 35.5555 214.808 35.5555C216.05 35.5555 216.8 35.4701 216.8 34.2788V32.8258L202.34 32.9646V29.343L216.8 29.4338V27.393L199.857 27.5534V23.5629L216.8 23.7232V21.6826L202.426 21.7841V18.221L216.8 18.3439V16.4048L202.583 16.5009V8.42928L216.805 8.53075V6.52754L200.073 6.70383V2.26469H216.805C216.805 2.26469 216.719 0.66212 216.616 0.12793H222.554C222.451 0.66212 222.359 2.26469 222.359 2.26469H239.324V6.70383L222.375 6.52754V8.53075L236.846 8.4346V16.4955L222.375 16.4048V18.3546L236.792 18.2744L236.706 23.392L239.756 23.3546V27.7243L236.717 27.7937L236.879 32.8151H222.375V34.8289C222.375 39.3376 221.425 40.0161 215.089 40.0161M222.413 29.4391H231.141V27.3983H222.413V29.4391ZM222.413 23.7071H231.141V21.6665H222.413V23.7071ZM222.413 13.4881H230.186V11.4528H222.413V13.4881ZM209.259 13.4881H216.816V11.4528H209.259V13.4881Z" fill="white"/>
<path d="M194.873 40.0264C190.391 37.313 187.444 34.8326 184.763 31.5982C182.224 28.6135 180.552 25.5906 178.99 21.1622L178.62 20.1257L178.273 21.1677C176.423 26.6922 174.589 29.8508 171.262 33.2263C168.658 35.9113 165.67 38.1939 162.395 39.9992L158.433 34.393C164.544 31.3379 168.142 28.1902 170.779 23.6206C173.541 18.8612 174.941 12.4574 174.941 4.59375C174.957 3.61082 174.904 2.62802 174.784 1.65234H181.768C181.632 2.66857 181.572 3.69348 181.589 4.71859C181.589 9.33691 182.273 14.1669 183.385 17.3308C185.046 21.9699 187.885 26.0973 191.623 29.308C193.782 31.2189 196.214 32.7957 198.84 33.986L194.873 40.0264Z" fill="white"/>
<path d="M144.921 36.8C141.203 36.8 138.343 35.8161 136.43 33.8699C134.517 31.9239 133.538 29.0048 133.538 25.2209C133.538 21.3397 134.565 18.2801 136.576 16.1233C138.587 13.9664 141.441 12.8799 145.013 12.8799C148.397 12.8799 151.062 13.8691 152.932 15.8259C154.802 17.7828 155.764 20.5991 155.764 24.1722V26.1291H140.116L140.165 26.7886C140.295 28.6211 140.705 29.9292 141.435 30.7888C142.165 31.6483 143.327 32.1347 144.83 32.1347C147.429 32.1347 148.543 30.8752 149.018 29.6536H155.434C155.037 31.6974 153.907 33.5259 152.256 34.7943C150.478 36.1079 148.008 36.7727 144.911 36.7727M145.002 17.426C142.165 17.426 140.484 19.0207 140.138 22.0316L140.062 22.2965H149.489L149.462 22.0695C149.397 20.5126 148.997 19.3396 148.278 18.5882C147.846 18.1826 147.335 17.8701 146.777 17.6702C146.219 17.4702 145.626 17.3871 145.035 17.426" fill="white"/>
<path d="M122.463 36.4379V22.4804C122.463 21.365 122.02 20.2953 121.232 19.5066C120.443 18.7179 119.373 18.2748 118.258 18.2748C117.143 18.2748 116.073 18.7179 115.284 19.5066C114.496 20.2953 114.053 21.365 114.053 22.4804V36.4379H107.426V12.8692H114.064V15.6585L114.501 15.1828C115.599 13.9678 117.028 13.1004 118.613 12.6874C120.197 12.2744 121.868 12.3338 123.419 12.8584C124.97 13.3829 126.334 14.3497 127.342 15.6396C128.351 16.9295 128.96 18.4863 129.095 20.1182L129.133 20.8641V36.4379H122.463Z" fill="white"/>
<path d="M83.1358 40.0383C78.2868 40.0325 73.6378 38.1036 70.2086 34.6742C66.7797 31.2448 64.8508 26.5953 64.8452 21.7456V18.4157C64.8508 13.566 66.7797 8.91648 70.2086 5.48718C73.6378 2.05786 78.2868 0.128769 83.1358 0.123047H83.7953C88.6447 0.128769 93.2936 2.05786 96.7225 5.48718C100.152 8.91648 102.081 13.566 102.086 18.4157V21.7402C102.082 26.591 100.154 31.2417 96.7246 34.6724C93.2954 38.1028 88.6457 40.0325 83.7953 40.0383H83.1358ZM83.1358 7.83689C80.3308 7.83976 77.6415 8.95505 75.6577 10.9382C73.6736 12.9213 72.557 15.6104 72.5527 18.4157V21.7402C72.5558 24.5464 73.6716 27.237 75.6557 29.2213C77.6397 31.2056 80.3301 32.3217 83.1358 32.3245H83.7953C86.6003 32.3159 89.2876 31.1949 91.2674 29.2078C93.2474 27.2207 94.3584 24.5293 94.3569 21.724V18.4157C94.3541 15.6095 93.2382 12.919 91.2541 10.9347C89.2698 8.9504 86.5797 7.83435 83.7737 7.8315L83.1358 7.83689Z" fill="white"/>
</g>
<defs>
<clipPath id="clip0_1_4147">
<rect width="240" height="40.1695" fill="white"/>
</clipPath>
</defs>
</svg>
