<svg width="170" height="29" viewBox="0 0 170 29" fill="none" xmlns="http://www.w3.org/2000/svg">
<g clip-path="url(#clip0_1_4268)">
<path d="M33.2013 26.1063H24.0863C23.9956 26.1083 23.9043 26.1094 23.813 26.1094C23.7215 26.1094 23.6303 26.1083 23.5394 26.1063H5.76978V26.1018C5.69502 26.1049 5.61989 26.1063 5.5444 26.1063C2.50938 26.1063 0.0490112 23.6446 0.0490112 20.6078C0.0490112 17.6264 2.42056 15.1992 5.37914 15.1118C5.06287 14.2917 4.88947 13.4005 4.88947 12.4689C4.88947 8.41335 8.17524 5.12571 12.2284 5.12571C13.3612 5.12571 14.4339 5.38246 15.3918 5.84099C17.5431 3.67743 20.5217 2.3382 23.813 2.3382C30.3734 2.3382 35.6917 7.65956 35.6917 14.2238C35.6917 14.7056 35.6631 15.1807 35.6074 15.6475C37.4537 16.5339 38.7287 18.4219 38.7287 20.6078C38.7287 23.6003 36.3396 26.0343 33.3657 26.1049V26.1063H33.2651C33.2544 26.1063 33.2438 26.1063 33.2332 26.1063C33.2226 26.1063 33.2119 26.1063 33.2013 26.1063Z" fill="#FC6D26"/>
<path d="M9.46173 10.3717H12.4724V14.0224H18.4936V10.3717H21.5044V20.7476H18.4936V16.8313H12.4724V20.7476H9.46173V10.3717Z" fill="white"/>
<path d="M25.283 18.1005H22.2407V15.4718H27.3169C28.1165 15.4718 28.7646 14.9298 28.7646 14.2612C28.7646 13.5926 28.1165 13.0506 27.3169 13.0506H22.2407V10.4219H27.3169C29.8527 10.4219 31.9082 12.1408 31.9082 14.2612C31.9082 15.7342 30.9161 17.0135 29.4601 17.6574L32.9674 20.7476H28.2875L25.283 18.1005Z" fill="white"/>
<path d="M152.381 28.3524C151.643 28.3524 149.881 28.3295 148.753 28.2728V24.9846C150.08 25.1058 151.135 25.1852 152.156 25.1852C153.035 25.1852 153.567 25.1247 153.567 24.2808V23.2516L143.324 23.35V20.7847L153.567 20.8489V19.4034L141.565 19.517V16.6904L153.567 16.8039V15.3585L143.385 15.4304V12.9066L153.567 12.9936V11.6201L143.496 11.6882V5.97078L153.57 6.04265V4.62371L141.718 4.74858V1.60419H153.57C153.57 1.60419 153.509 0.469038 153.436 0.0906525H157.642C157.569 0.469038 157.504 1.60419 157.504 1.60419H169.521V4.74858L157.516 4.62371V6.04265L167.766 5.97454V11.6844L157.516 11.6201V13.0012L167.728 12.9444L167.667 16.5693L169.827 16.5429V19.6381L167.674 19.6872L167.789 23.2441H157.516V24.6705C157.516 27.8641 156.843 28.3448 152.355 28.3448M157.543 20.8527H163.725V19.4072H157.543V20.8527ZM157.543 16.7926H163.725V15.3472H157.543V16.7926ZM157.543 9.55408H163.048V8.11242H157.543V9.55408ZM148.225 9.55408H153.578V8.11242H148.225V9.55408Z" fill="#FC6D26"/>
<path d="M138.035 28.3524C134.86 26.4303 132.773 24.6734 130.874 22.3824C129.075 20.2682 127.891 18.127 126.784 14.9902L126.523 14.256L126.277 14.9941C124.966 18.9073 123.667 21.1446 121.31 23.5356C119.466 25.4375 117.35 27.0543 115.03 28.3331L112.224 24.362C116.552 22.198 119.1 19.9683 120.968 16.7316C122.925 13.3603 123.917 8.82431 123.917 3.25421C123.928 2.55797 123.89 1.86182 123.805 1.17072H128.752C128.656 1.89054 128.614 2.61652 128.626 3.34264C128.626 6.61395 129.11 10.0352 129.898 12.2763C131.074 15.5623 133.085 18.4859 135.733 20.7602C137.262 22.1137 138.985 23.2306 140.845 24.0737L138.035 28.3524Z" fill="#FC6D26"/>
<path d="M102.653 26.0669C100.019 26.0669 97.9933 25.37 96.638 23.9914C95.2827 22.6131 94.5897 20.5453 94.5897 17.8651C94.5897 15.1159 95.3171 12.9487 96.7414 11.4209C98.1657 9.89315 100.187 9.12352 102.718 9.12352C105.114 9.12352 107.002 9.82421 108.327 11.2103C109.651 12.5964 110.333 14.5913 110.333 17.1223V18.5084H99.2491L99.2835 18.9755C99.3755 20.2736 99.6663 21.2001 100.183 21.809C100.7 22.4178 101.523 22.7623 102.588 22.7623C104.429 22.7623 105.218 21.8702 105.555 21.0049H110.099C109.818 22.4526 109.018 23.7478 107.848 24.6462C106.589 25.5767 104.839 26.0476 102.645 26.0476M102.71 12.3437C100.7 12.3437 99.5095 13.4733 99.2644 15.606L99.2107 15.7936H105.888L105.869 15.6328C105.823 14.5301 105.539 13.6992 105.03 13.1669C104.724 12.8796 104.362 12.6583 103.967 12.5166C103.572 12.375 103.152 12.3162 102.733 12.3437" fill="#FC6D26"/>
<path d="M86.7447 25.8103V15.9238C86.7447 15.1337 86.431 14.376 85.8723 13.8173C85.3137 13.2587 84.5561 12.9448 83.7661 12.9448C82.976 12.9448 82.2184 13.2587 81.6598 13.8173C81.1014 14.376 80.7875 15.1337 80.7875 15.9238V25.8103H76.0936V9.1158H80.795V11.0916L81.1051 10.7546C81.8828 9.894 82.895 9.27959 84.0173 8.98704C85.1396 8.69449 86.3229 8.7366 87.4216 9.10815C88.5201 9.47968 89.4863 10.1645 90.2007 11.0782C90.9151 11.9918 91.3467 13.0946 91.4424 14.2505L91.4692 14.7789V25.8103H86.7447Z" fill="#FC6D26"/>
<path d="M58.8879 28.3605C55.4531 28.3563 52.1601 26.99 49.7311 24.5609C47.3023 22.1317 45.936 18.8383 45.9321 15.4031V13.0445C45.936 9.60922 47.3023 6.31583 49.7311 3.88674C52.1601 1.45764 55.4531 0.0911963 58.8879 0.0871429H59.355C62.79 0.0911963 66.083 1.45764 68.5118 3.88674C70.9408 6.31583 72.3071 9.60922 72.3111 13.0445V15.3993C72.308 18.8352 70.9422 22.1295 68.5133 24.5596C66.0843 26.9895 62.7907 28.3563 59.355 28.3605H58.8879ZM58.8879 5.55112C56.901 5.55315 54.9961 6.34315 53.5909 7.74788C52.1855 9.15259 51.3946 11.0574 51.3915 13.0445V15.3993C51.3937 17.387 52.1841 19.2928 53.5895 20.6984C54.9948 22.104 56.9005 22.8945 58.8879 22.8965H59.355C61.3419 22.8904 63.2454 22.0964 64.6477 20.6889C66.0502 19.2813 66.8372 17.3749 66.8361 15.3878V13.0445C66.8341 11.0567 66.0438 9.15096 64.6384 7.74541C63.2328 6.33985 61.3273 5.54931 59.3397 5.5473L58.8879 5.55112Z" fill="#FC6D26"/>
</g>
<defs>
<clipPath id="clip0_1_4268">
<rect width="170" height="28.4534" fill="white"/>
</clipPath>
</defs>
</svg>
