<svg width="158" height="24" viewBox="0 0 158 24" fill="none" xmlns="http://www.w3.org/2000/svg">
<g clip-path="url(#clip0_1_464)">
<path fill-rule="evenodd" clip-rule="evenodd" d="M4.16893 20.7757C6.23017 22.8371 9.02638 23.9969 11.9418 24H12.3375C15.2544 23.9969 18.0491 22.8371 20.1119 20.7742C22.1731 18.7113 23.3329 15.9149 23.3359 12.9978V10.9991C23.3329 8.08353 22.1731 5.28715 20.1104 3.22577C18.0491 1.16439 15.2529 0.00305616 12.3375 0H11.9418C9.02638 0.00305616 6.23017 1.16287 4.16893 3.22577C2.10615 5.28715 0.946415 8.08353 0.943359 10.9991V13.0009C0.946415 15.9165 2.10615 18.7128 4.16893 20.7757ZM7.44492 6.5035C8.63827 5.3116 10.2549 4.64077 11.9418 4.63924L12.3253 4.63619C14.0122 4.63772 15.6303 5.30854 16.8221 6.50197C18.0155 7.6954 18.6863 9.31363 18.6878 11.0006V12.9902C18.6878 14.6772 18.0201 16.2954 16.8298 17.4904C15.6395 18.6853 14.0244 19.3592 12.3375 19.3638H11.9418C10.2549 19.3638 8.63674 18.6915 7.44492 17.498C6.25157 16.3046 5.58078 14.6864 5.57925 12.9994V11.0006C5.58231 9.31363 6.25309 7.69693 7.44645 6.50503L7.44492 6.5035ZM91.3005 23.9939C90.674 23.9939 89.1782 23.974 88.2201 23.9266V21.1349C89.3462 21.2372 90.2416 21.3045 91.108 21.3045C91.8537 21.3045 92.3059 21.254 92.3059 20.5374V19.6633L83.6117 19.7473V17.5698L92.3059 17.6249V16.3978L82.1189 16.4941V14.0935L92.3059 14.1897V12.9627L83.6637 13.0238V10.8814L92.3059 10.9548V9.78887L83.7584 9.84693V4.99376L92.3105 5.05488V3.85076L82.2503 3.9562V1.28664H92.3105C92.3105 1.28664 92.2586 0.322426 92.1974 0.00152957H95.7668C95.7057 0.322426 95.6507 1.28664 95.6507 1.28664H105.851V3.9562L95.6614 3.85076V5.05488L104.362 4.99682V9.84387L95.6614 9.78887V10.9609L104.33 10.912L104.278 13.9896L106.111 13.9666V16.5949L104.284 16.6362L104.382 19.6557H95.6614V20.8674C95.6614 23.5783 95.0899 23.9862 91.2807 23.9862L91.3036 23.9924L91.3005 23.9939ZM95.6813 17.6279H100.928V16.4009H95.6813V17.6279ZM95.6813 14.1806H100.928V12.9535H95.6813V14.1806ZM95.6813 8.03617H100.354V6.81217H95.6813V8.03617ZM87.7724 8.03617H92.3166V6.81217H87.7724V8.03617ZM79.1225 23.9939C76.4272 22.3619 74.6562 20.8705 73.0442 18.9252C71.5178 17.1313 70.5123 15.3129 69.5726 12.651L69.3511 12.0275L69.1417 12.654C68.0294 15.9761 66.9262 17.8755 64.926 19.9047C63.3614 21.5199 61.5645 22.8921 59.5949 23.9771L57.2128 20.6061C60.8861 18.7694 63.0497 16.8761 64.6357 14.1286C66.2966 11.2665 67.1386 7.41577 67.1386 2.68789C67.1477 2.09653 67.1156 1.50516 67.0438 0.918376H71.2427C71.1617 1.52961 71.1251 2.14542 71.1342 2.76277C71.1342 5.53928 71.5453 8.44416 72.2145 10.3466C73.2138 13.1369 74.9206 15.6185 77.1667 17.5485C78.464 18.6976 79.9278 19.6465 81.5062 20.3616L79.121 23.9939H79.1225ZM43.9835 20.2914C45.1341 21.4619 46.8531 22.0532 49.0885 22.0532L49.0824 22.0379C50.945 22.0379 52.4302 21.6376 53.4983 20.8476C54.4915 20.0851 55.1699 18.9848 55.4098 17.7563H51.5516C51.2659 18.4913 50.5966 19.2492 49.0335 19.2492C48.1305 19.2492 47.4322 18.9558 46.9921 18.4393C46.5536 17.9228 46.3061 17.1359 46.2281 16.0341L46.1991 15.6384H55.6069V14.4617C55.6069 12.3133 55.0278 10.6201 53.9047 9.44352C52.7801 8.2669 51.1788 7.67248 49.1435 7.67248C46.9952 7.67248 45.2793 8.32497 44.0706 9.62231C42.862 10.9196 42.2447 12.7595 42.2447 15.0928C42.2447 17.4262 42.833 19.1239 43.9835 20.2929V20.2914ZM46.2129 13.1736C46.4207 11.3628 47.4322 10.4047 49.1374 10.4047H49.1573C49.5133 10.3818 49.8693 10.4307 50.2055 10.5514C50.5416 10.6721 50.8488 10.8601 51.1085 11.103C51.5409 11.5553 51.7808 12.2598 51.8205 13.1965L51.8374 13.3325H46.1701L46.2159 13.1736H46.2129ZM35.5857 21.8362V13.4425C35.5857 12.7717 35.3199 12.1284 34.8447 11.6547C34.371 11.1809 33.7277 10.9135 33.0569 10.9135C32.3862 10.9135 31.7429 11.1794 31.2692 11.6547C30.7955 12.1284 30.5281 12.7717 30.5281 13.4425V21.8362H26.5432V7.66331H30.5342V9.34114L30.7971 9.05539C31.4571 8.32497 32.3159 7.80389 33.2693 7.55482C34.2213 7.30727 35.2267 7.34241 36.1587 7.6572C37.0908 7.97198 37.9113 8.55418 38.5179 9.32891C39.1246 10.1052 39.4913 11.0404 39.5723 12.0214L39.5952 12.4691V21.8347H35.5842L35.5857 21.8362Z" fill="#FD6C26"/>
<path d="M153.477 0H113.444C111.419 0 109.777 1.64195 109.777 3.66739V20.3234C109.777 22.3489 111.419 23.9908 113.444 23.9908H153.477C155.502 23.9908 157.144 22.3489 157.144 20.3234V3.66739C157.144 1.64195 155.502 0 153.477 0Z" fill="#FD6C26"/>
<path d="M115.006 13.2558L114.812 11.3151C115.22 11.3533 115.646 11.3732 116.014 11.3732C116.092 11.3732 116.188 11.3732 116.324 11.3533C116.712 10.8689 116.848 10.655 117.275 10.0728C117.21 9.9821 117.119 9.85935 117.003 9.70451C116.285 8.69597 115.664 7.97778 114.732 7.06551L115.819 5.47479C116.025 5.69483 116.232 5.9215 116.439 6.15478C116.905 5.34032 116.963 5.20432 117.215 4.66032C117.661 3.59372 117.797 3.26366 117.875 2.93359L119.738 3.61359C119.622 3.76945 119.564 3.90393 119.408 4.21565C118.846 5.41825 118.243 6.48637 117.583 7.53463C117.972 8.01903 118.068 8.1367 118.321 8.50497C119.33 6.95244 120.048 5.63217 120.262 4.95371L122.047 5.86598C121.911 6.06004 121.775 6.27397 121.503 6.7385C120.823 7.92276 119.484 9.90163 118.436 11.28C119.562 11.2219 119.892 11.202 120.551 11.144C120.337 10.6 120.221 10.3478 119.852 9.57156L121.269 9.00923C121.967 10.3876 122.471 11.5519 122.919 12.8523L121.289 13.5323C121.173 13.1442 121.173 13.1243 121.075 12.7362C120.622 12.7882 120.162 12.8335 119.697 12.8722V19.0243C119.697 19.9762 119.716 20.4606 119.813 21.0627H117.698C117.796 20.3827 117.814 19.8983 117.814 19.0059V13.0281C117.349 13.0535 116.708 13.0923 115.893 13.1442C115.485 13.1824 115.291 13.2023 115.001 13.2603L115.006 13.2558ZM123.758 10.7528V9.33623C123.312 9.72437 123.118 9.86037 122.555 10.2485C122.265 9.4921 122.051 9.16204 121.449 8.50191C122.633 7.74551 123.099 7.35738 123.894 6.50318C124.786 5.57105 125.446 4.54266 126.029 3.24227H128.143C128.823 4.63893 129.599 5.64899 130.822 6.73545C131.598 7.41545 132.238 7.87998 133.189 8.42398C132.684 9.12231 132.432 9.62658 132.199 10.3845C131.538 9.9383 131.306 9.78243 130.84 9.3943V10.7528C130.374 10.6947 129.928 10.6748 129.094 10.6748H125.504C124.728 10.6748 124.262 10.6947 123.758 10.7528ZM125.349 8.85031H129.268C129.714 8.85031 129.928 8.85031 130.16 8.83044C128.822 7.64618 127.968 6.67585 127.133 5.29906C126.279 6.75531 125.465 7.78371 124.339 8.83044C124.689 8.85031 124.883 8.85031 125.347 8.85031H125.349ZM115.51 13.974L117.237 14.2643C117.081 16.9415 116.887 18.358 116.46 20.0664L114.714 19.3879C115.18 17.7957 115.394 16.3593 115.51 13.9724V13.974ZM120.129 14.2842L121.643 13.896C121.973 15.3126 122.187 16.5151 122.458 18.5719L120.866 18.9402C120.691 17.0775 120.498 15.7771 120.129 14.2842ZM125.078 19.8341V20.9206H122.982C123.04 20.2605 123.08 19.6401 123.08 18.9219V14.1665C123.08 13.1962 123.06 12.9058 123.002 12.4C123.486 12.4382 123.914 12.4581 124.67 12.4581H130.162C130.918 12.4581 131.384 12.4382 131.754 12.4C131.696 12.8844 131.676 13.2726 131.676 14.1466V18.7064C131.676 19.6569 131.714 20.4729 131.772 20.9191H129.599V19.8326H125.078V19.8341ZM125.078 14.2643V17.9699H129.619V14.2643H125.078Z" fill="white"/>
<path d="M146.5 11.3554H139.03C138.914 11.6854 138.874 11.7817 138.72 12.2096L136.449 11.9376C137.245 9.97706 137.594 9.00673 138.08 7.08593C138.662 4.85494 138.856 3.78681 138.876 2.93262L141.302 3.20462C141.166 3.57289 141.128 3.76695 140.758 5.26141H147.88C149.045 5.26141 149.529 5.24154 150.267 5.14527V7.3778C149.647 7.31973 148.986 7.28 147.976 7.28H140.253C140.078 7.92027 139.962 8.36646 139.67 9.37652H146.986C147.937 9.37652 148.519 9.35666 148.965 9.27873C148.829 10.055 148.791 10.4431 148.577 12.8682C148.557 13.0821 148.539 13.2365 148.499 13.5283H149.857C150.672 13.5283 151.448 13.4901 152.206 13.4122V15.6248C151.468 15.5469 150.653 15.5087 149.857 15.5087H148.209C147.879 17.4677 147.51 18.6902 146.966 19.4664C146.364 20.3405 145.608 20.6125 143.804 20.6125C142.949 20.6125 142.289 20.5727 140.66 20.4566C140.524 19.5642 140.408 19.1761 140.02 18.2256C142.213 18.516 142.931 18.574 143.785 18.574C144.542 18.574 144.93 18.4197 145.183 18.0117C145.435 17.5838 145.668 16.8076 145.96 15.5087H136.683C135.809 15.5087 134.995 15.5469 134.219 15.6248V13.4122C134.917 13.4901 135.713 13.5283 136.703 13.5283H146.27C146.386 12.6161 146.426 12.3257 146.502 11.3554H146.5Z" fill="white"/>
</g>
<defs>
<clipPath id="clip0_1_464">
<rect width="158" height="24" fill="white"/>
</clipPath>
</defs>
</svg>
