<svg width="174" height="24" viewBox="0 0 174 24" fill="none" xmlns="http://www.w3.org/2000/svg">
<g clip-path="url(#clip0_1_517)">
<path fill-rule="evenodd" clip-rule="evenodd" d="M4.06537 20.7742C6.12675 22.8371 8.92314 23.9969 11.8387 24H12.2345C15.1516 23.9969 17.9464 22.8371 20.0094 20.7742C22.0707 18.7113 23.2305 15.9149 23.2336 12.9978V10.9991C23.2305 8.08201 22.0707 5.28715 20.0078 3.22424C17.9464 1.16286 15.1501 0.00305616 12.2345 0H11.8387C8.92314 0.00305616 6.12675 1.16286 4.06537 3.22424C2.004 5.28715 0.844184 8.08201 0.8396 10.9991V13.0009C0.842656 15.9165 2.00247 18.7128 4.06537 20.7742ZM7.34158 6.50197C8.53501 5.31006 10.1517 4.63924 11.8387 4.63772L12.2223 4.63466C13.9093 4.63619 15.5275 5.30701 16.7194 6.50044C17.9128 7.69387 18.5837 9.31211 18.5852 10.9991V12.9887C18.5852 14.6741 17.9174 16.2939 16.727 17.4873C15.5367 18.6823 13.9215 19.3562 12.2345 19.3623H11.8387C10.1517 19.3608 8.53348 18.6899 7.34158 17.4965C6.14815 16.3031 5.47732 14.6848 5.47579 12.9978V10.9991C5.47885 9.31211 6.14967 7.69539 7.3431 6.50197H7.34158ZM91.2026 23.9939C90.576 23.9939 89.0801 23.974 88.1219 23.9267V21.1349C89.2481 21.2372 90.1436 21.3045 91.01 21.3045C91.7573 21.3045 92.208 21.254 92.208 20.5374V19.6633L83.5133 19.7474V17.5699L92.208 17.6233V16.3963L82.0203 16.4925V14.0935L92.208 14.1897V12.9627L83.5652 13.0238V10.8814L92.208 10.9563V9.79039L83.66 9.84693V4.99375L92.2126 5.05488V3.85075L82.1517 3.95618V1.28816H92.2126C92.2126 1.28816 92.1607 0.323937 92.0995 0.00304049H95.6691C95.608 0.323937 95.5515 1.28816 95.5515 1.28816H105.753V3.95618L95.5622 3.85075V5.05488L104.263 4.99681V9.84387L95.5622 9.79039V10.9624L104.231 10.9135L104.179 13.9911L106.013 13.9682V16.5965L104.185 16.6377L104.283 19.6572H95.5622V20.8674C95.5622 23.5798 94.9907 23.9863 91.1812 23.9863L91.2041 23.9939H91.2026ZM95.5836 17.6264H100.831V16.4009H95.5836V17.6264ZM95.5836 14.1806H100.831V12.9535H95.5836V14.1806ZM95.5836 8.03616H100.256V6.81217H95.5836V8.03616ZM87.6742 8.03616H92.2172V6.81217H87.6742V8.03616ZM79.0238 23.9939C76.3282 22.3619 74.5572 20.8705 72.9451 18.9253C71.4185 17.1313 70.413 15.3129 69.4733 12.651L69.2517 12.0275L69.0424 12.654C67.9299 15.9761 66.8266 17.8755 64.8264 19.9047C63.2616 21.5184 61.4646 22.8921 59.4949 23.9771L57.1126 20.6061C60.7877 18.7694 62.9499 16.8761 64.536 14.1286C66.1971 11.2665 67.039 7.41576 67.039 2.68789C67.0482 2.09652 67.0161 1.50667 66.9443 0.919888H71.1435C71.0625 1.53112 71.0258 2.14694 71.035 2.76276C71.035 5.54081 71.446 8.44416 72.1153 10.3466C73.1147 13.1369 74.8215 15.6185 77.0694 17.5485C78.3667 18.6976 79.8306 19.6465 81.4091 20.3617L79.0238 23.9939ZM43.8825 20.2913C45.0332 21.4619 46.7523 22.0532 48.9878 22.0532L48.9817 22.0364C50.8445 22.0364 52.3298 21.6376 53.3979 20.8476C54.3911 20.0851 55.0696 18.9848 55.3095 17.7563H51.4511C51.1654 18.4913 50.4961 19.2477 48.9328 19.2477C48.0297 19.2477 47.3314 18.9558 46.8913 18.4393C46.4528 17.9228 46.2052 17.1359 46.1273 16.0341L46.0982 15.6368H55.5066V14.4602C55.5066 12.3117 54.9275 10.6186 53.8043 9.44199C52.6797 8.26537 51.0767 7.67095 49.0429 7.67095C46.8944 7.67095 45.1783 8.32344 43.9696 9.62078C42.7609 10.9181 42.1436 12.7579 42.1436 15.0913C42.1436 17.4247 42.7319 19.1208 43.8825 20.2913ZM46.112 13.1736C46.3198 11.3628 47.3314 10.4047 49.0367 10.4047H49.0566C49.4127 10.3802 49.7687 10.4307 50.1049 10.5514C50.441 10.6706 50.7482 10.8585 51.008 11.103C51.4404 11.5553 51.6803 12.2598 51.72 13.1965L51.7369 13.3325H46.0692L46.1151 13.1736H46.112ZM35.4842 21.8362V13.4425C35.4842 12.7717 35.2183 12.1299 34.7431 11.6546C34.2694 11.1809 33.6261 10.9135 32.9552 10.9135C32.2844 10.9135 31.6411 11.1809 31.1674 11.6546C30.6937 12.1299 30.4263 12.7717 30.4263 13.4425V21.8362H26.4426V7.6633H30.4339V9.34115L30.6967 9.05538C31.3569 8.32496 32.2156 7.80236 33.1692 7.55481C34.1212 7.30574 35.1266 7.34242 36.0588 7.6572C36.9909 7.97351 37.8115 8.55418 38.4181 9.33044C39.0248 10.1052 39.3915 11.0419 39.4725 12.0229L39.4954 12.4707V21.8362H35.4842Z" fill="#FD6C26"/>
<path d="M169.581 0H113.348C111.322 0 109.68 1.64195 109.68 3.66739V20.3235C109.68 22.3489 111.322 23.9908 113.348 23.9908H169.581C171.606 23.9908 173.248 22.3489 173.248 20.3235V3.66739C173.248 1.64195 171.606 0 169.581 0Z" fill="#FD6C26"/>
<path d="M117.767 2.1084L119.49 2.44459C119.481 2.46445 119.345 2.73339 119.076 3.28197L121.666 3.25293C121.946 3.25293 122.071 3.2239 122.253 3.12763L123.11 3.97571C122.994 4.10101 122.965 4.15909 122.889 4.38983C122.32 6.1028 121.81 7.14342 121.098 8.10611C120.482 8.9328 119.692 9.66475 118.758 10.2806C118.239 10.6183 117.845 10.8291 117.102 11.1669C116.746 10.5403 116.515 10.2424 115.976 9.72283C117.44 9.20328 118.373 8.63483 119.24 7.74854C118.642 7.25803 118.172 6.95088 117.449 6.5551L118.459 5.34182C119.316 5.80483 119.623 5.99736 120.23 6.4405C120.624 5.83385 120.855 5.31432 121.058 4.67864L118.392 4.69697C117.834 5.65966 117.169 6.44967 116.197 7.30693C115.736 6.80572 115.436 6.56581 114.811 6.21893C115.947 5.32348 116.64 4.5243 117.209 3.45617C117.478 2.96413 117.643 2.55001 117.767 2.1084Z" fill="white"/>
<path d="M125.16 2.5791L127.076 2.58979C127.027 2.955 127.018 3.20561 127.008 3.77405L126.95 8.87631C128.896 8.44234 130.34 7.34517 131.215 5.60316C131.658 6.23731 131.956 6.56586 132.516 6.98914C131.119 9.14526 129.339 10.2623 126.498 10.7528C126.142 10.82 126.084 10.8292 125.92 10.9255L125.063 9.92457C125.16 9.72286 125.169 9.61742 125.179 9.13608L125.218 3.78321V3.62889C125.218 3.17658 125.198 2.86791 125.16 2.5791Z" fill="white"/>
<path d="M133.15 4.19733L134.256 2.83887C135.47 3.55248 136.095 3.99409 136.904 4.72604L135.769 6.22814C134.932 5.35255 134.113 4.71688 133.15 4.19733ZM133.747 10.6657L133.246 8.81824C134.229 8.74031 135.239 8.50039 136.143 8.12449C137.357 7.62481 138.223 6.90203 138.964 5.74681C139.369 5.13099 139.629 4.60073 139.907 3.85961C140.379 4.42806 140.601 4.62061 141.322 5.14932C140.446 7.0472 139.531 8.18256 138.183 9.04898C137.144 9.72287 136.229 10.0789 134.438 10.493C134.062 10.5801 134.004 10.5893 133.744 10.6657H133.747Z" fill="white"/>
<path d="M145.598 10.8584H143.739C143.778 10.4259 143.797 10.1463 143.797 9.38531V3.78337C143.797 3.00405 143.788 2.90779 143.73 2.38672H145.588C145.55 2.66636 145.539 3.14769 145.539 3.79254V5.11128C147.176 5.65069 148.418 6.21913 149.92 7.11459L149.005 8.75115C148.072 8.1063 146.936 7.4798 145.973 7.07485C145.748 6.98521 145.604 6.92103 145.539 6.88232V9.38531C145.539 10.0317 145.559 10.513 145.598 10.8584Z" fill="white"/>
<path d="M121.078 15.4791L116.67 15.499C115.87 15.499 115.534 15.5082 115.109 15.5464V13.8532C115.64 13.9098 115.938 13.9296 116.699 13.9296L121.974 13.9205C122.282 13.9205 122.435 13.8915 122.638 13.8242L123.563 14.8633C123.408 15.0085 123.361 15.0757 123.12 15.4791C122.128 17.1447 121.339 18.0982 120.068 19.1664C120.482 19.6569 120.751 20.0038 121.214 20.6303L119.77 21.7565C119.192 20.8121 118.711 20.1489 117.912 19.2443C117.133 18.3489 116.68 17.9057 115.977 17.3281L117.296 16.4036C118.086 17.0485 118.402 17.3464 118.962 17.9348C119.51 17.4824 120.117 16.8651 120.464 16.4128C120.705 16.1148 120.965 15.7007 121.08 15.4791H121.078Z" fill="white"/>
<path d="M129.117 21.882H127.308C127.357 21.5061 127.375 21.1791 127.375 20.5236V18.7907C126.654 19.2155 125.864 19.5334 124.603 19.9077C124.343 19.2338 124.189 18.945 123.813 18.4255C124.834 18.2131 125.835 17.8968 126.701 17.5117C127.684 17.0777 128.329 16.6453 129.128 15.9026L126.182 15.9225C125.344 15.9225 125.219 15.9317 124.796 15.9714V14.4112C125.239 14.4693 125.624 14.4876 126.202 14.4876H127.348V13.9589C127.348 13.525 127.339 13.3997 127.3 13.0635H129.091C129.053 13.3431 129.033 13.583 129.033 13.9391V14.4785H130.564C130.844 14.4785 130.997 14.4494 131.18 14.373L131.93 15.2486C131.827 15.3189 131.68 15.4666 131.487 15.6918C130.997 16.2403 130.89 16.3458 129.716 17.3574C130.939 17.7898 131.863 18.2421 132.835 18.8686L131.881 20.2836C131.082 19.677 130.187 19.1666 129.061 18.6761V20.5343C129.061 21.2937 129.061 21.4098 129.119 21.882H129.117Z" fill="white"/>
<path d="M134.056 14.7098L134.913 13.3437C135.972 13.7288 137.011 14.2101 137.676 14.6136L136.819 16.0866C135.923 15.4907 134.913 14.9894 134.056 14.7098ZM138.937 13.5745L139.89 13.2566C140.226 13.6998 140.515 14.2392 140.737 14.7877L139.783 15.1331C139.523 14.4989 139.282 14.0466 138.937 13.5745ZM133.304 17.0783L134.19 15.7015C135.22 16.1065 136.125 16.5588 136.877 17.0692L136.058 18.5804C135.364 18.041 134.287 17.4542 133.304 17.0783ZM140.323 13.1222L141.227 12.8135C141.545 13.2184 141.814 13.6707 142.085 14.2957L141.16 14.6334C140.891 13.9977 140.641 13.5454 140.323 13.1222ZM134.065 21.7375L133.584 19.9083C134.43 19.9083 135.653 19.6486 136.548 19.2925C138.348 18.5805 139.62 17.1654 140.303 15.0857C140.764 15.6053 141.207 15.9812 141.718 16.2883C140.495 19.3124 138.31 20.9673 134.748 21.5739C134.411 21.6412 134.258 21.6794 134.065 21.7375Z" fill="white"/>
<path d="M147.65 13.2363L149.459 13.843C149.324 14.0844 149.246 14.2662 149.054 14.7384C148.66 15.6919 148.275 16.4713 147.773 17.2796C148.611 17.9932 148.909 18.282 149.871 19.3013L148.562 20.6689C148.033 19.9751 147.483 19.3792 146.742 18.6946C145.828 19.8789 144.653 20.8523 143.017 21.7569C142.69 21.1793 142.401 20.8232 141.803 20.3037C142.997 19.7352 143.652 19.312 144.412 18.6274C144.806 18.2713 145.133 17.9352 145.442 17.5593C144.248 16.6546 143.718 16.2879 142.939 15.8463L144.123 14.6804C144.998 15.1907 145.432 15.4902 146.395 16.1916C146.953 15.2977 147.501 13.9973 147.647 13.2363H147.65Z" fill="white"/>
<path d="M151.348 15.0469L152.454 13.6885C153.667 14.4021 154.292 14.8437 155.102 15.5757L153.965 17.0777C153.128 16.2022 152.31 15.5665 151.348 15.0469ZM151.945 21.5153L151.444 19.6679C152.426 19.5899 153.437 19.35 154.341 18.9741C155.554 18.4744 156.421 17.7516 157.162 16.5964C157.565 15.9806 157.827 15.4503 158.105 14.7092C158.577 15.2777 158.799 15.4702 159.52 15.9989C158.644 17.8968 157.73 19.0322 156.383 19.8986C155.342 20.5725 154.428 20.9285 152.637 21.3426C152.261 21.4297 152.205 21.4389 151.944 21.5153H151.945Z" fill="white"/>
<path d="M163.795 21.708H161.937C161.975 21.2755 161.994 20.9959 161.994 20.2349V14.633C161.994 13.8537 161.985 13.7574 161.927 13.2363H163.785C163.746 13.516 163.737 13.9973 163.737 14.6422V15.9609C165.374 16.5003 166.615 17.0687 168.117 17.9642L167.203 19.6008C166.269 18.9559 165.132 18.3294 164.17 17.9245C163.946 17.8348 163.801 17.7706 163.737 17.7319V20.2349C163.737 20.8813 163.756 21.3626 163.795 21.708Z" fill="white"/>
</g>
<defs>
<clipPath id="clip0_1_517">
<rect width="174" height="24" fill="white"/>
</clipPath>
</defs>
</svg>
