<svg width="196" height="25" viewBox="0 0 196 25" fill="none" xmlns="http://www.w3.org/2000/svg">
<g clip-path="url(#clip0_1_578)">
<path fill-rule="evenodd" clip-rule="evenodd" d="M3.29379 20.8046C5.3471 22.8595 8.13253 24.0147 11.0367 24.0178H11.4309C14.3366 24.0147 17.1205 22.8595 19.1753 20.8046C21.2286 18.7498 22.3839 15.9644 22.387 13.0587V11.0678C22.3839 8.16216 21.2286 5.37824 19.1753 3.32341C17.122 1.27011 14.3366 0.114861 11.4324 0.111816H11.0382C8.13405 0.114861 5.34862 1.27011 3.29532 3.32341C1.24202 5.37824 0.0867494 8.16216 0.0821831 11.0678V13.0618C0.0852273 15.9659 1.2405 18.7513 3.29532 20.8046H3.29379ZM6.55716 6.5883C7.74592 5.40107 9.35629 4.73287 11.0367 4.73135L11.4187 4.7283C13.0991 4.72983 14.711 5.39805 15.8998 6.58681C17.0885 7.77556 17.7567 9.38745 17.7583 11.0678V13.0496C17.7583 14.7285 17.0931 16.3403 15.9074 17.5306C14.7217 18.7209 13.1128 19.3921 11.4324 19.3982H11.0382C9.35782 19.3967 7.74592 18.7285 6.55869 17.5397C5.36993 16.351 4.70173 14.7391 4.70021 13.0587V11.0678C4.70325 9.38745 5.37145 7.77706 6.56021 6.5883H6.55716ZM90.0897 24.0117C89.4656 24.0117 87.9755 23.9919 87.0227 23.9432V21.1638C88.1444 21.2658 89.0364 21.3328 89.8994 21.3328C90.6422 21.3328 91.0927 21.2826 91.0927 20.5687V19.6981L82.432 19.7818V17.6128L91.0927 17.6661V16.4438L80.9449 16.5397V14.1501L91.0927 14.246V13.0237L82.4838 13.0846V10.9506L91.0927 11.0252V9.86385L82.5766 9.92018V5.08601L91.0958 5.14688V3.94748L81.0743 4.05249V1.39341H91.0958C91.0958 1.39341 91.044 0.434503 90.9816 0.114863H94.5388C94.4764 0.434503 94.4216 1.39341 94.4216 1.39341H104.583V4.05249L94.4322 3.94748V5.14688L103.099 5.08905V9.91713L94.4322 9.86385V11.0313L103.067 10.9826L103.015 14.0481L104.842 14.0253V16.6432L103.021 16.6843L103.119 19.692H94.4322V20.8975C94.4322 23.5977 93.863 24.0041 90.0668 24.0041L90.0897 24.0117ZM94.4535 17.6691H99.6819V16.4469H94.4535V17.6691ZM94.4535 14.2368H99.6819V13.0146H94.4535V14.2368ZM94.4535 8.11648H99.1096V6.89729H94.4535V8.11648ZM86.5752 8.11648H91.1019V6.89729H86.5752V8.11648ZM77.9601 24.0117C75.2751 22.3861 73.511 20.9005 71.9052 18.9629C70.3847 17.176 69.3831 15.3647 68.447 12.7132L68.2263 12.0922L68.0178 12.7162C66.9097 16.0253 65.8108 17.9172 63.8183 19.9386C62.2597 21.5459 60.4697 22.9142 58.5078 23.9949L56.1348 20.6372C59.7939 18.8076 61.9492 16.9218 63.5291 14.1851C65.1837 11.3342 66.0223 7.49851 66.0223 2.78916C66.0315 2.20011 65.9995 1.61261 65.928 1.02812H70.1107C70.03 1.63696 69.9935 2.25033 70.0041 2.86374C70.0041 5.62938 70.4136 8.5229 71.0803 10.4179C72.0757 13.1972 73.7759 15.6691 76.0134 17.5915C77.3056 18.7361 78.7638 19.6798 80.3361 20.3937L77.9601 24.0117ZM42.9565 20.3236C44.1027 21.4896 45.815 22.0786 48.0418 22.0786L48.0358 22.0619C49.8912 22.0619 51.3707 21.6646 52.4346 20.8777C53.424 20.1182 54.0998 19.0223 54.3387 17.7985H50.4955C50.2108 18.5306 49.5442 19.2841 47.987 19.2841C47.0875 19.2841 46.3919 18.9933 45.9535 18.4789C45.5167 17.9629 45.2701 17.1805 45.1925 16.0831L45.1636 15.6873H54.5351V14.5154C54.5351 12.3753 53.9582 10.6889 52.838 9.51684C51.7177 8.34483 50.1225 7.75272 48.0951 7.75272C45.9551 7.75272 44.2457 8.40265 43.0418 9.69491C41.8378 10.9872 41.2229 12.8198 41.2229 15.144C41.2229 17.4682 41.8089 19.1577 42.955 20.3236H42.9565ZM45.1773 13.2338C45.3843 11.4301 46.3919 10.4742 48.0906 10.4742H48.1103C48.465 10.4514 48.8196 10.5016 49.1545 10.6219C49.4894 10.7406 49.7953 10.9278 50.054 11.1713C50.4848 11.6204 50.7238 12.3236 50.7633 13.2566L50.7801 13.3921H45.1346L45.1803 13.2338H45.1773ZM34.5911 21.861V13.5017C34.5911 12.8335 34.3263 12.1927 33.8529 11.7208C33.381 11.249 32.7402 10.9826 32.072 10.9826C31.4038 10.9826 30.763 11.249 30.2912 11.7208C29.8193 12.1927 29.553 12.8335 29.553 13.5017V21.861H25.5833V7.74511H29.5591V9.41635L29.8209 9.13175C30.4784 8.40419 31.3338 7.88362 32.2836 7.63704C33.2319 7.38894 34.2334 7.42545 35.1619 7.739C36.0904 8.05256 36.9077 8.63247 37.512 9.40417C38.1163 10.1774 38.4816 11.1105 38.5622 12.0876L38.5851 12.5336V21.861H34.5896H34.5911Z" fill="#FC6D26"/>
<path d="M192.21 0.111816H112.148C110.13 0.111816 108.495 1.74733 108.495 3.76485V20.3556C108.495 22.3731 110.13 24.0086 112.148 24.0086H192.21C194.227 24.0086 195.863 22.3731 195.863 20.3556V3.76485C195.863 1.74733 194.227 0.111816 192.21 0.111816Z" fill="#FC6D26"/>
<path d="M149.004 7.73613L145.442 7.77722C145.586 7.48853 145.643 7.36328 145.756 7.11242L145.771 7.07861C145.963 6.64025 146.1 6.36626 146.168 6.27037L143.963 5.8457C143.894 6.32516 143.702 6.8457 143.305 7.58544C142.401 9.3115 141.319 10.5444 139.716 11.654C140.524 12.1472 140.771 12.3527 141.346 13.0513C142.606 12.065 143.675 10.8869 144.511 9.55807L148.401 9.51701C147.278 12.9691 145.141 15.1198 141.442 16.5582C142.168 17.2157 142.401 17.4897 142.853 18.3253C145.031 17.3253 146.593 16.2157 147.826 14.8048C149.018 13.4486 149.976 11.5992 150.634 9.4622C150.798 8.91424 150.853 8.79094 150.99 8.57176L149.99 7.58544C149.73 7.68133 149.456 7.72243 149.004 7.73613Z" fill="white"/>
<path d="M122.675 7.06478C123.442 7.06478 123.688 7.03738 124.113 6.90039L125.168 7.87302C125.003 8.1881 124.962 8.36617 124.908 8.88672C124.387 13.7772 122.469 16.3389 118.044 18.0923C117.579 17.2019 117.373 16.9279 116.675 16.1882C117.866 15.8594 118.579 15.5444 119.455 14.969C121.428 13.6676 122.428 11.832 122.702 8.95522H116.606V10.4758C116.606 11.2703 116.62 11.6813 116.675 12.0786H114.455C114.51 11.6676 114.524 11.3799 114.524 10.4621V8.53054C114.524 7.48943 114.524 7.39356 114.483 6.9963C115.154 7.06478 115.305 7.06478 116.304 7.06478H122.675Z" fill="white"/>
<path d="M126.647 10.9417C127.264 11.0238 127.757 11.0512 129.154 11.0512H136.086C137.469 11.0512 137.963 11.0375 138.593 10.9553V13.202C138.045 13.1609 137.141 13.1335 136.072 13.1335H129.154C127.962 13.1335 127.182 13.1608 126.647 13.2156V10.9417Z" fill="white"/>
<path d="M155.497 7.14702H161.771C162.374 7.14702 162.648 7.11963 163.018 6.99634L164.086 8.02375C163.963 8.24293 163.922 8.32513 163.826 8.70869C163.182 11.2567 162.374 12.969 161.059 14.4896C159.799 15.969 158.251 17.0375 155.894 18.0924C155.442 17.2156 155.223 16.9143 154.442 16.1334C155.634 15.7636 156.388 15.4074 157.388 14.7773C159.497 13.4348 160.84 11.558 161.47 9.06485H155.47C154.346 9.06485 153.908 9.07855 153.346 9.14704V7.05112C153.935 7.13331 154.36 7.14702 155.497 7.14702Z" fill="white"/>
<path fill-rule="evenodd" clip-rule="evenodd" d="M176.826 9.05106C176.826 8.25653 176.84 7.65378 176.881 7.17432C176.319 7.21541 175.977 7.22913 174.826 7.22913H168.429C167.237 7.22913 167.018 7.22911 166.456 7.17432C166.511 7.84556 166.511 8.00996 166.511 8.98258V15.7497C166.511 16.5717 166.484 17.147 166.442 17.6813H168.552V16.7361H174.785V17.6676H176.895C176.84 17.1881 176.826 16.6539 176.826 15.6676V9.05106ZM174.785 14.8867H168.538V9.07846H174.785V14.8867Z" fill="white"/>
<path d="M181.21 11.0512H188.141C189.525 11.0512 190.018 11.0375 190.648 10.9553V13.202C190.1 13.1609 189.196 13.1335 188.128 13.1335H181.21C180.018 13.1335 179.237 13.1608 178.703 13.2156V10.9417C179.319 11.0238 179.813 11.0512 181.21 11.0512Z" fill="white"/>
</g>
<defs>
<clipPath id="clip0_1_578">
<rect width="196" height="24.0491" fill="white"/>
</clipPath>
</defs>
</svg>
