<svg width="13" height="9" viewBox="0 0 13 9" fill="none" xmlns="http://www.w3.org/2000/svg">
<path d="M0.590915 3.76053C0.26456 3.76053 0 4.0251 0 4.35145C0 4.6778 0.26456 4.94239 0.590915 4.94239V3.76053ZM12.8269 4.76929C13.0577 4.53852 13.0577 4.16437 12.8269 3.93361L9.0665 0.173073C8.83568 -0.0576909 8.46154 -0.0576909 8.23079 0.173073C7.99997 0.403836 7.99997 0.777982 8.23079 1.00875L11.5734 4.35145L8.23079 7.69411C7.99997 7.92486 7.99997 8.29907 8.23079 8.52982C8.46154 8.76057 8.83568 8.76057 9.0665 8.52982L12.8269 4.76929ZM0.590915 4.94239H12.4091V3.76053H0.590915V4.94239Z" fill="#8E9190"/>
</svg>
