<svg width="192" height="24" viewBox="0 0 192 24" fill="none" xmlns="http://www.w3.org/2000/svg">
<g clip-path="url(#clip0_1_635)">
<path fill-rule="evenodd" clip-rule="evenodd" d="M3.97333 20.7742C6.03471 22.8371 8.83109 23.9969 11.7467 24H12.1424C15.0595 23.9969 17.8544 22.8356 19.9173 20.7742C21.9787 18.7113 23.1385 15.9149 23.1415 12.9978V10.9991C23.1385 8.082 21.9787 5.28715 19.9158 3.22424C17.8544 1.16286 15.058 0.00305616 12.1424 0H11.7467C8.83109 0.00305616 6.03471 1.16286 3.97333 3.22424C1.91195 5.28715 0.752143 8.082 0.747559 10.9991V13.0009C0.750615 15.9165 1.91043 18.7128 3.97333 20.7742ZM7.24953 6.50198C8.44296 5.31008 10.0597 4.63924 11.7467 4.63771L12.1302 4.63465C13.8172 4.63618 15.4354 5.30702 16.6273 6.50045C17.8208 7.69388 18.4916 9.3121 18.4931 10.9991V12.9887C18.4931 14.6741 17.8254 16.2924 16.635 17.4873C15.4446 18.6823 13.8294 19.3562 12.1424 19.3623H11.7467C10.0597 19.3607 8.44143 18.6884 7.24953 17.4965C6.0561 16.3031 5.38528 14.6848 5.38375 12.9978V10.9991C5.3868 9.3121 6.05763 7.69541 7.25106 6.50198H7.24953ZM91.1105 23.9939C90.4839 23.9939 88.9879 23.974 88.0298 23.9251V21.1349C89.156 21.2372 90.0515 21.3045 90.9179 21.3045C91.6651 21.3045 92.1159 21.254 92.1159 20.5374V19.6633L83.4212 19.7473V17.5698L92.1159 17.6233V16.3963L81.9282 16.4926V14.0935L92.1159 14.1897V12.9627L83.4731 13.0238V10.8814L92.1159 10.9548V9.78888L83.5679 9.84694V4.99377L92.1205 5.05487V3.85075L82.0596 3.9562V1.28665H92.1205C92.1205 1.28665 92.0686 0.323955 92.0074 0.00305914H95.577C95.5159 0.323955 95.4594 1.28665 95.4594 1.28665H105.661V3.9562L95.47 3.85075V5.05487L104.171 4.99681V9.84388L95.47 9.78888V10.9624L104.139 10.9135L104.087 13.9911L105.921 13.9682V16.5965L104.093 16.6377L104.191 19.6572H95.47V20.8674C95.47 23.5783 94.8986 23.9862 91.0891 23.9862L91.112 23.9939H91.1105ZM95.4914 17.6264H100.739V16.3993H95.4914V17.6264ZM95.4914 14.1806H100.739V12.9535H95.4914V14.1806ZM95.4914 8.03616H100.164V6.81216H95.4914V8.03616ZM87.5821 8.03616H92.1251V6.81216H87.5821V8.03616ZM78.9317 23.9939C76.2361 22.3619 74.4651 20.8705 72.853 18.9252C71.3264 17.1313 70.3209 15.3129 69.3812 12.651L69.1596 12.0275L68.9503 12.654C67.8378 15.9761 66.7345 17.8755 64.7343 19.9047C63.1695 21.5184 61.3725 22.8921 59.4028 23.9771L57.0206 20.6061C60.6956 18.7694 62.8578 16.8761 64.444 14.1286C66.105 11.2665 66.9469 7.41576 66.9469 2.68788C66.9561 2.09652 66.924 1.50669 66.8522 0.919906H71.0514C70.9704 1.52961 70.9337 2.14694 70.9429 2.76276C70.9429 5.53928 71.3539 8.44415 72.0232 10.3466C73.0226 13.1354 74.7294 15.6185 76.9772 17.5484C78.2746 18.6976 79.7385 19.645 81.317 20.3616L78.9317 23.9939ZM43.7905 20.2914C44.9411 21.4619 46.6602 22.0532 48.8958 22.0532L48.8896 22.0364C50.7524 22.0364 52.2377 21.6376 53.3058 20.8476C54.299 20.0851 54.9775 18.9848 55.2174 17.7563H51.359C51.0733 18.4913 50.404 19.2477 48.8408 19.2477C47.9377 19.2477 47.2393 18.9558 46.7992 18.4393C46.3607 17.9213 46.1131 17.1359 46.0352 16.0341L46.0062 15.6368H55.4145V14.4602C55.4145 12.3117 54.8354 10.6186 53.7123 9.442C52.5876 8.26538 50.9846 7.67094 48.9508 7.67094C46.8023 7.67094 45.0863 8.32343 43.8776 9.62077C42.6688 10.9181 42.0515 12.7564 42.0515 15.0913C42.0515 17.4262 42.6398 19.1208 43.7905 20.2914ZM46.0199 13.1736C46.2277 11.3628 47.2393 10.4031 48.9447 10.4031H48.9645C49.3206 10.3802 49.6766 10.4307 50.0128 10.5514C50.349 10.6706 50.6561 10.8585 50.9159 11.103C51.3483 11.5538 51.5882 12.2598 51.628 13.1965L51.6448 13.3325H45.9771L46.023 13.1736H46.0199ZM35.3921 21.8347V13.4425C35.3921 12.7717 35.1263 12.1284 34.651 11.6547C34.1758 11.1809 33.534 10.9135 32.8632 10.9135C32.1923 10.9135 31.549 11.1809 31.0753 11.6547C30.6016 12.1284 30.3342 12.7717 30.3342 13.4425V21.8347H26.3505V7.66331H30.3418V9.34114L30.6047 9.05539C31.2648 8.32497 32.1236 7.80238 33.0771 7.55483C34.0291 7.30575 35.0346 7.34241 35.9667 7.6572C36.8988 7.97198 37.7194 8.55419 38.326 9.32892C38.9327 10.1052 39.2994 11.0419 39.3804 12.0229L39.4033 12.4706V21.8347H35.3921Z" fill="#FD6C26"/>
<path d="M187.673 0H113.255C111.23 0 109.588 1.64195 109.588 3.66739V20.3234C109.588 22.3489 111.23 23.9908 113.255 23.9908H187.673C189.698 23.9908 191.34 22.3489 191.34 20.3234V3.66739C191.34 1.64195 189.698 0 187.673 0Z" fill="#FD6C26"/>
<path d="M121.293 19.0684C119.985 19.0684 118.848 18.7811 117.882 18.2066C116.923 17.6305 116.18 16.816 115.656 15.7616C115.138 14.6996 114.878 13.442 114.878 11.9903V11.9797C114.878 10.528 115.141 9.27343 115.665 8.21906C116.189 7.16315 116.932 6.35173 117.892 5.78329C118.851 5.20873 119.987 4.91992 121.293 4.91992C122.341 4.91992 123.28 5.12317 124.108 5.52658C124.942 5.93152 125.621 6.4908 126.145 7.20441C126.669 7.91802 126.991 8.74013 127.112 9.66767L127.121 9.76241H124.724L124.676 9.58209C124.543 9.05796 124.326 8.60718 124.022 8.22821C123.718 7.84925 123.336 7.55433 122.876 7.34651C122.416 7.13869 121.887 7.03327 121.293 7.03327C120.497 7.03327 119.806 7.2365 119.218 7.63991C118.63 8.04485 118.176 8.61635 117.853 9.35594C117.531 10.0879 117.37 10.9635 117.37 11.9797V11.9903C117.37 13.0004 117.531 13.879 117.853 14.6232C118.176 15.3628 118.63 15.9374 119.218 16.3484C119.812 16.7534 120.503 16.9551 121.293 16.9551C121.874 16.9551 122.392 16.8542 122.847 16.6525C123.309 16.4432 123.697 16.1437 124.013 15.7509C124.329 15.3597 124.56 14.883 124.705 14.3207L124.734 14.2259H127.132L127.113 14.3298C127 15.2589 126.681 16.0795 126.157 16.7946C125.633 17.5082 124.953 18.0675 124.12 18.4709C123.286 18.8698 122.344 19.0684 121.296 19.0684H121.293Z" fill="white"/>
<path d="M128.817 18.8324V5.15918H131.177V10.4738H131.224C131.49 9.86872 131.884 9.40112 132.408 9.07258C132.939 8.74405 133.577 8.57902 134.323 8.57902C135.069 8.57902 135.678 8.74711 136.209 9.08176C136.739 9.4103 137.15 9.87483 137.44 10.4738C137.731 11.0683 137.876 11.7697 137.876 12.578V18.8324H135.516V13.0425C135.516 12.2724 135.33 11.6688 134.957 11.2318C134.584 10.7901 134.06 10.5686 133.385 10.5686C132.943 10.5686 132.554 10.6771 132.219 10.891C131.89 11.1003 131.635 11.3907 131.452 11.7635C131.268 12.1303 131.177 12.5566 131.177 13.0425V18.8324H128.817Z" fill="white"/>
<path d="M142.746 19.0011C142.082 19.0011 141.494 18.8758 140.984 18.6222C140.478 18.3639 140.084 18.0064 139.799 17.5525C139.521 17.091 139.382 16.5639 139.382 15.9694V15.9511C139.382 15.0602 139.714 14.3558 140.377 13.8378C141.046 13.3136 141.988 13.0157 143.201 12.9469L147.038 12.7101V14.2733L143.533 14.4918C142.952 14.5285 142.506 14.6675 142.197 14.909C141.887 15.1489 141.733 15.4667 141.733 15.8655V15.8747C141.733 16.2857 141.887 16.6112 142.197 16.8511C142.513 17.0849 142.931 17.2011 143.449 17.2011C143.904 17.2011 144.307 17.1094 144.662 16.926C145.022 16.7426 145.307 16.4936 145.515 16.1773C145.722 15.8625 145.828 15.5049 145.828 15.1076V12.0942C145.828 11.5884 145.667 11.1911 145.345 10.8993C145.029 10.6028 144.572 10.4546 143.971 10.4546C143.415 10.4546 142.97 10.5753 142.636 10.8152C142.301 11.049 142.092 11.3516 142.011 11.7244L141.992 11.81H139.813L139.822 11.6954C139.873 11.1025 140.071 10.5707 140.42 10.1047C140.767 9.62944 141.248 9.25813 141.861 8.98613C142.48 8.71413 143.213 8.57812 144.06 8.57812C144.906 8.57812 145.626 8.71718 146.239 8.99529C146.858 9.2734 147.334 9.66153 147.669 10.1612C148.01 10.6594 148.181 11.2477 148.181 11.9231V18.8315H145.831V17.2866H145.774C145.585 17.6335 145.339 17.9376 145.035 18.1958C144.732 18.4556 144.384 18.6543 143.993 18.7933C143.607 18.9324 143.193 19.0011 142.752 19.0011H142.746Z" fill="white"/>
<path d="M153.814 19.0304C152.771 19.0304 151.995 18.8027 151.483 18.3488C150.977 17.8935 150.725 17.1478 150.725 16.1117V10.6061H149.304V8.78766H150.725V6.2373H153.123V8.78766H154.989V10.6061H153.123V15.9222C153.123 16.4082 153.231 16.7474 153.444 16.9369C153.665 17.1187 153.988 17.2104 154.411 17.2104C154.53 17.2104 154.636 17.2074 154.723 17.2013C154.818 17.189 154.906 17.1799 154.989 17.1738V18.9448C154.85 18.9647 154.68 18.983 154.477 19.0013C154.281 19.0212 154.06 19.0304 153.814 19.0304Z" fill="white"/>
<path d="M162.854 19.0684C161.527 19.0684 160.378 18.7811 159.405 18.2066C158.438 17.6305 157.693 16.813 157.168 15.7509C156.644 14.6843 156.382 13.4145 156.382 11.943V11.9323C156.382 10.4806 156.644 9.23216 157.168 8.19001C157.693 7.14175 158.435 6.33646 159.396 5.77413C160.361 5.20569 161.498 4.91992 162.806 4.91992C163.887 4.91992 164.834 5.11399 165.649 5.49907C166.465 5.87803 167.128 6.3991 167.64 7.06229C168.158 7.71936 168.502 8.46813 168.673 9.30858L168.709 9.46901H166.237L166.199 9.36511C165.94 8.63164 165.52 8.06014 164.938 7.64909C164.363 7.23956 163.656 7.03327 162.816 7.03327C161.975 7.03327 161.291 7.22581 160.702 7.61241C160.115 7.99749 159.663 8.55676 159.348 9.28871C159.032 10.0161 158.875 10.8901 158.875 11.9139V11.9231C158.875 12.9653 159.035 13.8653 159.357 14.6232C159.686 15.375 160.151 15.9542 160.75 16.3576C161.35 16.7564 162.061 16.9551 162.883 16.9551C163.57 16.9551 164.177 16.8221 164.701 16.5578C165.233 16.2919 165.646 15.919 165.944 15.4392C166.246 14.9594 166.403 14.4001 166.417 13.7614L166.426 13.5536H163.034V11.6481H168.815V13.1272C168.815 14.365 168.578 15.427 168.104 16.3102C167.629 17.195 166.947 17.878 166.057 18.3578C165.172 18.8316 164.105 19.0684 162.854 19.0684Z" fill="white"/>
<path d="M169.62 18.8324L174.51 5.15918H176.565V7.59342H175.855L172.178 18.8324H169.62ZM172.093 15.298L172.747 13.4123H179.01L179.664 15.298H172.093ZM179.579 18.8324L175.902 7.59342V5.15918H177.257L182.137 18.8324H179.579Z" fill="white"/>
<path d="M183.606 18.8324V5.15918H186.051V18.8324H183.606Z" fill="white"/>
</g>
<defs>
<clipPath id="clip0_1_635">
<rect width="192" height="24" fill="white"/>
</clipPath>
</defs>
</svg>
