<svg width="13" height="9" viewBox="0 0 13 9" fill="none" xmlns="http://www.w3.org/2000/svg">
<path d="M0.590913 3.76053C0.26456 3.76053 0 4.02509 0 4.35144C0 4.67779 0.26456 4.94238 0.590913 4.94238V3.76053ZM12.8269 4.76928C13.0577 4.53851 13.0577 4.16436 12.8269 3.9336L9.06648 0.173072C8.83566 -0.0576908 8.46152 -0.0576908 8.23077 0.173072C7.99995 0.403835 7.99995 0.77798 8.23077 1.00874L11.5734 4.35144L8.23077 7.69409C7.99995 7.92484 7.99995 8.29905 8.23077 8.5298C8.46152 8.76055 8.83566 8.76055 9.06648 8.5298L12.8269 4.76928ZM0.590913 4.94238H12.4091V3.76053H0.590913V4.94238Z" fill="#8E9190"/>
</svg>
