<svg width="46" height="46" viewBox="0 0 46 46" fill="none" xmlns="http://www.w3.org/2000/svg">
<path d="M22.7377 43.4388H8.42136C5.22967 43.4388 2.54746 40.6261 2.54746 37.0512V11.5008C2.54746 8.04803 5.10335 5.11319 8.44242 5.11319V6.37639C8.43326 6.88245 8.52626 7.38516 8.71585 7.85446C8.90544 8.32376 9.18772 8.75001 9.54581 9.10771C9.90391 9.46541 10.3305 9.74723 10.8 9.9363C11.2695 10.1254 11.7723 10.2178 12.2783 10.2081H28.7463C29.2499 10.2217 29.7504 10.1259 30.2135 9.92747C30.6765 9.72903 31.091 9.4326 31.4285 9.05859C31.7933 8.71382 32.0835 8.29792 32.2812 7.83659C32.4789 7.37526 32.5799 6.8783 32.578 6.37639V5.11319C35.7697 5.11319 38.473 8.06066 38.473 11.5008V19.4211C38.473 19.7595 38.6074 20.084 38.8467 20.3232C39.0859 20.5625 39.4105 20.6969 39.7488 20.6969C40.0872 20.6969 40.4117 20.5625 40.651 20.3232C40.8902 20.084 41.0247 19.7595 41.0247 19.4211V11.5008C41.0247 6.51534 37.1929 2.5573 32.6033 2.5573H32.3465C32.0982 1.80251 31.6147 1.14709 30.9668 0.687121C30.3189 0.227157 29.5407 -0.0131539 28.7463 0.00141848H12.2657C11.762 -0.0129797 11.2612 0.0823776 10.7981 0.280875C10.3349 0.479373 9.92046 0.776258 9.58351 1.15093C9.21193 1.56924 8.90919 2.04395 8.68664 2.5573H8.56031C3.83172 2.5573 0 6.51534 0 11.5008V37.0554C0 42.0366 3.83172 45.9989 8.42136 45.9989H22.6114C22.7792 46.006 22.9466 45.9783 23.1031 45.9173C23.2596 45.8564 23.4017 45.7636 23.5205 45.6448C23.6392 45.5261 23.732 45.3839 23.793 45.2274C23.8539 45.0709 23.8817 44.9035 23.8746 44.7357C23.8908 44.5747 23.8738 44.4122 23.8245 44.2581C23.7752 44.104 23.6947 43.9617 23.5881 43.8401C23.4815 43.7184 23.3509 43.62 23.2046 43.551C23.0583 43.4819 22.8994 43.4438 22.7377 43.4388ZM10.9857 3.83314C10.9828 3.66696 11.0156 3.50209 11.0817 3.34959C11.1477 3.19709 11.2457 3.06047 11.3688 2.9489C11.4816 2.82386 11.6203 2.72483 11.7751 2.65867C11.93 2.59251 12.0974 2.5608 12.2657 2.56572H28.7463C28.9122 2.56572 29.0765 2.5984 29.2297 2.66188C29.383 2.72536 29.5222 2.81841 29.6395 2.93571C29.7568 3.05301 29.8499 3.19226 29.9134 3.34552C29.9769 3.49878 30.0095 3.66304 30.0095 3.82893V6.38481C30.0147 6.55255 29.9831 6.71939 29.9169 6.87361C29.8507 7.02782 29.7515 7.16567 29.6264 7.27747C29.3564 7.52829 29.0011 7.66682 28.6326 7.66486H12.2657C12.0978 7.67265 11.93 7.64532 11.7732 7.58459C11.6164 7.52387 11.4741 7.4311 11.3552 7.31221C11.2363 7.19332 11.1435 7.05092 11.0828 6.89413C11.022 6.73735 10.9947 6.56961 11.0025 6.40165L10.9857 3.83314ZM27.98 16.3557L22.9945 24.7771H25.0409C24.4037 25.48 23.846 26.251 23.3777 27.0761H21.3355V30.6552H22.1019C21.954 31.4133 21.8681 32.1822 21.845 32.9542H21.4745V37.9439C21.5178 38.3443 21.429 38.748 21.2218 39.0934C21.0913 39.3502 20.7081 39.3502 20.1986 39.3502C19.8405 39.3601 19.4865 39.2712 19.1754 39.0934C18.9186 38.8407 18.9186 38.4576 18.9186 37.9439V32.9626H12.7752C12.4703 32.9626 12.178 32.8415 11.9624 32.6259C11.7468 32.4104 11.6257 32.118 11.6257 31.8131C11.6257 31.5082 11.7468 31.2159 11.9624 31.0003C12.178 30.7847 12.4703 30.6636 12.7752 30.6636H18.6702V27.215H12.7752C12.619 27.2376 12.4597 27.2235 12.3099 27.1737C12.1602 27.1239 12.0241 27.0399 11.9125 26.9283C11.8009 26.8167 11.7168 26.6806 11.6671 26.5308C11.6173 26.381 11.6031 26.2217 11.6257 26.0655C11.6033 25.9092 11.6175 25.7498 11.6673 25.5999C11.7171 25.45 11.801 25.3137 11.9125 25.2018C12.024 25.0899 12.16 25.0055 12.3097 24.9551C12.4594 24.9048 12.6188 24.89 12.7752 24.9118H17.1206C16.2238 23.5096 15.4574 22.1033 14.5647 20.7011C13.6721 19.299 12.8805 17.8926 12.0089 16.4904C11.6257 15.7241 11.6257 15.0841 12.2657 14.7009C12.5182 14.5021 12.8391 14.4113 13.1584 14.4483C13.4152 14.4483 13.6679 14.7009 13.9247 15.2146L19.8197 24.8992H20.4597C21.3524 23.3665 22.3756 21.7075 23.2682 20.0443C24.2914 18.3853 25.1841 16.8526 26.081 15.1936C26.4641 14.6799 26.7168 14.4272 26.9736 14.4272C27.2817 14.4684 27.5823 14.5534 27.8663 14.6799C28.0109 14.7522 28.1342 14.8609 28.2243 14.9952C28.3143 15.1296 28.368 15.2849 28.38 15.4462C28.3159 15.7753 28.1792 16.086 27.98 16.3557ZM34.4939 22.9959C32.2195 22.9959 29.9963 23.6704 28.1052 24.9339C26.2141 26.1975 24.7402 27.9935 23.8699 30.0947C22.9995 32.1959 22.7718 34.5081 23.2155 36.7387C23.6592 38.9694 24.7544 41.0184 26.3626 42.6266C27.9708 44.2348 30.0198 45.33 32.2505 45.7737C34.4811 46.2174 36.7933 45.9897 38.8945 45.1194C40.9958 44.249 42.7917 42.7751 44.0553 40.884C45.3188 38.993 45.9933 36.7697 45.9933 34.4953C45.9994 32.9835 45.7061 31.4854 45.1304 30.0875C44.5547 28.6895 43.7079 27.4194 42.6388 26.3504C41.5698 25.2813 40.2997 24.4345 38.9018 23.8588C37.5038 23.2831 36.0057 22.9898 34.4939 22.9959ZM34.4939 43.4388C32.725 43.4388 30.9959 42.9143 29.5252 41.9316C28.0544 40.9488 26.9081 39.552 26.2312 37.9178C25.5543 36.2836 25.3772 34.4854 25.7223 32.7505C26.0673 31.0157 26.9191 29.4221 28.1699 28.1713C29.4207 26.9205 31.0142 26.0688 32.7491 25.7237C34.484 25.3786 36.2822 25.5557 37.9164 26.2326C39.5506 26.9095 40.9474 28.0558 41.9301 29.5266C42.9129 30.9973 43.4374 32.7265 43.4374 34.4953C43.4447 35.6718 43.2183 36.8381 42.7714 37.9264C42.3245 39.0148 41.666 40.0036 40.8341 40.8355C40.0022 41.6674 39.0134 42.3259 37.925 42.7728C36.8366 43.2197 35.6704 43.4461 34.4939 43.4388Z" fill="#FC6D26"/>
<path d="M39.1584 29.4434V37.5868C39.1584 38.5005 38.9436 38.9553 38.3752 39.2248C37.8068 39.4943 36.973 39.5364 35.8488 39.5364C35.7054 38.9471 35.4815 38.3803 35.1835 37.8521C35.8951 37.9068 36.8299 37.8942 37.0994 37.8942C37.3688 37.8942 37.4446 37.8058 37.4446 37.5826V36.3194H32.9687C32.7194 37.5836 32.0627 38.7313 31.0991 39.5869C30.7335 39.1409 30.3085 38.747 29.8359 38.4163C31.4781 37.0184 31.6086 34.9509 31.6086 33.2667V29.4434H39.1584ZM33.2171 34.7067H37.4278V33.6372H33.2845C33.2634 33.9741 33.2634 34.3404 33.2171 34.7067ZM33.2845 32.1003H37.4194V31.0266H33.2845V32.1003Z" fill="#FC6D26"/>
</svg>
