<svg width="73" height="73" viewBox="0 0 73 73" fill="none" xmlns="http://www.w3.org/2000/svg">
<g clip-path="url(#clip0_1_846)">
<path d="M49.21 43.0402C45.48 43.0402 42.45 40.0102 42.45 36.2902C42.45 32.5702 45.48 29.5302 49.21 29.5302C52.94 29.5302 55.97 32.5602 55.97 36.2902C55.97 40.0202 52.94 43.0402 49.21 43.0402ZM49.21 31.5002C46.57 31.5002 44.41 33.6502 44.41 36.2902C44.41 38.9302 46.56 41.0702 49.21 41.0702C51.86 41.0702 54 38.9202 54 36.2902C54 33.6502 51.85 31.5002 49.21 31.5002ZM54.27 22.8102C54.01 22.8102 53.76 22.7102 53.57 22.5202C53.19 22.1302 53.2 21.5102 53.58 21.1302L55.26 19.4802C55.45 19.2902 55.56 19.0402 55.55 18.7702C55.55 18.5002 55.44 18.2502 55.24 18.0602L43.92 7.44023C43.55 7.09023 42.96 7.08023 42.59 7.43023L26.21 22.2002C25.81 22.5602 25.18 22.5402 24.82 22.1302C24.46 21.7202 24.48 21.1002 24.89 20.7402L41.27 5.97023C42.4 4.95023 44.16 4.96023 45.26 6.01023L56.58 16.6302C57.17 17.1902 57.5 17.9302 57.51 18.7502C57.52 19.5702 57.2 20.3202 56.63 20.8902L54.95 22.5402C54.76 22.7202 54.52 22.8102 54.27 22.8102Z" fill="#16A5B4"/>
<path d="M19.1 22.81C18.92 22.81 18.74 22.77 18.59 22.67C18.13 22.38 17.98 21.78 18.27 21.32L28.53 4.61996C29.31 3.35996 30.91 2.85996 32.26 3.47996L40.54 7.23996C41.03 7.45996 41.25 8.04996 41.02 8.53996C40.8 9.02996 40.22 9.24996 39.72 9.01996L31.44 5.25996C30.99 5.04996 30.46 5.21996 30.2 5.63996L19.93 22.34C19.74 22.64 19.42 22.8 19.09 22.8L19.1 22.81Z" fill="#16A5B4"/>
<path d="M56.54 20.96H16.46C10.53 20.96 10.07 24.72 10.07 25.87V39.71C10.09 40.24 10.51 40.66 11.05 40.66C11.59 40.66 12.01 40.24 12.03 39.71V25.87C12.03 23.67 14.01 22.93 16.46 22.93H56.55C58.99 22.93 60.98 23.69 60.98 25.87V52.75C60.98 54.95 59 55.7 56.55 55.7H16.46C14.02 55.7 12.03 54.94 12.03 52.75V47.56C12.03 47.56 12.03 47.55 12.03 47.54C12.03 47 11.59 46.56 11.05 46.56C10.51 46.56 10.07 47 10.07 47.54C10.07 47.54 10.07 47.55 10.07 47.56V52.75C10.07 53.9 10.53 57.66 16.46 57.66H56.55C62.48 57.66 62.94 53.9 62.94 52.75V25.87C62.94 24.72 62.48 20.96 56.55 20.96H56.54Z" fill="#16A5B4"/>
</g>
<defs>
<clipPath id="clip0_1_846">
<rect width="73" height="73" fill="white"/>
</clipPath>
</defs>
</svg>
