<svg width="513" height="447" viewBox="0 0 513 447" fill="none" xmlns="http://www.w3.org/2000/svg">
<g opacity="0.6">
<mask id="mask0_1_911" style="mask-type:luminance" maskUnits="userSpaceOnUse" x="-1" y="37" width="90" height="90">
<path d="M88.4916 37.7619H-0.0119059V126.576H88.4916V37.7619Z" fill="white"/>
</mask>
<g mask="url(#mask0_1_911)">
<path fill-rule="evenodd" clip-rule="evenodd" d="M1.92122 71.0858L34.2837 39.5647C36.8278 37.1007 40.8744 37.1608 43.3484 39.6848L86.6787 84.177C89.1427 86.7211 89.0826 90.7677 86.5585 93.2417L54.196 124.763C51.6519 127.227 47.6053 127.167 45.1313 124.643L1.81105 80.1505C-0.652948 77.6063 -0.592852 73.5598 1.93124 71.0858" fill="#95C2E8"/>
<path fill-rule="evenodd" clip-rule="evenodd" d="M3.18327 72.3879L35.5457 40.8668C37.3687 39.104 40.2734 39.144 42.0463 40.957L85.3766 85.4491C87.1394 87.2721 87.0993 90.1768 85.2864 91.9497L52.9239 123.471C51.101 125.234 48.1963 125.194 46.4234 123.381L3.10314 78.8885C1.34028 77.0655 1.38034 74.1608 3.19328 72.3879" fill="#BAD9F2"/>
<path d="M32.5154 43.3351L2.86338 77.1349L51.0218 119.384L80.6738 85.5838L32.5154 43.3351Z" fill="white"/>
<path d="M34.0333 47.7613L7.43963 78.0749L11.3549 81.5097L37.9486 51.1961L34.0333 47.7613Z" fill="#95C2E8"/>
<path fill-rule="evenodd" clip-rule="evenodd" d="M15.3831 83.3656L18.7585 79.5093L22.6148 82.8848L19.2393 86.731L15.3831 83.3555V83.3656ZM46.6438 110.79L50.0192 106.944L53.8655 110.319L50.49 114.176L46.6438 110.8V110.79ZM40.3936 105.301L44.2399 108.677L47.6153 104.83L43.7691 101.455L40.3936 105.301ZM34.1435 99.8222L37.5189 95.966L41.3652 99.3415L37.9897 103.188L34.1335 99.8122L34.1435 99.8222ZM27.8933 94.3334L31.7396 97.7088L35.1151 93.8526L31.2688 90.4771L27.8933 94.3233V94.3334ZM21.6432 88.8444L25.4894 92.2199L28.8649 88.3737L25.0187 84.9982L21.6432 88.8444Z" fill="#95C2E8"/>
<path fill-rule="evenodd" clip-rule="evenodd" d="M21.5531 76.6149L39.8928 55.721C40.2233 55.3905 40.7642 55.3805 41.1048 55.721C41.4153 56.0215 41.4453 56.5123 41.1749 56.8529L22.8452 77.7568C22.5146 78.0973 21.9737 78.1073 21.6332 77.7768C21.3127 77.4663 21.2826 76.9755 21.5631 76.6349M52.8238 104.059L71.1635 83.1555C71.464 82.7849 71.9949 82.7348 72.3655 83.0253C72.7361 83.3158 72.7861 83.8566 72.4957 84.2272C72.4756 84.2473 72.4656 84.2673 72.4456 84.2873L54.1058 105.191C53.7753 105.522 53.2344 105.532 52.8939 105.191C52.5834 104.891 52.5533 104.4 52.8238 104.059ZM55.1075 106.063C54.7769 106.393 54.7769 106.934 55.1075 107.275C55.438 107.605 55.9789 107.605 56.3194 107.275C56.3495 107.245 56.3695 107.225 56.3896 107.194L67.3974 94.6441C67.6879 94.2735 67.6178 93.7327 67.2472 93.4422C66.9066 93.1818 66.4258 93.2118 66.1153 93.5123L55.1075 106.063ZM46.5636 98.5705C46.2731 98.9411 46.3433 99.482 46.7139 99.7724C47.0544 100.033 47.5352 100.003 47.8457 99.7023L66.1854 78.7984C66.516 78.4679 66.516 77.927 66.1854 77.5865C65.8549 77.2559 65.314 77.2559 64.9735 77.5865C64.9434 77.6165 64.9234 77.6366 64.9034 77.6666L46.5636 98.5705ZM48.8473 100.574C48.5468 100.934 48.5969 101.475 48.9575 101.776C49.3081 102.066 49.8289 102.036 50.1294 101.696L61.1372 89.1452C61.4277 88.7746 61.3576 88.2337 60.987 87.9433C60.6465 87.6828 60.1657 87.7129 59.8552 88.0134L48.8373 100.564L48.8473 100.574ZM40.3135 93.0816C39.9829 93.4222 39.993 93.963 40.3335 94.2936C40.6741 94.6241 41.2149 94.6141 41.5455 94.2735C41.5655 94.2535 41.5755 94.2335 41.5956 94.2134L59.9353 73.3095C60.2358 72.949 60.1857 72.4081 59.8251 72.1076C59.4746 71.8171 58.9537 71.8472 58.6532 72.1877L40.3135 93.0816ZM42.5972 95.0849C42.2867 95.4354 42.3267 95.9763 42.6773 96.2868C43.0279 96.5973 43.5688 96.5572 43.8793 96.2067L54.8871 83.6563C55.2177 83.3158 55.2076 82.7749 54.8671 82.4443C54.5265 82.1138 53.9857 82.1238 53.6551 82.4644C53.6351 82.4844 53.6151 82.5044 53.605 82.5245L42.5872 95.0849H42.5972ZM34.0633 87.5927C33.7729 87.9633 33.843 88.5042 34.2136 88.7947C34.5541 89.0551 35.0349 89.025 35.3454 88.7245L53.6852 67.8206C53.9756 67.45 53.9055 66.9092 53.5349 66.6187C53.1944 66.3583 52.7136 66.3883 52.4031 66.6888L34.0633 87.5927ZM36.347 89.5959C36.0165 89.9365 36.0165 90.4774 36.347 90.8079C36.6876 91.1385 37.2285 91.1385 37.559 90.8079C37.579 90.7879 37.5991 90.7578 37.6191 90.7378L48.637 78.1874C48.9675 77.8569 48.9675 77.316 48.637 76.9755C48.3064 76.645 47.7656 76.645 47.425 76.9755C47.405 76.9955 47.3749 77.0256 47.3549 77.0556L36.337 89.606L36.347 89.5959ZM27.8132 82.1038C27.5227 82.4744 27.5929 83.0153 27.9735 83.3057C28.314 83.5662 28.7948 83.5361 29.0953 83.2356L47.435 62.3317C47.7656 61.9912 47.7656 61.4503 47.435 61.1198C47.0945 60.7892 46.5536 60.7892 46.2231 61.1198C46.203 61.1398 46.183 61.1698 46.163 61.1899L27.8232 82.0938L27.8132 82.1038ZM30.0969 84.107C29.7864 84.4576 29.8265 84.9985 30.177 85.309C30.5276 85.6195 31.0685 85.5794 31.379 85.2289L42.3868 72.6785C42.6973 72.3179 42.6573 71.7771 42.2967 71.4766C41.9461 71.1761 41.4153 71.2061 41.1048 71.5567L30.0969 84.107ZM23.8468 78.6182C23.5363 78.9687 23.5663 79.5096 23.9269 79.8201C24.2775 80.1306 24.8184 80.1006 25.1289 79.74L36.1367 67.1896C36.4672 66.8491 36.4572 66.3082 36.1167 65.9777C35.7761 65.6471 35.2352 65.6571 34.9047 65.9977C34.8847 66.0177 34.8646 66.0377 34.8546 66.0578L23.8368 78.6081L23.8468 78.6182Z" fill="#95C2E8"/>
<path fill-rule="evenodd" clip-rule="evenodd" d="M8.09123 61.1294L13.7805 55.5904L12.6086 54.3885C11.3665 53.0763 11.4166 51.003 12.7388 49.761C14.0309 48.539 16.0541 48.569 17.3062 49.8211L18.4781 51.023L24.1673 45.484C24.9486 44.7228 26.2006 44.7428 26.9718 45.5241L29.6061 48.2285C30.3674 49.0097 30.3473 50.2618 29.5661 51.033L13.49 66.6884C12.7087 67.4496 11.4567 67.4296 10.6955 66.6483L8.06118 63.9439C7.29994 63.1627 7.31998 61.9107 8.10124 61.1494M14.0509 51.1732C13.48 51.7341 13.4699 52.6456 14.0208 53.2266C14.5818 53.7975 15.4932 53.8075 16.0742 53.2566C16.6451 52.6957 16.6551 51.7842 16.1042 51.2033C15.5433 50.6324 14.6318 50.6123 14.0609 51.1732" fill="#95C2E8"/>
<path fill-rule="evenodd" clip-rule="evenodd" d="M16.6651 83.7164C16.3947 83.6663 16.2244 83.4159 16.2645 83.1555C16.3146 82.885 16.565 82.7148 16.8254 82.7548L18.9889 83.1254L17.9773 78.6782C17.8871 78.4178 18.0273 78.1473 18.2878 78.0572C18.5482 77.9671 18.8186 78.1073 18.9088 78.3677C18.9088 78.3978 18.9288 78.4278 18.9288 78.4578L20.1007 83.5962C20.1207 83.6663 20.1308 83.7364 20.1107 83.8065C20.0606 84.077 19.8102 84.2472 19.5498 84.2072L16.6651 83.7164ZM22.9153 89.1953C22.6448 89.1652 22.4545 88.9348 22.4746 88.6644C22.5046 88.394 22.735 88.2037 23.0054 88.2237C23.0255 88.2237 23.0555 88.2237 23.0755 88.2337L25.239 88.6043L24.2174 84.1571C24.1673 83.8867 24.3476 83.6362 24.618 83.5962C24.8584 83.5561 25.0988 83.7064 25.1689 83.9367L26.3408 89.0751C26.4109 89.3355 26.2607 89.6059 26.0003 89.676C25.9302 89.6961 25.86 89.6961 25.7899 89.6861L22.9053 89.1852L22.9153 89.1953ZM47.9258 111.131C47.6654 111.071 47.4951 110.81 47.5552 110.55C47.6053 110.299 47.8457 110.139 48.0961 110.169L50.2596 110.54L49.238 106.093C49.1979 105.822 49.3782 105.572 49.6486 105.532C49.889 105.492 50.1194 105.642 50.1895 105.872L51.3614 111.011C51.3814 111.081 51.3814 111.151 51.3714 111.221C51.3213 111.481 51.0709 111.662 50.8105 111.612L47.9258 111.121V111.131ZM41.6757 105.642C41.4053 105.612 41.2149 105.371 41.245 105.101C41.275 104.831 41.5154 104.64 41.7859 104.67C41.8059 104.67 41.8259 104.67 41.846 104.68L44.0095 105.051L42.9878 100.604C42.9077 100.343 43.0579 100.073 43.3184 100.003C43.5788 99.9227 43.8492 100.073 43.9193 100.333C43.9193 100.353 43.9193 100.373 43.9294 100.383L45.1013 105.522C45.1213 105.592 45.1213 105.662 45.1013 105.732C45.0512 105.992 44.8008 106.173 44.5403 106.133L41.6557 105.642H41.6757ZM35.4256 100.163C35.1551 100.133 34.9648 99.8826 35.0049 99.6121C35.0349 99.3417 35.2853 99.1514 35.5558 99.1915C35.5658 99.1915 35.5858 99.1915 35.5958 99.1915L37.7593 99.5621L36.7477 95.1149C36.6676 94.8544 36.7978 94.584 37.0582 94.4938C37.3186 94.4137 37.5891 94.5439 37.6792 94.8044C37.6792 94.8344 37.6992 94.8645 37.6992 94.8945L38.8711 100.033C38.8912 100.103 38.8912 100.173 38.8812 100.243C38.8311 100.514 38.5807 100.684 38.3203 100.644L35.4356 100.153L35.4256 100.163ZM29.1754 94.6741C28.915 94.6141 28.7447 94.3536 28.8048 94.0932C28.8549 93.8428 29.0953 93.6825 29.3457 93.7126L31.5092 94.0832L30.4876 89.636C30.4475 89.3655 30.6278 89.1151 30.8982 89.0751C31.1386 89.035 31.369 89.1852 31.4391 89.4156L32.611 94.554C32.6811 94.8144 32.5309 95.0848 32.2704 95.1549C32.2003 95.175 32.1302 95.175 32.0601 95.1649L29.1754 94.6641V94.6741Z" fill="#5D9CD4"/>
</g>
</g>
<g opacity="0.6">
<mask id="mask1_1_911" style="mask-type:luminance" maskUnits="userSpaceOnUse" x="11" y="193" width="88" height="89">
<path d="M98.7482 193.274H11.3165V281.057H98.7482V193.274Z" fill="white"/>
</mask>
<g mask="url(#mask1_1_911)">
<path fill-rule="evenodd" clip-rule="evenodd" d="M66.4659 194.396L61.3075 193.344C59.5647 192.994 57.8619 194.116 57.5014 195.858L57.1007 197.822C56.6299 200.135 55.6283 200.476 55.1375 200.476C53.7753 200.476 52.4231 200.586 51.0609 200.696C50.6603 200.726 49.3481 200.877 48.5168 198.332L47.9459 196.59C47.385 194.897 45.572 193.975 43.8693 194.526L38.8611 196.159C37.1684 196.72 36.2469 198.533 36.7978 200.235L37.3587 201.958C38.14 204.342 37.6592 204.793 36.8479 205.294C35.726 205.985 34.5842 206.656 33.5024 207.447C32.5409 208.148 32.0701 208.849 29.8665 206.886L28.5144 205.684C27.1822 204.502 25.1389 204.613 23.957 205.945L20.4513 209.871C19.2694 211.203 19.3795 213.237 20.7117 214.429L22.0639 215.63C24.2675 217.594 23.6364 218.145 23.0355 219.176C22.3744 220.338 21.8335 221.55 21.2726 222.742C20.8619 223.613 20.4713 224.134 18.0173 223.633L16.2344 223.263C14.4916 222.912 12.7888 224.034 12.4283 225.777L11.3766 230.935C11.026 232.678 12.1478 234.381 13.8906 234.741L15.6936 235.112C18.3178 235.653 18.3178 236.965 18.3278 237.366C18.3779 238.728 18.428 240.08 18.5782 241.432C18.6383 241.923 18.408 242.955 16.1643 243.686L14.2612 244.307C12.5685 244.868 11.647 246.681 12.1979 248.374L13.8305 253.382C14.3915 255.074 16.2044 255.996 17.9072 255.445L19.8002 254.824C22.0739 254.083 22.9053 254.934 23.1757 255.385C23.957 256.697 24.7583 257.819 25.6096 259.101C25.9201 259.572 26.3609 260.493 24.7182 262.336L23.4862 263.718C22.3043 265.051 22.4145 267.084 23.7466 268.276L27.673 271.782C29.0051 272.963 31.0485 272.853 32.2304 271.521L33.4624 270.139C35.105 268.296 36.0666 268.626 36.5674 268.887C37.9497 269.598 39.1416 270.269 40.5338 270.89C41.0146 271.1 41.9561 271.832 41.4754 274.175L41.0747 276.129C40.7242 277.871 41.846 279.574 43.5888 279.935L48.7472 280.986C50.49 281.337 52.1927 280.215 52.5533 278.472L52.954 276.509C53.4247 274.195 54.4264 273.855 54.9172 273.855C56.2794 273.855 57.6316 273.745 58.9938 273.635C59.3944 273.605 60.7066 273.454 61.5379 275.998L62.1088 277.741C62.6697 279.434 64.4827 280.355 66.1754 279.805L71.1836 278.172C72.8763 277.611 73.7978 275.798 73.2469 274.095L72.686 272.373C71.9047 269.989 72.3855 269.538 73.1968 269.037C74.3186 268.346 75.4605 267.675 76.5422 266.874C77.5038 266.172 77.9746 265.471 80.1781 267.435L81.5303 268.636C82.8625 269.818 84.8958 269.698 86.0877 268.376L89.5934 264.44C90.7753 263.107 90.6551 261.074 89.333 259.882L87.9808 258.68C85.7772 256.717 86.4082 256.166 87.0092 255.135C87.6703 253.973 88.2112 252.761 88.7721 251.569C89.1827 250.697 89.5734 250.177 92.0273 250.677L93.8102 251.048C95.5531 251.398 97.2558 250.277 97.6164 248.534L98.6681 243.375C99.0187 241.633 97.8969 239.93 96.154 239.569L94.3611 239.199C91.7369 238.668 91.7369 237.346 91.7168 236.945C91.6668 235.583 91.6167 234.221 91.4664 232.878C91.4063 232.388 91.6367 231.356 93.8804 230.625L95.7834 230.004C97.4762 229.443 98.3977 227.63 97.8468 225.927L96.2141 220.919C95.6532 219.226 93.8403 218.305 92.1375 218.856L90.2445 219.477C87.9708 220.218 87.1394 219.367 86.869 218.916C86.0977 217.604 85.2964 216.492 84.435 215.2C84.1245 214.729 83.6838 213.808 85.3265 211.975L86.5585 210.592C87.7404 209.26 87.6302 207.217 86.2981 206.035L82.3617 202.529C81.0295 201.347 78.9962 201.457 77.8043 202.79L76.5723 204.172C74.9296 206.015 73.9681 205.684 73.4673 205.424C72.095 204.723 70.8931 204.052 69.5008 203.431C69.02 203.22 68.0885 202.489 68.5593 200.145L68.9599 198.192C69.3105 196.449 68.1887 194.747 66.4459 194.386M59.6448 231.967C62.5095 234.521 62.7599 238.918 60.2057 241.793C57.6516 244.658 53.2545 244.908 50.3798 242.354C47.5152 239.8 47.2648 235.403 49.8189 232.528C52.373 229.663 56.7702 229.413 59.6348 231.967M38.7409 222.652C39.2918 222.041 40.2233 221.981 40.8443 222.532C41.4553 223.083 41.5154 224.014 40.9645 224.635C34.0433 232.398 34.7244 244.287 42.477 251.208C43.098 251.749 43.1581 252.691 42.6172 253.312C42.0763 253.933 41.1348 253.993 40.5138 253.452C40.5138 253.452 40.5038 253.442 40.4938 253.432C31.5092 245.419 30.7179 231.636 38.7409 222.652ZM73.3971 248.864C72.9664 249.555 72.0449 249.776 71.3538 249.335C70.6627 248.904 70.4423 247.983 70.8831 247.292C70.8831 247.282 70.8931 247.272 70.9031 247.262C75.2001 240.501 74.7393 231.757 69.7612 225.476C69.2504 224.835 69.3506 223.904 69.9916 223.383C70.6327 222.872 71.5642 222.972 72.085 223.613C77.8544 230.895 78.3752 241.022 73.3971 248.864ZM72.1952 217.884C82.8424 227.38 83.774 243.706 74.2786 254.353C64.7832 265.001 48.4567 265.932 37.8094 256.437C27.1622 246.941 26.2307 230.615 35.726 219.968C45.2214 209.32 61.5479 208.389 72.1952 217.884Z" fill="#95C2E8"/>
</g>
</g>
<path fill-rule="evenodd" clip-rule="evenodd" d="M473.756 156.134C470.04 156.134 467.035 153.119 467.035 149.413C467.035 145.707 470.05 142.692 473.756 142.692C477.472 142.692 480.477 145.707 480.477 149.413C480.477 153.129 477.472 156.134 473.756 156.134ZM188.374 317.275H152.465C133.064 317.275 117.328 333.011 117.328 352.412C117.328 371.814 133.064 387.549 152.465 387.549H456.098C487.399 387.549 513 361.948 513 330.647C513 299.346 487.399 273.745 456.098 273.745C442.806 273.745 432.039 262.967 432.039 249.686C432.039 236.404 442.806 225.637 456.098 225.627H485.055C498.867 225.627 510.065 214.428 510.065 200.616C510.065 186.804 498.867 175.605 485.055 175.605H448.435C443.057 175.565 438.73 171.168 438.77 165.79C438.81 160.471 443.117 156.174 448.435 156.124H454.896C458.612 156.124 461.617 153.109 461.607 149.393C461.607 145.687 458.602 142.682 454.896 142.682H412.537C403.613 142.682 402.621 153.219 380.094 153.219H327.85C323.002 153.259 319.116 157.216 319.156 162.064C319.196 166.851 323.062 170.718 327.85 170.758H336.273C343.295 170.758 348.984 176.437 348.994 183.448C348.994 190.47 343.315 196.159 336.303 196.169H310.942C276.717 196.169 271.879 205.113 265.889 222.902C259.89 240.691 228.759 242.123 228.759 242.123H186.19C175.613 242.123 167.039 250.697 167.039 261.274C167.039 271.852 175.613 280.425 186.19 280.425H188.384C198.56 280.425 206.803 288.669 206.803 298.845C206.803 309.022 198.56 317.265 188.384 317.265" fill="#DAE9F7"/>
<path fill-rule="evenodd" clip-rule="evenodd" d="M308.078 378.995C410.314 378.995 490.914 385.085 493.188 391.756C515.604 457.663 375.878 413.471 326.528 425.922C296.93 433.394 245.817 455.299 215.928 428.215C189.856 404.587 100.852 398.597 122.968 391.756C129.228 389.823 205.842 378.995 308.078 378.995Z" fill="#BCDDF4"/>
<path fill-rule="evenodd" clip-rule="evenodd" d="M324.454 392.277L149.1 401.902L251.296 446.986L339.148 392.287H324.444L324.454 392.277Z" fill="#DAE9F7"/>
<path fill-rule="evenodd" clip-rule="evenodd" d="M135.197 296.411L112.721 261.976L197.799 239.459L228.208 284.302L168.491 305.096L135.187 296.411H135.197Z" fill="#80AFDD"/>
<path fill-rule="evenodd" clip-rule="evenodd" d="M297.501 298.926L228.208 284.292L255.543 245.028L354.864 261.775L342.934 281.027L297.511 298.926H297.501Z" fill="#406FB5"/>
<path fill-rule="evenodd" clip-rule="evenodd" d="M327.339 307.97L251.496 344.159L297.501 298.926L371.03 269.668L327.329 307.97H327.339Z" fill="#8ABBE5"/>
<path fill-rule="evenodd" clip-rule="evenodd" d="M251.496 344.159L251.115 438.863L324.454 392.287L327.339 307.98L251.496 344.169V344.159Z" fill="#8ABBE5"/>
<path fill-rule="evenodd" clip-rule="evenodd" d="M168.501 305.096L228.208 284.302L229.721 327.652L171.436 327.221L168.501 305.096Z" fill="#8ABBE5"/>
<path fill-rule="evenodd" clip-rule="evenodd" d="M229.721 327.642L228.208 284.292L297.501 298.925L251.496 344.159L229.721 327.652V327.642Z" fill="#5880C0"/>
<path fill-rule="evenodd" clip-rule="evenodd" d="M251.115 438.862L251.496 344.159L216.469 317.596L104.257 288.338L145.254 313.359L149.1 401.902L251.115 438.862Z" fill="#406FB5"/>
<path fill-rule="evenodd" clip-rule="evenodd" d="M104.257 288.338L145.254 313.359L251.496 344.149L216.469 317.586L104.257 288.328V288.338Z" fill="#5880C0"/>
<path fill-rule="evenodd" clip-rule="evenodd" d="M194.624 340.252C212.483 342.035 228.148 358.071 229.6 376.08C231.053 394.09 217.761 407.241 199.902 405.458C182.043 403.675 166.378 387.639 164.926 369.63C163.463 351.631 176.765 338.469 194.624 340.252Z" fill="#5880C0"/>
<g opacity="0.6">
<mask id="mask2_1_911" style="mask-type:luminance" maskUnits="userSpaceOnUse" x="255" y="109" width="93" height="81">
<path d="M347.752 109.138H255.653V189.138H347.752V109.138Z" fill="white"/>
</mask>
<g mask="url(#mask2_1_911)">
<path fill-rule="evenodd" clip-rule="evenodd" d="M255.653 136.302L325.666 110.129L347.752 158.638L277.879 189.137L255.653 136.302Z" fill="#8ABBE5"/>
<path fill-rule="evenodd" clip-rule="evenodd" d="M260.38 136.933L280.072 183.729L344.016 155.814L324.504 112.954L260.38 136.923V136.933Z" fill="#95C2E8"/>
<path fill-rule="evenodd" clip-rule="evenodd" d="M276.577 186.053L270.316 188.617L255.643 136.302L276.577 186.053Z" fill="#406FB5"/>
<path fill-rule="evenodd" clip-rule="evenodd" d="M311.764 115.328C311.423 114.216 311.263 113.064 311.283 111.902C311.353 110.72 311.774 109.699 312.825 109.278C313.767 108.897 314.859 109.288 315.86 110.22C317.834 112.253 318.925 114.987 318.895 117.832C318.805 119.194 318.284 120.226 317.343 120.606C316.952 120.767 316.501 120.586 316.341 120.196C316.181 119.805 316.361 119.354 316.752 119.194C316.762 119.194 316.772 119.194 316.782 119.184C317.122 119.044 317.333 118.503 317.373 117.742C317.373 115.358 316.461 113.074 314.819 111.341C314.258 110.821 313.737 110.56 313.396 110.7C313.006 110.851 312.845 111.371 312.815 111.992C312.795 112.934 312.926 113.886 313.196 114.787L311.764 115.328ZM269.405 131.164C269.115 130.142 268.984 129.09 269.014 128.028C269.084 126.847 269.505 125.825 270.557 125.404C271.498 125.034 272.59 125.414 273.592 126.346C275.565 128.389 276.657 131.123 276.627 133.958C276.537 135.32 276.016 136.352 275.074 136.733C274.684 136.893 274.233 136.703 274.073 136.312C273.912 135.921 274.103 135.471 274.493 135.31C274.493 135.31 274.493 135.31 274.503 135.31C274.854 135.17 275.054 134.629 275.094 133.868C275.094 131.484 274.183 129.2 272.55 127.468C271.989 126.947 271.468 126.686 271.128 126.827C270.737 126.977 270.577 127.498 270.547 128.119C270.527 128.96 270.627 129.811 270.847 130.623L269.405 131.164ZM283.498 125.895C283.157 124.783 282.997 123.631 283.017 122.469C283.087 121.288 283.508 120.266 284.56 119.845C285.501 119.475 286.593 119.855 287.594 120.787C289.568 122.82 290.659 125.564 290.629 128.399C290.549 129.761 290.018 130.793 289.077 131.174C288.686 131.334 288.236 131.133 288.085 130.743C287.925 130.352 288.125 129.902 288.516 129.751C288.857 129.611 289.067 129.07 289.107 128.309C289.107 125.925 288.195 123.641 286.553 121.909C285.992 121.388 285.471 121.127 285.13 121.268C284.74 121.418 284.58 121.939 284.54 122.56C284.52 123.511 284.65 124.453 284.93 125.354L283.498 125.895ZM297.631 120.616C297.29 119.505 297.13 118.353 297.15 117.191C297.22 116.009 297.641 114.987 298.692 114.567C299.634 114.196 300.726 114.577 301.727 115.508C303.701 117.541 304.792 120.276 304.762 123.121C304.682 124.483 304.151 125.514 303.21 125.895C302.819 126.055 302.368 125.855 302.218 125.464C302.068 125.074 302.258 124.623 302.649 124.473C302.989 124.332 303.2 123.792 303.24 123.03C303.24 120.646 302.328 118.363 300.686 116.63C300.125 116.109 299.604 115.849 299.263 115.989C298.873 116.139 298.713 116.66 298.682 117.281C298.662 118.233 298.793 119.174 299.073 120.076L297.631 120.616Z" fill="#406FB5"/>
<path fill-rule="evenodd" clip-rule="evenodd" d="M272.38 145.096C274.233 144.385 276.076 143.674 277.929 142.953C278.149 142.873 278.4 142.983 278.49 143.193C279.291 145.176 280.102 147.149 280.904 149.123C280.994 149.343 280.884 149.583 280.663 149.674C278.8 150.405 276.937 151.146 275.084 151.867C274.864 151.947 274.623 151.837 274.533 151.627C273.732 149.634 272.941 147.63 272.149 145.637C272.059 145.427 272.159 145.186 272.37 145.096C272.37 145.096 272.37 145.096 272.38 145.096ZM276.657 155.804L282.246 153.58C282.466 153.49 282.717 153.59 282.807 153.81C283.608 155.794 284.419 157.767 285.221 159.75C285.301 159.97 285.201 160.211 284.98 160.301C283.107 161.062 281.224 161.823 279.361 162.585C279.141 162.675 278.9 162.564 278.81 162.354C278.019 160.361 277.218 158.368 276.426 156.364C276.336 156.154 276.436 155.904 276.657 155.814M321.53 137.935L327.129 135.711C327.339 135.621 327.589 135.711 327.7 135.911C328.571 137.764 329.432 139.607 330.314 141.46C330.404 141.661 330.304 141.901 330.103 141.981C330.103 141.981 330.083 141.981 330.073 141.981C328.2 142.742 326.327 143.504 324.454 144.265C324.244 144.355 323.994 144.265 323.883 144.054C323.032 142.191 322.161 140.318 321.299 138.455C321.209 138.255 321.299 138.025 321.51 137.935H321.53ZM312.555 141.51C312.345 141.58 312.234 141.811 312.315 142.021C312.315 142.021 312.315 142.031 312.315 142.041C313.156 143.934 314.007 145.827 314.859 147.72C314.959 147.931 315.209 148.021 315.43 147.931C317.303 147.17 319.176 146.408 321.049 145.647C321.259 145.577 321.369 145.347 321.289 145.136V145.116C320.438 143.243 319.576 141.37 318.725 139.487C318.615 139.277 318.374 139.187 318.154 139.277C316.291 140.018 314.428 140.759 312.565 141.51M303.59 145.086L309.18 142.863C309.4 142.772 309.64 142.863 309.74 143.083C310.582 144.976 311.423 146.889 312.275 148.782C312.365 148.992 312.265 149.233 312.054 149.313C312.054 149.313 312.044 149.313 312.034 149.313C310.161 150.074 308.288 150.835 306.415 151.597C306.205 151.687 305.954 151.597 305.854 151.376C305.023 149.463 304.181 147.54 303.35 145.617C303.26 145.407 303.36 145.166 303.57 145.086C303.57 145.086 303.57 145.086 303.58 145.086M294.606 148.662C294.386 148.742 294.285 148.982 294.365 149.203C295.187 151.156 296.018 153.099 296.829 155.042C296.93 155.263 297.18 155.353 297.39 155.263C299.263 154.501 301.136 153.74 303.01 152.979C303.22 152.899 303.33 152.658 303.24 152.448C302.419 150.525 301.577 148.592 300.756 146.669C300.656 146.458 300.415 146.358 300.195 146.448L294.606 148.672M285.631 152.248C285.411 152.328 285.301 152.578 285.381 152.789C286.192 154.762 287.004 156.735 287.805 158.698C287.895 158.919 288.145 159.019 288.366 158.919C290.229 158.157 292.102 157.396 293.985 156.635C294.205 156.555 294.305 156.304 294.225 156.094C293.414 154.141 292.593 152.188 291.771 150.234C291.671 150.024 291.431 149.914 291.21 150.004C289.347 150.745 287.484 151.497 285.621 152.238M280.914 166.521L286.553 164.197C286.773 164.107 287.024 164.197 287.114 164.428C287.915 166.411 288.726 168.384 289.528 170.367C289.618 170.587 289.508 170.838 289.287 170.918C287.394 171.709 285.511 172.501 283.628 173.292C283.418 173.382 283.167 173.292 283.077 173.072C282.286 171.078 281.485 169.075 280.693 167.082C280.603 166.861 280.713 166.611 280.934 166.531M326.157 147.951C328.04 147.18 329.913 146.408 331.796 145.637C332.007 145.537 332.257 145.627 332.367 145.827C333.239 147.68 334.1 149.533 334.981 151.376C335.071 151.577 334.981 151.807 334.771 151.897H334.751L329.092 154.271C328.881 154.371 328.621 154.281 328.511 154.081C327.649 152.218 326.788 150.345 325.927 148.472C325.847 148.261 325.947 148.031 326.147 147.941C326.147 147.941 326.147 147.941 326.157 147.941M317.102 151.657C316.892 151.737 316.782 151.967 316.862 152.178C316.862 152.178 316.862 152.178 316.862 152.188C317.713 154.081 318.555 155.974 319.406 157.877C319.516 158.087 319.767 158.177 319.977 158.077C321.86 157.286 323.753 156.495 325.646 155.703C325.857 155.633 325.957 155.403 325.887 155.193C325.887 155.193 325.887 155.173 325.877 155.162C325.015 153.289 324.164 151.416 323.302 149.533C323.192 149.323 322.942 149.243 322.731 149.333L317.092 151.647M308.048 155.363C309.921 154.592 311.794 153.82 313.677 153.049C313.897 152.959 314.148 153.049 314.248 153.259C315.089 155.152 315.94 157.056 316.782 158.959C316.872 159.169 316.772 159.409 316.561 159.489C316.561 159.489 316.561 159.489 316.551 159.489L310.882 161.863C310.672 161.964 310.422 161.863 310.321 161.653C309.48 159.73 308.649 157.817 307.817 155.894C307.737 155.683 307.837 155.433 308.048 155.353M299.003 159.069C298.783 159.149 298.672 159.399 298.753 159.61C299.574 161.553 300.395 163.496 301.217 165.449C301.317 165.67 301.567 165.76 301.788 165.66C303.671 164.868 305.564 164.077 307.447 163.286C307.657 163.206 307.767 162.965 307.677 162.745C306.846 160.822 306.014 158.889 305.183 156.965C305.083 156.755 304.832 156.655 304.622 156.755C302.739 157.526 300.866 158.298 298.993 159.069M289.948 162.785C291.821 162.014 293.704 161.242 295.587 160.471C295.808 160.381 296.048 160.471 296.148 160.691C296.97 162.645 297.781 164.598 298.602 166.551C298.682 166.771 298.582 167.012 298.362 167.102L292.703 169.476C292.492 169.576 292.232 169.476 292.142 169.265C291.331 167.292 290.519 165.319 289.708 163.356C289.618 163.135 289.728 162.885 289.948 162.795M316.882 127.898C318.725 127.177 320.578 126.466 322.431 125.755C322.651 125.665 322.892 125.755 323.002 125.965C323.873 127.808 324.745 129.661 325.616 131.514C325.706 131.714 325.616 131.945 325.416 132.025C325.406 132.025 325.396 132.025 325.386 132.035C323.533 132.766 321.67 133.497 319.817 134.229C319.596 134.319 319.356 134.229 319.246 134.018C318.384 132.145 317.523 130.272 316.672 128.409C316.581 128.219 316.672 127.988 316.862 127.908C316.872 127.908 316.882 127.898 316.902 127.898M307.988 131.334C307.787 131.404 307.677 131.634 307.757 131.835C307.757 131.835 307.757 131.855 307.767 131.865C308.619 133.758 309.46 135.651 310.311 137.544C310.411 137.754 310.662 137.844 310.872 137.764C312.735 137.033 314.588 136.302 316.451 135.571C316.662 135.501 316.762 135.27 316.692 135.07V135.05C315.83 133.177 314.979 131.294 314.118 129.421C314.007 129.21 313.767 129.12 313.547 129.2C311.694 129.912 309.851 130.633 307.998 131.344M299.103 134.789C300.946 134.078 302.799 133.357 304.652 132.646C304.873 132.556 305.123 132.656 305.223 132.866C306.064 134.769 306.916 136.673 307.757 138.576C307.847 138.776 307.747 139.016 307.537 139.096C307.537 139.096 307.527 139.096 307.517 139.096C305.654 139.828 303.791 140.569 301.938 141.29C301.717 141.38 301.477 141.28 301.377 141.07C300.546 139.147 299.704 137.223 298.873 135.31C298.783 135.11 298.873 134.88 299.073 134.789H299.093M290.189 138.225C289.978 138.305 289.868 138.536 289.948 138.746C289.948 138.746 289.948 138.746 289.948 138.756C290.77 140.699 291.591 142.642 292.412 144.595C292.512 144.806 292.753 144.906 292.973 144.826C294.826 144.095 296.689 143.363 298.552 142.632C298.763 142.552 298.873 142.322 298.793 142.101C298.793 142.101 298.793 142.101 298.793 142.091C297.961 140.168 297.13 138.235 296.299 136.312C296.198 136.102 295.958 136.001 295.738 136.082C293.895 136.793 292.042 137.514 290.189 138.225ZM281.284 141.661C281.074 141.741 280.964 141.981 281.044 142.191C281.855 144.165 282.667 146.128 283.468 148.101C283.558 148.321 283.808 148.422 284.019 148.341L289.598 146.148C289.808 146.068 289.918 145.827 289.838 145.607C289.027 143.654 288.205 141.701 287.384 139.747C287.284 139.537 287.044 139.427 286.823 139.517C284.97 140.238 283.117 140.949 281.274 141.661" fill="white"/>
</g>
</g>
<g opacity="0.6">
<mask id="mask3_1_911" style="mask-type:luminance" maskUnits="userSpaceOnUse" x="397" y="-1" width="72" height="73">
<path d="M468.929 -0.00929241H397.723V71.1962H468.929V-0.00929241Z" fill="white"/>
</mask>
<g mask="url(#mask3_1_911)">
<path fill-rule="evenodd" clip-rule="evenodd" d="M446.412 2.87522C464.481 10.0969 473.266 30.6102 466.044 48.6695C458.822 66.7388 438.309 75.523 420.25 68.3013C402.18 61.0796 393.396 40.5663 400.618 22.5071C407.839 4.43775 428.343 -4.34649 446.412 2.87522Z" fill="#F1F8FC"/>
<path fill-rule="evenodd" clip-rule="evenodd" d="M439.721 19.6025C448.556 23.1382 452.853 33.1545 449.317 41.9888C445.781 50.8231 435.765 55.1201 426.93 51.5844C418.096 48.0486 413.799 38.0324 417.335 29.1981C419.028 24.9612 422.343 21.5657 426.54 19.7628C430.737 17.9598 435.484 17.8997 439.721 19.6025ZM448.766 28.9777C445.11 20.4539 435.234 16.4975 426.7 20.1534C418.176 23.8093 414.22 33.6853 417.876 42.2192C421.532 50.743 431.408 54.6994 439.942 51.0435C444.038 49.2906 447.263 45.9753 448.916 41.8386C450.579 37.7019 450.519 33.0743 448.756 28.9777" fill="#BFDBF2"/>
<path fill-rule="evenodd" clip-rule="evenodd" d="M440.753 17.0185C451.009 21.1151 455.998 32.764 451.901 43.0207C447.804 53.2773 436.155 58.2654 425.899 54.1687C415.642 50.0721 410.654 38.4232 414.751 28.1666C418.847 17.9099 430.486 12.9219 440.743 17.0185M451.5 42.8604C455.517 32.8241 450.629 21.4256 440.593 17.4091C430.556 13.3926 419.158 18.2805 415.141 28.3168C411.125 38.3531 416.013 49.7516 426.049 53.7681C430.867 55.6912 436.256 55.6311 441.033 53.5878C445.811 51.5445 449.567 47.6782 451.5 42.8604Z" fill="#BFDBF2"/>
<path d="M440.48 17.289L439.558 19.606L439.911 19.7469L440.834 17.4299L440.48 17.289Z" fill="#BFDBF2"/>
<path fill-rule="evenodd" clip-rule="evenodd" d="M448.656 23.2988L448.886 23.5892L446.923 25.1317L446.693 24.8312L448.646 23.2887L448.656 23.2988Z" fill="#BFDBF2"/>
<path d="M452.741 32.6313L450.283 32.9856L450.337 33.3624L452.796 33.0081L452.741 32.6313Z" fill="#BFDBF2"/>
<path fill-rule="evenodd" clip-rule="evenodd" d="M451.641 42.71L451.5 43.0605L449.187 42.139L449.327 41.7885L451.641 42.71Z" fill="#BFDBF2"/>
<path fill-rule="evenodd" clip-rule="evenodd" d="M445.621 50.9134L445.32 51.1438L443.778 49.1906L444.078 48.9603L445.621 50.9134Z" fill="#BFDBF2"/>
<path d="M435.961 52.5706L435.584 52.6249L435.94 55.0934L436.317 55.0392L435.961 52.5706Z" fill="#BFDBF2"/>
<path fill-rule="evenodd" clip-rule="evenodd" d="M426.209 53.8982L425.859 53.758L426.78 51.4443L427.131 51.5845L426.209 53.8982Z" fill="#BFDBF2"/>
<path fill-rule="evenodd" clip-rule="evenodd" d="M418.006 47.8884L417.776 47.5879L419.729 46.0454L419.959 46.3459L418.006 47.8884Z" fill="#BFDBF2"/>
<path d="M416.322 37.8656L413.854 38.2221L413.908 38.5988L416.377 38.2423L416.322 37.8656Z" fill="#BFDBF2"/>
<path d="M415.165 28.1244L415.023 28.4778L417.33 29.4003L417.471 29.0469L415.165 28.1244Z" fill="#BFDBF2"/>
<path d="M421.335 20.0441L421.036 20.28L422.582 22.2372L422.88 22.0013L421.335 20.0441Z" fill="#BFDBF2"/>
<path d="M430.708 16.11L430.341 16.1634L430.701 18.6315L431.067 18.5781L430.708 16.11Z" fill="#BFDBF2"/>
<path fill-rule="evenodd" clip-rule="evenodd" d="M443.818 9.37592C458.301 15.1653 465.343 31.602 459.553 46.0754C453.764 60.5589 437.337 67.6003 422.854 61.811C408.37 56.0216 401.329 39.5849 407.118 25.1114C409.903 18.1602 415.332 12.5911 422.213 9.64636C429.094 6.69157 436.867 6.5914 443.818 9.37592ZM459.093 24.5505C452.993 10.3174 436.516 3.72676 422.293 9.82665C408.06 15.9265 401.469 32.4033 407.569 46.6263C413.669 60.8594 430.146 67.4501 444.369 61.3502C451.2 58.4255 456.589 52.8965 459.353 45.9953C462.117 39.0941 462.027 31.3816 459.093 24.5505Z" fill="#BFDBF2"/>
<path fill-rule="evenodd" clip-rule="evenodd" d="M444.329 8.08403C459.523 14.1639 466.905 31.4019 460.835 46.5865C454.756 61.7811 437.518 69.1631 422.333 63.0932C407.138 57.0134 399.756 39.7754 405.826 24.5908C408.741 17.299 414.44 11.4595 421.662 8.36449C428.884 5.25945 437.037 5.15928 444.339 8.08403M460.375 23.9998C453.974 9.06563 436.686 2.15442 421.752 8.54478C406.818 14.9452 399.907 32.2332 406.297 47.1674C412.697 62.1016 429.985 69.0128 444.92 62.6225C452.091 59.5475 457.75 53.7481 460.645 46.5063C463.55 39.2646 463.45 31.1615 460.365 23.9998" fill="#BFDBF2"/>
<path fill-rule="evenodd" clip-rule="evenodd" d="M454.655 41.6082C454.655 41.6082 454.806 41.6783 454.956 41.7484C455.066 41.8085 455.166 41.8486 455.236 41.8787L455.907 42.109C455.907 42.109 455.978 42.1691 455.968 42.2092V42.2292C455.958 42.2793 455.907 42.2993 455.857 42.2893C455.767 42.2593 455.677 42.2593 455.597 42.2893C455.507 42.3695 455.427 42.4596 455.377 42.5698C455.286 42.73 455.126 43.1006 454.886 43.7016C454.615 44.3827 454.415 44.9136 454.275 45.2842C454.175 45.5146 454.115 45.7549 454.084 46.0054C454.084 46.1055 454.155 46.1957 454.255 46.2257C454.325 46.2558 454.345 46.2958 454.325 46.3559C454.315 46.416 454.255 46.4461 454.195 46.436C454.195 46.436 454.175 46.4361 454.165 46.426C454.135 46.416 454.105 46.396 454.074 46.386C453.814 46.2457 453.634 46.1656 453.534 46.1255C453.373 46.0554 453.213 46.0053 453.043 45.9653C453.003 45.9653 452.963 45.9453 452.923 45.9252C452.872 45.9052 452.852 45.8651 452.883 45.805C452.893 45.765 452.943 45.7349 452.983 45.7449C453.083 45.775 453.203 45.7449 453.283 45.6949C453.413 45.5346 453.514 45.3543 453.584 45.154C453.714 44.8635 453.904 44.3927 454.155 43.7617C454.425 43.1006 454.595 42.6499 454.665 42.4195C454.726 42.2793 454.756 42.1291 454.756 41.9688C454.726 41.8887 454.665 41.8186 454.585 41.7885C454.535 41.7685 454.515 41.7184 454.535 41.6683C454.535 41.6683 454.535 41.6683 454.535 41.6583C454.545 41.6182 454.585 41.5882 454.635 41.5982C454.635 41.5982 454.645 41.5982 454.655 41.5982M456.358 42.2793C456.358 42.2793 456.268 42.2793 456.248 42.3194C456.248 42.3194 456.248 42.3294 456.248 42.3394C456.218 42.3895 456.238 42.4396 456.278 42.4696C456.358 42.4997 456.418 42.5698 456.448 42.6499C456.448 42.8001 456.418 42.9504 456.358 43.1006C456.278 43.331 456.118 43.7817 455.847 44.4428C455.597 45.0738 455.407 45.5346 455.276 45.8351C455.206 46.0354 455.106 46.2157 454.976 46.3759C454.886 46.436 454.776 46.4561 454.675 46.426C454.635 46.416 454.585 46.4461 454.575 46.4861C454.555 46.5462 454.565 46.5863 454.615 46.6063C454.655 46.6163 454.695 46.6364 454.736 46.6364C454.906 46.6764 455.066 46.7365 455.226 46.8066C455.326 46.8467 455.507 46.9369 455.767 47.0671C455.807 47.0871 455.837 47.0971 455.857 47.1071C455.907 47.1372 455.978 47.1172 456.008 47.0671C456.008 47.0671 456.018 47.047 456.018 47.037C456.038 46.9769 456.018 46.9369 455.948 46.9068C455.847 46.8768 455.787 46.7866 455.777 46.6865C455.797 46.436 455.857 46.1957 455.958 45.9653C456.088 45.5847 456.298 45.0638 456.569 44.3827C456.809 43.7918 456.969 43.4111 457.059 43.2509C457.109 43.1407 457.179 43.0405 457.28 42.9604C457.37 42.9304 457.46 42.9304 457.54 42.9604C457.59 42.9704 457.64 42.9504 457.65 42.9003C457.67 42.8602 457.66 42.8102 457.62 42.7901C457.62 42.7901 457.61 42.7901 457.6 42.7901L456.929 42.5598C456.859 42.5297 456.769 42.4896 456.649 42.4295C456.498 42.3494 456.398 42.3094 456.348 42.2893M458.051 42.9704C458.051 42.9704 458.201 43.0405 458.351 43.1107C458.462 43.1707 458.562 43.2108 458.632 43.2409L459.303 43.4712C459.303 43.4712 459.373 43.5313 459.363 43.5714C459.363 43.5714 459.363 43.5814 459.363 43.5914C459.353 43.6415 459.303 43.6716 459.253 43.6515C459.163 43.6215 459.073 43.6215 458.982 43.6515C458.892 43.7317 458.812 43.8318 458.762 43.942C458.672 44.1023 458.512 44.4729 458.271 45.0738C458.001 45.7549 457.801 46.2858 457.66 46.6564C457.56 46.8868 457.5 47.1272 457.48 47.3776C457.48 47.4777 457.55 47.5679 457.65 47.5979C457.72 47.628 457.74 47.6681 457.72 47.7281C457.71 47.7882 457.65 47.8183 457.59 47.8083C457.58 47.8083 457.57 47.8083 457.56 47.7983C457.54 47.7983 457.51 47.7782 457.47 47.7582C457.21 47.618 457.029 47.5278 456.929 47.4978C456.769 47.4276 456.609 47.3776 456.438 47.3275C456.398 47.3275 456.358 47.3075 456.318 47.2974C456.268 47.2774 456.248 47.2373 456.278 47.1672C456.288 47.1272 456.338 47.0971 456.378 47.1071C456.488 47.1372 456.599 47.1071 456.689 47.057C456.819 46.8968 456.919 46.7165 456.989 46.5162C457.119 46.2157 457.31 45.7549 457.56 45.1239C457.831 44.4628 458.001 44.0121 458.071 43.7817C458.131 43.6415 458.161 43.4913 458.161 43.341C458.151 43.2709 458.091 43.2208 457.991 43.1607C457.941 43.1407 457.921 43.0806 457.941 43.0305C457.941 42.9905 457.991 42.9604 458.041 42.9704C458.041 42.9704 458.051 42.9704 458.061 42.9704" fill="#87B7E2"/>
<path fill-rule="evenodd" clip-rule="evenodd" d="M422.603 60.2784L422.433 60.2082L422.653 58.4955C422.714 58.0648 422.774 57.5339 422.854 56.9129C422.904 56.5423 422.944 56.1817 422.954 55.8111C422.954 55.731 422.934 55.6509 422.904 55.5807C422.874 55.5307 422.824 55.4806 422.764 55.4606C422.724 55.4405 422.704 55.4005 422.724 55.3504C422.744 55.3003 422.794 55.2702 422.844 55.2903L423.415 55.5607C423.615 55.6408 423.825 55.711 424.026 55.7711L424.126 55.8011C424.176 55.8111 424.216 55.8712 424.196 55.9213C424.196 55.9213 424.196 55.9413 424.186 55.9513C424.166 56.0014 424.126 56.0215 424.056 56.0014C423.886 55.9614 423.715 56.0615 423.675 56.2318C423.425 57.1833 423.265 58.1449 423.174 59.1265C423.495 58.7058 423.805 58.2751 424.116 57.8344L424.687 57.0331C424.747 56.9429 424.807 56.8428 424.847 56.7326C424.887 56.6425 424.897 56.5423 424.877 56.4521C424.877 56.382 424.827 56.3119 424.767 56.2819C424.697 56.2518 424.677 56.2118 424.697 56.1517C424.727 56.0815 424.767 56.0615 424.817 56.0816C424.857 56.1016 424.907 56.1216 424.967 56.1517C425.067 56.2118 425.178 56.2618 425.288 56.3019C425.378 56.342 425.468 56.372 425.568 56.3921C425.618 56.4021 425.668 56.4221 425.718 56.4421C425.769 56.4622 425.779 56.5022 425.759 56.5723C425.749 56.6224 425.688 56.6525 425.638 56.6425C425.558 56.6324 425.468 56.6425 425.398 56.6825C425.298 56.7426 425.198 56.8228 425.118 56.9129C425.007 57.0231 424.807 57.2935 424.486 57.7242L423.515 59.0564C423.044 59.7074 422.734 60.1181 422.593 60.2984M426.039 56.6124C426.039 56.6124 425.959 56.6124 425.939 56.6425C425.939 56.6425 425.939 56.6525 425.939 56.6625C425.909 56.7026 425.929 56.7626 425.969 56.7927C426.049 56.8227 426.109 56.8929 426.139 56.973C426.139 57.1232 426.109 57.2735 426.049 57.4137C425.979 57.6441 425.809 58.0948 425.538 58.7559C425.288 59.3869 425.097 59.8477 424.967 60.1481C424.897 60.3385 424.797 60.5288 424.667 60.689C424.577 60.7491 424.466 60.7691 424.356 60.7391C424.316 60.7291 424.266 60.7591 424.256 60.7992C424.226 60.8593 424.246 60.8994 424.296 60.9294C424.336 60.9394 424.376 60.9494 424.416 60.9595C424.587 60.9995 424.747 61.0596 424.907 61.1297C425.007 61.1698 425.188 61.26 425.448 61.3902C425.488 61.4102 425.518 61.4202 425.538 61.4302C425.588 61.4603 425.658 61.4402 425.688 61.3902C425.688 61.3902 425.698 61.3701 425.698 61.3601C425.718 61.3 425.698 61.2599 425.628 61.2299C425.528 61.1999 425.468 61.1097 425.458 61.0095C425.478 60.7591 425.548 60.5187 425.648 60.2884C425.779 59.9078 425.989 59.3769 426.259 58.7058C426.5 58.1148 426.66 57.7342 426.75 57.574C426.8 57.4638 426.87 57.3636 426.97 57.2835C427.061 57.2534 427.151 57.2534 427.241 57.2835C427.281 57.3035 427.331 57.2835 427.351 57.2334C427.351 57.2334 427.351 57.2334 427.351 57.2234C427.371 57.1833 427.361 57.1433 427.331 57.1132C427.331 57.1132 427.311 57.1132 427.301 57.1032L426.63 56.8728C426.54 56.8328 426.44 56.7927 426.349 56.7426C426.199 56.6725 426.099 56.6224 426.049 56.6024" fill="#87B7E2"/>
<path fill-rule="evenodd" clip-rule="evenodd" d="M441.093 11.5597C441.444 11.3093 441.744 11.0088 441.995 10.6583C442.025 10.5982 442.035 10.5281 442.015 10.468C441.985 10.3878 441.935 10.3277 441.865 10.2777C441.825 10.2476 441.815 10.1975 441.835 10.1475C441.835 10.1074 441.885 10.0773 441.925 10.0874C441.925 10.0874 441.935 10.0874 441.945 10.0874C442.005 10.1074 442.055 10.1374 442.105 10.1675C442.205 10.2176 442.295 10.2676 442.365 10.2977C442.466 10.3378 442.606 10.3878 442.786 10.4379C442.866 10.458 442.916 10.478 442.936 10.488C443.006 10.5181 443.026 10.5581 443.006 10.6282C442.996 10.6783 442.946 10.7084 442.906 10.6883C442.906 10.6883 442.906 10.6883 442.896 10.6883C442.776 10.6483 442.656 10.6583 442.546 10.6983C442.395 10.7484 442.255 10.8286 442.135 10.9287C441.995 11.0389 441.654 11.3294 441.123 11.7901C441.123 12.2709 441.133 12.7917 441.163 13.3426C441.163 13.7032 441.214 14.0538 441.304 14.3943C441.344 14.5145 441.414 14.6147 441.514 14.6948C441.574 14.7349 441.604 14.775 441.574 14.8351C441.544 14.8952 441.504 14.9152 441.434 14.8851L440.653 14.5346C440.552 14.4945 440.442 14.4544 440.342 14.4244C440.252 14.3943 440.192 14.3743 440.172 14.3643C440.132 14.3443 440.092 14.3342 440.052 14.3242C440.032 14.3242 440.022 14.3242 440.002 14.3142C439.962 14.2942 439.952 14.2541 439.972 14.194C439.982 14.1439 440.032 14.1239 440.072 14.1339C440.202 14.184 440.342 14.1339 440.402 13.9937C440.402 13.9937 440.402 13.9837 440.402 13.9737C440.482 13.4528 440.482 12.922 440.422 12.4011C440.012 12.7116 439.651 13.0722 439.331 13.4829C439.27 13.6331 439.341 13.7833 439.551 13.9236C439.591 13.9436 439.611 13.9937 439.591 14.0338C439.571 14.0938 439.531 14.1239 439.481 14.1039C439.461 14.0938 439.391 14.0638 439.29 14.0037C439.17 13.9436 439.05 13.8835 438.92 13.8334C438.83 13.7934 438.73 13.7633 438.629 13.7333C438.569 13.7233 438.509 13.7032 438.449 13.6832C438.369 13.6531 438.339 13.6031 438.359 13.5329C438.369 13.4929 438.419 13.4628 438.459 13.4728C438.579 13.5029 438.71 13.4929 438.83 13.4628C438.99 13.3827 439.14 13.2825 439.27 13.1623C439.461 13.0021 439.841 12.6715 440.402 12.1607C440.402 11.4896 440.382 10.8185 440.322 10.1475C440.322 9.91708 440.212 9.70674 440.042 9.54648C439.992 9.51643 439.972 9.46635 439.992 9.41626C440.012 9.35617 440.052 9.33614 440.112 9.35617C440.152 9.3762 440.182 9.39623 440.222 9.41626C440.412 9.51643 440.613 9.59656 440.813 9.67669C440.943 9.72677 441.093 9.78687 441.284 9.84696C441.394 9.87701 441.464 9.90706 441.474 9.90706C441.554 9.93711 441.584 9.98719 441.554 10.0373C441.544 10.0874 441.494 10.1174 441.444 10.1074C441.444 10.1074 441.434 10.1074 441.424 10.1074C441.374 10.1074 441.314 10.1074 441.264 10.1074C441.194 10.1074 441.143 10.1575 441.113 10.2176C441.083 10.3378 441.063 10.458 441.073 10.5782C441.073 10.7584 441.073 11.089 441.093 11.5698M443.527 10.7284C443.527 10.7284 443.447 10.7284 443.427 10.7584C443.427 10.7584 443.427 10.7685 443.427 10.7785C443.397 10.8185 443.417 10.8786 443.457 10.9087C443.537 10.9387 443.597 11.0088 443.627 11.089C443.627 11.2392 443.597 11.3895 443.537 11.5297C443.467 11.7601 443.297 12.2108 443.026 12.8719C442.776 13.5029 442.586 13.9636 442.456 14.2641C442.385 14.4544 442.285 14.6447 442.155 14.805C442.065 14.8651 441.955 14.8851 441.855 14.8551C441.815 14.8451 441.764 14.8751 441.754 14.9152C441.734 14.9753 441.744 15.0153 441.795 15.0454C441.835 15.0554 441.875 15.0654 441.915 15.0754C442.085 15.1155 442.245 15.1756 442.405 15.2457C442.586 15.3258 442.766 15.416 442.946 15.5162L443.037 15.5562C443.087 15.5863 443.157 15.5662 443.187 15.5162C443.187 15.5162 443.187 15.4961 443.197 15.4861C443.217 15.426 443.197 15.3859 443.127 15.3559C443.026 15.3258 442.966 15.2357 442.956 15.1355C442.976 14.8851 443.037 14.6447 443.137 14.4144C443.267 14.0337 443.477 13.5029 443.748 12.8318C443.988 12.2408 444.148 11.8602 444.238 11.7C444.289 11.5898 444.359 11.4896 444.459 11.4095C444.549 11.3794 444.639 11.3794 444.719 11.4095C444.769 11.4195 444.819 11.3995 444.829 11.3494C444.849 11.3093 444.839 11.2593 444.799 11.2392H444.779L444.108 11.0089C444.008 10.9688 443.918 10.9287 443.828 10.8786C443.678 10.8085 443.577 10.7584 443.527 10.7384M445.23 11.4195C445.23 11.4195 445.38 11.4896 445.531 11.5597C445.621 11.6098 445.711 11.6499 445.811 11.69L446.482 11.9203C446.482 11.9203 446.552 11.9804 446.542 12.0205V12.0405C446.532 12.0906 446.482 12.1106 446.432 12.1006C446.342 12.0706 446.252 12.0706 446.162 12.1006C446.071 12.1807 445.991 12.2709 445.941 12.3811C445.851 12.5413 445.691 12.922 445.45 13.5129C445.18 14.194 444.98 14.7249 444.839 15.0955C444.739 15.3258 444.679 15.5662 444.659 15.8166C444.659 15.9168 444.729 16.007 444.829 16.037C444.9 16.067 444.92 16.1071 444.9 16.1672C444.89 16.2273 444.829 16.2574 444.769 16.2473C444.769 16.2473 444.749 16.2473 444.739 16.2373C444.719 16.2373 444.689 16.2173 444.649 16.1973C444.389 16.057 444.208 15.9769 444.108 15.9268C443.948 15.8567 443.788 15.8066 443.617 15.7666C443.577 15.7666 443.537 15.7465 443.497 15.7365C443.447 15.7165 443.427 15.6764 443.457 15.6063C443.467 15.5662 443.517 15.5362 443.557 15.5462C443.668 15.5763 443.778 15.5462 443.868 15.4861C443.998 15.3259 444.098 15.1456 444.168 14.9552C444.299 14.6548 444.489 14.194 444.739 13.563C445.01 12.9019 445.18 12.4512 445.25 12.2208C445.31 12.0806 445.34 11.9303 445.34 11.7801C445.31 11.7 445.25 11.6299 445.17 11.5998C445.12 11.5798 445.1 11.5297 445.12 11.4796C445.12 11.4796 445.12 11.4796 445.12 11.4696C445.13 11.4295 445.17 11.3995 445.22 11.4095C445.22 11.4095 445.23 11.4095 445.24 11.4095" fill="#87B7E2"/>
<path fill-rule="evenodd" clip-rule="evenodd" d="M409.082 23.3785C409.132 23.3985 409.232 23.4486 409.382 23.5187C409.492 23.5688 409.592 23.6189 409.662 23.6489L410.334 23.8793C410.334 23.8793 410.404 23.9394 410.394 23.9794C410.394 23.9794 410.394 23.9895 410.394 23.9995C410.384 24.0496 410.334 24.0696 410.283 24.0596C410.193 24.0295 410.103 24.0295 410.013 24.0596C409.923 24.1397 409.843 24.2298 409.793 24.34C409.703 24.5003 409.542 24.8709 409.302 25.4719C409.031 26.153 408.821 26.6838 408.691 27.0544C408.591 27.2848 408.531 27.5252 408.501 27.7756C408.501 27.8758 408.571 27.9659 408.671 27.996C408.741 28.026 408.761 28.0661 408.741 28.1262C408.731 28.1863 408.671 28.2163 408.611 28.2063C408.601 28.2063 408.591 28.2063 408.581 28.1963C408.561 28.1963 408.531 28.1762 408.491 28.1562C408.23 28.016 408.05 27.9359 407.95 27.8858C407.789 27.8157 407.629 27.7656 407.459 27.7155C407.419 27.7155 407.379 27.6955 407.339 27.6854C407.289 27.6654 407.269 27.6254 407.289 27.5653C407.299 27.5252 407.349 27.4951 407.389 27.5052C407.499 27.5352 407.609 27.5052 407.699 27.4551C407.829 27.2948 407.94 27.1145 408 26.9142C408.13 26.6137 408.32 26.153 408.571 25.5219C408.831 24.8609 409.001 24.4101 409.082 24.1798C409.142 24.0395 409.172 23.8893 409.172 23.729C409.142 23.6489 409.082 23.5788 409.001 23.5487C408.951 23.5287 408.931 23.4686 408.951 23.4285C408.951 23.3885 409.001 23.3584 409.041 23.3684C409.041 23.3684 409.051 23.3684 409.062 23.3684M411.646 26.2131C411.626 25.7323 411.626 25.4017 411.626 25.2215C411.626 25.1013 411.626 24.9811 411.666 24.8609C411.686 24.8008 411.746 24.7507 411.816 24.7507C411.866 24.7507 411.926 24.7507 411.976 24.7507C412.026 24.7707 412.076 24.7507 412.096 24.7106C412.096 24.7106 412.096 24.7006 412.096 24.6906C412.116 24.6305 412.096 24.5804 412.016 24.5504C411.996 24.5504 411.936 24.5203 411.826 24.4903C411.646 24.4302 411.485 24.3801 411.355 24.33C411.155 24.2599 410.955 24.1698 410.764 24.0696C410.734 24.0496 410.694 24.0295 410.654 24.0095C410.604 23.9895 410.564 24.0095 410.534 24.0696C410.514 24.1197 410.534 24.1798 410.584 24.1998C410.754 24.35 410.854 24.5704 410.864 24.8008C410.925 25.4719 410.955 26.1429 410.945 26.814C410.384 27.3148 410.013 27.6554 409.813 27.8157C409.683 27.9359 409.532 28.036 409.362 28.1161C409.242 28.1562 409.122 28.1562 408.991 28.1262C408.951 28.1161 408.901 28.1462 408.891 28.1863C408.861 28.2564 408.891 28.2964 408.981 28.3365C409.041 28.3565 409.102 28.3766 409.162 28.3866C409.262 28.4166 409.352 28.4467 409.452 28.4867C409.582 28.5368 409.703 28.5969 409.833 28.657C409.933 28.7071 410.003 28.7372 410.023 28.7472C410.073 28.7672 410.113 28.7472 410.133 28.6771C410.153 28.637 410.133 28.5869 410.093 28.5669C409.883 28.4267 409.813 28.2764 409.873 28.1262C410.183 27.7155 410.554 27.3549 410.965 27.0444C411.035 27.5653 411.025 28.0961 410.945 28.617C410.904 28.7472 410.764 28.8173 410.634 28.7772C410.634 28.7772 410.624 28.7772 410.614 28.7772C410.564 28.7672 410.524 28.7872 410.504 28.8373C410.484 28.8974 410.484 28.9375 410.524 28.9475L410.574 28.9675C410.574 28.9675 410.654 28.9976 410.694 29.0076L410.864 29.0677C410.975 29.0977 411.075 29.1378 411.175 29.1779L411.956 29.5284C412.026 29.5585 412.076 29.5385 412.096 29.4784C412.116 29.4183 412.096 29.3782 412.036 29.3481C411.936 29.268 411.866 29.1678 411.836 29.0477C411.746 28.7071 411.696 28.3465 411.696 27.996C411.666 27.4451 411.646 26.9342 411.656 26.4434C412.187 25.9827 412.527 25.7022 412.667 25.582C412.788 25.4819 412.928 25.4017 413.078 25.3517C413.188 25.3116 413.318 25.3016 413.429 25.3316C413.469 25.3517 413.519 25.3316 413.539 25.2916C413.539 25.2916 413.539 25.2916 413.539 25.2715C413.559 25.2114 413.539 25.1614 413.469 25.1413C413.419 25.1213 413.368 25.1113 413.318 25.0912C413.148 25.0412 413.008 24.9911 412.898 24.951C412.808 24.911 412.717 24.8709 412.637 24.8208C412.587 24.7908 412.527 24.7607 412.477 24.7407C412.437 24.7206 412.387 24.7407 412.367 24.7707C412.367 24.7707 412.367 24.7807 412.367 24.7908C412.347 24.8308 412.357 24.8909 412.397 24.921C412.467 24.971 412.517 25.0412 412.547 25.1113C412.567 25.1814 412.547 25.2415 412.527 25.3016C412.277 25.6522 411.976 25.9526 411.626 26.203" fill="#87B7E2"/>
<path fill-rule="evenodd" clip-rule="evenodd" d="M453.544 19.6525C453.624 19.7526 453.604 19.8929 453.504 19.973L451.49 21.5556C451.39 21.6257 451.24 21.6056 451.17 21.5055C451.1 21.4053 451.12 21.2751 451.21 21.195L453.223 19.6124C453.323 19.5323 453.463 19.5523 453.544 19.6525Z" fill="#87B7E2"/>
<path fill-rule="evenodd" clip-rule="evenodd" d="M458.792 31.8925C458.812 32.0227 458.722 32.1329 458.602 32.1529L456.068 32.5235C455.937 32.5435 455.827 32.4534 455.807 32.3332C455.787 32.203 455.877 32.0928 455.998 32.0728L458.532 31.7021C458.662 31.6821 458.772 31.7723 458.792 31.8925Z" fill="#87B7E2"/>
<path fill-rule="evenodd" clip-rule="evenodd" d="M449.237 55.771C449.136 55.8512 448.996 55.8311 448.916 55.731L447.334 53.7177C447.253 53.6175 447.273 53.4773 447.374 53.3972C447.474 53.3171 447.614 53.3371 447.694 53.4373L449.277 55.4505C449.357 55.5507 449.337 55.6909 449.237 55.771Z" fill="#87B7E2"/>
<path fill-rule="evenodd" clip-rule="evenodd" d="M437.007 61.0197C436.877 61.0398 436.766 60.9496 436.746 60.8294L436.376 58.2953C436.356 58.1651 436.446 58.0549 436.576 58.0349C436.706 58.0149 436.816 58.105 436.837 58.2252L437.207 60.7693C437.227 60.8995 437.137 61.0097 437.007 61.0298" fill="#87B7E2"/>
<path fill-rule="evenodd" clip-rule="evenodd" d="M413.128 51.4743C413.048 51.3741 413.068 51.2339 413.168 51.1538L415.181 49.5712C415.282 49.4911 415.422 49.5011 415.502 49.6013C415.582 49.7014 415.572 49.8417 415.472 49.9218C415.472 49.9218 415.472 49.9218 415.462 49.9218L413.449 51.5043C413.348 51.5845 413.208 51.5645 413.128 51.4643" fill="#87B7E2"/>
<path fill-rule="evenodd" clip-rule="evenodd" d="M407.88 39.2345C407.86 39.1043 407.95 38.9941 408.08 38.9741L410.614 38.6035C410.744 38.5834 410.854 38.6736 410.874 38.7938C410.894 38.914 410.804 39.0342 410.684 39.0542L408.15 39.4248C408.02 39.4448 407.91 39.3547 407.89 39.2345" fill="#87B7E2"/>
<path fill-rule="evenodd" clip-rule="evenodd" d="M417.425 15.3555C417.525 15.2754 417.665 15.2954 417.746 15.3956L419.328 17.4088C419.408 17.509 419.388 17.6593 419.288 17.7394C419.188 17.8195 419.038 17.7995 418.958 17.6993L417.375 15.6861C417.295 15.5859 417.315 15.4457 417.415 15.3655" fill="#87B7E2"/>
<path fill-rule="evenodd" clip-rule="evenodd" d="M429.665 10.1071C429.795 10.087 429.905 10.1772 429.925 10.2974L430.296 12.8315C430.316 12.9617 430.226 13.0719 430.106 13.0919C429.975 13.1119 429.865 13.0218 429.845 12.9016L429.475 10.3675C429.455 10.2373 429.545 10.1271 429.665 10.1071Z" fill="#87B7E2"/>
<path fill-rule="evenodd" clip-rule="evenodd" d="M405.566 24.4907C411.696 9.15587 429.104 1.69377 444.439 7.82371C459.774 13.9536 467.236 31.3619 461.106 46.6968C454.976 62.0316 437.568 69.4937 422.233 63.3638C406.898 57.2338 399.436 39.8356 405.566 24.5008M461.186 15.8067C450.248 0.421707 428.914 -3.19416 413.529 7.73356C398.144 18.6713 394.528 40.0059 405.456 55.3908C416.393 70.7758 437.728 74.3917 453.113 63.4639C458.472 59.6578 462.618 54.3892 465.052 48.2893C469.389 37.5119 467.937 25.262 461.176 15.7966" fill="#95C2E8"/>
<path fill-rule="evenodd" clip-rule="evenodd" d="M401.389 22.8178C408.44 5.17918 428.463 -3.39473 446.102 3.65671C463.74 10.7081 472.314 30.7306 465.263 48.3692C458.211 66.0078 438.189 74.5817 420.55 67.5303C402.911 60.4789 394.338 40.4664 401.389 22.8278M466.374 48.82C473.676 30.5704 464.792 9.85676 446.542 2.55492C428.293 -4.74692 407.579 4.13749 400.277 22.3871C392.975 40.6367 401.86 61.3503 420.109 68.6521C438.359 75.954 459.073 67.0695 466.374 48.82Z" fill="#87B7E2"/>
<path fill-rule="evenodd" clip-rule="evenodd" d="M444.198 8.16412L444.369 8.23423L443.848 9.52633L443.678 9.45621L444.198 8.16412Z" fill="#BFDBF2"/>
<path fill-rule="evenodd" clip-rule="evenodd" d="M450.919 11.9099L451.07 12.0201L450.238 13.1319L450.088 13.0217L450.919 11.9099Z" fill="#BFDBF2"/>
<path fill-rule="evenodd" clip-rule="evenodd" d="M456.448 17.2687L456.559 17.419L455.467 18.2704L455.347 18.1201L456.438 17.2687H456.448Z" fill="#BFDBF2"/>
<path fill-rule="evenodd" clip-rule="evenodd" d="M460.395 23.8693L460.465 24.0395L459.183 24.5904L459.113 24.4202L460.395 23.8693Z" fill="#BFDBF2"/>
<path fill-rule="evenodd" clip-rule="evenodd" d="M462.498 31.2714L462.528 31.4517L461.156 31.652L461.126 31.4717L462.498 31.2714Z" fill="#BFDBF2"/>
<path d="M461.252 38.7948L461.228 38.9836L462.61 39.1555L462.634 38.9666L461.252 38.7948Z" fill="#BFDBF2"/>
<path fill-rule="evenodd" clip-rule="evenodd" d="M460.745 46.4261L460.675 46.5964L459.383 46.0856L459.453 45.9153L460.745 46.4261Z" fill="#BFDBF2"/>
<path fill-rule="evenodd" clip-rule="evenodd" d="M456.989 53.1569L456.879 53.3072L455.767 52.4758L455.877 52.3256L456.989 53.1569Z" fill="#BFDBF2"/>
<path fill-rule="evenodd" clip-rule="evenodd" d="M451.631 58.6759L451.48 58.7861L450.619 57.6943L450.769 57.5841L451.631 58.6759Z" fill="#BFDBF2"/>
<path fill-rule="evenodd" clip-rule="evenodd" d="M445.03 62.6325L444.86 62.7027L444.309 61.4206L444.479 61.3505L445.03 62.6225V62.6325Z" fill="#BFDBF2"/>
<path fill-rule="evenodd" clip-rule="evenodd" d="M437.628 64.726L437.447 64.756L437.247 63.3838L437.427 63.3537L437.628 64.726Z" fill="#BFDBF2"/>
<path fill-rule="evenodd" clip-rule="evenodd" d="M429.925 64.8558L429.745 64.8357L429.905 63.4535L430.086 63.4735L429.925 64.8558Z" fill="#BFDBF2"/>
<path fill-rule="evenodd" clip-rule="evenodd" d="M422.463 62.9729L422.293 62.9027L422.814 61.6107L422.984 61.6808L422.463 62.9729Z" fill="#BFDBF2"/>
<path d="M416.424 57.9969L415.593 59.1139L415.746 59.2275L416.577 58.1105L416.424 57.9969Z" fill="#BFDBF2"/>
<path d="M411.188 52.8313L410.095 53.693L410.213 53.8425L411.306 52.9807L411.188 52.8313Z" fill="#BFDBF2"/>
<path fill-rule="evenodd" clip-rule="evenodd" d="M406.267 47.2576L406.197 47.0873L407.469 46.5364L407.539 46.7067L406.257 47.2576H406.267Z" fill="#BFDBF2"/>
<path fill-rule="evenodd" clip-rule="evenodd" d="M404.164 39.8553L404.144 39.675L405.516 39.4747L405.546 39.655L404.174 39.8553H404.164Z" fill="#BFDBF2"/>
<path fill-rule="evenodd" clip-rule="evenodd" d="M404.043 32.1631L404.063 31.9727L405.446 32.143L405.426 32.3233L404.043 32.1631Z" fill="#BFDBF2"/>
<path fill-rule="evenodd" clip-rule="evenodd" d="M405.926 24.7008L405.997 24.5305L407.289 25.0513L407.218 25.2216L405.926 24.7008Z" fill="#BFDBF2"/>
<path d="M409.788 17.8204L409.674 17.973L410.79 18.8052L410.904 18.6527L409.788 17.8204Z" fill="#BFDBF2"/>
<path d="M415.184 12.3429L415.035 12.4606L415.896 13.5545L416.045 13.4367L415.184 12.3429Z" fill="#BFDBF2"/>
<path d="M421.81 8.42337L421.635 8.49865L422.186 9.77737L422.361 9.70209L421.81 8.42337Z" fill="#BFDBF2"/>
<path fill-rule="evenodd" clip-rule="evenodd" d="M429.044 6.40122L429.224 6.37117L429.425 7.7434L429.244 7.77345L429.044 6.40122Z" fill="#BFDBF2"/>
<path fill-rule="evenodd" clip-rule="evenodd" d="M436.736 6.28118L436.917 6.30121L436.756 7.68346L436.576 7.66342L436.736 6.28118Z" fill="#BFDBF2"/>
<path fill-rule="evenodd" clip-rule="evenodd" d="M452.943 9.53646C453.664 10.0874 454.365 10.6683 455.036 11.2793C457.951 13.9236 460.395 17.0587 462.238 20.5343C462.288 20.6345 462.258 20.7647 462.148 20.8148C462.047 20.8749 461.927 20.8348 461.867 20.7346C460.044 17.299 457.64 14.204 454.756 11.5898C454.094 10.9888 453.403 10.4279 452.692 9.87701L452.943 9.53646Z" fill="#F6F7F7"/>
<path fill-rule="evenodd" clip-rule="evenodd" d="M407.659 55.6411C407.098 54.92 406.577 54.1788 406.087 53.4175C403.953 50.1122 402.411 46.4562 401.529 42.62C401.499 42.5098 401.569 42.3897 401.679 42.3696C401.79 42.3396 401.91 42.4097 401.93 42.5199C402.801 46.316 404.324 49.9219 406.437 53.1872C406.918 53.9284 407.439 54.6595 407.98 55.3707L407.659 55.6311V55.6411Z" fill="#F6F7F7"/>
<path fill-rule="evenodd" clip-rule="evenodd" d="M413.198 10.2573C413.108 10.3274 412.968 10.2973 412.908 10.2072C412.848 10.117 412.858 9.98684 412.948 9.91672C416.163 7.52284 419.759 5.68987 423.585 4.48792C427.351 3.33605 431.288 2.84525 435.224 3.04558C435.334 3.04558 435.424 3.14574 435.424 3.26594C435.424 3.38613 435.324 3.46627 435.204 3.46627C431.318 3.26594 427.431 3.75674 423.705 4.88857C419.929 6.0805 416.373 7.89345 413.188 10.2573" fill="#F6F7F7"/>
<path fill-rule="evenodd" clip-rule="evenodd" d="M459.073 55.1504C459.153 55.0602 459.283 55.0603 459.373 55.1304C459.453 55.2005 459.463 55.3207 459.403 55.4108C456.869 58.5259 453.834 61.1902 450.418 63.2936C447.053 65.3369 443.357 66.7792 439.491 67.5505C439.381 67.5705 439.27 67.5004 439.24 67.3902C439.22 67.2801 439.29 67.1699 439.401 67.1398C443.217 66.3686 446.863 64.9463 450.188 62.933C453.564 60.8496 456.558 58.2154 459.062 55.1404" fill="#F6F7F7"/>
<path fill-rule="evenodd" clip-rule="evenodd" d="M434.322 34.8372C434.903 35.4281 434.903 36.3797 434.312 36.9606C433.721 37.5415 432.77 37.5415 432.189 36.9506C431.608 36.3596 431.608 35.4081 432.199 34.8271C432.79 34.2462 433.741 34.2462 434.322 34.8372Z" fill="#CACACB"/>
<path fill-rule="evenodd" clip-rule="evenodd" d="M445.921 27.4454L441.304 28.9779C439.06 29.7191 438.85 30.28 437.057 31.8826L433.661 34.8975L433.992 35.3983L434.332 35.8991L438.419 33.9259C440.583 32.8842 441.184 32.9042 442.726 31.1213L445.911 27.4454H445.921Z" fill="#CACACB"/>
<path fill-rule="evenodd" clip-rule="evenodd" d="M440.933 60.6191L439.591 52.1253C438.93 47.9986 438.349 47.2574 436.776 43.2309L433.782 35.6085L433.231 35.7788L432.68 35.9491L434.533 43.922C435.504 48.1388 435.444 49.0704 437.247 52.8565L440.943 60.6191H440.933Z" fill="#CACACB"/>
<path fill-rule="evenodd" clip-rule="evenodd" d="M434.393 34.5266C434.973 35.1176 434.973 36.0691 434.393 36.6501C433.802 37.231 432.85 37.231 432.269 36.6501C431.688 36.0591 431.688 35.1076 432.269 34.5266C432.86 33.9457 433.812 33.9457 434.393 34.5266Z" fill="#87B7E2"/>
<path fill-rule="evenodd" clip-rule="evenodd" d="M446.001 27.1348L441.384 28.6673C439.13 29.4085 438.93 29.9794 437.137 31.572L433.741 34.5969L434.072 35.0977L434.413 35.5985L438.509 33.6253C440.673 32.5837 441.274 32.6037 442.816 30.8208L446.001 27.1448V27.1348Z" fill="#87B7E2"/>
<path fill-rule="evenodd" clip-rule="evenodd" d="M441.013 60.3085L439.661 51.8248C439 47.6881 438.419 46.9569 436.846 42.9203L433.852 35.298L433.301 35.4682L432.75 35.6485L434.603 43.6215C435.574 47.8383 435.514 48.7698 437.317 52.5459L441.013 60.3085Z" fill="#87B7E2"/>
</g>
</g>
<g opacity="0.6">
<mask id="mask4_1_911" style="mask-type:luminance" maskUnits="userSpaceOnUse" x="165" y="13" width="93" height="77">
<path d="M257.766 13.3224H165.016V89.9066H257.766V13.3224Z" fill="white"/>
</mask>
<g mask="url(#mask4_1_911)">
<path fill-rule="evenodd" clip-rule="evenodd" d="M185.86 15.8167L255.983 48.8602L257.766 51.3543L238.715 89.8968L166.799 54.3592L165.006 51.8651L185.85 15.8167H185.86Z" fill="#95C2E8"/>
<path d="M184.08 13.3394L165.03 51.8668L236.904 87.4048L255.954 48.8774L184.08 13.3394Z" fill="#8ABBE5"/>
<path d="M184.984 14.979L176.224 32.7044L193.949 41.4648L202.71 23.7394L184.984 14.979Z" fill="#D2E5F6"/>
<path fill-rule="evenodd" clip-rule="evenodd" d="M190.397 30.4505L190.898 29.1785C191.118 29.1184 191.328 29.0382 191.529 28.9381C192.02 28.6276 192.28 28.5575 192.3 28.8479C192.34 28.9281 192.29 29.0883 192.16 29.2586C191.929 29.5591 191.469 29.9497 191.268 30.2101C191.098 30.4205 190.397 31.0715 190.407 30.4606" fill="white"/>
<path fill-rule="evenodd" clip-rule="evenodd" d="M181.252 32.9241L183.075 33.7255L189.415 36.3096L191.499 37.3213C189.475 36.53 188.624 33.9759 188.694 33.3348C188.794 32.7038 189.035 32.1028 189.405 31.582L187.622 30.8508L186 29.8291C185.369 31.8724 183.375 33.1645 181.252 32.9241Z" fill="#95C2E8"/>
<path fill-rule="evenodd" clip-rule="evenodd" d="M188.894 33.8459C188.764 33.7057 188.694 33.5254 188.684 33.325C188.794 32.674 189.055 32.063 189.435 31.5221L187.612 30.841L185.99 29.8194C185.99 29.8194 185.88 30.0998 185.85 30.1799C185.819 30.2601 185.779 30.3302 185.769 30.3602C185.789 30.4604 185.819 30.5606 185.87 30.6607C185.93 30.7909 185.98 30.9211 186.01 31.0513C186.04 31.3018 186.08 31.5421 186.14 31.7825C186.37 32.2233 186.701 32.5938 187.102 32.8843C187.622 33.325 188.233 33.6556 188.894 33.8459Z" fill="#498AC9"/>
<path fill-rule="evenodd" clip-rule="evenodd" d="M187.082 31.8727C187.082 31.8727 187.102 31.8828 187.112 31.8928C187.352 32.043 187.622 32.1432 187.913 32.1732C188.153 32.1832 188.334 32.043 188.724 31.9128C189.105 31.7926 189.475 31.6123 189.806 31.3819C190.096 31.1215 190.347 30.821 190.557 30.4905C190.858 30.16 191.148 29.8194 191.409 29.4688C191.649 29.0381 191.799 28.5774 192.05 28.0866C192.28 27.696 192.47 27.2853 192.62 26.8546C192.741 26.494 192.731 26.1034 192.58 25.7528C192.49 25.5425 192.37 25.3321 192.24 25.1518C192.24 25.1518 192.22 25.1218 192.21 25.1118V25.0917C192.21 25.0917 192.18 25.0717 192.17 25.0617C192.17 25.0617 192.16 25.0417 192.15 25.0316C192.15 25.0316 192.13 25.0116 192.13 25.0016C192.13 25.0016 192.12 24.9816 192.11 24.9816C192.11 24.9715 192.09 24.9515 192.08 24.9415L192.06 24.9215C192.06 24.9215 192.03 24.8914 192.01 24.8714C191.579 24.4307 191.048 24.1001 190.457 23.9198C189.896 23.7295 189.295 23.6995 188.714 23.8397C188.344 23.9399 188.033 24.1702 187.813 24.4807C187.562 24.8614 187.352 25.262 187.182 25.6827C186.951 26.1835 186.661 26.5842 186.471 27.0249C186.35 27.4556 186.25 27.8863 186.17 28.327C186.06 28.7377 186 29.1583 186.01 29.579C185.99 29.9396 186.03 30.2902 186.14 30.6407C186.28 31.0314 186.28 31.2718 186.43 31.4521C186.611 31.6524 186.841 31.8026 187.092 31.9028" fill="white"/>
<path fill-rule="evenodd" clip-rule="evenodd" d="M189.035 32.634C188.965 33.1048 188.924 33.5255 188.884 33.9962C189.616 34.7675 190.317 35.8292 190.888 36.2799C192.821 37.8124 193.021 38.8841 192.36 40.6771L177.786 33.4754C178.548 32.2334 179.409 31.8928 180.861 32.2334C181.753 32.2734 182.734 32.4137 183.926 32.3736L184.898 31.422C184.788 32.3235 184.898 33.225 185.228 34.0663C187.372 33.7759 188.564 33.3352 189.025 32.634" fill="#87B7E2"/>
<path fill-rule="evenodd" clip-rule="evenodd" d="M189.015 32.6741C188.985 33.225 189.015 33.7759 189.135 34.3268C189.025 34.6773 187.973 35.4686 186.35 36.0696C187.572 35.3184 188.694 34.8276 188.844 34.2867C188.864 34.0263 188.824 33.3352 188.794 32.9045L189.015 32.6841V32.6741Z" fill="#5D9CD4"/>
<path fill-rule="evenodd" clip-rule="evenodd" d="M186.36 36.1093C186.24 35.4082 186.04 34.717 185.769 34.056L185.138 33.8156C184.477 33.9057 184.167 33.9758 183.225 34.9875L184.177 34.687L185.138 34.6369L185.499 34.8773L185.789 35.288C186 35.5484 186.19 35.8288 186.36 36.1193" fill="#5D9CD4"/>
<path fill-rule="evenodd" clip-rule="evenodd" d="M185.759 34.0865C185.9 34.387 186 34.6975 186.06 35.018C185.779 35.1983 185.479 35.3485 185.168 35.4787L184.988 35.8293C184.828 36.1398 184.668 36.4603 184.517 36.7909L183.466 36.27L184.227 35.1182C184.277 34.8077 184.267 34.4972 184.207 34.1866C184.507 33.9863 184.858 33.8561 185.208 33.796C185.409 33.8761 185.589 33.9663 185.769 34.0865" fill="#498AC9"/>
<path fill-rule="evenodd" clip-rule="evenodd" d="M189.395 25.212C190.217 25.5326 192.671 26.1936 191.669 27.2854L191.969 27.1852C191.899 27.5959 191.749 27.9865 191.549 28.3471L191.879 28.287C191.449 29.1084 191.258 29.2586 190.838 30.0198C191.509 29.5791 191.709 28.7478 192.23 28.6676C192.781 27.7361 192.891 27.8363 193.171 26.7545L193.362 26.8948C193.352 26.7045 193.322 26.5142 193.282 26.3339C193.422 26.5342 193.522 26.7646 193.582 27.005C193.752 25.8431 193.352 24.6712 192.5 23.8498C191.459 22.7481 190.277 22.1571 189.155 22.4876C188.965 22.6579 188.914 22.6379 188.904 22.8182C188.714 22.738 188.714 22.5577 188.544 22.4476C188.604 22.5177 188.594 22.7881 188.654 22.8582C188.003 23.0786 187.963 23.2388 187.502 23.93C187.672 23.7096 187.873 23.5293 188.113 23.3991C187.843 23.6595 187.592 23.93 187.352 24.2104C187.182 24.5209 187.061 24.8515 186.991 25.192C186.551 26.0734 186.3 27.035 186.25 28.0166C186.41 27.626 186.591 27.2453 186.801 26.8747C187.021 26.414 187.262 25.9633 187.542 25.5326C188.634 23.8799 188.474 25.0918 189.425 25.202" fill="#95C2E8"/>
<path fill-rule="evenodd" clip-rule="evenodd" d="M190.197 30.3403L190.908 29.1684C190.818 28.9581 190.757 28.7477 190.717 28.5274C190.667 27.9464 190.567 27.696 190.327 27.8563C190.237 27.8763 190.136 28.0165 190.086 28.2269C189.986 28.5975 189.956 29.1884 189.876 29.519C189.816 29.7794 189.726 30.7309 190.207 30.3503" fill="white"/>
<path fill-rule="evenodd" clip-rule="evenodd" d="M186.28 28.2369C187.192 26.5742 186.28 27.9565 186.901 26.4641C186.951 25.9232 186.901 25.7128 186.711 25.8931C186.601 25.9933 186.521 26.1235 186.491 26.2637C186.37 26.6143 186.26 27.1852 186.16 27.4957C186.08 27.7461 185.88 28.6476 186.28 28.2269" fill="white"/>
<path fill-rule="evenodd" clip-rule="evenodd" d="M199.411 39.9456L212.212 46.2758C212.523 46.4261 212.653 46.8067 212.493 47.1172L212.332 47.4377C212.182 47.7482 211.802 47.8784 211.481 47.7282L198.68 41.4079C198.37 41.2577 198.24 40.8771 198.4 40.5565L198.56 40.236C198.72 39.9255 199.091 39.7953 199.411 39.9456ZM173.82 48.8099L186.531 55.1001C186.841 55.2604 186.971 55.631 186.821 55.9515L186.661 56.272C186.511 56.5825 186.13 56.7127 185.819 56.5625L173.109 50.2723C172.798 50.1221 172.668 49.7414 172.818 49.4209L172.979 49.1004C173.139 48.7899 173.509 48.6597 173.83 48.8099M222.659 72.9491L235.901 79.4897C236.211 79.6499 236.341 80.0205 236.191 80.3411L236.031 80.6616C235.881 80.9721 235.5 81.1023 235.179 80.9521L221.938 74.4115C221.628 74.2512 221.497 73.8806 221.648 73.5601L221.808 73.2396C221.958 72.929 222.339 72.7988 222.649 72.9491M174.161 43.5414C173.85 43.3911 173.469 43.5113 173.309 43.8319L173.149 44.1524C172.999 44.4629 173.119 44.8435 173.429 45.0038L237.323 76.585C237.633 76.7352 238.014 76.615 238.174 76.2945L238.335 75.974C238.485 75.6635 238.355 75.2829 238.044 75.1226L174.151 43.5414H174.161ZM176.845 38.1126C176.534 37.9623 176.154 38.0926 175.993 38.4031L175.833 38.7236C175.683 39.0341 175.813 39.4147 176.124 39.5649L240.017 71.1461C240.328 71.3064 240.708 71.1762 240.859 70.8657L241.019 70.5352C241.169 70.2247 241.049 69.844 240.728 69.6838L176.835 38.1026L176.845 38.1126ZM217.551 48.9101L245.005 62.4721C245.316 62.6324 245.446 63.0029 245.296 63.3235L245.136 63.644C244.985 63.9545 244.605 64.0847 244.294 63.9345L216.84 50.3624C216.529 50.2122 216.399 49.8316 216.549 49.5211L216.71 49.1905C216.86 48.88 217.24 48.7498 217.551 48.9001M220.255 43.4312L247.71 57.0032C248.02 57.1535 248.151 57.5341 248 57.8446L247.84 58.1651C247.69 58.4756 247.309 58.6058 246.999 58.4556L219.544 44.8936C219.234 44.7333 219.103 44.3627 219.254 44.0422L219.414 43.7217C219.564 43.4112 219.945 43.281 220.265 43.4412M222.97 37.9724L250.424 51.5444C250.735 51.7046 250.865 52.0752 250.705 52.3957L250.544 52.7163C250.394 53.0268 250.014 53.157 249.693 53.0067L222.238 39.4347C221.928 39.2845 221.798 38.9039 221.948 38.5833L222.108 38.2628C222.269 37.9523 222.639 37.8221 222.96 37.9724M204.82 29.0078L217.621 35.3281C217.932 35.4783 218.062 35.8589 217.911 36.1794L217.751 36.5C217.601 36.8105 217.22 36.9407 216.91 36.7904L204.109 30.4702C203.799 30.3099 203.668 29.9393 203.819 29.6188L203.979 29.2983C204.129 28.9878 204.51 28.8576 204.82 29.0078ZM202.116 34.4767C201.805 34.3264 201.425 34.4567 201.264 34.7672L201.104 35.0877C200.954 35.3982 201.084 35.7788 201.395 35.929L214.195 42.2593C214.506 42.4096 214.887 42.2894 215.037 41.9688L215.197 41.6483C215.347 41.3378 215.227 40.9572 214.907 40.7969L202.116 34.4767Z" fill="white"/>
</g>
</g>
<path fill-rule="evenodd" clip-rule="evenodd" d="M236.922 250.217C236.922 250.087 236.872 249.966 236.782 249.876L232.846 245.94C232.655 245.749 232.355 245.749 232.165 245.94L231.584 246.521C231.403 246.711 231.403 247.012 231.584 247.202L235.52 251.138C235.71 251.318 236.011 251.318 236.201 251.138L236.782 250.557C236.872 250.467 236.922 250.347 236.922 250.217Z" fill="#BCDDF4"/>
<path fill-rule="evenodd" clip-rule="evenodd" d="M259.91 232.437C265.168 232.437 269.425 228.181 269.425 222.922C269.425 217.664 265.168 213.407 259.91 213.407C254.651 213.407 250.394 217.664 250.394 222.922C250.394 228.171 254.661 232.427 259.91 232.437Z" fill="white"/>
<path fill-rule="evenodd" clip-rule="evenodd" d="M238.285 248.854C238.285 248.724 238.234 248.604 238.144 248.514L234.208 244.577C234.018 244.387 233.717 244.387 233.527 244.577L232.946 245.158C232.856 245.248 232.806 245.368 232.806 245.499C232.806 245.629 232.856 245.749 232.946 245.839L236.882 249.776C237.073 249.966 237.373 249.966 237.563 249.776L238.144 249.195C238.234 249.105 238.285 248.984 238.285 248.854Z" fill="#BCDDF4"/>
<path fill-rule="evenodd" clip-rule="evenodd" d="M247.299 239.79C247.299 239.659 247.249 239.539 247.159 239.449L243.223 235.513C243.032 235.322 242.732 235.322 242.541 235.513L241.96 236.094C241.87 236.184 241.82 236.304 241.82 236.434C241.82 236.564 241.87 236.685 241.96 236.775L245.897 240.711C246.087 240.891 246.388 240.891 246.578 240.711L247.159 240.13C247.249 240.04 247.299 239.92 247.299 239.79Z" fill="#BCDDF4"/>
<path fill-rule="evenodd" clip-rule="evenodd" d="M248.711 238.457C248.711 238.327 248.661 238.207 248.571 238.117L244.635 234.18C244.445 233.99 244.144 233.99 243.954 234.18L243.373 234.761C243.182 234.952 243.182 235.252 243.373 235.443L247.309 239.379C247.499 239.559 247.8 239.559 247.99 239.379L248.571 238.798C248.661 238.708 248.711 238.588 248.711 238.457Z" fill="#BCDDF4"/>
<path fill-rule="evenodd" clip-rule="evenodd" d="M356.096 210.672C356.536 216.772 357.438 217.613 363.247 218.084C357.438 218.555 356.536 219.396 356.096 225.496C355.655 219.396 354.753 218.555 348.944 218.084C354.753 217.613 355.655 216.772 356.096 210.672Z" fill="white"/>
<path fill-rule="evenodd" clip-rule="evenodd" d="M352.42 182.537C352.961 189.979 354.062 191.01 361.164 191.591C354.062 192.162 352.961 193.194 352.42 200.646C351.879 193.194 350.777 192.172 343.675 191.591C350.777 191.021 351.879 189.989 352.42 182.537Z" fill="white"/>
<path fill-rule="evenodd" clip-rule="evenodd" d="M379.724 187.775C380.054 192.283 380.715 192.904 385.012 193.244C380.715 193.585 380.054 194.216 379.724 198.713C379.393 194.206 378.732 193.585 374.435 193.244C378.732 192.894 379.393 192.273 379.724 187.775Z" fill="white"/>
<path fill-rule="evenodd" clip-rule="evenodd" d="M369.868 303.613C370.749 315.763 372.542 317.435 384.121 318.367C372.542 319.298 370.749 320.981 369.868 333.121C368.986 320.971 367.194 319.298 355.615 318.367C367.194 317.425 368.986 315.753 369.868 303.613Z" fill="white"/>
<path fill-rule="evenodd" clip-rule="evenodd" d="M379.423 332.28C379.744 336.777 380.415 337.398 384.712 337.748C380.415 338.099 379.754 338.72 379.423 343.217C379.093 338.71 378.432 338.089 374.135 337.748C378.432 337.398 379.093 336.777 379.423 332.28Z" fill="white"/>
<g opacity="0.6">
<mask id="mask5_1_911" style="mask-type:luminance" maskUnits="userSpaceOnUse" x="207" y="146" width="42" height="43">
<path d="M248.661 146.518H207.154V188.026H248.661V146.518Z" fill="white"/>
</mask>
<g mask="url(#mask5_1_911)">
<path fill-rule="evenodd" clip-rule="evenodd" d="M236.141 152.368L236.181 151.567C236.181 151.376 236.311 151.216 236.452 151.216H236.462L237.864 151.286C238.014 151.286 238.124 151.457 238.114 151.667L238.074 152.468C238.455 152.548 238.825 152.669 239.176 152.819L239.617 152.138C239.677 152.027 239.797 151.957 239.917 151.947C239.957 151.947 239.997 151.957 240.037 151.977L241.219 152.739C241.35 152.859 241.36 153.059 241.249 153.189L240.809 153.87C241.089 154.131 241.349 154.421 241.58 154.732L242.301 154.361C242.361 154.331 242.431 154.311 242.501 154.311C242.602 154.311 242.692 154.351 242.742 154.431L243.383 155.693C243.433 155.854 243.353 156.034 243.182 156.094L242.461 156.465C242.581 156.835 242.662 157.216 242.702 157.597L243.503 157.637C243.703 157.647 243.854 157.777 243.854 157.917L243.783 159.329C243.743 159.49 243.593 159.6 243.433 159.58H243.413L242.612 159.54C242.531 159.92 242.411 160.281 242.261 160.641L242.942 161.082C243.102 161.152 243.172 161.343 243.102 161.503L242.341 162.685C242.291 162.755 242.211 162.795 242.131 162.785C242.051 162.785 241.96 162.755 241.89 162.715L241.209 162.274C240.949 162.565 240.668 162.815 240.358 163.045L240.729 163.757C240.829 163.897 240.789 164.097 240.658 164.197L239.406 164.838C239.406 164.838 239.346 164.858 239.316 164.858C239.176 164.848 239.066 164.758 239.006 164.638L238.635 163.917C238.264 164.037 237.884 164.117 237.503 164.157L237.463 164.958C237.463 165.149 237.333 165.299 237.193 165.299L235.78 165.229C235.61 165.189 235.5 165.029 235.53 164.858L235.57 164.057C235.19 163.977 234.829 163.857 234.468 163.706L234.028 164.388C233.968 164.498 233.847 164.568 233.727 164.578C233.687 164.578 233.647 164.578 233.607 164.548L232.425 163.777C232.295 163.656 232.285 163.466 232.395 163.336L232.836 162.655C232.555 162.394 232.295 162.104 232.064 161.793L231.343 162.164C231.283 162.194 231.213 162.214 231.143 162.214C231.043 162.214 230.953 162.174 230.903 162.094L230.262 160.832C230.211 160.672 230.302 160.491 230.462 160.431L231.173 160.061C231.053 159.69 230.973 159.309 230.933 158.929L230.131 158.889C229.931 158.879 229.781 158.748 229.781 158.598L229.851 157.196C229.851 157.056 230.011 156.945 230.201 156.945H230.231L231.033 156.986C231.113 156.605 231.233 156.234 231.383 155.884L230.712 155.443C230.552 155.373 230.482 155.183 230.552 155.022L231.313 153.84C231.363 153.77 231.443 153.73 231.524 153.74C231.604 153.74 231.694 153.77 231.764 153.82L232.435 154.261C232.695 153.971 232.986 153.72 233.296 153.49L232.926 152.769C232.826 152.628 232.856 152.428 232.996 152.328L234.258 151.687C234.258 151.687 234.318 151.667 234.348 151.667C234.478 151.677 234.599 151.767 234.649 151.887L235.019 152.598C235.39 152.478 235.77 152.398 236.151 152.358M211.401 179.833L212.893 178.34L218.913 172.32L222.849 176.257L217.15 181.956L215.067 184.039L215.017 184.089L214.406 183.378L211.13 180.103L211.401 179.833ZM236.822 170.187C243.363 170.187 248.671 164.878 248.661 158.328C248.661 152.829 244.875 148.061 239.527 146.799C238.385 146.499 237.193 146.398 236.011 146.519C233.156 146.709 230.462 147.931 228.439 149.964C228.398 150.004 228.358 150.044 228.318 150.084C228.018 150.395 227.727 150.725 227.457 151.076C226.606 152.168 225.955 153.4 225.534 154.722C225.434 155.032 225.354 155.333 225.273 155.653C224.963 156.986 224.893 158.358 225.043 159.72C225.093 160.151 225.163 160.591 225.263 161.012C225.664 162.775 226.465 164.408 227.607 165.81L224.662 168.755C224.362 168.484 223.971 168.344 223.571 168.344C223.13 168.344 222.719 168.514 222.409 168.825L221.537 169.696C221.347 169.516 221.047 169.516 220.856 169.696L220.275 170.277C220.085 170.467 220.085 170.768 220.275 170.958L220.175 171.058C220.085 170.968 219.965 170.918 219.835 170.918C219.704 170.918 219.584 170.968 219.494 171.058L218.913 171.639C218.723 171.83 218.723 172.13 218.913 172.32L222.849 176.257C222.94 176.347 223.06 176.397 223.19 176.397C223.32 176.397 223.44 176.347 223.531 176.257L224.112 175.676C224.302 175.486 224.302 175.185 224.112 174.995L224.212 174.895C224.402 175.085 224.703 175.085 224.893 174.895L225.474 174.314C225.664 174.123 225.664 173.823 225.474 173.633L226.345 172.761C226.956 172.14 226.986 171.159 226.415 170.507L229.36 167.563C231.463 169.275 234.098 170.207 236.822 170.207M213.805 185.311L209.868 181.375L209.768 181.475L213.705 185.412L213.805 185.311ZM212.443 186.674L208.506 182.737L207.635 183.609C207.014 184.22 206.984 185.211 207.565 185.862C207.585 185.892 207.615 185.912 207.635 185.942L209.237 187.545C209.237 187.545 209.288 187.595 209.318 187.615C209.969 188.196 210.96 188.166 211.571 187.545L212.443 186.664V186.674ZM227.527 157.126C227.477 157.536 227.447 157.947 227.447 158.358C227.477 163.466 231.634 167.593 236.752 167.563C241.86 167.533 245.987 163.376 245.957 158.258C245.927 153.149 241.77 149.023 236.652 149.053C232.625 149.073 229.08 151.687 227.878 155.533C227.717 156.054 227.597 156.585 227.527 157.116M236.822 154.351C234.659 154.351 232.916 156.114 232.916 158.278C232.916 160.351 234.548 162.064 236.622 162.174C236.692 162.174 236.762 162.174 236.832 162.174C238.996 162.174 240.739 160.421 240.739 158.258C240.739 156.174 239.106 154.461 237.022 154.351C236.952 154.351 236.892 154.351 236.822 154.351Z" fill="#94C9ED"/>
</g>
</g>
<g opacity="0.6">
<mask id="mask6_1_911" style="mask-type:luminance" maskUnits="userSpaceOnUse" x="159" y="190" width="74" height="48">
<path d="M232.715 190.319H159.016V237.165H232.715V190.319Z" fill="white"/>
</mask>
<g mask="url(#mask6_1_911)">
<path fill-rule="evenodd" clip-rule="evenodd" d="M166.388 190.59L232.715 200.827L227.106 237.166L159.016 226.649L164.625 190.31L166.388 190.58V190.59ZM228.639 203.811L167.6 194.386L163.083 223.674L224.122 233.099L228.639 203.811Z" fill="#8ABBE5"/>
<path fill-rule="evenodd" clip-rule="evenodd" d="M176.725 219.407L173.149 218.856L176.134 202.179L179.71 202.73L176.725 219.407Z" fill="#A5CDED"/>
<path fill-rule="evenodd" clip-rule="evenodd" d="M181.593 220.158L178.017 219.607L180.331 206.686L183.906 207.237L181.593 220.158Z" fill="#A5CDED"/>
<path fill-rule="evenodd" clip-rule="evenodd" d="M186.461 220.909L182.885 220.358L185.289 206.886L188.864 207.437L186.461 220.909Z" fill="#A5CDED"/>
<path fill-rule="evenodd" clip-rule="evenodd" d="M191.328 221.66L187.753 221.11L189.586 210.863L193.161 211.414L191.328 221.66Z" fill="#A5CDED"/>
<path fill-rule="evenodd" clip-rule="evenodd" d="M196.196 222.411L192.62 221.861L194.584 210.873L198.159 211.424L196.196 222.411Z" fill="#A5CDED"/>
<path fill-rule="evenodd" clip-rule="evenodd" d="M201.054 223.163L197.478 222.612L199.001 214.088L202.577 214.639L201.054 223.163Z" fill="#A5CDED"/>
<path fill-rule="evenodd" clip-rule="evenodd" d="M209.197 209.831L203.508 208.95L203.648 208.178L209.338 209.06L209.197 209.831Z" fill="#5D9CD4"/>
<path fill-rule="evenodd" clip-rule="evenodd" d="M216.189 210.913L209.898 209.941L210.039 209.17L216.329 210.142L216.189 210.913Z" fill="#5D9CD4"/>
<path fill-rule="evenodd" clip-rule="evenodd" d="M208.596 213.147L202.907 212.265L203.047 211.484L208.737 212.366L208.596 213.147Z" fill="#5D9CD4"/>
<path fill-rule="evenodd" clip-rule="evenodd" d="M215.588 214.228L209.298 213.257L209.438 212.475L215.728 213.447L215.588 214.228Z" fill="#5D9CD4"/>
<path fill-rule="evenodd" clip-rule="evenodd" d="M212.573 208.489L203.839 207.137L203.979 206.356L212.713 207.708L212.573 208.489Z" fill="#5D9CD4"/>
<path fill-rule="evenodd" clip-rule="evenodd" d="M218.432 209.401L213.404 208.619L213.544 207.838L218.583 208.619L218.442 209.401H218.432Z" fill="#5D9CD4"/>
<path fill-rule="evenodd" clip-rule="evenodd" d="M211.932 212.015L203.198 210.663L203.338 209.881L212.072 211.234L211.932 212.015Z" fill="#5D9CD4"/>
<path fill-rule="evenodd" clip-rule="evenodd" d="M217.801 212.926L212.763 212.145L212.903 211.364L217.942 212.145L217.801 212.926Z" fill="#5D9CD4"/>
<path fill-rule="evenodd" clip-rule="evenodd" d="M168.531 192.753L229.881 202.229L224.823 234.972L161.841 225.246L166.899 192.503L168.531 192.753ZM226.125 204.903L169.663 196.189L165.597 222.572L222.048 231.286L226.125 204.903Z" fill="#EAF5FC"/>
</g>
</g>
<g opacity="0.6">
<mask id="mask7_1_911" style="mask-type:luminance" maskUnits="userSpaceOnUse" x="200" y="96" width="43" height="31">
<path d="M242.672 96.938H200.273V126.456H242.672V96.938Z" fill="white"/>
</mask>
<g mask="url(#mask7_1_911)">
<path fill-rule="evenodd" clip-rule="evenodd" d="M205.742 96.9678L241.189 102.998C242.161 103.168 242.812 104.079 242.652 105.051L239.266 124.973C239.096 125.945 238.184 126.596 237.213 126.426L201.765 120.396C200.794 120.226 200.143 119.314 200.303 118.342L203.688 98.4202C203.859 97.4486 204.77 96.7975 205.742 96.9578" fill="#95C2E8"/>
<path fill-rule="evenodd" clip-rule="evenodd" d="M219.724 118.042L206.904 115.908L215.207 105.882L219.714 118.032L219.724 118.042Z" fill="white"/>
<path fill-rule="evenodd" clip-rule="evenodd" d="M233.827 120.456L218.062 117.801L225.013 107.545L226.656 109.328L230.322 106.513L233.827 120.456Z" fill="white"/>
</g>
</g>
</svg>
