<svg width="89" height="89" viewBox="0 0 89 89" fill="none" xmlns="http://www.w3.org/2000/svg">
<path fill-rule="evenodd" clip-rule="evenodd" d="M1.92511 33.3996L34.3531 1.81471C36.9023 -0.654271 40.9571 -0.594049 43.4361 1.93515L86.854 46.5173C89.323 49.0666 89.2628 53.1213 86.7336 55.6003L54.3056 87.1852C51.7564 89.6542 47.7016 89.594 45.2226 87.0648L1.81471 42.4826C-0.654269 39.9334 -0.594051 35.8786 1.93515 33.3996" fill="#95C2E8"/>
<path fill-rule="evenodd" clip-rule="evenodd" d="M3.18971 34.7044L35.6177 3.11951C37.4443 1.35308 40.3549 1.39322 42.1314 3.20983L85.5493 47.792C87.3157 49.6186 87.2756 52.5292 85.459 54.3057L53.031 85.8906C51.2044 87.657 48.2938 87.6169 46.5173 85.8003L3.10941 41.2181C1.34299 39.3915 1.38313 36.4809 3.19974 34.7044" fill="#BAD9F2"/>
<path d="M32.5812 5.59281L2.86917 39.4609L51.125 81.7951L80.837 47.927L32.5812 5.59281Z" fill="white"/>
<path d="M34.1022 10.0279L7.45468 40.4028L11.3779 43.8446L38.0254 13.4697L34.1022 10.0279Z" fill="#95C2E8"/>
<path fill-rule="evenodd" clip-rule="evenodd" d="M15.4142 45.7042L18.7965 41.8402L22.6605 45.2225L19.2782 49.0765L15.4142 45.6942V45.7042ZM46.7381 73.1842L50.1204 69.3302L53.9744 72.7125L50.5921 76.5765L46.7381 73.1942V73.1842ZM40.4753 67.6842L44.3294 71.0665L47.7117 67.2125L43.8576 63.8302L40.4753 67.6842ZM34.2126 62.1942L37.5949 58.3302L41.4489 61.7125L38.0666 65.5665L34.2025 62.1842L34.2126 62.1942ZM27.9498 56.6942L31.8038 60.0765L35.1861 56.2124L31.3321 52.8302L27.9498 56.6842V56.6942ZM21.687 51.1942L25.541 54.5765L28.9233 50.7225L25.0693 47.3402L21.687 51.1942Z" fill="#95C2E8"/>
<path fill-rule="evenodd" clip-rule="evenodd" d="M21.5967 38.9399L39.9735 18.0038C40.3047 17.6726 40.8467 17.6625 41.1879 18.0038C41.4991 18.3049 41.5292 18.7967 41.2582 19.1379L22.8914 40.0841C22.5602 40.4253 22.0182 40.4354 21.677 40.1042C21.3558 39.793 21.3257 39.3012 21.6067 38.96M52.9306 66.4399L71.3075 45.4938C71.6086 45.1224 72.1405 45.0722 72.5119 45.3633C72.8832 45.6543 72.9334 46.1963 72.6423 46.5677C72.6223 46.5877 72.6122 46.6078 72.5922 46.6279L54.2153 67.5741C53.8841 67.9053 53.3421 67.9153 53.0009 67.5741C52.6898 67.273 52.6597 66.7812 52.9306 66.4399ZM55.219 68.4472C54.8878 68.7784 54.8878 69.3204 55.219 69.6617C55.5502 69.9929 56.0921 69.9929 56.4334 69.6617C56.4635 69.6316 56.4836 69.6115 56.5036 69.5814L67.5338 57.0056C67.8248 56.6343 67.7546 56.0923 67.3832 55.8013C67.042 55.5403 66.5602 55.5704 66.2491 55.8715L55.219 68.4472ZM46.6578 60.9399C46.3668 61.3113 46.437 61.8533 46.8084 62.1443C47.1496 62.4053 47.6314 62.3752 47.9425 62.0741L66.3193 41.1279C66.6505 40.7967 66.6505 40.2547 66.3193 39.9135C65.9881 39.5823 65.4462 39.5823 65.1049 39.9135C65.0748 39.9436 65.0547 39.9636 65.0347 39.9938L46.6578 60.9399ZM48.9461 62.9472C48.645 63.3086 48.6952 63.8505 49.0565 64.1516C49.4078 64.4427 49.9297 64.4126 50.2308 64.0713L61.2609 51.4956C61.552 51.1242 61.4817 50.5823 61.1104 50.2912C60.7692 50.0303 60.2874 50.0604 59.9763 50.3615L48.9361 62.9372L48.9461 62.9472ZM40.395 55.4399C40.0638 55.7812 40.0739 56.3231 40.4151 56.6543C40.7564 56.9856 41.2983 56.9755 41.6295 56.6343C41.6496 56.6142 41.6596 56.5941 41.6797 56.5741L60.0566 35.6279C60.3577 35.2666 60.3075 34.7246 59.9462 34.4235C59.5949 34.1324 59.073 34.1625 58.7719 34.5038L40.395 55.4399ZM42.6834 57.4472C42.3722 57.7985 42.4124 58.3405 42.7637 58.6516C43.1149 58.9627 43.6569 58.9226 43.968 58.5713L54.9982 45.9956C55.3294 45.6543 55.3193 45.1124 54.9781 44.7812C54.6368 44.45 54.0949 44.46 53.7637 44.8012C53.7436 44.8213 53.7235 44.8414 53.7135 44.8615L42.6733 57.4472H42.6834ZM34.1323 49.9399C33.8412 50.3113 33.9115 50.8533 34.2828 51.1443C34.624 51.4053 35.1058 51.3751 35.4169 51.074L53.7938 30.1279C54.0848 29.7565 54.0146 29.2145 53.6432 28.9235C53.302 28.6625 52.8202 28.6926 52.5091 28.9937L34.1323 49.9399ZM36.4206 51.9472C36.0894 52.2885 36.0894 52.8304 36.4206 53.1616C36.7618 53.4929 37.3038 53.4929 37.635 53.1616C37.6551 53.1416 37.6751 53.1115 37.6952 53.0914L48.7354 40.5156C49.0666 40.1844 49.0666 39.6425 48.7354 39.3012C48.4042 38.97 47.8622 38.97 47.521 39.3012C47.5009 39.3213 47.4708 39.3514 47.4507 39.3815L36.4105 51.9573L36.4206 51.9472ZM27.8695 44.4399C27.5784 44.8113 27.6487 45.3532 28.0301 45.6443C28.3713 45.9052 28.8531 45.8751 29.1542 45.574L47.531 24.6278C47.8622 24.2866 47.8622 23.7446 47.531 23.4134C47.1898 23.0822 46.6478 23.0822 46.3166 23.4134C46.2965 23.4335 46.2764 23.4636 46.2564 23.4837L27.8795 44.4299L27.8695 44.4399ZM30.1578 46.4472C29.8467 46.7985 29.8868 47.3405 30.2381 47.6516C30.5894 47.9627 31.1313 47.9226 31.4425 47.5713L42.4726 34.9956C42.7837 34.6342 42.7436 34.0923 42.3823 33.7912C42.031 33.4901 41.4991 33.5202 41.1879 33.8715L30.1578 46.4472ZM23.895 40.9472C23.5839 41.2985 23.614 41.8405 23.9753 42.1516C24.3266 42.4627 24.8686 42.4326 25.1797 42.0713L36.2098 29.4956C36.541 29.1543 36.531 28.6124 36.1897 28.2812C35.8485 27.9499 35.3065 27.96 34.9753 28.3012C34.9553 28.3213 34.9352 28.3414 34.9251 28.3614L23.885 40.9372L23.895 40.9472Z" fill="#95C2E8"/>
<path fill-rule="evenodd" clip-rule="evenodd" d="M8.1076 23.4231L13.8083 17.8729L12.6341 16.6685C11.3895 15.3537 11.4397 13.2762 12.7645 12.0316C14.0592 10.8072 16.0866 10.8373 17.3412 12.0919L18.5155 13.2962L24.2162 7.74605C24.999 6.98328 26.2536 7.00335 27.0264 7.78619L29.666 10.4961C30.4288 11.2789 30.4087 12.5335 29.6259 13.3063L13.5173 28.9933C12.7344 29.7561 11.4799 29.736 10.7171 28.9532L8.07749 26.2433C7.31471 25.4605 7.33479 24.2059 8.11763 23.4432M14.0793 13.4468C13.5072 14.0088 13.4972 14.9222 14.0492 15.5043C14.6113 16.0764 15.5246 16.0864 16.1067 15.5344C16.6788 14.9723 16.6888 14.059 16.1368 13.4769C15.5748 12.9048 14.6614 12.8847 14.0894 13.4468" fill="#95C2E8"/>
<path fill-rule="evenodd" clip-rule="evenodd" d="M16.6989 46.0558C16.4279 46.0056 16.2572 45.7547 16.2974 45.4937C16.3476 45.2227 16.5985 45.0521 16.8594 45.0923L19.0273 45.4636L18.0136 41.0074C17.9233 40.7464 18.0638 40.4755 18.3248 40.3851C18.5857 40.2948 18.8567 40.4353 18.947 40.6963C18.947 40.7264 18.9671 40.7565 18.9671 40.7866L20.1414 45.9353C20.1614 46.0056 20.1715 46.0758 20.1514 46.1461C20.1012 46.4171 19.8503 46.5877 19.5894 46.5476L16.6989 46.0558ZM22.9616 51.5457C22.6906 51.5156 22.5 51.2848 22.52 51.0138C22.5501 50.7428 22.781 50.5521 23.052 50.5722C23.072 50.5722 23.1021 50.5722 23.1222 50.5822L25.2901 50.9536L24.2664 46.4974C24.2162 46.2264 24.3969 45.9755 24.6678 45.9353C24.9087 45.8952 25.1496 46.0457 25.2198 46.2766L26.3941 51.4253C26.4644 51.6862 26.3138 51.9572 26.0529 52.0275C25.9826 52.0475 25.9124 52.0476 25.8421 52.0375L22.9516 51.5357L22.9616 51.5457ZM48.0228 73.5257C47.7618 73.4655 47.5912 73.2045 47.6514 72.9436C47.7016 72.6927 47.9425 72.5321 48.1934 72.5622L50.3613 72.9335L49.3376 68.4773C49.2974 68.2063 49.4781 67.9554 49.7491 67.9153C49.99 67.8751 50.2208 68.0257 50.291 68.2565L51.4653 73.4052C51.4854 73.4755 51.4854 73.5458 51.4753 73.616C51.4252 73.877 51.1743 74.0576 50.9133 74.0074L48.0228 73.5156V73.5257ZM41.76 68.0257C41.489 67.9956 41.2983 67.7547 41.3284 67.4837C41.3586 67.2127 41.5994 67.022 41.8704 67.0521C41.8905 67.0521 41.9106 67.0521 41.9306 67.0622L44.0985 67.4335L43.0748 62.9773C42.9945 62.7164 43.145 62.4454 43.406 62.3751C43.6669 62.2948 43.9379 62.4454 44.0082 62.7063C44.0082 62.7264 44.0082 62.7465 44.0182 62.7565L45.1925 67.9052C45.2126 67.9755 45.2126 68.0457 45.1925 68.116C45.1423 68.3769 44.8914 68.5576 44.6304 68.5175L41.7399 68.0257H41.76ZM35.4972 62.5357C35.2262 62.5056 35.0356 62.2547 35.0757 61.9837C35.1058 61.7127 35.3567 61.522 35.6277 61.5622C35.6377 61.5622 35.6578 61.5622 35.6679 61.5622L37.8357 61.9335L36.8221 57.4773C36.7418 57.2164 36.8722 56.9454 37.1332 56.855C37.3941 56.7747 37.6651 56.9052 37.7554 57.1662C37.7554 57.1963 37.7755 57.2264 37.7755 57.2565L38.9498 62.4052C38.9699 62.4755 38.9699 62.5457 38.9598 62.616C38.9096 62.887 38.6587 63.0576 38.3978 63.0174L35.5073 62.5257L35.4972 62.5357ZM29.2344 57.0357C28.9735 56.9755 28.8029 56.7145 28.8631 56.4536C28.9133 56.2027 29.1542 56.0421 29.4051 56.0722L31.573 56.4435L30.5492 51.9873C30.5091 51.7163 30.6897 51.4654 30.9607 51.4253C31.2016 51.3851 31.4324 51.5357 31.5027 51.7665L32.677 56.9153C32.7472 57.1762 32.5967 57.4472 32.3357 57.5174C32.2655 57.5375 32.1952 57.5375 32.125 57.5275L29.2344 57.0257V57.0357Z" fill="#5D9CD4"/>
</svg>
