<svg width="88" height="88" viewBox="0 0 88 88" fill="none" xmlns="http://www.w3.org/2000/svg">
<path fill-rule="evenodd" clip-rule="evenodd" d="M55.2978 1.11873L50.126 0.0642864C48.3786 -0.2872 46.6713 0.837535 46.3098 2.58492L45.9081 4.55327C45.4361 6.87308 44.4319 7.21451 43.9398 7.21451C42.574 7.21451 41.2183 7.32498 39.8525 7.43545C39.4508 7.46558 38.1353 7.6162 37.3017 5.06541L36.7293 3.31803C36.1669 1.62086 34.3492 0.696954 32.642 1.24929L27.6208 2.88622C25.9236 3.44859 24.9997 5.26626 25.5521 6.97347L26.1144 8.70078C26.8977 11.0909 26.4157 11.5428 25.6023 12.0449C24.4775 12.7379 23.3327 13.4107 22.2481 14.2041C21.284 14.907 20.812 15.61 18.6027 13.6417L17.2469 12.4366C15.9113 11.2516 13.8626 11.362 12.6776 12.6977L9.16276 16.6343C7.97775 17.97 8.08821 20.0086 9.42386 21.2037L10.7796 22.4088C12.9889 24.3771 12.3563 24.9294 11.7537 25.9638C11.0909 27.1287 10.5486 28.3438 9.98624 29.5389C9.5745 30.4126 9.18284 30.9348 6.72244 30.4327L4.93488 30.0611C3.18749 29.7096 1.48027 30.8344 1.11874 32.5817L0.0642856 37.7536C-0.287201 39.501 0.837553 41.2082 2.58494 41.5698L4.39259 41.9413C7.02371 42.4836 7.02371 43.7992 7.03375 44.2009C7.08396 45.5667 7.13418 46.9224 7.28481 48.2781C7.34507 48.7702 7.11409 49.8046 4.86458 50.5377L2.95652 51.1603C1.25934 51.7227 0.335432 53.5404 0.887767 55.2376L2.52469 60.2588C3.08707 61.956 4.90475 62.8799 6.61197 62.3275L8.50999 61.7049C10.7896 60.9617 11.6232 61.8154 11.8943 62.2673C12.6776 63.5829 13.481 64.7076 14.3346 65.993C14.6459 66.465 15.0878 67.3889 13.4408 69.2367L12.2056 70.6226C11.0206 71.9582 11.1311 73.9969 12.4667 75.1919L16.4034 78.7068C17.739 79.8918 19.7877 79.7813 20.9727 78.4457L22.2079 77.0598C23.8549 75.212 24.819 75.5434 25.3211 75.8045C26.7069 76.5175 27.902 77.1904 29.2979 77.813C29.7799 78.0239 30.7239 78.757 30.2419 81.1069L29.8402 83.0652C29.4887 84.8126 30.6135 86.5198 32.3608 86.8813L37.5327 87.9358C39.2801 88.2873 40.9873 87.1625 41.3488 85.4151L41.7505 83.4468C42.2225 81.127 43.2268 80.7856 43.7189 80.7856C45.0846 80.7856 46.4404 80.6751 47.8061 80.5647C48.2078 80.5345 49.5234 80.3839 50.3569 82.9347L50.9293 84.682C51.4917 86.3792 53.3094 87.3031 55.0066 86.7508L60.0278 85.1139C61.725 84.5515 62.6489 82.7338 62.0966 81.0266L61.5342 79.2993C60.7509 76.9092 61.2329 76.4573 62.0463 75.9551C63.1711 75.2622 64.3159 74.5894 65.4005 73.786C66.3646 73.083 66.8366 72.38 69.0459 74.3484L70.4017 75.5534C71.7373 76.7385 73.7759 76.618 74.971 75.2924L78.4859 71.3457C79.6709 70.01 79.5504 67.9714 78.2248 66.7763L76.869 65.5712C74.6597 63.6029 75.2924 63.0506 75.8949 62.0162C76.5577 60.8513 77.1 59.6361 77.6624 58.4411C78.0741 57.5674 78.4658 57.0452 80.9262 57.5473L82.7137 57.9189C84.4611 58.2704 86.1683 57.1456 86.5299 55.3982L87.5843 50.2264C87.9358 48.479 86.8111 46.7718 85.0637 46.4102L83.2661 46.0387C80.6349 45.5064 80.6349 44.1808 80.6149 43.7791C80.5646 42.4133 80.5144 41.0476 80.3638 39.7019C80.3035 39.2098 80.5345 38.1754 82.784 37.4423L84.6921 36.8197C86.3893 36.2573 87.3132 34.4396 86.7608 32.7324L85.1239 27.7112C84.5615 26.014 82.7439 25.0901 81.0366 25.6424L79.1386 26.2651C76.859 27.0082 76.0255 26.1546 75.7543 25.7027C74.981 24.3871 74.1776 23.2724 73.314 21.9769C73.0027 21.5049 72.5608 20.581 74.2078 18.7432L75.443 17.3574C76.628 16.0218 76.5175 13.9731 75.1819 12.7881L71.2352 9.27321C69.8996 8.08819 67.8609 8.19867 66.6659 9.53432L65.4307 10.9202C63.7837 12.768 62.8196 12.4366 62.3175 12.1755C60.9417 11.4725 59.7366 10.7997 58.3407 10.177C57.8586 9.96613 56.9247 9.23303 57.3967 6.88309L57.7984 4.92483C58.1499 3.17745 57.0251 1.47021 55.2777 1.10868M48.4589 38.788C51.331 41.3488 51.5821 45.7575 49.0213 48.6397C46.4605 51.5118 42.0518 51.7629 39.1696 49.202C36.2975 46.6412 36.0464 42.2326 38.6072 39.3504C41.1681 36.4782 45.5767 36.2272 48.4489 38.788M27.5003 29.4485C28.0526 28.8359 28.9866 28.7757 29.6092 29.328C30.2218 29.8803 30.282 30.8143 29.7297 31.4369C22.7904 39.2198 23.4733 51.1402 31.2461 58.0796C31.8688 58.6219 31.929 59.5659 31.3867 60.1885C30.8444 60.8111 29.9004 60.8714 29.2778 60.3291C29.2778 60.3291 29.2678 60.319 29.2577 60.309C20.2496 52.275 19.4563 38.4566 27.5003 29.4485ZM62.2472 55.7296C61.8154 56.4226 60.8915 56.6435 60.1985 56.2016C59.5056 55.7698 59.2847 54.8459 59.7265 54.153C59.7265 54.1429 59.7366 54.1329 59.7466 54.1228C64.0548 47.3442 63.5929 38.5771 58.6018 32.2805C58.0896 31.6378 58.19 30.7038 58.8328 30.1816C59.4755 29.6694 60.4094 29.7699 60.9316 30.4126C66.7161 37.7135 67.2383 47.8664 62.2472 55.7296ZM61.0421 24.6683C71.7172 34.1886 72.6512 50.5578 63.1309 61.2329C53.6107 71.9081 37.2415 72.842 26.5663 63.3217C15.8912 53.8015 14.9573 37.4323 24.4775 26.7571C33.9978 16.082 50.367 15.1481 61.0421 24.6683Z" fill="#95C2E8"/>
</svg>
