<svg width="92" height="80" viewBox="0 0 92 80" fill="none" xmlns="http://www.w3.org/2000/svg">
<path fill-rule="evenodd" clip-rule="evenodd" d="M0.0100141 27.1359L69.9404 0.994573L92 49.4457L22.2097 79.9089L0.0100141 27.1359Z" fill="#8ABBE5"/>
<path fill-rule="evenodd" clip-rule="evenodd" d="M4.73207 27.7665L24.4006 74.5069L88.2684 46.6247L68.7799 3.81611L4.73207 27.7565V27.7665Z" fill="#95C2E8"/>
<path fill-rule="evenodd" clip-rule="evenodd" d="M20.9091 76.8279L14.6564 79.389L0 27.1363L20.9091 76.8279Z" fill="#406FB5"/>
<path fill-rule="evenodd" clip-rule="evenodd" d="M56.0544 6.18699C55.7142 5.07651 55.5542 3.92601 55.5742 2.76551C55.6442 1.585 56.0644 0.564556 57.1148 0.144374C58.0552 -0.235792 59.1457 0.154381 60.1462 1.08479C62.117 3.11567 63.2075 5.84685 63.1775 8.68808C63.0874 10.0487 62.5672 11.0791 61.6268 11.4593C61.2366 11.6194 60.7864 11.4393 60.6264 11.0491C60.4663 10.6589 60.6464 10.2087 61.0366 10.0487C61.0466 10.0487 61.0566 10.0487 61.0666 10.0387C61.4067 9.89861 61.6168 9.35838 61.6568 8.59805C61.6568 6.21701 60.7464 3.93602 59.1057 2.20527C58.5455 1.68504 58.0252 1.42493 57.6851 1.56499C57.2949 1.71505 57.1348 2.23527 57.1048 2.85554C57.0848 3.79595 57.2149 4.74637 57.485 5.64677L56.0544 6.18699ZM13.746 22.0039C13.4558 20.9834 13.3258 19.933 13.3558 18.8725C13.4259 17.692 13.846 16.6716 14.8965 16.2514C15.8369 15.8812 16.9274 16.2614 17.9278 17.1918C19.8987 19.2327 20.9891 21.9639 20.9591 24.7951C20.8691 26.1557 20.3489 27.1861 19.4084 27.5663C19.0183 27.7264 18.5681 27.5363 18.408 27.1461C18.2479 26.7559 18.438 26.3057 18.8282 26.1457C18.8282 26.1457 18.8282 26.1457 18.8382 26.1457C19.1883 26.0056 19.3885 25.4654 19.4285 24.7051C19.4285 22.324 18.5181 20.043 16.8874 18.3123C16.3271 17.7921 15.8069 17.5319 15.4667 17.672C15.0766 17.8221 14.9165 18.3423 14.8865 18.9626C14.8665 19.8029 14.9665 20.6533 15.1866 21.4636L13.746 22.0039ZM27.8221 16.7416C27.482 15.6311 27.3219 14.4806 27.3419 13.3201C27.4119 12.1396 27.8321 11.1191 28.8826 10.699C29.823 10.3288 30.9134 10.709 31.9139 11.6394C33.8847 13.6702 34.9752 16.4114 34.9452 19.2427C34.8652 20.6033 34.3349 21.6337 33.3945 22.0139C33.0044 22.174 32.5542 21.9739 32.4041 21.5837C32.244 21.1935 32.4441 20.7433 32.8343 20.5933C33.1744 20.4532 33.3845 19.913 33.4245 19.1526C33.4245 16.7716 32.5142 14.4906 30.8734 12.7599C30.3132 12.2396 29.793 11.9795 29.4528 12.1196C29.0626 12.2696 28.9026 12.7899 28.8626 13.4101C28.8426 14.3606 28.9726 15.301 29.2527 16.2014L27.8221 16.7416ZM41.9383 11.4693C41.5981 10.3588 41.438 9.20831 41.458 8.0478C41.5281 6.86729 41.9483 5.84685 42.9987 5.42667C43.9391 5.05651 45.0296 5.43668 46.03 6.36708C48.0009 8.39796 49.0914 11.1291 49.0614 13.9704C48.9813 15.331 48.4511 16.3614 47.5107 16.7416C47.1205 16.9017 46.6703 16.7016 46.5202 16.3114C46.3702 15.9212 46.5602 15.471 46.9504 15.321C47.2906 15.1809 47.5007 14.6407 47.5407 13.8803C47.5407 11.4993 46.6303 9.21832 44.9896 7.48756C44.4293 6.96734 43.9091 6.70722 43.5689 6.84729C43.1788 6.99735 43.0187 7.51757 42.9887 8.13784C42.9687 9.08825 43.0988 10.0287 43.3789 10.9291L41.9383 11.4693Z" fill="#406FB5"/>
<path fill-rule="evenodd" clip-rule="evenodd" d="M16.7173 35.9199C18.5681 35.2096 20.4089 34.4993 22.2597 33.779C22.4798 33.699 22.7299 33.809 22.8199 34.0191C23.6203 36 24.4306 37.9708 25.231 39.9417C25.321 40.1618 25.211 40.4019 24.9909 40.4919C23.1301 41.2223 21.2693 41.9626 19.4185 42.6829C19.1984 42.7629 18.9583 42.6529 18.8682 42.4428C18.0679 40.4519 17.2775 38.451 16.4872 36.4602C16.3972 36.2501 16.4972 36.01 16.7073 35.9199C16.7073 35.9199 16.7073 35.9199 16.7173 35.9199ZM20.9892 46.6146L26.5716 44.3936C26.7917 44.3036 27.0418 44.4036 27.1318 44.6237C27.9322 46.6046 28.7425 48.5754 29.5429 50.5563C29.6229 50.7764 29.5229 51.0165 29.3028 51.1066C27.432 51.8669 25.5511 52.6272 23.6903 53.3875C23.4702 53.4776 23.2301 53.3675 23.1401 53.1574C22.3497 51.1666 21.5494 49.1757 20.759 47.1748C20.669 46.9647 20.7691 46.7146 20.9892 46.6246M65.8086 28.7668L71.4011 26.5459C71.6111 26.4558 71.8613 26.5459 71.9713 26.746C72.8417 28.5968 73.702 30.4375 74.5824 32.2884C74.6725 32.4884 74.5724 32.7286 74.3724 32.8086C74.3724 32.8086 74.3523 32.8086 74.3423 32.8086C72.4715 33.5689 70.6007 34.3292 68.7299 35.0896C68.5198 35.1796 68.2697 35.0896 68.1597 34.8795C67.3093 33.0187 66.4389 31.1479 65.5785 29.287C65.4885 29.087 65.5785 28.8569 65.7886 28.7668H65.8086ZM56.8447 32.3384C56.6346 32.4084 56.5246 32.6385 56.6046 32.8486C56.6046 32.8486 56.6046 32.8586 56.6046 32.8686C57.445 34.7594 58.2954 36.6503 59.1457 38.5411C59.2458 38.7512 59.4959 38.8412 59.716 38.7512C61.5868 37.9908 63.4576 37.2305 65.3284 36.4702C65.5385 36.4002 65.6486 36.1701 65.5685 35.96V35.94C64.7182 34.0691 63.8578 32.1983 63.0074 30.3175C62.8974 30.1074 62.6573 30.0174 62.4372 30.1074C60.5764 30.8477 58.7155 31.5881 56.8547 32.3384M47.8908 35.9099L53.4733 33.689C53.6934 33.5989 53.9335 33.689 54.0335 33.9091C54.8739 35.7999 55.7143 37.7107 56.5646 39.6015C56.6547 39.8116 56.5546 40.0517 56.3445 40.1318C56.3445 40.1318 56.3345 40.1318 56.3245 40.1318C54.4537 40.8921 52.5829 41.6524 50.7121 42.4128C50.502 42.5028 50.2519 42.4128 50.1518 42.1927C49.3215 40.2818 48.4811 38.361 47.6507 36.4402C47.5607 36.2301 47.6607 35.99 47.8708 35.9099C47.8708 35.9099 47.8708 35.9099 47.8809 35.9099M38.9169 39.4815C38.6968 39.5615 38.5968 39.8016 38.6768 40.0217C39.4972 41.9726 40.3275 43.9134 41.1379 45.8543C41.2379 46.0744 41.488 46.1644 41.6981 46.0744C43.569 45.314 45.4398 44.5537 47.3106 43.7934C47.5207 43.7133 47.6307 43.4732 47.5407 43.2631C46.7203 41.3423 45.88 39.4115 45.0596 37.4906C44.9596 37.2805 44.7195 37.1805 44.4994 37.2705L38.9169 39.4915M29.953 43.063C29.7329 43.1431 29.6229 43.3932 29.7029 43.6033C30.5133 45.5741 31.3237 47.545 32.124 49.5059C32.214 49.7259 32.4641 49.826 32.6842 49.7259C34.5451 48.9656 36.4158 48.2053 38.2967 47.445C38.5168 47.3649 38.6168 47.1148 38.5368 46.9047C37.7264 44.9539 36.9061 43.003 36.0857 41.0522C35.9857 40.8421 35.7456 40.732 35.5255 40.8221C33.6647 41.5624 31.8038 42.3127 29.943 43.053M25.241 57.3192L30.8735 54.9982C31.0936 54.9082 31.3437 54.9982 31.4337 55.2283C32.234 57.2092 33.0444 59.1801 33.8447 61.1609C33.9348 61.381 33.8247 61.6311 33.6046 61.7112C31.7138 62.5015 29.833 63.2918 27.9522 64.0822C27.7421 64.1722 27.492 64.0822 27.4019 63.8621C26.6116 61.8712 25.8112 59.8704 25.0209 57.8795C24.9309 57.6594 25.0409 57.4093 25.261 57.3293M70.4306 38.7712C72.3115 38.0008 74.1823 37.2305 76.0631 36.4602C76.2732 36.3601 76.5233 36.4502 76.6333 36.6503C77.5037 38.5011 78.3641 40.3519 79.2445 42.1927C79.3345 42.3928 79.2445 42.6229 79.0344 42.7129H79.0144L73.3619 45.0839C73.1518 45.184 72.8917 45.0939 72.7817 44.8938C71.9213 43.033 71.0609 41.1622 70.2006 39.2914C70.1205 39.0813 70.2206 38.8512 70.4207 38.7612C70.4207 38.7612 70.4206 38.7612 70.4306 38.7612M61.3867 42.4728C61.1766 42.5528 61.0666 42.7829 61.1466 42.993C61.1466 42.993 61.1466 42.993 61.1466 43.003C61.997 44.8938 62.8373 46.7847 63.6877 48.6855C63.7978 48.8956 64.0479 48.9856 64.258 48.8856C66.1388 48.0952 68.0296 47.3049 69.9204 46.5145C70.1305 46.4445 70.2306 46.2144 70.1605 46.0043C70.1605 46.0043 70.1605 45.9843 70.1505 45.9743C69.2901 44.1035 68.4398 42.2327 67.5794 40.3519C67.4693 40.1418 67.2193 40.0617 67.0092 40.1518L61.3767 42.4628M52.3428 46.1744C54.2136 45.4041 56.0844 44.6337 57.9652 43.8634C58.1853 43.7734 58.4354 43.8634 58.5355 44.0735C59.3758 45.9643 60.2262 47.8651 61.0666 49.766C61.1566 49.976 61.0566 50.2162 60.8465 50.2962C60.8465 50.2962 60.8465 50.2962 60.8365 50.2962L55.174 52.6672C54.9639 52.7673 54.7138 52.6672 54.6138 52.4571C53.7734 50.5363 52.943 48.6255 52.1127 46.7046C52.0326 46.4945 52.1327 46.2444 52.3428 46.1644M43.3089 49.876C43.0888 49.956 42.9787 50.2062 43.0587 50.4163C43.8791 52.3571 44.6995 54.2979 45.5198 56.2488C45.6199 56.4689 45.87 56.5589 46.0901 56.4589C47.9709 55.6685 49.8617 54.8782 51.7425 54.0878C51.9526 54.0078 52.0627 53.7677 51.9726 53.5476C51.1423 51.6268 50.3119 49.6959 49.4815 47.7751C49.3815 47.565 49.1314 47.465 48.9213 47.565C47.0405 48.3353 45.1697 49.1057 43.2988 49.876M34.2649 53.5876C36.1357 52.8173 38.0166 52.047 39.8974 51.2766C40.1175 51.1866 40.3576 51.2766 40.4576 51.4967C41.278 53.4476 42.0883 55.3984 42.9087 57.3493C42.9887 57.5694 42.8887 57.8095 42.6686 57.8995L37.0161 60.2705C36.806 60.3706 36.5459 60.2705 36.4559 60.0604C35.6455 58.0896 34.8352 56.1187 34.0248 54.1579C33.9348 53.9378 34.0448 53.6877 34.2649 53.5976M61.1666 18.7425C63.0074 18.0222 64.8582 17.3118 66.709 16.6015C66.9291 16.5115 67.1692 16.6015 67.2793 16.8116C68.1496 18.6524 69.02 20.5032 69.8904 22.354C69.9805 22.5541 69.8904 22.7842 69.6903 22.8643C69.6803 22.8643 69.6703 22.8643 69.6603 22.8743C67.8095 23.6046 65.9487 24.3349 64.0979 25.0652C63.8778 25.1553 63.6377 25.0652 63.5276 24.8551C62.6673 22.9843 61.8069 21.1135 60.9565 19.2527C60.8665 19.0626 60.9565 18.8325 61.1466 18.7525C61.1566 18.7525 61.1666 18.7425 61.1866 18.7425M52.2828 22.174C52.0827 22.244 51.9726 22.4741 52.0526 22.6742C52.0526 22.6742 52.0527 22.6942 52.0627 22.7042C52.913 24.595 53.7534 26.4858 54.6037 28.3767C54.7038 28.5868 54.9539 28.6768 55.164 28.5968C57.0248 27.8664 58.8756 27.1361 60.7364 26.4058C60.9465 26.3358 61.0466 26.1057 60.9765 25.9056V25.8856C60.1162 24.0148 59.2658 22.1339 58.4054 20.2631C58.2954 20.053 58.0553 19.963 57.8352 20.043C55.9844 20.7533 54.1435 21.4737 52.2927 22.184M43.4089 25.6255C45.2497 24.9152 47.1005 24.1948 48.9513 23.4845C49.1714 23.3945 49.4215 23.4945 49.5215 23.7046C50.3619 25.6055 51.2123 27.5063 52.0526 29.4071C52.1427 29.6072 52.0426 29.8473 51.8325 29.9273C51.8325 29.9273 51.8226 29.9273 51.8126 29.9273C49.9517 30.6577 48.0909 31.398 46.2401 32.1183C46.02 32.2083 45.7799 32.1083 45.6799 31.8982C44.8495 29.9773 44.0092 28.0565 43.1788 26.1457C43.0888 25.9456 43.1788 25.7155 43.3789 25.6255H43.3989M34.505 29.057C34.2949 29.137 34.1849 29.3671 34.2649 29.5772C34.2649 29.5772 34.2649 29.5772 34.2649 29.5872C35.0853 31.528 35.9056 33.4689 36.726 35.4197C36.826 35.6298 37.0661 35.7299 37.2862 35.6498C39.137 34.9195 40.9978 34.1892 42.8586 33.4589C43.0687 33.3788 43.1788 33.1487 43.0987 32.9286C43.0987 32.9286 43.0987 32.9286 43.0987 32.9186C42.2684 30.9978 41.438 29.067 40.6077 27.1461C40.5076 26.936 40.2675 26.836 40.0474 26.916C38.2066 27.6263 36.3558 28.3466 34.505 29.057ZM25.6112 32.4885C25.4011 32.5685 25.291 32.8086 25.3711 33.0187C26.1814 34.9895 26.9917 36.9504 27.7921 38.9212C27.8821 39.1413 28.1322 39.2414 28.3423 39.1614L33.9148 36.9704C34.1248 36.8904 34.2349 36.6503 34.1549 36.4302C33.3445 34.4793 32.5242 32.5285 31.7038 30.5776C31.6038 30.3675 31.3637 30.2575 31.1436 30.3475C29.2928 31.0678 27.4419 31.7781 25.6011 32.4885" fill="white"/>
</svg>
