<svg width="72" height="72" viewBox="0 0 72 72" fill="none" xmlns="http://www.w3.org/2000/svg">
<path fill-rule="evenodd" clip-rule="evenodd" d="M49.2318 2.90723C67.5022 10.2093 76.3843 30.951 69.0822 49.2113C61.7801 67.4818 41.0384 76.3638 22.7781 69.0617C4.50762 61.7596 -4.37442 41.018 2.92769 22.7576C10.2298 4.48715 30.9613 -4.39488 49.2318 2.90723Z" fill="#F1F8FC"/>
<path fill-rule="evenodd" clip-rule="evenodd" d="M42.4665 19.8207C51.3992 23.3958 55.744 33.5236 52.1689 42.4563C48.5938 51.3889 38.466 55.7337 29.5334 52.1586C20.6007 48.5835 16.2559 38.4558 19.831 29.5231C21.5426 25.2391 24.8948 21.8058 29.1384 19.9828C33.3819 18.1598 38.1825 18.099 42.4665 19.8207ZM51.6118 29.3003C47.9152 20.6816 37.9293 16.6811 29.3004 20.3778C20.6817 24.0744 16.6812 34.0603 20.3779 42.6892C24.0745 51.3079 34.0605 55.3084 42.6893 51.6117C46.8316 49.8394 50.0927 46.4871 51.7638 42.3043C53.445 38.1216 53.3842 33.4426 51.6017 29.3003" fill="#BFDBF2"/>
<path fill-rule="evenodd" clip-rule="evenodd" d="M43.5096 17.208C53.8804 21.3502 58.924 33.1288 54.7818 43.4996C50.6395 53.8704 38.861 58.914 28.4902 54.7718C18.1193 50.6295 13.0757 38.851 17.218 28.4801C21.3602 18.1093 33.1287 13.0657 43.4995 17.208M54.3767 43.3376C58.4379 33.1895 53.4956 21.6642 43.3476 17.6029C33.1996 13.5417 21.6742 18.4841 17.6129 28.6321C13.5517 38.7801 18.4941 50.3054 28.6421 54.3667C33.5135 56.3112 38.9622 56.2504 43.7932 54.1844C48.6241 52.1183 52.422 48.209 54.3767 43.3376Z" fill="#BFDBF2"/>
<path d="M43.2342 17.4815L42.301 19.8243L42.6585 19.9667L43.5918 17.6239L43.2342 17.4815Z" fill="#BFDBF2"/>
<path fill-rule="evenodd" clip-rule="evenodd" d="M51.5005 23.5581L51.7334 23.8518L49.7483 25.4115L49.5154 25.1077L51.4903 23.548L51.5005 23.5581Z" fill="#BFDBF2"/>
<path d="M55.6315 32.9946L53.1455 33.3528L53.2004 33.7338L55.6864 33.3755L55.6315 32.9946Z" fill="#BFDBF2"/>
<path fill-rule="evenodd" clip-rule="evenodd" d="M54.5185 43.1854L54.3767 43.5399L52.0372 42.6082L52.179 42.2537L54.5185 43.1854Z" fill="#BFDBF2"/>
<path fill-rule="evenodd" clip-rule="evenodd" d="M48.4317 51.4802L48.1279 51.7132L46.5682 49.7383L46.872 49.5053L48.4317 51.4802Z" fill="#BFDBF2"/>
<path d="M38.6643 53.1559L38.2834 53.2107L38.6431 55.7068L39.024 55.6519L38.6643 53.1559Z" fill="#BFDBF2"/>
<path fill-rule="evenodd" clip-rule="evenodd" d="M28.8041 54.4983L28.4496 54.3565L29.3814 52.017L29.7358 52.1588L28.8041 54.4983Z" fill="#BFDBF2"/>
<path fill-rule="evenodd" clip-rule="evenodd" d="M20.5095 48.4215L20.2766 48.1177L22.2515 46.558L22.4844 46.8618L20.5095 48.4215Z" fill="#BFDBF2"/>
<path d="M18.8069 38.2871L16.311 38.6477L16.3661 39.0286L18.8619 38.668L18.8069 38.2871Z" fill="#BFDBF2"/>
<path d="M17.6366 28.4375L17.4937 28.7949L19.8257 29.7276L19.9687 29.3703L17.6366 28.4375Z" fill="#BFDBF2"/>
<path d="M23.8752 20.2672L23.5732 20.5057L25.1361 22.4848L25.4382 22.2463L23.8752 20.2672Z" fill="#BFDBF2"/>
<path d="M33.3531 16.2894L32.9823 16.3434L33.3455 18.8389L33.7163 18.7849L33.3531 16.2894Z" fill="#BFDBF2"/>
<path fill-rule="evenodd" clip-rule="evenodd" d="M46.6087 9.4803C61.2534 15.3341 68.3732 31.9538 62.5194 46.5884C56.6655 61.2331 40.056 68.3529 25.4113 62.4991C10.7666 56.6452 3.64679 40.0256 9.50063 25.391C12.3161 18.3623 17.8054 12.7313 24.7631 9.75375C31.7209 6.76607 39.58 6.66478 46.6087 9.4803ZM62.0535 24.8238C55.8857 10.4323 39.2256 3.76825 24.8442 9.93605C10.4526 16.1039 3.78856 32.764 9.95636 47.1454C16.1242 61.5369 32.7843 68.201 47.1657 62.0332C54.0729 59.0759 59.5216 53.4854 62.3168 46.5074C65.1121 39.5293 65.0209 31.731 62.0535 24.8238Z" fill="#BFDBF2"/>
<path fill-rule="evenodd" clip-rule="evenodd" d="M47.1252 8.17402C62.489 14.3216 69.9532 31.7514 63.8158 47.1051C57.6682 62.4689 40.2384 69.9331 24.8847 63.7956C9.52089 57.6481 2.05672 40.2182 8.19414 24.8646C11.1413 17.4916 16.904 11.5871 24.2061 8.45761C31.5082 5.31801 39.7522 5.21672 47.1354 8.17402M63.3499 24.267C56.8782 9.16655 39.3977 2.1784 24.2973 8.63991C9.19678 15.1115 2.20864 32.592 8.67014 47.6925C15.1418 62.793 32.6223 69.7811 47.7227 63.3196C54.9742 60.2104 60.6964 54.3464 63.6233 47.0241C66.5604 39.7017 66.4591 31.5084 63.3398 24.267" fill="#BFDBF2"/>
<path fill-rule="evenodd" clip-rule="evenodd" d="M57.5669 42.0714C57.5669 42.0714 57.7188 42.1423 57.8708 42.2132C57.9822 42.274 58.0834 42.3145 58.1543 42.3449L58.8329 42.5778C58.8329 42.5778 58.9038 42.6386 58.8937 42.6791V42.6994C58.8835 42.75 58.8329 42.7702 58.7823 42.7601C58.6911 42.7297 58.6 42.7297 58.5189 42.7601C58.4278 42.8411 58.3468 42.9323 58.2961 43.0437C58.205 43.2057 58.043 43.5805 57.7999 44.1881C57.5264 44.8768 57.3239 45.4136 57.1821 45.7883C57.0808 46.0213 57.02 46.2643 56.9896 46.5175C56.9896 46.6188 57.0606 46.7099 57.1618 46.7403C57.2327 46.7707 57.253 46.8112 57.2327 46.872C57.2226 46.9327 57.1618 46.9631 57.1011 46.953C57.1011 46.953 57.0808 46.953 57.0707 46.9429C57.0403 46.9328 57.0099 46.9125 56.9795 46.9024C56.7162 46.7606 56.5339 46.6796 56.4326 46.639C56.2706 46.5682 56.1085 46.5175 55.9364 46.477C55.8958 46.477 55.8553 46.4567 55.8148 46.4365C55.7642 46.4162 55.744 46.3757 55.7743 46.3149C55.7845 46.2744 55.8351 46.2441 55.8756 46.2542C55.9769 46.2846 56.0984 46.2542 56.1794 46.2036C56.3111 46.0415 56.4124 45.8592 56.4833 45.6567C56.6149 45.3629 56.8074 44.8869 57.0605 44.2489C57.334 43.5805 57.5062 43.1247 57.5771 42.8918C57.6378 42.75 57.6682 42.5981 57.6682 42.436C57.6378 42.355 57.5771 42.2841 57.496 42.2537C57.4454 42.2335 57.4252 42.1828 57.4454 42.1322C57.4454 42.1322 57.4454 42.1322 57.4454 42.1221C57.4555 42.0816 57.4961 42.0512 57.5467 42.0613C57.5467 42.0613 57.5568 42.0613 57.5669 42.0613M59.2887 42.75C59.2887 42.75 59.1975 42.75 59.1772 42.7905C59.1772 42.7905 59.1772 42.8006 59.1772 42.8108C59.1469 42.8614 59.1671 42.912 59.2076 42.9424C59.2886 42.9728 59.3494 43.0437 59.3798 43.1247C59.3798 43.2766 59.3494 43.4286 59.2887 43.5805C59.2076 43.8134 59.0456 44.2692 58.7721 44.9376C58.5189 45.5756 58.3265 46.0415 58.1949 46.3453C58.124 46.5479 58.0227 46.7302 57.891 46.8922C57.7999 46.953 57.6885 46.9733 57.5872 46.9429C57.5467 46.9328 57.4961 46.9631 57.4859 47.0036C57.4657 47.0644 57.4758 47.1049 57.5264 47.1252C57.5669 47.1353 57.6074 47.1556 57.6479 47.1556C57.8201 47.1961 57.9822 47.2568 58.1442 47.3277C58.2455 47.3682 58.4278 47.4594 58.6911 47.5911C58.7316 47.6113 58.762 47.6214 58.7823 47.6316C58.8329 47.6619 58.9038 47.6417 58.9342 47.5911C58.9342 47.5911 58.9443 47.5708 58.9443 47.5607C58.9646 47.4999 58.9443 47.4594 58.8734 47.429C58.7721 47.3986 58.7114 47.3075 58.7012 47.2062C58.7215 46.953 58.7823 46.7099 58.8835 46.477C59.0152 46.0921 59.2279 45.5655 59.5013 44.8768C59.7444 44.2793 59.9064 43.8944 59.9976 43.7324C60.0482 43.621 60.1191 43.5197 60.2204 43.4387C60.3116 43.4083 60.4027 43.4083 60.4837 43.4387C60.5344 43.4488 60.585 43.4285 60.5951 43.3779C60.6154 43.3374 60.6053 43.2868 60.5647 43.2665C60.5647 43.2665 60.5546 43.2665 60.5445 43.2665L59.8659 43.0336C59.795 43.0032 59.7039 42.9627 59.5823 42.9019C59.4304 42.8209 59.3292 42.7804 59.2785 42.7601M61.0002 43.4488C61.0002 43.4488 61.1522 43.5197 61.3041 43.5906C61.4155 43.6514 61.5168 43.6919 61.5877 43.7222L62.2662 43.9552C62.2662 43.9552 62.3371 44.016 62.327 44.0565C62.327 44.0565 62.327 44.0666 62.327 44.0767C62.3169 44.1274 62.2662 44.1577 62.2156 44.1375C62.1244 44.1071 62.0333 44.1071 61.9421 44.1375C61.851 44.2185 61.77 44.3198 61.7193 44.4312C61.6282 44.5932 61.4661 44.968 61.223 45.5756C60.9496 46.2643 60.7471 46.8011 60.6053 47.1758C60.504 47.4088 60.4432 47.6518 60.423 47.905C60.423 48.0063 60.4938 48.0974 60.5951 48.1278C60.666 48.1582 60.6863 48.1987 60.666 48.2595C60.6559 48.3203 60.5951 48.3506 60.5344 48.3405C60.5242 48.3405 60.5141 48.3405 60.504 48.3304C60.4837 48.3304 60.4533 48.3101 60.4128 48.2899C60.1495 48.1481 59.9672 48.0569 59.8659 48.0265C59.7039 47.9556 59.5418 47.905 59.3697 47.8544C59.3292 47.8544 59.2887 47.8341 59.2481 47.824C59.1975 47.8037 59.1772 47.7632 59.2076 47.6923C59.2178 47.6518 59.2684 47.6214 59.3089 47.6316C59.4203 47.6619 59.5317 47.6316 59.6229 47.5809C59.7545 47.4189 59.8558 47.2366 59.9267 47.034C60.0583 46.7302 60.2508 46.2643 60.504 45.6263C60.7774 44.9578 60.9496 44.5021 61.0205 44.2692C61.0813 44.1274 61.1116 43.9754 61.1116 43.8235C61.1015 43.7526 61.0407 43.702 60.9395 43.6412C60.8888 43.621 60.8686 43.5602 60.8888 43.5096C60.8888 43.4691 60.9395 43.4387 60.9901 43.4488C60.9901 43.4488 61.0002 43.4488 61.0104 43.4488" fill="#87B7E2"/>
<path fill-rule="evenodd" clip-rule="evenodd" d="M25.1581 60.9494L24.9859 60.8785L25.2088 59.1467C25.2695 58.7112 25.3303 58.1744 25.4113 57.5465C25.462 57.1718 25.5025 56.8072 25.5126 56.4324C25.5126 56.3514 25.4923 56.2704 25.462 56.1995C25.4316 56.1489 25.3809 56.0982 25.3202 56.078C25.2797 56.0577 25.2594 56.0172 25.2797 55.9666C25.2999 55.9159 25.3506 55.8855 25.4012 55.9058L25.9785 56.1792C26.181 56.2603 26.3937 56.3312 26.5963 56.3919L26.6975 56.4223C26.7482 56.4324 26.7887 56.4932 26.7684 56.5438C26.7684 56.5438 26.7684 56.5641 26.7583 56.5742C26.738 56.6249 26.6976 56.6451 26.6267 56.6249C26.4545 56.5844 26.2823 56.6856 26.2418 56.8578C25.9886 57.8199 25.8266 58.7922 25.7354 59.7847C26.0595 59.3594 26.3735 58.9239 26.6874 58.4782L27.2647 57.668C27.3255 57.5769 27.3862 57.4756 27.4267 57.3642C27.4673 57.273 27.4774 57.1718 27.4571 57.0806C27.4571 57.0097 27.4065 56.9388 27.3457 56.9084C27.2748 56.8781 27.2546 56.8375 27.2748 56.7768C27.3052 56.7059 27.3457 56.6856 27.3964 56.7059C27.4369 56.7261 27.4875 56.7464 27.5483 56.7768C27.6495 56.8375 27.761 56.8882 27.8724 56.9287C27.9635 56.9692 28.0547 56.9996 28.1559 57.0198C28.2066 57.03 28.2572 57.0502 28.3078 57.0705C28.3585 57.0907 28.3686 57.1312 28.3484 57.2021C28.3382 57.2528 28.2775 57.2832 28.2268 57.273C28.1458 57.2629 28.0547 57.273 27.9838 57.3135C27.8825 57.3743 27.7812 57.4553 27.7002 57.5465C27.5888 57.6579 27.3862 57.9313 27.0622 58.3668L26.0798 59.7138C25.6038 60.3721 25.2898 60.7874 25.148 60.9697M28.6319 57.2427C28.6319 57.2427 28.5509 57.2427 28.5307 57.273C28.5307 57.273 28.5307 57.2832 28.5307 57.2933C28.5003 57.3338 28.5205 57.3946 28.561 57.425C28.6421 57.4553 28.7028 57.5262 28.7332 57.6073C28.7332 57.7592 28.7028 57.9111 28.6421 58.0529C28.5712 58.2858 28.399 58.7416 28.1256 59.41C27.8724 60.048 27.6799 60.5139 27.5483 60.8178C27.4774 61.0102 27.3761 61.2026 27.2444 61.3646C27.1533 61.4254 27.0419 61.4457 26.9305 61.4153C26.89 61.4052 26.8393 61.4355 26.8292 61.4761C26.7988 61.5368 26.8191 61.5773 26.8697 61.6077C26.9102 61.6178 26.9507 61.628 26.9913 61.6381C27.1634 61.6786 27.3255 61.7394 27.4875 61.8103C27.5888 61.8508 27.7711 61.9419 28.0344 62.0736C28.0749 62.0939 28.1053 62.104 28.1256 62.1141C28.1762 62.1445 28.2471 62.1242 28.2775 62.0736C28.2775 62.0736 28.2876 62.0533 28.2876 62.0432C28.3079 61.9825 28.2876 61.9419 28.2167 61.9116C28.1154 61.8812 28.0547 61.79 28.0445 61.6887C28.0648 61.4355 28.1357 61.1925 28.237 60.9595C28.3686 60.5747 28.5813 60.0379 28.8548 59.3594C29.0978 58.7618 29.2599 58.377 29.351 58.2149C29.4016 58.1035 29.4725 58.0022 29.5738 57.9212C29.665 57.8908 29.7561 57.8908 29.8473 57.9212C29.8878 57.9415 29.9384 57.9212 29.9587 57.8706C29.9587 57.8706 29.9587 57.8706 29.9587 57.8605C29.9789 57.8199 29.9688 57.7794 29.9384 57.749C29.9384 57.749 29.9182 57.7491 29.9081 57.7389L29.2295 57.506C29.1383 57.4655 29.0371 57.425 28.9459 57.3743C28.794 57.3034 28.6927 57.2528 28.6421 57.2325" fill="#87B7E2"/>
<path fill-rule="evenodd" clip-rule="evenodd" d="M43.8539 11.6884C44.2084 11.4352 44.5122 11.1314 44.7654 10.7769C44.7958 10.7162 44.8059 10.6453 44.7857 10.5845C44.7553 10.5035 44.7047 10.4427 44.6338 10.3921C44.5933 10.3617 44.5831 10.3111 44.6034 10.2604C44.6034 10.2199 44.654 10.1895 44.6945 10.1996C44.6945 10.1996 44.7046 10.1996 44.7148 10.1996C44.7755 10.2199 44.8262 10.2503 44.8768 10.2807C44.9781 10.3313 45.0693 10.382 45.1402 10.4123C45.2414 10.4529 45.3832 10.5035 45.5655 10.5541C45.6465 10.5744 45.6972 10.5946 45.7174 10.6048C45.7883 10.6351 45.8086 10.6757 45.7883 10.7465C45.7782 10.7972 45.7275 10.8276 45.687 10.8073C45.687 10.8073 45.6871 10.8073 45.6769 10.8073C45.5554 10.7668 45.4339 10.7769 45.3224 10.8174C45.1705 10.8681 45.0287 10.9491 44.9072 11.0504C44.7654 11.1618 44.4211 11.4555 43.8843 11.9214C43.8843 12.4075 43.8944 12.9341 43.9248 13.4912C43.9248 13.8558 43.9755 14.2102 44.0666 14.5546C44.1071 14.6761 44.178 14.7774 44.2793 14.8584C44.3401 14.8989 44.3704 14.9394 44.3401 15.0002C44.3097 15.061 44.2691 15.0812 44.1982 15.0508L43.4083 14.6964C43.307 14.6559 43.1956 14.6154 43.0943 14.585C43.0032 14.5546 42.9424 14.5343 42.9222 14.5242C42.8817 14.5039 42.8412 14.4938 42.8006 14.4837C42.7804 14.4837 42.7702 14.4837 42.75 14.4736C42.7095 14.4533 42.6994 14.4128 42.7196 14.352C42.7297 14.3014 42.7804 14.2811 42.8209 14.2913C42.9526 14.3419 43.0943 14.2913 43.1551 14.1495C43.1551 14.1495 43.1551 14.1393 43.1551 14.1292C43.2361 13.6026 43.2361 13.0658 43.1754 12.5392C42.7601 12.8531 42.3955 13.2177 42.0714 13.633C42.0107 13.7849 42.0816 13.9368 42.2943 14.0786C42.3348 14.0988 42.355 14.1495 42.3347 14.19C42.3145 14.2508 42.274 14.2811 42.2234 14.2609C42.2031 14.2508 42.1322 14.2204 42.0309 14.1596C41.9094 14.0988 41.7879 14.0381 41.6562 13.9874C41.5651 13.9469 41.4638 13.9165 41.3625 13.8862C41.3017 13.876 41.241 13.8558 41.1802 13.8355C41.0992 13.8051 41.0688 13.7545 41.0891 13.6836C41.0992 13.6431 41.1498 13.6127 41.1903 13.6228C41.3118 13.6532 41.4435 13.6431 41.5651 13.6127C41.7271 13.5317 41.879 13.4304 42.0107 13.3089C42.2031 13.1468 42.5879 12.8126 43.1551 12.2961C43.1551 11.6175 43.1349 10.939 43.0741 10.2604C43.0741 10.0275 42.9627 9.8148 42.7905 9.65276C42.7399 9.62237 42.7196 9.57173 42.7399 9.52109C42.7601 9.46033 42.8006 9.44007 42.8614 9.46033C42.9019 9.48058 42.9323 9.50084 42.9728 9.52109C43.1652 9.62237 43.3678 9.70339 43.5703 9.78442C43.702 9.83505 43.8539 9.89582 44.0463 9.95659C44.1577 9.98697 44.2286 10.0174 44.2388 10.0174C44.3198 10.0477 44.3502 10.0984 44.3198 10.149C44.3097 10.1997 44.259 10.23 44.2084 10.2199C44.2084 10.2199 44.1983 10.2199 44.1881 10.2199C44.1375 10.2199 44.0767 10.2199 44.0261 10.2199C43.9552 10.2199 43.9046 10.2705 43.8742 10.3313C43.8438 10.4528 43.8235 10.5744 43.8337 10.6959C43.8337 10.8782 43.8337 11.2124 43.8539 11.6986M46.3149 10.8478C46.3149 10.8478 46.2339 10.8478 46.2137 10.8782C46.2137 10.8782 46.2137 10.8883 46.2137 10.8985C46.1833 10.939 46.2036 10.9997 46.2441 11.0301C46.3251 11.0605 46.3858 11.1314 46.4162 11.2124C46.4162 11.3643 46.3858 11.5163 46.3251 11.658C46.2542 11.891 46.082 12.3467 45.8086 13.0152C45.5554 13.6532 45.363 14.1191 45.2313 14.4229C45.1604 14.6154 45.0591 14.8078 44.9274 14.9698C44.8363 15.0306 44.7249 15.0508 44.6236 15.0205C44.5831 15.0103 44.5325 15.0407 44.5223 15.0812C44.5021 15.142 44.5122 15.1825 44.5629 15.2129C44.6034 15.223 44.6439 15.2331 44.6844 15.2433C44.8566 15.2838 45.0186 15.3445 45.1806 15.4154C45.3629 15.4965 45.5453 15.5876 45.7275 15.6889L45.8187 15.7294C45.8693 15.7598 45.9402 15.7395 45.9706 15.6889C45.9706 15.6889 45.9706 15.6686 45.9807 15.6585C46.001 15.5977 45.9807 15.5572 45.9098 15.5268C45.8086 15.4965 45.7478 15.4053 45.7377 15.304C45.7579 15.0508 45.8187 14.8078 45.92 14.5748C46.0516 14.19 46.2643 13.6532 46.5378 12.9747C46.7808 12.3771 46.9429 11.9923 47.034 11.8302C47.0847 11.7188 47.1556 11.6175 47.2568 11.5365C47.348 11.5061 47.4391 11.5061 47.5202 11.5365C47.5708 11.5466 47.6214 11.5264 47.6316 11.4757C47.6518 11.4352 47.6417 11.3846 47.6012 11.3643H47.5809L46.9024 11.1314C46.8011 11.0909 46.7099 11.0504 46.6188 10.9997C46.4669 10.9288 46.3656 10.8782 46.3149 10.858M48.0367 11.5466C48.0367 11.5466 48.1886 11.6175 48.3405 11.6884C48.4316 11.7391 48.5228 11.7796 48.6241 11.8201L49.3026 12.053C49.3026 12.053 49.3735 12.1138 49.3634 12.1543V12.1746C49.3533 12.2252 49.3027 12.2455 49.252 12.2353C49.1609 12.2049 49.0697 12.2049 48.9785 12.2353C48.8874 12.3164 48.8064 12.4075 48.7557 12.5189C48.6646 12.6809 48.5026 13.0658 48.2595 13.6633C47.986 14.352 47.7835 14.8888 47.6417 15.2635C47.5404 15.4965 47.4796 15.7395 47.4594 15.9927C47.4594 16.094 47.5303 16.1852 47.6316 16.2155C47.7025 16.2459 47.7227 16.2864 47.7025 16.3472C47.6923 16.408 47.6316 16.4383 47.5708 16.4282C47.5708 16.4282 47.5506 16.4282 47.5404 16.4181C47.5202 16.4181 47.4898 16.3978 47.4493 16.3776C47.186 16.2358 47.0036 16.1548 46.9024 16.1041C46.7403 16.0332 46.5783 15.9826 46.4061 15.9421C46.3656 15.9421 46.3251 15.9218 46.2846 15.9117C46.2339 15.8915 46.2137 15.8509 46.2441 15.78C46.2542 15.7395 46.3048 15.7092 46.3454 15.7193C46.4568 15.7497 46.5682 15.7193 46.6593 15.6585C46.791 15.4965 46.8922 15.3142 46.9631 15.1217C47.0948 14.8179 47.2872 14.352 47.5404 13.714C47.8139 13.0455 47.986 12.5898 48.0569 12.3569C48.1177 12.2151 48.1481 12.0632 48.1481 11.9112C48.1177 11.8302 48.0569 11.7593 47.9759 11.7289C47.9253 11.7087 47.905 11.6581 47.9253 11.6074C47.9253 11.6074 47.9253 11.6074 47.9253 11.5973C47.9354 11.5568 47.9759 11.5264 48.0265 11.5365C48.0265 11.5365 48.0367 11.5365 48.0468 11.5365" fill="#87B7E2"/>
<path fill-rule="evenodd" clip-rule="evenodd" d="M11.4857 23.6387C11.5363 23.659 11.6376 23.7096 11.7895 23.7805C11.9009 23.8312 12.0022 23.8818 12.0731 23.9122L12.7517 24.1451C12.7517 24.1451 12.8226 24.2059 12.8124 24.2464C12.8124 24.2464 12.8124 24.2565 12.8124 24.2667C12.8023 24.3173 12.7517 24.3375 12.701 24.3274C12.6099 24.297 12.5187 24.297 12.4276 24.3274C12.3364 24.4084 12.2554 24.4996 12.2048 24.611C12.1136 24.773 11.9516 25.1478 11.7085 25.7554C11.4351 26.4441 11.2224 26.9809 11.0907 27.3556C10.9894 27.5886 10.9287 27.8316 10.8983 28.0848C10.8983 28.1861 10.9692 28.2772 11.0705 28.3076C11.1414 28.338 11.1616 28.3785 11.1414 28.4393C11.1312 28.5 11.0705 28.5304 11.0097 28.5203C10.9996 28.5203 10.9894 28.5203 10.9793 28.5102C10.9591 28.5102 10.9287 28.4899 10.8882 28.4697C10.6248 28.3279 10.4425 28.2469 10.3413 28.1962C10.1792 28.1253 10.0172 28.0747 9.84501 28.024C9.8045 28.024 9.76399 28.0038 9.72348 27.9937C9.67284 27.9734 9.65257 27.9329 9.67283 27.8721C9.68295 27.8316 9.7336 27.8012 9.77411 27.8114C9.88551 27.8418 9.99692 27.8114 10.0881 27.7607C10.2197 27.5987 10.3312 27.4164 10.3919 27.2138C10.5236 26.91 10.716 26.4441 10.9692 25.8061C11.2325 25.1376 11.4047 24.6819 11.4857 24.4489C11.5465 24.3072 11.5768 24.1552 11.5768 23.9932C11.5465 23.9122 11.4857 23.8413 11.4047 23.8109C11.3541 23.7906 11.3338 23.7299 11.354 23.6894C11.354 23.6489 11.4047 23.6185 11.4452 23.6286C11.4452 23.6286 11.4553 23.6286 11.4655 23.6286M14.0784 26.5049C14.0581 26.0188 14.0582 25.6845 14.0582 25.5022C14.0582 25.3807 14.0581 25.2592 14.0986 25.1376C14.1189 25.0769 14.1797 25.0262 14.2506 25.0262C14.3012 25.0262 14.362 25.0262 14.4126 25.0262C14.4632 25.0465 14.5139 25.0262 14.5342 24.9857C14.5342 24.9857 14.5342 24.9756 14.5342 24.9655C14.5544 24.9047 14.5341 24.8541 14.4531 24.8237C14.4329 24.8237 14.3721 24.7933 14.2607 24.7629C14.0784 24.7021 13.9164 24.6515 13.7847 24.6009C13.5821 24.53 13.3796 24.4388 13.1872 24.3375C13.1568 24.3173 13.1163 24.297 13.0758 24.2768C13.0251 24.2565 12.9846 24.2768 12.9542 24.3375C12.934 24.3882 12.9542 24.449 13.0049 24.4692C13.177 24.6211 13.2783 24.8439 13.2884 25.0769C13.3492 25.7554 13.3796 26.434 13.3694 27.1125C12.8023 27.6189 12.4276 27.9633 12.225 28.1253C12.0934 28.2469 11.9414 28.3481 11.7693 28.4292C11.6477 28.4697 11.5262 28.4697 11.3946 28.4393C11.354 28.4292 11.3034 28.4595 11.2933 28.5C11.2629 28.5709 11.2933 28.6115 11.3844 28.652C11.4452 28.6722 11.5059 28.6925 11.5667 28.7026C11.668 28.733 11.7591 28.7634 11.8604 28.8039C11.9921 28.8545 12.1136 28.9153 12.2453 28.9761C12.3466 29.0267 12.4175 29.0571 12.4377 29.0672C12.4884 29.0875 12.5288 29.0672 12.5491 28.9963C12.5694 28.9558 12.5491 28.9052 12.5086 28.8849C12.2959 28.7431 12.225 28.5912 12.2858 28.4393C12.5998 28.024 12.9745 27.6594 13.3897 27.3455C13.4606 27.8721 13.4505 28.4089 13.3694 28.9355C13.3289 29.0672 13.1872 29.1381 13.0555 29.0976C13.0555 29.0976 13.0454 29.0976 13.0352 29.0976C12.9846 29.0875 12.9441 29.1077 12.9239 29.1584C12.9036 29.2191 12.9036 29.2596 12.9441 29.2698L12.9947 29.29C12.9947 29.29 13.0757 29.3204 13.1163 29.3305L13.2884 29.3913C13.3998 29.4217 13.5011 29.4622 13.6024 29.5027L14.3924 29.8572C14.4633 29.8876 14.5139 29.8673 14.5342 29.8065C14.5544 29.7458 14.5342 29.7053 14.4734 29.6749C14.3721 29.5938 14.3012 29.4926 14.2708 29.371C14.1797 29.0267 14.129 28.6621 14.129 28.3076C14.0986 27.7506 14.0784 27.2341 14.0885 26.7378C14.6253 26.2719 14.9696 25.9884 15.1114 25.8668C15.233 25.7656 15.3747 25.6845 15.5267 25.6339C15.6381 25.5934 15.7697 25.5833 15.8811 25.6136C15.9217 25.6339 15.9723 25.6136 15.9926 25.5731C15.9926 25.5731 15.9926 25.5731 15.9926 25.5529C16.0128 25.4921 15.9926 25.4415 15.9217 25.4212C15.871 25.401 15.8204 25.3908 15.7698 25.3706C15.5976 25.3199 15.4558 25.2693 15.3444 25.2288C15.2532 25.1883 15.1621 25.1478 15.081 25.0971C15.0304 25.0667 14.9696 25.0364 14.919 25.0161C14.8785 24.9959 14.8279 25.0161 14.8076 25.0465C14.8076 25.0465 14.8076 25.0566 14.8076 25.0667C14.7873 25.1073 14.7975 25.168 14.838 25.1984C14.9089 25.249 14.9595 25.3199 14.9899 25.3908C15.0101 25.4617 14.9899 25.5225 14.9696 25.5833C14.7165 25.9377 14.4126 26.2416 14.0582 26.4948" fill="#87B7E2"/>
<path fill-rule="evenodd" clip-rule="evenodd" d="M56.4427 19.8713C56.5237 19.9725 56.5035 20.1143 56.4022 20.1954L54.3665 21.7955C54.2653 21.8664 54.1133 21.8462 54.0424 21.7449C53.9715 21.6436 53.9918 21.512 54.083 21.4309L56.1186 19.8308C56.2199 19.7497 56.3617 19.77 56.4427 19.8713Z" fill="#87B7E2"/>
<path fill-rule="evenodd" clip-rule="evenodd" d="M61.7497 32.2475C61.7699 32.3792 61.6788 32.4906 61.5573 32.5108L58.9949 32.8856C58.8633 32.9058 58.7519 32.8147 58.7316 32.6931C58.7113 32.5615 58.8025 32.4501 58.924 32.4298L61.4864 32.0551C61.618 32.0348 61.7294 32.126 61.7497 32.2475Z" fill="#87B7E2"/>
<path fill-rule="evenodd" clip-rule="evenodd" d="M52.0878 56.3919C51.9866 56.4729 51.8448 56.4527 51.7637 56.3514L50.1636 54.3157C50.0825 54.2145 50.1028 54.0727 50.2041 53.9916C50.3054 53.9106 50.4471 53.9309 50.5281 54.0322L52.1284 56.0678C52.2094 56.1691 52.1891 56.3109 52.0878 56.3919Z" fill="#87B7E2"/>
<path fill-rule="evenodd" clip-rule="evenodd" d="M39.7218 61.699C39.5902 61.7193 39.4788 61.6281 39.4585 61.5066L39.0838 58.9443C39.0635 58.8126 39.1547 58.7012 39.2864 58.681C39.418 58.6607 39.5294 58.7519 39.5497 58.8734L39.9244 61.4458C39.9446 61.5775 39.8535 61.6889 39.7218 61.7092" fill="#87B7E2"/>
<path fill-rule="evenodd" clip-rule="evenodd" d="M15.5773 52.0473C15.4963 51.9461 15.5165 51.8043 15.6178 51.7233L17.6535 50.1231C17.7547 50.0421 17.8965 50.0522 17.9776 50.1535C18.0586 50.2547 18.0485 50.3965 17.9472 50.4775C17.9472 50.4775 17.9472 50.4775 17.937 50.4775L15.9013 52.0777C15.8001 52.1588 15.6583 52.1385 15.5773 52.0372" fill="#87B7E2"/>
<path fill-rule="evenodd" clip-rule="evenodd" d="M10.2703 39.6713C10.2501 39.5396 10.3412 39.4282 10.4729 39.408L13.0352 39.0332C13.1669 39.013 13.2783 39.1041 13.2986 39.2257C13.3188 39.3472 13.2277 39.4687 13.1061 39.489L10.5438 39.8637C10.4121 39.884 10.3007 39.7928 10.2805 39.6713" fill="#87B7E2"/>
<path fill-rule="evenodd" clip-rule="evenodd" d="M19.9221 15.5265C20.0234 15.4454 20.1652 15.4657 20.2462 15.567L21.8464 17.6027C21.9274 17.7039 21.9072 17.8559 21.8059 17.9369C21.7046 18.0179 21.5527 17.9976 21.4717 17.8964L19.8715 15.8607C19.7905 15.7594 19.8107 15.6176 19.912 15.5366" fill="#87B7E2"/>
<path fill-rule="evenodd" clip-rule="evenodd" d="M32.2982 10.2196C32.4299 10.1993 32.5413 10.2905 32.5615 10.412L32.9363 12.9743C32.9565 13.106 32.8654 13.2174 32.7438 13.2377C32.6122 13.2579 32.5008 13.1668 32.4805 13.0452L32.1058 10.4829C32.0855 10.3513 32.1767 10.2398 32.2982 10.2196Z" fill="#87B7E2"/>
<path fill-rule="evenodd" clip-rule="evenodd" d="M7.93086 24.7634C14.129 9.2578 31.7311 1.71262 47.2367 7.91081C62.7422 14.109 70.2874 31.711 64.0893 47.2166C57.8911 62.7222 40.289 70.2674 24.7835 64.0692C9.27787 57.871 1.73268 40.2791 7.93086 24.7735M64.1703 15.9826C53.1108 0.426402 31.5387 -3.22972 15.9824 7.81965C0.426212 18.8792 -3.2299 40.4513 7.81947 56.0075C18.879 71.5637 40.4511 75.2198 56.0073 64.1705C61.4256 60.3219 65.6185 54.9947 68.0796 48.8269C72.4649 37.9295 70.9964 25.5432 64.1602 15.9725" fill="#95C2E8"/>
<path fill-rule="evenodd" clip-rule="evenodd" d="M3.70756 23.0718C10.8375 5.23684 31.0829 -3.43252 48.9178 3.69742C66.7528 10.8274 75.4222 31.0727 68.2922 48.9077C61.1623 66.7427 40.9169 75.412 23.082 68.2821C5.24698 61.1521 -3.42238 40.9169 3.70756 23.0819M69.4164 49.3635C76.7995 30.9107 67.8162 9.9665 49.3634 2.58337C30.9107 -4.79976 9.96649 4.18355 2.58336 22.6363C-4.79977 41.0891 4.18357 62.0333 22.6363 69.4164C41.0891 76.7995 62.0333 67.8162 69.4164 49.3635Z" fill="#87B7E2"/>
<path fill-rule="evenodd" clip-rule="evenodd" d="M46.9936 8.25501L47.1657 8.3259L46.6391 9.63238L46.4669 9.56149L46.9936 8.25501Z" fill="#BFDBF2"/>
<path fill-rule="evenodd" clip-rule="evenodd" d="M53.7893 12.0425L53.9412 12.1539L53.1006 13.2781L52.9487 13.1667L53.7893 12.0425Z" fill="#BFDBF2"/>
<path fill-rule="evenodd" clip-rule="evenodd" d="M59.3798 17.461L59.4912 17.6129L58.3873 18.4737L58.2658 18.3218L59.3697 17.461H59.3798Z" fill="#BFDBF2"/>
<path fill-rule="evenodd" clip-rule="evenodd" d="M63.3702 24.135L63.441 24.3072L62.1447 24.8642L62.0738 24.692L63.3702 24.135Z" fill="#BFDBF2"/>
<path fill-rule="evenodd" clip-rule="evenodd" d="M65.497 31.6195L65.5273 31.8018L64.1398 32.0044L64.1095 31.8221L65.497 31.6195Z" fill="#BFDBF2"/>
<path d="M64.2369 39.2267L64.2131 39.4176L65.6101 39.5914L65.6339 39.4004L64.2369 39.2267Z" fill="#BFDBF2"/>
<path fill-rule="evenodd" clip-rule="evenodd" d="M63.7246 46.943L63.6537 47.1151L62.3472 46.5986L62.4181 46.4264L63.7246 46.943Z" fill="#BFDBF2"/>
<path fill-rule="evenodd" clip-rule="evenodd" d="M59.9267 53.7487L59.8153 53.9006L58.6911 53.06L58.8025 52.9081L59.9267 53.7487Z" fill="#BFDBF2"/>
<path fill-rule="evenodd" clip-rule="evenodd" d="M54.5084 59.3291L54.3564 59.4405L53.4855 58.3366L53.6374 58.2252L54.5084 59.3291Z" fill="#BFDBF2"/>
<path fill-rule="evenodd" clip-rule="evenodd" d="M47.8342 63.3298L47.662 63.4007L47.105 62.1044L47.2771 62.0335L47.8342 63.3197V63.3298Z" fill="#BFDBF2"/>
<path fill-rule="evenodd" clip-rule="evenodd" d="M40.3497 65.4465L40.1674 65.4769L39.9649 64.0894L40.1472 64.059L40.3497 65.4465Z" fill="#BFDBF2"/>
<path fill-rule="evenodd" clip-rule="evenodd" d="M32.5615 65.5778L32.3792 65.5575L32.5412 64.1599L32.7235 64.1802L32.5615 65.5778Z" fill="#BFDBF2"/>
<path fill-rule="evenodd" clip-rule="evenodd" d="M25.0164 63.6739L24.8442 63.603L25.3708 62.2965L25.543 62.3674L25.0164 63.6739Z" fill="#BFDBF2"/>
<path d="M18.9103 58.6426L18.07 59.772L18.2244 59.8869L19.0647 58.7574L18.9103 58.6426Z" fill="#BFDBF2"/>
<path d="M13.6159 53.4194L12.5102 54.2908L12.6293 54.4419L13.735 53.5706L13.6159 53.4194Z" fill="#BFDBF2"/>
<path fill-rule="evenodd" clip-rule="evenodd" d="M8.63974 47.7837L8.56884 47.6115L9.85505 47.0545L9.92596 47.2266L8.62961 47.7837H8.63974Z" fill="#BFDBF2"/>
<path fill-rule="evenodd" clip-rule="evenodd" d="M6.51297 40.299L6.49273 40.1167L7.88022 39.9141L7.91061 40.0964L6.52311 40.299H6.51297Z" fill="#BFDBF2"/>
<path fill-rule="evenodd" clip-rule="evenodd" d="M6.39141 32.5211L6.41166 32.3287L7.80929 32.5009L7.78905 32.6832L6.39141 32.5211Z" fill="#BFDBF2"/>
<path fill-rule="evenodd" clip-rule="evenodd" d="M8.29543 24.9758L8.36634 24.8036L9.67279 25.3302L9.60189 25.5024L8.29543 24.9758Z" fill="#BFDBF2"/>
<path d="M12.2001 18.0188L12.0851 18.1731L13.2137 19.0146L13.3287 18.8603L12.2001 18.0188Z" fill="#BFDBF2"/>
<path d="M17.6562 12.4803L17.505 12.5994L18.3759 13.7053L18.5271 13.5863L17.6562 12.4803Z" fill="#BFDBF2"/>
<path d="M24.3559 8.51714L24.1792 8.59326L24.736 9.88621L24.9128 9.8101L24.3559 8.51714Z" fill="#BFDBF2"/>
<path fill-rule="evenodd" clip-rule="evenodd" d="M31.6703 6.47248L31.8526 6.4421L32.0552 7.8296L31.8729 7.85999L31.6703 6.47248Z" fill="#BFDBF2"/>
<path fill-rule="evenodd" clip-rule="evenodd" d="M39.4484 6.35111L39.6307 6.37136L39.4687 7.769L39.2864 7.74874L39.4484 6.35111Z" fill="#BFDBF2"/>
<path fill-rule="evenodd" clip-rule="evenodd" d="M55.8351 9.64263C56.5643 10.1997 57.2732 10.7871 57.9518 11.4049C60.899 14.0786 63.3701 17.2486 65.2336 20.7629C65.2843 20.8642 65.2539 20.9958 65.1425 21.0465C65.0412 21.1072 64.9197 21.0667 64.8589 20.9655C63.0157 17.4916 60.585 14.3622 57.6682 11.7188C56.9998 11.1111 56.301 10.544 55.5819 9.98697L55.8351 9.64263Z" fill="#F6F7F7"/>
<path fill-rule="evenodd" clip-rule="evenodd" d="M10.0475 56.2606C9.48037 55.5314 8.95375 54.7819 8.45749 54.0122C6.30028 50.6701 4.74059 46.9734 3.84935 43.0945C3.81896 42.9831 3.88985 42.8616 4.00126 42.8413C4.11266 42.8109 4.23419 42.8818 4.25445 42.9932C5.13556 46.8316 6.67498 50.4776 8.81194 53.7793C9.29807 54.5287 9.82472 55.2681 10.3716 55.9871L10.0475 56.2505V56.2606Z" fill="#F6F7F7"/>
<path fill-rule="evenodd" clip-rule="evenodd" d="M15.6482 10.3715C15.557 10.4424 15.4153 10.412 15.3545 10.3208C15.2937 10.2297 15.3038 10.098 15.395 10.0271C18.646 7.60659 22.2819 5.75321 26.1507 4.53788C29.9587 3.37319 33.9389 2.87693 37.9191 3.07948C38.0305 3.07948 38.1217 3.18076 38.1217 3.3023C38.1217 3.42383 38.0204 3.50486 37.8988 3.50486C33.9693 3.3023 30.0397 3.79856 26.2722 4.94299C22.454 6.1482 18.8587 7.98132 15.6381 10.3715" fill="#F6F7F7"/>
<path fill-rule="evenodd" clip-rule="evenodd" d="M62.0332 55.7644C62.1143 55.6732 62.2459 55.6732 62.3371 55.7441C62.4181 55.815 62.4282 55.9365 62.3674 56.0277C59.8051 59.1774 56.7364 61.8714 53.2828 63.9982C49.8799 66.0643 46.1428 67.5227 42.2335 68.3025C42.1221 68.3228 42.0107 68.2519 41.9803 68.1405C41.96 68.0291 42.0309 67.9177 42.1423 67.8873C46.001 67.1074 49.6875 65.6693 53.0499 63.6336C56.463 61.5271 59.4912 58.8635 62.0231 55.7542" fill="#F6F7F7"/>
<path fill-rule="evenodd" clip-rule="evenodd" d="M37.0076 35.225C37.595 35.8225 37.595 36.7847 36.9974 37.3721C36.3999 37.9595 35.4378 37.9595 34.8504 37.3619C34.2629 36.7644 34.2629 35.8023 34.8605 35.2149C35.458 34.6275 36.4202 34.6275 37.0076 35.225Z" fill="#CACACB"/>
<path fill-rule="evenodd" clip-rule="evenodd" d="M48.7355 27.7509L44.0667 29.3005C41.798 30.0499 41.5853 30.6171 39.7725 32.2375L36.3392 35.286L36.6734 35.7924L37.0177 36.2988L41.1499 34.3036C43.3375 33.2503 43.9451 33.2705 45.5048 31.4678L48.7254 27.7509H48.7355Z" fill="#CACACB"/>
<path fill-rule="evenodd" clip-rule="evenodd" d="M43.6919 61.2939L42.3348 52.7056C41.6664 48.533 41.079 47.7835 39.4889 43.7122L36.4607 36.0049L35.9037 36.1771L35.3467 36.3493L37.2203 44.411C38.2027 48.6748 38.1419 49.6166 39.9649 53.4449L43.7021 61.2939H43.6919Z" fill="#CACACB"/>
<path fill-rule="evenodd" clip-rule="evenodd" d="M37.0785 34.911C37.6659 35.5085 37.6659 36.4707 37.0785 37.0581C36.4809 37.6455 35.5188 37.6455 34.9314 37.0581C34.344 36.4606 34.344 35.4984 34.9314 34.911C35.5289 34.3236 36.4911 34.3236 37.0785 34.911Z" fill="#87B7E2"/>
<path fill-rule="evenodd" clip-rule="evenodd" d="M48.8165 27.4369L44.1476 28.9865C41.8689 29.7359 41.6663 30.3132 39.8535 31.9235L36.4202 34.9821L36.7544 35.4885L37.0987 35.9949L41.241 33.9997C43.4286 32.9464 44.0362 32.9667 45.5959 31.1639L48.8165 27.447V27.4369Z" fill="#87B7E2"/>
<path fill-rule="evenodd" clip-rule="evenodd" d="M43.7729 60.9799L42.4057 52.4017C41.7372 48.219 41.1498 47.4796 39.5598 43.3981L36.5316 35.6909L35.9745 35.8631L35.4175 36.0454L37.2912 44.1071C38.2736 48.3709 38.2128 49.3128 40.0358 53.1309L43.7729 60.9799Z" fill="#87B7E2"/>
</svg>
